<svg width="80" height="79" viewBox="0 0 80 79" fill="none" xmlns="http://www.w3.org/2000/svg">
<path d="M53.148 17.5934C53.148 17.5934 51.746 15.7974 50.8199 15.3746C49.8939 14.9519 50.1869 14.6522 50.1869 14.6522C50.1869 14.6522 49.2126 7.07839 50.1869 7.0674C51.1613 7.0567 73.7396 4.00373 74.1724 4.8585C74.6051 5.713 75.7351 25.2656 75.2607 25.828C74.7862 26.3904 74.5148 26.4805 73.0677 26.6614C71.6206 26.8419 58.9593 27.2934 58.9593 27.2934L53.2572 24.9363C53.2572 24.9363 53.8044 24.0427 53.8044 22.5077C53.8044 20.9728 53.4428 19.9795 53.4428 19.9795L55.9751 18.264L53.1483 17.5931L53.148 17.5934Z" fill="white"/>
<path d="M36.1028 24.4912C34.8346 24.3952 33.5953 23.7193 32.7347 22.5742C31.8345 21.3764 31.4145 19.8233 30.9169 18.3522C30.4041 16.8366 29.7609 15.4174 28.6847 14.3827C27.6441 13.3821 26.3524 12.7885 25.0452 12.5565C23.2785 12.2431 21.4706 12.5637 19.7558 13.1012C19.566 13.1607 19.4176 13.3466 19.4478 13.6001C19.474 13.8195 19.6675 14.0287 19.8596 13.9733C22.5922 13.186 25.7389 12.8357 28.1158 15.0238C29.1857 16.0086 29.7609 17.4039 30.2455 18.8849C30.7299 20.3656 31.1728 21.9423 32.065 23.15C32.9144 24.2999 34.0704 25.0886 35.3181 25.3698C34.9443 26.0263 34.6123 26.7203 34.3449 27.4465C34.2566 27.6864 34.3773 27.984 34.5725 28.0766C34.7891 28.1795 34.9959 28.037 35.0927 27.8009C35.4588 26.9079 35.8763 26.0652 36.3841 25.2786C36.5686 24.9926 36.412 24.5145 36.1031 24.4909L36.1028 24.4912Z" fill="black"/>
<path d="M35.3472 29.7061C35.2764 28.9212 35.2053 28.1366 35.1308 27.3523C35.0767 26.7816 34.3568 26.9112 34.4042 27.4794C34.5108 28.7565 34.6411 30.0318 34.7353 31.3102C34.8138 32.374 34.7421 33.3899 34.392 34.3778C33.7286 36.2502 32.3463 37.5634 30.7813 38.2158C29.8278 38.6132 28.8044 38.7717 27.7985 38.7523C27.5923 38.7482 27.4002 38.8948 27.3751 39.1603C27.3536 39.3903 27.5043 39.6688 27.7119 39.6729C29.6515 39.7101 31.6611 39.1634 33.207 37.6772C34.6518 36.2881 35.5616 34.2053 35.5159 31.954C35.5006 31.2019 35.414 30.4525 35.3469 29.7054L35.3472 29.7061Z" fill="black"/>
<path d="M28.2304 39.2037C27.5878 40.9732 26.9435 42.7467 26.299 44.5182C26.1968 44.7978 26.095 45.0777 25.9946 45.3575C25.7726 45.2188 25.5469 45.091 25.3198 44.9693C25.4219 44.6918 25.5238 44.412 25.6259 44.1345C26.2648 42.3825 26.9057 40.6304 27.5463 38.8784C27.7379 38.3559 28.4197 38.6789 28.2301 39.2037H28.2304Z" fill="black"/>
<path d="M25.506 12.6548C25.4219 12.8089 25.4058 13.0341 25.515 13.1732C25.651 13.3444 25.7745 13.5245 25.8854 13.7131C26.6964 15.0554 26.9469 16.751 27.0219 18.4033C27.0685 19.4312 27.0594 20.4717 27.0075 21.4997C26.9503 22.6185 26.7714 23.7048 26.2953 24.6808C25.7779 25.7346 25.0603 26.565 24.3996 27.4802C24.124 27.8619 24.6216 28.4647 24.9314 28.111C25.6081 27.3326 26.2614 26.4523 26.7678 25.5002C27.3119 24.4788 27.6216 23.3665 27.7255 22.1588C27.8239 21.0161 27.8222 19.843 27.7881 18.6937C27.7576 17.6638 27.6645 16.6359 27.4391 15.6408C27.3263 15.1443 27.1796 14.6587 26.9917 14.2011C26.8002 13.7326 26.5658 13.2904 26.2829 12.8913L25.506 12.6548Z" fill="black"/>
<path d="M30.8408 38.5603C30.0267 37.5864 29.0997 36.7837 28.0992 36.1211C29.0055 33.5605 28.4667 30.3787 26.9186 28.3462C26.4484 27.7287 25.9025 27.2297 25.2817 26.8552C25.1048 26.7486 24.8752 26.8976 24.8078 27.1064C24.7302 27.3463 24.8379 27.5725 25.0151 27.6805C26.9121 28.8352 27.9773 31.5673 27.7663 34.081C27.7054 34.8082 27.535 35.5022 27.2617 36.1535C27.1632 36.388 27.309 36.6415 27.4749 36.7444C29.1325 37.7726 30.6335 39.2598 31.6194 41.1923C32.5469 43.0103 32.8995 45.252 32.469 47.3392C32.3522 47.9048 32.1765 48.4649 31.9421 48.974C31.8335 49.2102 31.7091 49.4367 31.5751 49.653C31.4975 49.7781 31.4162 49.9008 31.3308 50.018C31.3068 50.0512 31.2783 50.0959 31.2481 50.1403C31.192 50.1349 31.1359 50.1421 31.0851 50.1735C30.8027 50.3495 30.6969 50.8217 30.9813 51.0794C31.3031 51.3709 31.6036 51.0186 31.812 50.7473C32.1742 50.2764 32.4698 49.7446 32.7122 49.1726C33.1813 48.0657 33.4058 46.7983 33.4061 45.5578C33.4069 42.8773 32.3988 40.4231 30.8408 38.5593V38.5603Z" fill="black"/>
<path d="M24.9845 32.5589C24.7749 32.4591 24.5885 32.5996 24.4917 32.82C24.1693 33.5526 23.3887 33.7433 22.7698 33.6005C22.0446 33.433 21.3275 32.8518 20.8508 32.1806C20.3478 31.4729 20.1385 30.6428 20.4446 29.755C20.7024 29.007 21.2136 28.3092 21.8827 28.1062C22.5428 27.906 23.2903 28.3171 23.492 29.1263C23.5493 29.3559 23.8037 29.4485 23.9721 29.3624C24.1724 29.2599 24.2223 29.0118 24.167 28.7808C23.9165 27.7337 22.9989 27.1166 22.1354 27.1429C21.1918 27.1716 20.3786 27.9719 19.9281 28.9325C19.6657 29.4926 19.4973 30.1057 19.5213 30.7553C19.543 31.3434 19.7394 31.9011 20.0093 32.3836C20.5591 33.3667 21.4937 34.1602 22.4418 34.4555C23.4993 34.7846 24.6751 34.382 25.2003 33.1555C25.2951 32.9345 25.1614 32.6426 24.9848 32.5586L24.9845 32.5589Z" fill="black"/>
<path d="M24.4739 30.407C23.8039 30.1866 23.1342 29.9665 22.4643 29.7461C22.2789 29.6849 22.0558 29.7539 21.9867 29.9993C21.9277 30.2084 21.9966 30.5116 22.1957 30.5778C22.6967 30.7443 23.1977 30.9107 23.699 31.0771L23.6609 31.1352C23.5345 31.3272 23.398 31.5145 23.284 31.7175C23.176 31.9099 23.1889 32.2014 23.3582 32.3411C23.5373 32.4888 23.7328 32.4351 23.873 32.2513C24.0107 32.0708 24.1305 31.8675 24.2564 31.6751C24.3827 31.482 24.5094 31.2886 24.6358 31.0956C24.7734 30.8854 24.7066 30.4842 24.4739 30.4077V30.407Z" fill="black"/>
<path d="M24.798 32.547C24.7139 30.8435 24.4231 29.1642 23.9542 27.5557C23.7977 27.0192 23.1317 27.3661 23.2843 27.8985C23.7204 29.4219 23.9793 31.0164 24.0623 32.6256C24.1026 33.4112 24.097 34.1985 24.0485 34.9831C23.9974 35.8108 23.8682 36.6132 23.759 37.4302C23.6942 37.9165 24.3551 38.1338 24.4645 37.6421C24.827 36.01 24.8815 34.2255 24.7985 32.5466L24.798 32.547Z" fill="black"/>
<path d="M30.3833 23.0822C30.3663 22.9267 30.2735 22.7828 30.1528 22.7271C30.0958 22.6656 30.0309 22.6218 29.9505 22.6109C29.8641 22.5989 29.755 22.6307 29.6875 22.7001C29.615 22.7746 29.5563 22.8792 29.5496 22.9974C29.5433 23.1058 29.56 23.2329 29.6232 23.316C29.6342 23.3307 29.6435 23.3464 29.6542 23.3614C29.6565 23.7849 29.7789 24.2104 30.0007 24.5362C30.0941 24.6732 30.2402 24.7337 30.3822 24.6859C30.4454 24.6647 30.4956 24.6285 30.5413 24.5717C30.594 24.5068 30.6426 24.4118 30.6448 24.3171C30.6555 23.8847 30.5686 23.45 30.383 23.0822H30.3833Z" fill="black"/>
<path d="M29.7046 19.9189C28.6575 19.7238 27.616 20.4206 27.1218 21.5318C27.0318 21.7341 27.1573 22.0294 27.3266 22.0991C27.5311 22.1839 27.6975 22.0673 27.7951 21.851C27.7579 21.9337 27.7946 21.8541 27.803 21.8373C27.8168 21.81 27.8309 21.7834 27.8456 21.7567C27.875 21.7037 27.9057 21.6521 27.9381 21.6022C27.9675 21.5575 27.9979 21.5137 28.0298 21.4714C28.0662 21.4259 28.0803 21.4092 28.0947 21.3931C28.1683 21.3111 28.2465 21.2352 28.3285 21.1662C28.3672 21.1337 28.4067 21.103 28.447 21.0739C28.4998 21.0398 28.5232 21.0254 28.5469 21.0114C28.6369 20.9584 28.73 20.9126 28.825 20.8747C28.8434 20.8672 28.8623 20.8604 28.8809 20.8535C28.8882 20.8511 28.9034 20.8463 28.9173 20.8422C28.9632 20.8289 29.0098 20.8173 29.0563 20.8081C29.1082 20.7975 29.1601 20.7893 29.2126 20.7831C29.2389 20.78 29.2651 20.778 29.2913 20.7763C29.2984 20.7759 29.3178 20.7756 29.3294 20.7753C29.4276 20.7777 29.5249 20.7855 29.6222 20.8029C29.8123 20.8368 30.0149 20.6454 30.0284 20.4113C30.0425 20.1632 29.9082 19.9572 29.7051 19.9192L29.7046 19.9189Z" fill="black"/>
<path d="M20.2049 13.3556C20.1795 13.1434 19.9871 12.9281 19.7987 12.9876C17.2068 13.8057 14.7532 15.1756 12.5651 17.05C11.4751 17.9836 10.4977 19.018 9.94617 20.5247C9.66521 21.2925 9.4858 22.1092 9.32163 22.9232C9.14899 23.7786 9.0133 24.6448 8.91486 25.5173C8.71993 27.2491 8.67367 29.0056 8.76958 30.7494C8.81161 31.5142 8.90667 32.3138 8.47762 32.9498C8.28326 33.2379 8.03446 33.4709 7.79778 33.7053C7.52021 33.9801 7.23671 34.2459 6.94983 34.506C4.85504 36.4063 2.50383 38.1085 1.08154 40.8597C0.453895 42.0735 0.0296343 43.4476 0.00170759 44.8907C-0.0248087 46.2607 0.256151 47.6535 0.938523 48.7648C1.03443 48.9213 1.14078 49.0666 1.25136 49.2067C-0.016346 51.6404 -0.324951 54.7556 0.729778 57.3896C1.23556 58.6526 2.01413 59.7516 3.00172 60.4942C4.00003 61.2449 5.13854 61.6424 6.29877 61.8167C7.64941 62.0196 9.01979 61.9404 10.3733 61.8259C10.8615 61.7845 10.7504 60.8742 10.2646 60.9155C8.13291 61.0966 5.82091 61.2193 3.85532 60.0288C1.9642 58.8836 0.798043 56.3904 0.837536 53.8466C0.862077 52.262 1.29339 50.7202 2.03754 49.4206C2.16307 49.2015 2.11709 48.9517 1.96109 48.7785C0.333443 46.9718 0.528367 43.8518 1.53768 41.7078C2.80397 39.0185 5.03755 37.3355 7.04517 35.5541C7.59271 35.0681 8.14193 34.574 8.64856 34.0259C9.12811 33.5068 9.47283 32.9098 9.54335 32.116C9.61556 31.2996 9.49285 30.4545 9.47395 29.6364C9.45505 28.8125 9.47452 27.9866 9.52501 27.1647C9.62741 25.4947 9.85872 23.8254 10.2435 22.2162C10.417 21.49 10.6271 20.756 10.9625 20.1136C11.3016 19.4646 11.7535 18.936 12.246 18.4593C14.4771 16.2999 17.147 14.7389 19.9011 13.8477C20.0881 13.7872 20.2348 13.6071 20.2049 13.3556Z" fill="black"/>
<path d="M34.9431 30.82C34.4825 30.8074 34.0669 30.5955 33.6655 30.3235C33.496 30.2087 33.3019 30.0672 33.129 29.9302C33.0506 29.868 32.9738 29.8031 32.8999 29.733C32.8579 29.693 32.8176 29.651 32.7775 29.6086C32.7476 29.5734 32.7355 29.5577 32.7239 29.5416C32.6943 29.5017 32.6661 29.46 32.6401 29.4162C32.6297 29.3988 32.6201 29.381 32.6105 29.3629C32.7253 29.3585 32.8463 29.3694 32.9674 29.3804C33.5073 29.4296 34.0469 29.4784 34.5868 29.5273C34.7832 29.5451 34.9679 29.3814 34.9908 29.1377C35.0125 28.906 34.8667 28.6675 34.6692 28.6484C34.1657 28.5995 33.6621 28.5503 33.1586 28.5011C32.9073 28.4765 32.6551 28.4427 32.4032 28.4283C32.0982 28.4109 31.852 28.6084 31.8164 28.9949C31.7152 30.0942 32.7561 30.7336 33.417 31.1703C33.861 31.4635 34.3482 31.6935 34.8596 31.7068C35.0582 31.7119 35.2435 31.5688 35.2675 31.3135C35.2884 31.0903 35.1428 30.8252 34.9431 30.8194V30.82Z" fill="black"/>
<path d="M38.8545 70.6726C37.5083 68.1247 36.2412 65.4839 35.0956 62.7952C34.1523 60.577 33.3808 58.2827 32.6254 55.9627C31.954 53.9004 31.2561 51.819 30.2465 49.9607C29.2138 48.059 27.857 46.5325 26.189 45.4766C26.1244 45.4352 26.0601 45.3942 25.9938 45.3573C25.7718 45.2186 25.5461 45.0908 25.319 44.9691C23.7977 44.1452 22.1794 43.5943 20.5794 43.0479C20.3895 42.983 20.3055 42.6792 20.3734 42.4755C20.4505 42.2346 20.6564 42.1611 20.8459 42.224C22.466 42.7554 24.0928 43.3104 25.6251 44.1343C25.8524 44.2556 26.0761 44.3837 26.2981 44.518C26.5935 44.6957 26.8835 44.8843 27.1681 45.0884C28.8293 46.2745 30.1554 47.9612 31.1543 49.9497C32.1368 51.9034 32.8386 54.0306 33.5278 56.1534C34.2939 58.5082 35.1154 60.8176 36.0945 63.0573C37.1614 65.4924 38.3786 67.8168 39.5168 70.2021C39.7368 70.6641 39.0872 71.1172 38.8545 70.6726Z" fill="black"/>
<path d="M41.9098 72.1804C41.7704 70.3098 41.0779 68.6104 40.2717 67.0364C40.0655 66.6335 39.8502 66.2375 39.6324 65.8438C39.4415 65.4987 39.2632 65.13 39.0135 64.8412C38.367 64.0935 37.565 64.5275 36.947 65.0801C36.5709 65.4167 37.0147 66.1046 37.391 65.7734C37.6186 65.5732 37.9171 65.2885 38.2169 65.3138C38.479 65.336 38.6341 65.6552 38.7673 65.8917C39.1402 66.5546 39.5072 67.224 39.8463 67.9133C40.4443 69.1285 41.4271 71.3917 41.116 71.838C40.8048 72.2843 39.8104 70.6977 39.4482 70.0658C39.2116 69.6534 38.6708 70.2179 38.8553 70.6731C39.3458 71.8828 40.4671 73.0744 41.6841 72.664C41.8483 72.6086 41.9233 72.3632 41.9095 72.1801L41.9098 72.1804Z" fill="black"/>
<path d="M42.5598 68.0884C42.2402 66.6836 41.7829 65.0659 40.5203 64.5629C39.9051 64.3175 39.2007 64.3742 38.7019 64.9159C38.3572 65.2904 38.7931 65.9817 39.1459 65.6096C39.5406 65.1934 40.098 65.2566 40.5375 65.5426C41.0695 65.8891 41.3654 66.5842 41.5671 67.2437C41.8097 68.0372 41.9663 68.8724 42.1485 69.6881C42.3025 70.3777 42.5209 71.3068 41.8548 71.6878C41.4185 71.9373 41.6949 72.7277 42.146 72.5227C43.687 71.8228 42.8627 69.4219 42.5595 68.0881L42.5598 68.0884Z" fill="black"/>
<path d="M45.225 70.8398C45.1677 71.295 44.9528 71.5879 44.6718 71.7157C44.4498 71.8199 44.1886 71.8219 43.9308 71.7221C43.8913 71.7092 43.8538 71.6917 43.8163 71.6723C43.2597 71.3948 42.7192 70.792 42.4041 70.1762C42.1607 69.7012 42.6904 69.1678 42.9841 69.6318C43.1881 69.9527 43.3923 70.252 43.6572 70.5036C43.8648 70.7031 44.117 70.9393 44.3517 70.9133C44.418 70.9068 44.4572 70.859 44.4786 70.792C44.5288 70.6447 44.4964 70.4038 44.4823 70.2825C44.4448 69.9551 44.3373 69.6407 44.1923 69.3608C43.8738 68.745 43.4227 68.2485 42.9697 67.7824C42.3827 67.1816 41.7937 66.5833 41.2067 65.9805C40.8557 65.6183 40.548 64.7035 41.3821 65.3821C42.245 66.0847 42.9144 66.5508 43.5407 67.2035C44.3926 68.0903 45.4112 69.3417 45.225 70.8398Z" fill="black"/>
<path d="M51.4973 75.9312C50.8922 76.0549 50.2854 76.1762 49.6787 76.2999C48.8231 76.4735 47.9658 76.6468 47.1083 76.8204C46.5946 76.9246 46.0809 77.0285 45.5672 77.1327C45.3184 77.1846 45.0679 77.2345 44.8191 77.2844C44.2642 77.3972 43.7077 77.51 43.1528 77.6227C41.9537 77.8657 40.7542 78.1193 39.5443 78.2819C38.0391 78.4835 36.4512 78.5833 34.9567 78.217C33.6662 77.9006 32.6693 77.3541 31.7545 76.1765C30.924 75.1076 30.2921 73.8477 29.5906 72.6595C27.9832 69.936 26.5353 67.0805 25.08 64.2357C24.3516 62.8154 23.623 61.3973 22.8659 59.9986C22.2929 58.9382 21.2997 57.3273 20.0808 58.0405C19.6619 58.2876 19.3846 57.4832 19.7998 57.2337C20.4729 56.8325 21.2585 56.9843 21.8924 57.4203C22.5457 57.869 23.0111 58.6194 23.421 59.3654C25.0033 62.2427 26.4495 65.2284 27.9942 68.1341C28.7691 69.5956 29.5674 71.0373 30.4106 72.4425C30.9243 73.3013 31.4721 74.1296 32.025 74.9515C32.4278 75.5498 32.7945 76.2893 33.3407 76.712C34.2893 77.4471 35.5494 77.484 36.627 77.5404C38.9898 77.6641 41.3435 77.0743 43.6614 76.6037C44.0104 76.5323 44.3596 76.4629 44.7085 76.3912C44.9556 76.3413 45.2044 76.2914 45.4513 76.2415C46.6219 76.005 47.7926 75.7665 48.965 75.5283C49.2476 75.4719 49.5322 75.4155 49.8152 75.3571C50.3057 75.7668 50.8945 75.938 51.4978 75.9315L51.4973 75.9312Z" fill="black"/>
<path d="M62.7615 73.6119C62.6101 72.4884 61.7519 71.3801 61.0239 70.9103C59.9971 70.248 58.7649 70.2268 57.6306 70.2415C57.4343 70.2439 57.2515 70.3727 57.2275 70.6304C57.2069 70.8505 57.3508 71.1139 57.5485 71.1187C58.5643 71.143 59.6335 71.1259 60.5745 71.6573C61.0484 71.9248 61.4859 72.3568 61.7387 72.9189C61.8893 73.2542 61.9979 73.7097 61.9807 74.0931C61.9644 74.4522 61.7147 74.987 61.3869 74.6381C61.304 74.5496 61.2484 74.4304 61.1943 74.3135C60.9945 73.8805 60.8888 73.3468 60.59 72.9903C60.2346 72.5656 59.6501 72.5389 59.1765 72.5338C57.9737 72.5212 56.8196 73.1185 55.7889 73.8194C54.4679 74.7171 53.1398 75.8728 51.57 75.9292C51.5449 75.9316 51.5217 75.9316 51.4966 75.9316C50.8935 75.9381 50.3045 75.7669 49.814 75.3571C49.7155 75.2748 49.6207 75.1835 49.5313 75.0817C49.388 74.919 49.1322 74.9949 49.023 75.1706C48.9513 75.2854 48.9389 75.4111 48.964 75.5283C48.9855 75.6237 49.032 75.7125 49.0963 75.7863C49.2752 75.99 49.4704 76.1616 49.678 76.3003C50.702 76.9899 52.014 76.9226 53.1093 76.4869C54.6862 75.8581 55.9731 74.4943 57.5285 73.8067C58.0952 73.5562 58.7412 73.3642 59.3477 73.4038C60.2879 73.4657 60.1677 74.1973 60.636 74.9505C60.8402 75.2789 61.1254 75.5526 61.4589 75.6295C62.3514 75.8352 62.8828 74.5124 62.7615 73.6126V73.6119Z" fill="black"/>
<path d="M61.4999 70.9581C61.5066 70.9038 61.5086 70.8543 61.5049 70.8126C61.4212 69.8841 60.4832 68.9119 59.7678 68.7298C59.1819 68.5808 58.5323 68.659 57.9407 68.7185C57.2948 68.7837 56.653 68.903 56.0223 69.0845C55.5763 69.213 55.666 70.0649 56.1252 69.9497C57.174 69.6866 58.301 69.4679 59.3752 69.5748C59.8093 69.6182 60.1018 69.8513 60.3859 70.2586C60.8824 70.9694 60.7125 71.3754 60.9501 71.5445C61.314 71.8039 61.4643 71.2469 61.5001 70.9581H61.4999Z" fill="black"/>
<path d="M58.7207 66.6263C58.1991 66.5727 57.6719 66.7145 57.1695 66.8696C56.6183 67.0395 56.0781 67.2524 55.5511 67.5114C55.1178 67.7246 55.4002 68.5277 55.8332 68.3199C56.6256 67.9392 57.4961 67.5872 58.3526 67.5158C58.7032 67.4868 59.0685 67.5609 59.3334 67.8599C59.5619 68.1179 59.684 68.4894 59.6818 68.8649C59.6781 69.4226 60.3684 69.547 60.4098 68.9651C60.4959 67.7533 59.6967 66.7271 58.7207 66.6263Z" fill="black"/>
<path d="M58.7017 64.97C57.8442 64.5518 56.8701 64.7763 56.0399 65.1781C55.1742 65.5974 54.3939 66.2296 53.5457 66.694C52.6391 67.1906 51.6571 67.3525 50.6862 67.5682C49.7037 67.7865 48.7211 68.0066 47.7392 68.2284C47.7293 67.468 47.0695 66.9804 46.5575 66.6393C45.9234 66.2166 45.2447 65.9176 44.5397 65.7222C43.7375 65.4997 42.9073 65.4495 42.0887 65.5434C41.6167 65.5974 41.7242 66.4743 42.1936 66.4237C43.6788 66.2631 45.2232 66.6817 46.4941 67.6355C46.6317 67.7387 47.1059 68.0582 46.9823 68.3432C46.8893 68.5581 46.3838 68.2554 46.2689 68.2031C45.4907 67.8491 44.6486 67.658 43.8165 67.6925C43.3933 67.71 43.4004 68.5844 43.8278 68.5964C44.2729 68.6087 44.7031 68.6586 45.1265 68.7601C45.0193 68.7943 44.9127 68.8319 44.8074 68.8746C44.628 68.9474 44.5366 69.2453 44.6153 69.4473C44.8213 69.9742 45.7663 69.5488 46.1177 69.4859C47.4895 69.2402 48.8238 68.8841 50.186 68.5824C51.1274 68.3736 52.0918 68.2188 53.0109 67.8894C53.8489 67.589 54.5996 67.0409 55.3674 66.5505C56.1048 66.0799 56.9333 65.5858 57.7903 65.6425C58.5392 65.6921 59.3124 66.2576 59.3643 67.2404C59.3948 67.8166 60.126 68.2947 60.17 67.723C60.3057 65.9566 59.4312 65.3251 58.7017 64.9693V64.97Z" fill="black"/>
<path d="M56.2156 67.6589C56.1341 67.4508 55.9239 67.3212 55.7408 67.4255C55.6505 67.4767 55.5574 67.5195 55.4623 67.5554C55.3342 67.5943 55.2036 67.6169 55.0718 67.6237C55.0244 67.623 54.9767 67.6223 54.9293 67.6172C54.8371 67.6077 54.7406 67.6367 54.6669 67.7064C54.5961 67.7731 54.5357 67.8927 54.5292 68.0031C54.516 68.2352 54.6463 68.4659 54.8478 68.4878C55.245 68.5312 55.6654 68.4536 56.0232 68.2338C56.1106 68.1802 56.1829 68.1029 56.2196 67.9894C56.2514 67.8913 56.254 67.7557 56.2159 67.6586L56.2156 67.6589Z" fill="black"/>
<path d="M45.567 77.1325C45.3182 77.1844 45.0677 77.2343 44.8189 77.2842C44.7831 76.9873 44.7473 76.69 44.7081 76.391C44.6759 76.1459 44.6418 75.8989 44.606 75.6539C44.4161 74.3355 44.189 73.0236 43.9292 71.7227C43.8522 71.3345 43.7718 70.9486 43.6895 70.5625C43.8629 70.7033 44.1154 70.9398 44.3498 70.9138C44.4161 70.9073 44.4553 70.8595 44.4768 70.7925C44.5431 71.0983 44.6074 71.4062 44.67 71.7162C44.9724 73.2081 45.2373 74.7192 45.4505 76.2413C45.4917 76.5382 45.5309 76.8355 45.567 77.1325Z" fill="black"/>
<path d="M21.1261 42.6887C21.0127 41.5179 20.7332 40.3674 20.3013 39.3111C20.0849 38.7818 19.3845 39.1382 19.6017 39.6692C20.279 41.3256 20.5484 43.1883 20.3811 45.0257C20.2268 46.7187 19.7275 48.5435 18.6381 49.6934C18.1072 50.2535 17.4003 50.6748 16.6815 50.4582C16.4406 50.3857 16.0965 50.574 16.1732 50.9468C16.5272 52.6653 16.2542 54.4604 15.5625 56.0047C14.8767 57.5353 13.7628 58.7453 12.5289 59.6106C11.8025 60.1197 11.0254 60.5179 10.2288 60.8339C10.0434 60.9074 9.96557 61.202 10.0369 61.4067C10.1185 61.6408 10.3235 61.7118 10.5097 61.6394C13.5159 60.4693 16.2954 57.8965 16.9571 53.9748C17.0996 53.1315 17.1202 52.2549 17.011 51.4037C18.3752 51.4368 19.5419 50.1827 20.2051 48.7639C21.0517 46.9534 21.3253 44.7404 21.1264 42.6887H21.1261Z" fill="black"/>
<path d="M26.6571 66.8187C26.5276 66.617 26.3132 66.6119 26.1476 66.7407C25.0447 67.5981 23.7984 68.1579 22.5014 68.381C22.0241 68.463 22.131 69.3621 22.6083 69.2781C24.0331 69.0276 25.393 68.3995 26.5925 67.4358C26.7558 67.3046 26.7708 66.9964 26.6568 66.819L26.6571 66.8187Z" fill="black"/>
<path d="M22.9973 68.5337L21.7634 71.9841C21.6094 72.4143 21.4763 72.9402 21.094 73.1452C20.689 73.3626 20.1928 73.3797 19.7586 73.4412C17.7411 73.7272 15.7056 73.731 13.6808 73.5669C11.6105 73.3991 9.55239 73.0608 7.50386 72.6672C6.49399 72.4731 5.48439 72.2732 4.47762 72.0565C4.32924 72.0244 4.16704 71.9909 4.03333 71.9003C3.87705 71.7944 3.88044 71.6372 3.91626 71.4376C4.01838 70.869 4.19469 70.3052 4.3394 69.7505C5.02374 67.1244 5.80626 64.5365 6.67481 61.9917C6.85704 61.4579 6.16902 61.1305 5.98454 61.6643C5.15096 64.0769 4.40428 66.5325 3.74447 69.023C3.58284 69.633 3.42571 70.245 3.27508 70.8594C3.13347 71.4373 3.04461 72.0476 3.45138 72.5025C3.77437 72.8637 4.23672 72.9293 4.65167 73.015C5.19864 73.1282 5.74561 73.2409 6.29314 73.351C10.5975 74.2165 14.9795 74.9297 19.3468 74.4147C19.9064 74.3488 20.4915 74.302 21.0368 74.1291C21.5888 73.9541 21.9665 73.5765 22.2283 72.9631C22.5039 72.3172 22.7175 71.6242 22.9561 70.9575C23.2055 70.2611 23.4548 69.5646 23.7042 68.8682C23.8983 68.3262 23.1922 67.9907 22.9981 68.5337H22.9973Z" fill="black"/>
<path d="M56.4587 17.5142C55.9376 18.0217 55.4025 18.5053 54.8512 18.9605C54.5809 19.1861 54.3053 19.4027 54.0277 19.6132C53.9885 19.6437 53.949 19.6741 53.9078 19.7042C53.6787 19.8798 53.4443 20.064 53.2008 20.2072C53.1275 19.9167 53.0307 19.6368 52.9055 19.3723C53.1255 19.2011 53.3583 19.0494 53.5786 18.8822C53.593 18.8713 53.6054 18.8628 53.6198 18.8518C53.89 18.6481 54.1549 18.4376 54.4182 18.2209C54.7152 17.9759 55.0069 17.7223 55.2936 17.4598C54.4399 17.3211 53.5859 17.1803 52.732 17.0412C52.5099 17.0043 52.4115 16.792 52.4151 16.5815C52.4205 16.3409 52.5638 16.1065 52.816 16.1478C52.9021 16.1608 52.9895 16.1759 53.0756 16.1892C54.1408 16.3628 55.2058 16.534 56.2708 16.7073C56.5966 16.7592 56.7129 17.2647 56.4587 17.5138V17.5142Z" fill="black"/>
<path d="M73.8534 1.46557C73.823 1.46557 73.7908 1.46762 73.7603 1.46762C72.0097 1.51957 70.2627 1.59987 68.5158 1.71264C65.3851 1.91426 62.2582 2.21361 59.142 2.6124C56.1259 2.99855 53.1208 3.47765 50.1244 4.0456C50.1656 4.74374 50.2068 5.44188 50.2497 6.14003C50.2658 6.44348 50.2855 6.74488 50.3036 7.04628C50.4218 9.04982 50.538 11.0557 50.6274 13.0613C50.6525 13.6296 49.9366 13.7684 49.8971 13.1891C49.7557 11.1682 49.6429 9.14311 49.532 7.1201C49.516 6.8187 49.4999 6.51729 49.4838 6.21828C49.439 5.3855 49.3924 4.55306 49.3459 3.72028C49.3315 3.46877 49.4533 3.23878 49.668 3.19778C51.4257 2.85947 53.1888 2.55363 54.9555 2.27854C58.0647 1.79295 61.1846 1.4068 64.3095 1.12077C67.4043 0.834408 70.5045 0.648168 73.6083 0.556927C73.6532 0.554877 73.6994 0.554877 73.7443 0.552485C73.9519 0.545992 74.1434 0.671747 74.1756 0.942735C74.2024 1.16827 74.0594 1.45874 73.8534 1.46523V1.46557Z" fill="black"/>
<path d="M52.4141 16.5813C52.2942 16.2843 52.158 15.998 52.0006 15.727C50.5292 13.1856 47.7173 11.926 45.2169 12.1905C44.0231 12.3162 42.8488 12.7868 41.9074 13.6995C40.7833 14.7859 40.1658 16.4207 39.7988 18.0688C39.4067 19.8188 39.3227 21.7635 39.7952 23.5026C40.2104 25.027 41.0355 26.315 42.1114 27.2387C42.6287 27.6832 43.1836 28.0216 43.7616 28.2642C44.143 28.4244 44.5331 28.5417 44.9303 28.6199C44.6725 28.867 44.422 29.1315 44.1802 29.4113C43.8259 29.3071 43.477 29.1708 43.1385 29.0057C42.3421 28.6175 41.5954 28.0605 40.9387 27.3275C39.7949 26.0505 39.0431 24.3894 38.7889 22.5266C38.5187 20.5316 38.7853 18.4392 39.3689 16.5574C39.9114 14.8033 40.8189 13.2789 42.1684 12.3292C43.3514 11.4964 44.7351 11.1605 46.0936 11.2039C47.4914 11.2473 48.875 11.7114 50.0976 12.5308C51.347 13.3677 52.4818 14.5907 53.0742 16.1886C53.101 16.256 53.1261 16.3253 53.1495 16.3947C53.3283 16.9216 52.677 17.2535 52.4784 16.7374C52.4587 16.6855 52.4372 16.6332 52.4138 16.5813H52.4141Z" fill="black"/>
<path d="M53.6445 24.4588C53.5317 24.7493 53.4027 25.0336 53.258 25.3046C53.2044 25.4064 53.1469 25.5062 53.0879 25.606C52.7497 25.5885 52.4095 25.5844 52.0713 25.5974C52.3398 25.2311 52.5759 24.832 52.7675 24.4068C52.8391 24.2572 52.9018 24.1034 52.9607 23.9448C53.3813 22.8086 53.5049 21.4229 53.1988 20.2067C53.1255 19.9162 53.0287 19.6364 52.9034 19.3719C53.1235 19.2007 53.3562 19.0489 53.5765 18.8818C53.7018 19.1443 53.8183 19.4197 53.906 19.7037C53.9238 19.7645 53.9418 19.8274 53.9579 19.8882C54.348 21.4058 54.1926 23.0386 53.6448 24.4588H53.6445Z" fill="black"/>
<path d="M74.4899 38.619C73.9731 36.9818 73.4563 35.3449 72.9395 33.7077C72.8318 33.3667 72.3395 33.3338 72.2541 33.7186C71.8544 35.5147 71.4301 37.3057 71.0586 39.1104C71.0112 39.341 71.0651 39.5864 71.2648 39.681C71.4352 39.762 71.6809 39.6609 71.7359 39.4312C72.0625 38.0719 72.3593 36.7009 72.6594 35.3316C73.0411 36.544 73.423 37.7568 73.8047 38.9692C73.9759 39.5126 74.6608 39.1592 74.4902 38.6183L74.4899 38.619Z" fill="black"/>
<path d="M79.979 45.5941C79.7688 42.2452 77.8007 39.2336 75.0472 38.5187C74.7395 38.4388 74.4283 38.4032 74.1138 38.4019C73.8751 38.4008 73.6531 38.5638 73.6241 38.8741C73.5984 39.1475 73.7742 39.454 74.0139 39.4674C76.3846 39.601 78.3979 41.7446 78.953 44.5167C79.564 47.5669 78.5601 51.031 76.5795 53.0352C75.5485 54.0785 74.2904 54.5897 72.955 54.6475C71.5981 54.7062 70.2167 54.3163 68.9589 53.7211C67.8218 53.1828 66.7265 52.3924 66.0415 51.1339C65.3166 49.8015 65.2407 48.0925 65.4432 46.5592C65.852 43.4645 67.5248 40.4515 70.2258 39.9222C70.5411 39.8603 70.8574 39.8392 71.1761 39.8607C71.6503 39.8925 71.7411 39.0187 71.2602 38.965C69.7944 38.8013 68.3349 39.4475 67.2131 40.5817C66.0847 41.7224 65.3061 43.3271 64.8932 45.0235C64.4748 46.7423 64.3513 48.6088 64.8094 50.3349C65.2565 52.0196 66.318 53.2409 67.5716 54.0741C68.8461 54.9212 70.3273 55.4423 71.7702 55.6245C73.3096 55.8189 74.8909 55.5544 76.2385 54.5945C78.7561 52.8011 80.1976 49.0787 79.979 45.5935V45.5941Z" fill="black"/>
<path d="M75.6829 25.9792C75.6829 26.2307 75.4485 26.4128 75.2623 26.3869C75.0403 26.3565 74.9258 26.1244 74.9258 25.8753C74.9277 24.0126 74.9114 22.1478 74.8739 20.2854C74.8095 16.9829 74.686 13.6829 74.5015 10.387C74.4084 8.71934 74.3009 7.05651 74.1794 5.39094C74.1543 5.0352 74.1275 4.67981 74.1007 4.32646C74.0775 4.02301 74.0524 3.71922 74.029 3.41577C74.0166 3.25311 74.0022 3.08839 73.9895 2.92573C73.9537 2.49858 73.9698 1.8698 73.7588 1.46862C73.7159 1.38421 73.664 1.3104 73.5977 1.24957C73.3757 1.04351 73.4383 0.718532 73.6067 0.557922C73.7176 0.449595 73.8787 0.417131 74.031 0.546986C74.5627 1.00011 74.6485 1.80248 74.7111 2.5266C74.7345 2.79109 74.756 3.05559 74.7774 3.31803C74.8025 3.62183 74.8276 3.92528 74.8507 4.22873C74.8829 4.62787 74.9134 5.02461 74.9418 5.42135C75.4519 12.2559 75.6899 19.1187 75.6829 25.9792Z" fill="black"/>
<path d="M75.6252 26.019C75.5629 25.7883 75.3008 25.693 75.1228 25.7808C74.9124 25.8847 74.8622 26.1342 74.9189 26.3676C74.9386 26.4482 74.8196 26.6037 74.7411 26.6584C74.5854 26.7663 74.3849 26.7858 74.2097 26.8115C73.7377 26.8808 73.2638 26.9355 72.7905 26.9915C71.8486 27.1026 70.9056 27.1976 69.9612 27.2765C68.061 27.4354 66.1558 27.5325 64.2508 27.5612C63.1673 27.5776 62.0821 27.5352 60.9992 27.5639C60.58 27.5749 60.5941 28.3895 61.0102 28.4203C62.0565 28.4979 63.116 28.4671 64.1637 28.4541C65.2032 28.4411 66.2429 28.4111 67.2816 28.3598C69.3682 28.2569 71.4523 28.0714 73.5284 27.8096C74.0246 27.7471 74.6131 27.755 75.0644 27.4758C75.5307 27.1877 75.7874 26.6204 75.6249 26.0187L75.6252 26.019Z" fill="black"/>
<path d="M74.8492 4.22871C74.6004 4.26357 74.35 4.29603 74.0992 4.32645C70.0664 4.85339 66.0303 5.34547 61.9902 5.80748C58.0955 6.25207 54.2007 6.67239 50.3002 7.0476C50.0444 7.07358 49.7865 7.0975 49.5287 7.12142C49.5126 6.82001 49.4965 6.51861 49.4805 6.2196C49.7363 6.19363 49.9925 6.16766 50.2466 6.14169C52.0723 5.95955 53.8963 5.77092 55.722 5.57784C60.406 5.08132 65.087 4.54139 69.7657 3.96046C71.1869 3.78481 72.6064 3.60267 74.0275 3.41609C74.2763 3.38568 74.5251 3.35322 74.7756 3.31836C74.8007 3.62215 74.8258 3.9256 74.849 4.22906L74.8492 4.22871Z" fill="black"/>
<path d="M59.5579 10.2416C59.4831 10.2002 59.3968 10.2026 59.3178 10.2337C59.1287 10.2296 58.9572 10.3851 58.9349 10.622C58.8672 11.3391 59.144 12.0941 59.642 12.4967C59.8482 12.6635 60.0956 12.5726 60.2 12.3039C60.4921 11.5524 60.1735 10.5803 59.5579 10.2416Z" fill="black"/>
<path d="M68.1374 10.089C68.1261 9.93278 68.0889 9.77248 68.0347 9.63064C67.9811 9.49051 67.9112 9.35106 67.8217 9.23963C67.712 9.10292 67.585 8.9662 67.4332 8.9016C67.2617 8.8288 67.0757 8.90536 66.9866 9.0995C66.9493 9.18085 66.927 9.27997 66.9417 9.37396C66.9344 9.40745 66.9282 9.43821 66.9253 9.47103C66.8737 10.0733 67.1646 10.6577 67.6208 10.8977C67.6993 10.939 67.8172 10.9376 67.8945 10.8932C67.9772 10.8457 68.0663 10.7603 68.0914 10.6481C68.134 10.4585 68.1518 10.2862 68.1374 10.089Z" fill="black"/>
<path d="M62.6869 17.2507C62.3758 17.1287 62.0629 17.0125 61.7501 16.8953C62.6886 15.1395 63.5783 13.2029 63.4683 11.0562C63.3574 8.89446 62.1064 7.06144 60.5227 6.17193C59.5664 5.63508 58.5089 5.44133 57.4621 5.49019C57.2669 5.49942 57.13 5.76938 57.156 5.98604C57.1867 6.24335 57.3695 6.36262 57.5653 6.35681C59.1481 6.31204 60.7955 6.96166 61.8226 8.47858C62.2954 9.17672 62.615 10.0085 62.703 10.9086C62.8009 11.9102 62.6014 12.9087 62.2863 13.8303C61.916 14.9133 61.3907 15.9026 60.8581 16.8761C60.7329 17.1047 60.7738 17.4858 61.0231 17.577C61.4872 17.7468 61.9504 17.9208 62.4121 18.1002C62.8711 18.2786 63.1504 17.4314 62.6869 17.2496V17.2507Z" fill="black"/>
<path d="M67.6223 18.0731C67.5137 17.9025 67.3416 17.8728 67.1828 17.934C65.543 18.5645 63.9041 19.1977 62.2649 19.8306C62.0767 19.9033 61.9986 20.2051 62.0702 20.4111C62.143 20.6199 62.3114 20.6992 62.4792 20.6668C62.5007 20.7023 62.5255 20.7365 62.5588 20.7676C63.69 21.8238 65.1723 22.6474 66.5921 21.9332C67.1997 21.6277 67.708 21.0273 67.9016 20.255C68.0883 19.5093 68.0217 18.7015 67.6226 18.0734L67.6223 18.0731ZM67.154 20.1009C66.9721 20.6517 66.569 21.0119 66.1092 21.1821C65.1292 21.545 64.1608 21.0177 63.3591 20.3377C64.6254 19.8545 65.8917 19.3713 67.1577 18.8864C67.2982 19.266 67.2838 19.7075 67.154 20.1012V20.1009Z" fill="black"/>
<path d="M60.5056 48.6211C56.8543 52.6217 51.4828 51.0713 47.3874 49.0527C45.2915 48.0183 43.2241 46.5722 41.8458 44.3431C40.5874 42.3136 39.9233 39.7007 40.4032 37.1983C40.3834 37.1853 40.3637 37.1703 40.3442 37.1508C39.3115 36.1533 38.2805 35.1538 37.2511 34.1522C36.9075 33.8203 37.2725 33.1762 37.6235 33.4017C38.1891 33.3672 38.7546 33.3324 39.3222 33.2975C39.8734 33.263 40.4266 33.2131 40.9798 33.2066C41.1408 32.6752 41.3073 32.1592 41.5346 31.6583C41.9767 30.6891 42.5174 29.802 43.1403 29.0065C43.3389 28.7485 43.5465 28.5014 43.7631 28.2649C44.4345 27.5254 45.1772 26.8837 45.9755 26.3396C48.0393 24.9324 50.4128 24.3511 52.7702 24.4075C52.8151 24.4096 52.8579 24.4096 52.9025 24.412C53.1513 24.4205 53.4001 24.4359 53.6472 24.4595C54.6568 24.5548 55.6574 24.7698 56.6382 25.0797C57.8069 25.4484 58.9635 25.96 59.9908 26.7384C61.9688 28.239 63.1824 30.93 63.7891 33.5948C64.9688 38.7771 63.8608 44.9483 60.5065 48.6215L60.5056 48.6211Z" fill="black"/>
<path d="M60.6798 35.0931C60.7929 34.8122 60.592 34.5201 60.3712 34.4729C59.1317 34.2084 58.126 35.3648 57.5627 36.5762C57.337 37.0618 57.0927 37.6499 57.0208 38.2363C56.0623 39.0271 55.0216 39.8007 53.8654 39.9784C53.324 40.0618 52.5709 40.0464 52.157 39.5386C51.7833 39.0804 51.8355 38.3296 51.9474 37.7559C51.9779 37.599 52.0151 37.4435 52.0566 37.2891C52.3545 37.0704 52.651 36.8493 52.9452 36.6258C53.8572 35.9334 54.8061 35.2418 55.616 34.3772C56.3506 33.5933 56.9745 32.602 57.053 31.3813C57.0761 31.0211 56.8039 30.8106 56.5359 30.9132C55.3003 31.3858 54.1686 32.239 53.2583 33.3541C52.4947 34.2894 51.8352 35.4338 51.4465 36.6811C51.3697 36.7365 51.2941 36.7946 51.2171 36.8496C50.4656 37.3844 49.7023 37.9438 48.8749 38.2913C48.2115 38.5702 47.3181 38.7588 46.7093 38.2093C46.4969 38.0176 46.3567 37.7449 46.2744 37.4442C47.0304 36.7932 47.7302 36.0462 48.359 35.2131C48.6504 34.8269 49.0679 34.3492 48.9762 33.7696C48.8961 33.2629 48.5181 33.024 48.1192 33.0407C47.7226 33.0575 47.3875 33.2854 47.0713 33.5557C46.7034 33.8701 46.3604 34.2446 46.084 34.6766C45.6509 35.3522 45.3999 36.199 45.4588 37.0478C44.8368 37.5409 44.181 37.9711 43.4972 38.3231C43.0681 38.5442 43.3497 39.349 43.7787 39.1299C44.4287 38.7985 45.0538 38.4038 45.6484 37.9517C45.9638 38.8046 46.6185 39.3456 47.4196 39.4351C48.3996 39.5444 49.3661 39.0917 50.2197 38.5541C50.5367 38.3546 50.8496 38.1434 51.1604 37.9284C51.0809 38.536 51.0984 39.172 51.3469 39.7167C51.7043 40.4999 52.4064 40.8334 53.1127 40.9049C54.5745 41.0521 55.9207 40.1835 57.1139 39.2468C57.3201 39.7997 57.781 40.152 58.282 40.2631C59.0634 40.4367 59.7915 39.9098 60.4284 39.4348C60.6028 39.3046 60.6115 38.9714 60.4956 38.7906C60.3588 38.577 60.1387 38.5787 59.9638 38.7093C59.4724 39.0763 58.8569 39.553 58.2561 39.3158C58.049 39.2342 57.8422 39.0698 57.7791 38.8039C57.7726 38.7766 57.77 38.7489 57.7661 38.7209C58.9314 37.7562 60.0496 36.6606 60.6792 35.0938L60.6798 35.0931ZM46.2501 36.1986C46.445 35.3487 46.999 34.6991 47.5816 34.2135C47.7768 34.0509 48.0157 33.895 48.2436 33.9364C48.2507 33.9665 48.245 33.9839 48.2168 34.0338C48.1012 34.2409 47.9576 34.4264 47.8194 34.612C47.3319 35.266 46.7923 35.8613 46.2157 36.3975C46.2256 36.3302 46.2352 36.2629 46.2501 36.1983V36.1986ZM53.605 34.2183C54.3167 33.2799 55.1979 32.5446 56.1641 32.0487C55.7367 33.4211 54.4812 34.3383 53.5249 35.1044C53.2262 35.344 52.9235 35.5767 52.6208 35.8084C52.9046 35.2326 53.2434 34.6954 53.605 34.2183ZM58.0894 37.3191C58.4157 36.5038 58.952 35.6406 59.6634 35.412C59.2454 36.1562 58.6848 36.7713 58.0894 37.3191Z" fill="white"/>
<path d="M46.425 15.5766C45.7951 15.3101 45.045 15.4355 44.4859 15.8654C43.834 16.3667 43.5338 17.3409 43.7722 18.2284C43.8337 18.4577 44.0828 18.5541 44.2551 18.4659C44.4537 18.3644 44.5107 18.1119 44.4512 17.8809C44.2357 17.0429 44.946 16.4343 45.5437 16.3564C45.7973 16.3233 46.2142 16.326 46.3931 16.5956C46.5931 16.8977 46.3234 17.3625 46.1838 17.6208C45.7358 18.4502 45.3448 19.2847 45.1147 20.2432C44.9592 20.8897 44.6571 22.2184 45.4475 22.4689C45.6419 22.5304 45.8501 22.4589 45.9296 22.2132C45.9999 21.9963 45.9104 21.7054 45.7186 21.6292C45.667 21.6087 45.6833 21.6122 45.674 21.5069C45.6597 21.3401 45.6932 21.1713 45.7226 21.0087C45.7953 20.602 45.9028 20.2036 46.0314 19.8181C46.1649 19.4183 46.3223 19.0311 46.511 18.6655C46.7031 18.293 46.9288 17.9434 47.0757 17.5385C47.3649 16.7415 47.1268 15.8729 46.4252 15.5763L46.425 15.5766Z" fill="black"/>
<path d="M46.336 23.9655C46.3196 23.9313 46.303 23.8971 46.2866 23.863C46.2437 23.797 46.1901 23.7485 46.1258 23.7174C46.0795 23.6931 46.0315 23.6839 45.9825 23.6897C45.9336 23.6856 45.8865 23.6965 45.8411 23.7218C45.7931 23.7437 45.7531 23.7785 45.7212 23.8257C45.682 23.8664 45.6538 23.9166 45.6363 23.9768C45.6123 24.052 45.6049 24.1292 45.6143 24.2089C45.6174 24.2632 45.6202 24.3172 45.6233 24.3715C45.6284 24.4307 45.645 24.484 45.6727 24.5315C45.6938 24.5858 45.7257 24.6303 45.7675 24.6655C45.7962 24.685 45.825 24.7044 45.8538 24.7236C45.8989 24.7472 45.9458 24.7564 45.9937 24.7506C46.0256 24.7547 46.0567 24.7496 46.0863 24.7345C46.1337 24.7236 46.1763 24.699 46.2141 24.661C46.2372 24.6323 46.2604 24.604 46.2832 24.5756C46.323 24.511 46.3467 24.4385 46.3543 24.3586C46.3574 24.3042 46.3602 24.2499 46.3633 24.1955C46.3704 24.1162 46.3614 24.0397 46.336 23.9658V23.9655Z" fill="black"/>
<path d="M74.9016 48.4452C73.5128 47.1613 72.7842 44.9937 73.024 42.9C73.09 42.3228 72.3766 42.237 72.2883 42.7988C71.9142 45.1759 70.3822 47.1336 68.4804 47.8164C68.2931 47.8837 68.218 48.1895 68.288 48.3901C68.3718 48.6304 68.5735 48.6881 68.7619 48.6232C68.8155 48.6047 68.8674 48.5812 68.9202 48.5607C68.9721 48.5818 69.0313 48.59 69.0987 48.5767C70.9292 48.2121 72.8071 48.4335 74.5433 49.2257C74.9349 49.4044 75.2384 48.7565 74.9016 48.4452ZM70.6217 47.5051C71.3337 46.8654 71.9267 46.0357 72.3585 45.0956C72.5317 46.0948 72.8863 47.0458 73.393 47.8629C72.4852 47.6059 71.5535 47.4866 70.6217 47.5051Z" fill="black"/>
<path d="M31.6111 9.55466C30.5166 10.1353 29.0901 9.66402 28.4664 8.39827C28.1927 7.84297 28.0957 7.18856 28.1425 6.54988C28.4348 6.2249 28.7118 5.88215 28.9738 5.54487C29.2556 5.18195 29.5885 4.58906 29.2554 4.11338C28.8432 3.52527 28.2689 4.07271 27.9958 4.53233C27.7101 5.01348 27.527 5.57733 27.4446 6.16202C26.7496 6.89263 25.9425 7.46707 25.0294 7.49441C24.5253 7.50944 23.9826 7.34576 23.5955 6.93842C23.7388 6.56662 23.85 6.17501 23.9233 5.7663C24.017 5.24517 24.0695 4.66014 23.9428 4.1414C23.8088 3.59259 23.4266 3.18423 22.9386 3.21123C22.3885 3.24198 22.173 3.81369 22.173 4.40897C22.173 4.99947 22.2144 5.58075 22.3541 6.14869C22.4376 6.48768 22.5659 6.7925 22.7253 7.0652C22.5394 7.4264 22.3146 7.75753 22.0556 8.0398C21.7126 8.4133 22.151 9.10427 22.4971 8.7294C22.7792 8.4239 23.0249 8.08115 23.2336 7.70969C23.5143 7.9718 23.8418 8.16726 24.2074 8.27456C25.4209 8.63098 26.4855 8.10917 27.4145 7.28117C27.4215 7.3625 27.4271 7.44417 27.4384 7.52482C27.6071 8.7335 28.2277 9.72348 29.1265 10.2747C29.9789 10.7979 31.0232 10.8437 31.8963 10.37C32.3262 10.137 32.0435 9.32468 31.6116 9.55364L31.6111 9.55466ZM22.9033 4.42264C22.9044 4.288 22.8692 4.0734 22.9891 4.09253C23.1151 4.1127 23.1806 4.193 23.2285 4.33482C23.3586 4.71994 23.274 5.23355 23.2074 5.62517C23.182 5.7745 23.1476 5.92145 23.1089 6.06702C22.9434 5.54931 22.8985 4.96222 22.9036 4.42264H22.9033Z" fill="black"/>
<path d="M25.0445 27.3515C25.0445 27.3515 27.4863 24.3385 27.396 21.2708C27.3058 18.2032 27.4866 16.0667 27.1247 15.1355C26.763 14.2043 26.1297 13.1634 25.9941 13.1634C25.8584 13.1634 19.618 12.0132 15.2318 15.0805C10.8456 18.1482 9.21769 22.7495 9.082 28.6108C8.94632 34.472 8.99145 33.1027 7.99681 34.0339C7.00188 34.9651 0.219068 39.2381 0.399887 43.9487C0.580706 48.6598 1.66618 49.2075 1.66618 49.2075C1.66618 49.2075 -1.13749 53.7542 1.5305 58.1365C4.19849 62.5188 9.35337 62.0807 11.5692 60.8207C13.785 59.5608 16.1816 56.4931 16.4527 54.9044C16.7241 53.3158 16.6789 51.0153 16.6789 51.0153C16.6789 51.0153 19.7086 51.125 20.7035 45.7565C21.0832 43.7078 21.1258 42.6871 21.1258 42.6871C21.1258 42.6871 26.4914 44.4415 28.1193 46.2492C29.7472 48.057 31.3298 51.1246 31.3298 51.1246C31.3298 51.1246 34.1786 46.6873 32.7314 42.9078C31.2843 39.128 27.9833 36.6081 27.9833 36.6081C27.9833 36.6081 29.0234 32.938 27.7571 30.6919C26.4911 28.446 25.044 27.3505 25.044 27.3505L25.0445 27.3515Z" fill="black"/>
<path d="M4.92231 72.4902C4.92231 72.4902 0.716939 77.2559 1.66645 77.4203C2.61596 77.5847 22.829 78.5705 22.829 78.0778C22.829 77.585 22.2265 74.124 21.0355 74.1288C19.8445 74.1336 14.5539 74.1336 11.027 73.8048C7.50004 73.4761 4.92231 72.4902 4.92231 72.4902Z" fill="black"/>
<path d="M70.8999 1.96191C70.6669 1.96191 70.4502 2.11948 70.4217 2.42333C70.3977 2.67967 70.5676 3.00266 70.8026 3.00266C71.0376 3.00266 71.2523 2.8451 71.2808 2.54159C71.3048 2.28525 71.1349 1.96226 70.8999 1.96226V1.96191Z" fill="black"/>
<path d="M72.6614 1.82471C72.4404 1.82471 72.2348 1.97441 72.2077 2.2622C72.1851 2.50555 72.3462 2.81145 72.5688 2.81145C72.7914 2.81145 72.9954 2.66209 73.0225 2.3743C73.0451 2.13095 72.884 1.82505 72.6614 1.82505V1.82471Z" fill="black"/>
</svg>
