<svg width="145" height="46" viewBox="0 0 145 46" fill="none" xmlns="http://www.w3.org/2000/svg">
<path d="M139.95 0.229492H5.00499C2.52073 0.229492 0.506836 2.24338 0.506836 4.72764V40.7128C0.506836 43.1971 2.52073 45.211 5.00499 45.211H139.95C142.434 45.211 144.448 43.1971 144.448 40.7128V4.72764C144.448 2.24338 142.434 0.229492 139.95 0.229492Z" fill="black"/>
<path d="M30.8416 22.4393C30.8078 18.9195 33.7204 17.2102 33.8553 17.1315C32.2023 14.725 29.6496 14.3989 28.7612 14.3764C26.6133 14.1515 24.5329 15.6584 23.4421 15.6584C22.3513 15.6584 20.642 14.3989 18.8315 14.4326C16.5037 14.4664 14.3109 15.8158 13.1188 17.9187C10.6449 22.1919 12.4891 28.4781 14.8619 31.9417C16.0426 33.6397 17.4258 35.529 19.2363 35.4615C21.0131 35.3828 21.6653 34.3369 23.8132 34.3369C25.9611 34.3369 26.5571 35.4615 28.4013 35.4278C30.3018 35.394 31.505 33.7297 32.6408 32.0204C34.0128 30.075 34.5638 28.1632 34.575 28.0733C34.53 28.062 30.8865 26.6676 30.8416 22.4506V22.4393Z" fill="white"/>
<path d="M27.3579 12.105C28.3137 10.913 28.966 9.2937 28.786 7.64062C27.4029 7.69685 25.6823 8.59648 24.6927 9.766C23.8156 10.7893 23.0284 12.4761 23.2308 14.0617C24.7827 14.1742 26.3683 13.2858 27.3691 12.105H27.3579Z" fill="white"/>
<path d="M56.4967 35.2145H54.0227L52.662 30.9525H47.9502L46.657 35.2145H44.2505L48.9173 20.708H51.8074L56.4967 35.2145ZM52.2572 29.1645L51.0314 25.3748C50.8965 24.9925 50.6604 24.0704 50.3005 22.6422H50.2555C50.1093 23.2607 49.8844 24.1716 49.5696 25.3748L48.3663 29.1645H52.2684H52.2572Z" fill="white"/>
<path d="M68.5021 29.8611C68.5021 31.6378 68.0186 33.0435 67.0627 34.0781C66.1968 35.0002 65.1285 35.4613 63.8578 35.4613C62.4746 35.4613 61.485 34.9665 60.889 33.9769H60.844V39.4871H58.5162V28.208C58.5162 27.0834 58.4825 25.9364 58.4263 24.7669H60.4729L60.5966 26.42H60.6416C61.4175 25.1717 62.5983 24.542 64.1727 24.542C65.4097 24.542 66.433 25.0255 67.2651 26.0039C68.0861 26.9822 68.5021 28.2642 68.5021 29.8611ZM66.1294 29.951C66.1294 28.9277 65.9044 28.0955 65.4434 27.4321C64.9373 26.7461 64.2626 26.3975 63.4192 26.3975C62.8457 26.3975 62.3284 26.5886 61.8561 26.971C61.3838 27.3533 61.0802 27.8481 60.9452 28.4666C60.8778 28.759 60.8328 28.9952 60.8328 29.1751V30.9181C60.8328 31.6828 61.0689 32.3238 61.53 32.8411C61.9911 33.3584 62.5983 33.6283 63.3517 33.6283C64.2289 33.6283 64.9036 33.2909 65.3984 32.6162C65.882 31.9415 66.1294 31.0531 66.1294 29.9398V29.951Z" fill="white"/>
<path d="M80.5383 29.8611C80.5383 31.6378 80.0547 33.0435 79.0989 34.0781C78.233 35.0002 77.1646 35.4613 75.8939 35.4613C74.5107 35.4613 73.5211 34.9665 72.9251 33.9769H72.8802V39.4871H70.5524V28.208C70.5524 27.0834 70.5186 25.9364 70.4624 24.7669H72.5091L72.6328 26.42H72.6777C73.4537 25.1717 74.6232 24.542 76.2088 24.542C77.4458 24.542 78.4691 25.0255 79.3013 26.0039C80.1222 26.9822 80.5383 28.2642 80.5383 29.8611ZM78.1655 29.951C78.1655 28.9277 77.9406 28.0955 77.4795 27.4321C76.9735 26.7461 76.2988 26.3975 75.4554 26.3975C74.8818 26.3975 74.3646 26.5886 73.8922 26.971C73.4312 27.3533 73.1163 27.8481 72.9814 28.4666C72.9139 28.759 72.8689 28.9952 72.8689 29.1751V30.9181C72.8689 31.6828 73.1051 32.3238 73.5661 32.8411C74.0272 33.3696 74.6344 33.6283 75.3879 33.6283C76.265 33.6283 76.9397 33.2909 77.4345 32.6162C77.9181 31.9415 78.1655 31.0531 78.1655 29.9398V29.951Z" fill="white"/>
<path d="M94.0027 31.1538C94.0027 32.3908 93.5753 33.3916 92.7094 34.1675C91.7648 35.0109 90.4491 35.4383 88.7511 35.4383C87.188 35.4383 85.9397 35.1346 84.9951 34.5386L85.5349 32.6044C86.5582 33.2229 87.6715 33.5266 88.8973 33.5266C89.7744 33.5266 90.4491 33.3241 90.9439 32.9305C91.4275 32.537 91.6749 32.0084 91.6749 31.3449C91.6749 30.7602 91.4725 30.2654 91.0676 29.8606C90.6628 29.4557 89.9993 29.0846 89.0659 28.736C86.5245 27.7914 85.2538 26.397 85.2538 24.5752C85.2538 23.3832 85.7036 22.4049 86.592 21.6402C87.4804 20.8755 88.6611 20.4932 90.1455 20.4932C91.4612 20.4932 92.5633 20.7181 93.4404 21.1791L92.8556 23.0796C92.0347 22.6298 91.1126 22.4161 90.078 22.4161C89.2571 22.4161 88.6161 22.6185 88.1663 23.0234C87.784 23.3832 87.5816 23.8218 87.5816 24.3391C87.5816 24.9126 87.8065 25.3849 88.245 25.756C88.6274 26.1046 89.3358 26.4757 90.3592 26.8805C91.6074 27.3866 92.5295 27.9713 93.1143 28.6461C93.699 29.3208 93.9914 30.1642 93.9914 31.165L94.0027 31.1538Z" fill="white"/>
<path d="M101.684 26.4984H99.1203V31.5814C99.1203 32.8746 99.5701 33.5156 100.481 33.5156C100.897 33.5156 101.246 33.4818 101.516 33.4031L101.583 35.1686C101.122 35.3373 100.526 35.4273 99.7725 35.4273C98.8504 35.4273 98.1419 35.1461 97.6246 34.5839C97.1074 34.0216 96.8487 33.0882 96.8487 31.7613V26.4872H95.3193V24.7442H96.8487V22.8325L99.1315 22.1465V24.7554H101.695V26.4984H101.684Z" fill="white"/>
<path d="M113.246 29.8963C113.246 31.5044 112.785 32.8201 111.863 33.8546C110.896 34.923 109.625 35.4515 108.028 35.4515C106.431 35.4515 105.273 34.9454 104.362 33.9221C103.451 32.8988 102.99 31.6168 102.99 30.065C102.99 28.5131 103.463 27.1187 104.396 26.0841C105.341 25.0495 106.6 24.5322 108.197 24.5322C109.794 24.5322 110.963 25.0383 111.897 26.0616C112.785 27.0512 113.235 28.3332 113.235 29.8963H113.246ZM110.828 29.975C110.828 29.0079 110.626 28.187 110.21 27.4898C109.726 26.6576 109.029 26.2415 108.118 26.2415C107.207 26.2415 106.476 26.6576 105.982 27.4898C105.565 28.1757 105.363 29.0191 105.363 30.02C105.363 31.0208 105.565 31.808 105.982 32.5052C106.488 33.3374 107.185 33.7534 108.096 33.7534C109.007 33.7534 109.681 33.3261 110.187 32.4827C110.615 31.7743 110.828 30.9421 110.828 29.975Z" fill="white"/>
<path d="M120.792 26.8038C120.567 26.7588 120.319 26.7363 120.061 26.7363C119.24 26.7363 118.61 27.0399 118.16 27.6584C117.778 28.1982 117.575 28.8954 117.575 29.7276V35.2153H115.248L115.27 28.0408C115.27 26.8375 115.236 25.7355 115.18 24.7459H117.204L117.294 26.7476H117.362C117.609 26.0616 117.992 25.5106 118.52 25.0945C119.037 24.7234 119.6 24.5322 120.196 24.5322C120.409 24.5322 120.6 24.5435 120.78 24.5772V26.7925L120.792 26.8038Z" fill="white"/>
<path d="M131.202 29.4914C131.202 29.9075 131.18 30.2561 131.112 30.5485H124.14C124.163 31.5831 124.5 32.3703 125.152 32.9213C125.737 33.4048 126.502 33.6522 127.435 33.6522C128.47 33.6522 129.414 33.4835 130.258 33.1574L130.618 34.7768C129.628 35.2041 128.458 35.4178 127.109 35.4178C125.49 35.4178 124.208 34.9454 123.286 33.9896C122.363 33.0337 121.902 31.7518 121.902 30.1437C121.902 28.5356 122.33 27.2536 123.196 26.2078C124.095 25.0832 125.321 24.5322 126.85 24.5322C128.38 24.5322 129.504 25.0945 130.28 26.2078C130.899 27.0962 131.202 28.1982 131.202 29.5027V29.4914ZM128.987 28.8842C128.998 28.1982 128.852 27.6022 128.537 27.0962C128.132 26.4552 127.514 26.1291 126.682 26.1291C125.917 26.1291 125.298 26.4439 124.826 27.0737C124.444 27.5797 124.208 28.1757 124.14 28.8842H128.987Z" fill="white"/>
<path d="M51.4829 11.7795C51.4829 13.0615 51.1005 14.0286 50.3246 14.6808C49.6161 15.2768 48.6041 15.5804 47.2884 15.5804C46.6361 15.5804 46.0851 15.5467 45.6128 15.4905V8.47334C46.22 8.37213 46.8723 8.32715 47.5807 8.32715C48.829 8.32715 49.7736 8.59704 50.4033 9.13682C51.1118 9.75531 51.4716 10.6325 51.4716 11.7682L51.4829 11.7795ZM50.2796 11.8132C50.2796 10.9811 50.0547 10.3401 49.6161 9.9015C49.1776 9.46293 48.5366 9.23803 47.6819 9.23803C47.3221 9.23803 47.0185 9.26052 46.7598 9.31674V14.647C46.8948 14.6695 47.1534 14.6808 47.5358 14.6808C48.4129 14.6808 49.0876 14.4334 49.5599 13.9498C50.0322 13.4663 50.2796 12.7578 50.2796 11.8245V11.8132Z" fill="white"/>
<path d="M57.8685 12.9039C57.8685 13.6911 57.6436 14.3433 57.1938 14.8493C56.7215 15.3666 56.0917 15.6365 55.3158 15.6365C54.5398 15.6365 53.9551 15.3891 53.5165 14.8831C53.0667 14.377 52.8418 13.7473 52.8418 12.9938C52.8418 12.2404 53.0667 11.5432 53.539 11.0371C54.0001 10.5311 54.6186 10.2725 55.4057 10.2725C56.1929 10.2725 56.7664 10.5199 57.2275 11.0259C57.6661 11.5095 57.8797 12.1392 57.8797 12.9039H57.8685ZM56.6877 12.9376C56.6877 12.4653 56.5865 12.0605 56.3841 11.7231C56.1479 11.3183 55.7993 11.1046 55.3608 11.1046C54.9222 11.1046 54.5511 11.307 54.3149 11.7231C54.1125 12.0605 54.0113 12.4766 54.0113 12.9601C54.0113 13.4437 54.1125 13.8372 54.3149 14.1859C54.5623 14.5907 54.9109 14.8043 55.3495 14.8043C55.7881 14.8043 56.1254 14.5907 56.3728 14.1746C56.5865 13.826 56.6877 13.4212 56.6877 12.9489V12.9376Z" fill="white"/>
<path d="M66.4342 10.373L64.8261 15.5122H63.7803L63.1168 13.2856C62.9481 12.7233 62.8132 12.1723 62.7007 11.6213H62.6782C62.577 12.1836 62.4421 12.7346 62.2622 13.2856L61.5537 15.5122H60.4966L58.9897 10.373H60.1593L60.744 12.8133C60.879 13.3868 61.0027 13.9378 61.0926 14.4664H61.1151C61.2051 14.039 61.34 13.488 61.5424 12.8245L62.2734 10.373H63.2068L63.904 12.7796C64.0727 13.3643 64.2076 13.9266 64.3201 14.4664H64.3538C64.4325 13.9378 64.545 13.3756 64.7024 12.7796L65.3209 10.373H66.4454H66.4342Z" fill="white"/>
<path d="M72.3649 15.5128H71.2178V12.5665C71.2178 11.6557 70.8692 11.2059 70.1833 11.2059C69.8459 11.2059 69.5648 11.3296 69.3623 11.577C69.1487 11.8244 69.0475 12.1167 69.0475 12.4541V15.5016H67.9005V11.8356C67.9005 11.3858 67.8892 10.891 67.8555 10.3625H68.8563L68.9125 11.1609H68.9463C69.0812 10.9135 69.2724 10.6998 69.5423 10.5424C69.8571 10.3512 70.1945 10.25 70.5769 10.25C71.0604 10.25 71.454 10.4074 71.7689 10.7111C72.1624 11.0934 72.3649 11.6557 72.3649 12.4091V15.4903V15.5128Z" fill="white"/>
<path d="M75.5113 15.5124H74.3643V8.01172H75.5113V15.5124Z" fill="white"/>
<path d="M82.2401 12.9039C82.2401 13.6911 82.0152 14.3433 81.5653 14.8493C81.093 15.3666 80.4633 15.6365 79.6874 15.6365C78.9114 15.6365 78.3267 15.3891 77.8881 14.8831C77.4383 14.377 77.2134 13.7473 77.2134 12.9938C77.2134 12.2404 77.4383 11.5432 77.9106 11.0371C78.3717 10.5311 78.9901 10.2725 79.7773 10.2725C80.5645 10.2725 81.138 10.5199 81.5991 11.0259C82.0376 11.5095 82.2513 12.1392 82.2513 12.9039H82.2401ZM81.0481 12.9376C81.0481 12.4653 80.9468 12.0605 80.7444 11.7231C80.5083 11.3183 80.1597 11.1046 79.7211 11.1046C79.2825 11.1046 78.9114 11.307 78.6753 11.7231C78.4729 12.0605 78.3717 12.4766 78.3717 12.9601C78.3717 13.4437 78.4729 13.8372 78.6753 14.1859C78.9227 14.5907 79.2713 14.8043 79.7099 14.8043C80.1484 14.8043 80.4858 14.5907 80.7332 14.1746C80.9468 13.826 81.0481 13.4212 81.0481 12.9489V12.9376Z" fill="white"/>
<path d="M87.7756 15.5123H86.7523L86.6623 14.9163H86.6286C86.28 15.3886 85.7739 15.6248 85.1217 15.6248C84.6382 15.6248 84.2446 15.4673 83.9522 15.1637C83.6823 14.8826 83.5474 14.534 83.5474 14.1179C83.5474 13.4881 83.806 13.0158 84.3345 12.6785C84.8631 12.3523 85.594 12.1837 86.5499 12.1949V12.105C86.5499 11.4302 86.19 11.0929 85.4816 11.0929C84.9755 11.0929 84.5257 11.2166 84.1434 11.4752L83.9072 10.7218C84.3795 10.4294 84.9755 10.2832 85.6727 10.2832C87.0109 10.2832 87.6857 10.9917 87.6857 12.4086V14.2978C87.6857 14.8151 87.7082 15.2199 87.7644 15.5235L87.7756 15.5123ZM86.5836 13.7468V12.9484C85.3241 12.9259 84.6944 13.2745 84.6944 13.9829C84.6944 14.2528 84.7619 14.4552 84.9193 14.5902C85.0655 14.7251 85.2567 14.7926 85.4816 14.7926C85.729 14.7926 85.9651 14.7139 86.1788 14.5564C86.3924 14.399 86.5274 14.1966 86.5724 13.9492C86.5836 13.893 86.5949 13.8255 86.5949 13.7468H86.5836Z" fill="white"/>
<path d="M94.2673 15.5119H93.2552L93.1989 14.691H93.1652C92.8391 15.3207 92.2881 15.6356 91.5121 15.6356C90.8936 15.6356 90.3764 15.3882 89.9715 14.9046C89.5667 14.4211 89.353 13.7913 89.353 13.0154C89.353 12.1833 89.5779 11.5085 90.0165 10.9912C90.4438 10.5077 90.9724 10.2715 91.6021 10.2715C92.2881 10.2715 92.7716 10.5077 93.0528 10.9687H93.0752V8.02246H94.2223V14.1399C94.2223 14.646 94.2335 15.107 94.2673 15.5231V15.5119ZM93.0865 13.3415V12.4869C93.0865 12.3407 93.0865 12.217 93.0528 12.127C92.9853 11.8571 92.8503 11.621 92.6367 11.4298C92.423 11.2386 92.1644 11.1487 91.872 11.1487C91.4447 11.1487 91.1073 11.3174 90.8712 11.6547C90.6238 11.9921 90.5001 12.4306 90.5001 12.9592C90.5001 13.4877 90.6125 13.8813 90.8487 14.1962C91.0961 14.5335 91.4334 14.7022 91.8495 14.7022C92.2206 14.7022 92.5242 14.556 92.7491 14.2749C92.974 14.0162 93.0752 13.7014 93.0752 13.3303L93.0865 13.3415Z" fill="white"/>
<path d="M104.044 12.9039C104.044 13.6911 103.819 14.3433 103.37 14.8493C102.897 15.3666 102.267 15.6365 101.492 15.6365C100.716 15.6365 100.142 15.3891 99.6923 14.8831C99.2425 14.377 99.0176 13.7473 99.0176 12.9938C99.0176 12.2404 99.2425 11.5432 99.7148 11.0371C100.176 10.5311 100.794 10.2725 101.582 10.2725C102.369 10.2725 102.942 10.5199 103.403 11.0259C103.842 11.5095 104.056 12.1392 104.056 12.9039H104.044ZM102.863 12.9376C102.863 12.4653 102.762 12.0605 102.56 11.7231C102.324 11.3183 101.975 11.1046 101.537 11.1046C101.098 11.1046 100.727 11.307 100.491 11.7231C100.288 12.0605 100.187 12.4766 100.187 12.9601C100.187 13.4437 100.288 13.8372 100.491 14.1859C100.738 14.5907 101.087 14.8043 101.525 14.8043C101.964 14.8043 102.301 14.5907 102.549 14.1746C102.762 13.826 102.863 13.4212 102.863 12.9489V12.9376Z" fill="white"/>
<path d="M110.189 15.5128H109.042V12.5665C109.042 11.6557 108.693 11.2059 108.007 11.2059C107.67 11.2059 107.389 11.3296 107.186 11.577C106.972 11.8244 106.871 12.1167 106.871 12.4541V15.5016H105.724V11.8356C105.724 11.3858 105.713 10.891 105.679 10.3625H106.68L106.736 11.1609H106.77C106.905 10.9135 107.107 10.6998 107.366 10.5424C107.681 10.3512 108.018 10.25 108.401 10.25C108.884 10.25 109.278 10.4074 109.593 10.7111C109.986 11.0934 110.189 11.6557 110.189 12.4091V15.4903V15.5128Z" fill="white"/>
<path d="M117.872 11.2274H116.612V13.7239C116.612 14.3537 116.837 14.6798 117.276 14.6798C117.478 14.6798 117.647 14.6573 117.782 14.6235L117.816 15.4894C117.591 15.5794 117.298 15.6131 116.927 15.6131C116.477 15.6131 116.129 15.4782 115.87 15.1971C115.612 14.9272 115.488 14.4549 115.488 13.8139V11.2274H114.734V10.3728H115.488V9.42818L116.612 9.09082V10.3728H117.872V11.2274Z" fill="white"/>
<path d="M123.928 15.5124H122.781V12.5886C122.781 11.6665 122.432 11.2054 121.746 11.2054C121.218 11.2054 120.858 11.4753 120.655 12.0038C120.622 12.1163 120.599 12.2512 120.599 12.4199V15.5124H119.452V8.01172H120.599V11.1154H120.622C120.982 10.5532 121.499 10.272 122.162 10.272C122.635 10.272 123.028 10.4295 123.343 10.7331C123.725 11.1154 123.928 11.7002 123.928 12.4536V15.5124Z" fill="white"/>
<path d="M130.159 12.7015C130.159 12.9039 130.148 13.0838 130.114 13.2188H126.685C126.696 13.7248 126.864 14.1184 127.179 14.3771C127.472 14.6132 127.843 14.7369 128.304 14.7369C128.81 14.7369 129.271 14.6582 129.687 14.4895L129.867 15.2879C129.383 15.5016 128.81 15.6028 128.146 15.6028C127.348 15.6028 126.718 15.3666 126.268 14.8943C125.807 14.422 125.583 13.7923 125.583 13.0051C125.583 12.2179 125.796 11.5882 126.212 11.0709C126.651 10.5199 127.258 10.25 128.012 10.25C128.765 10.25 129.316 10.5199 129.687 11.0709C129.991 11.5095 130.148 12.0493 130.148 12.6902L130.159 12.7015ZM129.069 12.4091C129.069 12.0718 129.001 11.7794 128.844 11.532C128.641 11.2171 128.338 11.0597 127.933 11.0597C127.562 11.0597 127.258 11.2171 127.022 11.5207C126.831 11.7681 126.718 12.0605 126.685 12.4091H129.069Z" fill="white"/>
</svg>
