<svg width="80" height="81" viewBox="0 0 80 81" fill="none" xmlns="http://www.w3.org/2000/svg">
<g clip-path="url(#clip0_2538_31335)">
<path d="M79.9984 53.5045C79.9958 54.3109 80.0112 55.1225 79.8788 55.9213C79.8484 56.1041 79.7288 56.1876 79.5939 56.2029C79.52 56.2715 79.4234 56.3146 79.3038 56.3222C77.002 56.467 74.6954 56.5429 72.3884 56.5859C68.2807 56.6647 64.1657 56.6264 60.0606 56.4389C58.0082 56.3478 55.958 56.2234 53.9108 56.0687C52.9085 55.9928 51.9067 55.9064 50.9044 55.8152C50.2559 55.7543 49.6023 55.7036 48.9537 55.6226C48.6256 55.5821 48.2975 55.534 47.972 55.4705C47.9515 55.2243 47.9314 54.9785 47.9135 54.7301C47.837 53.7689 47.7738 52.8074 47.72 51.8437C47.6512 50.5882 47.6055 49.3327 47.5777 48.0776C47.5495 46.9082 47.5422 45.7392 47.5495 44.5701C47.5598 43.3551 47.5824 42.1427 47.6333 40.9306C47.641 40.7227 47.6512 40.5173 47.6615 40.3094C47.6743 40.0125 47.6893 39.7134 47.7072 39.4139C47.9998 39.4037 48.2921 39.396 48.5847 39.3884C48.5821 39.4037 48.5821 39.4216 48.5821 39.4365C48.5719 39.7181 48.5642 40.0023 48.5565 40.2839C48.5437 40.6898 48.536 41.098 48.5262 41.5036C48.4574 44.5092 48.4881 47.5144 48.6227 50.5175C48.6838 51.9353 48.7727 53.3531 48.8821 54.768C49.701 54.8187 50.5174 54.9073 51.3313 54.9708C52.463 55.0623 53.5947 55.1433 54.7294 55.217C62.8478 55.7419 70.9637 55.7368 79.0898 55.3844C79.0338 54.6338 79.062 53.8729 79.0543 53.1218C79.0467 52.2442 79.0291 51.3692 79.0086 50.4945C78.8916 45.2548 78.4947 40.0274 77.8389 34.8304C77.3835 34.8534 76.931 34.8862 76.4756 34.9241C75.8194 34.9825 75.1632 35.0536 74.5095 35.1346C73.9042 35.2108 73.2963 35.3348 72.6836 35.3706C72.6404 35.3731 72.5973 35.3757 72.5537 35.3782C72.0907 35.3961 71.9612 34.7264 72.4038 34.582C72.4828 34.5564 72.564 34.5338 72.643 34.5109C72.6148 33.8641 72.5845 33.2149 72.5567 32.5631C72.249 32.5984 71.9411 32.6338 71.6334 32.667C71.6181 32.3475 71.6031 32.0305 71.5877 31.7186C71.8979 31.6884 72.2084 31.6552 72.5161 31.6198C74.289 31.4268 76.0564 31.2014 77.8191 30.9326C78.0861 30.8921 78.2771 31.1405 78.3125 31.3714C78.4398 32.1983 78.5591 33.0252 78.671 33.8543C78.7142 34.1687 78.7573 34.4831 78.7957 34.7976C78.882 35.4545 78.9636 36.1114 79.0401 36.7683C79.4088 39.9388 79.6681 43.1217 79.8261 46.3096C79.9048 47.9149 79.9659 49.5206 79.9889 51.1259C79.9991 51.9196 80.0017 52.7111 79.9991 53.5048L79.9984 53.5045Z" fill="black"/>
<path d="M18.8951 16.7698C18.6101 16.7796 18.3255 16.7898 18.038 16.7975C17.921 15.3162 17.7988 13.8349 17.6642 12.354C17.6287 11.9254 17.5903 11.4943 17.5497 11.0657C17.4784 10.2793 17.4049 9.49325 17.3259 8.70938C17.2878 8.2808 17.2443 7.85476 17.2011 7.42617C17.079 6.21627 16.9316 5.00163 16.8833 3.78663C16.8628 3.30989 17.5241 3.29968 17.6057 3.74614C17.85 5.11069 17.962 6.50042 18.1017 7.88029C18.1273 8.14912 18.1551 8.41539 18.1807 8.68422C18.2875 9.77484 18.3892 10.8655 18.4883 11.9586C18.5011 12.0856 18.5114 12.2121 18.5212 12.3391C18.6536 13.8152 18.778 15.2914 18.8951 16.7701V16.7698Z" fill="black"/>
<path d="M19.4158 24.2137C19.1334 24.2214 18.8484 24.2316 18.5661 24.2415C18.4746 22.7934 18.3777 21.3475 18.2734 19.902C18.5584 19.8892 18.8433 19.879 19.1253 19.8662C19.2321 21.3143 19.3287 22.7649 19.4154 24.2134L19.4158 24.2137Z" fill="black"/>
<path d="M20.1179 41.0876C20.1307 41.6176 19.3092 41.6658 19.2938 41.1358C19.2481 39.4645 19.1998 37.7928 19.1413 36.1244C19.1058 35.044 19.0648 33.9661 19.0191 32.8854C19.0166 32.8474 19.0166 32.812 19.014 32.7737C18.9452 31.148 18.8666 29.5223 18.7773 27.8962C19.0597 27.8835 19.3447 27.8736 19.6267 27.8608C19.713 29.4917 19.7895 31.1199 19.8582 32.7508C19.9065 33.8618 19.9471 34.9725 19.9829 36.0836C20.0415 37.7523 20.0846 39.4189 20.1179 41.0876Z" fill="black"/>
<path d="M31.8413 8.26007C31.5537 8.27028 31.2666 8.28049 30.979 8.28816C30.956 6.88043 30.9637 5.47525 31.0859 4.07993C31.1162 3.73265 31.6353 3.80853 31.6657 4.12042C31.8007 5.45957 31.8157 6.80419 31.8387 8.15099C31.8387 8.18638 31.8413 8.22468 31.8413 8.26007Z" fill="black"/>
<path d="M32.0583 16.2803C31.7631 16.2931 31.4683 16.3033 31.1756 16.316C31.1274 14.8855 31.0893 13.4553 31.0586 12.0247C31.3461 12.017 31.6332 12.0072 31.9207 11.9995C31.9233 12.0199 31.9233 12.0404 31.9233 12.0604C31.9613 13.468 32.0071 14.8731 32.0583 16.2807V16.2803Z" fill="black"/>
<path d="M32.4042 23.7832C32.0991 23.796 31.7911 23.8058 31.4834 23.8135C31.407 22.3244 31.3411 20.8357 31.2852 19.3441C31.5855 19.3313 31.8855 19.3189 32.1832 19.3062C32.2494 20.8 32.323 22.2916 32.4045 23.7832H32.4042Z" fill="black"/>
<path d="M33.5923 40.2579C33.6457 40.8616 32.7097 40.9097 32.6538 40.3137C32.5089 38.7183 32.3739 37.1232 32.2466 35.5252C32.1629 34.4751 32.0813 33.4253 32.0052 32.3752C32.0052 32.3598 32.0027 32.3449 32.0027 32.3296C31.8831 30.6758 31.7763 29.0249 31.6797 27.3711C31.9899 27.3557 32.303 27.3433 32.6132 27.3306C32.7174 29.0019 32.8293 30.6736 32.9489 32.3423C33.0254 33.3899 33.104 34.4371 33.1882 35.4847C33.3129 37.075 33.4475 38.6679 33.5927 40.2579H33.5923Z" fill="black"/>
<path d="M44.6879 7.82222C44.4004 7.83243 44.1158 7.84264 43.8283 7.85249C43.8257 6.39675 43.8488 4.93845 43.9808 3.49511C44.0163 3.11211 44.614 3.18324 44.637 3.54326C44.7208 4.86477 44.6904 6.19103 44.6879 7.51509V7.82185V7.82222Z" fill="black"/>
<path d="M45.8894 39.4876C45.9326 40.0456 45.0653 40.0912 45.0222 39.5357C44.9 38.0242 44.7855 36.5152 44.6813 35.0032C44.6074 33.971 44.539 32.9413 44.4779 31.909C44.4702 31.8076 44.4625 31.7036 44.4574 31.6022C44.3634 30.0221 44.2793 28.442 44.2083 26.8593C44.1523 25.7056 44.1066 24.554 44.066 23.4C44.0101 21.8756 43.9643 20.3513 43.9311 18.8248C43.9208 18.3962 43.9131 17.9676 43.9058 17.539C43.8956 16.9481 43.8853 16.3598 43.8806 15.7689C43.8601 14.389 43.8502 13.0069 43.8477 11.6271C44.1352 11.6169 44.4249 11.6066 44.7124 11.5942C44.7252 12.9716 44.7453 14.3485 44.7734 15.7258C44.7939 16.7453 44.8192 17.7674 44.8473 18.7869C44.8879 20.3138 44.9388 21.8432 44.9947 23.37C45.02 24.0802 45.0481 24.7879 45.0785 25.498C45.0964 25.9394 45.1165 26.3807 45.137 26.8221C45.2135 28.5062 45.2972 30.1877 45.3912 31.8718C45.4498 32.9041 45.5108 33.9363 45.5771 34.9686C45.6736 36.475 45.7779 37.9815 45.8898 39.4883L45.8894 39.4876Z" fill="black"/>
<path d="M60.0337 39.6138C60.0743 40.2099 59.1434 40.2631 59.1054 39.6671C58.9935 37.9323 58.8815 36.195 58.7696 34.4602C58.706 33.5013 58.6449 32.5452 58.5838 31.5866C58.5761 31.4827 58.571 31.3813 58.5633 31.277C58.4539 29.6133 58.3446 27.9467 58.2326 26.2831C58.1588 25.1695 58.0827 24.0562 58.0088 22.9426C57.9045 21.3804 57.7977 19.8181 57.6935 18.2555C57.6704 17.9232 57.6503 17.5909 57.6273 17.2586C57.579 16.5357 57.5333 15.8131 57.4876 15.0902C57.3987 13.7588 57.3145 12.4271 57.2308 11.0957C57.2103 10.7711 57.1902 10.449 57.1697 10.1244C57.1112 9.20371 57.0373 8.28051 56.9766 7.35731C56.8723 5.87895 56.7882 4.39767 56.8189 2.9215C56.8266 2.54106 57.3478 2.51553 57.4063 2.88867C57.6123 4.22514 57.7015 5.57219 57.7955 6.92143L57.8237 7.32485L58.0805 10.9593C58.083 10.9921 58.0856 11.0253 58.0882 11.0581C58.1796 12.3869 58.2714 13.7161 58.3629 15.0449C58.4367 16.1053 58.5077 17.1627 58.5816 18.2205C58.6858 19.7853 58.7926 21.3505 58.8969 22.9153C58.9503 23.7064 59.0037 24.4954 59.0571 25.2866C59.0776 25.6061 59.1003 25.926 59.1233 26.2455C59.2352 27.9066 59.3472 29.5681 59.4591 31.2317C59.533 32.2943 59.6039 33.3597 59.6778 34.4248C59.7949 36.1545 59.9145 37.8842 60.0337 39.6138Z" fill="black"/>
<path d="M31.9212 11.9989C31.6337 12.0065 31.3466 12.0168 31.0591 12.0241C26.8804 12.1408 22.7014 12.2498 18.5202 12.3385C18.51 12.2115 18.4997 12.085 18.4873 11.958C18.3882 10.8649 18.2865 9.77424 18.1797 8.68361C18.4873 8.6734 18.7927 8.66574 19.1004 8.65553C23.0603 8.5388 27.018 8.41698 30.9779 8.28785C31.2654 8.28019 31.5525 8.26998 31.84 8.25977C31.8605 9.50505 31.8883 10.7503 31.9216 11.9982L31.9212 11.9989Z" fill="black"/>
<path d="M18.4866 11.9581C18.4994 12.0851 18.5096 12.2116 18.5195 12.3386C18.2346 12.3437 17.9474 12.3488 17.6625 12.3539C13.0336 12.4476 8.40464 12.5162 3.77316 12.5366C3.75268 12.1992 3.73256 11.8618 3.70951 11.5244C3.67147 10.9587 3.63307 10.4159 3.59247 9.87574C3.57454 9.62734 3.55699 9.38113 3.53906 9.13273C8.1325 8.98318 12.7281 8.84348 17.3241 8.70925C17.6091 8.69904 17.8936 8.69174 18.1786 8.68408C18.2854 9.7747 18.3871 10.8653 18.4862 11.9585L18.4866 11.9581Z" fill="black"/>
<path d="M57.2303 11.0953C53.0568 11.2806 48.8829 11.4451 44.7094 11.5925C44.4219 11.6053 44.1322 11.6151 43.8447 11.6253C40.4671 11.742 37.0869 11.8511 33.7093 11.9474C33.1142 11.9653 32.5165 11.9802 31.9214 11.9981C31.8885 10.7503 31.8603 9.50499 31.8398 8.25971C35.8356 8.13058 39.8336 7.99343 43.8293 7.85154C44.1168 7.84133 44.4014 7.83112 44.6889 7.82127C48.7838 7.67427 52.8812 7.51962 56.9757 7.35693C57.0368 8.28013 57.1107 9.20333 57.1689 10.124C57.1893 10.4486 57.2095 10.7707 57.2299 11.0953H57.2303Z" fill="black"/>
<path d="M70.4267 10.4516C66.3139 10.6722 62.1989 10.875 58.0839 11.0578C57.7989 11.0705 57.5118 11.0829 57.2269 11.0957C57.2064 10.7711 57.1863 10.449 57.1658 10.1244C57.1073 9.20372 57.0334 8.28052 56.9727 7.35732C57.255 7.34747 57.5374 7.33726 57.8194 7.3245C59.1929 7.27124 60.5639 7.21543 61.937 7.15962C64.7015 7.04801 67.4635 6.93129 70.2284 6.81201C70.2464 7.12643 70.2614 7.43866 70.2793 7.75308C70.2895 7.94093 70.2998 8.12842 70.3096 8.31627C70.3301 8.69926 70.3502 9.08226 70.3707 9.4627C70.3912 9.79244 70.4088 10.1222 70.4267 10.4519V10.4516Z" fill="black"/>
<path d="M32.6069 27.3301C32.2967 27.3429 31.984 27.3553 31.6734 27.3706C27.6576 27.5329 23.6388 27.6952 19.6229 27.8601C19.3405 27.8728 19.0556 27.8827 18.7736 27.8955C18.7099 26.6757 18.6386 25.4582 18.5625 24.2406C18.8449 24.2304 19.1298 24.2202 19.4122 24.2129C23.4358 24.0783 27.4568 23.9466 31.4777 23.812C31.7854 23.8044 32.0934 23.7941 32.3984 23.7817C32.4416 24.578 32.4873 25.3743 32.5356 26.1709C32.5586 26.5564 32.5813 26.9445 32.6069 27.3301Z" fill="black"/>
<path d="M18.563 24.2407C18.6395 25.4579 18.7104 26.6755 18.7741 27.8956C17.9705 27.9288 17.1643 27.9616 16.3603 27.9944C12.4081 28.1542 8.45294 28.3344 4.50071 28.4814C4.49047 28.1593 4.48279 27.8372 4.47255 27.5151C4.45974 27.1143 4.44731 26.7138 4.4345 26.3129C4.42682 26.0871 4.41914 25.8588 4.40927 25.633C4.40158 25.3313 4.39134 25.0293 4.37891 24.7277C8.51183 24.5781 12.6448 24.4359 16.7802 24.2991C17.3754 24.2787 17.9679 24.2608 18.563 24.2407Z" fill="black"/>
<path d="M71.2648 25.7453C67.2182 25.9127 63.1694 26.0802 59.1228 26.245C58.825 26.2578 58.5302 26.2706 58.2325 26.283C53.8654 26.4631 49.501 26.6404 45.1343 26.8206C44.8242 26.8308 44.5162 26.8432 44.206 26.8585C41.7388 26.9574 39.272 27.0588 36.8048 27.1602C35.4061 27.216 34.0096 27.2744 32.6108 27.3302C32.5856 26.9446 32.5626 26.5565 32.5395 26.171C32.4912 25.3747 32.4455 24.5781 32.4023 23.7818C36.2913 23.6549 40.1773 23.5258 44.0637 23.3988C44.3739 23.389 44.6844 23.3788 44.992 23.3685C48.5222 23.2518 52.0523 23.1351 55.5824 23.0209C56.3911 22.9954 57.1999 22.9677 58.0086 22.9421C58.3038 22.9319 58.6012 22.9217 58.8964 22.9144C62.9605 22.7824 67.025 22.6507 71.0866 22.5161C71.1046 22.8459 71.1221 23.1756 71.14 23.5028C71.1631 23.9139 71.1858 24.3246 71.2088 24.7353C71.2267 25.0727 71.2443 25.4101 71.2648 25.7446V25.7453Z" fill="black"/>
<path d="M71.6905 33.9953C59.7087 34.4035 47.7295 34.8627 35.7528 35.3727C25.3859 35.814 15.0271 36.3287 4.66278 36.7879C4.66022 36.4811 4.6551 36.1769 4.65254 35.8698C4.64486 35.2508 4.63461 34.6296 4.62474 34.0107C4.61962 33.7137 4.6145 33.4172 4.60938 33.1203C8.73462 33.0291 12.8624 32.9379 16.9906 32.8285C30.0456 32.486 43.0983 32.0143 56.1456 31.3928C61.2757 31.1469 66.4032 30.8781 71.5306 30.5889C71.5486 30.8905 71.5635 31.1976 71.5789 31.5095C71.5815 31.5781 71.5866 31.6463 71.5891 31.7174C71.6045 32.0293 71.6199 32.3463 71.6349 32.6658C71.64 32.7902 71.6451 32.9142 71.6502 33.0386C71.6656 33.3555 71.6784 33.6751 71.6908 33.9946L71.6905 33.9953Z" fill="black"/>
<path d="M32.1791 19.3058C31.8813 19.3186 31.5814 19.3313 31.2811 19.3437C27.2293 19.5137 23.178 19.6914 19.1237 19.8661C18.8413 19.8788 18.5564 19.8891 18.2718 19.9018C18.2338 19.3842 18.1954 18.867 18.1573 18.3494C18.1167 17.8322 18.0787 17.3146 18.0352 16.7974C18.3227 16.7897 18.6072 16.7795 18.8922 16.7697C22.9871 16.63 27.0794 16.4804 31.1739 16.3155C31.4665 16.3028 31.7613 16.2926 32.0565 16.2798C32.0946 17.2891 32.1355 18.2962 32.1787 19.3054L32.1791 19.3058Z" fill="black"/>
<path d="M18.1575 18.3489C18.1955 18.8661 18.2339 19.3837 18.272 19.9013C13.5845 20.1016 8.89453 20.2945 4.20709 20.4594C4.19428 20.165 4.17892 19.8685 4.16392 19.5741C4.14344 19.077 4.1182 18.5798 4.0926 18.0826C4.0798 17.7985 4.06443 17.5122 4.04688 17.2255C8.03495 17.1113 12.0252 16.9946 16.0133 16.8654C16.6874 16.8425 17.3612 16.8224 18.0353 16.7969C18.0785 17.3141 18.1169 17.8317 18.1575 18.3489Z" fill="black"/>
<path d="M70.8245 17.7133C66.7424 17.8833 62.6629 18.0532 58.5808 18.2207C58.286 18.2334 57.9908 18.2462 57.693 18.256C53.4101 18.4337 49.1269 18.6109 44.844 18.786C44.5389 18.7988 44.2335 18.8116 43.9284 18.8243C40.7722 18.9535 37.6159 19.0829 34.4596 19.2124C33.6991 19.2431 32.9412 19.2759 32.1808 19.3062C32.1376 18.2969 32.097 17.2898 32.0586 16.2805C35.9984 16.1208 39.9378 15.9482 43.8776 15.768C44.1753 15.7527 44.4727 15.7403 44.7705 15.725C47.6572 15.5908 50.5413 15.4485 53.4281 15.3015C54.7811 15.2329 56.1341 15.1618 57.4871 15.091C57.7772 15.0757 58.0694 15.0608 58.362 15.0454C62.4569 14.8273 66.5492 14.5939 70.6416 14.3506C70.6569 14.6446 70.6723 14.9389 70.6898 15.2333C70.6975 15.3931 70.7078 15.5554 70.7155 15.7151C70.7334 16.0602 70.7535 16.4023 70.7714 16.7474C70.7893 17.0695 70.8069 17.3916 70.8248 17.7136L70.8245 17.7133Z" fill="black"/>
<path d="M4.68972 41.2092C4.69228 41.861 3.67506 41.9219 3.67506 41.2676C3.6725 39.7888 3.66481 38.3101 3.64982 36.8318C3.64726 36.5272 3.64214 36.2255 3.63702 35.9239C3.63189 35.2899 3.62165 34.6582 3.61178 34.0242C3.60922 33.7299 3.6041 33.4384 3.59641 33.1441C3.59641 33.0755 3.59385 33.0044 3.59385 32.9362C3.56605 31.4651 3.53021 29.994 3.48961 28.5204C3.47937 28.2034 3.47168 27.8839 3.46144 27.5644C3.44096 26.9326 3.42084 26.2987 3.40036 25.6647C3.39012 25.3631 3.37731 25.0636 3.36744 24.7645C3.31659 23.3416 3.25807 21.9187 3.19186 20.4961C3.17906 20.2043 3.16626 19.9129 3.15126 19.6211C3.12822 19.1188 3.10298 18.6143 3.07738 18.1121C3.06201 17.8228 3.04702 17.5416 3.03165 17.2575C2.95008 15.685 2.85864 14.1125 2.75951 12.5426C2.73903 12.2078 2.71891 11.8733 2.69587 11.5381C2.68051 11.2718 2.66258 11.0055 2.64503 10.7392C2.6271 10.4577 2.60955 10.1735 2.58906 9.89228C2.5737 9.64862 2.5587 9.40789 2.54078 9.16423C2.4925 8.45149 2.44165 7.7362 2.39081 7.02347C2.35021 6.44788 2.28912 5.86683 2.23828 5.28613C2.58175 5.2989 2.92741 5.30911 3.27087 5.31385C3.32428 5.99376 3.3572 6.6733 3.40804 7.343C3.45376 7.93901 3.49692 8.53758 3.54045 9.13359C3.55837 9.38199 3.57593 9.6282 3.59385 9.8766C3.63446 10.4168 3.67286 10.9596 3.70834 11.4998C3.73395 11.8623 3.75406 12.1997 3.77455 12.5371C3.87879 14.0994 3.97024 15.6642 4.04925 17.2264C4.06717 17.5131 4.08217 17.7998 4.09497 18.0836C4.12021 18.5808 4.14581 19.078 4.1663 19.5751C4.18166 19.8691 4.19666 20.166 4.20946 20.4604C4.2731 21.8833 4.33163 23.3062 4.38247 24.7288C4.39527 25.0304 4.40551 25.3324 4.41283 25.6341C4.42307 25.8599 4.43075 26.0882 4.43807 26.314C4.45087 26.7149 4.46331 27.1154 4.47611 27.5162C4.48635 27.8383 4.49403 28.1604 4.50428 28.4825C4.54744 30.0298 4.58328 31.5742 4.61108 33.1215C4.6162 33.418 4.62132 33.7149 4.62644 34.0118C4.63669 34.6308 4.64693 35.252 4.65424 35.871C4.6568 36.1778 4.66193 36.482 4.66449 36.7891C4.67985 38.2627 4.68753 39.7363 4.68972 41.2099V41.2092Z" fill="black"/>
<path d="M3.26859 5.31344C2.92512 5.3087 2.57947 5.29849 2.236 5.28572C2.21552 5.01689 2.1954 4.75062 2.1826 4.4818C2.16211 4.11157 2.15443 3.74134 2.16467 3.3733C2.16467 3.34777 2.16723 3.32771 2.16723 3.30473C2.1826 2.86337 2.88708 2.6478 2.99133 3.15007C3.01913 3.29196 3.04729 3.43421 3.07034 3.5761C3.11862 3.86499 3.15666 4.1568 3.18995 4.4486C3.22287 4.7353 3.24847 5.02419 3.26896 5.31344H3.26859Z" fill="black"/>
<path d="M72.4669 39.7712C67.4945 39.8449 62.5225 39.9182 57.5501 40.0375C54.554 40.1086 51.5554 40.1922 48.5593 40.2837C48.2616 40.2914 47.9616 40.299 47.6639 40.3092C46.5347 40.3446 45.4078 40.38 44.2786 40.4183C41.1146 40.5223 37.9507 40.6364 34.7841 40.7608C33.5174 40.809 32.2485 40.8597 30.9819 40.9104C26.5537 41.0905 22.1286 41.2908 17.703 41.5089C15.4904 41.618 13.2775 41.7296 11.0674 41.8489C8.85485 41.9656 6.6419 42.133 4.42931 42.1786C3.89271 42.1888 3.84955 41.4024 4.38102 41.3517C6.85332 41.1132 9.34573 41.0296 11.8253 40.895C14.3101 40.7634 16.7926 40.6364 19.2748 40.5146C24.6744 40.2509 30.074 40.0174 35.4762 39.8172C38.2766 39.7107 41.0766 39.6144 43.877 39.5283C44.5306 39.5079 45.1843 39.4878 45.8379 39.4674C46.4608 39.4495 47.0867 39.4294 47.71 39.4141C48.0026 39.4039 48.2949 39.3963 48.5875 39.3886C56.3599 39.1654 64.1374 38.9826 71.9153 38.8812C72.0832 38.8787 72.2486 38.8761 72.4164 38.8736C72.6988 38.871 72.8539 39.0789 72.8744 39.297C72.8949 39.5305 72.7625 39.7661 72.4677 39.7712H72.4669Z" fill="black"/>
<path d="M70.2537 1.34188C70.1648 1.34954 70.0782 1.35465 69.9893 1.36231C65.1493 1.72488 60.3042 2.06483 55.4591 2.35153C46.6644 2.8662 37.8615 3.22914 29.0565 3.43449C24.654 3.53845 20.249 3.60192 15.8435 3.62709C13.6207 3.64241 11.3953 3.64496 9.16994 3.6373C7.14023 3.62964 5.10322 3.65006 3.07352 3.57638C2.88039 3.57128 2.68689 3.56362 2.49376 3.55596C2.34379 3.5483 2.23186 3.47462 2.16822 3.37321C2.02081 3.14232 2.09945 2.78742 2.4506 2.77976C4.92033 2.72905 7.39225 2.79508 9.86455 2.79726C12.3343 2.80237 14.8062 2.79471 17.2785 2.77465C26.0861 2.70352 34.894 2.47518 43.6939 2.09255C52.5369 1.70956 61.38 1.19197 70.2029 0.464279C70.2665 0.459173 70.3251 0.464279 70.3759 0.482152C70.7728 0.606534 70.7574 1.30395 70.2537 1.34188Z" fill="black"/>
<path d="M72.8735 39.2687C72.8683 39.8724 71.9733 39.9231 71.9374 39.3347C71.9298 39.1852 71.9195 39.0331 71.9144 38.8806C71.8306 37.3286 71.7619 35.6471 71.6905 33.9958C71.6777 33.6763 71.6653 33.3567 71.6499 33.0398C71.6448 32.9154 71.6397 32.7914 71.6346 32.667C71.6192 32.3475 71.6042 32.0305 71.5889 31.7186C71.5863 31.6475 71.5812 31.5789 71.5786 31.5107C71.5632 31.1988 71.5483 30.8917 71.5303 30.5901C71.5278 30.5649 71.5278 30.5394 71.5252 30.5142C71.4389 28.9239 71.3496 27.3361 71.2633 25.7461C71.2428 25.4113 71.2253 25.0739 71.2073 24.7368C71.1843 24.3257 71.1616 23.915 71.1386 23.5043C71.1207 23.1771 71.1031 22.8474 71.0852 22.5176C70.9963 20.9174 70.9096 19.3169 70.8233 17.7138C70.8054 17.3917 70.7878 17.0696 70.7699 16.7475C70.752 16.4025 70.7318 16.0603 70.7139 15.7153C70.7062 15.5555 70.696 15.3932 70.6883 15.2334C70.6707 14.9391 70.6554 14.6451 70.64 14.3507C70.5687 13.0522 70.4977 11.7537 70.429 10.4526C70.411 10.1228 70.3935 9.7931 70.373 9.46336C70.3525 9.08291 70.3324 8.69992 70.3119 8.31693C70.3017 8.12908 70.2914 7.94159 70.2816 7.75374C70.2636 7.43932 70.2486 7.12745 70.2307 6.81267C70.1927 6.09227 70.1543 5.36969 70.1188 4.6493C70.0884 4.07116 70.0526 3.49265 70.0273 2.91451C70.358 2.8919 70.6887 2.86892 71.0193 2.84375C71.0651 3.56925 71.0958 4.29475 71.1364 5.01989C71.1693 5.60313 71.2 6.18675 71.233 6.76999C71.2483 7.08441 71.2659 7.39628 71.2838 7.71106C71.309 8.20567 71.3346 8.70028 71.3624 9.19489C71.3676 9.26858 71.3701 9.33934 71.3752 9.41302C71.3932 9.74021 71.4082 10.0699 71.4261 10.3971C71.4974 11.6957 71.5658 12.992 71.6346 14.2902C71.6525 14.5845 71.6675 14.8785 71.6829 15.1729C71.7107 15.6828 71.7388 16.1949 71.7644 16.7049C71.7823 17.027 71.7999 17.3516 71.8178 17.6737C71.9042 19.279 71.9883 20.8821 72.072 22.4874C72.0925 22.8145 72.1075 23.1443 72.1254 23.4715C72.1357 23.6466 72.1434 23.8187 72.1532 23.9938C72.166 24.2273 72.1789 24.4603 72.1891 24.6963C72.207 25.0312 72.2246 25.3686 72.2399 25.7056C72.3189 27.2908 72.395 28.9115 72.4689 30.5372C72.4817 30.8439 72.4971 31.1536 72.5095 31.4604C72.5121 31.5136 72.5146 31.5669 72.5172 31.6201C72.53 31.9371 72.5454 32.2515 72.5578 32.5638C72.5655 32.7133 72.5706 32.8603 72.5783 33.0102C72.5911 33.3298 72.6061 33.6467 72.6189 33.9637C72.6291 34.1464 72.6368 34.3292 72.6441 34.5116C72.6595 34.8008 72.6723 35.0872 72.6847 35.3713C72.7458 36.6928 72.8095 37.9965 72.8731 39.2695L72.8735 39.2687Z" fill="black"/>
<path d="M71.0209 2.84298C70.6902 2.86851 70.3595 2.89113 70.0289 2.91374C70.0135 2.57634 70.0007 2.23675 69.9934 1.89935C69.9908 1.71916 69.9883 1.54189 69.9883 1.3617C69.9883 1.21215 69.9908 1.06224 69.9934 0.912686C70.0011 0.65152 70.1818 0.504158 70.3749 0.481543C70.5808 0.453457 70.7996 0.572732 70.8354 0.851771C70.8786 1.1764 70.9144 1.50104 70.9448 1.82567C70.973 2.16563 70.9982 2.50303 71.0212 2.84261L71.0209 2.84298Z" fill="black"/>
<path d="M69.9912 1.89898C68.0025 2.04598 66.0134 2.19078 64.0246 2.32246C59.0219 2.6522 54.0166 2.94401 49.0087 3.19496C38.9955 3.69723 28.9747 4.01931 18.9487 4.24765C16.1359 4.31112 13.3227 4.35416 10.5099 4.38699C8.07086 4.41252 5.62929 4.38443 3.18992 4.4479C3.157 4.15609 3.1186 3.86465 3.07031 3.5754C5.10001 3.64908 7.13703 3.62866 9.16673 3.63632C11.3921 3.64398 13.6175 3.64142 15.8403 3.6261C20.2454 3.60093 24.6505 3.53747 29.0533 3.43351C37.8583 3.22815 46.6612 2.86522 55.4559 2.35055C60.301 2.06385 65.1461 1.7239 69.9861 1.36133C69.9861 1.54152 69.9886 1.71879 69.9912 1.89898Z" fill="black"/>
<path d="M71.0197 2.84311C70.689 2.86865 70.3584 2.89126 70.0277 2.91388C67.4409 3.09662 64.8494 3.26404 62.263 3.42891C52.2575 4.07307 42.2418 4.56258 32.2183 4.8821C27.2079 5.03931 22.1949 5.16114 17.1819 5.22206C14.6742 5.2527 12.169 5.28297 9.66119 5.30303C7.53492 5.31835 5.39842 5.36139 3.26959 5.31325C2.92612 5.30851 2.58046 5.29829 2.237 5.28552C2.21651 5.0167 2.1964 4.75043 2.18359 4.4816C2.51938 4.46628 2.85516 4.45607 3.19095 4.44877C5.62995 4.38531 8.07152 4.41339 10.5109 4.38786C13.3237 4.35503 16.1369 4.31199 18.9498 4.24852C28.9757 4.02018 38.9966 3.6981 49.0097 3.19583C54.0176 2.94452 59.0229 2.65308 64.0257 2.32334C66.0148 2.19166 68.0035 2.04685 69.9922 1.89985C70.3101 1.87468 70.6254 1.8517 70.9436 1.82617C70.9718 2.16613 70.997 2.50353 71.0201 2.84311H71.0197Z" fill="black"/>
<path d="M74.8806 40.4921C74.8159 40.5114 74.7508 40.5307 74.686 40.5504C74.6023 40.5289 74.5083 40.5311 74.4062 40.5665C73.9168 40.7368 73.4296 40.9159 72.9362 41.0735C72.344 41.2628 72.6391 42.1594 73.2339 41.9868C73.3879 41.942 73.5422 41.8975 73.6962 41.8526C72.9998 42.7473 71.4928 42.9502 70.4339 42.9979C69.413 43.0439 68.3522 43.0483 67.3847 43.4192C66.4937 43.761 65.7812 44.3862 65.152 45.0873C64.1337 46.2217 62.7331 48.3216 60.9141 47.6876C60.1987 47.4385 59.6409 46.8487 59.0662 46.3825C58.3884 45.8328 57.6466 45.3725 56.7552 45.3021C54.3919 45.1157 52.585 47.1401 51.5714 49.0336C51.3509 49.4457 51.9445 49.8667 52.2547 49.5056C52.908 48.7447 53.464 47.8744 54.2416 47.2288C54.9362 46.6521 55.8891 46.21 56.8127 46.3614C57.5995 46.4905 58.1993 47.0343 58.7849 47.5326C59.417 48.0702 60.0853 48.6057 60.9127 48.7972C62.968 49.2732 64.5039 47.4928 65.6875 46.1151C66.2585 45.4509 66.8796 44.7645 67.718 44.4416C68.6704 44.0751 69.7144 44.1115 70.7177 44.0565C71.8827 43.9926 73.3736 43.6465 74.2742 42.7933C74.3919 43.2445 75.1528 43.3321 75.2402 42.7791C75.3309 42.2042 75.4216 41.6297 75.5123 41.0549C75.5701 40.6905 75.2446 40.3837 74.881 40.4924L74.8806 40.4921Z" fill="black"/>
<path d="M37.1576 60.9069C37.0794 59.7539 36.8899 58.5852 36.463 57.495C35.6441 55.3991 33.9081 53.8157 31.6454 53.0296C30.6611 52.6864 29.646 52.4996 28.62 52.4365C28.5853 52.7644 28.5502 53.0924 28.511 53.4206C28.9163 53.4425 29.319 53.4881 29.7177 53.5596C31.7606 53.9204 33.7014 54.9194 34.8013 56.5787C35.9926 58.3791 36.1997 60.6924 36.0972 62.7533C35.9926 64.8233 35.3459 66.8929 33.8975 68.5154C32.6257 69.9423 30.8919 70.9935 28.9598 71.4994C27.0344 72.0054 24.9414 71.908 23.0682 71.254C21.1582 70.5894 19.4573 69.4167 18.3179 67.853C17.12 66.2065 16.5669 64.2149 16.6584 62.243C16.7652 59.9625 17.8519 57.8623 19.5378 56.2679C19.3179 56.0268 19.0977 55.7857 18.8779 55.5446C17.3252 56.9347 16.2337 58.7373 15.8024 60.6964C15.343 62.7989 15.602 65.0622 16.5779 67.0126C17.5494 68.952 19.1654 70.5354 21.1973 71.5669C23.1729 72.5704 25.5164 73.0329 27.7619 72.7593C29.9771 72.4879 32.0481 71.5604 33.6904 70.1746C35.4612 68.6802 36.5611 66.6693 36.9726 64.5038C37.1968 63.3201 37.2403 62.1059 37.1576 60.9069Z" fill="black"/>
<path d="M27.2031 47.7304C27.1683 48.0583 27.1336 48.3862 27.0941 48.7145C26.9569 49.9612 26.8022 51.208 26.6237 52.4503C26.3208 54.5699 26.0227 56.718 25.5216 58.8033C25.4192 59.2268 24.8529 59.1531 24.7853 58.7902C24.4173 58.4601 24.0969 58.0585 23.7618 57.6955C23.4089 57.3111 23.054 56.9266 22.7011 56.5422C21.9933 55.7733 21.2833 55.0044 20.5755 54.2355C19.8546 53.4516 19.1336 52.6717 18.4171 51.8853C18.3191 51.7766 18.221 51.6701 18.1208 51.5618C17.901 51.3207 17.6808 51.0796 17.4609 50.8385C17.5198 50.7841 17.5784 50.732 17.6394 50.6798C17.7722 50.5667 17.9072 50.4562 18.0447 50.3497C18.7635 49.7872 19.5605 49.2963 20.4142 48.9184C20.4665 48.8597 20.5338 48.8097 20.6253 48.775C21.2548 48.5318 21.8949 48.3384 22.5551 48.182C23.8207 47.8803 25.1229 47.7019 26.4166 47.7041C26.68 47.7041 26.9415 47.7125 27.2027 47.73L27.2031 47.7304Z" fill="black"/>
<path d="M28.6175 52.4368C28.5827 52.7647 28.5476 53.0926 28.5085 53.4209C28.3713 54.6676 28.2166 55.9144 28.0381 57.1567C27.7352 59.2763 27.4371 61.4244 26.936 63.5097C26.8336 63.9332 26.2674 63.8595 26.1997 63.4966C25.8317 63.1665 25.5113 62.7649 25.1759 62.4019C24.8233 62.0175 24.4681 61.633 24.1151 61.2486C23.4074 60.4797 22.6974 59.7108 21.9896 58.9419C21.2686 58.158 20.5477 57.3781 19.8311 56.5921C19.7331 56.4834 19.6351 56.3769 19.5349 56.2686C19.315 56.0275 19.0948 55.7864 18.875 55.5452C18.9339 55.4909 18.9924 55.4387 19.0535 55.3866C19.1863 55.2735 19.3212 55.163 19.4588 55.0565C19.6786 55.291 19.8966 55.5256 20.1121 55.7601C20.2317 55.8859 20.3473 56.0121 20.465 56.138C21.1772 56.9047 21.8828 57.6758 22.5906 58.4447C23.3115 59.2286 24.0303 60.0106 24.7512 60.7926L25.7772 61.907C25.9557 62.1025 26.1474 62.2958 26.3325 62.4935C26.6288 60.6606 26.9773 58.8339 27.2429 56.9944C27.4148 55.7998 27.5761 54.6031 27.7177 53.4041C27.759 53.074 27.796 52.7417 27.8311 52.4116C28.0944 52.4116 28.356 52.4204 28.6175 52.4375V52.4368Z" fill="black"/>
<path d="M45.905 44.4651C45.8871 44.6909 45.8717 44.9167 45.8567 45.1425C45.8315 45.4722 45.8084 45.802 45.7854 46.1343C45.6606 47.9249 45.559 49.7206 45.4778 51.5163C45.2919 55.63 45.2082 59.7488 45.2309 63.868C45.2565 68.0299 45.4317 72.1845 45.6047 76.3438C45.6299 76.9548 44.6994 77.0084 44.6537 76.397C44.4781 74.0509 44.3841 71.6975 44.3179 69.3463C44.0991 61.6207 44.2747 53.8956 44.8241 46.1901C44.5875 46.2028 44.3537 46.2156 44.1171 46.228C37.9343 46.5526 31.7358 46.6187 25.5454 46.4461C22.4502 46.3622 19.355 46.2203 16.2671 46.0048C14.3087 45.868 12.3529 45.7206 10.4022 45.5025C10.3591 47.3821 10.3108 49.2588 10.2651 51.138C10.1557 55.6322 10.054 60.1263 9.94976 64.6183C9.84295 69.1355 9.73614 73.6501 9.63446 78.1647C9.61909 78.8216 8.59418 78.8821 8.60955 78.2256C8.67063 75.6715 8.73172 73.1175 8.7928 70.566C8.89705 66.0719 9.00385 61.5773 9.1081 57.0832C9.19955 53.185 9.2888 49.2843 9.37768 45.3832C9.3828 45.094 9.39048 44.8025 9.3956 44.5133C9.40328 44.1887 9.41097 43.8615 9.41865 43.5368C9.42633 43.2884 9.61178 42.974 9.90696 42.9941C12.3917 43.1513 14.8793 43.2833 17.3666 43.3822C21.7743 43.5598 26.1844 43.6433 30.5946 43.6357C32.7897 43.6331 34.9847 43.6054 37.1794 43.5547C39.3513 43.504 41.5259 43.3898 43.6979 43.4026C43.7359 43.3771 43.7564 43.357 43.7846 43.3417C43.8837 43.2808 43.9982 43.2454 44.1152 43.2224C44.3084 43.187 44.5172 43.1998 44.7078 43.2479C44.9265 43.3063 45.1175 43.4 45.2978 43.5346C45.4302 43.6309 45.5776 43.7754 45.6438 43.9403C45.8395 44.034 45.9236 44.2499 45.9057 44.4651H45.905Z" fill="black"/>
<path d="M44.9721 75.9932C40.3399 76.2139 35.7077 76.4349 31.0755 76.6556C26.4433 76.8763 21.8125 77.1262 17.1803 77.3443C15.869 77.4059 14.5573 77.4679 13.246 77.5296C11.9373 77.5912 10.6165 77.6138 9.31429 77.7627C8.80293 77.821 8.84938 78.544 9.36001 78.5538C10.5235 78.5764 11.6907 78.4893 12.8528 78.4367C14.0164 78.3842 15.1795 78.3273 16.3431 78.2726C18.6486 78.1639 20.9541 78.0501 23.2603 77.9509C27.8936 77.7517 32.5265 77.5449 37.1595 77.329L45.0285 76.9624C45.6543 76.9332 45.5998 75.963 44.9721 75.9929V75.9932Z" fill="black"/>
<path d="M11.331 43.7983C10.5967 43.7983 10.6637 44.934 11.3968 44.934C12.13 44.934 12.0641 43.7983 11.331 43.7983Z" fill="black"/>
<path d="M12.8769 43.9346C12.1939 43.9346 12.256 44.9911 12.938 44.9911C13.6199 44.9911 13.5588 43.9346 12.8769 43.9346Z" fill="black"/>
<path d="M75.2486 33.1358C75.2168 33.0395 75.1634 32.9567 75.0884 32.8877C75.046 32.8585 75.0031 32.829 74.9607 32.7998C74.8674 32.7527 74.7686 32.7319 74.6644 32.7378C74.5875 32.7396 74.5169 32.7593 74.4518 32.7969C74.3808 32.8235 74.3201 32.8662 74.27 32.9249C74.2136 32.9826 74.1756 33.0493 74.1558 33.1256C74.124 33.1956 74.1119 33.2701 74.1193 33.3481C74.1284 33.3967 74.1375 33.4452 74.1467 33.4933C74.1785 33.5896 74.2319 33.6725 74.3069 33.7414C74.3494 33.771 74.3922 33.8001 74.4346 33.8297C74.5279 33.8768 74.6267 33.8972 74.731 33.8917C74.8078 33.8899 74.8784 33.8702 74.9435 33.8326C75.0145 33.806 75.0752 33.7633 75.1253 33.7046C75.1817 33.6469 75.2197 33.5802 75.2395 33.5039C75.2713 33.4339 75.2834 33.3598 75.2761 33.2814C75.2669 33.2328 75.2578 33.1847 75.2486 33.1362V33.1358Z" fill="#F5F5F5"/>
<path d="M77.1412 32.7919C77.109 32.6945 77.0549 32.6106 76.9791 32.5409L76.8496 32.4519C76.7552 32.4045 76.6554 32.3833 76.5496 32.3891C76.4721 32.391 76.4004 32.4107 76.3345 32.449C76.2624 32.476 76.2013 32.519 76.1505 32.5785C76.0934 32.6368 76.055 32.7043 76.0352 32.7813C76.0031 32.8525 75.9906 32.9272 75.9983 33.0064L76.0261 33.1534C76.0583 33.2512 76.1124 33.3348 76.1882 33.4044C76.2313 33.434 76.2745 33.4639 76.3173 33.4935C76.4117 33.5413 76.5119 33.562 76.6173 33.5566C76.6949 33.5547 76.7666 33.5347 76.8324 33.4967C76.9041 33.4697 76.9656 33.4267 77.0165 33.3669C77.0735 33.3085 77.1123 33.241 77.1321 33.164C77.1643 33.0932 77.1767 33.0181 77.169 32.9389C77.1599 32.89 77.1503 32.8412 77.1412 32.7919Z" fill="#F5F5F5"/>
<path d="M67.2678 1.76658C67.2623 1.71478 67.2601 1.68742 67.2524 1.66078C67.2451 1.58928 67.2203 1.52361 67.1785 1.46341C67.1478 1.42693 67.1167 1.39045 67.086 1.35397C67.0307 1.29997 66.9667 1.26349 66.8935 1.24525C66.8489 1.22263 66.8017 1.21278 66.7516 1.2157C66.6803 1.20439 66.6097 1.21132 66.5405 1.23686C66.4977 1.25692 66.4549 1.27699 66.4125 1.29742C66.3287 1.35141 66.2636 1.42292 66.2178 1.51194C66.1995 1.56301 66.1831 1.60971 66.1666 1.65641C66.1604 1.70055 66.1538 1.79395 66.1523 1.81948C66.1589 1.93039 66.1882 2.01977 66.2401 2.10186C66.2712 2.13871 66.3023 2.17555 66.3334 2.21204C66.4095 2.28026 66.4977 2.32513 66.5979 2.34629C66.6704 2.3638 66.7421 2.36307 66.8127 2.34337C66.8848 2.33608 66.9514 2.31127 67.0121 2.26931C67.0776 2.23064 67.1288 2.17957 67.1654 2.11499C67.214 2.05662 67.2448 1.98913 67.2576 1.91251C67.2674 1.86363 67.2707 1.81511 67.2674 1.76695L67.2678 1.76658Z" fill="white"/>
<path d="M69.4969 1.27851C69.4665 1.18657 69.416 1.10813 69.3447 1.04246C69.3041 1.01474 69.2638 0.986647 69.2232 0.95892C69.1347 0.914046 69.0407 0.894346 68.9415 0.899818C68.8687 0.901642 68.8014 0.920248 68.7396 0.956001C68.6719 0.981174 68.6145 1.02203 68.5669 1.07785C68.5131 1.13258 68.4773 1.19606 68.4586 1.26829C68.4282 1.33506 68.4169 1.40547 68.4239 1.47989C68.4326 1.52586 68.4414 1.57183 68.4498 1.6178C68.4802 1.70937 68.5307 1.78817 68.602 1.85347C68.6426 1.8812 68.6829 1.90929 68.7235 1.93702C68.812 1.98189 68.906 2.00159 69.0052 1.99612C69.078 1.99466 69.1453 1.97569 69.2071 1.9403C69.2748 1.91513 69.3322 1.87463 69.3798 1.81845C69.4336 1.76373 69.4698 1.70025 69.4881 1.62765C69.5185 1.56125 69.5298 1.49084 69.5229 1.41641C69.5141 1.37044 69.5053 1.32448 69.4969 1.27851Z" fill="white"/>
</g>
<defs>
<clipPath id="clip0_2538_31335">
<rect width="80" height="79.9999" fill="white" transform="translate(0 0.462402)"/>
</clipPath>
</defs>
</svg>
