<svg width="255" height="252" viewBox="0 0 255 252" fill="none" xmlns="http://www.w3.org/2000/svg">
<g clip-path="url(#clip0_2538_31811)">
<path d="M67.5797 181.256C65.7658 187.716 68.1695 195.214 73.3555 199.271C78.5415 203.328 86.1682 203.678 91.6803 200.111C97.1928 196.544 100.228 189.296 98.9737 182.695C99.2676 189.296 95.4941 195.941 89.715 198.753C83.9354 201.564 76.4926 200.276 72.0127 195.567C67.5327 190.858 66.4309 183.027 69.5513 177.262" fill="#CCCCCC"/>
<path d="M124.681 218.839C126.099 219.409 127.673 219.405 129.201 219.394C152.154 219.228 175.109 219.369 198.058 219.818C200.634 219.868 203.371 219.881 205.569 218.537C207.766 217.192 208.999 213.95 207.356 211.966C207.99 213.509 206.936 215.327 205.472 216.126C204.008 216.925 202.263 216.965 200.595 216.986C176.797 217.289 153.34 217.611 131.401 217.717C129.426 217.727 127.408 217.728 125.541 217.085C123.711 216.454 122.048 215.096 121.515 213.18C121.742 215.585 122.129 217.813 124.681 218.839Z" fill="#CCCCCC"/>
<path d="M165.165 100.292C165.357 100.768 165.56 101.274 165.973 101.579C166.718 102.128 167.788 101.786 168.553 101.267C169.319 100.747 170.02 100.051 170.929 99.8794C169.9 97.9391 168.87 95.9989 167.841 94.0591C167.752 93.8911 167.655 93.7145 167.491 93.618C167.305 93.5085 167.075 93.5249 166.86 93.5445C165.181 93.6981 163.502 93.8513 161.823 94.0049C162.023 93.9852 163.36 96.3287 163.564 96.6786C164.218 97.7956 164.683 99.0941 165.165 100.293V100.292Z" fill="#CCCCCC"/>
<path d="M189.12 97.4954C188.43 103.938 191.752 110.641 197.297 113.998C202.842 117.354 210.325 117.19 215.717 113.594C221.11 109.998 224.134 103.155 223.162 96.7494C223.422 102.935 219.923 109.129 214.491 112.103C209.058 115.077 201.952 114.688 196.877 111.139C191.802 107.589 189.001 101.05 189.936 94.9297" fill="#CCCCCC"/>
<path d="M74.1101 134.269C70.0365 136.813 68.3752 142.73 69.4217 146.849C70.4682 150.967 73.6424 154.484 77.6344 155.946C81.1975 157.252 85.1122 156.865 88.9073 156.865C98.4499 156.865 111.791 157.476 121.895 157.328C122.507 157.319 123.145 157.22 123.655 156.882C124.165 156.544 124.484 155.836 124.189 155.3C123.892 154.762 123.177 154.655 122.564 154.612C111.651 153.845 100.685 153.827 89.7689 154.558C84.5205 154.91 78.7251 155.418 74.296 152.111C70.96 149.62 69.2993 145.083 70.2387 141.029C71.1786 136.974 75.3147 133.208 79.4066 132.437C78.4004 132.375 76.7464 132.736 75.7402 132.674" fill="#CCCCCC"/>
<path d="M54.9418 104.02C52.9602 104.273 50.6593 103.225 50.2241 101.276C49.7933 99.3456 51.2582 97.5556 52.6173 96.1179C53.1639 95.5395 53.7215 94.9524 54.4121 94.5574C55.1032 94.1623 55.96 93.9804 56.704 94.2631C57.7409 94.6572 58.2624 95.7891 58.6764 96.8178C59.1894 98.0923 60.6715 100.366 59.9977 101.594C59.3195 102.831 56.2126 103.858 54.9418 104.02Z" fill="#CCCCCC"/>
<path d="M106.773 110.505C107.304 106.595 108.185 103.526 107.768 99.6028C107.628 98.289 107.197 96.7577 105.946 96.331C104.57 95.8615 103.149 97.1307 102.693 98.5112C101.819 101.161 103.171 103.994 104.611 106.384C106.051 108.775 106.683 111.514 106.394 114.29L106.773 110.505Z" fill="#CCCCCC"/>
<path d="M78.3226 62.4173C77.9936 62.3727 77.7631 62.0698 77.8077 61.7405C78.1636 59.121 78.4191 58.0184 78.7193 55.8238C78.0455 55.4393 77.6713 54.8604 77.2477 54.2282C76.5307 53.163 76.4034 51.8425 76.9149 50.7821C77.9095 48.7209 81.0428 48.1938 81.9241 50.376C82.184 51.0212 82.1105 51.7038 81.7224 52.2491C81.5293 52.5203 81.1538 52.5831 80.8834 52.3907C80.6125 52.1982 80.5491 51.8228 80.7417 51.5521C80.9415 51.2717 80.869 50.9765 80.808 50.8258C80.3412 49.6675 78.5445 50.1739 77.9984 51.3044C77.4144 52.5155 78.3072 53.6315 78.3231 53.6723C78.7058 54.2435 79.0079 54.6943 79.5794 54.9012C79.8446 54.9977 80.0074 55.2645 79.9709 55.5444C79.6414 58.0559 79.3739 59.1503 79.0002 61.9027C78.9589 62.2042 78.6458 62.4634 78.3231 62.4173H78.3226Z" fill="black"/>
<path d="M86.0511 58.7446C85.8157 58.5104 85.8148 58.1293 86.0496 57.8945C86.284 57.6593 86.6653 57.6584 86.9002 57.8931C88.8482 59.8338 91.7077 59.8948 92.9636 58.6539C93.8219 57.8062 94.0769 56.5845 94.2248 55.3912C94.7329 51.2731 94.5634 48.1631 93.6595 44.9925C93.5683 44.6733 93.7537 44.3407 94.073 44.2495C94.3924 44.1592 94.7253 44.3436 94.8165 44.6628C95.7679 47.9979 95.948 51.2506 95.4188 55.5381C95.2531 56.8793 94.9323 58.4 93.8099 59.5088C91.8009 61.4932 88.1417 60.8274 86.0515 58.7446H86.0511Z" fill="black"/>
<path d="M89.8562 68.6797C89.6453 67.3194 89.2592 61.61 89.057 60.3043C89.0061 59.976 89.2313 59.6693 89.5593 59.6184C89.8869 59.568 90.1948 59.7926 90.2457 60.1205C90.4579 61.4934 90.8407 67.1782 91.0448 68.4959C91.0957 68.8237 90.8705 69.131 90.5425 69.1818C90.2058 69.2322 89.9061 69.0013 89.8562 68.6797Z" fill="black"/>
<path d="M52.0278 118.36C45.937 117.877 39.6752 114.618 37.6916 108.939C36.3526 105.059 37.5303 101.639 38.7055 99.0921C38.8443 98.7906 39.2011 98.6582 39.5037 98.7978C39.8058 98.937 39.9374 99.2942 39.7981 99.5956C38.1921 103.075 37.8929 105.834 38.8275 108.544C40.6664 113.773 46.6919 116.731 52.1233 117.161C57.7444 117.613 62.417 116.526 67.8825 114.892C67.7543 113.507 66.9695 107.838 67.0411 103.166C67.0411 103.036 67.044 102.896 67.0478 102.756C67.0512 102.55 67.0569 102.344 67.0636 102.138C66.3696 102.152 65.7069 102.146 65.0532 102.116C61.772 101.981 58.7842 101.363 55.4319 100.801C55.1044 100.746 54.8835 100.436 54.9382 100.109C54.993 99.7809 55.3061 99.5625 55.6308 99.6153C56.2638 99.7219 56.8776 99.8284 57.4779 99.9331C60.1751 100.403 62.5049 100.808 65.1046 100.915C67.6289 101.03 67.7855 100.755 68.1217 101.096C68.2408 101.217 68.3032 101.381 68.2941 101.551C68.272 101.957 68.2571 102.368 68.2504 102.782C68.247 102.916 68.2437 103.044 68.2442 103.174C68.2101 105.383 68.3421 107.793 68.6716 111C68.7681 111.988 68.8762 112.963 68.9847 113.927L69.1365 115.261C69.1668 115.548 68.9886 115.816 68.7115 115.9C68.2989 116.023 67.895 116.145 67.4906 116.262C62.2139 117.808 57.4822 118.801 52.0273 118.36H52.0278Z" fill="black"/>
<path d="M40.7036 96.4544C40.4054 96.3085 40.2815 95.9485 40.4275 95.6499C43.5934 89.1821 48.097 77.4499 58.3575 71.1036C63.8504 67.7084 69.8264 65.1422 76.1199 63.4761C76.4412 63.3916 76.7702 63.5822 76.8552 63.9033C76.9402 64.2244 76.7486 64.5532 76.4277 64.6382C70.249 66.2736 64.3825 68.7928 58.9905 72.1256C51.3109 76.8758 46.7853 84.8547 42.9758 93.0708C42.5023 94.0918 42.0129 95.1473 41.5086 96.1779C41.3616 96.4779 41.0004 96.5989 40.7036 96.4539V96.4544Z" fill="black"/>
<path d="M128.686 100.593C119.71 88.157 110.299 77.6935 108.373 76.3701C104.392 73.6364 95.9578 69.7117 92.0402 67.4758C91.448 68.5141 90.8967 69.1928 90.2647 70.0314C88.7532 72.0389 86.5718 74.9075 84.0504 74.8407C80.4489 74.7423 77.4044 69.8039 77.0692 69.2408C76.1375 67.6793 75.5275 66.029 75.2566 64.336C75.2043 64.0081 75.4276 63.6995 75.7556 63.6471C76.0793 63.5953 76.3925 63.818 76.4448 64.1459C76.6917 65.6877 77.2498 67.195 78.1027 68.6249C79.5176 71.0001 81.992 73.5816 84.0836 73.6388C86.2289 73.6863 88.4915 70.3511 89.7292 68.7464C91.3827 66.6165 91.1229 66.2148 91.6392 66.065C91.7991 66.0194 91.9711 66.041 92.1151 66.1269C93.4887 66.9492 95.7806 68.1243 98.2069 69.3675C102.08 71.3529 106.47 73.6037 109.054 75.3788C111.329 76.9418 121.204 88.1704 129.663 99.8887C129.857 100.158 129.796 100.534 129.527 100.728C129.258 100.922 128.882 100.863 128.687 100.592L128.686 100.593Z" fill="black"/>
<path d="M125.007 122.786C123.935 122.786 123.023 122.775 122.232 122.752C122.038 122.747 121.859 122.648 121.75 122.487C118.709 117.976 107.301 105.71 104.605 101.573C104.423 101.295 104.502 100.923 104.78 100.741C105.057 100.56 105.431 100.638 105.613 100.917C108.135 104.787 119.313 116.884 122.572 121.558C123.439 121.579 124.449 121.586 125.648 121.583C130.626 121.539 137.307 121.218 141.995 121.286C138.943 115.555 134.573 108.925 130.84 103.612C130.649 103.34 130.715 102.965 130.987 102.775C131.259 102.583 131.633 102.649 131.825 102.921C135.671 108.396 140.451 115.642 143.535 121.633C143.633 121.822 143.623 122.048 143.51 122.228C143.387 122.425 143.164 122.521 142.984 122.509C138.105 122.377 131.131 122.736 125.655 122.785C125.433 122.786 125.217 122.786 125.007 122.786Z" fill="black"/>
<path d="M106.11 131.584C105.988 129.836 105.91 124.535 105.828 118.923C105.725 111.942 105.608 104.029 105.396 102.902C105.335 102.576 105.55 102.262 105.876 102.2C106.201 102.138 106.517 102.354 106.579 102.68C106.809 103.908 106.921 111.532 107.03 118.905C107.113 124.5 107.19 129.786 107.31 131.501C107.333 131.832 107.083 132.119 106.751 132.142C106.435 132.169 106.133 131.926 106.109 131.584H106.11Z" fill="black"/>
<path d="M54.9632 132.622C52.096 132.116 52.5441 127.692 52.6205 124.989C52.6867 122.754 52.7578 122.459 53.2328 120.332C53.3053 120.009 53.6242 119.804 53.9508 119.877C54.275 119.949 54.4791 120.271 54.4066 120.595C53.9441 122.664 53.8855 122.899 53.8221 125.024C53.7678 126.976 53.349 131.116 55.1722 131.438C55.4997 131.496 55.7177 131.808 55.6601 132.134C55.6015 132.466 55.2841 132.679 54.9632 132.622Z" fill="black"/>
<path d="M61.7763 114.291C61.6596 110.398 61.9896 108.155 62.5357 104.439L62.5726 104.184C62.6207 103.856 62.9213 103.628 63.2551 103.676C63.5836 103.724 63.8113 104.03 63.7632 104.358L63.7258 104.614C63.1711 108.389 62.8656 110.468 62.9785 114.255C62.9886 114.587 62.7273 114.864 62.3954 114.874C62.0909 114.893 61.7869 114.64 61.7763 114.291V114.291Z" fill="black"/>
<path d="M144.776 133.342C144.48 133.342 144.223 133.125 144.181 132.824C144.135 132.495 144.365 132.191 144.694 132.146C145.369 132.052 145.818 131.782 146.068 131.32C146.645 130.251 146.121 128.337 145.498 127.023C144.689 125.315 142.654 123.464 141.142 122.369C140.873 122.174 140.813 121.798 141.008 121.53C141.203 121.26 141.579 121.201 141.848 121.395C142.238 121.678 142.929 122.23 143.534 122.768C145.018 124.084 146.016 125.307 146.584 126.508C146.963 127.304 148.121 130.05 147.126 131.891C146.824 132.449 146.187 133.152 144.859 133.336C144.831 133.34 144.803 133.342 144.776 133.342H144.776Z" fill="black"/>
<path d="M142.392 136.764C142.224 136.764 142.058 136.741 141.894 136.696C141.574 136.609 141.385 136.278 141.473 135.958C141.561 135.637 141.895 135.448 142.212 135.537C142.427 135.595 142.652 135.549 142.902 135.392C143.498 135.017 143.983 134.152 144.091 133.567C144.307 132.384 143.85 130.799 143.488 129.711C143.116 128.595 141.858 127.136 140.848 126.65C140.548 126.506 140.423 126.146 140.567 125.847C140.711 125.547 141.07 125.423 141.37 125.566C142.665 126.19 144.158 127.914 144.63 129.331C145.068 130.648 145.538 132.344 145.275 133.783C145.117 134.647 144.471 135.827 143.542 136.41C143.169 136.645 142.778 136.764 142.392 136.764H142.392Z" fill="black"/>
<path d="M140.205 138.423C139.892 138.423 139.587 138.344 139.312 138.19C139.312 138.19 139.107 138.051 138.917 137.92L138.641 137.73C138.372 137.547 138.297 137.182 138.473 136.909C138.647 136.635 139.008 136.549 139.288 136.717C139.29 136.718 139.44 136.82 139.6 136.931L139.921 137.152C140.104 137.247 140.28 137.226 140.398 137.193C140.613 137.132 140.8 136.982 140.911 136.781C141.595 135.547 141.884 134.108 141.725 132.728C141.527 131.012 140.647 129.399 139.312 128.301C139.055 128.091 139.018 127.711 139.229 127.455C139.439 127.198 139.818 127.161 140.075 127.372C141.65 128.666 142.686 130.568 142.919 132.59C143.107 134.218 142.768 135.913 141.963 137.364C141.698 137.843 141.247 138.202 140.726 138.35C140.553 138.4 140.377 138.424 140.204 138.424L140.205 138.423Z" fill="black"/>
<path d="M136.003 137.986C135.273 137.199 135.407 136.118 135.499 135.071C135.587 133.848 135.306 132.602 134.786 131.592C134.139 130.302 133.384 129.519 133.154 129.552C133.002 129.669 132.968 129.941 133.052 130.175C133.209 130.62 133.413 131.063 133.613 131.392L133.639 131.438C133.924 131.903 134.281 132.461 134.423 132.93C134.835 134.277 133.728 135.382 132.253 135.214C131.469 135.121 130.744 134.597 130.261 133.774C129.955 133.25 129.787 132.695 129.625 132.158C129.612 132.117 129.532 131.858 129.519 131.813C129.516 131.806 129.514 131.8 129.512 131.793C128.529 128.738 127.262 125.253 125.313 122.565C125.118 122.296 125.178 121.92 125.447 121.725C125.716 121.531 126.092 121.59 126.287 121.86C128.335 124.684 129.646 128.281 130.658 131.425C130.661 131.435 130.664 131.445 130.667 131.454C130.678 131.484 130.665 131.446 130.777 131.811C130.926 132.302 131.066 132.766 131.3 133.166C131.585 133.653 131.995 133.973 132.394 134.02C132.929 134.078 133.443 133.832 133.273 133.279C133.18 132.973 132.861 132.469 132.638 132.106C132.638 132.105 132.61 132.06 132.61 132.059L132.574 131.998C132.339 131.612 132.104 131.102 131.918 130.577C131.7 129.968 131.756 129.129 132.372 128.632C132.684 128.383 133.052 128.296 133.435 128.379C134.534 128.619 135.496 130.324 135.859 131.046C136.461 132.212 136.805 133.681 136.699 135.158C136.644 135.902 136.498 136.75 136.887 137.169C137.173 137.479 137.716 137.337 138.099 137.074C138.525 136.785 138.82 136.183 138.851 135.539C138.96 133.544 138.344 131.587 137.023 129.721C136.831 129.45 136.895 129.074 137.166 128.882C137.437 128.691 137.813 128.755 138.005 129.026C139.487 131.119 140.176 133.332 140.053 135.601C140.003 136.62 139.515 137.566 138.778 138.067C137.874 138.687 136.708 138.749 136.003 137.986V137.986Z" fill="black"/>
<path d="M73.3553 106.925C73.2838 106.601 73.4884 106.28 73.813 106.208L74.1843 106.127C75.1362 105.917 81.0238 104.649 81.9431 103.874C82.1016 103.741 82.1712 103.579 82.1472 103.5C82.1116 103.383 81.8696 103.229 81.58 103.196C81.2188 103.154 80.8178 103.249 80.4043 103.358L79.7564 103.529C77.9851 103.994 76.1548 104.474 74.5531 105.175C74.5238 105.188 74.4945 105.202 74.4652 105.215C74.1607 105.347 73.8068 105.211 73.6728 104.908C73.5383 104.605 73.6747 104.25 73.9778 104.115C74.0075 104.102 74.0373 104.089 74.0676 104.076C75.7336 103.338 77.7205 102.332 78.5644 101.048C78.6782 100.874 78.6974 100.616 78.72 100.316L78.7296 100.187C78.682 100.089 78.3045 99.7367 78.2642 99.7017C78.195 99.7516 78.111 99.8106 78.0111 99.8586C77.5193 100.096 77.0092 100.331 76.454 100.576C75.4051 101.039 74.3183 101.484 73.131 101.936C71.5327 102.545 69.9247 103.101 68.3528 103.588C68.0349 103.688 67.6982 103.509 67.6002 103.192C67.5022 102.876 67.6795 102.539 67.9964 102.44C69.5444 101.96 71.1278 101.412 72.7026 100.812C73.8702 100.367 74.9383 99.9306 75.968 99.4761C76.5112 99.2361 77.0088 99.0071 77.4895 98.7752C77.5159 98.7613 77.5428 98.7392 77.5712 98.7191C77.7335 98.602 78.0029 98.408 78.3732 98.457C78.7718 98.5112 79.0518 98.7853 79.2367 98.9668L79.3093 99.0369C79.51 99.2245 79.9812 99.6657 79.9307 100.257L79.9192 100.405C79.8904 100.792 79.8548 101.275 79.5696 101.709C79.3847 101.99 79.1637 102.256 78.915 102.508C79.0941 102.46 79.2728 102.413 79.4509 102.367L80.0959 102.197C80.6036 102.062 81.1449 101.935 81.7183 102.002C83.3421 102.19 83.9132 103.788 82.7182 104.795C82.346 105.107 81.8998 105.283 81.4369 105.45C79.2151 106.25 76.7893 106.784 74.4431 107.302L74.0719 107.383C73.7424 107.454 73.4254 107.246 73.3548 106.926L73.3553 106.925Z" fill="black"/>
<path d="M73.1324 109.102C73.1184 108.77 73.3768 108.49 73.7087 108.476C76.5543 108.358 78.9249 107.652 81.7283 106.74C82.1202 106.613 82.4948 106.482 82.7652 106.275C82.9679 106.12 83.0889 105.918 83.0673 105.772C83.0337 105.548 82.6461 105.283 82.1788 105.264C81.6601 105.242 81.3964 105.431 80.7644 105.684C80.457 105.81 80.1059 105.658 79.9825 105.35C79.8586 105.042 80.0084 104.692 80.3168 104.569C80.9464 104.316 81.3921 104.033 82.2263 104.063C83.1047 104.097 84.1152 104.645 84.2574 105.595C84.3453 106.186 84.061 106.797 83.4967 107.229C83.0755 107.552 82.576 107.73 82.1005 107.884C79.2083 108.825 76.7575 109.554 73.7582 109.678C73.434 109.693 73.1463 109.439 73.1324 109.102V109.102Z" fill="black"/>
<path d="M77.1045 111.603C76.8086 111.603 76.5089 111.592 76.1814 111.574C75.8495 111.556 75.595 111.273 75.6132 110.942C75.6315 110.61 75.9148 110.365 76.2462 110.374C77.59 110.447 78.3618 110.417 81.1618 109.805C81.8995 109.644 82.7155 109.42 83.1693 108.981C83.4777 108.683 83.1919 107.917 82.5296 107.883C82.1978 107.866 81.9427 107.583 81.9595 107.252C81.9764 106.921 82.254 106.67 82.5906 106.682C84.2653 106.767 85.101 108.785 84.0055 109.846C83.335 110.494 82.3217 110.783 81.4188 110.981C79.2326 111.458 78.1952 111.603 77.1045 111.604V111.603Z" fill="black"/>
<path d="M68.4495 115.126C68.1181 115.101 67.8703 114.812 67.8953 114.48C67.9207 114.149 68.2176 113.903 68.5413 113.926C73.0001 114.268 77.4345 113.318 81.1815 112.345C81.3847 112.289 82.0883 111.844 82.2943 111.659C82.2977 111.653 82.3015 111.647 82.3044 111.641C82.4139 111.45 82.4437 111.222 82.3856 111.053C82.3635 111.011 82.3438 110.975 82.3246 110.944C82.2559 110.866 82.1599 110.812 82.0412 110.814C82.0163 110.817 81.9884 110.823 81.9577 110.829C81.6373 110.898 81.3247 110.701 81.2469 110.385C81.1691 110.069 81.3564 109.749 81.67 109.662C82.2261 109.507 82.8246 109.643 83.2323 110.155C83.3399 110.278 83.4201 110.409 83.4792 110.548C83.4945 110.577 83.508 110.604 83.5219 110.625C83.91 111.188 83.5507 111.88 83.4153 112.14C83.3836 112.215 83.325 112.306 83.2458 112.4C82.9936 112.762 82.6214 113.071 82.1594 113.299C81.7291 113.512 81.2858 113.63 80.8569 113.745C80.7527 113.772 80.6465 113.771 80.5485 113.746C76.5705 114.738 72.5261 115.434 68.4495 115.125V115.126Z" fill="black"/>
<path d="M84.7835 57.594C84.526 57.594 84.4468 57.4712 83.5266 56.9998C83.2341 56.8423 83.1246 56.4775 83.2817 56.1852C83.4397 55.8929 83.8047 55.7844 84.0967 55.9404L85.0688 56.4631C85.6163 56.7579 85.4073 57.594 84.7835 57.594Z" fill="black"/>
<path d="M90.9314 55.8056C90.3363 55.2502 90.551 54.3247 91.2469 54.3967C91.5274 54.4246 91.744 54.6401 91.7834 54.9065C92.0009 54.7135 91.9582 54.257 91.9404 53.9652L91.7882 51.4705C91.768 51.1388 92.0202 50.8542 92.3515 50.8335C92.6897 50.81 92.9682 51.0654 92.9889 51.3966C93.1656 54.2887 93.2204 54.5422 93.0566 55.0625C92.8808 55.6184 92.4385 56.0312 91.9303 56.1152C91.5706 56.1752 91.1989 56.0547 90.9314 55.8046V55.8056Z" fill="black"/>
<path d="M89.3899 56.8604C89.2338 56.5671 89.3453 56.2032 89.6387 56.0472C89.9312 55.8912 90.2957 56.0021 90.4523 56.2959C90.6377 56.6434 91.0771 56.8714 91.4618 56.8253C91.7975 56.7884 92.0905 57.0236 92.1289 57.3529C92.1673 57.6826 91.9306 57.9817 91.6011 58.0196C90.6828 58.1223 89.7943 57.6202 89.3899 56.8599V56.8604Z" fill="black"/>
<path d="M86.5926 66.2544C86.2775 66.1498 86.106 65.8099 86.2107 65.4945C86.5037 64.6108 86.411 63.5961 85.9639 62.7795C85.8039 62.4882 85.911 62.1229 86.2026 61.9635C86.4931 61.8046 86.8596 61.9102 87.019 62.2021C87.6242 63.3056 87.7486 64.678 87.3528 65.8728C87.2476 66.1901 86.9057 66.3581 86.5926 66.2544Z" fill="black"/>
<path d="M47.9144 91.6785C47.6022 91.5647 47.4413 91.2196 47.5551 90.908C48.8245 87.4279 50.9564 84.2833 53.7204 81.814C53.9687 81.5923 54.3495 81.6148 54.57 81.8616C54.7919 82.1093 54.7702 82.4894 54.5224 82.7107C51.9059 85.0479 49.8873 88.025 48.6857 91.3199C48.5718 91.6324 48.2256 91.7922 47.9148 91.6789L47.9144 91.6785Z" fill="black"/>
<path d="M54.4276 115.53C53.7461 115.237 53.2644 114.705 52.7654 114.177C52.2529 113.639 51.5253 112.995 50.9096 113.429C50.8135 113.497 50.7588 113.574 50.7468 113.659C50.6709 114.189 49.9889 114.36 49.6705 113.934L48.4986 112.371C48.4381 112.722 48.3238 113.261 47.8027 113.505C47.528 113.633 46.9618 113.747 46.275 113.064C45.5185 112.312 44.8956 111.446 44.4245 110.491C44.2775 110.193 44.4 109.833 44.6982 109.686C44.9955 109.54 45.3567 109.661 45.5036 109.959C46.0977 111.164 46.9978 112.143 47.2778 112.344C47.2951 112.271 47.3104 112.182 47.321 112.119L47.334 112.044C47.406 111.639 47.6183 111.285 47.9026 111.096C48.1202 110.95 48.379 110.9 48.6293 110.956C49.0034 111.038 49.2128 111.317 49.3252 111.468L50.1167 112.523C50.5696 112.153 51.1963 112.013 51.7515 112.124C52.5348 112.281 53.1208 112.805 53.6375 113.347C54.0222 113.754 54.4348 114.223 54.904 114.425C55.209 114.556 55.3502 114.909 55.2191 115.215C55.088 115.519 54.7345 115.661 54.429 115.53L54.4276 115.53Z" fill="black"/>
<path d="M104.202 85.2878C104.021 83.2324 103.577 81.2053 102.882 79.2626C102.77 78.9501 102.933 78.6059 103.246 78.4941C103.558 78.3827 103.902 78.545 104.014 78.8575C104.745 80.8961 105.21 83.0245 105.401 85.1817C105.429 85.5125 105.185 85.8043 104.854 85.8336C104.522 85.8624 104.231 85.6166 104.202 85.2878Z" fill="black"/>
<path d="M132.402 114.058C131.266 113.466 130.391 112.426 130.005 111.204C129.714 110.281 129.721 109.381 129.539 108.54C129.453 108.139 129.175 107.173 128.45 106.865C128.006 106.675 127.382 106.733 126.753 106.628C124.828 106.309 123.347 104.377 123.504 102.415C123.111 102.077 122.306 101.315 122.05 101.127C121.782 100.931 121.724 100.555 121.92 100.287C122.116 100.019 122.492 99.9614 122.761 100.157C123.127 100.426 124.197 101.455 124.5 101.676C124.687 101.813 124.778 102.045 124.735 102.273C124.471 103.667 125.552 105.209 126.949 105.442C127.529 105.538 128.234 105.465 128.922 105.759C129.809 106.137 130.446 107.035 130.715 108.288C130.903 109.164 130.908 110.069 131.152 110.842C131.439 111.749 132.114 112.553 132.958 112.993C133.252 113.146 133.367 113.509 133.213 113.803C133.06 114.098 132.697 114.212 132.402 114.059V114.058Z" fill="black"/>
<path d="M119.83 111.871L117.224 109.556C116.976 109.335 116.954 108.955 117.174 108.706C117.396 108.459 117.776 108.436 118.024 108.656L120.63 110.972C120.878 111.192 120.9 111.573 120.68 111.821C120.458 112.069 120.079 112.091 119.83 111.871Z" fill="black"/>
<path d="M58.9905 47.1446C58.0435 48.8698 55.9898 49.6906 54.0351 49.9268C52.0804 50.1629 50.0882 49.9484 48.1412 50.2412C46.1942 50.5345 44.1717 51.4916 43.3803 53.2932C43.0854 51.2128 42.7905 49.1319 42.4951 47.0515L56.0695 47.7883C56.5344 47.8137 57.0262 47.8329 57.4364 47.6131C58.1352 47.2382 58.3263 46.3429 58.4421 45.5586L58.9905 47.1441V47.1446Z" fill="#CCCCCC"/>
<path d="M37.3659 49.3706C36.3002 49.1906 35.2075 49.2098 34.1437 49.0168C33.0804 48.8234 31.9984 48.3722 31.3802 47.4861C30.7621 46.5999 30.7982 45.2108 31.6732 44.5762C31.568 45.7004 32.3835 46.7679 33.4156 47.2264C34.4477 47.6848 35.6407 47.632 36.742 47.3814C37.4355 47.2235 38.2145 47.0041 38.8158 47.3843C39.1573 47.6003 39.1208 47.6205 42.5855 52.1686C42.0164 52.1499 40.6461 50.9628 40.1029 50.6239C39.1885 50.0537 38.4628 49.5554 37.3664 49.3701L37.3659 49.3706Z" fill="#CCCCCC"/>
<path d="M57.1929 30.896L34.3939 30.1534C32.8873 30.0953 31.5953 31.2934 31.5271 32.8045L30.9551 45.5318C30.8865 47.0381 32.0113 48.3102 33.5164 48.4282L37.8552 48.7604L43.4537 54.9978C43.6122 55.1744 43.8572 55.2393 44.0786 55.1706C44.3029 55.1015 44.4662 54.908 44.4974 54.6757L45.3042 48.6207L56.5815 49.07C57.2448 49.0936 57.9123 48.8775 58.4325 48.4551C59.1145 47.9007 59.4247 47.2488 59.4708 46.2667L59.8786 33.7617C59.929 32.2285 58.7283 30.9459 57.1919 30.8955L57.1929 30.896ZM51.2332 43.0295L40.0073 42.5384C39.7859 42.5288 39.6144 42.3416 39.6245 42.1203C39.6341 41.899 39.8315 41.7262 40.0428 41.7377L51.2687 42.2283C51.4901 42.2379 51.6616 42.4251 51.6515 42.6464C51.6414 42.8773 51.4397 43.0429 51.2332 43.029V43.0295ZM52.6956 37.0863L35.4255 36.3308C35.2041 36.3212 35.0326 36.134 35.0427 35.9127C35.0523 35.6914 35.2411 35.5157 35.461 35.5301L52.7312 36.2857C52.9526 36.2953 53.124 36.4825 53.1139 36.7037C53.1038 36.9346 52.9021 37.1002 52.6956 37.0863Z" fill="black"/>
<path d="M55.2231 101.829C54.8941 101.782 54.6655 101.478 54.7121 101.149C55.1064 98.3715 56.2321 95.7372 57.9664 93.5305C58.1715 93.2694 58.5504 93.2243 58.8112 93.4292C59.0725 93.6342 59.1176 94.0124 58.9125 94.2736C57.3084 96.3137 56.2682 98.7498 55.9036 101.318C55.858 101.64 55.5607 101.875 55.2236 101.829H55.2231Z" fill="black"/>
<path d="M185.577 155.131H81.7047C75.2028 155.131 69.9131 149.845 69.9131 143.346C69.9131 136.847 75.1442 131.561 81.7047 131.561L126.664 131.593C126.996 131.593 127.266 131.863 127.266 132.195C127.266 132.526 126.996 132.796 126.664 132.796L81.7047 132.763C75.9006 132.763 71.1166 137.458 71.1166 143.346C71.1166 149.234 75.867 153.929 81.7052 153.929H185.577C191.496 153.929 196.165 149.117 196.165 143.346C196.165 137.575 191.415 132.763 185.577 132.763C181.315 132.767 155.859 132.792 151.972 132.796C151.64 132.796 151.371 132.527 151.371 132.195C151.371 131.863 151.639 131.594 151.972 131.593L185.577 131.561C192.079 131.561 197.369 136.847 197.369 143.346C197.369 146.492 196.142 149.451 193.913 151.678C191.689 153.905 188.729 155.131 185.577 155.131H185.577Z" fill="black"/>
<path d="M83.2406 149.816C79.6352 149.816 76.7021 146.736 76.7021 142.952C76.7021 139.167 79.6352 136.088 83.2406 136.088C86.846 136.088 89.779 139.167 89.779 142.952C89.779 146.736 86.846 149.816 83.2406 149.816ZM83.2406 137.29C80.2984 137.29 77.9048 139.83 77.9048 142.952C77.9048 146.074 80.2984 148.614 83.2406 148.614C86.1827 148.614 88.5764 146.074 88.5764 142.952C88.5764 139.831 86.1827 137.29 83.2406 137.29Z" fill="black"/>
<path d="M90.6187 152.079L86.9566 148.215C86.7285 147.975 86.7386 147.594 86.9797 147.366C87.2208 147.138 87.6016 147.148 87.8298 147.389L91.4919 151.252C91.72 151.492 91.7099 151.874 91.4688 152.102C91.2272 152.33 90.8473 152.32 90.6187 152.079Z" fill="black"/>
<path d="M178.177 141.773H96.2253C95.5674 141.773 95.0342 142.306 95.0342 142.964V143.03C95.0342 143.687 95.5674 144.22 96.2253 144.22H178.177C178.835 144.22 179.369 143.687 179.369 143.03V142.964C179.369 142.306 178.835 141.773 178.177 141.773Z" fill="black"/>
<path d="M178.178 144.821H96.2245C95.2366 144.821 94.4326 144.018 94.4326 143.03V142.963C94.4326 141.975 95.2366 141.172 96.2245 141.172H178.178C179.166 141.172 179.97 141.975 179.97 142.963V143.03C179.97 144.018 179.166 144.821 178.178 144.821ZM96.2245 142.374C95.8998 142.374 95.6357 142.638 95.6357 142.963V143.03C95.6357 143.355 95.8998 143.619 96.2245 143.619H178.178C178.503 143.619 178.767 143.355 178.767 143.03V142.963C178.767 142.638 178.503 142.374 178.178 142.374H96.2245Z" fill="black"/>
<path d="M127.51 217.825H124.919C123.083 217.825 121.588 216.333 121.588 214.5C121.022 200.083 121.021 181.575 121.588 154.515C121.595 154.188 121.863 153.927 122.189 153.927H122.202C122.534 153.934 122.798 154.209 122.791 154.541C122.225 181.576 122.225 200.061 122.791 214.476C122.791 215.67 123.746 216.623 124.92 216.623H127.511C127.843 216.623 128.112 216.892 128.112 217.224C128.112 217.555 127.843 217.825 127.511 217.825H127.51Z" fill="black"/>
<path d="M204.569 217.824H130.971C130.64 217.824 130.37 217.555 130.37 217.223C130.37 216.892 130.64 216.622 130.971 216.622H204.569C205.742 216.622 206.696 215.67 206.696 214.5V197.07C206.696 196.738 206.966 196.469 207.298 196.469C207.63 196.469 207.899 196.738 207.899 197.07V214.5C207.899 216.333 206.405 217.825 204.568 217.825L204.569 217.824Z" fill="black"/>
<path d="M207.297 193.669C207.287 193.669 207.276 193.669 207.265 193.668C206.933 193.65 206.678 193.368 206.696 193.036C207.266 182.33 207.266 169.228 206.696 151.803C206.696 150.613 205.741 149.661 204.568 149.661H195.186C194.854 149.661 194.585 149.392 194.585 149.06C194.585 148.728 194.854 148.459 195.186 148.459H204.568C206.404 148.459 207.899 149.95 207.899 151.784C208.469 169.225 208.469 182.359 207.898 193.1C207.88 193.421 207.615 193.67 207.297 193.67V193.669Z" fill="black"/>
<path d="M207.318 153.168C207.231 152.371 207.122 150.768 206.775 150.046C205.986 148.408 202.618 149.032 200.8 149.096C198.982 149.16 196.893 148.761 195.233 149.503C192.159 152.15 190.434 154.031 186.407 154.525C182.38 155.018 176.648 154.145 172.592 154.242C155.04 154.661 138.611 154.389 121.987 154.378C121.843 157.344 122.325 159.498 122.18 162.464L207.318 162.397C206.98 159.298 207.656 156.266 207.318 153.168V153.168ZM187.9 158.913C186.925 158.913 186.135 158.123 186.135 157.149C186.135 156.175 186.925 155.385 187.9 155.385C188.875 155.385 189.666 156.175 189.666 157.149C189.666 158.123 188.875 158.913 187.9 158.913ZM194.486 158.913C193.511 158.913 192.721 158.123 192.721 157.149C192.721 156.175 193.511 155.385 194.486 155.385C195.46 155.385 196.251 156.175 196.251 157.149C196.251 158.123 195.461 158.913 194.486 158.913ZM201.071 158.913C200.096 158.913 199.306 158.123 199.306 157.149C199.306 156.175 200.096 155.385 201.071 155.385C202.046 155.385 202.836 156.175 202.836 157.149C202.836 158.123 202.046 158.913 201.071 158.913Z" fill="black"/>
<path d="M163.395 201.334H132.275C130.921 201.334 129.819 200.233 129.819 198.879V174.476C129.819 173.123 130.921 172.021 132.275 172.021H163.395C164.75 172.021 165.851 173.123 165.851 174.476V198.879C165.851 200.233 164.75 201.334 163.395 201.334ZM132.275 173.224C131.585 173.224 131.022 173.786 131.022 174.476V198.879C131.022 199.569 131.585 200.131 132.275 200.131H163.395C164.086 200.131 164.648 199.569 164.648 198.879V174.476C164.648 173.786 164.086 173.224 163.395 173.224H132.275Z" fill="black"/>
<path d="M149.267 183.94C150.561 183.94 151.609 182.801 151.609 181.395C151.609 179.99 150.561 178.851 149.267 178.851C147.973 178.851 146.925 179.99 146.925 181.395C146.925 182.801 147.973 183.94 149.267 183.94Z" fill="black"/>
<path d="M175.261 173.558H201.791C202.311 173.558 202.733 173.979 202.733 174.498V174.551C202.733 175.07 202.311 175.492 201.791 175.492H175.261C174.741 175.492 174.319 175.07 174.319 174.551V174.498C174.319 173.979 174.741 173.558 175.261 173.558Z" fill="black"/>
<path d="M172.718 180.581H199.248C199.768 180.581 200.19 181.003 200.19 181.522V181.574C200.19 182.094 199.768 182.515 199.248 182.515H172.718C172.198 182.515 171.776 182.094 171.776 181.574V181.522C171.776 181.003 172.198 180.581 172.718 180.581Z" fill="black"/>
<path d="M200.06 188.215H173.53C173.01 188.215 172.589 188.636 172.589 189.156V189.208C172.589 189.728 173.01 190.149 173.53 190.149H200.06C200.58 190.149 201.002 189.728 201.002 189.208V189.156C201.002 188.636 200.58 188.215 200.06 188.215Z" fill="black"/>
<path d="M177.194 194.525H195.781C196.301 194.525 196.723 194.947 196.723 195.466V195.519C196.723 196.038 196.301 196.459 195.781 196.459H177.194C176.675 196.459 176.253 196.038 176.253 195.519V195.466C176.253 194.947 176.675 194.525 177.194 194.525Z" fill="black"/>
<path d="M174.038 201.04H192.625C193.145 201.04 193.566 201.461 193.566 201.981V202.033C193.566 202.553 193.145 202.974 192.625 202.974H174.038C173.518 202.974 173.097 202.553 173.097 202.033V201.981C173.097 201.461 173.518 201.04 174.038 201.04Z" fill="black"/>
<path d="M160.956 208.054H130.733C130.401 208.054 130.132 207.784 130.132 207.453C130.132 207.121 130.401 206.852 130.733 206.852H160.956C161.288 206.852 161.557 207.121 161.557 207.453C161.557 207.784 161.288 208.054 160.956 208.054Z" fill="black"/>
<path d="M196.316 139.926C196.162 139.926 196.008 139.867 195.89 139.749C195.655 139.515 195.655 139.134 195.89 138.899L206.049 128.745V114.331C206.049 114 206.319 113.73 206.65 113.73C206.982 113.73 207.252 114 207.252 114.331V128.994C207.252 129.154 207.188 129.307 207.076 129.419L196.74 139.75C196.622 139.868 196.469 139.926 196.315 139.926L196.316 139.926Z" fill="black"/>
<path d="M206.366 114.684C196.749 114.684 188.925 106.864 188.925 97.2513C188.925 87.6389 196.749 79.8232 206.366 79.8232C210.665 79.8232 214.794 81.4015 217.994 84.2677C218.242 84.4895 218.263 84.8692 218.041 85.1169C217.819 85.3641 217.439 85.3852 217.191 85.1635C214.212 82.4955 210.368 81.0257 206.366 81.0257C197.412 81.0257 190.127 88.3047 190.127 97.2518C190.127 106.199 197.412 113.482 206.366 113.482C215.32 113.482 222.601 106.201 222.601 97.2518C222.601 93.6176 221.424 90.183 219.199 87.3197C218.996 87.0576 219.043 86.6798 219.305 86.4763C219.567 86.2723 219.945 86.3198 220.149 86.5824C222.54 89.6584 223.803 93.3483 223.803 97.2518C223.803 106.864 215.981 114.684 206.366 114.684L206.366 114.684Z" fill="black"/>
<path d="M83.0722 200.452C74.2049 200.452 66.9912 193.242 66.9912 184.38C66.9912 175.517 74.2049 168.307 83.0722 168.307C91.0019 168.307 97.8405 174.209 98.9802 182.037C99.0278 182.365 98.8006 182.671 98.4716 182.719C98.146 182.766 97.8377 182.54 97.7896 182.21C96.7359 174.969 90.4088 169.509 83.0722 169.509C74.8686 169.509 68.1943 176.18 68.1943 184.38C68.1943 192.579 74.8686 199.25 83.0722 199.25C91.2757 199.25 97.8876 192.632 97.9505 184.497C97.9534 184.167 98.2219 183.901 98.5518 183.901H98.5566C98.8885 183.903 99.156 184.175 99.1536 184.506C99.0859 193.299 91.8717 200.452 83.0722 200.452Z" fill="black"/>
<path d="M215.963 94.6785L215.666 105.903C215.659 106.15 215.455 106.348 215.207 106.346L209.195 106.306C208.944 106.305 208.742 106.101 208.742 105.851V98.0084C208.742 97.6589 208.459 97.3757 208.109 97.3757H203.91C203.56 97.3757 203.277 97.6589 203.277 98.0084V105.809C203.277 106.061 203.071 106.266 202.818 106.264L196.658 106.222C196.408 106.221 196.206 106.017 196.206 105.767V94.9055C196.206 94.738 196.273 94.5767 196.391 94.4581L205.646 85.2086C205.891 84.9638 206.287 84.9614 206.535 85.2033L215.772 94.2095C215.898 94.3324 215.967 94.5028 215.963 94.6789V94.6785Z" fill="black"/>
<path d="M83.0691 168.968C82.7372 168.968 82.4678 168.699 82.4678 168.367V155.61C82.4678 155.278 82.7372 155.009 83.0691 155.009C83.4009 155.009 83.6704 155.278 83.6704 155.61V168.367C83.6704 168.699 83.4009 168.968 83.0691 168.968Z" fill="black"/>
<path d="M182.746 88.4212C182.717 88.4212 182.688 88.4193 182.659 88.415C182.33 88.3674 182.102 88.0621 182.15 87.7333C182.536 85.0855 182.899 82.1205 183.259 78.6686C183.294 78.3384 183.588 78.1036 183.92 78.1334C184.25 78.168 184.49 78.4637 184.456 78.7939C184.093 82.2621 183.728 85.243 183.34 87.9066C183.296 88.2061 183.039 88.4212 182.745 88.4212H182.746Z" fill="black"/>
<path d="M182.868 88.5737C167.801 85.5558 152.146 85.5016 137.059 88.4143C135.819 88.6539 134.536 88.9126 133.306 88.6284C132.076 88.3438 130.91 87.3453 130.879 86.0838C130.848 84.8737 131.873 83.8407 133.021 83.4557C134.169 83.0707 135.418 83.1879 136.623 83.3088C149.534 84.6092 162.445 85.9091 175.356 87.2095" fill="#CCCCCC"/>
<path d="M136.767 90.4582C135.087 90.4582 133.15 90.3751 131.442 89.6743C129.447 88.8564 127.67 86.7865 128.594 84.9298C129.506 83.1004 132.256 82.8383 134.55 82.8148C144.655 82.7059 155.392 84.0442 165.777 85.334C171.414 86.0338 177.243 86.7577 182.795 87.2224C183.126 87.2502 183.372 87.5411 183.344 87.8718C183.316 88.2031 183.027 88.4459 182.695 88.421C177.119 87.9539 171.277 87.2286 165.629 86.5273C155.283 85.2423 144.579 83.9107 134.562 84.0173C133.525 84.0278 130.371 84.0605 129.671 85.466C129.515 85.7775 129.511 86.1327 129.658 86.5225C129.96 87.3275 130.84 88.1287 131.898 88.5621C133.655 89.2836 135.719 89.2649 137.543 89.2519H137.547C137.877 89.2519 138.146 89.5178 138.149 89.8486C138.152 90.1803 137.885 90.452 137.552 90.4544C137.298 90.4563 137.035 90.4587 136.766 90.4587L136.767 90.4582Z" fill="black"/>
<path d="M128.8 86.0854H128.795C128.463 86.083 128.196 85.8118 128.198 85.4801C128.228 80.9862 128.688 49.9572 131.824 46.8236C133.696 44.953 148.928 42.7449 153.275 42.203C153.607 42.1617 153.905 42.3959 153.947 42.7252C153.988 43.055 153.754 43.355 153.424 43.3963C149.405 43.8974 134.698 46.0681 132.662 47.6858C130.058 50.2923 129.443 79.1698 129.401 85.4893C129.398 85.8195 129.13 86.0859 128.8 86.0859V86.0854Z" fill="black"/>
<path d="M184.192 75.4155C183.861 75.3838 183.619 75.0901 183.651 74.7598C184.656 64.2483 185.535 51.7424 186.874 42.2639C178.324 41.6758 169.662 41.7959 160.42 42.6272C160.087 42.6537 159.797 42.4127 159.767 42.0824C159.737 41.7517 159.981 41.4594 160.312 41.4296C169.851 40.5718 178.778 40.4681 187.605 41.1104C187.771 41.1224 187.925 41.2035 188.03 41.3336C188.135 41.4642 188.18 41.6317 188.156 41.7968C186.767 51.3367 185.908 63.7909 184.848 74.875C184.816 75.2081 184.518 75.4491 184.192 75.4165L184.192 75.4155Z" fill="black"/>
<path d="M138.417 89.8207C136.349 90.2724 134.206 89.7218 132.18 89.1117C131.268 88.8372 130.337 88.5376 129.594 87.9419C128.852 87.3462 128.329 86.3833 128.519 85.4506C128.696 84.5765 129.46 83.915 130.299 83.6088C131.137 83.3025 132.05 83.2896 132.942 83.2804C135.338 83.2555 137.733 83.23 140.129 83.2051C139.048 84.1589 138.846 84.3869 138.7 85.8341C138.663 86.2038 138.596 89.7814 138.417 89.8212L138.417 89.8207Z" fill="black"/>
<path d="M181.758 58.3907C176.98 58.167 172.165 57.6716 167.443 56.9189C167.115 56.8666 166.892 56.5584 166.944 56.2306C166.996 55.9022 167.306 55.6786 167.633 55.7314C172.31 56.4773 177.081 56.9679 181.814 57.1897C182.146 57.205 182.402 57.4868 182.386 57.8185C182.371 58.1425 182.099 58.4046 181.757 58.3907H181.758Z" fill="black"/>
<path d="M180.523 67.2603C180.504 67.2603 180.484 67.2593 180.465 67.2574L169.058 66.1538C168.728 66.1217 168.485 65.8279 168.518 65.4976C168.549 65.1669 168.845 64.924 169.174 64.9571L180.581 66.0607C180.911 66.0929 181.153 66.3866 181.121 66.7169C181.091 67.0275 180.829 67.2603 180.523 67.2603Z" fill="black"/>
<path d="M176.842 74.6286C176.828 74.6286 176.814 74.6286 176.801 74.6277C173.677 74.417 170.532 74.0185 167.451 73.4439C167.124 73.383 166.909 73.0691 166.97 72.7426C167.032 72.4167 167.347 72.2017 167.672 72.2621C170.706 72.8286 173.805 73.2207 176.881 73.4276C177.213 73.4502 177.463 73.7368 177.441 74.068C177.42 74.3857 177.155 74.6286 176.842 74.6286Z" fill="black"/>
<path d="M139.764 53.8447H133.952V61.3129H139.764V53.8447Z" fill="black"/>
<path d="M139.264 66.791H133.452V74.2592H139.264V66.791Z" fill="black"/>
<path d="M78.182 132.886H43.9636C43.6317 132.886 43.3623 132.616 43.3623 132.285C43.3623 131.953 43.6317 131.684 43.9636 131.684H78.1816C78.5134 131.684 78.7829 131.953 78.7829 132.285C78.7829 132.616 78.5134 132.886 78.1816 132.886H78.182Z" fill="black"/>
<path d="M66.1893 90.0657C65.9371 89.8497 65.9083 89.47 66.1244 89.2184C66.3396 88.9664 66.7204 88.9367 66.9721 89.1536C67.1325 89.2904 67.3486 89.277 67.4644 89.2559C67.7372 89.2069 67.9927 89.0331 68.1142 88.8138C68.3639 88.363 68.2914 87.6977 67.9293 87.1198C67.5508 86.5159 66.9385 86.0445 66.3463 85.589C66.1749 85.457 66.0874 85.2429 66.1177 85.0283C66.1484 84.8138 66.2916 84.6323 66.4928 84.5531C67.1335 84.3011 67.6531 83.6982 67.8832 82.9403C68.1132 82.1823 68.0157 81.3931 67.6234 80.8277C67.4337 80.555 67.5014 80.1806 67.7742 79.9915C68.0465 79.8019 68.4216 79.8691 68.6108 80.1422C69.6736 81.6711 69.2707 83.9896 67.7708 85.1848C68.205 85.5511 68.6276 85.9687 68.9489 86.4818C69.5483 87.4395 69.6319 88.5565 69.1665 89.396C68.8677 89.9356 68.3106 90.3254 67.6771 90.4391C67.1493 90.5351 66.598 90.4175 66.1888 90.0657H66.1893Z" fill="black"/>
<path d="M99.019 126.844C98.9686 126.844 98.9172 126.838 98.8663 126.824C98.5449 126.74 98.3524 126.412 98.4369 126.09L100.253 119.165C100.337 118.844 100.669 118.652 100.987 118.736C101.308 118.82 101.501 119.148 101.416 119.469L99.6006 126.395C99.5295 126.665 99.2855 126.844 99.019 126.844Z" fill="black"/>
<path d="M102.422 128.05C102.383 128.05 102.343 128.047 102.303 128.039C101.978 127.974 101.766 127.657 101.831 127.332L102.442 124.278C102.507 123.952 102.824 123.74 103.15 123.806C103.475 123.871 103.687 124.188 103.622 124.513L103.011 127.567C102.954 127.853 102.702 128.05 102.422 128.05Z" fill="black"/>
<path d="M63.3242 127.816C63.2685 127.816 63.2128 127.809 63.1566 127.792C61.272 127.247 59.9757 125.226 60.2663 123.287C60.3158 122.959 60.6179 122.73 60.9502 122.782C61.2787 122.831 61.5049 123.137 61.4559 123.465C61.2547 124.807 62.1869 126.259 63.4908 126.637C63.8102 126.729 63.9937 127.062 63.9015 127.382C63.8256 127.645 63.585 127.816 63.3242 127.816V127.816Z" fill="black"/>
<path d="M160.335 97.1314C164.727 95.9213 169.119 94.7107 173.511 93.5006C174.162 93.321 174.961 92.9447 174.906 92.2722C174.87 91.8359 174.44 91.5152 174.006 91.4533C173.573 91.3909 173.137 91.5248 172.72 91.6578C169.879 92.5626 167.048 93.4986 164.228 94.4659C162.805 94.9541 161.324 95.3794 159.938 95.9645C158.434 96.5991 158.682 97.5875 160.335 97.1319V97.1314Z" fill="#CCCCCC"/>
<path d="M164.117 94.7241C164.919 96.9625 165.949 99.5719 166.737 101.087C167.915 100.618 169.412 100.142 170.457 99.5483C169.832 98.1659 168.825 95.473 168.118 93.4948C170.22 92.8554 172.269 92.2304 173.985 91.7446L162.043 82.0703C161.126 86.6185 159.998 91.6486 159.081 96.1968C160.499 95.809 162.249 95.2867 164.116 94.7241H164.117Z" fill="black"/>
<path d="M166.736 101.69C166.517 101.69 166.308 101.57 166.202 101.365C165.55 100.11 164.644 97.9319 163.744 95.4646C162.221 95.9225 160.566 96.4146 159.24 96.7779C159.039 96.8322 158.823 96.7794 158.671 96.6368C158.518 96.4947 158.45 96.2835 158.491 96.0786C158.951 93.8013 159.471 91.3648 159.974 89.0093C160.476 86.6562 160.995 84.223 161.453 81.9525C161.495 81.7466 161.641 81.5771 161.839 81.5061C162.038 81.4351 162.258 81.4725 162.421 81.6045L174.363 91.2788C174.538 91.42 174.619 91.6465 174.574 91.8669C174.529 92.0867 174.365 92.2629 174.149 92.3243C172.602 92.7626 170.804 93.3079 168.897 93.8877C169.589 95.8001 170.449 98.073 171.005 99.3028C171.133 99.5861 171.024 99.9197 170.754 100.073C169.961 100.523 168.965 100.893 168.002 101.251C167.64 101.385 167.287 101.517 166.959 101.647C166.886 101.676 166.811 101.69 166.737 101.69L166.736 101.69ZM164.116 94.1239C164.364 94.1239 164.594 94.2775 164.682 94.5223C165.52 96.8615 166.375 98.975 167.029 100.33C167.21 100.261 167.395 100.193 167.582 100.123C168.306 99.8539 169.051 99.5774 169.68 99.2755C169.055 97.8052 168.195 95.5016 167.551 93.6977C167.496 93.5431 167.506 93.3722 167.58 93.2253C167.654 93.0784 167.785 92.9685 167.942 92.9205L168.238 92.8307C169.823 92.3483 171.34 91.8875 172.71 91.4872L162.434 83.1627C162.026 85.1533 161.582 87.2366 161.15 89.2599C160.718 91.2836 160.274 93.366 159.866 95.3542C161.154 94.9879 162.623 94.5473 163.942 94.1494C164 94.1321 164.058 94.1239 164.116 94.1239Z" fill="black"/>
<path d="M122.688 217.164H103.53C103.198 217.164 102.929 216.895 102.929 216.563C102.929 216.231 103.198 215.962 103.53 215.962H122.688C123.02 215.962 123.289 216.231 123.289 216.563C123.289 216.895 123.02 217.164 122.688 217.164Z" fill="black"/>
<path d="M225.797 217.164H206.639C206.308 217.164 206.038 216.895 206.038 216.563C206.038 216.231 206.308 215.962 206.639 215.962H225.797C226.129 215.962 226.399 216.231 226.399 216.563C226.399 216.895 226.129 217.164 225.797 217.164Z" fill="black"/>
<path d="M95.9548 37.0372C94.7201 36.2754 93.6471 36.4727 92.2419 36.6834C89.2992 37.1058 87.0722 39.3153 84.3712 39.4152C82.866 39.4704 81.2527 39.3427 79.7461 39.9312C75.8718 41.4438 75.526 45.8878 74.5217 49.091C71.5469 58.5843 67.759 60.0906 65.0167 63.3197C63.938 64.5903 62.6725 66.5824 62.77 68.8596C62.7786 69.0555 62.8819 69.235 63.0476 69.3406C63.5744 69.6776 63.4452 69.235 70.7886 66.6357C71.375 66.4279 72.0685 66.2488 72.8028 66.0587C77.7304 64.7847 79.1943 63.8693 79.5723 58.579C79.6434 57.5878 79.7312 56.3541 79.2721 55.2496C78.8154 54.1509 77.7953 53.2475 77.5441 52.2975C77.3616 51.6087 77.6248 50.8205 78.1324 50.3035C78.3029 50.4355 78.5272 50.4648 78.7232 50.3875C79.3955 50.1216 80.0818 50.098 80.3205 50.3342C80.5333 50.5459 81.0068 51.0941 80.8037 51.6139C80.5573 52.2466 81.3906 52.7367 81.8252 52.2188C82.8218 51.0298 83.5869 49.7711 84.0998 48.478C84.2746 48.0359 84.3567 47.6259 84.4283 47.264C84.5815 46.4955 84.6545 46.2449 85.1828 46.0846C86.7389 45.6127 87.7667 45.3007 89.1062 46.0697C89.803 46.4705 91.2554 47.3034 92.5007 46.5833C92.7798 46.422 93.0871 46.122 93.2562 46.0644C93.8051 45.8772 94.7388 47.1133 95.9361 47.0158C97.2674 46.9131 97.9705 45.1999 98.3082 44.3772C99.4363 41.6286 98.4153 38.5564 95.9548 37.0381V37.0372ZM80.1784 42.9174C79.3883 43.1834 78.7328 43.8045 78.4244 44.5788C78.3423 44.7861 78.107 44.8841 77.9038 44.8025C77.6983 44.7209 77.5974 44.4876 77.68 44.2821C78.0738 43.2923 78.9124 42.4979 79.9229 42.158C80.1356 42.086 80.3604 42.2003 80.431 42.4096C80.5021 42.6193 80.3892 42.8469 80.1793 42.9174H80.1784ZM91.922 39.0461C91.922 38.8243 92.1011 38.6452 92.323 38.6452H92.385C92.6064 38.6452 92.786 38.8243 92.786 39.0461C92.786 39.5808 91.922 39.5827 91.922 39.0461ZM96.3904 43.0638C96.3746 43.2746 96.1983 43.4339 95.9909 43.4339C95.756 43.4339 95.573 43.2347 95.5908 43.0024C95.6873 41.7399 94.868 40.4511 93.6841 40.0032C93.4771 39.925 93.3724 39.6936 93.4507 39.4867C93.5295 39.2793 93.7619 39.1761 93.9675 39.2534C95.4722 39.8227 96.5134 41.4606 96.3904 43.0638Z" fill="black"/>
<path d="M164.404 200.001C161.345 196.291 158.16 192.364 155.013 188.545C154.796 188.282 154.401 188.25 154.146 188.481C152.335 190.114 150.575 191.79 148.869 193.496C149.657 194.854 150.58 196.411 151.218 197.647C151.356 197.914 151.161 198.231 150.862 198.231C150.717 198.231 150.577 198.152 150.505 198.014C149.987 197.011 149.284 195.802 148.603 194.634C146.668 191.311 148.075 193.481 142.474 184.723C142.265 184.396 141.785 184.339 141.511 184.655C137.57 189.236 133.837 194.062 130.418 198.999C129.909 199.734 130.429 200.741 131.324 200.751C137.429 200.821 146.945 201.281 150.972 201.281C151.366 201.281 151.725 201.072 151.926 200.736C155.905 200.839 160.05 200.965 163.938 200.984H163.941C164.174 200.984 164.385 200.851 164.485 200.641C164.585 200.43 164.554 200.181 164.405 200.001L164.404 200.001Z" fill="black"/>
<path d="M154.538 52.5176C148.578 52.5176 143.745 57.3471 143.745 63.3051C143.745 69.2631 148.577 74.0926 154.538 74.0926C160.499 74.0926 165.331 69.2631 165.331 63.3051C165.331 57.3471 160.499 52.5176 154.538 52.5176ZM159.872 64.8152C158.452 65.6754 156.801 66.3618 155.205 67.0252C153.638 67.6771 152.016 68.3515 150.649 69.18C150.584 69.2189 150.513 69.2381 150.441 69.2381C150.205 69.2381 150.022 69.0365 150.041 68.8047L151.002 57.1008C151.015 56.9491 151.112 56.8176 151.253 56.7614C151.395 56.7053 151.556 56.7336 151.67 56.8354C153.032 58.0575 154.421 59.2849 155.81 60.5128C157.192 61.7349 158.575 62.9575 159.931 64.1734C160.026 64.2579 160.074 64.3822 160.063 64.509C160.051 64.6352 159.98 64.749 159.871 64.8147L159.872 64.8152ZM161.543 59.8009C160.958 58.2226 159.848 56.8666 158.415 55.9833C158.226 55.8672 158.167 55.6199 158.283 55.4318C158.4 55.2431 158.647 55.1841 158.835 55.3007C160.421 56.2776 161.649 57.7772 162.295 59.523C162.393 59.7865 162.195 60.0625 161.919 60.0625C161.756 60.0625 161.602 59.9622 161.543 59.8009ZM162.455 62.045C162.159 62.045 161.962 61.7306 162.098 61.4628L162.232 61.1987C162.332 61.001 162.572 60.9208 162.771 61.0216C162.968 61.121 163.048 61.3619 162.948 61.5597C162.859 61.6836 162.804 62.0455 162.455 62.0455L162.455 62.045Z" fill="black"/>
<path d="M88.663 195.199C91.0423 195.199 92.95 193.262 92.95 190.915C92.95 189.35 92.1037 187.982 90.8468 187.234V183.698C90.8468 183.498 90.6845 183.336 90.4847 183.336C90.2849 183.336 90.1226 183.497 90.1226 183.698V186.891C89.6822 186.731 89.2106 186.639 88.7168 186.632C87.617 185.252 86.4384 183.826 85.147 182.643C86.6027 181.624 88.2515 180.563 90.1226 179.44V181.955C90.1226 182.154 90.2849 182.317 90.4847 182.317C90.6845 182.317 90.8468 182.155 90.8468 181.955V178.518C90.8468 178.318 90.6845 178.156 90.4847 178.156H74.119C73.9192 178.156 73.7568 178.318 73.7568 178.518V189.258C73.7568 189.457 73.9192 189.62 74.119 189.62H84.5793C84.4491 190.029 84.3781 190.463 84.3781 190.914C84.3781 193.271 86.2953 195.199 88.6626 195.199L88.663 195.199ZM90.7801 189.79C90.7359 189.834 88.4436 192.125 88.1151 192.454C88.0252 192.543 87.8768 192.551 87.7745 192.454C87.7505 192.43 86.425 191.102 86.5095 191.187C86.4154 191.093 86.4154 190.941 86.5095 190.847C86.6036 190.752 86.7559 190.752 86.85 190.847L87.946 191.94L90.4372 189.45C90.5313 189.356 90.686 189.356 90.7801 189.45C90.8742 189.544 90.8742 189.696 90.7801 189.79ZM74.4811 179.442C75.8796 180.546 77.3478 181.588 78.8761 182.558C77.2244 184.391 75.7495 186.36 74.4811 188.416V179.442ZM74.9378 178.88H89.6495C86.728 180.637 84.3449 182.246 82.3864 183.783C79.7449 182.35 77.2441 180.701 74.9373 178.88H74.9378ZM75.0358 188.896C77.2753 185.24 79.3035 183.224 79.4908 182.94C80.3937 183.495 81.3139 184.029 82.2529 184.532C82.383 184.602 82.5386 184.585 82.6496 184.497C83.2393 184.029 83.8709 183.554 84.5442 183.07C85.7262 184.133 86.8231 185.428 87.8519 186.708C86.5662 186.956 85.4836 187.779 84.8843 188.899C84.8041 188.891 85.464 188.898 75.0363 188.895L75.0358 188.896Z" fill="black"/>
</g>
<path d="M236.346 234.755L236.347 234.755C244.17 229.014 249.369 219.823 250.258 210.163C250.307 209.637 249.919 209.173 249.395 209.125C248.862 209.073 248.403 209.466 248.355 209.988L248.355 209.988C247.515 219.109 242.602 227.794 235.215 233.215L236.346 234.755ZM236.346 234.755C236.271 234.81 236.19 234.853 236.107 234.883L236.104 234.952M236.346 234.755L236.104 234.952M236.104 234.952L235.75 234.94M236.104 234.952L235.75 234.94M235.75 234.94C235.469 234.931 235.191 234.797 235.01 234.55M235.75 234.94L235.01 234.55M235.01 234.55C234.699 234.125 234.789 233.527 235.215 233.215L235.01 234.55Z" fill="#1B4071" stroke="#1B4071" stroke-width="0.708333"/>
<path d="M250.01 232.154C250.01 232.154 250.01 232.154 250.01 232.154L254.312 224.34C254.312 224.34 254.312 224.34 254.312 224.34L254.312 224.339L254.002 224.169C254.162 223.878 254.056 223.512 253.764 223.352L250.01 232.154ZM250.01 232.154C249.83 232.481 249.488 232.66 249.141 232.649C248.996 232.644 248.849 232.606 248.712 232.531C248.25 232.276 248.08 231.696 248.335 231.233L250.01 232.154ZM252.637 223.419C252.891 222.957 253.472 222.786 253.935 223.042L248.335 231.233L252.637 223.419L252.948 223.589L252.637 223.418L252.637 223.419Z" fill="#1B4071" stroke="#1B4071" stroke-width="0.708333"/>
<path d="M33.2714 249.474L33.1495 249.555L33.1299 249.552C32.8353 249.683 32.4806 249.662 32.1956 249.465L32.1955 249.465C23.857 243.683 17.6342 235.156 14.6723 225.451L14.6722 225.451C14.5186 224.944 14.805 224.413 15.3064 224.258L15.3064 224.258L15.3077 224.258C15.8123 224.104 16.3462 224.388 16.5005 224.893L16.5006 224.893C19.3375 234.188 25.2985 242.357 33.2854 247.895C33.7197 248.195 33.8257 248.791 33.5259 249.224L33.5251 249.225C33.4551 249.325 33.3688 249.409 33.2714 249.474Z" fill="#1B4071" stroke="#1B4071" stroke-width="0.708333"/>
<path d="M20.3719 244.1C17.423 242.415 15.2583 239.422 14.5822 236.093C14.5161 235.768 14.1986 235.558 13.8728 235.624C13.5459 235.692 13.3376 236.008 13.403 236.333M20.3719 244.1L19.7744 245.145C16.529 243.29 14.1472 239.996 13.403 236.333M20.3719 244.1C20.66 244.265 20.7599 244.632 20.5952 244.921C20.547 245.004 20.4823 245.072 20.4073 245.122L20.3719 244.1ZM13.403 236.333L13.403 236.333L13.403 236.333ZM20.8607 245.163C20.8752 245.142 20.889 245.12 20.902 245.098L20.9027 245.096C21.1643 244.638 21.0059 244.055 20.5479 243.793L20.5476 243.793C17.6873 242.158 15.585 239.251 14.9292 236.023L20.8607 245.163ZM20.8607 245.163L20.8988 245.22L20.6043 245.417C20.3132 245.611 19.9243 245.638 19.5988 245.452L19.5987 245.452C16.2647 243.547 13.8205 240.167 13.056 236.404L13.0558 236.403C12.9519 235.886 13.2838 235.385 13.8004 235.277L13.8004 235.277L13.8027 235.277C14.3192 235.172 14.8241 235.505 14.9292 236.023L20.8607 245.163Z" fill="#1B4071" stroke="#1B4071" stroke-width="0.708333"/>
<path d="M3.76845 39.4034C4.28463 29.8334 9.5058 20.5051 17.3948 15.0573C17.6674 14.8692 18.0423 14.9372 18.2315 15.2105L3.76845 39.4034ZM3.76845 39.4034C3.7508 39.7352 4.00518 40.0184 4.33667 40.0365L3.76845 39.4034ZM18.2795 16.338L18.2793 16.3382C10.8278 21.4833 5.87644 30.2783 5.33311 39.3153L5.33316 39.3153L5.32382 39.4877C5.29648 39.9921 4.87307 40.413 4.32217 40.3904L4.32217 40.3904L4.31733 40.3902C3.79075 40.3614 3.38676 39.9115 3.41478 39.3846L3.41479 39.3843C3.93689 29.7048 9.21438 20.2759 17.1936 14.7658L17.1937 14.7658C17.6271 14.4667 18.2223 14.5751 18.5227 15.0089L18.5228 15.0091C18.8231 15.4434 18.7132 16.0381 18.2795 16.338Z" fill="#1B4071" stroke="#1B4071" stroke-width="0.708333"/>
<path d="M215.133 1.40051C224.042 4.93221 231.227 12.848 233.884 22.0596C233.976 22.3778 233.792 22.7116 233.473 22.8041C233.154 22.8963 232.821 22.7122 232.729 22.3929L215.133 1.40051ZM215.133 1.40051C214.824 1.27831 214.474 1.42945 214.352 1.73799L215.133 1.40051ZM232.388 22.491C229.879 13.7903 223.114 6.29991 214.719 2.91194L214.719 2.91197L214.558 2.84839C214.089 2.66212 213.824 2.12689 214.021 1.61174L214.021 1.61173L214.023 1.60723C214.217 1.11711 214.772 0.877106 215.263 1.07117L215.263 1.07127C224.275 4.64339 231.537 12.6445 234.224 21.9615L234.224 21.9616C234.37 22.4676 234.078 22.9975 233.571 23.1443L233.571 23.1444C233.064 23.2911 232.535 22.9978 232.389 22.4913L232.388 22.491Z" fill="#1B4071" stroke="#1B4071" stroke-width="0.708333"/>
<path d="M5.04554 19.4376C5.27966 19.2017 5.66034 19.2001 5.89638 19.4336L5.04554 19.4376ZM5.04554 19.4376C3.17107 21.3313 1.87497 23.8165 1.39545 26.4366L5.04554 19.4376ZM6.14546 19.1818L6.14546 19.1818C5.77052 18.8109 5.16589 18.8135 4.79413 19.1882L4.79384 19.1885C2.86924 21.1328 1.53943 23.6826 1.04707 26.3728C0.952002 26.8915 1.29566 27.3892 1.81439 27.484C1.89631 27.4992 1.9764 27.5027 2.05277 27.4975C2.47808 27.4683 2.84627 27.1554 2.92655 26.7165L6.14546 19.1818ZM6.14546 19.1818L6.14573 19.182M6.14546 19.1818L6.14573 19.182M6.14573 19.182C6.51997 19.5531 6.52346 20.1581 6.15209 20.5331C4.49661 22.2052 3.35076 24.4027 2.92657 26.7164L6.14573 19.182Z" fill="#1B4071" stroke="#1B4071" stroke-width="0.708333"/>
<path d="M233.66 8.95272C233.809 9.24971 233.69 9.61115 233.394 9.76072L233.66 8.95272ZM233.66 8.95272C232.461 6.5735 230.516 4.5546 228.185 3.26703L233.66 8.95272ZM233.553 10.0769L233.553 10.0769C234.024 9.83934 234.214 9.26524 233.977 8.79365L233.976 8.79328C232.745 6.35044 230.75 4.27903 228.356 2.95699C227.894 2.70195 227.313 2.86958 227.058 3.33126C227.018 3.40408 226.989 3.4789 226.97 3.55298C226.862 3.96551 227.042 4.41405 227.432 4.6297L233.553 10.0769ZM233.553 10.0769L233.553 10.0771M233.553 10.0769L233.553 10.0771M233.553 10.0771C233.082 10.314 232.507 10.1249 232.27 9.65361C231.211 7.55245 229.491 5.76747 227.433 4.62975L233.553 10.0771Z" fill="#1B4071" stroke="#1B4071" stroke-width="0.708333"/>
<rect x="-1.43668" y="1.64865" width="212.175" height="212.175" rx="21.6482" transform="matrix(-0.997648 0.0685407 0.0685407 0.997648 222.742 11.8758)" stroke="#E8E8E8" stroke-width="3.0926"/>
<defs>
<clipPath id="clip0_2538_31811">
<rect width="206.517" height="194.519" fill="white" transform="translate(24.1162 25.3154)"/>
</clipPath>
</defs>
</svg>
