<svg width="281" height="251" viewBox="0 0 281 251" fill="none" xmlns="http://www.w3.org/2000/svg">
<path fill-rule="evenodd" clip-rule="evenodd" d="M157.368 18.7607L18.1377 221.779L263.572 240.847L157.368 18.7607ZM157.118 21.9858L21.056 220.383L260.904 239.018L157.118 21.9858Z" fill="#E8E8E8"/>
<path d="M79.2493 143.114L75.6382 135.614L116.749 78.1141L120.916 82.5586L79.2493 143.114Z" fill="white"/>
<path d="M125.083 74.2252L122.583 69.503L137.583 46.7252L142.861 47.8363L125.083 74.2252Z" fill="white"/>
<path d="M168.972 42.0029L166.194 46.7252L181.472 78.1141H186.194L168.972 42.0029Z" fill="white"/>
<path d="M208.138 119.225L199.527 122.281L223.694 170.337L231.194 169.225L208.138 119.225Z" fill="white"/>
<path d="M6.34123 216.489C8.24791 224.008 12.9338 230.941 19.1996 235.516C19.6515 235.847 20.2879 235.749 20.6189 235.295C20.9495 234.842 20.8517 234.208 20.3979 233.876C14.5092 229.577 10.102 223.055 8.30971 215.989L8.30965 215.989C8.17272 215.451 7.6227 215.116 7.07565 215.255C6.5325 215.392 6.20257 215.945 6.34123 216.489ZM6.34123 216.489L6.68453 216.402L6.34142 216.489C6.34135 216.489 6.34129 216.489 6.34123 216.489Z" fill="#EB8950" stroke="#EB8950" stroke-width="0.708333"/>
<path d="M9.53413 238.428L9.53395 238.428C6.00223 234.73 3.18185 230.246 1.37718 225.461C1.17962 224.937 1.4422 224.35 1.96957 224.152C2.49348 223.954 3.08046 224.217 3.27837 224.745L3.30476 224.815L3.30471 224.816C5.01419 229.322 7.67507 233.543 11.0025 237.026L9.53413 238.428ZM9.53413 238.428C9.92082 238.833 10.5638 238.849 10.9694 238.461C11.3738 238.075 11.3904 237.432 11.0026 237.026L9.53413 238.428Z" fill="#EB8950" stroke="#EB8950" stroke-width="0.708333"/>
<path d="M261.982 249.25L261.908 249.284L262.121 249.624C262.418 250.098 263.044 250.246 263.521 249.948L263.521 249.948C268.771 246.672 271.456 239.954 269.91 233.961L269.91 233.96C269.77 233.416 269.216 233.091 268.674 233.23L268.674 233.23L268.672 233.23C268.13 233.371 267.805 233.924 267.944 234.466L267.944 234.466L267.944 234.467C269.251 239.531 266.884 245.456 262.446 248.225L262.446 248.225C262.089 248.448 261.918 248.858 261.982 249.25Z" fill="#EB8950" stroke="#EB8950" stroke-width="0.708333"/>
<path d="M273.199 248.624L273.156 248.589C272.722 248.235 272.657 247.597 273.01 247.162L273.01 247.161C274.254 245.634 274.896 243.627 274.767 241.661L274.767 241.661C274.73 241.101 275.155 240.618 275.715 240.581L275.738 240.935M273.199 248.624L274.587 248.443C276.152 246.52 276.957 244.003 276.794 241.529C276.758 240.969 276.273 240.544 275.714 240.581L275.738 240.935M273.199 248.624L273.206 248.627M273.199 248.624L273.206 248.627M275.738 240.935C275.373 240.958 275.096 241.273 275.12 241.638L275.738 240.935ZM273.206 248.627C273.636 248.936 274.243 248.866 274.587 248.443L273.206 248.627Z" fill="#EB8950" stroke="#EB8950" stroke-width="0.708333"/>
<path d="M146.092 14.026L146.092 14.0259C152.851 11.692 160.391 12.1939 166.783 15.4018L166.784 15.4021C167.284 15.654 167.486 16.2637 167.236 16.7649C166.985 17.2676 166.374 17.4695 165.872 17.2179L165.872 17.2178C160.056 14.2981 152.905 13.8222 146.754 15.9458L146.092 14.026ZM146.092 14.026C145.562 14.2088 145.28 14.7873 145.463 15.3173M146.092 14.026L145.463 15.3173M145.463 15.3173C145.646 15.8465 146.224 16.1289 146.754 15.9458L145.463 15.3173Z" fill="#EB8950" stroke="#EB8950" stroke-width="0.708333"/>
<path d="M151.983 6.37245L151.984 6.37241C156.537 4.80089 161.785 5.57692 165.69 8.39777L165.691 8.39802C166.142 8.7247 166.248 9.35947 165.919 9.81559C165.59 10.272 164.956 10.3723 164.501 10.0447L164.501 10.0444C161.127 7.60647 156.581 6.93511 152.646 8.29231L151.983 6.37245ZM151.983 6.37245C151.454 6.55529 151.172 7.13353 151.355 7.66366M151.983 6.37245L151.355 7.66366M151.355 7.66366C151.538 8.19279 152.116 8.4754 152.646 8.29237L151.355 7.66366ZM165.632 9.60853C165.418 9.90535 165.005 9.97128 164.708 9.75735L165.483 8.68488C165.777 8.89765 165.846 9.31171 165.632 9.60853ZM152.099 6.70719L152.099 6.70719L152.099 6.70719Z" fill="#EB8950" stroke="#EB8950" stroke-width="0.708333"/>
<path d="M80.3627 134.43C79.9966 130.908 80.0435 126.433 80.1761 122.898C80.1884 122.571 80.4635 122.304 80.7908 122.328C81.118 122.34 81.3732 122.615 81.3614 122.942C81.2316 126.409 81.1824 130.843 81.5427 134.308C81.5764 134.633 81.3401 134.925 81.0143 134.959C80.6724 134.991 80.3958 134.745 80.3627 134.431V134.43Z" fill="black"/>
<path d="M147.057 167.293C147.057 167.621 146.792 167.886 146.464 167.89C112.508 168.074 119.705 168.035 118.677 168.04C118.641 167.996 118.61 167.949 118.574 167.905L117.945 167.079C117.811 166.905 117.566 166.869 117.392 167.004C117.344 167.036 117.309 167.079 117.285 167.126C117.21 167.261 117.218 167.431 117.317 167.557L117.673 168.024L117.688 168.048C112.843 168.074 83.8128 168.231 79.7915 168.253H79.7877C79.4633 168.253 79.1986 167.988 79.1948 167.664C79.1948 167.336 79.4595 167.067 79.7839 167.067L96.8009 166.976C97.5217 166.972 91.7885 167.003 146.46 166.703H146.464C146.788 166.703 147.053 166.968 147.056 167.292L147.057 167.293Z" fill="black"/>
<path d="M130.096 218.171C127.984 215.904 126.639 212.933 126.33 209.849C126.464 211.191 117.096 207.899 116.61 207.803C117.41 212.399 126.449 216.465 130.096 218.171Z" fill="#CCCCCC"/>
<path d="M157.508 209.311C156.5 207.831 155.493 206.351 154.485 204.871C155.016 205.651 148.681 207.955 149.173 209.344C149.876 211.328 156.128 209.733 157.508 209.311Z" fill="#CCCCCC"/>
<path d="M96.929 103.91C96.6022 103.886 96.3565 103.603 96.3797 103.276C96.6747 99.15 97.0535 94.4613 97.8296 90.7216C97.1345 90.2666 96.4654 89.7111 96.0662 88.7981C95.702 87.9651 95.7437 86.7087 96.1614 85.9383C96.4725 85.3648 96.9034 85.1834 97.2098 85.1323C97.8552 85.0224 98.4339 85.3013 98.8994 85.5244L99.0031 85.5741C103.913 87.8817 108.625 83.257 110.423 81.1615C110.557 81.0057 110.762 80.9285 110.966 80.9617C111.169 80.9939 111.342 81.1288 111.421 81.3187C111.629 81.8164 111.886 82.2943 112.134 82.756C112.657 83.7268 113.197 84.7302 113.322 85.9785C113.586 88.6503 113.251 91.3941 112.357 93.9143C111.522 96.2722 110.312 97.8861 108.76 98.7096C107.71 99.2665 106.403 99.3849 105.264 99.0254C104.29 98.7186 103.515 98.0835 103.083 97.2378C102.933 96.946 103.049 96.5885 103.341 96.4398C103.632 96.2911 103.989 96.4062 104.139 96.6979C104.506 97.4163 105.147 97.7449 105.62 97.8941C106.463 98.1607 107.428 98.0731 108.203 97.6616C109.485 96.9816 110.506 95.5879 111.239 93.5175C112.076 91.1597 112.388 88.5935 112.142 86.0955C112.041 85.084 111.579 84.2264 111.09 83.3181C110.966 83.0879 110.841 82.8545 110.718 82.6134C106.7 86.9559 102.282 88.4263 98.4964 86.6458L98.3865 86.5932C98.0238 86.4184 97.6819 86.2541 97.4068 86.301C97.3177 86.3162 97.2415 86.4336 97.2046 86.5027C96.9635 86.9469 96.9389 87.8311 97.1534 88.3217C97.4537 89.0088 97.966 89.4184 98.8065 89.9346C99.0215 90.0667 99.1295 90.3205 99.0755 90.5673C98.2577 94.2922 97.8661 99.1235 97.5635 103.359C97.5398 103.691 97.2486 103.934 96.9299 103.908L96.929 103.91Z" fill="black"/>
<path d="M101.643 96.09C101.555 96.09 101.465 96.0701 101.38 96.0284C100.011 95.3503 99.4299 94.5339 99.3741 93.2098C99.3603 92.8826 99.6141 92.606 99.9414 92.5918C100.271 92.5724 100.545 92.8324 100.559 93.1596C100.592 93.9476 100.802 94.4188 101.907 94.9653C102.2 95.1107 102.32 95.4663 102.175 95.7599C102.071 95.9692 101.862 96.09 101.643 96.09Z" fill="black"/>
<path d="M109.731 93.2632C109.537 93.2632 109.346 93.2135 109.174 93.1136C108.89 92.9498 108.793 92.587 108.956 92.3034C109.116 92.0273 109.462 91.9283 109.742 92.0723C109.804 92.0457 109.926 91.9236 109.943 91.7862C109.984 91.4576 109.802 91.0787 109.61 90.6781L109.586 90.6265C109.314 90.0568 109.064 89.3829 109.268 88.6972C109.361 88.3828 109.691 88.2033 110.005 88.2976C110.319 88.3908 110.498 88.7209 110.405 89.0349C110.316 89.3351 110.473 89.732 110.656 90.116L110.68 90.1667C110.913 90.6535 111.203 91.2596 111.12 91.933C111.057 92.4369 110.726 92.9071 110.276 93.1316C110.099 93.2202 109.913 93.2642 109.731 93.2642L109.731 93.2632Z" fill="black"/>
<path d="M108.815 95.4211C108.419 95.4211 108.023 95.2923 107.703 95.048C107.443 94.8491 107.393 94.4769 107.592 94.2169C107.792 93.9569 108.164 93.9077 108.424 94.1061C108.587 94.2306 108.816 94.2704 109.006 94.2046C109.316 94.0995 109.654 94.2633 109.76 94.573C109.866 94.8827 109.701 95.2204 109.392 95.3269C109.206 95.3908 109.011 95.4221 108.815 95.4221V95.4211Z" fill="black"/>
<path d="M97.8695 85.7136C97.4509 85.6161 97.0328 85.681 96.5986 86.145C96.1534 86.6214 96.0104 87.3607 96.1795 88.0037C96.3485 88.6468 96.8022 89.1876 97.359 89.5144C97.7606 89.7502 98.2498 89.9174 98.4577 90.3469C98.6428 90.73 98.5348 91.1893 98.4231 91.6018C98.1783 92.5044 97.9784 93.8356 97.7336 94.7386C97.844 93.6083 97.7426 91.9357 97.2492 90.9213C96.8969 90.1972 96.2529 89.6934 95.8115 89.0498C95.2935 88.2945 95.1718 87.328 95.142 86.4202C95.0529 83.6953 95.7538 81.0198 96.4484 78.3934C96.7335 77.3156 97.1038 76.1232 98.0499 75.6009C98.7664 75.2054 99.6287 75.3049 100.432 75.1936C101.081 75.1036 101.667 74.7987 102.033 74.2266C102.446 73.5807 102.713 73.0759 103.605 73.0209C104.079 72.9921 104.542 73.1568 104.925 73.4443C105.634 73.9747 106.594 73.9197 107.18 73.2473C107.821 72.51 108.615 71.9313 109.521 71.6268C111.208 71.0599 113.268 71.6069 114.272 73.1355C114.943 74.1575 114.988 75.5796 114.476 76.6683C114.144 77.3762 114.274 78.2291 114.826 78.7689C115.548 79.4731 115.979 80.5168 115.868 81.5459C115.758 82.555 115.137 83.4538 114.307 83.9733C113.515 84.4696 112.488 84.1978 111.99 83.3823C111.984 83.3724 111.978 83.362 111.972 83.352C111.38 82.3822 110.085 82.2316 109.31 83.0447C107.817 84.6098 106.155 85.9869 104.12 86.4472C102.709 86.7663 101.243 86.6082 99.8072 86.4486C99.1253 86.3728 98.497 85.8609 97.869 85.7146L97.8695 85.7136Z" fill="black"/>
<path d="M97.7327 95.3331C97.6972 95.3331 97.6612 95.3298 97.6252 95.3236C97.3221 95.2682 97.1119 94.9893 97.1422 94.6824C97.2482 93.598 97.1355 92.048 96.7146 91.1824C96.5394 90.8225 96.2604 90.508 95.9645 90.1761C95.7457 89.9298 95.5194 89.6755 95.3209 89.3866C94.6916 88.4679 94.577 87.33 94.5481 86.4406C94.4553 83.6045 95.1765 80.8788 95.874 78.2434C96.1913 77.0434 96.6255 75.7104 97.7625 75.0829C98.3824 74.741 99.0638 74.7008 99.6656 74.6652C99.9057 74.651 100.133 74.6378 100.349 74.6079C100.717 74.5568 101.221 74.3939 101.532 73.9085L101.603 73.7967C101.989 73.1892 102.426 72.5006 103.567 72.431C104.156 72.3936 104.765 72.5863 105.279 72.9713C105.754 73.3279 106.365 73.2801 106.731 72.8596C107.471 72.0091 108.37 71.3887 109.331 71.0662C111.366 70.3815 113.652 71.1155 114.766 72.8113C115.526 73.9667 115.625 75.619 115.012 76.9217C114.784 77.4066 114.878 77.992 115.24 78.3452C116.129 79.2128 116.584 80.4336 116.457 81.6099C116.332 82.7635 115.646 83.8352 114.622 84.4768C114.116 84.7941 113.517 84.8931 112.935 84.7562C112.331 84.6132 111.815 84.2358 111.484 83.6921C111.482 83.6898 111.462 83.6576 111.461 83.6552C111.277 83.3531 110.973 83.1556 110.632 83.1187C110.302 83.085 109.976 83.2058 109.738 83.4549C108.419 84.8381 106.603 86.4946 104.25 87.0264C102.729 87.3702 101.142 87.1941 99.7414 87.0392C99.2575 86.9857 98.8256 86.7736 98.4439 86.5865C98.1877 86.461 97.9453 86.3422 97.7341 86.2929C97.495 86.2365 97.3032 86.2616 97.0309 86.5519C96.7411 86.8621 96.6289 87.3854 96.752 87.8547C96.8742 88.3188 97.2042 88.7383 97.6583 89.0049C97.7379 89.0514 97.8212 89.0949 97.9046 89.139C98.2777 89.3345 98.7427 89.5789 98.9899 90.0903C99.2821 90.6941 99.1017 91.3609 98.9937 91.7587C98.8767 92.1901 98.7659 92.7475 98.6584 93.2864C98.5472 93.8456 98.4321 94.4243 98.3042 94.8955C98.2332 95.1578 97.9955 95.3335 97.7322 95.3335L97.7327 95.3331ZM97.5859 90.3148C97.656 90.4251 97.7213 90.5407 97.781 90.6633C97.8397 90.7841 97.8937 90.9124 97.9429 91.0469C97.9723 90.8722 97.9756 90.7159 97.923 90.6065C97.8705 90.4976 97.7426 90.4048 97.5864 90.3148H97.5859ZM103.71 73.6116C103.686 73.6116 103.663 73.6125 103.64 73.6139C103.128 73.6452 102.983 73.8351 102.605 74.4318L102.531 74.5473C102.099 75.2231 101.382 75.6616 100.512 75.7824C100.249 75.8188 99.9877 75.8344 99.7353 75.8496C99.2134 75.8804 98.72 75.9093 98.3355 76.1219C97.6077 76.523 97.2871 77.5402 97.0205 78.547C96.3447 81.0999 95.6463 83.74 95.7334 86.4023C95.7334 86.4037 95.7334 86.4056 95.7334 86.407C95.8399 86.1603 95.9848 85.9339 96.1643 85.7422C96.6904 85.1791 97.3089 84.9764 98.0035 85.1379C98.3464 85.2179 98.6613 85.3723 98.9658 85.5215C99.2887 85.6797 99.5941 85.8293 99.8721 85.8601C101.244 86.0126 102.662 86.1707 103.988 85.8695C106.031 85.4074 107.676 83.8986 108.88 82.6361C109.374 82.118 110.058 81.8614 110.759 81.939C111.469 82.0153 112.096 82.4173 112.477 83.0434C112.661 83.3446 112.914 83.5316 113.207 83.6012C113.477 83.6642 113.756 83.6187 113.992 83.471C114.699 83.0277 115.192 82.2653 115.277 81.4821C115.364 80.6765 115.032 79.8 114.411 79.1934C113.681 78.4816 113.492 77.3659 113.938 76.416C114.382 75.4727 114.316 74.2854 113.775 73.4619C112.965 72.2293 111.218 71.6818 109.709 72.1895C108.948 72.4452 108.227 72.9458 107.625 73.6372C106.853 74.5251 105.539 74.6463 104.568 73.9203C104.301 73.72 103.999 73.6121 103.71 73.6121L103.71 73.6116Z" fill="black"/>
<path d="M107.882 102.624C107.559 102.624 107.295 102.365 107.289 102.041C107.277 101.314 107.258 100.908 107.239 100.502C107.219 100.086 107.199 99.6705 107.187 98.9266C107.181 98.5993 107.442 98.3289 107.77 98.3232H107.78C108.103 98.3232 108.367 98.5823 108.373 98.9062C108.385 99.6331 108.404 100.039 108.423 100.445C108.443 100.861 108.463 101.276 108.476 102.021C108.481 102.348 108.22 102.618 107.893 102.624H107.882Z" fill="black"/>
<path d="M84.0474 111.772C83.7339 110.06 84.3377 108.245 85.6233 107.038C85.8625 106.814 86.238 106.827 86.462 107.065C86.6859 107.303 86.6741 107.679 86.4354 107.903C85.4552 108.823 84.976 110.258 85.2142 111.558C85.2729 111.881 85.0598 112.19 84.7378 112.249C84.4163 112.307 84.1066 112.095 84.0474 111.772Z" fill="black"/>
<path d="M95.0853 121.388C94.8902 120.29 94.4674 119.109 93.4474 118.545C92.4094 117.972 90.9949 118.264 90.1549 119.066C89.3144 119.869 89.0042 121.074 89.1292 122.2C89.2732 123.497 89.705 124.249 92.1953 129.56C93.2693 131.85 94.5034 129.142 94.6786 127.975C95.0134 125.74 95.4912 123.669 95.0858 121.388H95.0853Z" fill="#CCCCCC"/>
<path d="M91.4894 127.139H91.4837C91.156 127.136 90.8932 126.868 90.896 126.541C90.8993 126.209 90.9027 125.796 91.058 125.396C91.2606 124.874 91.6977 124.493 92.1982 124.403C92.2873 124.387 92.3801 124.381 92.4729 124.376C92.5184 124.374 92.5804 124.371 92.6008 124.365C92.6562 124.337 92.7698 124.131 92.8314 124.021C93.0208 123.68 93.3286 123.115 94.0356 123.139C94.3628 123.154 94.6166 123.431 94.6024 123.758C94.5887 124.068 94.3396 124.312 94.0351 124.325C93.8357 124.565 93.6345 125.284 92.9554 125.497C92.7063 125.575 92.5226 125.55 92.4099 125.571C92.3166 125.588 92.2158 125.692 92.1642 125.825C92.0874 126.023 92.0851 126.28 92.0827 126.551C92.0794 126.877 91.8147 127.139 91.4898 127.139H91.4894Z" fill="black"/>
<path d="M91.7635 140.994L91.1465 136.159C91.1048 135.834 91.3345 135.538 91.6598 135.496C91.9832 135.455 92.2816 135.684 92.3232 136.009L92.9402 140.843C92.9819 141.169 92.7522 141.466 92.4269 141.507C92.0921 141.548 91.8042 141.311 91.7635 140.994Z" fill="black"/>
<path d="M90.8103 134.025L90.6271 132.332C90.5916 132.007 90.8274 131.714 91.1532 131.679C91.4761 131.642 91.7711 131.878 91.8067 132.205L91.9899 133.897C92.0254 134.223 91.7901 134.515 91.4643 134.55C91.1366 134.585 90.8458 134.349 90.8108 134.025L90.8103 134.025Z" fill="black"/>
<path d="M104.16 125.676C103.954 125.421 103.993 125.048 104.248 124.842C104.478 124.656 104.293 124.065 104.066 123.615C103.597 122.688 103.336 121.616 104.102 120.92C103.139 120.431 102.801 119.207 103.055 118.255C103.313 117.29 104.026 116.555 104.598 115.964C104.827 115.729 105.202 115.724 105.437 115.952C105.672 116.18 105.678 116.555 105.45 116.79C104.948 117.308 104.379 117.894 104.201 118.561C104.066 119.068 104.254 119.744 104.74 119.905C104.844 119.937 105.207 120.016 105.415 120.335C105.835 120.978 105.232 121.505 105.006 121.704C104.967 121.738 104.928 121.771 104.894 121.803C104.714 121.977 104.796 122.43 105.125 123.08C105.929 124.672 105.388 125.445 104.994 125.764C104.739 125.971 104.365 125.93 104.16 125.677V125.676Z" fill="black"/>
<path d="M127.524 123.05C127.341 123.24 127.13 123.431 126.861 123.475C126.488 123.537 126.118 123.284 125.942 122.966C125.765 122.648 125.738 122.278 125.715 121.921C125.523 118.985 125.33 116.049 125.138 113.113C126.036 114.521 126.934 115.929 127.832 117.337C128.63 116.16 129.109 114.795 129.22 113.398C129.014 114.952 129.752 116.42 129.68 117.987C129.594 119.842 128.849 121.676 127.524 123.05V123.05Z" fill="#CCCCCC"/>
<path d="M98.953 163.813C98.9085 163.813 98.8659 163.811 98.8266 163.808C98.2389 163.763 97.4339 163.322 97.0802 163.021C93.8445 160.265 90.7428 157.49 88.3652 153.849C87.7487 152.905 87.7226 152.859 87.4437 152.195C87.367 152.013 87.268 151.778 87.1255 151.451C86.9943 151.151 87.1312 150.801 87.4314 150.67C87.7311 150.538 88.0811 150.676 88.2123 150.976C88.3581 151.31 88.459 151.55 88.5371 151.735C88.7006 152.125 88.9743 152.613 89.3582 153.201C91.6492 156.708 94.6817 159.42 97.8492 162.118C98.1059 162.336 98.6774 162.606 98.9218 162.625C99.0728 162.64 99.3281 162.571 99.4682 162.495C98.9322 161.987 97.0788 160.306 96.8439 160.059C96.6175 159.822 96.6265 159.447 96.8633 159.221C97.1001 158.995 97.4751 159.003 97.7019 159.24C97.8307 159.375 98.4705 159.962 99.0349 160.48C99.8617 161.238 100.375 161.709 100.528 161.873C100.583 161.932 100.626 162.002 100.654 162.079C100.791 162.46 100.734 162.841 100.495 163.152C100.133 163.623 99.4199 163.813 98.953 163.813Z" fill="black"/>
<path d="M99.6926 162.714C99.452 162.492 99.4368 162.117 99.6589 161.877C99.881 161.636 100.256 161.621 100.497 161.843C100.978 162.285 101.65 162.287 101.859 162.19C101.84 161.909 101.523 161.618 101.324 161.463C101.155 161.33 100.916 161.076 100.54 160.671C100.164 160.267 99.6509 159.714 99.4065 159.547C99.1357 159.363 99.0661 158.994 99.2507 158.723C99.435 158.453 99.8043 158.382 100.075 158.568C100.665 158.969 101.76 160.297 102.056 160.53C102.967 161.243 103.091 161.942 103.034 162.404C102.984 162.814 102.697 163.144 102.246 163.31C101.535 163.572 100.445 163.409 99.6935 162.715L99.6926 162.714Z" fill="black"/>
<path d="M101.891 161.984C101.656 161.757 101.649 161.381 101.877 161.146C102.105 160.911 102.48 160.904 102.716 161.132C103.22 161.619 103.748 161.63 104.026 161.435C104.254 161.274 104.297 160.987 104.143 160.648C104.008 160.35 104.14 159.999 104.438 159.863C104.736 159.729 105.089 159.86 105.224 160.158C105.617 161.025 105.416 161.907 104.71 162.404C104.001 162.905 102.838 162.899 101.892 161.985L101.891 161.984Z" fill="black"/>
<path d="M106.056 161.336C104.854 161.336 103.574 159.994 101.562 158.569C101.295 158.38 101.232 158.01 101.421 157.743C101.61 157.476 101.98 157.413 102.248 157.602C104.133 158.936 105.634 160.399 106.231 160.107C106.252 160.097 106.271 160.087 106.29 160.025C106.386 159.707 106.172 158.958 105.814 158.356C104.631 156.367 103.045 155.188 101.095 153.854C100.824 153.669 100.755 153.3 100.94 153.03C101.125 152.759 101.494 152.69 101.764 152.875C103.765 154.244 105.528 155.556 106.833 157.75C107.507 158.881 107.936 160.602 106.745 161.175C106.516 161.286 106.288 161.336 106.056 161.336L106.056 161.336Z" fill="black"/>
<path d="M104.262 155.99C104.238 155.663 104.484 155.379 104.81 155.355C105.113 155.334 105.414 155.071 105.511 154.745C105.643 154.297 105.45 153.823 105.324 153.58C104.682 152.348 103.627 151.661 102.005 151.416C99.788 151.081 96.7157 150.304 95.6346 147.422C95.5196 147.115 95.6749 146.774 95.9817 146.658C96.2876 146.542 96.6305 146.699 96.7451 147.005C97.4009 148.753 99.1284 149.783 102.181 150.243C104.183 150.545 105.555 151.457 106.375 153.032C106.737 153.725 106.833 154.453 106.648 155.081C106.411 155.881 105.691 156.48 104.896 156.538C104.575 156.564 104.286 156.32 104.262 155.99H104.262Z" fill="black"/>
<path d="M101.89 161.983C101.654 161.756 101.648 161.38 101.876 161.145C102.103 160.91 102.479 160.903 102.714 161.131C103.219 161.618 103.747 161.629 104.025 161.434C104.253 161.273 104.296 160.986 104.142 160.647C104.007 160.349 104.139 159.998 104.437 159.862C104.735 159.728 105.087 159.859 105.222 160.157C105.616 161.024 105.414 161.906 104.709 162.403C103.999 162.904 102.836 162.898 101.891 161.984L101.89 161.983Z" fill="black"/>
<path d="M137.775 126.55C137.713 126.55 137.65 126.54 137.588 126.519C137.277 126.416 137.108 126.081 137.212 125.77C137.41 125.171 137.622 124.566 137.836 123.956C138.64 121.665 139.472 119.296 139.642 116.992C139.653 116.826 139.552 116.486 139.396 116.153L139.218 116.038C139.107 115.966 139.027 115.915 138.967 115.871C138.233 115.547 137.954 115.516 137.597 115.364C135.18 114.326 132.667 113.44 130.229 112.49C129.976 112.391 129.875 112.376 129.835 112.381C129.834 112.381 129.834 112.382 129.833 112.382C129.824 112.391 129.779 112.45 129.729 112.719C129.437 114.354 128.794 115.887 128.543 117.337C128.501 117.576 128.317 117.767 128.08 117.816C127.84 117.863 127.597 117.765 127.463 117.562C127.417 117.491 127.369 117.423 127.322 117.354C124.899 113.766 122.472 110.183 120.049 106.608C119.492 105.784 118.833 104.845 118.046 104.117C117.914 103.99 117.773 103.869 117.622 103.75C116.996 103.262 116.363 102.958 115.69 102.823C114.81 102.646 113.94 102.669 113.019 102.69C112.694 102.698 112.368 102.711 112.031 102.706C111.754 102.709 110.544 102.693 110.244 102.687C109.917 102.68 109.657 102.409 109.664 102.081C109.671 101.754 109.945 101.499 110.269 101.5C110.594 101.507 111.77 101.527 112.026 101.52C112.355 101.525 112.674 101.513 112.989 101.504C113.935 101.481 114.912 101.457 115.923 101.659C116.781 101.832 117.576 102.211 118.354 102.816C118.536 102.961 118.704 103.106 118.857 103.252C119.73 104.06 120.437 105.065 121.03 105.943C123.249 109.216 125.471 112.496 127.687 115.777C127.992 114.664 128.358 113.647 128.562 112.507C128.61 112.245 128.735 111.559 129.367 111.291C129.787 111.091 130.272 111.233 130.66 111.385C133.088 112.33 135.624 113.226 138.064 114.273C138.181 114.323 138.275 114.352 138.386 114.386C138.613 114.456 138.923 114.551 139.53 114.823C139.592 114.851 139.648 114.889 139.696 114.935C140.181 115.256 140.28 115.275 140.381 115.469C140.527 115.752 140.865 116.475 140.824 117.074C140.643 119.539 139.785 121.984 138.955 124.348C138.743 124.952 138.533 125.55 138.337 126.142C138.254 126.391 138.023 126.549 137.774 126.549L137.775 126.55ZM139.811 115.086C139.811 115.086 139.811 115.087 139.812 115.087C139.812 115.087 139.812 115.086 139.811 115.086ZM129.825 112.383C129.825 112.383 129.824 112.383 129.824 112.383C129.824 112.383 129.825 112.383 129.825 112.383Z" fill="black"/>
<path d="M139.142 115.947C138.821 115.886 138.61 115.575 138.671 115.253C138.923 113.932 139.584 112.515 140.144 111.282C140.835 109.759 141.636 108.572 142.593 107.65C143.908 106.385 145.54 105.723 147.054 104.93C147.323 104.789 147.602 104.643 147.78 104.453C148.013 104.205 147.911 103.987 147.856 103.906C147.812 103.838 147.638 103.63 147.3 103.755C146.905 103.9 146.798 103.984 143.267 105.735C143.072 105.833 142.877 105.931 142.681 106.027C142.387 106.171 142.031 106.051 141.887 105.757C141.742 105.464 141.863 105.108 142.157 104.963C142.351 104.868 142.543 104.771 142.736 104.675C146.219 102.95 146.406 102.818 146.889 102.643C147.629 102.366 148.417 102.608 148.843 103.248C149.264 103.879 149.184 104.689 148.645 105.264C148.329 105.601 147.944 105.803 147.604 105.981C147.291 106.145 146.975 106.303 146.659 106.46C145.465 107.055 144.338 107.617 143.415 108.505C142.569 109.319 141.852 110.388 141.224 111.771C140.713 112.896 140.063 114.283 139.836 115.475C139.782 115.76 139.472 116.008 139.142 115.947Z" fill="black"/>
<path d="M140.844 104.061C140.676 103.78 140.767 103.416 141.048 103.248C142.224 102.543 143.416 101.892 144.607 101.18C145.663 100.546 147.252 99.9758 148.294 100.645C148.642 100.867 148.846 101.223 148.868 101.647C148.902 102.305 148.479 103.053 148.049 103.397C147.794 103.602 147.42 103.561 147.216 103.304C147.011 103.048 147.053 102.675 147.309 102.471C147.466 102.345 147.696 101.954 147.683 101.709C147.681 101.66 147.673 101.656 147.654 101.643C147.081 101.276 145.802 101.846 145.216 102.197C144.02 102.913 142.846 103.554 141.658 104.266C141.562 104.323 141.013 104.344 140.844 104.062V104.061Z" fill="black"/>
<path d="M140.134 102.129C139.989 101.835 140.11 101.48 140.405 101.336L144.68 99.233C145.409 98.8745 146.02 98.6756 146.495 98.642C147.145 98.6013 147.789 99.0966 147.998 99.8041C148.187 100.447 147.945 101.063 147.38 101.374C147.093 101.533 146.733 101.428 146.574 101.141C146.416 100.854 146.52 100.494 146.807 100.335C146.854 100.309 146.902 100.283 146.86 100.14C146.804 99.9504 146.643 99.8249 146.578 99.8249C145.785 99.8818 144.564 100.661 140.928 102.4C140.64 102.542 140.28 102.428 140.134 102.129H140.134Z" fill="black"/>
<path d="M140.176 99.6995C140.005 99.4197 140.094 99.0545 140.373 98.8845C140.802 98.6231 143.546 97.2967 144.39 97.2735C145.743 97.2205 147.069 98.2164 146.503 99.4656C146.367 99.7635 146.016 99.8956 145.717 99.7611C145.419 99.6261 145.287 99.2743 145.422 98.9759C145.465 98.8817 145.446 98.8533 145.426 98.823C145.305 98.6411 144.854 98.4645 144.423 98.4588C143.954 98.4806 141.534 99.566 140.991 99.8965C140.713 100.067 140.347 99.9794 140.176 99.6991L140.176 99.6995Z" fill="black"/>
<path d="M130.377 112.116C130.102 111.939 130.023 111.572 130.2 111.296C130.587 110.698 130.391 109.697 130.644 108.777C130.73 108.461 131.057 108.275 131.372 108.362C131.688 108.449 131.874 108.775 131.787 109.091C131.573 109.872 131.804 110.999 131.197 111.94C131.083 112.115 130.652 112.294 130.377 112.116Z" fill="black"/>
<path d="M136.201 108.281C135.916 108.118 135.818 107.756 135.98 107.472C136.428 106.689 136.351 105.701 136.371 104.711C136.441 101.423 138.283 101.152 139.324 100.541C139.694 100.325 139.939 100.049 139.92 99.8709C139.905 99.7203 139.683 99.4977 139.348 99.394C138.042 98.9863 134.997 100.205 133.826 102.343C133.005 103.847 132.745 105.57 132.37 107.531C132.306 107.852 131.995 108.062 131.673 107.996C131.352 107.932 131.143 107.62 131.207 107.299C131.59 105.298 131.881 103.43 132.786 101.775C134.214 99.1644 137.818 97.6717 139.7 98.2622C141.308 98.7604 141.736 100.505 139.923 101.566C139.402 101.871 138.84 102.06 138.456 102.351C136.87 103.547 138.136 106.092 137.01 108.061C136.847 108.346 136.484 108.445 136.2 108.282L136.201 108.281Z" fill="black"/>
<path d="M85.6408 152.14C85.4026 152.14 85.1795 151.995 85.0886 151.763C83.2324 147.02 81.8302 143.031 80.885 138.078C80.8239 137.757 81.0351 137.446 81.3567 137.385C81.6787 137.323 81.9888 137.534 82.0504 137.857C82.9336 142.503 84.2699 146.387 85.9912 150.812C87.4634 150.329 88.7775 149.771 89.9945 149.113C90.396 148.897 90.79 148.67 91.1845 148.443C91.9994 147.974 92.8423 147.489 93.7477 147.1C94.8691 146.61 95.9539 146.516 97.1932 146.428C94.9557 142.334 94.038 137.689 93.9916 133.025C93.9641 130.204 92.9086 127.878 92.6046 124.932C92.571 124.606 92.8077 124.315 93.1335 124.281C93.457 124.25 93.7506 124.484 93.7842 124.81C94.0901 127.777 95.147 129.927 95.1773 133.013C95.1972 135.045 95.3895 137.004 95.7479 138.836C95.7887 139.038 95.8261 139.226 95.8673 139.414C96.4526 142.085 97.4006 144.518 98.6848 146.645C98.7909 146.821 98.7985 147.039 98.7047 147.222C98.6109 147.404 98.4296 147.526 98.2245 147.543C97.9579 147.564 97.7008 147.582 97.4512 147.6C96.1983 147.687 95.2086 147.757 94.2184 148.189C93.3736 148.552 92.5975 148.998 91.7759 149.471C91.372 149.704 90.9681 149.937 90.557 150.158C89.1288 150.929 87.5775 151.569 85.8155 152.114C85.7573 152.132 85.6985 152.14 85.6403 152.14H85.6408Z" fill="black"/>
<path d="M80.5182 120.261C80.3108 118.627 80.9562 108.783 83.403 105.828C83.7771 105.375 84.2194 104.858 84.7388 104.427C86.0524 103.347 87.7136 102.623 90.1258 102.077C90.1381 102.075 90.1504 102.072 90.1627 102.07C91.93 101.677 93.6726 101.463 95.3636 101.118C95.6847 101.053 95.9977 101.261 96.063 101.582C96.1284 101.903 95.9209 102.216 95.6004 102.281C93.9013 102.627 92.0853 102.855 90.39 103.236C90.3787 103.238 90.3673 103.24 90.3559 103.242C88.1507 103.744 86.65 104.393 85.4937 105.343C85.0983 105.67 84.7502 106.061 84.3165 106.584C82.1595 109.19 81.5117 118.669 81.695 120.112C81.7361 120.437 81.506 120.734 81.1812 120.775C80.8497 120.816 80.5585 120.582 80.5182 120.261V120.261Z" fill="black"/>
<path d="M127.183 124.168C126.909 123.988 126.833 123.62 127.013 123.347C127.533 122.555 126.928 121.13 127.572 119.911C127.954 119.19 128.382 119.195 127.504 118.014C127.308 117.752 127.363 117.38 127.626 117.185C127.888 116.989 128.26 117.044 128.456 117.306C128.789 117.755 129.41 118.589 129.143 119.508C129.061 119.791 128.912 120.014 128.78 120.211C128.724 120.295 128.667 120.378 128.621 120.466C128.421 120.843 128.427 121.342 128.432 121.871C128.439 122.551 128.448 123.322 128.004 123.999C127.824 124.272 127.456 124.349 127.183 124.169L127.183 124.168Z" fill="black"/>
<path d="M122.773 118.057C122.677 117.059 122.158 116.104 121.352 115.439C121.099 115.231 121.063 114.857 121.271 114.604C121.479 114.35 121.853 114.315 122.106 114.524C123.154 115.387 123.827 116.633 123.954 117.943C123.985 118.269 123.747 118.559 123.421 118.59C123.101 118.622 122.805 118.388 122.773 118.057V118.057Z" fill="black"/>
<path d="M120.439 118.996L120.208 117.983C120.135 117.664 120.335 117.346 120.654 117.274C120.972 117.198 121.291 117.4 121.364 117.72L121.595 118.732C121.668 119.051 121.468 119.37 121.149 119.442C120.838 119.515 120.513 119.321 120.439 118.996Z" fill="black"/>
<path d="M94.2989 103.489C94.118 103.216 94.1928 102.848 94.4656 102.667C94.7383 102.486 95.1067 102.56 95.2876 102.833C96.7921 105.103 99.7095 106.554 102.541 106.446C105.23 106.342 108.281 104.351 109.637 101.814C109.791 101.525 110.15 101.416 110.439 101.57C110.728 101.725 110.837 102.084 110.683 102.373C109.119 105.3 105.714 107.511 102.587 107.631C99.3279 107.758 96.0633 106.151 94.2989 103.489V103.489Z" fill="black"/>
<path d="M99.0839 150.374C98.7685 150.286 98.5838 149.959 98.6719 149.644C100.738 142.24 103.442 133.651 105.508 126.26C105.577 126.014 105.796 125.84 106.051 125.827C117.679 125.258 127.797 125.357 140.607 125.479L141.689 125.49C141.87 125.491 142.039 125.575 142.151 125.718C142.262 125.86 142.302 126.046 142.26 126.221C141.62 128.881 140.847 131.704 139.754 135.374C139.661 135.688 139.331 135.868 139.016 135.773C138.702 135.68 138.524 135.349 138.617 135.036C139.605 131.718 140.329 129.1 140.929 126.669C128.824 126.552 118.267 126.432 106.535 126.992C104.48 134.302 101.839 142.707 99.814 149.963C99.7406 150.225 99.3921 150.462 99.0834 150.374H99.0839Z" fill="black"/>
<path d="M100.911 151.07C100.584 151.058 100.328 150.783 100.34 150.456C100.352 150.128 100.628 149.875 100.954 149.885C103.258 149.968 105.374 150.028 107.423 150.068H107.483C116.83 150.25 124.269 149.938 134.274 149.655C135.431 145.443 136.729 141.29 137.903 137.404C137.998 137.09 138.328 136.911 138.642 137.008C138.956 137.102 139.133 137.433 139.039 137.747C138.787 138.578 138.533 139.412 138.279 140.248C137.275 143.544 136.238 146.952 135.302 150.391C135.233 150.644 135.007 150.821 134.746 150.828C121.278 151.202 114.332 151.558 100.911 151.069L100.911 151.07Z" fill="black"/>
<path d="M117.673 168.022C117.669 168.03 117.669 168.038 117.669 168.046C116.997 173.214 116.752 180.627 116.515 187.815C116.257 195.557 115.993 203.559 115.202 208.664C115.158 208.956 115.336 209.237 115.621 209.324C119.753 210.538 124.248 211.297 128.601 212.032C129.337 212.159 130.068 212.281 130.792 212.404C130.827 212.412 130.859 212.412 130.894 212.412C131.025 212.412 131.152 212.373 131.258 212.289C131.388 212.187 131.472 212.032 131.484 211.867L133.101 191.626C126.635 179.997 123.35 175.476 117.673 168.021L117.673 168.022ZM120.017 202.152L119.199 204.916C119.152 205.086 118.994 205.2 118.824 205.2C118.784 205.2 118.748 205.192 118.709 205.18C118.499 205.121 118.381 204.9 118.444 204.69L119.263 201.93C119.322 201.721 119.543 201.598 119.753 201.661C119.962 201.725 120.081 201.946 120.017 202.152V202.152ZM120.507 200.448L120.006 200.586C119.97 200.598 119.934 200.602 119.899 200.602C119.725 200.602 119.567 200.487 119.519 200.309C119.46 200.099 119.583 199.882 119.792 199.823L120.298 199.684C120.508 199.629 120.725 199.752 120.784 199.961C120.84 200.174 120.717 200.392 120.508 200.447L120.507 200.448ZM121.958 184.889C121.326 185.723 121.409 186.937 121.591 187.807C121.84 189.001 121.623 189.729 120.946 189.978C120.899 189.993 120.856 190.002 120.808 190.002C120.646 190.002 120.496 189.903 120.436 189.744C120.361 189.539 120.468 189.31 120.674 189.234C121.017 189.112 120.887 188.309 120.82 187.969C120.507 186.49 120.686 185.261 121.33 184.411C121.464 184.237 121.71 184.205 121.884 184.335C122.057 184.47 122.093 184.715 121.959 184.889H121.958ZM129.522 191.583L128.561 195.577C128.47 195.968 128.371 196.375 128.43 196.743C128.478 197.024 128.667 197.332 128.936 197.384C129.233 197.442 129.368 197.818 129.142 198.052C128.592 198.609 127.968 199.238 127.723 200.001C127.521 200.634 127.671 201.511 128.268 201.816C128.371 201.867 128.446 201.966 128.474 202.077C128.501 202.191 128.478 202.31 128.407 202.401C127.6 203.508 127.225 204.927 127.387 206.288C127.414 206.505 127.26 206.703 127.043 206.727C127.027 206.731 127.011 206.731 126.995 206.731C126.798 206.731 126.628 206.581 126.604 206.383C126.434 204.955 126.774 203.481 127.541 202.271C126.841 201.658 126.707 200.583 126.972 199.76C127.209 199.013 127.715 198.396 128.205 197.878C127.901 197.621 127.715 197.234 127.652 196.878C127.54 196.198 127.651 195.99 128.755 191.398C128.806 191.188 129.019 191.058 129.233 191.109C129.442 191.161 129.573 191.374 129.521 191.584L129.522 191.583ZM156.909 204.074L150.03 191.053C146.552 184.486 141.843 173.636 137.472 165.732C137.37 165.709 137.279 165.649 137.22 165.554C133.69 159.893 131.918 155.978 126.762 151.968C126.588 151.834 126.556 151.585 126.691 151.415C126.825 151.241 127.074 151.209 127.244 151.344C131.544 154.681 133.481 157.842 136.204 162.375C136.334 162.284 136.425 162.142 136.449 161.98C137.066 157.951 136.35 152.902 133.365 150.704C133.262 150.628 133.136 150.585 133.005 150.589C130.053 150.636 126.943 150.706 124.034 150.344C123.888 150.328 123.745 150.367 123.63 150.45C117.202 150.134 110.686 150.011 103.806 150.087C103.51 150.09 103.261 150.312 103.225 150.605C103.186 150.897 103.372 151.174 103.656 151.253C104.862 151.577 105.554 152.107 105.969 153.02C106.34 153.834 106.319 155.282 105.471 155.511C105.019 155.635 104.892 156.194 105.206 156.499C106.005 157.306 106.673 158.046 106.8 158.923C106.863 159.358 106.673 159.88 106.341 160.196C106.194 160.33 105.957 160.485 105.672 160.425C105.463 160.382 105.245 160.457 105.103 160.619C104.965 160.781 104.921 161.006 104.992 161.208C105.111 161.536 104.973 161.963 104.684 162.161C104.396 162.358 103.945 162.327 103.684 162.094C103.542 161.967 103.344 161.915 103.154 161.963C102.969 162.007 102.81 162.141 102.739 162.319C102.624 162.612 102.332 162.841 101.96 162.932C101.588 163.023 101.221 162.955 100.984 162.746C100.849 162.631 100.671 162.58 100.497 162.612C100.323 162.639 100.173 162.742 100.082 162.896C99.8328 163.323 99.1609 163.434 98.6547 163.292C98.0064 163.11 97.4173 162.604 96.8993 162.153C92.8387 158.646 89.3989 155.384 88.4187 150.963C88.3832 150.805 88.2885 150.67 88.154 150.588C88.0157 150.505 87.8533 150.477 87.6951 150.517C87.1061 150.663 86.5525 150.916 86.0581 151.256C85.56 149.417 85.1447 148.472 84.2435 146.562C84.1171 146.298 83.8207 146.163 83.5399 146.246C83.259 146.329 83.081 146.602 83.1208 146.891C83.259 147.99 83.3699 149.018 83.4807 150.014C84.1289 156.068 84.5996 160.445 90.7873 164.335C92.7364 165.561 94.7409 166.407 96.8008 166.973C103.318 168.761 110.401 167.742 117.285 167.123C117.309 167.075 117.344 167.032 117.392 167C117.565 166.866 117.811 166.901 117.945 167.075L118.574 167.902C118.61 167.945 118.641 167.993 118.677 168.036C123.888 174.88 127.703 179.918 136.224 195.674C138.625 199.61 141.949 205.279 145.764 210.426C145.947 210.672 146.282 210.723 146.515 210.596C149.8 208.869 153.457 206.562 156.664 204.874C156.803 204.803 156.905 204.677 156.953 204.526C157 204.376 156.984 204.214 156.909 204.072V204.074ZM90.0709 159.296C89.9918 159.371 89.8928 159.407 89.7981 159.407C89.6916 159.407 89.5883 159.363 89.5093 159.284C88.8686 158.616 88.3666 157.845 88.0148 156.987C87.9276 156.785 88.0266 156.556 88.2283 156.473C88.4301 156.39 88.6593 156.485 88.7421 156.686C89.0584 157.449 89.5093 158.142 90.0822 158.738C90.2323 158.897 90.2286 159.146 90.0704 159.296H90.0709ZM111.37 159.047C111.496 158.873 111.745 158.833 111.923 158.96C112.231 159.182 112.763 159.054 112.935 158.726C113.119 158.384 113.651 158.489 113.679 158.888C113.688 159.069 113.99 159.189 114.197 159.153C114.609 159.066 114.929 158.619 115.161 158.315C115.395 158.006 115.632 157.69 115.979 157.449C116.158 157.326 116.402 157.374 116.529 157.552C116.652 157.734 116.608 157.979 116.427 158.101C116.185 158.268 115.996 158.521 115.794 158.79C115.421 159.295 114.992 159.793 114.355 159.924C114.062 159.998 113.632 159.932 113.307 159.687C113.263 159.655 113.228 159.623 113.192 159.588C112.671 159.939 111.965 159.963 111.457 159.6C111.283 159.473 111.243 159.224 111.37 159.046V159.047ZM142.094 191.156C141.963 191.156 141.837 191.089 141.762 190.974C138.461 185.783 133.194 172.982 128.952 168.702C128.798 168.548 128.802 168.299 128.956 168.145C129.11 167.99 129.359 167.99 129.513 168.148C133.887 172.553 139.139 185.385 142.43 190.547C142.595 190.814 142.401 191.156 142.094 191.156ZM151.927 204.386C150.862 204.708 149.731 203.987 149.507 202.99C149.382 202.413 149.557 201.739 150.069 201.227C149.543 200.942 149.124 200.464 148.883 199.977C148.479 199.167 148.408 198.254 148.345 197.447C148.33 197.229 148.492 197.039 148.709 197.02C148.926 197.004 149.116 197.166 149.132 197.383C149.191 198.154 149.254 198.953 149.591 199.621C149.871 200.187 150.453 200.736 151.137 200.701C151.347 200.689 151.532 200.847 151.552 201.056C151.572 201.27 151.422 201.46 151.212 201.487C150.931 201.523 150.662 201.697 150.477 201.965C149.79 202.943 150.868 203.892 151.69 203.63C151.896 203.567 152.117 203.677 152.185 203.887C152.252 204.097 152.137 204.318 151.928 204.385L151.927 204.386Z" fill="black"/>
<path d="M125.583 138.416C125.682 136.688 124.027 135.188 121.888 135.066C119.748 134.944 117.934 136.247 117.835 137.975C117.737 139.703 119.392 141.202 121.531 141.324C123.671 141.446 125.485 140.144 125.583 138.416Z" fill="black"/>
<path d="M157.628 219.493C156.108 219.493 154.497 218.837 153.147 217.634C151.697 216.342 150.607 214.538 149.457 213.052C148.239 211.479 147.864 209.999 146.712 208.227C146.533 207.952 146.611 207.585 146.886 207.406C147.16 207.228 147.528 207.305 147.706 207.581C148.941 209.481 149.243 210.838 150.395 212.327C151.54 213.805 152.612 215.569 153.936 216.749C155.335 217.994 157.031 218.543 158.472 218.215C159.494 217.982 160.59 217.135 160.709 215.965C160.805 215.019 160.261 214.058 159.744 213.231C158.059 210.539 155.963 207.189 153.61 204.743C153.383 204.508 153.39 204.132 153.626 203.905C153.861 203.678 154.237 203.685 154.464 203.921C156.903 206.456 159.035 209.864 160.749 212.602C161.371 213.596 162.023 214.766 161.888 216.085C161.731 217.633 160.434 218.984 158.736 219.371C158.376 219.453 158.005 219.493 157.628 219.493Z" fill="black"/>
<path d="M128.986 224.265C128.738 224.265 128.509 224.252 128.311 224.235C124.613 223.925 120.939 220.079 119.372 217.57C117.444 214.484 116.645 211.32 116.856 207.611C116.874 207.284 117.152 207.04 117.482 207.052C117.809 207.071 118.059 207.351 118.04 207.678C117.844 211.13 118.586 214.074 120.377 216.941C122.115 219.724 125.521 222.811 128.41 223.053C129.196 223.119 129.784 223.06 130.26 222.867C130.794 222.652 131.196 222.221 131.285 221.77C131.424 221.066 130.901 220.309 130.395 219.578L130.342 219.501C128.669 217.081 126.562 213.586 126.027 210.685C125.967 210.363 126.18 210.054 126.502 209.994C126.822 209.931 127.134 210.147 127.193 210.469C127.691 213.164 129.71 216.502 131.317 218.828L131.37 218.904C131.956 219.75 132.685 220.804 132.449 222C132.283 222.846 131.614 223.6 130.705 223.968C130.121 224.204 129.511 224.267 128.987 224.267L128.986 224.265Z" fill="black"/>
<path d="M54.7532 87.8034C55.1438 88.0535 55.6567 88.0326 56.0298 87.7532C59.7177 84.9957 64.1685 81.4957 67.9918 78.6008C67.6556 78.4072 67.2669 78.2949 66.8516 78.2949H42.6534C42.1145 78.2949 41.6196 78.4825 41.2275 78.7945C41.6471 78.9636 42.5885 80.0215 54.7532 87.8039V87.8034Z" fill="black"/>
<path d="M51.7786 87.304C47.8402 84.7667 43.906 82.1735 40.6571 79.8219C40.6088 79.7868 40.5695 79.7447 40.5354 79.6992C40.4194 79.9734 40.355 80.2751 40.355 80.5914V96.6103C40.355 96.984 40.4464 97.3358 40.6055 97.6479C44.0112 94.2345 48.1016 90.6312 51.7786 87.3036V87.304Z" fill="black"/>
<path d="M71.7145 101.188C71.0274 98.1919 70.1627 95.2081 69.1465 92.3142V80.5913C69.1465 80.1736 69.0329 79.7834 68.8373 79.4453C65.8232 81.725 62.5085 84.3158 59.2259 86.8195C62.1903 90.1751 62.9408 91.1251 65.9729 94.5555C66.311 94.9377 66.0368 95.5414 65.5287 95.5414C65.3644 95.5414 65.2015 95.4737 65.0845 95.3411C62.0695 91.9315 61.2868 90.9432 58.2803 87.5398C57.758 87.9357 57.2418 88.3254 56.7384 88.7019C55.9732 89.2749 54.9177 89.3166 54.1122 88.8013C53.6799 88.5248 53.2461 88.2468 52.8119 87.9679C49.1614 91.2775 44.9095 95.0106 41.4243 98.5059C41.4143 98.5158 41.4011 98.5191 41.3911 98.5281C41.7534 98.7673 42.1862 98.907 42.6517 98.907H64.6754C66.6354 100.129 68.7436 101.13 70.9455 101.881C71.008 101.903 71.0724 101.913 71.1368 101.913C71.2812 101.913 71.4233 101.86 71.5341 101.761C71.6942 101.617 71.7633 101.397 71.715 101.188H71.7145Z" fill="black"/>
<path d="M226.031 172.567C225.26 171.712 224.084 171.192 222.805 171.143L186.654 169.736C185.271 169.68 184.063 170.841 183.967 172.318L183.895 173.423C183.799 174.901 184.843 176.206 186.223 176.332L222.25 179.642C222.408 179.656 222.564 179.663 222.72 179.663C223.824 179.663 224.866 179.304 225.633 178.648C226.315 178.066 226.72 177.287 226.775 176.455L226.877 174.891C226.931 174.059 226.631 173.234 226.03 172.567H226.031ZM191.765 174.903C190.993 174.637 190.632 173.823 190.977 173.073C190.812 172.254 192.458 171.677 193.255 172.644C194.111 173.683 193.154 175.385 191.764 174.903H191.765ZM201.698 175.539C200.616 175.539 199.814 174.527 200.315 173.518C200.268 173.312 200.333 173.089 200.502 172.94C201.152 172.37 202.225 172.427 202.799 173.066C203.607 173.966 203.037 175.539 201.698 175.539ZM212.205 176.307C210.988 176.307 210.081 175.222 210.658 174.156C210.602 173.938 210.674 173.697 210.86 173.547C211.575 172.973 212.758 173.038 213.393 173.686C214.314 174.626 213.701 176.308 212.205 176.308V176.307Z" fill="black"/>
<path d="M75.9658 64.1268C75.998 65.1582 76.0956 66.3269 76.9025 66.9705C78.2535 68.0483 81.9949 67.2238 84.8546 67.2272C89.1022 67.2324 93.186 68.8784 97.4199 69.2251C91.5911 66.559 91.4974 66.3179 87.6617 66.2658C84.5463 66.2232 81.429 66.1811 78.3165 66.3085C77.8453 66.3279 77.3471 66.3449 76.9337 66.1186C76.4981 65.8799 76.2348 65.4021 76.1368 64.9153C76.0387 64.4284 76.0837 63.9251 76.1292 63.4307" fill="#CCCCCC"/>
<path d="M95.1093 63.6206H95.1059C94.7787 63.6187 94.5145 63.3516 94.5164 63.0239L94.5841 51.2883C94.585 51.1661 94.5571 51.0511 94.5012 50.9459C94.3473 50.6566 94.4572 50.2976 94.747 50.1437C95.0363 49.9898 95.3957 50.1002 95.5492 50.389C95.696 50.6656 95.7727 50.9791 95.7708 51.2954L95.7031 63.0311C95.7012 63.3573 95.436 63.6206 95.1102 63.6206H95.1093Z" fill="black"/>
<path d="M90.7016 66.9363C82.7409 66.8904 85.3833 66.9055 77.4468 66.8596C76.3856 66.8535 75.5271 65.993 75.5332 64.9237L75.6128 51.1793C75.6189 50.118 76.4784 49.2628 77.5491 49.2656L92.9187 49.3547C93.2459 49.3566 93.5101 49.6236 93.5082 49.9513C93.5063 50.2776 93.2411 50.5409 92.9154 50.5409H92.912C91.9247 50.5352 76.5561 50.4462 77.5377 50.4519C77.1291 50.4519 76.8014 50.7791 76.799 51.1864L76.7194 64.9308C76.7171 65.3329 77.0377 65.6715 77.4539 65.6738L90.7054 65.7505C91.0326 65.7524 91.2968 66.0195 91.2949 66.3472C91.293 66.6735 91.0278 66.9368 90.702 66.9368L90.7016 66.9363Z" fill="black"/>
<path d="M97.9125 69.9351C97.8415 69.9351 97.7695 69.9223 97.7004 69.8958C97.3016 69.7428 96.8314 69.5624 96.3162 69.3616C94.1053 68.4955 92.132 67.662 90.4519 66.8835C90.1545 66.7457 90.0253 66.3929 90.1631 66.096C90.3009 65.7995 90.6532 65.6693 90.9506 65.8071C92.7699 66.6505 95.3767 67.7368 96.8281 68.2881C96.1538 66.7002 95.4837 65.1986 94.5745 63.2812C94.4339 62.9852 94.5599 62.6319 94.8558 62.4913C95.1513 62.3502 95.5055 62.4771 95.6457 62.773C96.6889 64.9713 97.5147 66.8295 98.4604 69.1154C98.5513 69.3341 98.5025 69.5861 98.3373 69.7561C98.2231 69.8726 98.0692 69.9351 97.912 69.9351H97.9125Z" fill="black"/>
<path d="M91.1632 56.2882H91.1598L79.9304 56.2234C79.6032 56.2215 79.3389 55.9544 79.3408 55.6267C79.3427 55.3004 79.6079 55.0371 79.9337 55.0371H79.937L91.1665 55.102C91.4937 55.1039 91.7579 55.371 91.756 55.6987C91.7541 56.0249 91.4889 56.2882 91.1632 56.2882Z" fill="black"/>
<path d="M88.6187 61.1307C84.2124 61.1051 85.5539 61.1127 81.1789 61.0876C80.8517 61.0857 80.5875 60.8186 80.5894 60.4909C80.5913 60.1647 80.8564 59.9014 81.1822 59.9014H81.1855L88.622 59.9445C88.9492 59.9464 89.2134 60.2134 89.2115 60.5411C89.2096 60.8674 88.9445 61.1307 88.6187 61.1307Z" fill="black"/>
<path d="M83.3268 213.013C82.9991 213.013 82.7339 212.747 82.7339 212.42V167.864C82.7339 167.537 82.9995 167.271 83.3268 167.271C83.654 167.271 83.9196 167.537 83.9196 167.864V212.42C83.9196 212.747 83.654 213.013 83.3268 213.013Z" fill="black"/>
<path d="M129.819 142.977C129.736 142.66 129.926 142.336 130.243 142.254C130.702 142.133 130.977 141.562 131.002 141.084C131.035 140.453 130.783 139.798 130.539 139.165C130.432 138.888 130.547 138.573 130.808 138.431C131.035 138.308 131.31 138.346 131.494 138.515C131.528 138.497 131.565 138.467 131.574 138.445C131.646 138.256 131.588 137.97 131.527 137.668C131.531 137.595 131.127 136.368 131.944 135.676C132.33 135.35 132.888 135.294 132.982 135.193C133.009 135.135 132.981 134.806 132.992 134.596C133.043 133.625 133.741 132.967 134.245 132.322C134.587 131.883 134.796 131.273 134.553 131.01C134.331 130.77 134.345 130.395 134.586 130.172C134.826 129.95 135.201 129.965 135.424 130.205C136.164 131.005 135.835 132.211 135.181 133.051C134.746 133.609 134.205 134.121 134.177 134.658C134.162 134.93 134.256 135.405 133.977 135.837C133.605 136.415 132.902 136.419 132.71 136.581C132.638 136.642 132.579 136.854 132.653 137.249C132.764 137.798 132.889 138.325 132.683 138.867C132.559 139.193 132.287 139.464 131.959 139.607C132.11 140.089 132.216 140.603 132.188 141.146C132.131 142.236 131.454 143.163 130.544 143.401C130.23 143.483 129.904 143.296 129.82 142.977L129.819 142.977Z" fill="black"/>
<path d="M109.246 132.436C109.022 132.197 109.034 131.822 109.273 131.598L110.79 130.176C111.029 129.952 111.405 129.964 111.628 130.203C111.852 130.442 111.84 130.817 111.601 131.041L110.085 132.463C109.846 132.687 109.47 132.675 109.246 132.436Z" fill="black"/>
<path d="M111.576 133.573C111.436 133.573 111.296 133.523 111.182 133.423C110.938 133.205 110.916 132.83 111.133 132.585C111.531 132.138 112.037 131.787 112.596 131.572C112.902 131.456 113.245 131.608 113.363 131.913C113.48 132.219 113.328 132.562 113.022 132.68C112.639 132.827 112.293 133.066 112.02 133.373C111.903 133.505 111.74 133.572 111.577 133.572L111.576 133.573Z" fill="black"/>
<path d="M107.436 146.787L106.678 145.175C106.538 144.879 106.665 144.526 106.961 144.386C107.258 144.246 107.611 144.373 107.751 144.67L108.509 146.281C108.649 146.578 108.522 146.931 108.225 147.071C107.926 147.211 107.575 147.081 107.436 146.787Z" fill="black"/>
<path d="M191.112 97.3363C190.536 94.6049 189.25 92.0501 187.393 89.947C187.176 89.7012 187.199 89.3266 187.444 89.1097C187.69 88.8929 188.064 88.9156 188.282 89.1614C190.274 91.4174 191.654 94.1597 192.273 97.091C192.34 97.4116 192.135 97.7261 191.815 97.7938C191.487 97.861 191.179 97.6513 191.112 97.3359V97.3363Z" fill="black"/>
<path d="M192.042 104.23C191.075 107.349 189.68 110.369 187.634 112.914C185.588 115.459 182.858 117.512 179.726 118.439C176.635 119.353 173.325 119.142 170.137 118.663C167.494 118.265 164.859 117.143 162.859 115.37C161.264 113.956 160.201 112.451 159.4 110.476C158.395 107.997 157.553 105.386 157.612 102.712C158.459 108.005 161.893 112.822 166.621 115.347C171.349 117.873 177.262 118.05 182.132 115.811C187.002 113.573 190.718 108.97 191.88 103.737" fill="#CCCCCC"/>
<path d="M174.919 118.304C169.683 118.304 164.659 115.986 161.288 111.961L161.185 111.834C158.632 108.733 157.179 104.819 157.212 100.592C157.214 100.266 157.48 100.003 157.805 100.003H157.81C158.137 100.006 158.401 100.273 158.398 100.601C158.395 101.037 158.408 101.467 158.436 101.878C158.673 105.273 159.941 108.457 162.105 111.085L162.205 111.209C165.589 115.249 170.773 117.442 176.071 117.078C177.328 116.99 178.568 116.763 179.758 116.403C179.82 116.384 179.881 116.367 179.944 116.345C181.505 115.852 182.975 115.133 184.324 114.204C184.448 114.124 184.55 114.049 184.654 113.971C184.762 113.898 184.846 113.835 184.929 113.77C185.103 113.639 185.259 113.519 185.412 113.395C186.002 112.914 186.575 112.376 187.113 111.797C187.204 111.699 187.295 111.597 187.383 111.496C190.297 108.186 191.732 103.954 191.427 99.5781C191.419 99.4673 191.412 99.3598 191.399 99.2485C191.36 98.9232 191.591 98.6282 191.917 98.5889C192.244 98.5519 192.537 98.7821 192.576 99.1069C192.592 99.2372 192.601 99.3641 192.61 99.4948C192.938 104.19 191.398 108.729 188.276 112.276C188.182 112.384 188.082 112.495 187.983 112.603C187.407 113.223 186.794 113.798 186.161 114.314C185.995 114.449 185.826 114.581 185.653 114.709C185.562 114.783 185.451 114.864 185.34 114.939C185.236 115.017 185.113 115.107 184.983 115.191C183.552 116.177 181.976 116.948 180.313 117.472C180.247 117.494 180.174 117.517 180.1 117.539C178.828 117.924 177.5 118.167 176.154 118.261C175.742 118.29 175.331 118.304 174.92 118.304L174.919 118.304Z" fill="black"/>
<path d="M157.91 98.7411C157.586 98.6909 157.365 98.3878 157.415 98.0644C158.661 90.022 165.513 83.7701 173.708 83.199C178.665 82.85 183.567 84.6036 187.161 87.9999C187.399 88.2248 187.41 88.5999 187.185 88.8381C186.96 89.0763 186.585 89.0876 186.346 88.8618C182.993 85.6923 178.415 84.0599 173.79 84.3819C166.144 84.9152 159.749 90.7456 158.587 98.2457C158.538 98.5658 158.239 98.7908 157.911 98.7411H157.91Z" fill="black"/>
<path d="M174.721 118.37C174.598 118.37 174.475 118.369 174.353 118.366C169.119 118.252 164.442 115.931 161.184 111.832C161.08 111.702 161.037 111.533 161.063 111.367C161.09 111.203 161.185 111.057 161.326 110.965L161.732 110.7C163.718 109.399 166.721 107.433 169.08 108.04C169.693 108.198 170.266 108.828 171.07 109.772C171.397 110.155 171.734 110.552 171.93 110.691C172.382 111.011 172.704 111.398 172.964 111.708C173.119 111.894 173.354 112.176 173.449 112.197C173.522 112.196 173.982 112.073 175.512 109.739C176.369 108.43 178.032 107.982 179.384 107.739C180.734 107.497 182.175 107.803 182.731 107.946C184.385 108.371 185.181 108.816 186.722 109.61C187.541 110.028 188.15 110.792 188.395 111.708C188.409 111.755 188.419 111.804 188.421 111.85C188.431 112.006 188.379 112.158 188.277 112.276C184.994 116.056 179.828 118.369 174.721 118.369V118.37ZM162.528 111.597C165.538 115.102 169.721 117.078 174.379 117.18C179.152 117.299 184.012 115.21 187.159 111.748C186.968 111.277 186.622 110.891 186.183 110.667L185.699 110.418C184.529 109.816 183.823 109.451 182.435 109.095C181.433 108.837 180.371 108.766 179.594 108.906C178.475 109.108 177.113 109.458 176.504 110.389C175.086 112.552 174.304 113.335 173.515 113.381C172.473 113.428 172.112 112.275 171.244 111.658C170.567 111.178 169.293 109.32 168.785 109.189C166.983 108.726 164.243 110.475 162.529 111.597H162.528Z" fill="black"/>
<path d="M170.153 108.073C169.838 106.553 170.077 104.608 170.191 103.042C169.791 102.812 169.542 102.485 169.264 102.13C168.723 101.442 168.571 100.547 168.868 99.7941C169.216 98.9147 170.192 98.3048 171.089 98.4066C172.176 98.5288 172.875 99.7321 172.303 100.677C172.134 100.957 171.769 101.047 171.489 100.877C171.209 100.708 171.119 100.343 171.289 100.063C171.4 99.8775 171.196 99.6123 170.956 99.5848C170.584 99.5507 170.124 99.8443 169.972 100.23C169.802 100.663 169.976 101.116 170.197 101.397C170.45 101.713 170.636 101.999 170.97 102.092C171.238 102.168 171.418 102.419 171.402 102.697C171.312 104.282 171.013 106.374 171.315 107.832C171.381 108.153 171.175 108.467 170.854 108.533C170.537 108.599 170.22 108.395 170.154 108.072L170.153 108.073Z" fill="black"/>
<path d="M175.602 105.008C175.347 104.802 175.308 104.429 175.514 104.174C175.719 103.92 176.093 103.88 176.348 104.086C177.056 104.659 178.487 104.691 179.201 103.873C179.65 103.359 179.743 102.635 179.778 101.929C179.903 99.3867 179.659 97.4939 178.965 95.6011C178.853 95.2933 179.01 94.9528 179.318 94.8401C179.624 94.7274 179.966 94.8851 180.079 95.1924C180.831 97.2439 181.095 99.2759 180.963 101.987C180.92 102.863 180.783 103.864 180.095 104.653C179.025 105.879 176.883 106.045 175.602 105.008Z" fill="black"/>
<path d="M171.877 100.324C172.668 99.2229 173.446 97.5555 173.286 96.2248C174.359 96.239 175.374 96.0591 176.431 95.9151C176.855 95.8573 176.87 95.9104 177.606 95.5865C177.718 95.5377 178.451 94.8491 178.307 94.7056C179.238 95.6461 180.876 95.8426 182.045 95.2791C181.572 95.1655 181.171 94.7914 181.025 94.3277C181.848 94.3197 182.642 93.7746 182.944 93.0084C182.405 92.8446 181.866 92.6812 181.328 92.5173C181.614 91.638 181.705 90.6951 181.591 89.7774C181.649 90.2395 179.657 89.8086 179.504 89.7669C178.823 89.5818 178.132 89.3388 177.417 89.4146C176.791 89.4804 176.197 89.713 175.612 89.9436C175.204 90.1041 174.768 90.2874 174.538 90.661C174.36 90.9504 174.334 91.3155 174.145 91.5982C173.822 92.0821 173.161 92.1593 172.598 92.3095C170.52 92.863 169.022 95.1266 169.377 97.2586C169.488 97.9272 169.761 98.6002 170.012 99.2148C170.368 98.9657 170.882 98.9563 171.257 99.176C171.632 99.3957 171.92 99.892 171.877 100.324V100.324Z" fill="black"/>
<path d="M171.667 100.878C171.417 100.784 171.26 100.532 171.287 100.265C171.305 100.078 171.145 99.7969 170.957 99.6866C170.778 99.5828 170.513 99.5876 170.352 99.7003C170.039 99.9172 169.606 99.7898 169.463 99.4379C169.26 98.9393 169.049 98.4236 168.903 97.8686C168.167 95.0888 170.04 92.3763 172.445 91.7356C172.937 91.6053 173.475 91.5315 173.653 91.2677C173.766 91.0986 173.822 90.6942 174.033 90.3504C174.376 89.7916 174.989 89.5506 175.395 89.3915C177.39 88.6063 177.866 88.6878 179.66 89.1949C179.956 89.2721 180.777 89.4109 181.135 89.3981C181.465 89.0003 182.116 89.1921 182.18 89.7045C182.279 90.5057 182.235 91.3293 182.053 92.1182L183.116 92.4412C183.448 92.5411 183.623 92.9048 183.496 93.2268C183.242 93.8699 182.723 94.3894 182.099 94.6768C182.127 94.6868 182.155 94.6958 182.184 94.7029C182.724 94.8331 182.804 95.5714 182.303 95.8133C181.099 96.3939 179.576 96.2822 178.479 95.5955C178.235 95.8621 177.957 96.0809 177.842 96.1306C177.22 96.4053 177.033 96.4455 176.694 96.4815C176.092 96.5483 174.95 96.7586 173.894 96.8073C173.821 98.1352 173.133 99.5937 172.36 100.671C172.246 100.829 171.919 100.974 171.668 100.879L171.667 100.878ZM171.988 99.0198C172.398 98.2432 172.802 97.1691 172.697 96.295C172.654 95.9388 172.938 95.6225 173.294 95.631C174.259 95.6438 175.23 95.4861 176.351 95.3265C176.754 95.2711 176.722 95.3251 177.322 95.0618C177.42 94.9842 177.617 94.789 177.715 94.6636C177.75 94.1611 178.365 93.9239 178.726 94.2838C178.765 94.3074 179.416 95.0486 180.698 95.0003C180.596 94.8473 180.515 94.6806 180.459 94.5049C180.339 94.1261 180.619 93.7373 181.018 93.733C181.375 93.7297 181.729 93.5796 182 93.34L181.155 93.0838C180.838 92.9872 180.661 92.6481 180.764 92.3322C180.947 91.7687 181.042 91.173 181.045 90.5787C179.51 90.5896 178.465 89.893 177.479 90.0028C176.928 90.0606 176.369 90.2808 175.829 90.4934C175.036 90.8046 175.033 90.9305 174.916 91.2933C174.853 91.4888 174.782 91.7105 174.638 91.9259C174.239 92.5231 173.563 92.6841 173.019 92.8139C172.928 92.8356 172.838 92.8569 172.751 92.8802C170.978 93.3528 169.484 95.4279 170.051 97.5636C170.129 97.8615 170.234 98.1579 170.346 98.4501C170.921 98.3478 171.545 98.5207 171.988 99.0179L171.988 99.0198ZM177.884 95.121C177.884 95.121 177.886 95.1224 177.886 95.1229C177.885 95.122 177.885 95.1215 177.884 95.121ZM177.367 95.0429C177.367 95.0429 177.363 95.0438 177.361 95.0448C177.363 95.0438 177.365 95.0438 177.367 95.0429Z" fill="black"/>
<path d="M176.484 109.037C176.309 107.43 176.243 106.462 176.239 105.464C176.238 105.137 176.503 104.871 176.83 104.869H176.832C177.158 104.869 177.424 105.133 177.425 105.46C177.429 106.412 177.494 107.347 177.663 108.91C177.699 109.235 177.463 109.527 177.138 109.563C176.808 109.598 176.519 109.36 176.484 109.037Z" fill="black"/>
<path d="M123.894 62.864C123.569 62.819 123.343 62.5197 123.388 62.1948C123.749 59.6026 124.785 57.1287 126.384 55.0422C126.583 54.7818 126.955 54.7325 127.216 54.9324C127.476 55.1317 127.525 55.504 127.325 55.7635C125.85 57.688 124.895 59.9682 124.563 62.3587C124.518 62.6826 124.218 62.9094 123.894 62.864Z" fill="black"/>
<path d="M124.098 68.3817C125.124 71.0279 126.516 73.5614 128.444 75.6441C130.372 77.7268 132.864 79.3421 135.634 79.9563C138.37 80.5624 141.227 80.1793 143.962 79.5708C148.119 78.646 151.447 75.8974 152.776 71.8239C153.498 69.6138 154.07 67.2991 153.857 64.9844C153.443 69.6247 150.756 74.0084 146.81 76.4842C142.863 78.9599 137.748 79.4704 133.39 77.8239C129.032 76.1773 125.532 72.4111 124.208 67.9441" fill="#CCCCCC"/>
<path d="M138.721 79.6637C130.204 79.6637 123.242 72.8307 123.242 64.3105C123.242 64.195 123.242 64.0828 123.248 63.9672C123.265 63.64 123.543 63.3918 123.871 63.4056C124.198 63.4226 124.45 63.7015 124.433 64.0283C124.428 64.123 124.428 64.2158 124.428 64.3105C124.428 72.1176 130.798 78.4774 138.721 78.4774C146.643 78.4774 153.014 72.2359 153.014 64.3105C153.014 63.953 152.999 63.5817 152.97 63.2071C152.944 62.8804 153.188 62.5953 153.515 62.5697C153.845 62.5404 154.127 62.7881 154.152 63.1143C154.184 63.5197 154.2 63.9222 154.2 64.3101C154.2 67.5004 153.221 70.56 151.37 73.1584L151.3 73.2579C148.388 77.2732 143.689 79.6627 138.721 79.6627V79.6637Z" fill="black"/>
<path d="M153.244 61.6494C152.973 61.6494 152.729 61.4628 152.666 61.1876C151.213 54.7904 145.349 50.1472 138.723 50.1472C134.714 50.1472 130.866 51.8302 128.165 54.7648C127.943 55.0059 127.568 55.022 127.327 54.7994C127.086 54.5778 127.07 54.2022 127.292 53.9617C130.217 50.7836 134.384 48.9609 138.723 48.9609C145.898 48.9609 152.248 53.9925 153.823 60.9248C153.895 61.244 153.695 61.5618 153.376 61.6347C153.331 61.6446 153.287 61.6494 153.244 61.6494H153.244Z" fill="black"/>
<path d="M150.888 72.8148C149.233 71.8985 146.832 70.5512 144.901 71.1943C144.232 71.4173 143.741 71.9037 143.11 72.1911C141.6 72.8797 139.941 72.9692 138.354 72.4696C137.266 72.1267 136.326 71.4879 135.231 71.1702C134.457 70.9457 134.055 71.0906 133.308 71.3392C131.914 71.8033 130.562 72.4076 129.303 73.1657C128.352 73.7378 128.231 74.7256 128.215 74.7654C131.305 77.8586 135.89 79.4536 140.244 79.0544C144.597 78.6552 148.412 76.4186 150.888 72.8153L150.888 72.8148Z" fill="black"/>
<path d="M142.406 69.7102C142.082 69.6662 141.854 69.3679 141.898 69.043C142.076 67.7312 141.995 67.1625 141.823 65.8086C141.788 65.5325 141.95 65.2692 142.212 65.1755C142.472 65.0827 142.614 64.8279 142.802 64.5556C142.964 64.3169 143.08 63.9423 142.92 63.6071C142.781 63.3154 142.396 63.0989 142.112 63.1506C141.962 63.178 141.829 63.3599 141.901 63.4636C142.09 63.7311 142.026 64.101 141.759 64.2899C141.491 64.4789 141.121 64.4154 140.933 64.1469C140.35 63.3206 140.903 62.1665 141.898 61.9832C142.702 61.836 143.622 62.3233 143.99 63.0951C144.305 63.7548 144.226 64.5693 143.783 65.2209C143.566 65.5415 143.373 65.8347 143.05 66.0639C143.193 67.2103 143.249 67.8975 143.073 69.2016C143.028 69.5331 142.72 69.7547 142.406 69.7098L142.406 69.7102Z" fill="black"/>
<path d="M136.45 68.8547C135.696 68.8547 134.946 68.5942 134.425 68.0747C133.764 67.4156 133.581 66.5395 133.49 65.7695C133.209 63.4164 133.317 61.6297 133.848 59.7951C133.94 59.4802 134.268 59.2979 134.583 59.3902C134.898 59.4811 135.079 59.8103 134.988 60.1247C134.504 61.7978 134.407 63.4438 134.668 65.6288C134.739 66.2255 134.86 66.8326 135.264 67.2342C135.885 67.8541 137.091 67.7579 137.643 67.2451C137.883 67.0216 138.258 67.0348 138.481 67.2754C138.704 67.515 138.691 67.8901 138.45 68.1131C137.919 68.608 137.183 68.8547 136.451 68.8547H136.45Z" fill="black"/>
<path d="M140.828 57.6966L140.944 56.4738C140.974 56.1476 141.265 55.9084 141.589 55.9392C141.916 55.9695 142.155 56.2593 142.124 56.5851L142.1 56.8432C142.275 56.7963 142.463 56.7599 142.653 56.7442C142.978 56.7187 143.266 56.9611 143.292 57.2874C143.318 57.6142 143.075 57.9002 142.749 57.9262C142.387 57.9556 141.96 58.1303 141.705 58.271C141.289 58.5006 140.783 58.1701 140.828 57.6961V57.6966Z" fill="black"/>
<path d="M141.347 63.7675C140.594 62.8606 139.82 61.4617 139.878 60.2987C138.948 60.3759 138.058 60.2811 137.132 60.2201C136.761 60.1954 136.751 60.2428 136.094 60.006C135.994 59.9705 135.317 59.4178 135.433 59.2848C134.466 60.4081 132.681 60.3105 131.843 59.0849C131.18 58.116 131.41 56.6911 132.242 55.8633C133.077 55.036 134.392 54.7964 135.522 55.1208C136.663 55.4504 137.42 56.2322 138.128 57.1334C138.724 57.8944 140.088 57.3915 140.933 57.6756C142.676 58.2647 143.631 59.486 143.27 61.3627C143.184 61.8164 143.04 62.2554 142.897 62.6925C142.573 62.4983 142.127 62.5211 141.815 62.7342C141.503 62.9473 141.283 63.3948 141.347 63.7675Z" fill="black"/>
<path d="M140.888 64.1457C140.154 63.2606 139.48 62.0568 139.316 60.9184C138.716 60.9236 138.13 60.8862 137.56 60.844C136.567 60.7782 136.597 60.818 135.89 60.5632C135.787 60.5268 135.549 60.3677 135.325 60.1617C133.971 61.0751 132.218 60.6878 131.351 59.4186C130.549 58.2466 130.756 56.5001 131.822 55.4417C132.774 54.4994 134.289 54.1499 135.683 54.55C137.009 54.9327 137.865 55.8414 138.591 56.7663C138.932 57.201 140.214 56.8089 141.119 57.1129C142.965 57.7361 144.104 59.0663 143.916 61.0145C143.855 61.6581 143.652 62.2851 143.458 62.877C143.339 63.2383 142.915 63.396 142.589 63.2005C142.469 63.1285 142.27 63.1389 142.147 63.2232C142.005 63.3203 141.909 63.5485 141.928 63.6674C141.973 63.9321 141.835 64.1935 141.591 64.3057C141.343 64.4189 141.057 64.3488 140.888 64.1457H140.888ZM140.468 60.3279C140.432 61.0453 140.812 61.9001 141.179 62.5105C141.529 62.1127 142.02 61.938 142.503 61.9692C142.753 61.1405 142.919 60.2431 142.467 59.4802C142.161 58.9569 141.532 58.5047 140.741 58.2371C140.514 58.1609 140.157 58.167 139.812 58.1732C139.098 58.185 138.208 58.2007 137.659 57.4989C136.961 56.6109 136.302 55.9636 135.355 55.6904C134.382 55.411 133.298 55.6496 132.658 56.2847C131.997 56.941 131.85 58.0472 132.33 58.75C132.927 59.6242 134.239 59.7582 134.98 58.8987C134.981 58.8973 134.983 58.8954 134.984 58.8944C135.199 58.6486 135.573 58.6231 135.819 58.8371C135.925 58.929 135.991 59.0502 136.014 59.1786C136.103 59.2728 136.258 59.4073 136.342 59.466C136.747 59.6104 136.809 59.6128 136.978 59.619C137.742 59.6512 138.807 59.7928 139.826 59.7075C140.009 59.6947 140.485 59.9831 140.468 60.3283V60.3279ZM135.88 59.6706C135.88 59.6706 135.879 59.672 135.879 59.672C135.879 59.672 135.88 59.6711 135.88 59.6706ZM136.29 59.4471C136.29 59.4471 136.292 59.448 136.294 59.448C136.292 59.448 136.291 59.4471 136.29 59.4471Z" fill="black"/>
<path d="M137.36 72.1792C137.353 72.1792 137.345 72.1792 137.337 72.1792C137.01 72.1664 136.755 71.8912 136.767 71.5635C136.821 70.1831 136.82 69.3989 136.765 68.5659C136.744 68.2392 136.991 67.957 137.319 67.9352C137.653 67.921 137.928 68.1615 137.949 68.4883C138.006 69.3549 138.007 70.2011 137.953 71.6085C137.94 71.9282 137.677 72.1787 137.36 72.1787V72.1792Z" fill="black"/>
<path d="M167.62 51.2917C167.584 51.2917 167.546 51.2884 167.509 51.2813C167.187 51.2197 166.976 50.9095 167.037 50.5875C167.679 47.2191 169.197 44.0501 171.428 41.4242C171.639 41.1742 172.014 41.1439 172.263 41.356C172.513 41.5682 172.544 41.9428 172.332 42.1919C170.234 44.6619 168.806 47.642 168.202 50.8096C168.148 51.0937 167.899 51.2917 167.62 51.2917Z" fill="black"/>
<path d="M167.374 58.7724C168.554 62.3364 170.225 65.7758 172.634 68.655C175.043 71.5342 178.227 73.8338 181.847 74.8287C185.42 75.8109 189.221 75.4941 192.873 74.8718C195.903 74.3557 198.906 73.007 201.167 70.9243C202.968 69.264 204.156 67.5095 205.032 65.2217C206.132 62.3501 207.041 59.3298 206.914 56.2578C206.059 62.361 202.219 67.974 196.841 70.983C191.463 73.992 184.671 74.3272 179.023 71.8629C173.375 69.3985 169.001 64.1908 167.549 58.2018" fill="#CCCCCC"/>
<path d="M175.768 71.1269C175.634 71.0445 175.491 70.9446 175.346 70.8404C175.242 70.7746 175.115 70.6846 174.992 70.5904C174.807 70.4583 174.611 70.3115 174.418 70.1609C173.683 69.585 172.968 68.9405 172.295 68.2435C172.179 68.1227 172.062 67.9977 171.949 67.8736C168.299 63.8863 166.437 58.7264 166.707 53.3464C166.714 53.1967 166.722 53.0514 166.737 52.9031C166.77 52.5773 167.062 52.3424 167.387 52.3727C167.713 52.4059 167.95 52.6967 167.917 53.0225C167.904 53.1508 167.898 53.2758 167.892 53.4042C167.637 58.4665 169.39 63.3209 172.827 67.0747C172.933 67.1922 173.041 67.3077 173.148 67.419C173.783 68.0763 174.456 68.6843 175.149 69.2261C175.328 69.3658 175.51 69.5026 175.696 69.6362C175.809 69.7214 175.909 69.7934 176.01 69.8578C176.158 69.9625 176.278 70.0477 176.405 70.1263C184.679 75.5888 195.758 73.8077 201.905 66.1707L202.003 66.0438C204.766 62.5528 206.179 58.278 206.054 53.845C206.045 53.5178 206.303 53.2446 206.631 53.2356C206.957 53.2067 207.231 53.4842 207.24 53.8119C207.368 58.3774 205.959 62.9553 202.939 66.7731L202.837 66.9052C196.281 75.0513 184.493 76.8901 175.768 71.1269H175.768Z" fill="black"/>
<path d="M205.78 51.1298C204.269 42.494 196.755 35.9045 187.912 35.4603C182.562 35.188 177.315 37.1803 173.513 40.9157C173.279 41.1444 172.904 41.1415 172.675 40.9086C172.445 40.6746 172.448 40.2991 172.682 40.0694C176.719 36.102 182.293 33.9909 187.971 34.2755C197.362 34.7471 205.343 41.7486 206.948 50.9247C207.005 51.2477 206.789 51.555 206.466 51.6114C206.147 51.6682 205.837 51.4541 205.78 51.1293V51.1298Z" fill="black"/>
<path d="M171.948 67.8744C171.85 67.7651 171.795 67.6235 171.795 67.4767C171.795 67.4213 171.804 67.3625 171.82 67.3081C172.075 66.2729 172.742 65.4001 173.652 64.9128C175.345 64.0065 177.207 63.2672 179.185 62.717L179.249 62.6994C180.261 62.4177 180.929 62.2316 182.09 62.6317C182.875 62.9026 183.586 63.2871 184.275 63.6598C184.905 64.0003 185.5 64.3223 186.142 64.5605C188.089 65.2822 190.121 65.2661 192.018 64.5127C192.825 64.1926 193.511 63.5727 194.51 63.2947C197.327 62.5124 200.572 64.5255 202.718 65.859L202.784 65.9002C202.926 65.9888 203.024 66.1327 203.055 66.297C203.085 66.4614 203.044 66.6309 202.943 66.764C199.306 71.5265 194.007 74.2854 188.02 74.5336C182.004 74.7779 175.865 72.2089 171.948 67.8744ZM173.053 67.3228C176.764 71.2741 182.448 73.5789 187.97 73.3483C193.38 73.1248 198.193 70.72 201.594 66.5584C199.564 65.3092 196.964 63.8431 194.828 64.4379C194.051 64.6543 193.338 65.2647 192.456 65.6161C190.282 66.4784 187.956 66.4978 185.73 65.6734C185.009 65.4063 184.349 65.0492 183.71 64.704C183.034 64.3389 182.396 63.9937 181.702 63.754C180.891 63.4742 180.504 63.5817 179.567 63.8431L179.503 63.8611C177.609 64.3877 175.828 65.0937 174.212 65.9599C173.677 66.2464 173.266 66.7346 173.053 67.3242L173.053 67.3228Z" fill="black"/>
<path d="M191.173 56.6668C191.078 56.3533 191.256 56.0223 191.569 55.9276C191.981 55.803 192.198 55.4564 192.488 55.0794C192.75 54.7323 192.951 54.1735 192.731 53.645C192.443 52.956 191.36 52.5331 191.047 53.2008C191.004 53.2922 190.971 53.43 191.056 53.5641C191.231 53.8411 191.149 54.2071 190.872 54.3824C190.595 54.5571 190.229 54.4752 190.054 54.1981C189.409 53.1786 190.155 51.8517 191.336 51.6959C192.326 51.5671 193.421 52.2196 193.825 53.1881C194.171 54.0172 194.021 55.016 193.433 55.7936C192.999 56.3713 192.636 56.8434 191.911 57.0622C191.601 57.1564 191.267 56.9826 191.172 56.6658L191.173 56.6668Z" fill="black"/>
<path d="M181.177 58.9269C180.387 58.0555 180.211 56.9256 180.143 55.935C179.931 52.8346 180.188 50.5042 181.003 48.1407C181.11 47.831 181.448 47.6672 181.757 47.7737C182.067 47.8803 182.231 48.2179 182.124 48.5276C181.364 50.7311 181.126 52.9227 181.327 55.854C181.383 56.6808 181.511 57.5285 182.056 58.1299C182.927 59.0893 184.632 59.0188 185.463 58.3193C185.714 58.1076 186.088 58.1403 186.299 58.3913C186.509 58.6418 186.477 59.0159 186.227 59.2266C184.809 60.4191 182.403 60.277 181.177 58.9264V58.9269Z" fill="black"/>
<path d="M190.46 53.8259C189.757 52.8864 189.104 51.6547 188.849 50.4783C188.768 50.1047 188.735 49.7112 188.689 49.339C187.119 49.6695 185.68 49.8869 184.232 48.9336C183.858 48.6878 183.499 48.3781 183.056 48.3166C182.274 48.2076 181.54 48.9118 180.762 48.7745C179.286 48.5136 179.943 46.3726 180.599 45.6443C181.266 44.9041 182.23 44.503 183.191 44.2435C186.327 43.3987 189.775 43.9442 192.565 45.5785C196.145 47.6749 196.322 50.3036 196.256 54.165C196.218 56.4039 196.565 58.6486 197.278 60.7715C197.512 61.4714 197.789 62.1699 197.842 62.9063C197.895 63.6427 197.68 64.4449 197.096 64.8967C196.186 65.6008 194.827 65.168 193.934 64.443C191.839 62.7434 191.149 59.5322 192.36 57.1218C192.715 56.4153 193.208 55.784 193.551 55.0718C193.895 54.3596 194.077 53.511 193.773 52.7812C192.993 50.914 190.254 52.0861 190.461 53.8264L190.46 53.8259Z" fill="black"/>
<path d="M193.56 64.903C191.259 63.0367 190.499 59.5021 191.83 56.8549C192.188 56.1413 192.701 55.4679 193.017 54.8135C193.209 54.4142 193.492 53.6485 193.225 53.0097C192.949 52.3481 192.39 52.3851 192.08 52.467C191.516 52.6152 190.975 53.138 191.049 53.7565C191.12 54.356 190.347 54.6662 189.985 54.1817C189.112 53.0149 188.369 51.5341 188.175 50.0452C184.502 50.7129 183.769 49.0157 182.974 48.904C182.432 48.8296 181.623 49.5253 180.659 49.3591C180.035 49.2487 179.583 48.8732 179.387 48.3025C179.03 47.264 179.605 45.8614 180.158 45.2481C180.808 44.5264 181.723 44.0259 183.037 43.6717C186.277 42.7989 189.859 43.3075 192.865 45.0677C196.679 47.301 196.919 50.1238 196.849 54.1761C196.812 56.3582 197.145 58.5143 197.84 60.5832C198.114 61.3779 198.379 62.0873 198.434 62.8644C198.508 63.901 198.144 64.8362 197.459 65.3661C196.323 66.2451 194.67 65.8042 193.561 64.904L193.56 64.903ZM194.085 55.3287C193.712 56.1029 193.237 56.6949 192.889 57.3877C191.799 59.5561 192.422 62.4524 194.307 63.9815C195.035 64.5725 196.101 64.9153 196.732 64.4266C197.167 64.0899 197.285 63.4416 197.25 62.9472C197.205 62.3184 196.956 61.6625 196.715 60.9592C195.976 58.7615 195.623 56.4723 195.662 54.1543C195.726 50.425 195.596 48.0402 192.265 46.0892C189.531 44.4885 186.281 44.0245 183.345 44.8148C182.262 45.1065 181.529 45.4958 181.039 46.0399C180.664 46.4562 180.339 47.4227 180.508 47.9147C180.554 48.0497 180.632 48.1477 180.864 48.1884C181.384 48.2831 182.194 47.597 183.136 47.7272C183.634 47.7968 184.017 48.0629 184.355 48.2978C185.715 49.2463 186.85 49.1185 188.566 48.7567C188.728 48.7221 188.897 48.7576 189.032 48.8542C189.387 49.1071 189.232 49.4457 189.427 50.3507C189.568 50.998 189.852 51.7088 190.239 52.4007C190.606 51.858 191.189 51.4721 191.778 51.3172C193.772 50.7958 195.295 52.8146 194.084 55.3268L194.085 55.3287Z" fill="black"/>
<path d="M184.68 64.4801C184.662 64.4801 184.644 64.4792 184.626 64.4777C184.3 64.4488 184.059 64.1609 184.088 63.8346C184.25 62.0072 184.301 60.9659 184.284 59.8549C184.28 59.5277 184.541 59.2577 184.868 59.253C185.193 59.2478 185.465 59.5097 185.471 59.8374C185.488 60.9786 185.433 62.0905 185.269 63.9398C185.242 64.2481 184.983 64.4806 184.679 64.4806L184.68 64.4801Z" fill="black"/>
<path d="M192.873 46.347C192.402 45.2896 192.971 43.9348 194.001 43.4058C195.031 42.8768 196.364 43.133 197.232 43.8992C198.281 44.8255 198.642 46.4484 198.087 47.7322C197.531 49.016 196.099 49.8622 194.706 49.7306" fill="black"/>
<path d="M194.649 50.321C194.323 50.2903 194.083 50.0009 194.114 49.6746C194.145 49.3488 194.436 49.1092 194.761 49.1405C195.894 49.2409 197.089 48.5405 197.541 47.4963C197.993 46.4521 197.691 45.0968 196.839 44.3438C196.122 43.7102 195.042 43.5378 194.271 43.9328C193.493 44.332 193.085 45.3677 193.413 46.105C193.546 46.4043 193.412 46.7547 193.113 46.8882C192.814 47.0232 192.464 46.8873 192.33 46.588C191.742 45.2682 192.383 43.5691 193.728 42.8782C194.936 42.2583 196.537 42.4951 197.623 43.455C198.864 44.5503 199.287 46.4488 198.629 47.9679C197.972 49.4843 196.3 50.4773 194.649 50.321Z" fill="black"/>
<path d="M160.407 79.5532C160.207 79.5532 160.012 79.4518 159.9 79.2681C159.73 78.9882 159.819 78.6236 160.099 78.4536L174.779 69.5242C175.059 69.3537 175.423 69.4423 175.594 69.7226C175.764 70.0025 175.676 70.3671 175.395 70.5371L160.715 79.4665C160.619 79.5252 160.513 79.5532 160.408 79.5532H160.407Z" fill="black"/>
<path d="M162.04 89.0627L158.501 81.8581C158.356 81.5645 158.478 81.2088 158.772 81.0644C159.065 80.9209 159.421 81.0412 159.565 81.3353L163.105 88.5399C163.249 88.8335 163.128 89.1892 162.834 89.3336C162.543 89.4762 162.186 89.3597 162.04 89.0627Z" fill="black"/>
<path d="M159.805 82.1344C162.462 80.224 159.121 76.4886 156.618 78.2015C154.059 79.9527 156.507 84.505 159.805 82.1344Z" fill="black"/>
<path d="M157.974 83.3972C155.119 83.3972 153.769 79.4316 156.282 77.7121C157.904 76.6031 159.853 77.3371 160.801 78.6881C161.604 79.8332 161.714 81.4911 160.149 82.6158C159.32 83.212 158.577 83.3967 157.974 83.3967V83.3972ZM157.997 78.3628C157.029 78.3628 156.051 79.1688 156.152 80.3702C156.214 81.0999 156.665 81.7795 157.277 82.0608C157.92 82.3577 158.674 82.2156 159.457 81.6531C160.674 80.7775 160.05 79.684 159.83 79.3696C159.416 78.7795 158.718 78.3628 157.997 78.3628Z" fill="black"/>
<path d="M145.038 76.7705C148.76 77.6371 152.436 78.7002 156.047 79.9537L145.038 76.7705Z" fill="black"/>
<path d="M155.851 80.5148C152.275 79.2727 148.591 78.2072 144.902 77.3486C144.583 77.2743 144.385 76.9556 144.459 76.6364C144.533 76.3177 144.852 76.1193 145.171 76.1932C148.901 77.0612 152.625 78.1385 156.24 79.3939C156.55 79.5014 156.713 79.8395 156.606 80.1488C156.497 80.4608 156.157 80.6209 155.851 80.5144V80.5148Z" fill="black"/>
<path d="M205.091 128.087C204.763 128.087 204.498 127.822 204.498 127.495V118.04L191.227 104.769C190.996 104.538 190.996 104.162 191.227 103.931C191.459 103.699 191.834 103.699 192.066 103.931L205.51 117.375C205.621 117.486 205.684 117.638 205.684 117.794V127.495C205.684 127.822 205.418 128.087 205.091 128.087H205.091Z" fill="black"/>
<path d="M227.307 166.158L184.821 163.749C182.96 163.644 181.446 161.894 181.446 159.849V132.271C181.446 130.226 182.96 128.476 184.821 128.371L227.307 125.962C228.485 125.899 229.589 126.291 230.42 127.075C231.228 127.84 231.674 128.881 231.674 130.007V162.112C231.674 164.433 229.757 166.291 227.308 166.158L227.307 166.158ZM227.56 127.141C227.499 127.141 227.437 127.142 227.375 127.146L184.888 129.555C183.644 129.625 182.633 130.844 182.633 132.271V159.848C182.633 161.275 183.644 162.494 184.888 162.564C191.223 162.923 221.024 164.613 227.375 164.973C229.063 165.081 230.488 163.812 230.488 162.112V130.007C230.488 129.21 230.174 128.475 229.605 127.937C229.058 127.42 228.337 127.14 227.56 127.14V127.141Z" fill="black"/>
<path d="M193.953 92.9338H191.647C191.319 92.9338 191.054 92.6682 191.054 92.3409C191.054 92.0137 191.319 91.748 191.647 91.748H193.953C194.281 91.748 194.546 92.0137 194.546 92.3409C194.546 92.6682 194.28 92.9338 193.953 92.9338Z" fill="black"/>
<path d="M199.121 92.9338H196.958C196.63 92.9338 196.365 92.6682 196.365 92.3409C196.365 92.0137 196.63 91.748 196.958 91.748H199.121C199.449 91.748 199.714 92.0137 199.714 92.3409C199.714 92.6682 199.448 92.9338 199.121 92.9338Z" fill="black"/>
<path d="M204.952 92.9338H202.77C202.442 92.9338 202.177 92.6682 202.177 92.3409C202.177 92.0137 202.442 91.748 202.77 91.748H204.952C205.279 91.748 205.545 92.0137 205.545 92.3409C205.545 92.6682 205.279 92.9338 204.952 92.9338Z" fill="black"/>
<path d="M210.404 92.9338H207.95C207.622 92.9338 207.357 92.6682 207.357 92.3409C207.357 92.0137 207.623 91.748 207.95 91.748H210.404C210.732 91.748 210.997 92.0137 210.997 92.3409C210.997 92.6682 210.731 92.9338 210.404 92.9338Z" fill="black"/>
<path d="M225.478 91.459L220.026 93.5071C220.194 93.8893 220.168 94.3491 219.786 94.7346C219.284 95.2417 218.662 95.6097 218.058 95.9814C217.447 96.3574 216.852 96.7775 216.198 97.0753C215.033 97.6053 214.131 96.5587 214.551 95.5638L210.94 96.9205C212.079 99.4242 214.454 101.357 217.16 101.849C219.866 102.34 222.823 101.326 224.571 99.2026C226.318 97.0787 226.729 93.9092 225.478 91.459Z" fill="#CCCCCC"/>
<path d="M218.707 84.7969C214.217 84.4242 210.273 87.768 209.9 92.2516C209.505 96.9943 213.233 101.088 218.044 101.088C222.231 101.088 225.805 97.8789 226.161 93.6046C226.341 91.4328 223.201 85.172 218.707 84.7969ZM222.357 91.2027L216.814 95.8947C216.572 96.0997 216.211 96.0784 215.995 95.844C215.247 95.0333 214.359 94.3026 213.573 93.4516C213.351 93.2106 213.366 92.8355 213.607 92.6134C213.847 92.3918 214.223 92.4065 214.445 92.647C215.067 93.3214 215.8 93.9531 216.472 94.6298L221.591 90.2977C221.841 90.0856 222.215 90.1173 222.427 90.3673C222.638 90.6174 222.607 90.9915 222.357 91.2027Z" fill="black"/>
<path d="M193.143 149.781L187.996 149.443C187.455 149.407 187.035 148.958 187.035 148.416V136.123C187.035 135.581 187.456 135.132 187.996 135.097L193.143 134.758C193.737 134.719 194.24 135.19 194.24 135.784V148.755C194.24 149.35 193.737 149.82 193.143 149.781Z" fill="black"/>
<path d="M203 150.063L197.853 149.715C197.313 149.679 196.894 149.231 196.894 148.689V136.037C196.894 135.496 197.313 135.047 197.853 135.011L203 134.664C203.594 134.623 204.098 135.094 204.098 135.69V149.036C204.098 149.632 203.594 150.103 203 150.063Z" fill="black"/>
<path d="M213.615 150.345L208.467 149.99C207.928 149.952 207.51 149.504 207.51 148.964V135.953C207.51 135.412 207.928 134.964 208.467 134.927L213.615 134.571C214.209 134.53 214.714 135.001 214.714 135.597V149.319C214.714 149.915 214.209 150.387 213.615 150.345Z" fill="black"/>
<path d="M187.14 133.043C187.768 133.033 188.269 132.495 188.259 131.841C188.249 131.187 187.732 130.664 187.104 130.673C186.476 130.683 185.975 131.221 185.985 131.875C185.994 132.529 186.512 133.052 187.14 133.043Z" fill="black"/>
<path d="M191.212 132.988C191.841 132.979 192.342 132.441 192.332 131.786C192.322 131.132 191.805 130.609 191.177 130.619C190.549 130.628 190.048 131.166 190.057 131.82C190.067 132.475 190.584 132.998 191.212 132.988Z" fill="black"/>
<path d="M195.002 132.931C195.63 132.922 196.131 132.384 196.122 131.73C196.112 131.075 195.595 130.553 194.966 130.562C194.338 130.571 193.837 131.11 193.847 131.764C193.857 132.418 194.374 132.941 195.002 132.931Z" fill="black"/>
<path d="M221.476 156.14C221.455 156.14 221.435 156.139 221.413 156.136C203.158 154.23 188.068 154.452 188.108 154.453C187.781 154.453 187.516 154.189 187.515 153.862C187.514 153.535 187.779 153.269 188.107 153.268C199.228 153.239 210.477 153.803 221.537 154.957C221.863 154.991 222.099 155.283 222.065 155.608C222.033 155.913 221.776 156.14 221.476 156.14V156.14Z" fill="black"/>
<path d="M212.731 159.572L193.268 158.913C192.94 158.902 192.684 158.627 192.695 158.3C192.706 157.973 192.966 157.707 193.308 157.728L212.772 158.387C213.099 158.398 213.356 158.672 213.344 159C213.333 159.341 213.037 159.589 212.731 159.572Z" fill="black"/>
<path d="M227.303 138.943H219.198C218.871 138.943 218.605 138.677 218.605 138.35C218.605 138.023 218.871 137.757 219.198 137.757H227.303C227.631 137.757 227.896 138.023 227.896 138.35C227.896 138.677 227.631 138.943 227.303 138.943Z" fill="black"/>
<path d="M226.42 144.885H218.315C217.987 144.885 217.722 144.619 217.722 144.292C217.722 143.965 217.988 143.699 218.315 143.699H226.42C226.748 143.699 227.013 143.965 227.013 144.292C227.013 144.619 226.747 144.885 226.42 144.885Z" fill="black"/>
<path d="M224.385 149.941H221.096C220.768 149.941 220.503 149.675 220.503 149.348C220.503 149.021 220.769 148.755 221.096 148.755H224.385C224.712 148.755 224.977 149.021 224.977 149.348C224.977 149.675 224.712 149.941 224.385 149.941Z" fill="black"/>
<path d="M232.156 127.574C233.159 128.92 233.351 131.209 233.483 132.882C234.147 141.32 233.291 148.801 233.315 156.894C233.319 158.39 233.376 159.902 233.087 161.371C232.797 162.84 232.117 164.292 230.917 165.188C229.718 166.083 227.938 166.286 226.729 165.402C228.079 165.79 229.521 164.834 230.165 163.587C230.809 162.339 230.848 160.879 230.874 159.476C231.044 150.368 231.214 141.262 231.383 132.154C231.409 130.765 231.423 129.316 230.815 128.066C230.381 127.172 228.547 126.544 227.605 126.247C228.88 125.795 231.431 126.602 232.155 127.574L232.156 127.574Z" fill="black"/>
<path d="M90.8525 197.99C90.6816 197.99 90.512 197.916 90.3951 197.774C90.1862 197.522 90.2218 197.148 90.4746 196.939C91.1617 196.372 91.6012 195.478 91.6798 194.488C91.7584 193.498 91.4657 192.546 90.8771 191.877L90.8151 191.807C90.2312 191.145 89.2534 190.037 90.0442 189.028C90.2648 188.746 90.5561 188.605 90.79 188.49C90.8937 188.44 90.9913 188.393 91.0613 188.343C91.2441 188.214 91.3095 188.007 91.3322 187.855C91.3824 187.516 91.2763 187.118 91.0609 186.842C90.6072 186.259 89.8046 185.948 89.0971 185.674C88.8769 185.589 88.7282 185.381 88.7187 185.145C88.7093 184.909 88.8409 184.69 89.0535 184.587C90.0072 184.127 90.6688 183.066 90.6626 182.007C90.6565 180.948 89.9831 179.895 89.0242 179.446C88.7277 179.307 88.5999 178.953 88.7386 178.657C88.8779 178.361 89.2311 178.233 89.5275 178.371C90.9074 179.018 91.8403 180.476 91.8488 182C91.8555 183.131 91.353 184.231 90.5333 184.994C91.0689 185.256 91.5983 185.601 91.997 186.113C92.4147 186.65 92.6046 187.366 92.5061 188.03C92.4261 188.568 92.1557 189.024 91.7451 189.312C91.5969 189.417 91.4449 189.491 91.3104 189.556C91.1669 189.626 91.031 189.693 90.9789 189.759C90.7971 189.991 91.3881 190.661 91.7058 191.021L91.7693 191.092C92.5691 192.002 92.9678 193.273 92.8641 194.582C92.7599 195.89 92.1651 197.082 91.2318 197.853C91.121 197.945 90.9875 197.989 90.8544 197.989L90.8525 197.99Z" fill="black"/>
<path d="M113.29 178.246C113.161 178.246 113.031 178.203 112.922 178.117C111.61 177.075 110.022 176.337 108.372 175.995C108.363 176.111 108.342 176.23 108.308 176.35C108.116 177.029 107.548 177.597 106.895 177.763C105.793 178.043 104.752 177.476 104.065 177.025C103.958 176.955 103.851 176.883 103.744 176.811C103.18 176.43 102.648 176.071 102.074 175.987C101.749 175.939 101.526 175.638 101.573 175.313C101.621 174.989 101.921 174.766 102.246 174.813C103.088 174.937 103.788 175.41 104.407 175.827C104.51 175.897 104.613 175.966 104.716 176.033C105.51 176.555 106.11 176.738 106.603 176.613C106.847 176.552 107.089 176.299 107.167 176.027C107.211 175.872 107.193 175.752 107.115 175.672C106.941 175.492 106.898 175.222 107.009 174.997C107.121 174.771 107.361 174.636 107.611 174.67C109.824 174.932 111.915 175.803 113.66 177.188C113.916 177.392 113.959 177.765 113.755 178.021C113.638 178.168 113.465 178.246 113.29 178.246Z" fill="black"/>
<path d="M198.896 199.828C197.542 199.99 196.279 200.84 195.14 202.352C192.51 205.85 191.79 210.245 191.406 214.474C191.379 214.772 191.599 215.035 191.897 215.062C192.188 215.086 192.459 214.87 192.487 214.572C192.857 210.502 193.54 206.283 196.008 203.003C196.962 201.736 197.977 201.03 199.026 200.903C201.46 200.605 204.209 203.352 203.646 206.795C203.345 208.638 202.167 210.424 200.332 211.823C198.818 212.976 196.523 213.361 194.485 213.897C195.346 212.612 196.245 211.353 197.183 210.128C197.365 209.89 197.319 209.551 197.081 209.368C196.843 209.187 196.503 209.232 196.32 209.47C193.958 212.553 191.831 215.842 189.991 219.249C189.069 219.235 187.637 219.209 186.789 219.192C186.548 212.76 188.036 206.37 191.051 200.669C191.167 200.997 191.544 201.126 191.832 200.961C194.294 199.561 197.09 198.223 198.874 196.075C202.761 191.396 200.847 186.216 197.653 185.491C196.252 185.173 194.607 185.738 193.257 187.003C191.833 188.338 190.826 190.158 190.262 192.415C189.776 194.356 189.089 200.095 188.995 202.077C188.991 202.164 189.009 202.245 189.042 202.318C186.656 207.603 185.495 213.369 185.704 219.172C185.473 219.168 185.244 219.163 185.012 219.159C184.143 216.687 183.286 214.315 182.653 212.041C182.949 212.171 183.263 212.026 183.375 211.757C184.346 209.436 185.35 207.036 185.545 204.458C185.764 201.536 184.755 198.829 182.845 197.217C180.799 195.488 177.105 194.975 174.871 196.968C173.74 197.978 173.109 199.518 173.14 201.193C173.166 202.623 173.671 204.519 174.395 205.911C176.254 209.485 177.677 210.295 181.316 213.084C181.414 213.16 181.531 213.196 181.645 213.196C181.713 213.196 181.78 213.181 181.844 213.155C182.42 215.091 183.109 217.018 183.856 219.142C182.133 219.117 180.402 219.101 178.708 219.121C176.777 219.142 175.388 221.032 175.93 222.939C176.877 226.261 177.86 230.056 178.88 233.549C179.033 234.074 179.323 234.523 179.697 234.876H175.665C175.365 234.876 175.122 235.119 175.122 235.418C175.122 235.717 175.365 235.96 175.665 235.96H200.124C200.424 235.96 200.667 235.717 200.667 235.418C200.667 235.119 200.424 234.876 200.124 234.876H193.571C194.211 234.503 194.706 233.89 194.925 233.135L197.838 223.104C198.914 219.401 194.162 219.096 194.952 219.275C193.835 219.288 192.329 219.278 191.219 219.266C192.006 217.835 192.843 216.426 193.73 215.046C193.814 215.097 193.908 215.13 194.008 215.13C194.179 215.13 193.957 215.13 195.897 214.658C197.702 214.22 199.57 213.766 200.988 212.685C203.046 211.117 204.369 209.088 204.715 206.97C205.406 202.745 202.011 199.454 198.893 199.829L198.896 199.828ZM191.315 192.676C191.828 190.625 192.732 188.982 194.001 187.792C198.376 183.691 202.46 190.06 198.039 195.383C196.432 197.317 193.789 198.61 191.461 199.927C192.354 198.328 193.361 196.783 194.493 195.314C194.677 195.076 194.631 194.736 194.395 194.554C194.157 194.372 193.816 194.415 193.633 194.652C192.367 196.296 191.25 198.032 190.274 199.833C190.532 197.352 190.984 194.002 191.315 192.676ZM175.358 205.41C174.715 204.173 174.248 202.431 174.225 201.172C174.2 199.812 174.698 198.574 175.594 197.775C177.209 196.334 180.269 196.459 182.144 198.042C183.789 199.432 184.656 201.799 184.462 204.375C184.284 206.732 183.349 209.006 182.429 211.206C181.956 209.365 181.617 207.502 181.531 205.617C181.517 205.319 181.27 205.085 180.964 205.101C180.665 205.115 180.433 205.368 180.447 205.666C180.543 207.765 180.935 209.821 181.474 211.84C178.287 209.416 177.023 208.608 175.358 205.41H175.358ZM179.04 222.338C179.034 222.138 179.192 221.973 179.392 221.967C179.6 221.965 179.759 222.119 179.764 222.319C179.839 225.11 180.828 227.841 182.548 230.009C182.737 230.248 182.563 230.594 182.264 230.594C182.158 230.594 182.052 230.548 181.98 230.457C180.164 228.167 179.119 225.284 179.039 222.339L179.04 222.338ZM192.082 228.924C192.054 228.846 192.019 228.769 191.985 228.691C191.622 227.862 191.689 227.469 192.337 226.871C192.384 226.829 192.43 226.786 192.475 226.742C192.621 226.596 192.692 226.41 192.655 226.355C192.639 226.33 192.588 226.292 192.543 226.259C192.455 226.192 192.343 226.109 192.258 225.976C191.867 225.368 192.481 224.665 193.188 224.538C193.423 224.497 193.709 224.463 193.888 224.389C192.903 223.244 193.636 221.552 195.009 221.393C195.211 221.369 195.387 221.512 195.409 221.71C195.432 221.908 195.291 222.087 195.092 222.11C194.673 222.158 194.294 222.499 194.191 222.921C194.087 223.346 194.265 223.833 194.616 224.081C194.756 224.179 194.807 224.363 194.739 224.519C194.494 225.08 193.888 225.155 193.317 225.248C193.042 225.298 192.833 225.533 192.867 225.586C192.92 225.668 193.112 225.737 193.256 225.953C193.543 226.379 193.327 226.913 192.987 227.253C192.476 227.762 192.35 227.721 192.649 228.401C192.688 228.493 192.729 228.584 192.762 228.674C192.976 229.253 192.79 229.995 192.182 230.095C191.995 230.128 191.8 230.001 191.766 229.798C191.733 229.601 191.867 229.415 192.064 229.382C192.11 229.351 192.158 229.128 192.083 228.924L192.082 228.924Z" fill="black"/>
</svg>
