<svg width="80" height="85" viewBox="0 0 80 85" fill="none" xmlns="http://www.w3.org/2000/svg">
<path d="M16.8817 13.0391L13.2095 37.8764L39.2665 41.7288L43.0066 16.4316L16.8817 13.0391Z" fill="#F5F5F5"/>
<path d="M19.232 24.2296L18.1273 31.7014L25.9663 32.8604L27.0914 25.2503L19.232 24.2296Z" fill="black"/>
<path d="M42.0234 23.0818L15.9665 19.2293L16.8817 13.0391L43.0066 16.4316L42.0234 23.0818Z" fill="black"/>
<path d="M39.2264 42.0012L13.1695 38.1487C13.0177 38.1262 12.9129 37.9855 12.9352 37.8344L16.6073 12.9974C16.6294 12.8482 16.7673 12.7442 16.9175 12.7636L43.0424 16.1561C43.1159 16.1658 43.1834 16.2042 43.2282 16.2636C43.2731 16.3228 43.2923 16.3977 43.2814 16.4711L39.5413 41.7681C39.519 41.9192 39.3779 42.0236 39.2261 42.0011L39.2264 42.0012ZM13.5248 37.6422L39.0326 41.4135L42.6911 16.6683L17.1168 13.3475L13.5248 37.6422Z" fill="black"/>
<path d="M18.5691 15.8637C18.2351 16.5167 18.4786 17.4017 19.1127 17.782C20.0677 18.3548 21.3249 17.6141 21.3808 16.5324C21.4163 15.8474 20.9585 15.2559 20.2905 15.1107C19.6256 14.9664 18.8865 15.2433 18.5691 15.8637Z" fill="#F5F5F5"/>
<path d="M22.9554 16.5131C22.6213 17.1661 22.8649 18.0511 23.499 18.4314C24.4539 19.0042 25.7111 18.2635 25.767 17.1818C25.8026 16.4968 25.3447 15.9054 24.6767 15.7601C24.0118 15.6158 23.2728 15.8928 22.9554 16.5131Z" fill="#F5F5F5"/>
<path d="M53.1746 17.6889L42.444 40.3964L66.2749 51.5968L77.2043 28.4688L53.1746 17.6889Z" fill="black"/>
<path d="M53.9699 20.8798C53.4602 21.4083 53.4365 22.3254 53.9332 22.8723C54.6811 23.6955 56.1005 23.3495 56.4681 22.3305C56.701 21.6853 56.4344 20.9872 55.837 20.6557C55.2422 20.3257 54.4542 20.3778 53.9701 20.8799L53.9699 20.8798Z" fill="#F5F5F5"/>
<path d="M57.9801 22.7651C57.4705 23.2936 57.4468 24.2106 57.9432 24.7575C58.6911 25.5807 60.1105 25.2347 60.4781 24.2158C60.7107 23.5705 60.4444 22.8724 59.847 22.5409C59.2521 22.2109 58.4642 22.263 57.9801 22.7651Z" fill="#F5F5F5"/>
<path d="M30.1874 34.4045L26.5152 59.2418L52.5724 63.0943L56.3126 37.7974L30.1874 34.4045Z" fill="#F5F5F5"/>
<path d="M55.3294 44.4475L29.2721 40.595L30.1874 34.4045L56.3126 37.7974L55.3294 44.4475Z" fill="black"/>
<path d="M52.5319 63.3675L26.4746 59.515C26.3229 59.4925 26.218 59.3518 26.2404 59.2007L29.9125 34.3637C29.9346 34.2145 30.0724 34.1105 30.2229 34.1299L56.3478 37.5224C56.4204 37.5308 56.4885 37.571 56.5337 37.63C56.5785 37.6892 56.5977 37.7641 56.5869 37.8374L52.8467 63.1347C52.8244 63.2858 52.6833 63.3902 52.5315 63.3677L52.5319 63.3675ZM26.8303 59.0085L52.338 62.7798L55.9966 38.0347L30.4222 34.7138L26.8303 59.0085Z" fill="black"/>
<path d="M31.8743 37.2304C31.5403 37.8833 31.7838 38.7684 32.4179 39.1487C33.3728 39.7215 34.6304 38.9808 34.6862 37.8991C34.7215 37.2141 34.2639 36.6227 33.596 36.4774C32.931 36.3332 32.192 36.6101 31.8746 37.2305L31.8743 37.2304Z" fill="#F5F5F5"/>
<path d="M36.261 37.8788C35.927 38.5318 36.1705 39.4168 36.8046 39.7972C37.7593 40.3699 39.0168 39.6292 39.0727 38.5475C39.1079 37.8625 38.6503 37.2711 37.9821 37.1258C37.3172 36.9815 36.5781 37.2584 36.2607 37.8788L36.261 37.8788Z" fill="#F5F5F5"/>
<path d="M48.4096 12.9724C48.1283 12.9308 47.864 12.7909 47.6444 12.5681C47.5372 12.4589 47.5389 12.2837 47.6483 12.177C47.7578 12.0703 47.9336 12.0725 48.0408 12.1813C48.2052 12.3484 48.3899 12.4345 48.596 12.4328C48.6568 12.4324 48.7187 12.4234 48.7797 12.4066C48.927 12.3658 49.0806 12.4516 49.122 12.5985C49.1634 12.7456 49.0777 12.8983 48.9298 12.9393C48.8216 12.9692 48.7108 12.9853 48.6007 12.986C48.5363 12.9865 48.4721 12.9819 48.4095 12.9726L48.4096 12.9724ZM49.6172 12.2298C49.5907 12.2259 49.5641 12.2182 49.5386 12.2061C49.4001 12.1405 49.3412 11.9756 49.4068 11.8377C49.4248 11.8002 49.4408 11.7621 49.4543 11.7233C49.4861 11.6327 49.5097 11.5354 49.5247 11.4342C49.5489 11.2707 49.5517 11.096 49.5332 10.8994C49.5187 10.7474 49.6309 10.6127 49.7837 10.5988C49.9362 10.5849 50.0716 10.6965 50.0857 10.8487C50.1083 11.0895 50.1043 11.3075 50.0736 11.5154C50.0535 11.6514 50.0213 11.783 49.978 11.9067C49.9577 11.964 49.9347 12.0203 49.908 12.0755C49.8545 12.1879 49.7344 12.2477 49.6168 12.2303L49.6172 12.2298ZM47.3343 11.6634C47.2164 11.646 47.1185 11.5537 47.1002 11.4301C47.0844 11.3241 47.0769 11.2173 47.0776 11.1132C47.0788 10.9784 47.089 10.843 47.1086 10.7106C47.1332 10.544 47.173 10.3765 47.2271 10.213C47.2751 10.068 47.4322 9.98955 47.5774 10.0369C47.7231 10.0848 47.8023 10.2412 47.7546 10.3864C47.7103 10.5199 47.678 10.6564 47.658 10.7919C47.6422 10.8989 47.6337 11.0088 47.6329 11.1178C47.6326 11.1936 47.6381 11.2719 47.6496 11.35C47.6719 11.5011 47.5673 11.6416 47.4155 11.6639C47.3878 11.6679 47.3608 11.6676 47.3346 11.6637L47.3343 11.6634ZM66.6359 14.3087C66.5389 14.2943 66.4523 14.229 66.4158 14.1308C66.415 14.1284 66.3329 13.9093 66.173 13.5543C66.1103 13.4149 66.1725 13.2513 66.3123 13.189C66.4519 13.1263 66.6165 13.1886 66.6794 13.3282C66.8481 13.702 66.9329 13.9299 66.9363 13.9396C66.9895 14.083 66.9161 14.2419 66.7723 14.2947C66.7272 14.3113 66.6804 14.3155 66.6359 14.309L66.6359 14.3087ZM32.3448 9.15666C32.3257 9.15382 32.3065 9.14898 32.2877 9.14189C32.144 9.0882 32.0713 8.92872 32.125 8.78591C32.2593 8.42905 32.432 8.0796 32.6383 7.74715C32.7189 7.61723 32.8896 7.57729 33.0202 7.65746C33.1507 7.73792 33.1912 7.90843 33.1106 8.03836C32.9232 8.34057 32.7666 8.65738 32.6449 8.9808C32.5984 9.10484 32.4714 9.17566 32.3448 9.15694L32.3448 9.15666ZM65.8962 12.7186C65.8119 12.7061 65.7344 12.6553 65.6913 12.5746C65.5191 12.2516 65.3359 11.9331 65.1471 11.6287C65.0666 11.4988 65.1068 11.3284 65.2374 11.2481C65.368 11.1683 65.5389 11.2088 65.6195 11.3382C65.8148 11.653 66.004 11.9819 66.1818 12.3154C66.2538 12.4504 66.2022 12.6179 66.0668 12.6895C66.0124 12.7182 65.9529 12.727 65.8962 12.7186ZM49.5306 10.0687C49.4293 10.0537 49.3403 9.98338 49.3066 9.87963C49.1986 9.5458 49.0604 9.21728 48.8959 8.90323C48.8851 8.88268 48.8773 8.86143 48.872 8.84027C48.6258 9.04936 48.4124 9.27049 48.2361 9.49969C48.143 9.62087 47.9687 9.64363 47.847 9.55069C47.7253 9.45747 47.7022 9.28408 47.7954 9.16289C48.0206 8.87 48.2974 8.59021 48.6182 8.33098C48.7373 8.23489 48.9119 8.25295 49.0088 8.3715C49.0422 8.41234 49.062 8.46005 49.0686 8.5087C49.1921 8.4747 49.3266 8.53018 49.3882 8.64782C49.5674 8.98959 49.7177 9.3469 49.8355 9.71031C49.8826 9.85567 49.8025 10.0115 49.6564 10.0582C49.6146 10.0719 49.5718 10.0747 49.5309 10.0687L49.5306 10.0687ZM33.4994 7.28355C33.4475 7.27588 33.3969 7.25347 33.3547 7.21564C33.2407 7.1135 33.2311 6.93866 33.3332 6.82484C33.5849 6.54535 33.8666 6.27976 34.1705 6.03526C34.2898 5.93977 34.4644 5.95783 34.561 6.07691C34.6572 6.19566 34.639 6.36984 34.5196 6.46589C34.2386 6.69167 33.9786 6.9372 33.7466 7.19462C33.6821 7.26635 33.5883 7.29641 33.4992 7.28323L33.4994 7.28355ZM64.7254 10.8356C64.6538 10.825 64.5865 10.7869 64.5408 10.7236C64.3234 10.4236 64.0972 10.1369 63.8682 9.87072C63.7683 9.75488 63.7817 9.58028 63.8982 9.48092C64.0146 9.38156 64.1898 9.3954 64.2894 9.5112C64.5285 9.78889 64.7644 10.0882 64.9906 10.4005C65.0804 10.5243 65.0525 10.6973 64.9284 10.7866C64.8674 10.8305 64.7945 10.8461 64.7254 10.8359L64.7254 10.8356ZM48.5074 8.11533C48.438 8.10507 48.3724 8.06896 48.3266 8.00877C48.1118 7.72635 47.8728 7.4616 47.6157 7.22202C47.5037 7.1176 47.4979 6.94245 47.6026 6.83102C47.7073 6.7193 47.8828 6.71366 47.9951 6.81812C48.2749 7.07944 48.5353 7.36745 48.7691 7.67452C48.8618 7.79646 48.8379 7.9698 48.7156 8.06198C48.654 8.10857 48.5785 8.12556 48.5074 8.11505L48.5074 8.11533ZM49.6744 8.20517C49.5918 8.19296 49.5152 8.14345 49.4715 8.06491C49.3976 7.9311 49.4464 7.76287 49.5806 7.6894C49.7042 7.62125 49.8292 7.55761 49.9544 7.49831C50.1661 7.3981 50.3889 7.30068 50.6161 7.20879C50.758 7.15139 50.92 7.21956 50.9777 7.36132C51.0355 7.5028 50.967 7.66409 50.825 7.72149C50.6077 7.8091 50.3954 7.90203 50.1936 7.99768C50.0783 8.05241 49.9629 8.11145 49.8488 8.17382C49.7935 8.20441 49.7325 8.21377 49.6744 8.20517ZM35.2173 5.89687C35.1372 5.88503 35.0628 5.83843 35.0186 5.76354C34.9406 5.63171 34.9847 5.46222 35.1166 5.38496C35.4445 5.19281 35.7901 5.02138 36.144 4.8753C36.2855 4.81697 36.4479 4.88405 36.5069 5.02542C36.5656 5.16647 36.4984 5.32825 36.3566 5.38653C36.0264 5.52262 35.7039 5.68253 35.3984 5.86162C35.3415 5.89513 35.2777 5.9058 35.2171 5.89683L35.2173 5.89687ZM63.2756 9.15945C63.2209 9.15136 63.1677 9.12684 63.1245 9.08571C62.8574 8.83145 62.5813 8.59739 62.3038 8.39068C62.181 8.2993 62.1559 8.1259 62.2475 8.00363C62.3393 7.88139 62.5131 7.85626 62.6361 7.94824C62.9313 8.16819 63.2246 8.41656 63.5078 8.68614C63.6187 8.79183 63.6228 8.96701 63.5169 9.0774C63.4524 9.14482 63.3616 9.17245 63.2755 9.15973L63.2756 9.15945ZM51.7263 7.36891C51.6239 7.35377 51.5339 7.2819 51.5013 7.17687C51.456 7.03091 51.538 6.87621 51.6844 6.83124C52.0407 6.72169 52.4087 6.6245 52.7788 6.54254C52.9284 6.50952 53.0768 6.60325 53.1104 6.75236C53.144 6.90146 53.0498 7.04919 52.9002 7.08249C52.5447 7.16143 52.1907 7.25497 51.849 7.35977C51.8079 7.37237 51.7663 7.37511 51.7265 7.36923L51.7263 7.36891ZM46.8935 6.60931C46.8543 6.60352 46.8155 6.58916 46.7803 6.56587C46.4958 6.3768 46.1823 6.19922 45.8484 6.03817C45.7104 5.97153 45.6524 5.80619 45.7191 5.66875C45.7859 5.53104 45.9518 5.47344 46.0897 5.54036C46.4465 5.71255 46.7821 5.90258 47.0879 6.1057C47.2154 6.1906 47.25 6.36225 47.1649 6.48922C47.1034 6.5812 46.9962 6.62449 46.8932 6.60927L46.8935 6.60931ZM37.2617 5.0529C37.1551 5.03713 37.063 4.96006 37.0338 4.84951C36.9945 4.70186 37.0832 4.55044 37.2313 4.51175C37.592 4.41721 37.9691 4.34232 38.3511 4.28911C38.5036 4.26744 38.6433 4.37337 38.6648 4.5247C38.6862 4.67603 38.5805 4.81575 38.4287 4.83694C38.0679 4.88725 37.7127 4.95792 37.3727 5.04663C37.3352 5.05659 37.2975 5.05819 37.2614 5.05285L37.2617 5.0529ZM44.9044 5.63674C44.8867 5.63411 44.8688 5.62975 44.8511 5.62339C44.5291 5.5086 44.1797 5.39952 43.8122 5.30039C43.6642 5.26042 43.5766 5.10849 43.6165 4.96107C43.6565 4.81365 43.8099 4.72549 43.9569 4.76646C44.3385 4.86941 44.7022 4.98262 45.0379 5.10259C45.1822 5.15407 45.2573 5.31248 45.2058 5.45618C45.1606 5.58244 45.0325 5.65539 44.9042 5.63641L44.9044 5.63674ZM53.8906 6.88695C53.7721 6.86943 53.6743 6.77658 53.6563 6.65275C53.6343 6.50134 53.7398 6.3613 53.8914 6.33979C54.2612 6.28679 54.6397 6.24743 55.0161 6.22239C55.1692 6.21229 55.3015 6.32746 55.3118 6.48002C55.3221 6.63229 55.2066 6.76424 55.0535 6.77434C54.6908 6.79852 54.3267 6.83656 53.9707 6.8873C53.9436 6.89133 53.9165 6.89106 53.8906 6.88723L53.8906 6.88695ZM39.4547 4.74142C39.3247 4.7222 39.223 4.61298 39.2179 4.47756C39.2125 4.32488 39.332 4.19697 39.4856 4.19153C39.8526 4.1789 40.2347 4.18342 40.6209 4.2052C40.772 4.21461 40.8911 4.3445 40.8824 4.49711C40.874 4.64948 40.7429 4.7662 40.59 4.75766C40.2206 4.73694 39.8558 4.73239 39.5056 4.74463C39.4882 4.74522 39.4713 4.74416 39.455 4.74175L39.4547 4.74142ZM61.4957 7.84396C61.4644 7.83933 61.4336 7.82932 61.404 7.81345C61.0856 7.64147 60.7585 7.49837 60.4315 7.38829C60.2863 7.33925 60.2083 7.18243 60.2572 7.03747C60.3062 6.89283 60.464 6.81595 60.6087 6.86434C60.9654 6.98454 61.3216 7.1403 61.6678 7.32729C61.8026 7.40006 61.8527 7.56797 61.7798 7.7022C61.7228 7.80747 61.6074 7.86047 61.4952 7.84388L61.4957 7.84396ZM42.7643 5.05042C42.4339 4.9829 42.1207 4.92568 41.8174 4.88342C41.7691 4.87629 41.7211 4.86948 41.6734 4.863C41.5293 4.84715 41.4151 4.70336 41.4355 4.55189C41.4561 4.40047 41.5958 4.2942 41.7478 4.31495C41.8082 4.32331 41.8684 4.33164 41.929 4.34088C42.2322 4.38571 42.5459 4.44128 42.8606 4.50618C43.0108 4.53701 43.1073 4.68364 43.0766 4.833C43.0469 4.97734 42.9089 5.07209 42.7645 5.05074L42.7643 5.05042ZM56.1038 6.73925C55.9693 6.71936 55.8662 6.60334 55.867 6.4639C55.8679 6.31129 55.993 6.18823 56.1463 6.18906C56.5191 6.19165 56.8989 6.20817 57.2755 6.23829C57.429 6.24663 57.5425 6.38344 57.5304 6.53583C57.5182 6.68822 57.3847 6.80171 57.2317 6.78943C56.8688 6.76075 56.5025 6.74479 56.1429 6.74215C56.1297 6.74192 56.1166 6.74085 56.1036 6.73893L56.1038 6.73925ZM59.4078 7.11719C59.0334 7.03486 58.6727 6.96774 58.3155 6.91406C58.1638 6.89134 58.0595 6.75017 58.0821 6.59932C58.1051 6.44823 58.2413 6.34749 58.3978 6.36718C58.7677 6.42274 59.141 6.49229 59.508 6.57354C59.6576 6.60685 59.7522 6.75464 59.7189 6.90363C59.6872 7.04623 59.5505 7.13829 59.4078 7.11719Z" fill="black"/>
<path d="M50.8944 56.4096L43.0554 55.2506C42.9037 55.2282 42.7988 55.0875 42.8212 54.9363L43.9259 47.4642C43.948 47.315 44.0858 47.211 44.2363 47.2304L52.0957 48.2512C52.1703 48.2613 52.2365 48.2992 52.2816 48.3587C52.3265 48.4179 52.3456 48.4928 52.3348 48.5662L51.2096 56.1765C51.1873 56.3274 51.0462 56.432 50.8944 56.4096ZM43.411 54.7441L50.7006 55.8219L51.7441 48.7637L44.4356 47.8146L43.411 54.7441Z" fill="black"/>
<path d="M14.9158 78.7518C14.9158 78.7518 17.4606 73.5976 20.1702 71.5649C22.8798 69.5319 26.8221 68.0891 27.8105 66.9363C28.7989 65.7835 30.1527 64.9328 30.6765 62.2043C31.2003 59.4753 31.356 59.4199 32.382 58.6151C33.4077 57.8102 34.3089 57.1708 33.9129 56.0531C33.5168 54.9354 31.9297 54.4977 31.0084 55.4817C30.0872 56.4657 28.7215 58.1729 28.0875 59.1736C27.4536 60.1742 26.4552 61.4995 25.1755 61.7133C23.8959 61.9272 21.5257 62.0783 22.4585 58.9054C23.3912 55.7324 25.8043 54.8349 27.9619 54.3835C30.1192 53.9321 34.4686 54.4146 35.2812 53.309C36.0939 52.2035 37.2171 50.7127 34.7487 50.5697C32.2803 50.4268 28.2959 50.5996 28.2959 50.5996C28.2959 50.5996 27.8766 49.8838 27.2143 49.3843C26.552 48.8849 24.6358 48.4685 24.6358 48.4685C24.6358 48.4685 24.6087 46.6402 22.0388 46.2609C19.4688 45.8815 18.1426 46.8995 17.5386 47.3834C16.9346 47.8673 15.8752 49.4343 15.8313 49.0134C15.7874 48.5925 17.1348 45.4009 17.842 43.1367C18.5491 40.8724 19.223 39.1829 17.8552 38.9306C16.4873 38.6787 15.7046 39.2671 14.064 43.7243C12.4234 48.1815 10.8796 50.9736 10.3988 53.3085C9.91795 55.6433 7.25246 65.8617 6.68714 67.6727C6.12141 69.4841 3.52167 73.5979 3.52167 73.5979L14.9153 78.7526L14.9158 78.7518Z" fill="#F5F5F5"/>
<path d="M32.2723 49.9799C31.3362 49.9815 30.403 50.0742 29.4736 50.1756C28.5738 50.2737 27.6736 50.3729 26.7777 50.5042C23.5815 50.9726 20.1999 51.9709 18.0897 54.5901C17.8506 54.8871 17.638 55.2027 17.4415 55.529C17.3235 55.7247 17.4583 56.0023 17.6491 56.0901C17.8754 56.1944 18.0919 56.0789 18.21 55.8824C19.8889 53.0931 23.218 51.9377 26.2604 51.4332C27.151 51.2853 28.0478 51.1785 28.945 51.0779C29.8703 50.974 30.7967 50.8662 31.7271 50.8281C32.6517 50.7904 33.5796 50.8294 34.4854 51.0294C34.9369 51.1289 35.7957 51.3633 35.8605 51.9325C35.8948 52.231 35.6202 52.5116 35.4204 52.6995C35.2153 52.8925 34.9649 53.05 34.7074 53.1627C34.1145 53.4218 33.4699 53.5063 32.8292 53.5453C32.1375 53.5875 31.4444 53.5718 30.7519 53.5872C29.9748 53.6046 29.2113 53.6931 28.454 53.8701C26.9397 54.2233 25.493 54.9323 24.2861 55.913C23.0922 56.8827 21.8358 58.2292 21.8526 59.8687C21.8599 60.5793 22.1436 61.3067 22.6779 61.7851C23.2853 62.3283 24.136 62.4226 24.9068 62.26C28.3708 61.5277 28.7934 57.7683 31.3044 55.9554C31.7647 55.6231 32.3591 55.4072 32.9083 55.6482C33.3275 55.832 33.7572 56.2741 33.5986 56.769C33.4231 57.3154 32.7754 57.6349 32.3726 57.9927C31.8942 58.4171 31.513 58.9174 31.2014 59.4756C30.5929 60.5651 30.2949 61.7928 29.9022 62.9684C29.5079 64.1495 29.0113 65.2706 28.0991 66.1449C27.1808 67.0247 25.993 67.5888 24.8568 68.1269C23.6288 68.7085 22.4095 69.2926 21.3079 70.0966C20.214 70.8948 19.2285 71.8424 18.3467 72.8691C16.5424 74.9693 15.1466 77.3897 13.8312 79.8155C13.6701 80.1127 13.5097 80.4108 13.3501 80.7089C13.0974 81.1802 13.8502 81.5241 14.1046 81.0557C15.4612 78.5558 16.8408 76.0395 18.6487 73.8308C19.5328 72.7507 20.5174 71.751 21.6364 70.9139C22.7551 70.0772 23.9905 69.4812 25.2472 68.8861C26.4884 68.2982 27.7249 67.6771 28.7319 66.7252C29.7102 65.8004 30.2665 64.5869 30.6865 63.329C31.0925 62.1122 31.3974 60.8336 32.0528 59.7182C32.3557 59.2029 32.7541 58.7727 33.2233 58.4067C33.762 57.9862 34.3542 57.5261 34.4731 56.8069C34.5811 56.1534 34.2333 55.508 33.7115 55.1285C33.1357 54.7098 32.4556 54.5975 31.7715 54.7829C28.6613 55.6277 28.3558 60.033 25.3515 61.2523C24.6909 61.5206 23.8358 61.6713 23.2465 61.1645C22.7717 60.7563 22.6219 60.0533 22.7225 59.4561C22.8537 58.6766 23.3402 58.0125 23.8664 57.4468C24.388 56.8856 24.9814 56.398 25.6234 55.9811C26.9072 55.1477 28.3903 54.6216 29.9143 54.4739C31.2898 54.3405 32.6904 54.5222 34.052 54.2382C34.6963 54.104 35.3343 53.8712 35.8433 53.4412C36.3968 52.973 36.9262 52.2581 36.6107 51.5029C36.3376 50.8483 35.647 50.4827 34.9991 50.2961C34.1205 50.0431 33.1846 49.9799 32.2742 49.9811L32.2723 49.9799Z" fill="#2B0B00"/>
<path d="M23.0708 48.2718C21.0572 48.5401 19.2877 49.6178 17.8488 51.0143C17.0309 51.8079 16.3226 52.706 15.6958 53.6558C15.5768 53.836 15.5653 54.0682 15.7439 54.219C15.8963 54.3474 16.1847 54.3505 16.3068 54.1709C17.3668 52.6124 18.626 51.1567 20.2446 50.1607C21.7602 49.2282 23.572 48.8061 25.3319 49.1603C26.2863 49.3522 27.1654 49.785 27.8736 50.4551C28.262 50.8226 28.7954 50.186 28.4085 49.8197C26.9982 48.4857 24.9616 48.0196 23.0704 48.2718L23.0708 48.2718Z" fill="#2B0B00"/>
<path d="M20.6462 45.7245C18.689 45.8894 17.014 47.1297 15.7866 48.5916C15.0226 49.5012 14.3903 50.5117 13.7672 51.5203C13.5317 51.9017 14.1951 52.3294 14.4399 51.9474C15.4382 50.3892 16.448 48.7459 17.9744 47.646C19.3094 46.684 20.999 46.2036 22.5827 46.827C23.4193 47.1561 24.1342 47.7191 24.6342 48.4679C24.9326 48.9148 25.6191 48.4415 25.321 47.9958C24.3048 46.4751 22.4728 45.5707 20.6458 45.7245L20.6462 45.7245Z" fill="#2B0B00"/>
<path d="M16.0515 49.5731C16.28 48.9162 16.5061 48.261 16.7323 47.6038C17.0058 46.8125 17.2796 46.0234 17.5535 45.2325C17.8964 44.241 18.2388 43.2514 18.5817 42.2603C18.8292 41.5431 19.0766 40.8336 19.0619 40.0632C19.0491 39.3942 18.7599 38.7072 18.1097 38.4355C17.3473 38.1158 16.6095 38.4992 16.078 39.0556C15.4748 39.687 15.1188 40.5287 14.7368 41.3037C14.3077 42.1773 13.8939 43.0595 13.4994 43.9506C11.9039 47.5423 10.5945 51.2639 9.58163 55.062C8.70788 58.3408 8.14125 61.6948 7.20711 64.9581C6.34232 67.9816 5.11642 70.978 2.96286 73.3219C2.69831 73.6101 2.42467 73.8876 2.13406 74.1502C1.97512 74.2959 1.89709 74.5114 2.03053 74.7054C2.14223 74.8663 2.42456 74.9545 2.58736 74.8091C4.91797 72.7234 6.41186 69.9622 7.42365 67.0325C8.46865 64.0116 9.06321 60.8653 9.78194 57.7584C10.6285 54.0915 11.7426 50.4937 13.1345 46.995C13.8373 45.2291 14.6079 43.4893 15.4461 41.783C15.8081 41.0444 16.1323 40.2343 16.7006 39.6249C17.0449 39.2583 17.6648 38.9232 18.0293 39.4085C18.3564 39.8477 18.2141 40.5632 18.0885 41.0578C17.8698 41.9276 17.511 42.7773 17.2164 43.6245C16.5667 45.5005 15.9187 47.3786 15.2695 49.2523C15.2548 49.2973 15.2388 49.3398 15.2242 49.3847C15.0646 49.8494 14.9027 50.3138 14.7432 50.7784C14.6789 50.9629 14.7148 51.1676 14.8643 51.2853L16.0515 49.5735L16.0515 49.5731Z" fill="#2B0B00"/>
<path d="M1.66192 74.422C1.49425 74.5376 1.41388 74.8201 1.5565 74.9898C4.19047 78.121 7.77579 80.3773 11.7413 81.387C12.5039 81.581 14.0897 81.9938 14.278 80.8055C14.361 80.2833 13.5512 80.1409 13.4677 80.6654C13.4549 80.7454 13.4328 80.7457 13.3204 80.778C13.1918 80.8152 13.046 80.8137 12.9138 80.7999C12.4762 80.7536 12.0325 80.618 11.6094 80.5035C10.7257 80.2641 9.86201 79.9529 9.02419 79.5842C7.36332 78.8527 5.81456 77.8867 4.42696 76.7166C3.63515 76.049 2.8982 75.3182 2.22955 74.5266C2.08762 74.3585 1.8563 74.2873 1.66197 74.4212L1.66192 74.422Z" fill="#2B0B00"/>
<path d="M5.85384 69.253C5.75312 69.4719 5.86579 69.6763 6.05306 69.7916C8.74086 71.4441 11.581 72.8443 14.5326 73.9598C15.3764 74.2788 16.2289 74.589 17.0951 74.8425C17.5292 74.9693 17.7649 74.2285 17.3322 74.0777C15.8482 73.5602 14.371 73.047 12.9246 72.4288C11.4954 71.8179 10.0942 71.1422 8.72753 70.4017C7.937 69.9733 7.15898 69.5231 6.39217 69.0533C6.20524 68.9389 5.93773 69.0704 5.85387 69.2526L5.85384 69.253Z" fill="#2B0B00"/>
<path d="M4.33659 70.5338C4.971 71.2803 5.79001 71.8532 6.62525 72.3537C9.86255 74.2899 13.3434 75.8518 16.905 77.0853C17.1149 77.1569 17.2008 77.4494 17.1089 77.6366C16.5498 78.77 15.9499 79.8855 15.3081 80.9746C15.0093 81.4789 14.7311 82.0437 14.3465 82.4895C13.9831 82.9105 13.4818 83.1135 12.928 83.0974C12.4412 83.0851 11.9814 82.9455 11.5156 82.8114C11.0478 82.6772 10.5798 82.541 10.1123 82.401C9.15574 82.1136 8.20252 81.8084 7.26761 81.4551C5.43293 80.7578 3.6519 79.8575 2.14601 78.5866C1.43746 77.9883 0.704405 77.2639 0.470717 76.3361C0.212615 75.314 0.608863 74.3594 1.18234 73.526C1.79071 72.6392 2.53514 71.8277 3.22876 71.0094C3.34143 70.879 3.46568 70.7496 3.61299 70.6708C3.64038 70.573 3.69717 70.4832 3.77549 70.4303C3.96747 70.2966 4.19534 70.3673 4.33618 70.5341L4.33659 70.5338Z" fill="#2B0B00"/>
</svg>
