<svg width="63" height="87" viewBox="0 0 63 87" fill="none" xmlns="http://www.w3.org/2000/svg">
<path d="M35.978 39.2521C36 39.8836 35.814 40.477 35.4722 41.004C34.7943 42.048 33.6093 42.7499 32.5137 43.2706C32.028 43.5038 31.724 42.7495 32.192 42.5023C32.2081 42.4942 32.2239 42.4864 32.24 42.4761C32.1282 42.3716 32.0721 42.2107 32.0702 42.0436C32.0522 40.9553 31.6844 39.8574 31.0608 38.9742C30.5492 38.2502 29.5995 37.2667 28.6081 37.4999C28.1782 37.8077 27.7465 38.1133 27.3148 38.421C27.247 38.4694 27.1769 38.4974 27.109 38.5096V45.3742C27.3211 45.2919 27.5327 45.2092 27.7429 45.1228C27.7388 45.1992 27.7308 45.2778 27.7249 45.3542C27.7029 45.5978 27.6768 45.8388 27.6427 46.0801C27.339 46.2008 27.035 46.3215 26.7291 46.4363C24.6263 47.2489 22.4993 47.9991 20.3525 48.683C18.8351 49.1679 17.3081 49.6181 15.7727 50.0407C15.0172 50.2499 14.2594 50.4529 13.4979 50.6422C12.8304 50.805 12.1346 50.9378 11.445 50.8636C10.7492 50.7913 10.1418 50.4795 9.66574 49.9665C9.21385 49.482 8.93033 48.8542 8.65817 48.2571C7.97448 46.7525 7.29886 45.2461 6.6313 43.7338C5.2962 40.7128 3.9886 37.6778 2.71144 34.631C2.38574 33.8527 2.06186 33.0744 1.73982 32.2961C1.43796 31.5661 1.10822 30.8358 0.946096 30.0597C0.708418 28.9212 1.01982 27.4912 2.10735 26.9343C2.13339 26.8258 2.20528 26.7291 2.34136 26.6748C3.94862 26.0312 5.55955 25.4016 7.17672 24.7842C10.7767 23.4044 14.3951 22.0792 18.0333 20.806C20.7218 19.8649 24.6057 17.4754 27.3346 19.0944C28.2461 19.6354 28.8938 20.486 29.3934 21.4075C30.4288 23.3162 30.8008 25.5083 31.5464 27.5317C32.7238 30.7236 33.9672 33.8892 35.2803 37.0268C35.5782 37.7346 35.9501 38.4687 35.978 39.2532V39.2521Z" fill="black"/>
<path d="M26.6787 50.4172C26.5929 50.7128 26.5089 51.0065 26.4227 51.3021C26.2349 51.3966 26.0427 51.487 25.8531 51.5778C25.841 51.6321 25.8212 51.6845 25.7933 51.7347C24.5939 53.8928 24.142 56.441 24.478 58.8848C24.628 58.8125 24.7758 58.738 24.9258 58.6656C24.9178 58.9815 24.924 59.2971 24.942 59.613C24.6783 59.7436 24.4142 59.8742 24.1483 60.0052C22.863 60.6407 21.5774 61.2762 20.2922 61.9117C19.1508 62.4749 17.9815 63.1284 16.6962 63.2735C15.6146 63.396 14.5355 63.0963 13.6658 62.4369C12.8321 61.8054 12.2365 60.878 12.0567 59.8403C11.8767 58.8044 12.1165 57.7264 12.6542 56.8333C13.258 55.8295 14.2575 55.2505 15.3289 54.8645C16.5543 54.422 17.7977 54.0378 19.0169 53.5832C21.3016 52.7325 23.5427 51.7712 25.7353 50.7091C25.9371 50.6146 26.1373 50.5161 26.3369 50.4175C26.4667 50.3533 26.5848 50.3633 26.6787 50.4175V50.4172Z" fill="black"/>
<path d="M53.5041 26.5787C53.2763 27.5762 52.6986 28.4269 52.1349 29.2639C50.9435 31.0257 49.8259 32.838 48.7887 34.6943C47.747 36.5587 46.7897 38.4733 45.9141 40.4222C45.4824 41.3817 45.0584 42.349 44.6806 43.3306C44.3788 44.117 44.027 45.1607 44.4906 45.9552C44.6047 46.1523 44.6146 46.3918 44.4165 46.5464C44.2548 46.6712 43.9449 46.6671 43.829 46.47C43.5909 46.0597 43.457 45.6312 43.4453 45.1526C43.4215 44.1469 43.8271 43.1955 44.2027 42.2825C44.6146 41.285 45.0482 40.2956 45.5041 39.3158C46.4155 37.3529 47.4132 35.428 48.4886 33.5495C49.5461 31.7014 50.7194 29.9414 51.877 28.1575C52.3546 27.4212 52.8545 26.5403 52.7485 25.6255C52.6726 24.9738 52.2988 24.2338 51.599 24.1028C50.6673 23.9297 49.71 24.7464 49.0524 25.3055C48.3386 25.913 47.7191 26.6149 47.1594 27.3651C45.9937 28.9258 45.0903 30.6677 44.2009 32.3952C42.3138 36.0516 40.6009 39.8007 38.6118 43.4048C37.6123 45.2149 36.5486 46.993 35.3635 48.6884C35.0675 49.1109 34.7656 49.5272 34.4539 49.9372C34.156 50.3295 33.8641 50.7458 33.5065 51.0856C33.3524 51.2325 33.1727 51.355 32.9786 51.4355C32.7787 51.5159 32.5667 51.5521 32.3511 51.5218C32.0452 51.2384 31.7994 50.9126 31.6296 50.5262C31.6054 50.4738 31.5838 50.4195 31.5658 50.3653C30.9459 48.7441 31.5937 46.904 31.8137 45.2666C32.0734 43.3299 31.9678 41.2662 31.0141 39.5203C30.6224 38.8062 29.9585 38.0017 29.0973 37.8954C28.3237 37.7987 27.8638 38.4463 27.7362 39.1361C27.5704 40.017 27.7042 40.9141 27.7541 41.7991C27.8179 42.9055 27.8282 44.0174 27.7442 45.1216C27.7402 45.198 27.7321 45.2762 27.7263 45.353C27.7042 45.5962 27.6782 45.8379 27.6445 46.0792C27.4526 47.5513 27.0847 48.9876 26.6809 50.4155C26.5951 50.7111 26.5111 51.0048 26.4249 51.3004C25.8014 53.4486 25.1576 55.5905 24.9717 57.8291C24.9497 58.1067 24.9335 58.3864 24.9277 58.6639C24.9196 58.9798 24.9258 59.2953 24.9438 59.6112C24.9676 60.0519 25.0157 60.4903 25.0938 60.9265C25.2856 62.0166 25.6455 63.0644 26.0592 64.0881C26.9468 66.2883 27.9581 68.4424 28.9157 70.6105C30.8689 75.0372 32.8257 79.462 34.7726 83.8927C34.9824 84.3673 34.2448 84.6809 34.0332 84.2064L33.2996 82.5531C31.2786 78.0098 29.2715 73.4602 27.2586 68.9129C26.7587 67.7844 26.2551 66.6581 25.7592 65.5259C25.3033 64.48 24.8697 63.4201 24.5616 62.32C24.3478 61.5517 24.2139 60.7793 24.1497 60.0028C24.1237 59.6909 24.1097 59.3795 24.1057 59.0676C24.0918 57.9956 24.1996 56.9198 24.4035 55.8478C24.6614 54.472 25.0414 53.1246 25.4291 51.7831C25.531 51.4229 25.637 51.0653 25.7368 50.707C25.8545 50.3025 25.9686 49.8966 26.0786 49.4903C26.3526 48.4765 26.5742 47.4591 26.7304 46.4354C26.7763 46.1158 26.8185 45.7958 26.8522 45.4758C26.9501 44.5787 26.9901 43.6738 26.9622 42.7568C26.9322 41.7308 26.7763 40.6971 26.8324 39.6716C26.8742 38.8652 27.0921 37.9862 27.7501 37.4632C28.5416 36.8336 29.5712 36.9986 30.3627 37.5297C31.1924 38.0869 31.7418 38.9818 32.116 39.8948C32.8994 41.8054 32.9016 43.9698 32.5477 45.9789C32.3878 46.8922 32.178 47.799 32.1559 48.7304C32.1398 49.4124 32.2557 50.1424 32.6937 50.6753C32.7655 50.6409 32.8338 50.5948 32.8954 50.5424C33.2534 50.2487 33.523 49.8125 33.7988 49.4441C34.1087 49.0319 34.4106 48.6157 34.7062 48.1931C35.2879 47.3605 35.8396 46.5077 36.3692 45.6427C37.4366 43.8989 38.4082 42.101 39.3398 40.2809C41.1951 36.6565 42.872 32.9318 44.8809 29.3879C45.8162 27.7364 46.888 26.1396 48.303 24.8605C49.0205 24.2128 49.8703 23.543 50.8258 23.3157C51.6874 23.1105 52.5629 23.4323 53.0687 24.1685C53.5503 24.8664 53.6922 25.7554 53.5044 26.578L53.5041 26.5787Z" fill="black"/>
<path d="M50.802 37.4199C50.2177 36.4848 49.3209 35.791 48.4622 35.1263C48.0456 34.8038 47.557 35.4607 47.9729 35.7843C49.2754 36.7977 51.146 38.3126 50.5386 40.2206C50.3857 40.7014 50.1352 41.1491 49.9111 41.599C49.6767 42.0695 49.4423 42.5404 49.2083 43.0113C48.7249 43.9822 48.2396 44.9521 47.7584 45.9237C47.286 46.8781 46.833 48.0085 47.3179 49.0492C47.5438 49.5341 48.3038 49.213 48.0804 48.7251C47.6667 47.8206 48.2414 46.8113 48.6412 46.0075C49.1316 45.0218 49.6217 44.0361 50.1121 43.0504C50.3607 42.5503 50.6098 42.0499 50.8585 41.5499C51.0815 41.1015 51.2982 40.6561 51.4053 40.163C51.6122 39.2101 51.3056 38.2263 50.8016 37.4199H50.802Z" fill="black"/>
<path d="M53.114 43.285C52.5283 42.4092 51.6957 41.7298 50.8887 41.0703C50.4827 40.7386 49.9982 41.3925 50.4024 41.7247C51.6832 42.7775 53.3499 44.1806 53.0429 46.0572C52.9035 46.9104 52.3045 47.6817 51.7969 48.3512C51.5094 48.7305 51.2038 49.0955 50.8818 49.4454C50.5792 49.7738 50.2432 50.0716 49.9505 50.4093C49.3497 51.1031 49.0746 52.2268 49.8841 52.8856C50.2993 53.2236 50.7956 52.5545 50.3807 52.2172C50.1438 52.0246 50.1728 51.6574 50.281 51.4013C50.4424 51.0193 50.7802 50.7289 51.0659 50.4418C51.7324 49.7727 52.3423 49.0505 52.8764 48.27C53.3763 47.5389 53.859 46.7322 53.8968 45.821C53.9346 44.9091 53.6154 44.0341 53.114 43.285Z" fill="black"/>
<path d="M57.9456 51.9293C57.7806 51.2676 57.2451 50.8444 56.755 50.4185C55.6305 49.4413 54.5088 48.4607 53.378 47.4905C52.9749 47.1447 52.4937 47.8038 52.8869 48.1511C53.8798 49.0279 54.8807 49.8959 55.8795 50.7665C56.2705 51.1071 56.8152 51.4566 57.0595 51.9308C57.285 52.3685 57.0576 52.8158 56.7825 53.1675C56.4308 53.617 55.9653 53.9627 55.5307 54.3251C55.0275 54.7447 54.5242 55.1643 54.0206 55.5839C53.0828 56.3659 52.1152 57.1232 51.2173 57.9521C50.323 58.7776 49.6379 59.7072 49.109 60.8059C48.5691 61.9267 48.1121 63.0917 47.6242 64.2361C47.0997 65.4661 46.573 66.695 46.0507 67.9262C45.8182 68.4746 45.6157 69.0359 45.6876 69.6422C45.7587 70.2441 46.0606 70.7892 46.3276 71.3213C47.6554 73.9659 48.9832 76.6104 50.3113 79.2554C50.5538 79.7384 51.3277 79.4122 51.0841 78.9269L47.5035 71.7952C47.2208 71.232 46.9009 70.674 46.6702 70.0869C46.5745 69.8441 46.5004 69.5872 46.5088 69.3234C46.5191 69.0012 46.6383 68.6989 46.7601 68.4052C47.2695 67.1744 47.8047 65.9536 48.3274 64.7281C48.8302 63.5493 49.3034 62.3514 49.8525 61.1934C50.3546 60.135 51.0254 59.2507 51.8951 58.471C52.8238 57.6384 53.8042 56.8605 54.7623 56.0622C55.2655 55.6426 55.7687 55.223 56.2723 54.8034C56.7106 54.4381 57.1607 54.0712 57.504 53.6092C57.8598 53.1302 58.0964 52.5301 57.9467 51.9293H57.9456Z" fill="black"/>
<path d="M52.6576 51.2108C52.3249 50.5742 51.8679 50.0199 51.2954 49.5874C51.1263 49.4597 50.853 49.4881 50.7301 49.6693C50.6062 49.8527 50.6315 50.1 50.8116 50.238C50.9311 50.3295 51.0463 50.4266 51.156 50.5299C51.1681 50.5413 51.2004 50.5738 51.2033 50.5767C51.2235 50.5978 51.244 50.6188 51.2642 50.6399C51.3199 50.6993 51.3739 50.7605 51.4263 50.8233C51.4978 50.9089 51.5624 51 51.6269 51.0912C51.0639 51.2115 50.4998 51.3311 49.9445 51.4779C49.738 51.5326 49.5539 51.7086 49.5979 51.944C49.6375 52.1559 49.8366 52.3349 50.0615 52.2928C50.8244 52.15 51.5811 51.9536 52.3378 51.7798C52.5733 51.7256 52.7897 51.4636 52.6572 51.2104L52.6576 51.2108Z" fill="black"/>
<path d="M62.3081 35.0172C61.2631 35.0866 60.3077 34.3149 59.8492 33.4189C59.5605 32.8547 59.4101 32.2406 59.3368 31.6128C59.3302 31.5564 59.3269 31.4995 59.3217 31.4431C59.4879 30.9116 59.5961 30.3607 59.6317 29.7986C59.643 29.6171 59.5495 29.4388 59.3756 29.3713C58.9828 29.2185 58.6483 29.4875 58.5258 29.858C58.4073 30.2164 58.4634 30.6589 58.4781 31.0312C58.4822 31.139 58.4884 31.2467 58.4961 31.3545C57.9499 32.9683 56.7777 34.3596 55.235 35.1088C54.7725 35.3335 55.0809 36.0734 55.5464 35.8498C55.5515 35.9635 55.5944 36.0985 55.7415 36.1937C57.1452 37.1016 59.0041 38.2969 58.9384 40.2159C58.9395 40.4377 59.0609 40.6444 59.299 40.6713C59.5055 40.6949 59.7443 40.5318 59.7516 40.3085C59.741 38.4264 60.8259 36.6152 62.526 35.8033C62.9566 35.5977 62.7695 34.9862 62.3081 35.0165V35.0172ZM59.2663 38.3364C58.6058 37.1503 57.3763 36.2675 56.2301 35.5357C56.2099 35.5228 56.1897 35.514 56.1696 35.5051C57.2435 34.8456 58.13 33.9038 58.7389 32.8037C58.802 33.0281 58.8772 33.2492 58.9689 33.4639C59.3962 34.4637 60.2072 35.3088 61.2092 35.6612C60.3242 36.3432 59.643 37.2835 59.2663 38.3364Z" fill="black"/>
<path d="M2.48565 20.3236C1.95344 19.9162 1.21289 19.8656 0.662713 20.2642C0.0857562 20.6823 -0.176864 21.5344 0.12867 22.1913C0.164249 22.2681 0.224035 22.3323 0.294825 22.3773C0.515998 22.7497 0.90736 23.0239 1.34274 23.0988C2.03633 23.218 2.70535 22.7434 2.97971 22.1241C3.26544 21.4798 3.03289 20.7428 2.48565 20.324V20.3236ZM2.2465 21.7514C2.23586 21.7806 2.22413 21.8094 2.21129 21.8378C2.18341 21.9068 2.14564 21.9488 2.12069 21.9821C2.10822 21.9987 2.09502 22.0149 2.08181 22.0311C2.07191 22.043 2.06164 22.0544 2.051 22.0662C2.01139 22.1002 1.97324 22.1345 1.93106 22.1655C1.91199 22.1791 1.89255 22.1917 1.87275 22.2046C1.81002 22.2334 1.75721 22.2563 1.70182 22.2766C1.66221 22.2839 1.62296 22.2917 1.58262 22.2957C1.57601 22.2946 1.48322 22.2924 1.46634 22.2902C1.44507 22.2873 1.42453 22.2828 1.40362 22.2795C1.50376 22.2954 1.37538 22.2695 1.35264 22.2611C1.3277 22.2518 1.30312 22.2415 1.27892 22.2301C1.19382 22.178 1.14357 22.1404 1.09332 22.0994C1.06031 22.061 1.0394 22.0374 1.02033 22.012C1.00969 21.9976 1.00016 21.9824 0.990254 21.9677C0.99649 21.975 0.967513 21.9274 0.961278 21.9138C0.94844 21.885 0.93817 21.8558 0.927167 21.8267C0.920931 21.7758 0.915796 21.7444 0.912129 21.7138C0.923499 21.8116 0.915796 21.6857 0.918731 21.6599C0.929368 21.5639 0.900391 21.4665 0.847207 21.3861C0.852342 21.3706 0.856744 21.3551 0.862245 21.3396C0.881318 21.2846 0.905893 21.2322 0.930101 21.1794C0.94624 21.151 0.960911 21.1329 0.964946 21.1266C0.979984 21.1049 1.04784 20.9927 1.07278 20.9912C1.06031 21.0037 1.04821 21.0163 1.03574 21.0288C1.04931 21.0152 1.06324 21.0023 1.07755 20.9893C1.09185 20.9768 1.10653 20.9642 1.1212 20.9521C1.14651 20.9314 1.18025 20.8993 1.21326 20.8812C1.27305 20.8576 1.29946 20.8465 1.3266 20.8369C1.3398 20.8321 1.35631 20.8255 1.37135 20.8214C1.39225 20.8192 1.41683 20.8166 1.42526 20.8155C1.4447 20.8129 1.46451 20.8118 1.48395 20.8092C1.54557 20.8115 1.59399 20.8144 1.64277 20.8225C1.67981 20.827 1.69889 20.8347 1.71136 20.8388C1.77188 20.8583 1.8291 20.8949 1.88925 20.9122C1.91272 20.9273 1.93657 20.9421 1.95931 20.9583C2.00002 20.9875 2.03707 21.0196 2.07521 21.0517C2.09355 21.0731 2.10749 21.0875 2.11996 21.1026C2.1515 21.1406 2.18965 21.1853 2.21312 21.2314C2.23476 21.2816 2.24393 21.3041 2.25274 21.3274C2.25934 21.3447 2.26924 21.3661 2.27364 21.3857C2.27988 21.4329 2.28318 21.5149 2.28611 21.5244C2.28281 21.5754 2.27768 21.6252 2.27108 21.6765C2.26044 21.7127 2.2542 21.7326 2.24724 21.7518L2.2465 21.7514Z" fill="black"/>
<path d="M8.58034 19.4394C8.39914 18.8021 7.80128 18.2902 7.13006 18.3009C6.61142 18.3091 6.09792 18.608 5.81879 19.0486C5.66474 19.0545 5.49969 19.142 5.45861 19.2985C5.28292 19.9738 5.50042 20.6794 6.04107 21.126C6.58685 21.5769 7.3494 21.554 7.93002 21.1891C8.20035 21.0189 8.41858 20.761 8.54329 20.4657C8.6823 20.1369 8.6768 19.7775 8.58034 19.4394ZM7.83356 19.9221C7.83246 19.9428 7.83062 19.9635 7.82842 19.9838C7.82659 19.9982 7.81485 20.0528 7.81265 20.0683C7.80091 20.1056 7.78954 20.1432 7.77377 20.1794C7.7569 20.2196 7.74516 20.2358 7.73893 20.2454C7.71032 20.2886 7.67731 20.3274 7.64613 20.3683C7.61422 20.3989 7.59185 20.4203 7.56764 20.4399C7.54343 20.4595 7.51885 20.4783 7.49355 20.496C7.46934 20.5111 7.42862 20.5366 7.42532 20.5381C7.39745 20.5521 7.36957 20.5654 7.3406 20.5776C7.29915 20.5953 7.2566 20.6097 7.21405 20.623C7.16417 20.6311 7.12419 20.6403 7.08311 20.6451C7.06257 20.6473 7.04203 20.6484 7.02149 20.6506C6.95107 20.6458 6.90045 20.6396 6.8491 20.634C6.81132 20.6241 6.79115 20.6185 6.77171 20.6111C6.742 20.6004 6.71302 20.5883 6.68441 20.575C6.60959 20.5292 6.56154 20.4975 6.51679 20.4598C6.50725 20.4517 6.47901 20.4233 6.47168 20.417C6.46104 20.4052 6.44967 20.3934 6.4394 20.3812C6.39832 20.3325 6.36311 20.2809 6.32753 20.2281C6.30515 20.1805 6.29012 20.1524 6.27765 20.1233C6.3499 20.0413 6.40675 19.9517 6.41116 19.8421C6.41336 19.7845 6.42143 19.7295 6.43096 19.6727C6.4471 19.6343 6.4559 19.6037 6.46838 19.5745C6.47681 19.5549 6.48598 19.5361 6.49478 19.5169C6.53953 19.4531 6.57658 19.4059 6.61546 19.3586C6.64297 19.3328 6.66314 19.3151 6.68405 19.2985C6.71742 19.2715 6.75264 19.2483 6.78821 19.225C6.79482 19.2243 6.87331 19.1818 6.89458 19.1734C6.91145 19.1663 6.92869 19.1608 6.94593 19.1545C6.95253 19.1527 6.99215 19.1405 7.00645 19.1376C7.03763 19.1317 7.06917 19.1269 7.10072 19.1239C7.10328 19.1239 7.14106 19.1232 7.15647 19.1224C7.21589 19.1272 7.24486 19.1328 7.27421 19.1372C7.32446 19.1542 7.33986 19.1593 7.3549 19.1652C7.37397 19.173 7.39195 19.1826 7.41102 19.19C7.49135 19.2402 7.52949 19.273 7.56984 19.3047C7.59331 19.3291 7.60762 19.3439 7.62082 19.3597C7.6542 19.3996 7.68281 19.4424 7.71325 19.4845C7.73563 19.528 7.7503 19.5557 7.7624 19.5841C7.77487 19.6129 7.78624 19.6417 7.79651 19.6712C7.79761 19.6738 7.80752 19.7122 7.81192 19.7258C7.82255 19.7801 7.82696 19.8107 7.83026 19.8413C7.83246 19.862 7.83319 19.8827 7.83539 19.903C7.82512 19.8029 7.83539 19.8985 7.83393 19.921L7.83356 19.9221Z" fill="black"/>
<path d="M48.9146 17.1184C48.7349 17.6897 48.2309 18.0015 47.6991 18.1923C47.0616 18.4237 46.4138 18.6366 45.772 18.8562C43.1692 19.7533 40.5665 20.6483 37.9642 21.5432C37.6183 21.6616 37.2746 21.7805 36.9287 21.8993C36.6588 21.9919 36.3811 22.0982 36.0954 22.1348C35.4396 22.2152 34.98 21.8875 34.688 21.3181C34.0744 20.1172 33.5484 18.8625 33.0067 17.6295C31.9092 15.1256 30.8738 12.5932 29.9242 10.0291C29.8383 9.79586 29.9601 9.60248 30.134 9.51428C30.2877 8.84041 30.9754 8.36398 31.6411 8.10861C32.6604 7.71853 33.7179 7.40669 34.7573 7.07677C35.8206 6.74094 36.8884 6.41913 37.9598 6.10951C40.1066 5.48989 42.2713 4.92673 44.4464 4.41376C44.6342 4.37169 44.8561 4.5123 44.9221 4.68538C46.0375 7.56353 47.0891 10.4679 48.0765 13.3922C48.2962 14.0457 48.5144 14.7015 48.7283 15.3573C48.9102 15.9183 49.1002 16.532 48.9142 17.1191L48.9146 17.1184Z" fill="black"/>
<path d="M18.6866 59.3328C18.4027 60.4189 17.4193 61.2777 16.2878 61.2958C15.2003 61.312 14.1428 60.5997 13.8652 59.5199C13.7753 59.1679 13.7771 58.804 13.8531 58.4578C13.7313 58.3172 13.699 58.0796 13.827 57.9349C14.0548 57.6755 14.3189 57.4101 14.6087 57.1688C14.6545 57.1285 14.7025 57.0883 14.7524 57.0521C15.526 56.4506 16.4657 56.0605 17.4091 56.4506C18.5146 56.9093 18.9782 58.2227 18.6866 59.3328Z" fill="white"/>
<path d="M46.1447 70.4702C42.3279 72.1663 38.531 73.9063 34.7575 75.6973C33.6879 76.2051 32.6198 76.7166 31.5536 77.2314C31.0786 77.4609 31.3958 78.2208 31.8727 77.9912C35.6363 76.18 39.4208 74.4115 43.2255 72.6885C44.3042 72.2002 45.384 71.7157 46.466 71.2345C46.952 71.0182 46.6311 70.2543 46.1451 70.4702H46.1447Z" fill="black"/>
<path d="M51.7489 79.7873C50.1556 80.5214 48.5406 81.207 46.9172 81.8691C44.0845 83.0257 41.21 84.0833 38.3058 85.0447C37.5803 85.2861 36.8526 85.5193 36.123 85.7485C35.4694 85.9518 34.6918 86.2994 34.0881 85.7909C33.7961 85.5477 33.6043 85.1835 33.4044 84.8657C33.2185 84.5679 33.0406 84.2664 32.8645 83.9605C32.4728 83.2807 32.1148 82.5806 31.7891 81.8669C31.7671 81.8185 31.7572 81.7706 31.7509 81.7259C31.5811 81.5429 31.5672 81.1949 31.8628 81.0543C33.1242 80.4608 34.3874 79.8656 35.6488 79.2744C40.0987 77.1886 44.5482 75.1031 48.998 73.0176C49.206 72.921 49.4499 73.0398 49.5398 73.2387C50.4274 75.2057 51.2329 77.207 51.9727 79.2341C52.0526 79.4534 51.9628 79.6888 51.7489 79.7873Z" fill="black"/>
<path d="M15.9031 38.5792C14.1433 38.1957 12.3732 37.8525 10.6071 37.4964C11.5028 35.8818 12.5162 34.3352 13.6239 32.8598C13.9408 32.4376 13.2905 31.9482 12.9699 32.3678C11.6986 34.0296 10.5755 35.7973 9.58411 37.6414C9.44509 37.8998 9.69341 38.1629 9.92485 38.2105C11.8857 38.6124 13.8429 39.0394 15.8089 39.4147C16.0304 39.4571 16.2472 39.2578 16.271 39.0445C16.2985 38.8002 16.1243 38.6275 15.9031 38.5795V38.5792Z" fill="white"/>
<path d="M27.1926 31.3215C25.3396 30.4952 23.422 29.828 21.4586 29.3217C21.2429 29.2659 21.0126 29.3301 20.9242 29.5567C20.8505 29.746 20.9411 30.038 21.1578 30.0944C22.9254 30.5554 24.6559 31.1488 26.3369 31.8647C25.1488 33.1874 24.1431 34.6613 23.3376 36.2519C23.2364 36.4515 23.3787 36.7135 23.5713 36.7896C23.7965 36.8785 24.003 36.7541 24.1057 36.5545C24.9687 34.875 26.0753 33.3298 27.3741 31.964C27.5718 31.7558 27.4127 31.42 27.1922 31.3219L27.1926 31.3215Z" fill="white"/>
<path d="M18.9755 26.7544C18.5827 31.0648 18.191 35.3749 17.8022 39.6856C17.7754 39.9831 17.735 40.2827 17.7215 40.5809C17.7094 40.8426 17.782 41.1267 18.0508 41.233C18.5603 41.4341 18.8721 40.7378 18.5383 40.4425C18.5526 40.3274 18.5732 40.1967 18.5794 40.1263C18.6003 39.8941 18.6212 39.662 18.6421 39.4299C18.6839 38.9656 18.7257 38.5014 18.7676 38.0371C18.8482 37.1418 18.9289 36.2465 19.0096 35.3512C19.1725 33.544 19.3331 31.7368 19.4945 29.9293C19.5862 28.9011 19.6783 27.8734 19.77 26.8452C19.8158 26.3304 19.0225 26.237 18.9755 26.7544Z" fill="white"/>
<path d="M46.0648 0.541792C45.9034 0.420378 45.6019 0.430711 45.4901 0.625196C43.3957 4.268 41.6527 8.11194 40.3037 12.0957C39.9846 13.0383 39.6889 13.9885 39.4131 14.9447C38.2181 14.0517 37.0231 13.1586 35.8278 12.2655C35.3986 11.9448 34.9005 12.6131 35.3304 12.9349C36.6857 13.9502 38.041 14.9654 39.3959 15.9806C39.5965 16.1308 39.9607 16.0659 40.0363 15.7969C41.1587 11.7983 42.6563 7.90749 44.5118 4.1953C45.0312 3.15645 45.5751 2.12978 46.1481 1.11971C46.2577 0.925964 46.2585 0.686826 46.0652 0.541054L46.0648 0.541792Z" fill="white"/>
</svg>
