<svg width="88" height="25" viewBox="0 0 88 25" fill="none" xmlns="http://www.w3.org/2000/svg">
<path d="M9.84983 16.8228V18.7588H1.96183V7.39879H9.70583V9.33479H4.16983V12.0708H8.95383V13.8628H4.16983V16.8228H9.84983ZM12.3712 10.3748L14.1312 12.9988L14.2592 13.2868L14.4192 12.9988L16.1632 10.3748H18.4192L15.5072 14.5508L18.4672 18.7588H16.2112L14.4032 16.1508L14.2592 15.8788L14.1312 16.1508L12.3392 18.7588H10.0832L13.0432 14.5988L10.1312 10.3748H12.3712ZM24.1512 18.9188C23.5005 18.9188 22.9245 18.7748 22.4232 18.4868C21.9325 18.1881 21.5485 17.7881 21.2712 17.2868V22.1668H19.1272V10.3748H20.9992V11.8148C21.3192 11.3241 21.7245 10.9401 22.2152 10.6628C22.7059 10.3748 23.2659 10.2308 23.8952 10.2308C24.4605 10.2308 24.9779 10.3428 25.4472 10.5668C25.9272 10.7908 26.3432 11.1055 26.6952 11.5108C27.0472 11.9055 27.3192 12.3641 27.5112 12.8868C27.7139 13.3988 27.8152 13.9535 27.8152 14.5508C27.8152 15.3615 27.6552 16.0975 27.3352 16.7588C27.0259 17.4201 26.5939 17.9481 26.0392 18.3428C25.4952 18.7268 24.8659 18.9188 24.1512 18.9188ZM23.4312 17.0948C23.7619 17.0948 24.0605 17.0255 24.3272 16.8868C24.5939 16.7481 24.8232 16.5615 25.0152 16.3268C25.2179 16.0815 25.3672 15.8095 25.4632 15.5108C25.5699 15.2015 25.6232 14.8815 25.6232 14.5508C25.6232 14.1988 25.5645 13.8735 25.4472 13.5748C25.3405 13.2761 25.1805 13.0148 24.9672 12.7908C24.7539 12.5561 24.5032 12.3748 24.2152 12.2468C23.9379 12.1188 23.6339 12.0548 23.3032 12.0548C23.1005 12.0548 22.8925 12.0921 22.6792 12.1668C22.4765 12.2308 22.2792 12.3268 22.0872 12.4548C21.8952 12.5828 21.7245 12.7321 21.5752 12.9028C21.4365 13.0735 21.3352 13.2601 21.2712 13.4628V15.4308C21.3992 15.7401 21.5699 16.0228 21.7832 16.2788C22.0072 16.5348 22.2632 16.7375 22.5512 16.8868C22.8392 17.0255 23.1325 17.0948 23.4312 17.0948ZM28.8838 7.07879H31.0278V16.0708C31.0278 16.4548 31.0918 16.7161 31.2198 16.8548C31.3478 16.9828 31.5238 17.0468 31.7478 17.0468C31.9185 17.0468 32.0945 17.0255 32.2758 16.9828C32.4572 16.9401 32.6172 16.8868 32.7558 16.8228L33.0438 18.4548C32.7558 18.5935 32.4198 18.7001 32.0358 18.7748C31.6518 18.8495 31.3052 18.8868 30.9958 18.8868C30.3238 18.8868 29.8012 18.7108 29.4278 18.3588C29.0652 17.9961 28.8838 17.4841 28.8838 16.8228V7.07879ZM37.482 18.9188C36.7993 18.9188 36.186 18.8068 35.642 18.5828C35.098 18.3481 34.634 18.0281 34.25 17.6228C33.8766 17.2175 33.5886 16.7535 33.386 16.2308C33.1833 15.7081 33.082 15.1588 33.082 14.5828C33.082 13.9961 33.1833 13.4415 33.386 12.9188C33.5886 12.3961 33.8766 11.9321 34.25 11.5268C34.634 11.1215 35.098 10.8068 35.642 10.5828C36.186 10.3481 36.7993 10.2308 37.482 10.2308C38.1646 10.2308 38.7726 10.3481 39.306 10.5828C39.85 10.8068 40.314 11.1215 40.698 11.5268C41.082 11.9321 41.37 12.3961 41.562 12.9188C41.7646 13.4415 41.866 13.9961 41.866 14.5828C41.866 15.1588 41.7646 15.7081 41.562 16.2308C41.37 16.7535 41.082 17.2175 40.698 17.6228C40.3246 18.0281 39.866 18.3481 39.322 18.5828C38.778 18.8068 38.1646 18.9188 37.482 18.9188ZM35.29 14.5828C35.29 15.0735 35.386 15.5108 35.578 15.8948C35.77 16.2681 36.0313 16.5615 36.362 16.7748C36.6926 16.9881 37.066 17.0948 37.482 17.0948C37.8873 17.0948 38.2553 16.9881 38.586 16.7748C38.9166 16.5508 39.178 16.2521 39.37 15.8788C39.5726 15.4948 39.674 15.0575 39.674 14.5668C39.674 14.0868 39.5726 13.6548 39.37 13.2708C39.178 12.8868 38.9166 12.5881 38.586 12.3748C38.2553 12.1615 37.8873 12.0548 37.482 12.0548C37.066 12.0548 36.6926 12.1668 36.362 12.3908C36.0313 12.6041 35.77 12.9028 35.578 13.2868C35.386 13.6601 35.29 14.0921 35.29 14.5828ZM47.9371 12.2308C47.2864 12.2308 46.7051 12.3588 46.1931 12.6148C45.6811 12.8601 45.3131 13.2175 45.0891 13.6868V18.7588H42.9451V10.3748H44.9131V12.1668C45.2117 11.5908 45.5904 11.1375 46.0491 10.8068C46.5077 10.4761 46.9931 10.2948 47.5051 10.2628C47.6224 10.2628 47.7131 10.2628 47.7771 10.2628C47.8411 10.2628 47.8944 10.2681 47.9371 10.2788V12.2308ZM52.5432 18.9188C51.8712 18.9188 51.2632 18.8068 50.7192 18.5828C50.1752 18.3481 49.7112 18.0335 49.3272 17.6388C48.9432 17.2335 48.6445 16.7748 48.4312 16.2628C48.2285 15.7401 48.1272 15.1908 48.1272 14.6148C48.1272 13.8148 48.3032 13.0841 48.6552 12.4228C49.0179 11.7615 49.5299 11.2335 50.1912 10.8388C50.8632 10.4335 51.6525 10.2308 52.5592 10.2308C53.4765 10.2308 54.2605 10.4335 54.9112 10.8388C55.5619 11.2335 56.0579 11.7615 56.3992 12.4228C56.7512 13.0735 56.9272 13.7775 56.9272 14.5348C56.9272 14.6628 56.9219 14.7961 56.9112 14.9348C56.9005 15.0628 56.8899 15.1695 56.8792 15.2548H50.3992C50.4419 15.6815 50.5645 16.0548 50.7672 16.3748C50.9805 16.6948 51.2472 16.9401 51.5672 17.1108C51.8979 17.2708 52.2499 17.3508 52.6232 17.3508C53.0499 17.3508 53.4499 17.2495 53.8232 17.0468C54.2072 16.8335 54.4685 16.5561 54.6072 16.2148L56.4472 16.7268C56.2445 17.1535 55.9512 17.5321 55.5672 17.8628C55.1939 18.1935 54.7512 18.4548 54.2392 18.6468C53.7272 18.8281 53.1619 18.9188 52.5432 18.9188ZM50.3512 13.8948H54.7352C54.6925 13.4681 54.5699 13.1001 54.3672 12.7908C54.1752 12.4708 53.9192 12.2255 53.5992 12.0548C53.2792 11.8735 52.9219 11.7828 52.5272 11.7828C52.1432 11.7828 51.7912 11.8735 51.4712 12.0548C51.1619 12.2255 50.9059 12.4708 50.7032 12.7908C50.5112 13.1001 50.3939 13.4681 50.3512 13.8948Z" fill="#262626"/>
<path fill-rule="evenodd" clip-rule="evenodd" d="M73.8322 7.80046C73.441 7.80046 73.1239 7.48332 73.1239 7.09212C73.1239 6.70092 73.441 6.38379 73.8322 6.38379H82.3322C82.7234 6.38379 83.0405 6.70092 83.0405 7.09212V15.5921C83.0405 15.9833 82.7234 16.3005 82.3322 16.3005C81.941 16.3005 81.6239 15.9833 81.6239 15.5921V8.80219L71.4997 18.9263C71.2231 19.2029 70.7746 19.2029 70.498 18.9263C70.2214 18.6497 70.2214 18.2012 70.498 17.9246L80.6221 7.80046H73.8322Z" fill="#018076"/>
</svg>
