<svg width="80" height="91" viewBox="0 0 80 91" fill="none" xmlns="http://www.w3.org/2000/svg">
<path d="M34.6126 31.0799C34.5561 30.1371 34.4079 29.2025 34.2509 28.2722C34.0991 27.3717 33.9461 26.4707 33.7609 25.576C33.1003 22.3839 31.8931 19.036 29.1218 17.0633C28.8076 16.8398 28.4761 16.6441 28.1347 16.4651C27.93 16.3577 27.6573 16.5097 27.5796 16.707C27.4874 16.941 27.6169 17.1524 27.8225 17.2598C30.7405 18.7883 32.1034 22.0741 32.7915 25.1091C32.9932 25.9976 33.1536 26.8946 33.3078 27.7925C33.4671 28.7184 33.6303 29.6452 33.7233 30.5801C33.8155 31.5092 33.8304 32.4462 33.6813 33.3702C33.6071 33.8308 33.4204 34.7095 32.8488 34.808C32.5491 34.8599 32.2493 34.5997 32.0477 34.4095C31.8405 34.2141 31.6667 33.9711 31.5377 33.7183C31.2411 33.1361 31.1179 32.4919 31.041 31.8488C30.9578 31.1545 30.9331 30.4555 30.877 29.7589C30.8139 28.9771 30.6797 28.2133 30.4565 27.4608C30.0108 25.9561 29.2093 24.5402 28.1473 23.3818C27.0971 22.2358 25.6624 21.0489 24.006 21.1614C23.2881 21.2102 22.5694 21.5384 22.117 22.1046C21.6035 22.7481 21.558 23.6103 21.7675 24.3773C22.7106 27.8237 26.5357 28.03 28.5153 30.4536C28.8782 30.8978 29.1312 31.4839 28.9198 32.0512C28.7585 32.4841 28.3368 32.9427 27.8272 32.8119C27.2646 32.6669 26.9037 32.0332 26.5184 31.6483C26.0614 31.1912 25.5333 30.8365 24.9507 30.5551C23.8138 30.0058 22.5552 29.7772 21.3438 29.4502C20.1268 29.122 18.9644 28.6872 18.0271 27.8194C17.084 26.9458 16.4442 25.7823 15.8337 24.6692C15.1738 23.4662 14.512 22.2722 13.6348 21.2095C12.7639 20.1542 11.7482 19.2169 10.6587 18.3886C8.42996 16.6937 5.90149 15.429 3.37224 14.2455C3.06231 14.1006 2.7516 13.9564 2.44088 13.813C1.94971 13.586 1.64605 14.3643 2.13449 14.5933C4.74102 15.8138 7.36561 17.0567 9.7042 18.7488C10.8478 19.5763 11.9161 20.5097 12.8278 21.5881C13.7392 22.666 14.4139 23.8756 15.0891 25.1068C15.756 26.3226 16.4563 27.5319 17.4775 28.4907C18.4697 29.4221 19.729 29.9117 21.0252 30.2613C22.2791 30.5993 23.5894 30.8318 24.7553 31.4268C25.294 31.7019 25.7522 32.0781 26.1496 32.5294C26.6063 33.0475 27.1061 33.6171 27.8401 33.6949C28.507 33.7656 29.1391 33.3776 29.4921 32.8298C29.8817 32.2254 29.9555 31.5339 29.7279 30.8556C28.6918 27.7721 24.2206 27.7214 22.8122 24.7664C22.5023 24.1167 22.2998 23.2642 22.7777 22.641C23.1625 22.1389 23.8644 21.9471 24.4741 22.0135C25.2697 22.1003 25.9696 22.5515 26.5722 23.0485C27.17 23.5412 27.6977 24.1105 28.1567 24.7328C29.0743 25.9772 29.693 27.4404 29.9315 28.9669C30.1469 30.3446 30.0453 31.7659 30.4121 33.1209C30.5855 33.7621 30.8582 34.3911 31.3227 34.8787C31.8284 35.4089 32.582 35.9004 33.327 35.5386C33.9728 35.2253 34.3019 34.5083 34.4526 33.8449C34.657 32.9451 34.666 31.9988 34.6115 31.0818L34.6126 31.0799Z" fill="#2B0B00"/>
<path d="M35.8003 21.7136C35.4111 19.7011 34.2181 17.9816 32.7222 16.6137C31.8721 15.8362 30.9227 15.1751 29.9258 14.5992C29.7367 14.4898 29.5013 14.4918 29.3593 14.6805C29.2385 14.8415 29.2522 15.1322 29.4409 15.2447C31.0784 16.2215 32.6237 17.4049 33.7254 18.9771C34.7568 20.4493 35.2895 22.2497 35.0345 24.043C34.8964 25.0155 34.5104 25.9262 33.8744 26.6787C33.5257 27.0913 34.2005 27.5914 34.548 27.1804C35.814 25.682 36.166 23.6034 35.8003 21.7132V21.7136Z" fill="#2B0B00"/>
<path d="M38.2341 19.1228C37.9528 17.1611 36.6009 15.5463 35.0512 14.3953C34.0869 13.6787 33.0284 13.1009 31.9723 12.532C31.573 12.3171 31.1795 13.0102 31.58 13.2345C33.2136 14.1491 34.9339 15.0704 36.1352 16.5438C37.1858 17.8323 37.7703 19.5061 37.2329 21.1377C36.9492 21.9996 36.422 22.7525 35.6942 23.2999C35.2599 23.6265 35.7786 24.2903 36.2117 23.9641C37.6895 22.8517 38.4965 20.9537 38.2341 19.1224V19.1228Z" fill="#2B0B00"/>
<path d="M34.0739 14.7169C34.7515 14.9087 35.427 15.0982 36.1046 15.2877C36.9206 15.5171 37.7342 15.7468 38.5498 15.9765C39.5722 16.2641 40.5926 16.5513 41.6146 16.8388C42.3541 17.0463 43.0858 17.2541 43.8637 17.1944C44.5393 17.1424 45.2168 16.8111 45.4534 16.1402C45.7319 15.3537 45.3012 14.6329 44.7076 14.1301C44.034 13.5592 43.1623 13.2498 42.3565 12.9103C41.4483 12.5289 40.5322 12.1636 39.6083 11.8182C35.8841 10.4207 32.0453 9.3189 28.1465 8.5203C24.7808 7.83149 21.3571 7.45641 18.0036 6.70586C14.8964 6.01119 11.7956 4.9512 9.30005 2.91875C8.99326 2.66909 8.69667 2.40966 8.41421 2.13226C8.25767 1.98067 8.03523 1.91464 7.84692 2.06037C7.69078 2.18227 7.6182 2.47178 7.77473 2.62728C10.0196 4.85314 12.8984 6.19677 15.9192 7.045C19.0342 7.92135 22.2496 8.33667 25.4324 8.87936C29.1888 9.51816 32.8911 10.4305 36.5094 11.6284C38.3356 12.2332 40.1395 12.9079 41.9136 13.6526C42.6813 13.9742 43.5193 14.2535 44.1686 14.7903C44.5593 15.1158 44.9344 15.7206 44.4652 16.116C44.0403 16.4712 43.3086 16.3696 42.8014 16.2719C41.9092 16.1023 41.0293 15.7906 40.1556 15.5432C38.2211 14.9982 36.2846 14.4551 34.3525 13.9105C34.3062 13.8984 34.2622 13.8847 34.2159 13.8726C33.7369 13.739 33.2579 13.603 32.7789 13.4694C32.5886 13.4155 32.3838 13.4635 32.2736 13.621L34.0735 14.7169H34.0739Z" fill="#2B0B00"/>
<path d="M59.7229 53.5266C59.4848 52.962 59.2463 52.3978 59.0081 51.8332C58.9363 51.6633 58.748 51.559 58.5656 51.5844C56.75 51.8368 54.9818 52.3216 53.2388 52.8772C51.4682 53.441 49.7107 54.0466 47.9488 54.6362L37.1739 58.2393C35.1487 58.9163 33.1248 59.5966 31.1012 60.2787C30.6069 60.4456 30.9259 61.1824 31.4159 61.0203C34.9949 59.8337 38.5709 58.6378 42.1472 57.4422C45.6922 56.2576 49.2317 55.0562 52.7829 53.8899C54.6095 53.2902 56.46 52.7369 58.3651 52.4529C58.5585 52.9198 58.7523 53.3867 58.9458 53.8536C59.1537 54.3549 59.934 54.0251 59.7233 53.5266H59.7229Z" fill="black"/>
<path d="M57.8112 51.7472C57.6296 51.0463 57.3361 50.4012 56.9132 49.8113C56.8336 49.7003 56.6625 49.6237 56.526 49.6558C53.1615 50.4376 49.9484 51.7148 46.7836 53.0748C43.5392 54.4689 40.3128 55.8872 36.9942 57.1015C35.0989 57.7946 33.1845 58.4326 31.2578 59.0331C31.0495 59.098 30.9636 59.3738 31.0428 59.5606C31.1354 59.779 31.3629 59.8376 31.5724 59.7747C34.9899 58.7495 38.3528 57.5375 41.6506 56.1782C44.8154 54.8737 47.9139 53.4105 51.1168 52.1977C52.8441 51.5437 54.6013 50.9662 56.3985 50.5341C56.6621 50.9451 56.8677 51.3921 56.9901 51.8656C57.0458 52.0817 57.2212 52.2501 57.4601 52.2157C57.6633 52.1864 57.8677 51.9649 57.8116 51.7476L57.8112 51.7472Z" fill="black"/>
<path d="M67.3451 62.9499C67.1105 63.1176 66.8603 63.2695 66.6056 63.409C66.5397 63.1336 66.4715 62.8601 66.4032 62.5846C66.1003 61.359 65.7959 60.1353 65.493 58.9097C65.3008 58.131 65.1521 57.3246 64.8975 56.5658C64.8053 56.2845 64.6853 55.9907 64.4585 55.7871C64.2282 55.5816 63.9175 55.5156 63.6146 55.5238C62.863 55.5437 62.1152 55.8653 61.4079 56.0786C60.5679 56.3322 59.728 56.5775 58.8861 56.8174C57.2305 57.2867 55.5667 57.7297 53.899 58.1509C50.5474 58.9952 47.1759 59.754 43.7961 60.4686C42.1142 60.8241 40.4284 61.1691 38.7427 61.5106C37.8988 61.6821 37.0569 61.8501 36.213 62.0197C35.4433 62.1732 34.6716 62.3612 33.8897 62.4487C32.643 62.5866 31.1055 62.3209 30.7548 60.9234C30.5103 59.9513 31.0153 58.7913 32.1279 58.7952C32.3483 58.7952 32.5068 59.0429 32.4845 59.2402C32.4566 59.4738 32.2542 59.5953 32.0353 59.5953C31.907 59.5953 31.7846 59.6731 31.7226 59.745C31.508 59.9986 31.4519 60.4416 31.5621 60.8069C31.6983 61.2543 32.1012 61.4957 32.5665 61.6036C33.2201 61.7552 33.9176 61.6356 34.5649 61.5118C35.3786 61.3578 36.1907 61.1883 37.0024 61.0246C40.2958 60.3639 43.587 59.6911 46.8663 58.9644C50.1598 58.2357 53.4411 57.4512 56.6966 56.5729C58.3062 56.1376 59.9076 55.6785 61.5032 55.1913C62.2168 54.9717 62.9363 54.7002 63.6919 54.7002C64.4095 54.7021 65.0368 55.0436 65.3997 55.6606C65.7645 56.2833 65.8806 57.0401 66.0513 57.7325C66.2537 58.549 66.4562 59.3676 66.6586 60.1838C66.8151 60.8147 66.9713 61.4453 67.1278 62.0763C67.2 62.3678 67.2722 62.6573 67.3444 62.9488L67.3451 62.9499Z" fill="#2B0B00"/>
<path d="M71.5986 79.3141C71.3451 78.3705 71.0273 77.4414 70.7382 76.508C70.444 75.5586 69.6358 72.853 69.3416 71.9036C69.2768 71.6945 68.9967 71.6094 68.8088 71.6883C68.5891 71.7805 68.5279 72.0091 68.5926 72.2185C68.8806 73.1527 69.6829 75.8431 69.9708 76.7772C70.2466 77.6719 70.5558 78.5635 70.7959 79.4684C70.9661 80.11 71.0968 80.9179 70.4342 81.3219C70.0948 81.529 69.679 81.6263 69.3043 81.7478C68.8645 81.89 68.4247 82.0326 67.9846 82.1744C64.4129 83.3278 60.8346 84.4651 57.2238 85.4911C53.6274 86.5128 49.9954 87.4173 46.3194 88.1065C44.4775 88.4519 42.6253 88.743 40.7646 88.9665C39.8336 89.0782 38.9003 89.1732 37.9658 89.2497C37.5056 89.2872 37.0455 89.3204 36.5849 89.349C36.1749 89.3744 35.7559 89.4205 35.3452 89.3826C34.9776 89.3486 34.6778 89.2224 34.4652 88.9126C34.2616 88.616 34.1627 88.2452 34.0533 87.9073C33.7618 87.0071 33.4781 86.1046 33.2019 85.1993C32.6562 83.4095 32.1411 81.6103 31.6578 79.8029C30.6841 76.1619 29.8351 72.4881 29.1132 68.7893C28.7507 66.9322 28.422 65.0686 28.1246 63.1998C27.9806 62.2953 27.81 61.385 27.7244 60.4731C27.6895 60.1003 27.6829 59.7046 27.819 59.3494C27.9473 59.0146 28.2039 58.7684 28.5106 58.5899C29.2043 58.1859 30.0587 58.0112 30.8186 57.7733C31.7571 57.4799 32.6959 57.1861 33.6347 56.8926C35.4962 56.3105 37.3573 55.7283 39.2189 55.1466L50.4838 51.6259C52.3453 51.0442 54.2069 50.4624 56.0684 49.8807C56.9715 49.5982 57.875 49.2645 58.7993 49.0578C61.9657 48.3495 61.8335 51.7178 62.4137 53.9936C62.4631 54.1866 62.5165 54.3882 62.6518 54.5351C62.7868 54.682 63.0308 54.7504 63.1901 54.6297C63.3796 54.4863 63.3392 54.1964 63.2795 53.967C62.7405 51.892 62.8362 48.0932 59.8287 48.0869C58.8609 48.085 57.9389 48.4124 57.0264 48.6976C56.0401 49.0059 55.0535 49.3141 54.0668 49.6224C50.1527 50.8457 46.239 52.069 42.3248 53.2923C38.4268 54.5109 34.5284 55.7284 30.6299 56.9458C29.8061 57.2033 28.9041 57.3971 28.147 57.8237C27.3706 58.2613 26.9029 58.963 26.8567 59.8601C26.8096 60.7731 27.0269 61.7108 27.165 62.6091C27.3141 63.5757 27.4714 64.5411 27.6377 65.505C28.3078 69.3921 29.1156 73.2554 30.0619 77.0851C31.0069 80.9105 32.0721 84.7156 33.3075 88.4589C33.5727 89.2626 33.9932 89.9811 34.8744 90.1925C35.3048 90.2957 35.7481 90.2718 36.1863 90.2472C36.6633 90.2206 37.14 90.1886 37.6159 90.1519C39.5645 90.0015 41.5065 89.7694 43.4374 89.4701C47.3064 88.87 51.1288 88.001 54.9091 86.9895C58.6934 85.9772 62.4368 84.8215 66.1662 83.6244C67.1081 83.3219 68.0493 83.0172 68.9901 82.7117C69.7817 82.4546 70.7661 82.2788 71.3369 81.6224C71.8916 80.9847 71.8022 80.0701 71.599 79.3141H71.5986Z" fill="#2B0B00"/>
<path d="M72.4509 67.1576C72.3265 69.8487 70.292 72.286 67.676 72.931C65.0683 73.5757 61.8988 72.3559 60.6842 69.8945C60.0086 68.5231 60.4296 66.9919 61.3535 65.8479C62.3437 64.6184 63.7729 63.9417 65.1562 63.2466C65.5713 63.0372 65.9981 62.8254 66.403 62.584C66.6556 62.4304 66.902 62.2648 67.1287 62.0768C67.1448 62.0667 67.1589 62.0549 67.1727 62.0428C67.4332 61.8252 67.6376 61.5619 67.6839 61.2165C67.7341 60.8434 67.6478 60.462 67.5673 60.1006C67.2186 58.5394 66.5752 57.0422 65.6952 55.7048C65.4124 55.2754 66.046 54.7804 66.3327 55.2117C66.5469 55.5372 66.7498 55.8705 66.94 56.2119C67.3147 56.8828 67.6317 57.5853 67.8902 58.31C68.1488 59.0367 68.3873 59.8072 68.4838 60.5738C68.5838 61.3603 68.3775 62.037 67.7941 62.584C67.6537 62.7156 67.5034 62.8356 67.3449 62.9493C67.1103 63.1169 66.86 63.2689 66.6054 63.4083C66.3728 63.54 66.1385 63.6619 65.9079 63.7815C64.6191 64.4523 63.1836 65.0212 62.1934 66.1269C61.2935 67.1349 60.8223 68.4664 61.5218 69.7182C62.7505 71.916 65.8133 72.8283 68.1127 71.9363C69.2614 71.4913 70.2092 70.6466 70.8467 69.6026C71.5544 68.4426 71.7506 67.1072 71.5384 65.7776C71.412 64.9712 71.1696 64.1905 70.915 63.4181C70.6584 62.6375 70.3857 61.8631 70.097 61.0946C69.5136 59.5415 68.8663 58.0143 68.1566 56.5151C67.9279 56.0322 68.6976 55.7087 68.9244 56.1916C69.1068 56.5788 69.2853 56.9664 69.4595 57.3555C70.1609 58.9266 70.7965 60.5277 71.3618 62.1526C71.9189 63.7576 72.5286 65.4346 72.4501 67.1572L72.4509 67.1576Z" fill="#2B0B00"/>
<path d="M68.0969 68.7747C67.8384 69.9125 66.7921 70.7033 65.6214 70.6611C64.4629 70.6193 63.4605 69.671 63.2542 68.5571C63.16 68.0539 63.2283 67.5131 63.4264 67.038C63.4303 67.0119 63.4386 66.9822 63.4484 66.954C63.8972 65.6546 65.4288 65.0216 66.6897 65.5127C67.275 65.7401 67.8023 66.1996 67.9867 66.8103C68.171 67.419 68.2374 68.1519 68.0969 68.7747Z" fill="#2B0B00"/>
<path d="M8.11193 1.67503C7.98521 1.51289 7.6949 1.44842 7.53169 1.60197C4.52068 4.43771 2.44965 8.18068 1.6611 12.2339C1.50966 13.0133 1.18522 14.6347 2.39747 14.7551C2.93024 14.8082 3.02675 13.9842 2.49163 13.9307C2.41003 13.9225 2.40846 13.9002 2.36923 13.7889C2.32411 13.6615 2.31705 13.5146 2.32333 13.3806C2.34451 12.9371 2.45554 12.4823 2.54655 12.0494C2.73682 11.1454 3.00085 10.2573 3.32451 9.39186C3.96673 7.67627 4.85258 6.05992 5.9542 4.594C6.58268 3.7575 7.27826 2.97257 8.03935 2.25289C8.20098 2.10012 8.25944 1.86296 8.11271 1.67503H8.11193Z" fill="#2B0B00"/>
<path d="M13.5832 5.59393C13.3561 5.50524 13.156 5.63066 13.0505 5.82601C11.5373 8.62972 10.2882 11.5721 9.3333 14.6102C9.06025 15.4788 8.79661 16.3555 8.59104 17.2428C8.48825 17.6874 9.25091 17.8816 9.37802 17.437C9.81428 15.9121 10.2466 14.3942 10.7868 12.9013C11.3208 11.426 11.9218 9.97531 12.5903 8.55548C12.9771 7.73422 13.3867 6.92429 13.8167 6.12451C13.9214 5.92955 13.7727 5.66778 13.5836 5.59393H13.5832Z" fill="#2B0B00"/>
<path d="M12.199 4.14111C11.4814 4.82367 10.9502 5.68205 10.4932 6.55255C8.72542 9.92629 7.35036 13.5235 6.3119 17.1829C6.25188 17.3985 5.96117 17.5021 5.76659 17.4204C4.58807 16.9234 3.42525 16.3843 2.28676 15.8013C1.75949 15.5298 1.17219 15.2825 0.699059 14.9211C0.252212 14.5796 0.0176084 14.0865 0.0015235 13.5278C-0.0145614 13.0367 0.0996021 12.5655 0.207881 12.0885C0.31616 11.6095 0.4264 11.1301 0.540564 10.6511C0.775168 9.67077 1.02782 8.69283 1.33029 7.73053C1.92779 5.84185 2.7336 3.99538 3.93016 2.40442C4.49353 1.65583 5.18282 0.875201 6.10712 0.585688C7.12517 0.266091 8.11341 0.609521 8.98945 1.13854C9.92159 1.69959 10.7855 2.40208 11.6533 3.053C11.7918 3.15888 11.9298 3.27648 12.0181 3.42026C12.1186 3.44214 12.2127 3.4941 12.2708 3.5699C12.4171 3.75548 12.359 3.98913 12.1986 4.14072L12.199 4.14111Z" fill="#2B0B00"/>
<path d="M37.4891 46.0178C36.6891 46.7488 34.9739 46.3542 34.1285 46.0256C32.5129 45.395 31.5408 43.9115 31.0214 42.3245C30.7346 41.452 30.5502 40.5479 30.376 39.6454C30.1834 38.6433 30.0151 37.6352 29.8727 36.6229C29.8264 36.2896 30.1453 36.09 30.44 36.1756C31.4882 36.4748 32.5188 36.8304 33.529 37.2457C34.3368 37.577 35.1866 37.9146 35.8923 38.4393C36.582 38.9523 37.0128 39.647 37.2254 40.4737C37.44 41.318 37.4239 42.2104 37.4561 43.077C37.4832 43.7955 38.0972 44.9856 37.7535 45.6678C37.684 45.8057 37.5946 45.9217 37.4891 46.0178Z" fill="black"/>
<path d="M27.9853 51.6468C27.9531 51.6628 27.9209 51.6788 27.8891 51.6948C27.8429 51.7886 27.7687 51.8664 27.6789 51.9043C27.5945 51.9382 27.5125 51.9421 27.4364 51.9222C26.4541 52.4094 25.4541 52.8505 24.3897 53.1299C23.3293 53.4073 22.2088 53.4811 21.1362 53.2198C20.1861 52.9861 19.31 52.5071 18.5583 51.8863C16.8745 50.4907 15.8863 48.5106 14.9463 46.586C14.7921 46.2707 15.0907 46.0069 15.3833 46.003C16.5418 45.989 17.6525 45.56 18.7651 45.2923C19.7294 45.061 20.7235 44.9552 21.6976 45.1865C22.6396 45.408 23.5097 45.8573 24.2693 46.4539C25.7565 47.6217 26.731 49.2568 27.631 50.8896C28.1402 50.6302 28.4647 51.4006 27.9857 51.6464L27.9853 51.6468Z" fill="black"/>
<path d="M59.7557 4.95155C59.4831 6.1053 59.1704 7.24929 58.8138 8.37921C58.507 9.34933 58.1763 10.3155 57.7997 11.2599C57.4587 12.1124 57.0339 12.9309 56.3622 13.5736C55.1276 14.7575 53.3414 15.1247 51.72 15.4424C51.5497 15.4744 51.3912 15.3365 51.3653 15.1767C51.3331 14.9911 51.2472 14.8255 51.1021 14.7012C50.4434 14.1339 50.2704 12.257 50.1366 11.4236C50.0503 10.8868 49.9902 10.3218 50.1205 9.78653C50.2347 9.30948 50.5073 8.91408 50.858 8.57886C51.2107 8.23973 51.6317 7.97991 52.0448 7.72438C52.4916 7.44894 52.9448 7.18756 53.4057 6.93789C55.2979 5.91776 57.3167 5.14104 59.4011 4.60812C59.5816 4.56201 59.8001 4.76791 59.7557 4.95155Z" fill="black"/>
<path d="M71.7413 19.5644C71.2921 20.4986 70.7711 21.4011 70.1736 22.2493C69.6565 22.9877 69.0829 23.6867 68.4619 24.3376C67.8464 24.9823 67.199 25.6113 66.4615 26.1161C65.7459 26.6053 64.926 26.9925 64.048 27.0546C63.0437 27.1245 62.0895 26.7991 61.1594 26.4595C61.0652 26.4256 60.9989 26.3697 60.9569 26.3037C60.8467 26.2556 60.7604 26.1579 60.7463 25.9981C60.6482 24.9542 60.596 23.8762 60.8106 22.844C61.0009 21.9297 61.39 21.0873 62.0735 20.4325C62.7631 19.7738 63.691 19.4265 64.6129 19.2366C65.6392 19.0248 66.7079 18.985 67.7542 18.9529C68.9707 18.915 70.1877 18.931 71.4023 19.0049C71.6569 19.0189 71.8535 19.3303 71.7409 19.564L71.7413 19.5644Z" fill="black"/>
<path d="M79.841 43.005C79.0493 43.6696 78.2494 44.3307 77.3675 44.8738C76.5797 45.3571 75.7437 45.7462 74.8339 45.9377C73.8457 46.1451 72.8213 46.0596 71.8433 45.8337C70.8131 45.5981 69.8107 45.2489 68.8064 44.9254C67.7699 44.5921 66.7318 44.2588 65.6953 43.9232C65.3324 43.8052 65.3724 43.3903 65.6071 43.2047C65.6192 43.1926 65.629 43.1789 65.6431 43.1687C66.5933 42.4201 67.5474 41.6716 68.5757 41.0328C70.3619 39.9228 72.4384 39.1242 74.5773 39.364C76.6942 39.5996 78.3176 40.9652 79.8351 42.3385C80.0415 42.5241 80.0658 42.8175 79.841 43.005Z" fill="black"/>
<path d="M46.5664 31.637C46.2678 32.2918 45.8469 32.9826 46.0352 33.7253C46.0893 33.941 45.8888 34.1625 45.6844 34.1902C45.5503 34.2102 45.4377 34.1644 45.3537 34.0824C45.3176 34.0804 45.2815 34.0746 45.2454 34.0664C44.3392 33.8308 43.5016 33.3576 42.8119 32.7309C41.5032 31.5393 40.6954 29.9042 40.4525 28.1616C40.1657 26.1034 40.611 24.0092 41.3607 22.0928C41.4749 21.8033 41.8857 21.7377 42.0763 21.9908C42.746 22.8812 43.4173 23.7693 44.0889 24.6597C44.6601 25.4185 45.2494 26.1671 45.7966 26.9434C46.2937 27.6482 46.7429 28.4086 46.9273 29.2611C47.1078 30.0937 46.9132 30.8782 46.5664 31.6366V31.637Z" fill="black"/>
<path d="M58.9561 18.9295C58.6995 20.0473 58.401 21.1534 58.0479 22.2434C57.7591 23.1397 57.4567 24.0501 57.0557 24.9065C56.6869 25.691 56.1997 26.4177 55.488 26.9307C54.1993 27.861 52.5272 28.0247 51.2385 28.9409C50.8054 29.2484 50.2985 28.5995 50.7312 28.2924C50.7752 28.2603 50.8214 28.2326 50.8658 28.2025C50.8458 28.1845 50.8258 28.1626 50.8077 28.1365C50.2102 27.3238 49.9619 26.342 50.0219 25.3437C50.1341 23.4734 51.2467 21.7941 52.7563 20.7302C54.4562 19.5323 56.5006 18.9936 58.4873 18.4786C58.7278 18.4149 59.0106 18.688 58.9565 18.9299L58.9561 18.9295Z" fill="black"/>
<path d="M76.9427 41.5398C73.7814 41.1147 70.5562 41.1565 67.4071 41.6477C64.2721 42.1388 61.1971 43.069 58.3246 44.4127C57.2061 44.9358 56.1198 45.5246 55.0672 46.1693C56.8009 42.8077 57.8413 39.1444 58.9739 35.5429C60.1446 31.8257 61.4855 28.0866 63.8107 24.9086C65.0536 23.2099 66.5691 21.7248 68.38 20.63C68.6233 20.4823 68.5432 20.1467 68.3741 19.9869C68.1191 19.7455 67.6397 20.2417 67.4255 20.3397C61.8605 22.8875 58.7962 28.2914 56.7624 33.8023C55.7844 36.4532 55.1269 39.2182 54.0743 41.8414C53.567 43.103 52.9338 44.2888 52.1821 45.4227C51.4724 46.4947 50.6988 47.5227 49.9491 48.5667C48.971 49.9283 48.0165 51.3614 47.3673 52.9086C47.3473 50.2955 47.3253 47.6825 47.3049 45.071C47.297 44.1747 47.299 43.2785 47.2888 42.3798C47.7337 40.5193 48.239 38.6748 48.8263 36.8502C49.7423 34.0113 50.8287 31.2287 52.0798 28.5195C52.7773 27.0103 53.525 25.5252 54.323 24.0659C54.6557 23.5369 54.9903 23.0079 55.3254 22.4788C55.6 22.0416 54.9542 21.5544 54.6737 21.9959C53.1363 24.4214 51.5988 26.8469 50.0613 29.2744C49.3559 30.3883 48.6419 31.5124 48.1409 32.736C47.6317 33.984 47.3629 35.3131 47.0805 36.6247C47.0385 36.8185 46.9961 37.01 46.9542 37.2038C46.7215 35.7722 46.3347 34.377 45.7313 33.0396C45.2464 31.9675 44.6728 30.9036 44.2621 29.7936C44.2499 29.7479 44.2382 29.6999 44.224 29.6538C44.2162 29.6217 44.2001 29.5959 44.1821 29.5698C43.9235 28.8212 43.745 28.0507 43.725 27.24C43.7211 27.0243 43.4665 26.8727 43.2699 26.9005C43.0334 26.9345 42.9251 27.138 42.929 27.3537C42.949 28.3219 43.1915 29.2443 43.5265 30.1386C44.5167 33.7081 45.0499 37.4151 45.1103 41.1182C45.1683 44.6319 44.6693 48.1431 44.9337 51.6568C44.9757 52.2217 45.044 52.7886 45.1342 53.3536C44.8035 53.0363 44.4508 52.7425 44.0801 52.4733C42.8572 51.0461 41.6085 49.6825 40.3798 48.3029C39.1632 46.9355 37.9443 45.568 36.7277 44.2025C36.5155 43.9649 36.3048 43.7274 36.0921 43.4898C35.8234 43.1245 35.5511 42.7592 35.2761 42.3978C34.6527 41.5715 34.0172 40.7568 33.3718 39.9504C33.047 39.5453 32.4099 40.0364 32.7324 40.4435C33.6037 41.5433 34.4185 42.8237 35.3923 43.9188C36.681 45.6715 37.9199 47.4602 39.1028 49.2848C39.4594 49.8337 39.8101 50.3885 40.1569 50.9437C39.3652 50.8679 38.5633 50.896 37.7716 50.9218C35.7854 50.9875 33.7987 50.9957 31.8124 50.9457C29.6154 50.8898 27.4204 50.762 25.2337 50.5663C23.5039 49.9236 21.8401 49.1109 20.2807 48.1287C19.8476 47.8552 19.3646 48.4901 19.7997 48.7675C21.3592 49.7634 23.0147 50.596 24.739 51.2567C24.7951 51.3086 24.8692 51.3426 24.9653 51.3524C26.9677 52.0889 29.0246 52.6019 31.1211 52.8695C32.1074 52.9953 33.0996 53.0672 34.0937 53.0832C35.12 53.0992 36.1443 53.0332 37.1706 53.0395C38.1749 53.0453 39.2012 53.1153 40.1534 53.4548C40.9412 53.7361 41.6489 54.1995 42.244 54.7844C43.4669 55.9881 44.2346 57.5713 44.9039 59.1364C44.8678 59.3201 44.94 59.5236 45.1024 59.6057C45.1166 59.6334 45.1283 59.6615 45.1405 59.6916C45.3288 60.139 45.9742 59.9151 45.9424 59.5021L48.2798 58.9993C48.412 58.9712 48.5285 58.8832 48.5905 58.7719C48.6344 58.768 48.6768 58.7598 48.7149 58.7438C48.9412 58.648 48.9997 58.4164 48.9353 58.2007C48.3261 56.1366 49.2982 54.0784 50.585 52.4913C52.0284 50.7128 53.9405 49.377 55.877 48.1814C59.868 45.7122 64.3302 43.9852 68.9383 43.0851C71.5401 42.576 74.1961 42.3263 76.8481 42.3603C77.3711 42.3681 77.4817 41.6137 76.9423 41.5398H76.9427Z" fill="#2B0B00"/>
<path d="M62.1832 54.8531C61.9996 54.362 61.816 53.8708 61.632 53.3797C61.5744 53.2254 61.3578 53.0828 61.1871 53.1297C57.4048 54.1654 53.6225 55.2016 49.8402 56.2374C46.0579 57.2731 42.2756 58.3093 38.4929 59.345C36.3681 59.9268 34.2438 60.5109 32.1202 61.0966C31.9067 61.1556 31.738 61.3216 31.7726 61.5595C31.8012 61.7572 32.0221 61.9639 32.2371 61.9057C36.0213 60.8774 39.8029 59.8408 43.5852 58.8055C47.3675 57.7701 51.1502 56.7347 54.9325 55.699C56.9509 55.1465 58.969 54.594 60.9875 54.0412C61.1291 54.4198 61.2707 54.7988 61.4123 55.1774C61.6006 55.681 62.3704 55.3544 62.1828 54.8531H62.1832Z" fill="#2B0B00"/>
</svg>
