<svg width="180" height="41" viewBox="0 0 180 41" fill="none" xmlns="http://www.w3.org/2000/svg">
<rect y="0.925293" width="179.444" height="39.6667" rx="7.55556" fill="#018076"/>
<path d="M53.1262 26.8388C52.3902 26.8388 51.6915 26.6895 51.0302 26.3908C50.3795 26.0921 49.8035 25.6815 49.3022 25.1588C48.8115 24.6255 48.4275 24.0068 48.1502 23.3028C47.8728 22.5988 47.7342 21.8361 47.7342 21.0148C47.7342 20.2361 47.8728 19.5055 48.1502 18.8228C48.4275 18.1295 48.8168 17.5215 49.3182 16.9988C49.8195 16.4761 50.4062 16.0655 51.0782 15.7668C51.7502 15.4681 52.4808 15.3188 53.2702 15.3188C54.3368 15.3188 55.2488 15.5481 56.0062 16.0068C56.7742 16.4548 57.3502 17.0521 57.7342 17.7988L56.0862 19.0148C55.7982 18.4495 55.3928 18.0175 54.8702 17.7188C54.3582 17.4201 53.7982 17.2708 53.1902 17.2708C52.7102 17.2708 52.2728 17.3721 51.8782 17.5748C51.4835 17.7775 51.1422 18.0548 50.8542 18.4068C50.5662 18.7588 50.3422 19.1641 50.1822 19.6228C50.0328 20.0815 49.9582 20.5668 49.9582 21.0788C49.9582 21.6228 50.0382 22.1241 50.1982 22.5828C50.3688 23.0415 50.6035 23.4415 50.9022 23.7828C51.2115 24.1241 51.5688 24.3961 51.9742 24.5988C52.3795 24.7908 52.8275 24.8868 53.3182 24.8868C53.8942 24.8868 54.4435 24.7375 54.9662 24.4388C55.4995 24.1401 55.9955 23.7028 56.4542 23.1268V25.3028C55.5048 26.3268 54.3955 26.8388 53.1262 26.8388ZM56.2942 22.5348H54.0062V20.9188H58.1182V26.7588H56.2942V22.5348ZM63.3119 26.9188C62.6399 26.9188 62.0319 26.8068 61.4879 26.5828C60.9439 26.3481 60.4799 26.0335 60.0959 25.6388C59.7119 25.2335 59.4133 24.7748 59.1999 24.2628C58.9973 23.7401 58.8959 23.1908 58.8959 22.6148C58.8959 21.8148 59.0719 21.0841 59.4239 20.4228C59.7866 19.7615 60.2986 19.2335 60.9599 18.8388C61.6319 18.4335 62.4213 18.2308 63.3279 18.2308C64.2453 18.2308 65.0293 18.4335 65.6799 18.8388C66.3306 19.2335 66.8266 19.7615 67.1679 20.4228C67.5199 21.0735 67.6959 21.7775 67.6959 22.5348C67.6959 22.6628 67.6906 22.7961 67.6799 22.9348C67.6693 23.0628 67.6586 23.1695 67.6479 23.2548H61.1679C61.2106 23.6815 61.3333 24.0548 61.5359 24.3748C61.7493 24.6948 62.0159 24.9401 62.3359 25.1108C62.6666 25.2708 63.0186 25.3508 63.3919 25.3508C63.8186 25.3508 64.2186 25.2495 64.5919 25.0468C64.9759 24.8335 65.2373 24.5561 65.3759 24.2148L67.2159 24.7268C67.0133 25.1535 66.7199 25.5321 66.3359 25.8628C65.9626 26.1935 65.5199 26.4548 65.0079 26.6468C64.4959 26.8281 63.9306 26.9188 63.3119 26.9188ZM61.1199 21.8948H65.5039C65.4613 21.4681 65.3386 21.1001 65.1359 20.7908C64.9439 20.4708 64.6879 20.2255 64.3679 20.0548C64.0479 19.8735 63.6906 19.7828 63.2959 19.7828C62.9119 19.7828 62.5599 19.8735 62.2399 20.0548C61.9306 20.2255 61.6746 20.4708 61.4719 20.7908C61.2799 21.1001 61.1626 21.4681 61.1199 21.8948ZM73.5799 26.3268C73.3986 26.4015 73.1799 26.4868 72.9239 26.5828C72.6679 26.6788 72.3906 26.7535 72.0919 26.8068C71.8039 26.8708 71.5106 26.9028 71.2119 26.9028C70.8173 26.9028 70.4546 26.8335 70.1239 26.6948C69.7933 26.5561 69.5266 26.3375 69.3239 26.0388C69.1319 25.7295 69.0359 25.3295 69.0359 24.8388V20.0228H67.9319V18.3748H69.0359V15.6548H71.1799V18.3748H72.9399V20.0228H71.1799V24.1188C71.1906 24.4068 71.2706 24.6148 71.4199 24.7428C71.5693 24.8708 71.7559 24.9348 71.9799 24.9348C72.2039 24.9348 72.4226 24.8975 72.6359 24.8228C72.8493 24.7481 73.0199 24.6841 73.1479 24.6308L73.5799 26.3268ZM84.7803 18.3748C84.7056 18.3001 84.567 18.1988 84.3643 18.0708C84.1723 17.9428 83.9323 17.8201 83.6443 17.7028C83.367 17.5855 83.063 17.4841 82.7323 17.3988C82.4016 17.3028 82.0656 17.2548 81.7243 17.2548C81.127 17.2548 80.6736 17.3668 80.3643 17.5908C80.0656 17.8148 79.9163 18.1295 79.9163 18.5348C79.9163 18.8441 80.0123 19.0895 80.2043 19.2708C80.3963 19.4521 80.6843 19.6068 81.0683 19.7348C81.4523 19.8628 81.9323 20.0015 82.5083 20.1508C83.255 20.3321 83.9003 20.5561 84.4443 20.8228C84.999 21.0788 85.4203 21.4201 85.7083 21.8468C86.007 22.2628 86.1563 22.8175 86.1563 23.5108C86.1563 24.1188 86.0443 24.6415 85.8203 25.0788C85.5963 25.5055 85.287 25.8521 84.8923 26.1188C84.4976 26.3855 84.0496 26.5828 83.5483 26.7108C83.047 26.8281 82.5136 26.8868 81.9483 26.8868C81.383 26.8868 80.8176 26.8281 80.2523 26.7108C79.687 26.5935 79.143 26.4281 78.6203 26.2148C78.0976 25.9908 77.6176 25.7241 77.1803 25.4148L78.1563 23.5108C78.2523 23.6068 78.423 23.7348 78.6683 23.8948C78.9136 24.0441 79.2123 24.1988 79.5643 24.3588C79.9163 24.5081 80.3003 24.6361 80.7163 24.7428C81.1323 24.8495 81.5536 24.9028 81.9803 24.9028C82.5776 24.9028 83.031 24.8015 83.3403 24.5988C83.6496 24.3961 83.8043 24.1081 83.8043 23.7348C83.8043 23.3935 83.6816 23.1268 83.4363 22.9348C83.191 22.7428 82.8496 22.5775 82.4123 22.4388C81.975 22.2895 81.4576 22.1295 80.8603 21.9588C80.1456 21.7561 79.5483 21.5321 79.0683 21.2868C78.5883 21.0308 78.231 20.7108 77.9963 20.3268C77.7616 19.9428 77.6443 19.4628 77.6443 18.8868C77.6443 18.1081 77.8256 17.4575 78.1883 16.9348C78.5616 16.4015 79.063 16.0015 79.6923 15.7348C80.3216 15.4575 81.0203 15.3188 81.7883 15.3188C82.3216 15.3188 82.823 15.3775 83.2923 15.4948C83.7723 15.6121 84.2203 15.7668 84.6363 15.9588C85.0523 16.1508 85.4256 16.3588 85.7563 16.5828L84.7803 18.3748ZM92.0853 26.3268C91.904 26.4015 91.6853 26.4868 91.4293 26.5828C91.1733 26.6788 90.896 26.7535 90.5973 26.8068C90.3093 26.8708 90.016 26.9028 89.7173 26.9028C89.3226 26.9028 88.96 26.8335 88.6293 26.6948C88.2986 26.5561 88.032 26.3375 87.8293 26.0388C87.6373 25.7295 87.5413 25.3295 87.5413 24.8388V20.0228H86.4373V18.3748H87.5413V15.6548H89.6853V18.3748H91.4453V20.0228H89.6853V24.1188C89.696 24.4068 89.776 24.6148 89.9253 24.7428C90.0746 24.8708 90.2613 24.9348 90.4853 24.9348C90.7093 24.9348 90.928 24.8975 91.1413 24.8228C91.3546 24.7481 91.5253 24.6841 91.6533 24.6308L92.0853 26.3268ZM92.2579 24.2788C92.2579 23.7348 92.4073 23.2601 92.7059 22.8548C93.0153 22.4388 93.4419 22.1188 93.9859 21.8948C94.5299 21.6708 95.1539 21.5588 95.8579 21.5588C96.2099 21.5588 96.5673 21.5855 96.9299 21.6388C97.2926 21.6921 97.6073 21.7775 97.8739 21.8948V21.4468C97.8739 20.9135 97.7139 20.5028 97.3939 20.2148C97.0846 19.9268 96.6206 19.7828 96.0019 19.7828C95.5433 19.7828 95.1059 19.8628 94.6899 20.0228C94.2739 20.1828 93.8366 20.4175 93.3779 20.7268L92.6899 19.3188C93.2446 18.9561 93.8099 18.6841 94.3859 18.5028C94.9726 18.3215 95.5859 18.2308 96.2259 18.2308C97.4206 18.2308 98.3486 18.5295 99.0099 19.1268C99.6819 19.7241 100.018 20.5775 100.018 21.6868V24.3588C100.018 24.5828 100.055 24.7428 100.13 24.8388C100.215 24.9348 100.349 24.9935 100.53 25.0148V26.7588C100.338 26.7908 100.162 26.8175 100.002 26.8388C99.8526 26.8601 99.7246 26.8708 99.6179 26.8708C99.1913 26.8708 98.8659 26.7748 98.6419 26.5828C98.4286 26.3908 98.2953 26.1561 98.2419 25.8788L98.1939 25.4468C97.8313 25.9161 97.3779 26.2788 96.8339 26.5348C96.2899 26.7908 95.7353 26.9188 95.1699 26.9188C94.6153 26.9188 94.1139 26.8068 93.6659 26.5828C93.2286 26.3481 92.8819 26.0335 92.6259 25.6388C92.3806 25.2335 92.2579 24.7801 92.2579 24.2788ZM97.4739 24.7108C97.5913 24.5828 97.6873 24.4548 97.7619 24.3268C97.8366 24.1988 97.8739 24.0815 97.8739 23.9748V23.1268C97.6179 23.0201 97.3406 22.9401 97.0419 22.8868C96.7433 22.8228 96.4606 22.7908 96.1939 22.7908C95.6393 22.7908 95.1806 22.9135 94.8179 23.1588C94.4659 23.3935 94.2899 23.7081 94.2899 24.1028C94.2899 24.3161 94.3486 24.5188 94.4659 24.7108C94.5833 24.9028 94.7539 25.0575 94.9779 25.1748C95.2019 25.2921 95.4686 25.3508 95.7779 25.3508C96.0979 25.3508 96.4126 25.2921 96.7219 25.1748C97.0313 25.0468 97.2819 24.8921 97.4739 24.7108ZM106.645 20.2308C105.995 20.2308 105.413 20.3588 104.901 20.6148C104.389 20.8601 104.021 21.2175 103.797 21.6868V26.7588H101.653V18.3748H103.621V20.1668C103.92 19.5908 104.299 19.1375 104.757 18.8068C105.216 18.4761 105.701 18.2948 106.213 18.2628C106.331 18.2628 106.421 18.2628 106.485 18.2628C106.549 18.2628 106.603 18.2681 106.645 18.2788V20.2308ZM112.497 26.3268C112.316 26.4015 112.097 26.4868 111.841 26.5828C111.585 26.6788 111.308 26.7535 111.009 26.8068C110.721 26.8708 110.428 26.9028 110.129 26.9028C109.734 26.9028 109.372 26.8335 109.041 26.6948C108.71 26.5561 108.444 26.3375 108.241 26.0388C108.049 25.7295 107.953 25.3295 107.953 24.8388V20.0228H106.849V18.3748H107.953V15.6548H110.097V18.3748H111.857V20.0228H110.097V24.1188C110.108 24.4068 110.188 24.6148 110.337 24.7428C110.486 24.8708 110.673 24.9348 110.897 24.9348C111.121 24.9348 111.34 24.8975 111.553 24.8228C111.766 24.7481 111.937 24.6841 112.065 24.6308L112.497 26.3268ZM117.04 26.9188C116.368 26.9188 115.76 26.8068 115.216 26.5828C114.672 26.3481 114.208 26.0335 113.824 25.6388C113.44 25.2335 113.141 24.7748 112.928 24.2628C112.725 23.7401 112.624 23.1908 112.624 22.6148C112.624 21.8148 112.8 21.0841 113.152 20.4228C113.514 19.7615 114.026 19.2335 114.688 18.8388C115.36 18.4335 116.149 18.2308 117.056 18.2308C117.973 18.2308 118.757 18.4335 119.408 18.8388C120.058 19.2335 120.554 19.7615 120.896 20.4228C121.248 21.0735 121.424 21.7775 121.424 22.5348C121.424 22.6628 121.418 22.7961 121.408 22.9348C121.397 23.0628 121.386 23.1695 121.376 23.2548H114.896C114.938 23.6815 115.061 24.0548 115.264 24.3748C115.477 24.6948 115.744 24.9401 116.064 25.1108C116.394 25.2708 116.746 25.3508 117.12 25.3508C117.546 25.3508 117.946 25.2495 118.32 25.0468C118.704 24.8335 118.965 24.5561 119.104 24.2148L120.944 24.7268C120.741 25.1535 120.448 25.5321 120.064 25.8628C119.69 26.1935 119.248 26.4548 118.736 26.6468C118.224 26.8281 117.658 26.9188 117.04 26.9188ZM114.848 21.8948H119.232C119.189 21.4681 119.066 21.1001 118.864 20.7908C118.672 20.4708 118.416 20.2255 118.096 20.0548C117.776 19.8735 117.418 19.7828 117.024 19.7828C116.64 19.7828 116.288 19.8735 115.968 20.0548C115.658 20.2255 115.402 20.4708 115.2 20.7908C115.008 21.1001 114.89 21.4681 114.848 21.8948ZM121.85 22.5668C121.85 21.7561 122.01 21.0255 122.33 20.3748C122.65 19.7135 123.093 19.1908 123.658 18.8068C124.223 18.4228 124.869 18.2308 125.594 18.2308C126.213 18.2308 126.767 18.3855 127.258 18.6948C127.759 18.9935 128.149 19.3775 128.426 19.8468V15.0788H130.57V24.3588C130.57 24.5828 130.607 24.7428 130.682 24.8388C130.757 24.9348 130.885 24.9935 131.066 25.0148V26.7588C130.693 26.8335 130.389 26.8708 130.154 26.8708C129.77 26.8708 129.45 26.7748 129.194 26.5828C128.949 26.3908 128.81 26.1401 128.778 25.8308L128.746 25.3028C128.437 25.8255 128.015 26.2255 127.482 26.5028C126.959 26.7801 126.41 26.9188 125.834 26.9188C125.258 26.9188 124.725 26.8068 124.234 26.5828C123.754 26.3588 123.333 26.0495 122.97 25.6548C122.618 25.2601 122.341 24.8015 122.138 24.2788C121.946 23.7455 121.85 23.1748 121.85 22.5668ZM128.426 23.6868V21.6868C128.319 21.3775 128.149 21.1001 127.914 20.8548C127.679 20.6095 127.418 20.4175 127.13 20.2788C126.842 20.1295 126.554 20.0548 126.266 20.0548C125.935 20.0548 125.637 20.1241 125.37 20.2628C125.103 20.4015 124.869 20.5881 124.666 20.8228C124.474 21.0575 124.325 21.3295 124.218 21.6388C124.122 21.9481 124.074 22.2735 124.074 22.6148C124.074 22.9561 124.127 23.2815 124.234 23.5908C124.351 23.8895 124.517 24.1508 124.73 24.3748C124.943 24.5988 125.189 24.7748 125.466 24.9028C125.754 25.0308 126.063 25.0948 126.394 25.0948C126.597 25.0948 126.799 25.0628 127.002 24.9988C127.215 24.9241 127.413 24.8281 127.594 24.7108C127.786 24.5828 127.951 24.4335 128.09 24.2628C128.239 24.0815 128.351 23.8895 128.426 23.6868Z" fill="white"/>
</svg>
