<svg width="95" height="21" viewBox="0 0 95 21" fill="none" xmlns="http://www.w3.org/2000/svg">
<path fill-rule="evenodd" clip-rule="evenodd" d="M51.7472 13.5523L57.565 19.3379C58.7004 20.4664 60.538 20.4638 61.6682 19.3302L67.4143 13.5677C70.4924 10.4817 70.2028 5.25899 66.607 2.7948C66.5583 2.76153 66.5121 2.72828 66.4634 2.69757C62.3628 -0.0378658 56.8346 -0.0608987 52.7108 2.63871C52.6673 2.66686 52.6211 2.69757 52.5775 2.72571C48.9305 5.17455 48.6306 10.4561 51.7446 13.5523H51.7472Z" fill="#EB8950"/>
<path fill-rule="evenodd" clip-rule="evenodd" d="M88.3291 2.76575L94.1239 8.57439C95.2541 9.70797 95.2515 11.5427 94.1162 12.6711L88.3445 18.4081C85.2536 21.4813 80.0227 21.1922 77.5546 17.6021C77.5213 17.5535 77.4879 17.5074 77.4572 17.4588C74.7174 13.3646 74.6944 7.84511 77.3982 3.72789C77.4264 3.68439 77.4572 3.63833 77.4854 3.59483C79.9381 -0.0464503 85.228 -0.345838 88.3291 2.76319V2.76575Z" fill="#018076"/>
<path fill-rule="evenodd" clip-rule="evenodd" d="M41.6122 7.25993L35.7943 1.47432C34.659 0.345852 32.8214 0.348411 31.6911 1.48199L25.945 7.24457C22.867 10.3306 23.1566 15.5532 26.7524 18.0174C26.801 18.0507 26.8472 18.084 26.8959 18.1147C30.9966 20.8501 36.5248 20.8731 40.6485 18.1735C40.6921 18.1454 40.7382 18.1147 40.7818 18.0865C44.4288 15.6377 44.7287 10.3562 41.6147 7.25993H41.6122Z" fill="#1B4071"/>
<path fill-rule="evenodd" clip-rule="evenodd" d="M6.6708 18.4239L0.876042 12.6153C-0.254206 11.4817 -0.251644 9.64699 0.88373 8.51853L6.65543 2.78153C9.74631 -0.291673 14.9772 -0.00251842 17.4453 3.58758C17.4786 3.6362 17.512 3.68226 17.5427 3.73088C20.2825 7.82507 20.3055 13.3446 17.6017 17.4618C17.5735 17.5053 17.5427 17.5513 17.5145 17.5948C15.0618 21.2361 9.77194 21.5355 6.6708 18.4265V18.4239Z" fill="#CF3245"/>
</svg>
