<svg width="90" height="28" viewBox="0 0 90 28" fill="none" xmlns="http://www.w3.org/2000/svg">
<path fill-rule="evenodd" clip-rule="evenodd" d="M14.4976 14.3821C14.5849 17.1076 15.6688 19.8108 17.756 21.8798C15.7341 19.9042 12.4613 19.9191 10.4545 21.8942L10.4401 21.9085L9.48002 22.8602C9.35624 22.9829 9.2111 23.0402 9.04335 23.0333C8.88313 23.0333 8.73045 22.9829 8.60731 22.8602L6.88389 21.1661L5.17491 19.457C5.14601 19.4283 5.11711 19.3997 5.09512 19.3636C5.07376 19.3274 5.05114 19.2913 5.04423 19.2552C5.02224 19.2191 5.01532 19.1829 5.00778 19.1468C4.97888 18.988 5.00778 18.8292 5.10266 18.6928C5.11711 18.6641 5.1391 18.628 5.168 18.5993L5.18245 18.585L6.14249 17.6333L6.15694 17.619C8.24415 15.5499 10.9785 14.4686 13.7273 14.3821C13.9818 14.3746 14.2431 14.3746 14.4982 14.3821H14.4976Z" fill="#EB8950"/>
<path fill-rule="evenodd" clip-rule="evenodd" d="M19.6166 5.13542L23.049 8.538L23.0635 8.55233C23.1144 8.6171 23.1577 8.67503 23.1873 8.74728C23.1948 8.75475 23.1948 8.76908 23.2017 8.79088C23.2237 8.85565 23.2382 8.91358 23.2313 8.97835C23.2313 9.09358 23.1873 9.2088 23.1295 9.3097C23.1075 9.34583 23.0786 9.37448 23.0497 9.40375L22.5772 9.88646L22.0827 10.3623C22.0607 10.3841 22.0318 10.4128 22.0098 10.4489L21.9954 10.4632C19.9157 12.4818 17.2247 13.5344 14.4979 13.6135C14.2434 13.6347 13.9814 13.6353 13.7194 13.621C13.6396 10.8886 12.5483 8.19233 10.4686 6.13072L9.51611 5.17154L10.4686 6.11577C12.4836 8.09828 15.7413 8.09828 17.7632 6.12325L18.7521 5.14289C18.781 5.11424 18.8105 5.08497 18.847 5.06379C18.8759 5.03514 18.9199 5.02019 18.9557 5.01334C19.0286 4.98469 19.1014 4.96974 19.1812 4.96289C19.2541 4.96289 19.3408 4.97722 19.4137 5.00649C19.4866 5.03514 19.5595 5.07874 19.6173 5.13604L19.6166 5.13542Z" fill="#1B4071"/>
<path fill-rule="evenodd" clip-rule="evenodd" d="M21.996 10.4619C20.0683 12.4587 20.0979 15.6452 22.0688 17.6134L23.0289 18.5651C23.0578 18.5937 23.0873 18.623 23.1087 18.6591C23.1885 18.7818 23.218 18.9114 23.2029 19.0553C23.1809 19.1923 23.1156 19.3293 23.0138 19.4302L19.6028 22.8259L19.5952 22.8334C19.5368 22.8913 19.4645 22.9343 19.3917 22.963C19.3188 22.9916 19.2321 23.0066 19.1592 23.0066C18.999 23.0066 18.8318 22.9418 18.7156 22.8266L17.7556 21.8749C15.6684 19.8058 14.5845 17.1027 14.4972 14.3771C14.4897 14.1248 14.4828 13.8726 14.4972 13.6129C17.224 13.5338 19.915 12.4812 21.9947 10.4625L21.996 10.4619Z" fill="#018076"/>
<path fill-rule="evenodd" clip-rule="evenodd" d="M9.51965 5.16975L10.4721 6.12892C12.5518 8.19053 13.6425 10.8874 13.723 13.6192C13.7374 13.8646 13.7443 14.1169 13.7305 14.376C10.9817 14.4625 8.24671 15.5438 6.16013 17.6129C8.16001 15.6304 8.16001 12.386 6.17458 10.3892L5.20009 9.42313C5.1781 9.40134 5.1492 9.37268 5.13475 9.34403C5.0914 9.27178 5.06187 9.20016 5.03988 9.12043C5.03234 9.08431 5.03234 9.04133 5.03296 8.99773C5.03296 8.88251 5.06187 8.76728 5.12721 8.65891C5.14857 8.62278 5.1781 8.59413 5.207 8.56548L6.91598 6.85703L7.48333 6.2946L8.63249 5.17037C8.72736 5.07632 8.8436 5.01902 8.95292 4.99722C8.9969 4.99722 9.03272 4.98975 9.0767 4.98975C9.15649 4.99722 9.23628 5.00407 9.30917 5.03334C9.38205 5.062 9.45431 5.10559 9.52028 5.17037L9.51965 5.16975Z" fill="#CF3245"/>
<path fill-rule="evenodd" clip-rule="evenodd" d="M12.1929 26.3861L13.6191 27.7943C13.8975 28.069 14.348 28.0684 14.625 27.7925L16.0337 26.3898C16.7883 25.6387 16.7173 24.3675 15.8358 23.7677C15.8238 23.7596 15.8125 23.7515 15.8006 23.744C14.7953 23.0782 13.4401 23.0726 12.4291 23.7297C12.4185 23.7365 12.4071 23.744 12.3965 23.7509C11.5024 24.3469 11.4289 25.6325 12.1923 26.3861H12.1929Z" fill="#EB8950"/>
<path fill-rule="evenodd" clip-rule="evenodd" d="M26.6143 12.0878L28.0349 13.5016C28.312 13.7775 28.3114 14.2241 28.033 14.4988L26.6181 15.8952C25.8604 16.6432 24.578 16.5728 23.973 15.699C23.9648 15.6872 23.9566 15.6759 23.9491 15.6641C23.2774 14.6676 23.2718 13.3241 23.9346 12.3219C23.9416 12.3114 23.9491 12.3001 23.956 12.2896C24.5573 11.4032 25.8541 11.3304 26.6143 12.0871V12.0878Z" fill="#018076"/>
<path fill-rule="evenodd" clip-rule="evenodd" d="M16.0416 1.61378L14.6154 0.205539C14.3371 -0.0691343 13.8866 -0.0685115 13.6095 0.207407L12.2008 1.61005C11.4463 2.36119 11.5173 3.63241 12.3988 4.23221C12.4107 4.24031 12.422 4.2484 12.4339 4.25588C13.4392 4.92169 14.7945 4.9273 15.8054 4.2702C15.8161 4.26335 15.8274 4.25588 15.8381 4.24903C16.7321 3.65297 16.8057 2.36742 16.0423 1.61378H16.0416Z" fill="#1B4071"/>
<path fill-rule="evenodd" clip-rule="evenodd" d="M1.62792 15.9144L0.20734 14.5006C-0.06974 14.2246 -0.0691118 13.7781 0.209224 13.5034L1.62415 12.107C2.38188 11.359 3.66424 11.4293 4.26929 12.3032C4.27746 12.315 4.28563 12.3262 4.29316 12.3381C4.96482 13.3346 4.97047 14.6781 4.30762 15.6802C4.30071 15.6908 4.29317 15.702 4.28625 15.7126C3.68497 16.5989 2.38816 16.6718 1.62792 15.915V15.9144Z" fill="#CF3245"/>
<g style="mix-blend-mode:multiply" opacity="0.2">
<mask id="mask0_2538_30837" style="mask-type:luminance" maskUnits="userSpaceOnUse" x="4" y="4" width="20" height="20">
<path d="M23.0297 18.5669L22.0697 17.6152C20.0987 15.647 20.0692 12.4605 21.9968 10.4637C22.0014 10.4591 22.0062 10.4544 22.0112 10.4494C22.0332 10.4132 22.0621 10.3846 22.0841 10.3628L22.5786 9.88694L23.0511 9.40362C23.08 9.37497 23.1095 9.34569 23.1309 9.31019C23.1893 9.20929 23.2327 9.09407 23.2327 8.97884C23.2402 8.91406 23.2251 8.85614 23.2038 8.79136C23.1962 8.76956 23.1962 8.75524 23.1893 8.74776C23.1604 8.67551 23.1171 8.61821 23.0655 8.55344C23.0609 8.54887 23.0561 8.5441 23.0511 8.53911L19.6187 5.13653C19.5602 5.07923 19.488 5.03563 19.4151 5.00698C19.3422 4.97833 19.2555 4.96338 19.1826 4.96338C19.1028 4.97085 19.03 4.98518 18.9571 5.01383C18.9206 5.02068 18.8773 5.03563 18.8484 5.06428C18.8119 5.08546 18.7824 5.11473 18.7535 5.14338L17.7646 6.12373C15.7427 8.09876 12.485 8.09939 10.4706 6.11626L9.51814 5.17203C9.4528 5.10726 9.37992 5.06366 9.30703 5.03501C9.23415 5.00635 9.15436 4.99888 9.07456 4.99203C9.03058 4.99203 8.99477 4.99888 8.95079 4.99888C8.84147 5.02068 8.72523 5.07798 8.63036 5.17203L7.48183 6.29688L6.91447 6.85931L5.2055 8.56839C5.1766 8.59704 5.14707 8.62631 5.1257 8.66181C5.06036 8.77019 5.03146 8.88541 5.03146 9.00064C5.03146 9.04361 5.03146 9.08721 5.03837 9.12334C5.06036 9.20244 5.08926 9.27469 5.13324 9.34694C5.14769 9.37559 5.1766 9.40486 5.19859 9.42666L6.17308 10.3927C8.1585 12.3895 8.1585 15.6339 6.15863 17.6164L6.14418 17.6307L5.18414 18.5824L5.16968 18.5968C5.14078 18.6254 5.11879 18.6615 5.10434 18.6902C5.00947 18.8272 4.98057 18.9854 5.0101 19.1442C5.01701 19.1804 5.02455 19.2159 5.04591 19.252C5.05345 19.2881 5.07544 19.3236 5.0968 19.3604C5.11879 19.3965 5.14769 19.4251 5.1766 19.4538L6.88557 21.1629L8.60899 22.857C8.73277 22.9797 8.88545 23.0301 9.04503 23.0301C9.21216 23.0376 9.35793 22.9797 9.48107 22.8576L10.4411 21.9059C10.4461 21.9014 10.4512 21.8966 10.4562 21.8916C12.463 19.9166 15.7358 19.9022 17.7577 21.8773L18.7177 22.829C18.8339 22.9442 19.0011 23.009 19.1613 23.009C19.2342 23.009 19.3215 22.994 19.3937 22.9654C19.4666 22.9367 19.5389 22.8937 19.5973 22.8358L19.6042 22.8283L23.0153 19.4326C23.1171 19.3317 23.1824 19.1947 23.2044 19.0577C23.2188 18.9138 23.1899 18.7836 23.1101 18.6609C23.0882 18.6248 23.0592 18.5961 23.0297 18.5675V18.5669ZM13.7284 14.3783C13.7428 14.1185 13.7353 13.8663 13.7208 13.6215C13.9828 13.6358 14.2442 13.6358 14.4993 13.6146C14.4848 13.8738 14.4918 14.1266 14.4993 14.3789C14.2448 14.372 13.9828 14.372 13.7284 14.3789V14.3783Z" fill="white"/>
</mask>
<g mask="url(#mask0_2538_30837)">
<path fill-rule="evenodd" clip-rule="evenodd" d="M13.7756 13.6196H13.721C13.6355 10.889 12.5492 8.18838 10.4695 6.1274L9.51514 5.17383L10.4695 6.11245C11.106 6.73529 11.8662 7.1663 12.6736 7.40485C13.7134 9.19676 14.0395 12.0357 13.7756 13.6202V13.6196Z" fill="black"/>
<path fill-rule="evenodd" clip-rule="evenodd" d="M14.4948 13.6688V13.6146C17.2492 13.5299 19.9735 12.453 22.0526 10.3914L23.0145 9.44531L22.0677 10.3914C21.4394 11.0223 21.0046 11.776 20.7639 12.5763C18.9563 13.6071 16.0925 13.9304 14.4941 13.6688H14.4948Z" fill="black"/>
<path fill-rule="evenodd" clip-rule="evenodd" d="M13.7336 14.3232V14.3774C10.9791 14.4621 8.25483 15.539 6.17579 17.6006L5.21387 18.5467L6.16071 17.6006C6.78901 16.9697 7.2238 16.2161 7.46443 15.4157C9.27205 14.3849 12.1358 14.0617 13.7342 14.3232H13.7336Z" fill="black"/>
<path fill-rule="evenodd" clip-rule="evenodd" d="M14.4466 14.3776H14.5012C14.5867 17.1081 15.673 19.8088 17.7527 21.8697L18.7071 22.8233L17.7527 21.8847C17.1162 21.2618 16.356 20.8308 15.5486 20.5923C14.5088 18.8004 14.1827 15.9615 14.4466 14.377V14.3776Z" fill="black"/>
</g>
</g>
<path d="M34.6393 20.3325C34.1851 20.3325 33.8169 19.9676 33.8169 19.5179L33.8081 7.6571C33.8081 7.20678 34.1763 6.8418 34.6299 6.8418C35.0836 6.8418 35.4524 7.20678 35.4524 7.6571L35.4605 18.7032H42.0137C42.468 18.7032 42.8355 19.0682 42.8355 19.5185C42.8355 19.9688 42.4673 20.3332 42.0137 20.3332H34.6393V20.3325Z" fill="black"/>
<path d="M47.9426 10.9103C50.5909 10.9122 52.7372 13.0398 52.7378 15.6651C52.7378 16.1154 52.3696 16.4797 51.9154 16.4797H44.8998C45.2717 17.8419 46.5183 18.788 47.942 18.7886C48.8556 18.7892 49.7245 18.3962 50.3226 17.7111C50.6204 17.371 51.1394 17.3349 51.4825 17.6295C51.8255 17.9247 51.862 18.4392 51.5648 18.7793C50.655 19.8213 49.3331 20.4192 47.9433 20.418C45.295 20.4167 43.1487 18.2891 43.1475 15.6638C43.1487 13.0385 45.295 10.9109 47.9433 10.9097L47.9426 10.9103ZM50.9842 14.8491C50.6117 13.4876 49.3657 12.5415 47.9426 12.5403C46.5195 12.5415 45.273 13.4876 44.9004 14.8491H50.9842Z" fill="black"/>
<path d="M58.2436 20.4189C55.5953 20.4177 53.449 18.2901 53.4478 15.6648C53.449 13.0395 55.5953 10.9119 58.2436 10.9106C60.8918 10.9119 63.0381 13.0395 63.0394 15.6648V19.6036C63.0394 20.054 62.6712 20.4183 62.2169 20.4183C61.7627 20.4183 61.3951 20.0533 61.3951 19.6036V19.2468C60.523 20.0035 59.4028 20.4196 58.2436 20.4183V20.4189ZM55.092 15.6648C55.0926 17.3901 56.5032 18.7883 58.2436 18.789C59.9839 18.7883 61.3945 17.3901 61.3951 15.6648C61.3945 13.9395 59.9839 12.5412 58.2436 12.5406C56.5032 12.5412 55.0926 13.9395 55.092 15.6648Z" fill="black"/>
<path d="M69.7052 11.8173C69.7052 12.2676 69.337 12.6319 68.8827 12.6319H67.3754C67.0116 12.6319 66.6636 12.7752 66.4066 13.0299C66.1496 13.2847 66.0051 13.6303 66.0051 13.9903V19.6046C66.0051 20.055 65.6369 20.4193 65.1827 20.4193C64.7284 20.4193 64.3608 20.0543 64.3608 19.6046V13.9903C64.3608 13.1981 64.6781 12.4376 65.2436 11.8777C65.8091 11.3171 66.5756 11.002 67.3754 11.002H68.8827C69.337 11.002 69.7052 11.3669 69.7052 11.8173Z" fill="black"/>
<path d="M70.6446 20.4183C70.1903 20.4183 69.8228 20.0533 69.8228 19.6036V15.6648C69.824 13.0395 71.9703 10.9119 74.6186 10.9106C77.2668 10.9119 79.4131 13.0395 79.4144 15.6648V19.6036C79.4144 20.054 79.0462 20.4183 78.5919 20.4183C78.1377 20.4183 77.7701 20.0533 77.7701 19.6036V15.6648C77.7695 13.9395 76.3589 12.5412 74.6186 12.5406C72.8782 12.5412 71.4676 13.9395 71.467 15.6648V19.6036C71.467 20.054 71.0988 20.4183 70.6446 20.4183Z" fill="black"/>
<path d="M85.204 20.4189C82.5557 20.4177 80.4095 18.2901 80.4082 15.6648C80.4095 13.0395 82.5557 10.9119 85.204 10.9106C87.8523 10.9119 89.9986 13.0395 89.9998 15.6648V19.6036C89.9998 20.054 89.6316 20.4183 89.1774 20.4183C88.7231 20.4183 88.3556 20.0533 88.3556 19.6036V19.2468C87.4835 20.0035 86.3632 20.4196 85.204 20.4183V20.4189ZM82.0525 15.6648C82.0531 17.3901 83.4636 18.7883 85.204 18.789C86.9444 18.7883 88.3549 17.3901 88.3556 15.6648C88.3549 13.9395 86.9444 12.5412 85.204 12.5406C83.4636 12.5412 82.0531 13.9395 82.0525 15.6648Z" fill="black"/>
</svg>
