<svg width="47" height="11" viewBox="0 0 47 11" fill="none" xmlns="http://www.w3.org/2000/svg">
<path fill-rule="evenodd" clip-rule="evenodd" d="M25.5224 7.12538L28.2935 9.88117C28.8343 10.4187 29.7096 10.4175 30.248 9.87752L32.9849 7.1327C34.451 5.66278 34.3131 3.17514 32.6004 2.0014C32.5772 1.98556 32.5552 1.96972 32.532 1.95509C30.5788 0.652155 27.9456 0.641184 25.9814 1.92705C25.9606 1.94046 25.9387 1.95509 25.9179 1.96849C24.1808 3.13492 24.0379 5.65059 25.5212 7.12538H25.5224Z" fill="#EB8950"/>
<path fill-rule="evenodd" clip-rule="evenodd" d="M42.9476 1.98756L45.7078 4.75432C46.2461 5.29426 46.2449 6.16817 45.7041 6.70567L42.9549 9.4383C41.4827 10.9021 38.9911 10.7644 37.8155 9.05437C37.7997 9.03121 37.7838 9.00927 37.7691 8.98611C36.4641 7.03598 36.4532 4.40695 37.7411 2.44585C37.7545 2.42513 37.7692 2.40319 37.7826 2.38247C38.9508 0.648066 41.4705 0.505462 42.9476 1.98635V1.98756Z" fill="#018076"/>
<path fill-rule="evenodd" clip-rule="evenodd" d="M20.695 4.12822L17.9239 1.37243C17.3831 0.834926 16.5078 0.836145 15.9694 1.37609L13.2325 4.1209C11.7663 5.59082 11.9043 8.07846 13.617 9.2522C13.6402 9.26804 13.6622 9.28389 13.6854 9.29852C15.6386 10.6014 18.2718 10.6124 20.236 9.32655C20.2567 9.31314 20.2787 9.29852 20.2995 9.28511C22.0366 8.11868 22.1794 5.60301 20.6962 4.12822H20.695Z" fill="#1B4071"/>
<path fill-rule="evenodd" clip-rule="evenodd" d="M4.05216 9.44528L1.29201 6.67852C0.753658 6.13858 0.754878 5.26468 1.29568 4.72717L4.04483 1.99454C5.51707 0.530722 8.00865 0.668452 9.18425 2.37848C9.20012 2.40163 9.21598 2.42357 9.23063 2.44673C10.5356 4.39687 10.5466 7.02589 9.25871 8.987C9.24528 9.00772 9.23063 9.02966 9.21721 9.05038C8.04894 10.7848 5.52928 10.9274 4.05216 9.4465V9.44528Z" fill="#CF3245"/>
</svg>
