<svg width="149" height="149" viewBox="0 0 149 149" fill="none" xmlns="http://www.w3.org/2000/svg">
<g filter="url(#filter0_d_2538_31110)">
<path fill-rule="evenodd" clip-rule="evenodd" d="M75.4707 66.868C75.7327 75.1038 78.9844 83.2719 85.2464 89.524C79.1804 83.5542 69.3614 83.5993 63.3406 89.5673L63.2973 89.6106L60.417 92.4863C60.0456 92.8571 59.6102 93.0302 59.1069 93.0095C58.6262 93.0095 58.1682 92.8571 57.7987 92.4863L52.6281 87.3672L47.5008 82.2029C47.4141 82.1163 47.3274 82.0297 47.2614 81.9206C47.1974 81.8114 47.1295 81.7022 47.1088 81.5931C47.0428 81.4839 47.022 81.3748 46.9994 81.2656C46.9127 80.7857 46.9994 80.3058 47.2841 79.8936C47.3274 79.807 47.3934 79.6979 47.4801 79.6113L47.5235 79.568L50.4038 76.6923L50.4471 76.649C56.7091 70.3968 64.9127 67.1296 73.1597 66.868C73.9231 66.8454 74.7073 66.8454 75.4726 66.868H75.4707Z" fill="#EB8950"/>
<path fill-rule="evenodd" clip-rule="evenodd" d="M90.8333 38.9398L101.131 49.2214L101.174 49.2646C101.327 49.4604 101.457 49.6354 101.546 49.8537C101.568 49.8763 101.568 49.9196 101.589 49.9855C101.655 50.1812 101.699 50.3562 101.678 50.552C101.678 50.9001 101.546 51.2483 101.372 51.5532C101.306 51.6624 101.22 51.7489 101.133 51.8374L99.7155 53.296L98.232 54.7339C98.166 54.7997 98.0793 54.8863 98.0133 54.9955L97.97 55.0387C91.7306 61.1384 83.657 64.3191 75.4761 64.5581C74.7126 64.6221 73.9266 64.624 73.1405 64.5807C72.9011 56.3242 69.6269 48.1768 63.3875 41.9473L60.5298 39.0489L63.3875 41.9021C69.4327 47.8926 79.2065 47.8926 85.2725 41.9247L88.2395 38.9624C88.3262 38.8758 88.4148 38.7873 88.5242 38.7233C88.6109 38.6368 88.7428 38.5916 88.8503 38.5709C89.0689 38.4843 89.2876 38.4392 89.527 38.4185C89.7456 38.4185 90.0058 38.4617 90.2244 38.5502C90.4431 38.6368 90.6618 38.7685 90.8352 38.9417L90.8333 38.9398Z" fill="#1B4071"/>
<path fill-rule="evenodd" clip-rule="evenodd" d="M97.9688 55.0386C92.1856 61.0724 92.2742 70.7009 98.1875 76.6482L101.068 79.5239C101.154 79.6105 101.243 79.6989 101.307 79.8081C101.547 80.1789 101.635 80.5703 101.59 81.0051C101.524 81.4191 101.328 81.8332 101.023 82.1381L90.7888 92.3989L90.7662 92.4215C90.5908 92.5965 90.3741 92.7264 90.1554 92.813C89.9367 92.8996 89.6766 92.9447 89.4579 92.9447C88.9773 92.9447 88.4759 92.749 88.1271 92.4008L85.2468 89.5251C78.9848 83.2729 75.7331 75.1049 75.4711 66.8691C75.4485 66.1068 75.4278 65.3446 75.4711 64.5598C83.6521 64.3208 91.7256 61.1401 97.965 55.0405L97.9688 55.0386Z" fill="#018076"/>
<path fill-rule="evenodd" clip-rule="evenodd" d="M60.5232 39.0493L63.3809 41.9476C69.6203 48.1772 72.8926 56.3264 73.1339 64.581C73.1773 65.3225 73.198 66.0848 73.1566 66.8677C64.9096 67.1293 56.7041 70.3965 50.444 76.6487C56.444 70.6581 56.444 60.8546 50.4873 54.8208L47.5637 51.9017C47.4977 51.8359 47.411 51.7493 47.3677 51.6627C47.2376 51.4444 47.149 51.228 47.083 50.9871C47.0604 50.8779 47.0604 50.748 47.0623 50.6163C47.0623 50.2681 47.149 49.9199 47.345 49.5925C47.4091 49.4833 47.4977 49.3967 47.5844 49.3102L52.7117 44.1477L54.4138 42.4482L57.8615 39.0512C58.1462 38.767 58.4949 38.5938 58.8229 38.528C58.9548 38.528 59.0623 38.5054 59.1942 38.5054C59.4336 38.528 59.673 38.5487 59.8917 38.6371C60.1104 38.7237 60.3271 38.8554 60.5251 39.0512L60.5232 39.0493Z" fill="#CF3245"/>
<path fill-rule="evenodd" clip-rule="evenodd" d="M68.5251 103.146L72.8041 107.402C73.6391 108.232 74.9907 108.23 75.822 107.396L80.0482 103.158C82.3121 100.888 82.0991 97.0468 79.4544 95.2344C79.4186 95.2099 79.3846 95.1854 79.3488 95.1629C76.3328 93.151 72.2668 93.134 69.2338 95.1196C69.2018 95.1403 69.1679 95.1629 69.1358 95.1836C66.4534 96.9847 66.2329 100.869 68.5232 103.146H68.5251Z" fill="#EB8950"/>
<path fill-rule="evenodd" clip-rule="evenodd" d="M111.797 59.9542L116.059 64.2264C116.891 65.0602 116.889 66.4096 116.054 67.2396L111.809 71.4591C109.535 73.7195 105.688 73.5068 103.873 70.8663C103.848 70.8305 103.824 70.7966 103.801 70.7609C101.786 67.7496 101.769 63.6901 103.758 60.6619C103.778 60.6299 103.801 60.596 103.822 60.564C105.626 57.8859 109.516 57.6657 111.797 59.9523V59.9542Z" fill="#018076"/>
<path fill-rule="evenodd" clip-rule="evenodd" d="M80.093 28.3017L75.8141 24.0464C74.979 23.2164 73.6274 23.2183 72.7961 24.052L68.5699 28.2904C66.306 30.5601 66.519 34.4013 69.1637 36.2138C69.1995 36.2382 69.2335 36.2627 69.2693 36.2853C72.2853 38.2972 76.3513 38.3141 79.3843 36.3286C79.4163 36.3079 79.4502 36.2853 79.4823 36.2646C82.1647 34.4635 82.3852 30.5789 80.0949 28.3017H80.093Z" fill="#1B4071"/>
<path fill-rule="evenodd" clip-rule="evenodd" d="M36.8484 71.5167L32.5864 67.2445C31.7551 66.4107 31.757 65.0613 32.5921 64.2313L36.8371 60.0118C39.1105 57.7515 42.9578 57.9641 44.773 60.6047C44.7976 60.6404 44.8221 60.6743 44.8447 60.71C46.8598 63.7213 46.8767 67.7809 44.888 70.8091C44.8673 70.8411 44.8447 70.8749 44.8239 70.9069C43.02 73.5851 39.1293 73.8053 36.8484 71.5186V71.5167Z" fill="#CF3245"/>
<g style="mix-blend-mode:multiply" opacity="0.2">
<mask id="mask0_2538_31110" style="mask-type:luminance" maskUnits="userSpaceOnUse" x="46" y="38" width="56" height="56">
<path d="M101.076 79.5241L98.1957 76.6483C92.2824 70.7011 92.1938 61.0726 97.977 55.0387C97.9908 55.0249 98.0053 55.0105 98.0203 54.9955C98.0863 54.8863 98.173 54.7997 98.239 54.7339L99.7225 53.296L101.14 51.8355C101.227 51.7489 101.315 51.6605 101.379 51.5532C101.555 51.2483 101.685 50.9001 101.685 50.552C101.707 50.3562 101.662 50.1812 101.598 49.9855C101.575 49.9196 101.575 49.8763 101.555 49.8537C101.468 49.6354 101.338 49.4623 101.183 49.2665C101.17 49.2527 101.155 49.2383 101.14 49.2232L90.8422 38.9417C90.6669 38.7685 90.4501 38.6368 90.2315 38.5502C90.0128 38.4636 89.7527 38.4185 89.534 38.4185C89.2946 38.441 89.0759 38.4843 88.8573 38.5709C88.7479 38.5916 88.6179 38.6368 88.5312 38.7233C88.4218 38.7873 88.3332 38.8758 88.2465 38.9624L85.2795 41.9247C79.2135 47.8926 69.4397 47.8945 63.3964 41.9021L60.5387 39.0489C60.3426 38.8532 60.124 38.7215 59.9053 38.6349C59.6867 38.5483 59.4473 38.5257 59.2079 38.505C59.0759 38.505 58.9685 38.5257 58.8365 38.5257C58.5085 38.5916 58.1598 38.7648 57.8752 39.0489L54.4293 42.4479L52.7272 44.1474L47.5999 49.3117C47.5132 49.3983 47.4246 49.4867 47.3605 49.594C47.1645 49.9215 47.0778 50.2697 47.0778 50.6178C47.0778 50.7477 47.0778 50.8794 47.0985 50.9886C47.1645 51.2276 47.2512 51.4459 47.3832 51.6642C47.4265 51.7508 47.5132 51.8393 47.5792 51.9052L50.5029 54.8242C56.4595 60.858 56.4595 70.6616 50.4595 76.6521L50.4161 76.6954L47.5358 79.5711L47.4925 79.6144C47.4058 79.701 47.3398 79.8101 47.2964 79.8967C47.0118 80.3108 46.9251 80.7888 47.0137 81.2687C47.0344 81.3779 47.057 81.4852 47.1211 81.5943C47.1438 81.7035 47.2097 81.8108 47.2738 81.9218C47.3398 82.031 47.4265 82.1175 47.5132 82.2041L52.6405 87.3684L57.8111 92.4876C58.1824 92.8583 58.6405 93.0108 59.1193 93.0108C59.6207 93.0334 60.058 92.8583 60.4275 92.4894L63.3078 89.6137C63.3229 89.5999 63.3379 89.5855 63.353 89.5704C69.3738 83.6025 79.1928 83.5592 85.2588 89.5271L88.1391 92.4029C88.4878 92.751 88.9892 92.9468 89.4699 92.9468C89.6886 92.9468 89.9506 92.9016 90.1674 92.815C90.386 92.7285 90.6028 92.5986 90.7781 92.4236L90.7988 92.401L101.033 82.1401C101.338 81.8352 101.534 81.4212 101.6 81.0071C101.643 80.5724 101.557 80.179 101.317 79.8083C101.251 79.6991 101.165 79.6125 101.076 79.526V79.5241ZM73.1702 66.8674C73.2135 66.0826 73.1909 65.3203 73.1476 64.5807C73.9336 64.624 74.7178 64.624 75.4831 64.56C75.4397 65.3429 75.4605 66.107 75.4831 66.8692C74.7197 66.8485 73.9336 66.8485 73.1702 66.8692V66.8674Z" fill="white"/>
</mask>
<g mask="url(#mask0_2538_31110)">
<path fill-rule="evenodd" clip-rule="evenodd" d="M73.3067 64.5839H73.1427C72.8864 56.3331 69.6272 48.1725 63.3878 41.9449L60.5244 39.0635L63.3878 41.8997C65.2973 43.7817 67.5781 45.0841 70.0004 45.8049C73.1201 51.2196 74.0984 59.7979 73.3067 64.5858V64.5839Z" fill="black"/>
<path fill-rule="evenodd" clip-rule="evenodd" d="M75.4667 64.7221V64.5583C83.7306 64.3024 91.9041 61.0483 98.1416 54.8188L101.028 51.96L98.1868 54.8188C96.3018 56.7253 94.9974 59.0026 94.2754 61.421C88.8522 64.5357 80.2603 65.5125 75.4648 64.7221H75.4667Z" fill="black"/>
<path fill-rule="evenodd" clip-rule="evenodd" d="M73.1848 66.6962V66.86C64.9209 67.1159 56.7475 70.37 50.51 76.5995L47.624 79.4583L50.4647 76.5995C52.3498 74.693 53.6542 72.4157 54.3762 69.9973C59.7993 66.8825 68.3913 65.9058 73.1867 66.6962H73.1848Z" fill="black"/>
<path fill-rule="evenodd" clip-rule="evenodd" d="M75.3255 66.8657H75.4895C75.7459 75.1165 79.0051 83.277 85.2445 89.5047L88.1078 92.3861L85.2445 89.5499C83.335 87.6678 81.0541 86.3655 78.6319 85.6446C75.5122 80.23 74.5338 71.6517 75.3255 66.8638V66.8657Z" fill="black"/>
</g>
</g>
</g>
<defs>
<filter id="filter0_d_2538_31110" x="0.0936518" y="0.478386" width="148.458" height="148.339" filterUnits="userSpaceOnUse" color-interpolation-filters="sRGB">
<feFlood flood-opacity="0" result="BackgroundImageFix"/>
<feColorMatrix in="SourceAlpha" type="matrix" values="0 0 0 0 0 0 0 0 0 0 0 0 0 0 0 0 0 0 127 0" result="hardAlpha"/>
<feMorphology radius="6.37414" operator="dilate" in="SourceAlpha" result="effect1_dropShadow_2538_31110"/>
<feOffset dy="8.9238"/>
<feGaussianBlur stdDeviation="12.7483"/>
<feComposite in2="hardAlpha" operator="out"/>
<feColorMatrix type="matrix" values="0 0 0 0 0 0 0 0 0 0 0 0 0 0 0 0 0 0 0.05 0"/>
<feBlend mode="normal" in2="BackgroundImageFix" result="effect1_dropShadow_2538_31110"/>
<feBlend mode="normal" in="SourceGraphic" in2="effect1_dropShadow_2538_31110" result="shape"/>
</filter>
</defs>
</svg>
