<svg width="90" height="82" viewBox="0 0 90 82" fill="none" xmlns="http://www.w3.org/2000/svg">
<path d="M26.4081 50.092C26.7654 50.092 27.055 49.7447 27.055 49.3163C27.055 48.8879 26.7654 48.5405 26.4081 48.5405C26.0509 48.5405 25.7612 48.8879 25.7612 49.3163C25.7612 49.7447 26.0509 50.092 26.4081 50.092Z" fill="#D7E8F0"/>
<path d="M26.1353 46.9917C26.7314 48.0196 26.409 49.3161 26.409 49.3161C26.409 49.3161 27.3285 48.78 28.1486 49.5404" stroke="black" stroke-width="1.41841" stroke-miterlimit="10"/>
<path d="M26.4081 51.866C26.4081 51.866 27.2847 49.795 26.4081 49.3161C26.2464 49.2274 24.9412 48.5125 24.083 49.5404" stroke="black" stroke-width="1.41841" stroke-miterlimit="10"/>
<path d="M64.3515 50.2365C64.7087 50.2365 64.9984 49.8893 64.9984 49.4608C64.9984 49.0324 64.7087 48.6851 64.3515 48.6851C63.9942 48.6851 63.7046 49.0324 63.7046 49.4608C63.7046 49.8893 63.9942 50.2365 64.3515 50.2365Z" fill="#D7E8F0"/>
<path d="M62.7422 48.1257C63.7776 48.2963 64.3533 49.4596 64.3533 49.4596C64.3533 49.4596 64.6455 48.2857 65.6702 48.0767" stroke="black" stroke-width="1.41841" stroke-miterlimit="10"/>
<path d="M62.9143 51.6616C62.8851 50.7715 63.3712 50.1771 63.791 49.8337C63.9674 49.6858 64.1565 49.5608 64.355 49.4611C64.4591 49.4086 64.5728 49.39 64.6848 49.407C64.7968 49.4239 64.9031 49.476 64.993 49.5579C65.1023 49.646 65.2007 49.7522 65.2852 49.8733" stroke="black" stroke-width="1.41841" stroke-miterlimit="10"/>
<path d="M45.7275 51.9832V30.149C45.7304 29.0113 46.1085 27.9213 46.7794 27.117C47.4504 26.3127 48.3595 25.8595 49.3082 25.8564H58.8433C67.9527 25.8564 75.4023 34.7931 75.4023 45.7132V54.0319" stroke="black" stroke-width="1.41841" stroke-miterlimit="10"/>
<path d="M45.846 63.7794C45.8002 63.5751 45.7676 63.367 45.7485 63.1567" stroke="black" stroke-width="1.41841" stroke-miterlimit="10"/>
<path d="M53.3002 38.0788C53.6575 38.0788 53.9471 37.7316 53.9471 37.3031C53.9471 36.8747 53.6575 36.5273 53.3002 36.5273C52.943 36.5273 52.6533 36.8747 52.6533 37.3031C52.6533 37.7316 52.943 38.0788 53.3002 38.0788Z" fill="#D7E8F0"/>
<path d="M53.0269 34.9785C53.624 36.0064 53.3006 37.3029 53.3006 37.3029C53.3006 37.3029 54.2201 36.7668 55.0412 37.5272" stroke="black" stroke-width="1.41841" stroke-miterlimit="10"/>
<path d="M53.2982 39.8528C53.2982 39.8528 54.1749 37.7819 53.2982 37.303C53.1365 37.2142 51.8313 36.4993 50.9731 37.5272" stroke="black" stroke-width="1.41841" stroke-miterlimit="10"/>
<path d="M64.3515 38.2223C64.7087 38.2223 64.9984 37.875 64.9984 37.4466C64.9984 37.0182 64.7087 36.6709 64.3515 36.6709C63.9942 36.6709 63.7046 37.0182 63.7046 37.4466C63.7046 37.875 63.9942 38.2223 64.3515 38.2223Z" fill="#D7E8F0"/>
<path d="M62.7422 36.113C63.7776 36.2836 64.3533 37.4469 64.3533 37.4469C64.3533 37.4469 64.6455 36.273 65.6702 36.064" stroke="black" stroke-width="1.41841" stroke-miterlimit="10"/>
<path d="M65.9165 39.1753C65.9165 39.1753 65.2395 36.9981 64.3522 37.4466C64.1885 37.5295 62.8648 38.1965 62.9144 39.6495" stroke="black" stroke-width="1.41841" stroke-miterlimit="10"/>
<path d="M36.9277 50.092C37.2849 50.092 37.5746 49.7447 37.5746 49.3163C37.5746 48.8879 37.2849 48.5405 36.9277 48.5405C36.5704 48.5405 36.2808 48.8879 36.2808 49.3163C36.2808 49.7447 36.5704 50.092 36.9277 50.092Z" fill="#D7E8F0"/>
<path d="M37.2019 46.9917C36.6048 48.0196 36.9272 49.3161 36.9272 49.3161C36.9272 49.3161 36.0077 48.78 35.1875 49.5404" stroke="black" stroke-width="1.41841" stroke-miterlimit="10"/>
<path d="M36.9272 51.866C36.9272 51.866 36.0506 49.795 36.9272 49.3161C37.0899 49.2274 38.3951 48.5125 39.2533 49.5404" stroke="black" stroke-width="1.41841" stroke-miterlimit="10"/>
<path d="M43.8567 62.3862V62.7005C43.8574 63.0652 43.8185 63.4286 43.7407 63.7811" stroke="black" stroke-width="1.41841" stroke-miterlimit="10"/>
<path d="M14.8003 44.6636C14.8061 44.5129 14.812 44.3622 14.8207 44.2162C14.8207 44.2092 14.8207 44.2057 14.8207 44.2011C15.4052 33.9048 22.6503 25.8628 31.3798 25.8628H40.274C41.2225 25.8647 42.1319 26.3165 42.8035 27.1196C43.4751 27.9229 43.8544 29.0121 43.8585 30.1495V52.3914" stroke="black" stroke-width="1.41841" stroke-miterlimit="10"/>
<path d="M36.9267 38.0788C37.2839 38.0788 37.5736 37.7316 37.5736 37.3031C37.5736 36.8747 37.2839 36.5273 36.9267 36.5273C36.5694 36.5273 36.2798 36.8747 36.2798 37.3031C36.2798 37.7316 36.5694 38.0788 36.9267 38.0788Z" fill="#D7E8F0"/>
<path d="M37.2019 34.9785C36.6048 36.0064 36.9272 37.3029 36.9272 37.3029C36.9272 37.3029 36.0077 36.7668 35.1875 37.5272" stroke="black" stroke-width="1.41841" stroke-miterlimit="10"/>
<path d="M36.9272 39.8528C36.9272 39.8528 36.0506 37.7819 36.9272 37.303C37.0899 37.2142 38.3951 36.4993 39.2533 37.5272" stroke="black" stroke-width="1.41841" stroke-miterlimit="10"/>
<path d="M25.8744 38.2223C26.2317 38.2223 26.5213 37.875 26.5213 37.4466C26.5213 37.0182 26.2317 36.6709 25.8744 36.6709C25.5172 36.6709 25.2275 37.0182 25.2275 37.4466C25.2275 37.875 25.5172 38.2223 25.8744 38.2223Z" fill="#D7E8F0"/>
<path d="M27.4842 36.113C26.4497 36.2836 25.8731 37.4469 25.8731 37.4469C25.8731 37.4469 25.5809 36.273 24.5562 36.064" stroke="black" stroke-width="1.41841" stroke-miterlimit="10"/>
<path d="M24.313 39.1753C24.313 39.1753 24.9948 36.9981 25.8764 37.4466C26.041 37.5295 27.3638 38.1965 27.3141 39.6495" stroke="black" stroke-width="1.41841" stroke-miterlimit="10"/>
<path d="M59.8301 57.3652C57.2986 56.0796 54.6254 55.2397 51.8935 54.8714C51.8935 54.8714 35.9861 53.0014 37.8972 57.3652C39.5151 61.062 45.7286 63.1505 45.7286 63.1505C46.3647 63.2615 47.0475 63.3549 47.7819 63.4226C57.0911 64.2928 59.8301 57.3652 59.8301 57.3652ZM59.8301 57.3652C59.797 57.3185 59.7619 57.2752 59.7327 57.2332C59.6032 57.0662 59.4726 56.9015 59.3431 56.7414C56.5573 53.3927 52.6971 51.6745 48.7521 51.7329C45.904 51.7738 41.8782 52.3368 39.4011 54.8714" stroke="black" stroke-width="1.41841" stroke-miterlimit="10"/>
<path d="M37.4209 57.9269L37.4296 57.9165" stroke="black" stroke-width="1.41841" stroke-miterlimit="10"/>
<path d="M11.6484 64.5648C12.114 65.7165 12.6809 66.7841 13.1758 67.3844C13.2307 67.3629 13.2847 67.3381 13.3375 67.3097C14.9749 66.5575 16.2226 64.9736 16.583 63.1772C16.8821 61.6844 16.6103 60.0818 17.186 58.679C17.8873 56.955 19.7994 55.8757 20.0322 53.9309C20.2533 52.117 18.9198 50.4467 19.137 48.6607L19.1643 48.4785" stroke="black" stroke-width="1.41841" stroke-miterlimit="10"/>
<path d="M12.3574 49.4004C12.9029 48.7101 13.536 48.07 13.9744 47.298C15.2007 45.1476 14.7293 42.3922 15.5173 40.0386C16.4748 37.1547 19.4944 35.148 22.4575 35.4085C22.1754 36.7814 21.9839 38.1788 21.8847 39.5877C21.798 40.8504 22.0065 42.2567 21.7766 43.4773C21.6692 43.9792 21.4809 44.451 21.2224 44.8661C19.4437 46.1731 19.1388 48.6552 19.1388 48.6552" stroke="black" stroke-width="1.41841" stroke-miterlimit="10"/>
<path d="M13.1602 69.0862C13.2108 68.5536 13.2702 67.959 13.3365 67.3119C13.8965 61.995 15.0635 53.2253 17.1967 45.9905L18.0597 43.304C18.8146 41.1571 19.6737 39.2287 20.6429 37.6787" stroke="black" stroke-width="1.41841" stroke-miterlimit="10"/>
<path d="M17.6148 71.2393L16.3632 80.0965C16.3337 80.3391 16.2335 80.5613 16.0803 80.7236C15.9271 80.886 15.7308 80.9779 15.5264 80.9831H8.98561C8.7791 80.9779 8.58098 80.8842 8.42718 80.7191C8.27327 80.5538 8.17392 80.328 8.14694 80.0825L6.99268 71.2393H17.6148Z" stroke="black" stroke-width="1.41841" stroke-miterlimit="10"/>
<path d="M18.8052 70.2506C18.7938 70.5128 18.7002 70.7602 18.5433 70.9433C18.3865 71.1266 18.1777 71.2321 17.9588 71.2387H6.67233C6.4557 71.2325 6.24871 71.1294 6.09229 70.9497C5.93582 70.7698 5.84113 70.5262 5.82684 70.2669C5.77814 69.635 6.17069 69.0884 6.67233 69.0884H17.9549C18.076 69.0919 18.1952 69.1255 18.305 69.1871C18.4146 69.2486 18.5125 69.3368 18.5925 69.446C18.6724 69.5551 18.7326 69.683 18.7692 69.8216C18.8058 69.96 18.8181 70.1061 18.8052 70.2506Z" stroke="black" stroke-width="1.41841" stroke-miterlimit="10"/>
<path d="M12.3305 52.1618C12.3305 51.3605 12.3247 50.2369 12.3188 49.063L12.3364 49.1926C12.3364 49.2277 12.3422 49.2569 12.3461 49.2814C12.35 49.3059 12.3549 49.3608 12.3578 49.3982C12.4445 50.2941 12.4007 51.2239 12.3305 52.1618Z" stroke="black" stroke-width="1.41841" stroke-miterlimit="10"/>
<path d="M8.82568 54.2107C9.52701 59.03 9.99456 63.5994 10.2936 66.9704V66.9774L10.4514 67.0628C10.841 66.4939 11.2608 65.5886 11.6485 64.5619C12.055 63.4811 12.3809 62.3593 12.6226 61.2096C12.9742 59.4704 12.3567 57.6774 12.2135 55.8962C12.1594 55.0226 12.1714 54.1449 12.2495 53.2739" stroke="black" stroke-width="1.41841" stroke-miterlimit="10"/>
<path d="M10.4654 69.0897C10.4177 68.46 10.3582 67.7509 10.292 66.9868" stroke="black" stroke-width="1.41841" stroke-miterlimit="10"/>
<path d="M3.27148 32.644C5.90632 37.7285 7.67619 46.3101 8.82364 54.2154" stroke="black" stroke-width="1.41841" stroke-miterlimit="10"/>
<path d="M9.68408 43.7992C9.68408 43.7992 9.9763 36.6905 12.4251 34.5296C14.8739 32.3687 14.8203 44.486 14.8203 44.486" stroke="black" stroke-width="1.41841" stroke-miterlimit="10"/>
<path d="M12.3575 49.4008C12.3575 49.4008 11.8569 45.3348 12.7345 41.3413" stroke="black" stroke-width="1.41841" stroke-miterlimit="10"/>
<path d="M13.9155 35.3925C16.7919 27.9673 23.3493 23.0557 31.059 23.0557H59.1549C69.3562 23.0557 77.6241 32.97 77.6241 45.2029" stroke="black" stroke-width="1.41841" stroke-miterlimit="10"/>
<path d="M77.6255 45.2021V53.7908" stroke="black" stroke-width="1.41841" stroke-miterlimit="10"/>
<path d="M12.2537 53.3926C12.2771 53.02 12.3073 52.6485 12.3307 52.2759C12.3307 51.4747 12.3248 50.351 12.319 49.1771C12.2535 48.6603 12.128 48.1571 11.9459 47.682C11.3966 46.2722 10.3261 45.2665 9.68417 43.9139C8.50263 41.4237 8.95654 38.2361 8.20164 35.504C7.27921 32.1658 4.38234 29.8367 1.5332 30.1439C1.8061 31.7413 1.99028 33.3588 2.08452 34.9854C2.16829 36.4443 1.96569 38.0725 2.18972 39.4894C2.55012 41.7682 4.48364 43.15 4.72228 45.4896C4.93171 47.5547 3.65081 49.4901 3.86024 51.5903C4.04531 53.4358 5.30769 54.6097 6.13078 56.0697C6.31615 56.3904 6.47317 56.7333 6.59931 57.0929C7.14868 58.7177 6.89153 60.5784 7.17498 62.2989C7.52077 64.385 8.72082 66.2235 10.292 67.0972V67.0902C9.99976 63.7192 9.52539 59.1475 8.82407 54.3305" stroke="black" stroke-width="1.41841" stroke-miterlimit="10"/>
<path d="M19.0014 56.1217C19.1865 56.3472 19.5635 56.7992 19.731 57.0562C20.784 58.7054 21.2944 60.7624 22.4584 62.3299C22.7949 62.7822 23.207 63.1447 23.6681 63.3937C24.1291 63.6426 24.6286 63.7724 25.1341 63.7747H59.351C60.7799 63.7747 62.2128 63.7642 63.6447 63.7747C63.9456 63.7747 64.2476 63.7747 64.5457 63.7747C66.0525 63.7852 67.0997 63.5925 67.9471 61.9573C68.2033 61.4678 68.4341 60.9598 68.6747 60.4587C69.1734 59.3817 69.6653 58.3118 70.3014 57.3739C70.3014 57.3739 70.3014 57.3739 70.3014 57.3669C70.751 56.689 71.2892 56.1029 71.895 55.6311C72.9663 54.8299 74.1572 54.2857 75.4016 54.0286C76.1339 53.8678 76.877 53.7876 77.6215 53.7891C80.4891 53.7773 83.2541 55.0688 85.3595 57.4036C87.465 59.7383 88.7545 62.943 88.9686 66.3721C89.1827 69.8014 88.3055 73.2005 86.5134 75.8851C84.7214 78.5697 82.1476 80.3406 79.3105 80.841C78.7533 80.9409 78.1907 80.99 77.6273 80.9882H14.4243" stroke="black" stroke-width="1.41841" stroke-miterlimit="10"/>
<path d="M8.03698 79.7175C4.06573 77.5309 1.24972 72.7548 1.29647 67.244C1.30692 66.0241 1.45837 64.8118 1.74649 63.6417C2.47801 60.7041 4.07352 58.1846 6.12977 56.4209" stroke="black" stroke-width="1.41841" stroke-miterlimit="10"/>
<path d="M57.1958 63.7802C56.7422 63.677 56.294 63.542 55.8535 63.3761C55.8535 63.3761 66.4601 57.7414 70.3242 44.3276C70.3242 44.3276 72.207 51.7225 70.3067 57.3688C70.3067 57.3688 70.3067 57.3688 70.3067 57.3758" stroke="black" stroke-width="1.41841" stroke-miterlimit="10"/>
<path d="M68.6765 60.4604C68.5245 60.6561 68.3642 60.8425 68.1963 61.0188C66.8936 62.3751 65.3302 63.3216 63.6465 63.773" stroke="black" stroke-width="1.41841" stroke-miterlimit="10"/>
<path d="M58.8354 56.1739C59.4978 54.9533 60.2196 53.8845 60.9423 53.276C63.5051 51.1326 69.2579 47.326 70.3255 44.3276" stroke="black" stroke-width="1.41841" stroke-miterlimit="10"/>
<path d="M55.8535 63.3764C55.8535 63.3764 56.1253 62.5212 56.5813 61.2969" stroke="black" stroke-width="1.41841" stroke-miterlimit="10"/>
<path d="M6.99072 32.9522C9.89148 30.7551 13.2452 30.1255 16.7567 30.2972" stroke="black" stroke-width="1.41841" stroke-miterlimit="10"/>
<path d="M4.83115 57.7157C4.83115 57.7157 0.233578 48.1378 2.31905 40.0654" stroke="black" stroke-width="1.41841" stroke-miterlimit="10"/>
<path d="M77.6167 53.7336C81.0698 48.4985 82.376 41.4458 81.7078 34.8849C80.9071 27.0462 77.1414 18.836 70.0531 17.703C62.9649 16.57 56.464 21.6288 49.6719 23.0562" stroke="black" stroke-width="1.41841" stroke-miterlimit="10"/>
<path d="M60.4407 75.8771C60.4417 77.2282 59.996 78.5247 59.2012 79.4824C58.4063 80.4401 57.3274 80.9809 56.2006 80.9861C49.1591 81.0258 34.554 81.0936 25.6715 81.069C25.7689 79.7912 25.6413 78.2926 25.5371 77.3944C25.7825 77.3432 26.0239 77.2679 26.2589 77.169C26.4108 77.1047 26.5608 77.044 26.7099 76.9786L26.7635 76.9681L26.7576 76.961C35.9021 73.0539 38.9188 68.5675 39.7428 66.9755C39.7691 67 39.7993 67.0257 39.8295 67.0502C40.0324 67.2143 40.279 67.2817 40.5211 67.2394L49.0013 65.7981C50.8203 65.4945 52.6738 65.77 54.3758 66.5971C56.0778 67.4242 57.5685 68.7735 58.6981 70.51C59.6566 71.9805 60.3511 74.0094 60.4407 75.8771Z" fill="#F5F5F5"/>
<path d="M25.52 77.2332L26.7105 76.9785C26.5615 77.0439 26.4115 77.1047 26.2595 77.1689C26.0244 77.2679 25.783 77.3432 25.5376 77.3944C25.5317 77.3375 25.5259 77.2838 25.52 77.2332Z" fill="#F5F5F5"/>
<path d="M39.7447 66.9744C38.9206 68.5664 35.904 73.0482 26.7595 76.9599C25.4485 75.0134 24.7353 72.5856 24.7393 70.0837C24.7402 68.7137 24.9535 67.356 25.3685 66.0796L32.7899 43.3472C32.7899 43.3472 30.5194 32.1247 35.9585 17.0406C36.0161 16.7573 36.0087 16.4606 35.9371 16.1821C36.916 15.3516 38.5953 15.6308 39.3921 15.8317V66.0656C39.3918 66.2387 39.4232 66.41 39.4841 66.5669C39.545 66.724 39.634 66.863 39.7447 66.9744Z" fill="black"/>
<path d="M74.4953 71.9796C74.4953 71.9796 69.6815 79.0638 65.681 79.8149C65.6387 79.7639 65.5997 79.7093 65.5641 79.6513C65.4034 79.3932 65.3255 79.0813 65.2154 78.7917C65.1693 78.6708 65.1132 78.5557 65.0479 78.4483L65.9372 77.2896C66.1463 77.0161 66.4314 76.8435 66.7391 76.8039C67.0467 76.7643 67.3559 76.8605 67.6087 77.0746L67.9213 77.3375C68.7717 78.0605 69.8548 76.8434 69.1331 75.8272C68.9334 75.5481 68.7042 75.3014 68.4512 75.0936C69.51 74.7175 71.9578 73.8088 71.5448 71.9773C71.1036 70.0384 72.6553 69.459 72.7439 69.5244C73.1046 69.8029 73.4322 70.1383 73.718 70.5219C74.0308 70.9636 74.2923 71.4539 74.4953 71.9796Z" fill="#F5F5F5"/>
<path d="M75.3022 80.6757C75.3022 80.6757 72.0167 80.8789 69.3078 80.8322H69.2981H69.227C69.0507 80.8217 68.851 80.8147 68.6357 80.8006C73.0609 79.587 75.385 75.7267 75.4776 75.5771C75.9139 78.0172 75.9285 80.3755 75.3022 80.6757Z" fill="#F5F5F5"/>
<path d="M33.9019 81.0718H35.0446" stroke="black" stroke-width="1.41841" stroke-miterlimit="10"/>
<path d="M63.5737 73.7726V70.7357C63.5736 70.4216 63.6251 70.1106 63.7252 69.8203C63.8253 69.5302 63.9722 69.2664 64.1574 69.0443C64.3426 68.8221 64.5624 68.6458 64.8044 68.5256C65.0463 68.4055 65.3057 68.3435 65.5676 68.3435H67.321V67.6637C67.3213 67.6264 67.3295 67.5898 67.3447 67.5572C67.3599 67.5246 67.3816 67.4971 67.408 67.4771C67.4343 67.4572 67.4643 67.4454 67.4954 67.4429C67.5265 67.4404 67.5575 67.4473 67.5859 67.4628L69.3178 68.4603C69.3178 68.4603 71.9643 68.1742 73.7186 70.5243C75.4729 72.8744 76.4372 80.1349 75.3034 80.6722C75.3034 80.6722 72.012 80.8755 69.3002 80.8287" stroke="black" stroke-width="1.41841" stroke-miterlimit="10"/>
<path d="M58.6973 70.5098C58.7528 70.5939 63.5724 71.5178 63.5724 71.5178" stroke="black" stroke-width="1.41841" stroke-miterlimit="10"/>
<path d="M69.2866 69.4546C69.2866 69.4546 69.4932 70.221 69.2866 70.7654" stroke="black" stroke-width="1.41841" stroke-miterlimit="10"/>
<path d="M74.4952 71.9795C74.4952 71.9795 69.6249 79.1524 65.605 79.8311" stroke="black" stroke-width="1.41841" stroke-miterlimit="10"/>
<path d="M68.6357 80.7962C73.0599 79.5826 75.385 75.7223 75.4776 75.5728" stroke="black" stroke-width="1.41841" stroke-miterlimit="10"/>
<path d="M69.7333 74.5239H69.7305" stroke="black" stroke-width="1.41841" stroke-miterlimit="10"/>
<path d="M59.6665 78.7718C60.9016 77.8853 64.3819 76.5888 65.2187 78.7905C65.3287 79.0814 65.4067 79.3956 65.5664 79.6514C66.2658 80.7727 68.1827 80.7645 69.2308 80.8288C70.0013 80.8755 70.7767 80.8813 71.5481 80.8393" stroke="black" stroke-width="1.41841" stroke-miterlimit="10"/>
<path d="M39.8395 67.0347C39.8395 67.0347 38.6434 69.2948 37.2515 70.1101" stroke="black" stroke-width="1.41841" stroke-miterlimit="10"/>
<path d="M72.7441 69.5278C72.6555 69.4589 71.1038 70.0394 71.5451 71.9807C71.961 73.8122 69.5112 74.721 68.4524 75.0982C68.7061 75.305 68.9354 75.5517 69.1343 75.8318C69.856 76.848 68.7729 78.0639 67.9254 77.3409L67.6089 77.0757C67.3567 76.8605 67.0474 76.7635 66.7396 76.8031C66.4318 76.8427 66.1468 77.0162 65.9384 77.2906L64.9409 78.593" stroke="black" stroke-width="1.41841" stroke-miterlimit="10"/>
<path d="M53.2674 71.3071L26.7632 76.9675" stroke="black" stroke-width="1.41841" stroke-miterlimit="10"/>
<path d="M25.6745 81.0683C21.5835 81.0566 18.7041 81.025 18.3408 80.9643C18.3408 80.3417 18.898 79.6795 19.5847 79.1351C20.2714 78.5908 21.0828 78.1879 21.5922 78.0734L25.5226 77.2324L26.7665 76.9673C25.452 75.0199 24.7365 72.5893 24.7404 70.084C24.7413 68.714 24.9546 67.3563 25.3697 66.0799L32.791 43.3475C32.791 43.3475 30.5205 32.125 35.9597 17.0409C36.0172 16.7576 36.0098 16.461 35.9382 16.1824C35.8548 15.8535 35.6854 15.5655 35.4548 15.3612C35.2242 15.157 34.945 15.0472 34.6583 15.0482H34.5901C34.2497 15.0475 33.9164 14.9309 33.629 14.712C33.3416 14.4933 33.1119 14.1811 32.9666 13.812C32.8211 13.4427 32.7661 13.0317 32.8078 12.6266C32.8496 12.2214 32.9862 11.8388 33.2021 11.5231L37.3906 1.9568C37.5384 1.74118 37.7382 1.5856 37.9625 1.51131C38.1869 1.43702 38.425 1.44753 38.6442 1.54168C38.8632 1.6357 39.0529 1.80869 39.1869 2.03693C39.321 2.26505 39.393 2.53732 39.3932 2.81648V66.0659C39.3942 66.2354 39.4254 66.4028 39.4847 66.5567C39.544 66.7106 39.6302 66.8475 39.7374 66.9581C39.8444 67.0687 39.9701 67.1506 40.1058 67.1982C40.2415 67.2458 40.3841 67.2579 40.5241 67.234L49.0043 65.7926C50.8233 65.489 52.6768 65.7646 54.3788 66.5917C56.0809 67.4188 57.5715 68.7682 58.7011 70.5045C59.6596 71.9751 60.357 74.0086 60.4437 75.8775C60.4448 77.2286 59.999 78.5251 59.2042 79.4828C58.4093 80.4404 57.3303 80.9812 56.2036 80.9865C49.1621 81.0262 34.557 81.0939 25.6745 81.0694" stroke="black" stroke-width="1.41841" stroke-miterlimit="10"/>
</svg>
