<svg width="94" height="43" viewBox="0 0 94 43" fill="none" xmlns="http://www.w3.org/2000/svg">
<rect width="94" height="43" rx="10" fill="white"/>
<g clip-path="url(#clip0_14535_12176)">
<path fill-rule="evenodd" clip-rule="evenodd" d="M24.9814 13.6436C24.3842 13.6328 23.7908 13.7399 23.235 13.9588C22.6793 14.1776 22.1721 14.5039 21.7426 14.9189C21.3131 15.334 20.9696 15.8297 20.7319 16.3776C20.4942 16.9255 20.3668 17.515 20.3571 18.1122V24.3579C20.3571 24.7368 20.2066 25.1001 19.9387 25.3681C19.6708 25.636 19.3075 25.7865 18.9286 25.7865H17.1429C16.5745 25.7865 16.0295 25.5607 15.6276 25.1588C15.2258 24.757 15 24.2119 15 23.6436V20.7865C15 20.2182 15.2258 19.6731 15.6276 19.2712C16.0295 18.8694 16.5745 18.6436 17.1429 18.6436H18.2143V18.0865C18.2273 17.2085 18.4132 16.3416 18.7613 15.5355C19.1094 14.7293 19.6128 13.9996 20.243 13.388C20.8731 12.7765 21.6175 12.295 22.4338 11.9712C23.25 11.6474 24.122 11.4875 25 11.5008C25.878 11.4875 26.75 11.6474 27.5662 11.9712C28.3825 12.295 29.1269 12.7765 29.757 13.388C30.3872 13.9996 30.8906 14.7293 31.2387 15.5355C31.5868 16.3416 31.7727 17.2085 31.7857 18.0865V18.6436H32.8571C33.4255 18.6436 33.9705 18.8694 34.3724 19.2712C34.7742 19.6731 35 20.2182 35 20.7865V23.6436C35 24.2119 34.7742 24.757 34.3724 25.1588C33.9705 25.5607 33.4255 25.7865 32.8571 25.7865H31.7857V26.5008C31.7859 27.4661 31.4306 28.3978 30.7877 29.1179C30.1448 29.838 29.2592 30.2962 28.3 30.405C28.1137 30.7376 27.8421 31.0145 27.5131 31.2071C27.1842 31.3997 26.8098 31.5011 26.4286 31.5008H24.2857C23.7174 31.5008 23.1723 31.275 22.7705 30.8731C22.3686 30.4713 22.1429 29.9262 22.1429 29.3579C22.1429 28.7896 22.3686 28.2445 22.7705 27.8427C23.1723 27.4408 23.7174 27.215 24.2857 27.215H26.4286C27.2029 27.215 27.8814 27.625 28.2571 28.2408C28.6509 28.1503 29.0023 27.9289 29.254 27.6129C29.5057 27.2968 29.6428 26.9048 29.6429 26.5008V18.1108C29.6331 17.5105 29.5044 16.9181 29.2642 16.3678C29.0241 15.8176 28.6773 15.3204 28.2438 14.905C27.8104 14.4896 27.2989 14.1643 26.7389 13.9477C26.1789 13.7312 25.5816 13.6279 24.9814 13.6436Z" fill="#018076"/>
</g>
<path d="M55.1396 16.2711V27H53.0693V22.4213H48.2036V27H46.1182V16.2711H48.2036V20.608H53.0693V16.2711H55.1396ZM60.373 27.1511C59.7383 27.1511 59.1641 27.0453 58.6503 26.8338C58.1365 26.6121 57.6983 26.315 57.3356 25.9422C56.973 25.5594 56.6909 25.1262 56.4894 24.6427C56.298 24.149 56.2023 23.6302 56.2023 23.0862C56.2023 22.3307 56.3685 21.6406 56.701 21.016C57.0435 20.3914 57.527 19.8927 58.1516 19.52C58.7863 19.1372 59.5318 18.9458 60.3881 18.9458C61.2544 18.9458 61.9949 19.1372 62.6094 19.52C63.2239 19.8927 63.6924 20.3914 64.0147 21.016C64.3472 21.6305 64.5134 22.2954 64.5134 23.0107C64.5134 23.1316 64.5084 23.2575 64.4983 23.3884C64.4882 23.5093 64.4781 23.6101 64.4681 23.6907H58.3481C58.3884 24.0936 58.5042 24.4462 58.6956 24.7484C58.8971 25.0507 59.149 25.2824 59.4512 25.4436C59.7635 25.5947 60.0959 25.6702 60.4485 25.6702C60.8515 25.6702 61.2293 25.5745 61.5818 25.3831C61.9445 25.1816 62.1913 24.9197 62.3223 24.5973L64.0601 25.0809C63.8687 25.4839 63.5916 25.8415 63.229 26.1538C62.8764 26.4661 62.4583 26.7129 61.9747 26.8942C61.4912 27.0655 60.9573 27.1511 60.373 27.1511ZM58.3027 22.4062H62.4432C62.4029 22.0033 62.287 21.6557 62.0956 21.3636C61.9143 21.0613 61.6725 20.8296 61.3703 20.6684C61.0681 20.4972 60.7306 20.4116 60.3578 20.4116C59.9952 20.4116 59.6627 20.4972 59.3605 20.6684C59.0684 20.8296 58.8266 21.0613 58.6352 21.3636C58.4538 21.6557 58.343 22.0033 58.3027 22.4062ZM65.3843 15.9689H67.4092V24.4613C67.4092 24.824 67.4696 25.0708 67.5905 25.2018C67.7114 25.3227 67.8776 25.3831 68.0892 25.3831C68.2504 25.3831 68.4166 25.363 68.5879 25.3227C68.7591 25.2824 68.9102 25.232 69.0412 25.1716L69.3132 26.7129C69.0412 26.8439 68.7239 26.9446 68.3612 27.0151C67.9985 27.0856 67.6711 27.1209 67.379 27.1209C66.7443 27.1209 66.2507 26.9547 65.8981 26.6222C65.5556 26.2797 65.3843 25.7961 65.3843 25.1716V15.9689ZM74.5927 27.1511C73.9782 27.1511 73.4342 27.0151 72.9607 26.7431C72.4973 26.461 72.1347 26.0833 71.8727 25.6098V30.2187H69.8479V19.0818H71.6159V20.4418C71.9181 19.9784 72.3009 19.6157 72.7643 19.3538C73.2277 19.0818 73.7566 18.9458 74.351 18.9458C74.8849 18.9458 75.3735 19.0516 75.8167 19.2631C76.2701 19.4747 76.663 19.7719 76.9954 20.1547C77.3279 20.5274 77.5847 20.9606 77.7661 21.4542C77.9575 21.9378 78.0532 22.4616 78.0532 23.0258C78.0532 23.7914 77.9021 24.4865 77.5999 25.1111C77.3077 25.7357 76.8997 26.2344 76.3759 26.6071C75.8621 26.9698 75.2677 27.1511 74.5927 27.1511ZM73.9127 25.4284C74.225 25.4284 74.5071 25.363 74.759 25.232C75.0108 25.101 75.2274 24.9247 75.4087 24.7031C75.6002 24.4714 75.7412 24.2145 75.8319 23.9324C75.9326 23.6403 75.983 23.3381 75.983 23.0258C75.983 22.6933 75.9276 22.3861 75.8167 22.104C75.716 21.8219 75.5649 21.5751 75.3634 21.3636C75.1619 21.1419 74.9252 20.9707 74.6532 20.8498C74.3913 20.7289 74.1042 20.6684 73.7919 20.6684C73.6005 20.6684 73.404 20.7037 73.2025 20.7742C73.0111 20.8347 72.8247 20.9253 72.6434 21.0462C72.4621 21.1671 72.3009 21.3081 72.1599 21.4693C72.0289 21.6305 71.9332 21.8068 71.8727 21.9982V23.8569C71.9936 24.149 72.1548 24.416 72.3563 24.6578C72.5679 24.8996 72.8096 25.091 73.0816 25.232C73.3536 25.363 73.6307 25.4284 73.9127 25.4284Z" fill="#131414"/>
<defs>
<clipPath id="clip0_14535_12176">
<rect width="20" height="20" fill="white" transform="translate(15 11.5)"/>
</clipPath>
</defs>
</svg>
