<svg width="294" height="252" viewBox="0 0 294 252" fill="none" xmlns="http://www.w3.org/2000/svg">
<path d="M182.317 56.1536C181.928 56.114 181.622 55.8005 181.591 55.4108C180.806 45.0216 179.766 34.121 178.97 23.6282C178.938 23.2082 179.235 22.8338 179.652 22.7683C190.288 21.1033 197.777 18.5113 207.399 20.044C207.784 20.1048 208.07 20.432 208.079 20.8217C208.281 28.6037 208.941 37.0478 210.155 47.3959C210.247 48.1798 210.239 49.3304 210.233 50.3456C210.23 50.9042 210.225 51.4308 210.239 51.8402C210.254 52.2801 209.915 52.6499 209.475 52.6743C205.465 52.8949 203.621 53.1948 200.27 53.7397C199.167 53.9193 197.909 54.1232 196.366 54.3576C195.337 54.5144 194.133 54.7457 192.86 54.9923C189.775 55.5874 185.391 56.4686 182.317 56.1566V56.1536ZM183.152 54.592C185.809 54.697 189.38 54.0136 192.554 53.4018C196.198 52.6986 195.083 52.9421 200.011 52.1415C203.089 51.6423 205.027 51.3273 208.612 51.1035C208.612 50.0092 208.651 48.4507 208.548 47.5847C207.364 37.4877 206.705 29.1881 206.481 21.5431C197.708 20.3148 190.508 22.6466 180.64 24.2492C181.41 34.2869 182.384 44.5757 183.152 54.5935V54.592Z" fill="black"/>
<path d="M191.28 21.834C191.594 22.8279 192.807 23.4625 193.843 23.1612C194.878 22.8598 195.541 21.665 195.203 20.6788C194.419 18.3851 190.488 19.3227 191.28 21.834Z" fill="black"/>
<path d="M190.504 22.0761C189.393 18.5511 194.836 17.1204 195.962 20.4156C196.446 21.8295 195.55 23.5037 194.064 23.936C192.61 24.3576 190.948 23.487 190.504 22.0761ZM192.047 21.5891C192.23 22.1659 193.009 22.5586 193.614 22.3835C193.91 22.2968 194.181 22.0639 194.34 21.7595C194.843 20.787 193.895 19.892 192.766 20.2603C192.455 20.3623 191.766 20.6956 192.047 21.5891Z" fill="black"/>
<path d="M183.992 31.9279C183.608 31.698 183.484 31.2019 183.713 30.8183C183.943 30.4348 184.439 30.3115 184.823 30.5398C187.062 31.8822 190.04 31.9948 192.407 30.8259C193.605 30.2339 194.618 29.3861 196.001 28.9219C198.471 28.0909 201.015 28.8412 203.621 29.7514C204.042 29.899 204.265 30.3602 204.117 30.7818C203.969 31.2034 203.509 31.4256 203.086 31.278C200.756 30.4637 198.5 29.7879 196.515 30.4546C195.367 30.8396 194.349 31.6691 193.122 32.2749C191.813 32.9217 186.68 33.5381 183.99 31.9263L183.992 31.9279Z" fill="black"/>
<path d="M185.971 40.1488C185.545 40.0149 185.307 39.5613 185.441 39.1352C185.575 38.709 186.026 38.4716 186.455 38.6055C188.924 39.3818 191.891 39.12 195.276 37.8308C197.24 37.082 200.663 35.3393 203.488 37.015C203.872 37.2433 204 37.7395 203.771 38.123C203.543 38.5081 203.047 38.6344 202.663 38.4061C200.61 37.187 197.807 38.5979 195.851 39.3422C193.55 40.2188 189.192 41.1594 185.971 40.1473V40.1488Z" fill="black"/>
<path d="M198.749 47.1182L198.326 43.161L203.528 42.6055L203.964 46.6707L198.749 47.1182Z" fill="black"/>
<path d="M197.945 47.2039L197.522 43.2482C197.475 42.8038 197.796 42.405 198.239 42.3578L203.442 41.8008C203.907 41.7567 204.286 42.0915 204.332 42.5192L204.767 46.586C204.816 47.0395 204.481 47.4398 204.032 47.4779L198.817 47.9238C198.367 47.9604 197.991 47.6331 197.943 47.2039H197.945ZM199.216 43.8798L199.469 46.245L203.072 45.9361L202.81 43.4948L199.216 43.8798Z" fill="black"/>
<path d="M38.7287 161.534C78.254 158.628 117.779 155.721 157.305 152.816C159.694 152.641 162.182 152.435 164.238 151.207C166.295 149.978 167.756 147.396 166.91 145.155C156.55 147.685 146.144 150.22 135.528 151.236C121.478 152.58 107.276 151.237 93.2248 152.563C74.2384 154.353 59.4381 160.257 34.9841 156.712C32.8332 156.4 28.8435 154.748 26.8144 155.199C24.1658 155.788 26.2284 157.235 28.0809 158.68C31.3247 161.209 34.6705 161.833 38.7287 161.535V161.534Z" fill="#CCCCCC"/>
<path d="M77.6335 49.2661C71.3681 47.9084 48.9416 44.662 43.2288 47.5736C36.7413 50.8809 33.8871 58.4574 31.5856 65.3643C31.0909 56.5488 31.132 47.7045 31.7104 38.8936C41.6671 45.4275 78.626 46.6177 90.2906 44.2191" fill="#CCCCCC"/>
<path d="M158.546 64.7661C159.362 73.8266 160.176 82.8886 160.992 91.9492C161.277 77.8828 161.562 63.8164 161.846 49.7515C155.563 52.0939 148.069 50.823 142.91 46.54C146.229 49.2081 150.32 50.2568 153.654 52.6615C157.479 55.4209 158.156 60.4299 158.548 64.7676L158.546 64.7661Z" fill="#CCCCCC"/>
<path d="M160.805 93.1349C161.67 50.6359 161.791 52.7363 161.56 51.6556C161.16 49.6557 159.603 47.9069 157.575 47.9252C128.978 48.4914 100.045 46.6589 71.1889 42.4536C71.1995 42.1781 70.9956 41.9407 70.714 41.9041C67.8233 41.5647 65.4304 41.3212 63.3115 41.1066C62.5139 41.0259 61.7589 40.9498 61.0313 40.8753C55.629 39.9864 50.2313 39.0093 44.8458 37.9484C44.0421 37.743 43.2018 37.5177 42.3113 37.2742C42.15 37.2316 41.9826 37.2681 41.8577 37.3549C40.0144 36.9881 38.1755 36.606 36.3367 36.2179C35.0109 35.9318 33.9637 36.4873 33.3228 37.0002C32.1416 37.9378 31.3927 39.475 31.3653 41.0001L31.3546 41.7717C31.3546 41.8281 29.496 150.315 29.4945 150.391C29.4442 153.05 31.5936 155.583 34.2498 155.33C37.5925 155.023 40.8972 154.726 44.1593 154.441C45.0559 155.14 46.1229 155.126 46.9678 154.193C88.3334 150.592 123.245 148.548 155.968 147.795C158.216 147.746 160.082 145.623 160.129 143.067C160.134 142.667 160.581 103.535 160.583 103.48C160.589 103.033 160.95 102.676 161.391 102.676H161.397C161.845 102.682 162.205 103.048 162.201 103.495L161.759 142.063L161.749 143.087C161.689 146.506 159.112 149.341 156.007 149.411C120.022 150.236 81.3861 152.63 34.402 156.942C30.7655 157.283 27.8155 153.985 27.8779 150.359L27.9053 148.764L29.7441 41.4003L29.7502 40.9742C29.7882 38.9743 30.7686 36.9683 32.3166 35.7339C33.6105 34.7035 35.1586 34.3108 36.6792 34.6335C102.959 48.7258 151.74 46.082 157.648 46.3103C160.517 46.3103 162.712 48.7608 163.19 51.5674C163.266 51.9874 163.298 52.4197 163.292 52.8443L162.425 93.1699C162.414 93.6113 162.053 93.9628 161.616 93.9628H161.595C161.154 93.9522 160.797 93.5854 160.808 93.1379L160.805 93.1349Z" fill="black"/>
<path d="M86.5234 39.7033C86.9908 37.1448 90.1585 35.3382 93.7189 35.5756C96.1879 35.74 98.6766 35.8709 101.141 36.0429C104.315 36.2636 106.846 38.0748 107.216 40.3669C107.339 41.1264 107.434 41.8768 107.422 42.5906" fill="black"/>
<path d="M107.423 43.3979H107.407C106.961 43.3903 106.605 43.022 106.613 42.5745C106.625 41.8805 106.521 41.1332 106.418 40.4954C106.107 38.5762 103.865 37.0435 101.084 36.8487C99.7355 36.7544 98.3792 36.6722 97.0245 36.5915C95.9041 36.5245 94.7822 36.456 93.6649 36.3815C90.5521 36.1745 87.7056 37.7284 87.319 39.8471C87.2383 40.2869 86.8181 40.5761 86.3782 40.497C85.9398 40.4163 85.6476 39.9962 85.7282 39.5564C86.2656 36.6052 89.7955 34.5018 93.773 34.7666C94.8873 34.8412 96.0045 34.9082 97.1218 34.9751C98.4827 35.0573 99.8435 35.1395 101.197 35.2339C104.775 35.4835 107.579 37.5397 108.015 40.2352C108.13 40.9444 108.246 41.78 108.231 42.6019C108.223 43.0433 107.863 43.3964 107.423 43.3964V43.3979Z" fill="black"/>
<path d="M137.463 55.2403C136.752 55.773 136.552 56.8749 137.032 57.6222C137.511 58.3695 138.597 58.6481 139.376 58.2249C140.155 57.8018 140.513 56.7395 140.148 55.9313C139.783 55.1231 138.749 54.6878 137.916 54.9937" fill="black"/>
<path d="M136.347 58.056C135.644 56.9586 135.93 55.3712 136.975 54.5904C137.081 54.5112 137.198 54.4625 137.32 54.4412C137.404 54.3499 137.51 54.2783 137.635 54.2327C138.858 53.7837 140.346 54.4092 140.882 55.5964C141.418 56.7851 140.903 58.3132 139.757 58.9342C138.619 59.5521 137.054 59.161 136.347 58.056ZM138.052 55.7882C138.02 55.8232 137.984 55.8552 137.944 55.8856C137.573 56.1626 137.459 56.7942 137.71 57.1838C137.959 57.5735 138.58 57.7333 138.988 57.5126C139.395 57.2919 139.6 56.6847 139.409 56.2615C139.218 55.8399 138.628 55.5918 138.192 55.7501C138.147 55.7669 138.099 55.779 138.054 55.7882H138.052Z" fill="black"/>
<path d="M146.25 55.3897C145.539 55.9224 145.34 57.0243 145.819 57.7716C146.299 58.519 147.384 58.7975 148.163 58.3744C148.944 57.9512 149.3 56.8889 148.935 56.0807C148.57 55.2725 147.536 54.8372 146.703 55.1431" fill="black"/>
<path d="M145.135 58.2064C144.431 57.109 144.717 55.5216 145.762 54.7408C145.868 54.6616 145.985 54.6129 146.107 54.5916C146.191 54.5003 146.297 54.4287 146.422 54.3831C147.646 53.9341 149.133 54.5596 149.669 55.7468C150.205 56.9355 149.69 58.4636 148.544 59.0846C147.403 59.704 145.839 59.3083 145.135 58.2064ZM146.839 55.9386C146.807 55.9736 146.771 56.0056 146.731 56.036C146.36 56.313 146.246 56.9446 146.497 57.3343C146.746 57.7239 147.368 57.8837 147.774 57.663C148.182 57.4423 148.386 56.835 148.196 56.4119C148.004 55.9903 147.413 55.7422 146.979 55.9005C146.934 55.9173 146.887 55.9294 146.841 55.9386H146.839Z" fill="black"/>
<path d="M155.2 54.8672C154.489 55.3999 154.29 56.5019 154.769 57.2492C155.249 57.9965 156.334 58.275 157.113 57.8519C157.894 57.4288 158.25 56.3664 157.885 55.5582C157.52 54.75 156.486 54.3148 155.654 54.6207" fill="black"/>
<path d="M154.085 57.6839C153.381 56.5865 153.668 54.9991 154.712 54.2183C154.817 54.1391 154.936 54.0904 155.057 54.0691C155.141 53.9778 155.248 53.9063 155.372 53.8606C156.595 53.4116 158.084 54.0372 158.619 55.2243C159.155 56.4115 158.642 57.9411 157.494 58.5621C156.356 59.18 154.791 58.7873 154.083 57.6839H154.085ZM155.79 55.4161C155.758 55.4511 155.721 55.4831 155.682 55.5135C155.312 55.7905 155.197 56.4221 155.447 56.8118C155.697 57.2014 156.316 57.3612 156.726 57.1406C157.132 56.9199 157.338 56.3126 157.146 55.8895C156.956 55.4679 156.365 55.2198 155.93 55.3781C155.884 55.3948 155.837 55.407 155.791 55.4161H155.79Z" fill="black"/>
<path d="M165.343 43.3464C163.252 42.0314 160.637 42.0633 158.539 42.0907C117.492 42.6402 76.1703 39.4013 35.721 32.4732C34.5839 32.2783 28.792 31.4276 26.1403 33.7775C25.1965 34.6131 24.7551 35.7287 24.8191 37.0879C24.9424 39.6007 27.3581 40.759 29.7464 41.4012C30.2914 41.5519 30.8408 41.6707 31.3584 41.7726C31.7466 41.8533 32.1134 41.9187 32.4589 41.9827C32.8045 42.0481 33.1226 42.1059 33.3966 42.1607C42.2878 44.0039 51.8365 45.5837 64.3611 47.2884C95.3849 51.4983 128.03 53.1786 161.564 51.6611C163.418 51.5774 165.487 51.5333 166.815 50.13C168.654 48.1848 167.653 44.8029 165.343 43.3479V43.3464ZM71.1882 42.5047C71.1562 42.7802 70.9233 42.9842 70.6539 42.9842C70.6325 42.9842 70.6112 42.9781 70.5899 42.9781C67.7099 42.6387 65.3216 42.3951 63.2088 42.1805C55.919 41.4363 51.908 41.0207 42.0305 38.3146C41.7443 38.2385 41.5769 37.9433 41.653 37.651C41.6911 37.5278 41.7656 37.4243 41.8631 37.3542C41.9864 37.2675 42.1538 37.231 42.3167 37.2736C43.2056 37.5156 44.0474 37.7423 44.8511 37.9478C51.8867 39.7803 55.7424 40.3145 61.0366 40.8746C61.7642 40.9507 62.5192 41.0253 63.3169 41.106C65.4357 41.3221 67.8302 41.5641 70.7193 41.9035C70.9994 41.9416 71.2049 42.179 71.1942 42.453C71.1942 42.4697 71.1942 42.4849 71.1897 42.5017L71.1882 42.5047Z" fill="black"/>
<path d="M167.035 145.385C166.574 142.758 163.451 142.021 160.797 142.021C156.471 142.193 152.698 141.483 115.976 144.361C58.031 148.88 44.2476 147.027 28.7547 148.641C25.5064 148.995 23.908 150.414 23.768 153.773C23.6706 156.123 25.7088 158.35 27.7363 159.143C29.9207 159.996 32.3334 159.875 34.6973 159.687L160.595 150.371C162.601 150.221 165.172 149.504 166.392 147.945C166.975 147.196 167.2 146.312 167.038 145.385H167.035ZM37.2075 151.714C37.5089 151.72 37.7418 151.966 37.7357 152.269C37.7204 152.373 38.0279 152.555 38.2912 152.469C39.1665 152.181 39.5181 150.59 40.917 150.301C42.5245 149.966 43.5428 151.784 43.8777 152.382C44.0984 152.781 44.8915 154.059 45.6846 153.815C46.4883 153.569 46.8536 151.895 48.219 151.68C49.0197 151.561 49.659 152.041 50.2085 152.117C50.7215 152.176 51.2832 151.87 51.9225 151.663C53.5391 151.146 55.2242 151.455 56.7646 151.502C58.0311 151.545 59.7253 151.367 60.5868 150.257C60.7695 150.026 61.1105 149.982 61.3464 150.166C61.5778 150.348 61.6219 150.689 61.4377 150.921C60.532 152.085 58.914 152.662 56.725 152.581C55.3109 152.54 53.6639 152.243 52.2498 152.694C51.612 152.899 50.8844 153.287 50.0776 153.184C49.4048 153.106 48.8157 152.685 48.3788 152.747C47.5036 152.882 47.1443 154.925 45.4623 154.925C44.3405 154.925 43.4789 153.882 42.9339 152.908C42.2931 151.761 41.6933 151.242 41.1332 151.356C40.2868 151.525 39.8941 153.077 38.6261 153.491C37.7235 153.785 36.6321 153.19 36.6579 152.236C36.6625 151.939 36.9335 151.697 37.2075 151.712V151.714Z" fill="black"/>
<path d="M17.8497 118.771L17.8497 118.771H17.8557H17.8694C18.5021 118.771 19.0209 118.263 19.0319 117.628L19.0319 117.628L19.9726 62.6805L19.9726 62.6805C19.9835 62.0388 19.4713 61.5094 18.8299 61.4984L18.8299 61.4984L18.8251 61.4984C18.1885 61.4962 17.661 61.9964 17.6478 62.6398L17.6478 62.6398L17.6478 62.641L16.707 117.588L17.0612 117.595L16.707 117.589C16.6961 118.23 17.2083 118.76 17.8497 118.771Z" fill="#E99950" stroke="#E99950" stroke-width="0.708333"/>
<path d="M8.87364 96.8153L8.87364 96.8154H8.87966H8.89338C9.5261 96.8154 10.0448 96.3078 10.0558 95.6728L10.0558 95.6728L10.4044 75.3768L10.4044 75.3768C10.4153 74.7356 9.90513 74.2057 9.2617 74.1947L9.2617 74.1946L9.25335 74.1947C8.6025 74.1989 8.09057 74.6933 8.07956 75.3372C8.07955 75.3372 8.07955 75.3373 8.07955 75.3373L7.73097 95.6332L7.73097 95.6332C7.72002 96.2744 8.23019 96.8044 8.87364 96.8153ZM9.25568 74.5488C9.7032 74.5564 10.0579 74.9248 10.0503 75.3707L9.25568 74.5488Z" fill="#E99950" stroke="#E99950" stroke-width="0.708333"/>
<path d="M96.7626 58.0062L47.5987 54.2393C47.3811 54.2241 47.1588 54.2971 46.9944 54.4463C46.83 54.5954 46.7341 54.8055 46.728 55.0277L45.9152 89.9836C45.9106 90.2058 45.9959 90.4189 46.1542 90.5757C46.3064 90.7264 46.5104 90.8101 46.7235 90.8101C46.7311 90.8101 46.7402 90.8101 46.7478 90.8101L96.035 89.3337C96.4642 89.3215 96.8097 88.9745 96.8189 88.5438L97.5099 58.8327C97.5206 58.4035 97.1919 58.0413 96.7626 58.0078V58.0062ZM59.5145 78.3281C59.5114 78.4742 59.449 78.6112 59.3425 78.7101C59.242 78.803 59.1111 78.8532 58.9756 78.8532C58.9665 78.8532 58.9574 78.8532 58.9467 78.8532L57.8111 78.7923L57.7777 80.5C57.7716 80.7937 57.5311 81.0281 57.2388 81.0281H57.2281C56.9298 81.0221 56.6938 80.7755 56.6999 80.4787L56.7349 78.736L55.2158 78.6554C54.9251 78.6401 54.6983 78.3951 54.7044 78.1044L54.9707 66.636C54.9768 66.3453 55.2143 66.1125 55.505 66.1094L56.9861 66.0942L57.1003 60.376C57.1064 60.0777 57.3697 59.8433 57.6498 59.8479C57.9481 59.8539 58.1841 60.1005 58.178 60.3973L58.0653 66.0836L59.2435 66.0714H59.2481C59.3927 66.0714 59.5297 66.1292 59.6317 66.2312C59.7337 66.3347 59.79 66.4762 59.787 66.6223L59.5145 78.325V78.3281ZM73.2614 78.4514C73.2584 78.5959 73.196 78.7345 73.0894 78.8334C72.989 78.9263 72.858 78.978 72.7226 78.978C72.7134 78.978 72.7043 78.978 72.6952 78.978L71.0755 78.8973L70.9644 83.6917C70.9583 83.9854 70.7178 84.2183 70.4256 84.2183C70.421 84.2183 70.4164 84.2183 70.4134 84.2183C70.1166 84.2122 69.8806 83.9641 69.8867 83.6673L69.9263 81.9977V81.987L69.9994 78.844L68.398 78.7634C68.1058 78.7482 67.8789 78.5047 67.885 78.2124L68.1712 65.9161C68.1773 65.6254 68.4132 65.3941 68.704 65.3895L70.3129 65.3682L70.3586 63.3774C70.3647 63.0837 70.6052 62.8508 70.8974 62.8508C70.902 62.8508 70.9066 62.8508 70.9096 62.8508C71.2065 62.8569 71.4424 63.105 71.4363 63.4018L71.3906 65.353L73.0072 65.3317C73.1518 65.3317 73.2949 65.388 73.3969 65.4915C73.4989 65.595 73.5552 65.7365 73.5521 65.8842L73.2599 78.4514H73.2614ZM88.8411 78.3159C88.8381 78.4605 88.7756 78.599 88.6706 78.6979C88.5701 78.7908 88.4392 78.8426 88.3022 78.8426C88.2931 78.8426 88.2855 78.8426 88.2779 78.8426L86.4847 78.7604L86.4391 80.7222C86.433 81.0159 86.1925 81.2489 85.9002 81.2489C85.8956 81.2489 85.8911 81.2489 85.888 81.2489C85.5912 81.2428 85.3553 80.9947 85.3613 80.6979L85.407 78.7132L83.2911 78.6173C82.9989 78.6036 82.7706 78.3585 82.7767 78.0663L83.0841 64.834C83.0902 64.5448 83.3246 64.3119 83.6139 64.3073L85.7419 64.2708L85.783 62.4688C85.7891 62.172 86.0448 61.9163 86.3355 61.9421C86.6324 61.9482 86.8683 62.1963 86.8622 62.4931L86.8211 64.2511L88.6067 64.2206C88.7437 64.2176 88.8959 64.2754 88.9978 64.3789C89.1014 64.4824 89.1577 64.6255 89.1546 64.7716L88.8396 78.3174L88.8411 78.3159Z" fill="black"/>
<path d="M57.6746 126.725C57.3184 126.725 56.9927 126.489 56.8953 126.128C56.778 125.697 57.0323 125.253 57.463 125.136C61.3873 124.066 65.2445 122.687 68.9252 121.034C69.3316 120.851 69.8111 121.034 69.9937 121.44C70.1764 121.848 69.9937 122.326 69.5873 122.509C65.8305 124.195 61.8941 125.603 57.8877 126.694C57.8162 126.714 57.7446 126.723 57.6746 126.723V126.725Z" fill="black"/>
<path d="M63.5075 121.643C63.9231 120.867 63.5997 119.885 62.7852 119.449C61.9707 119.013 60.9736 119.288 60.558 120.064C60.1425 120.84 60.466 121.822 61.2804 122.258C62.0949 122.695 63.092 122.419 63.5075 121.643Z" fill="black"/>
<path d="M66.4919 128.402C66.9074 127.626 66.584 126.644 65.7695 126.208C64.955 125.771 63.958 126.047 63.5424 126.823C63.1269 127.599 63.4503 128.581 64.2647 129.017C65.0792 129.453 66.0764 129.178 66.4919 128.402Z" fill="black"/>
<path d="M72.5014 129.55C69.4981 134.095 63.4626 135.679 58.5657 133.057C53.3674 130.273 51.4099 123.799 54.194 118.601C56.9781 113.403 63.4535 111.446 68.6518 114.23C72.2168 116.138 74.2595 119.787 74.29 123.563L79.4822 123.992C79.604 118.208 76.5505 112.568 71.1056 109.652C63.3774 105.513 53.7556 108.423 49.6167 116.151C45.4779 123.878 48.3883 133.499 56.1165 137.637C63.5235 141.603 72.6704 139.096 77.0588 132.078C75.5564 131.205 74.0449 130.371 72.5045 129.552L72.5014 129.55Z" fill="black"/>
<path d="M55.729 138.35C47.6188 134.008 44.5561 123.877 48.8989 115.77C53.2417 107.66 63.372 104.597 71.4837 108.94C77.0474 111.919 80.4205 117.695 80.2881 124.011C80.2774 124.479 79.871 124.842 79.4128 124.8L74.2206 124.37C73.8036 124.335 73.4808 123.988 73.4778 123.571C73.426 116.929 67.0115 112.304 60.7492 114.199C58.2239 114.963 56.1491 116.662 54.904 118.986C53.6603 121.308 53.3955 123.979 54.1581 126.503C56.5525 134.42 67.1911 136.114 71.8232 129.107C72.053 128.76 72.5097 128.643 72.8781 128.839C74.5342 129.72 76.0336 130.553 77.4584 131.381C77.8511 131.609 77.9804 132.121 77.7369 132.509C73.1246 139.886 63.4679 142.496 55.7275 138.352L55.729 138.35ZM50.3237 116.532C46.4025 123.855 49.1684 133.003 56.4916 136.924C63.2076 140.52 71.5644 138.493 75.9012 132.349C74.9011 131.777 73.8599 131.2 72.7456 130.602C69.3527 135.095 63.2243 136.472 58.1813 133.772C55.4763 132.324 53.499 129.909 52.6101 126.97C51.7211 124.033 52.0301 120.925 53.4777 118.222C54.9268 115.517 57.3425 113.54 60.2788 112.651C67.354 110.514 74.5357 115.506 75.0639 122.818L78.6624 123.115C78.4752 117.75 75.4886 112.92 70.7181 110.365C63.3948 106.444 54.2464 109.208 50.3237 116.532Z" fill="black"/>
<path d="M67.8351 108.412C67.4409 108.201 67.2932 107.711 67.5033 107.318L69.989 102.676C70.0895 102.487 70.263 102.346 70.467 102.283L77.3975 100.187C77.8252 100.058 78.2758 100.298 78.4052 100.728C78.5346 101.155 78.2926 101.606 77.8648 101.735L71.2555 103.734L68.9265 108.08C68.7149 108.475 68.2263 108.622 67.8321 108.412H67.8351Z" fill="black"/>
<path d="M81.1527 101.966C81.7746 100.805 81.2784 99.3279 80.0445 98.6672C78.8105 98.0064 77.3061 98.4121 76.6842 99.5733C76.0623 100.734 76.5584 102.211 77.7923 102.872C79.0263 103.533 80.5308 103.127 81.1527 101.966Z" fill="black"/>
<path d="M67.4168 153.221H64.6235V238.328H67.4168V153.221Z" fill="black"/>
<path d="M67.4165 239.137H64.6232C64.1772 239.137 63.8149 238.775 63.8149 238.329V153.221C63.8149 152.774 64.1772 152.413 64.6232 152.413H67.4165C67.8625 152.413 68.2247 152.775 68.2247 153.221V238.329C68.2247 238.776 67.8625 239.137 67.4165 239.137ZM65.4331 237.519H66.6082V154.029H65.4331V237.519Z" fill="black"/>
<path d="M129.065 147.979H126.272V233.086H129.065V147.979Z" fill="black"/>
<path d="M129.065 233.895H126.272C125.826 233.895 125.463 233.533 125.463 233.087V147.979C125.463 147.532 125.826 147.171 126.272 147.171H129.065C129.511 147.171 129.873 147.533 129.873 147.979V233.087C129.873 233.534 129.511 233.895 129.065 233.895ZM127.081 232.277H128.257V148.787H127.081V232.277Z" fill="black"/>
<path d="M86.8508 239.849H55.9669C55.5209 239.849 55.1587 239.487 55.1587 239.041C55.1587 238.595 55.5209 238.232 55.9669 238.232H86.8508C87.2968 238.232 87.6591 238.595 87.6591 239.041C87.6591 239.487 87.2968 239.849 86.8508 239.849Z" fill="black"/>
<path d="M144.973 235.059H116.596C116.15 235.059 115.788 234.696 115.788 234.251C115.788 233.805 116.15 233.442 116.596 233.442H144.973C145.419 233.442 145.781 233.805 145.781 234.251C145.781 234.696 145.419 235.059 144.973 235.059Z" fill="black"/>
<path d="M120.488 108.891C120.055 108.777 119.798 108.335 119.912 107.903C120.026 107.471 120.468 107.213 120.9 107.328C122.104 107.644 122.948 107.597 124.004 107.153C124.418 106.979 124.89 107.172 125.063 107.583C125.237 107.996 125.044 108.469 124.633 108.643C123.202 109.247 121.995 109.289 120.486 108.891H120.488Z" fill="black"/>
<path d="M116.235 102.292C115.104 101.157 115.177 99.2009 116.384 98.1645C116.723 97.8738 117.233 97.9133 117.524 98.2512C117.815 98.5906 117.777 99.1005 117.437 99.3912C116.941 99.8174 116.912 100.682 117.38 101.151C117.695 101.467 117.695 101.979 117.378 102.294C117.06 102.609 116.548 102.607 116.235 102.292Z" fill="black"/>
<path d="M116.871 104.858C115.772 104.103 115.489 102.46 116.232 101.298C116.472 100.922 116.973 100.813 117.349 101.053C117.725 101.294 117.835 101.794 117.594 102.17C117.311 102.613 117.427 103.278 117.788 103.527C118.156 103.779 118.249 104.283 117.996 104.651C117.745 105.018 117.241 105.114 116.871 104.86V104.858Z" fill="black"/>
<path d="M127.545 98.9162C127.268 98.5661 127.326 98.0578 127.676 97.7808C127.857 97.6377 127.954 97.3044 127.913 96.9726C127.86 96.5373 127.726 96.1614 127.48 95.7535C127.248 95.3715 127.371 94.8737 127.755 94.6424C128.136 94.4126 128.633 94.5343 128.865 94.9179C129.684 96.2755 129.903 98.0776 128.682 99.0471C128.333 99.3241 127.824 99.2678 127.546 98.9162H127.545Z" fill="black"/>
<path d="M127.856 102.143C127.524 101.843 127.498 101.331 127.798 101.001C128.242 100.51 128.174 99.6467 127.658 99.2464C127.305 98.9724 127.242 98.4641 127.516 98.111C127.79 97.7579 128.299 97.6954 128.65 97.9694C129.9 98.9404 130.078 100.89 128.997 102.085C128.699 102.415 128.188 102.443 127.856 102.143Z" fill="black"/>
<path d="M127.356 104.524C127.087 104.168 127.155 103.661 127.512 103.39C127.86 103.126 127.944 102.454 127.641 102.027C127.382 101.663 127.467 101.158 127.833 100.899C128.197 100.642 128.702 100.725 128.961 101.091C129.761 102.219 129.551 103.873 128.492 104.678C128.139 104.946 127.63 104.88 127.359 104.523L127.356 104.524Z" fill="black"/>
<path d="M119.837 108.387C118.764 107.407 117.85 106.105 116.952 104.955C116.677 104.603 116.739 104.095 117.091 103.819C117.442 103.544 117.951 103.606 118.226 103.958C119.085 105.054 119.969 106.317 120.928 107.192C121.258 107.494 121.281 108.005 120.98 108.335C120.679 108.665 120.167 108.688 119.837 108.387Z" fill="black"/>
<path d="M123.871 108.326C123.574 107.993 123.603 107.481 123.936 107.185C124.981 106.253 126.233 104.507 127.412 103.421C127.739 103.118 128.25 103.138 128.555 103.466C128.858 103.795 128.836 104.306 128.509 104.609C127.393 105.64 126.195 107.338 125.014 108.392C124.678 108.691 124.168 108.656 123.872 108.326H123.871Z" fill="black"/>
<path d="M116.233 95.5032C115.799 95.3997 115.532 94.9629 115.635 94.5291C115.739 94.0938 116.175 93.826 116.609 93.931C120.023 94.7453 125.185 94.6129 128.52 94.0604C128.96 93.9873 129.377 94.2856 129.45 94.7254C129.523 95.1668 129.225 95.5824 128.785 95.6554C125.203 96.249 119.797 96.3525 116.233 95.5032Z" fill="black"/>
<path d="M127.285 95.0861C127.224 94.6432 127.532 94.2353 127.975 94.1744C128.46 94.1075 129.028 93.9142 129.317 93.5154C129.596 93.1318 129.663 92.6417 129.676 92.1668C129.689 91.7209 130.051 91.3633 130.508 91.3815C130.954 91.3937 131.305 91.7666 131.293 92.2125C131.232 94.3784 130.092 95.5138 128.198 95.7771C128.16 95.7816 127.347 95.5321 127.287 95.0876L127.285 95.0861Z" fill="black"/>
<path d="M115.658 95.2163C113.501 93.7947 113.822 90.7127 113.548 89.1404C113.008 86.0949 110.467 83.6886 108.91 80.7161C106.38 75.8913 106.785 69.6192 109.918 65.1079C113.432 60.0503 120.302 57.332 126.773 59.3015C129.412 60.1082 131.767 61.586 133.527 63.3561C138.183 68.0789 139.103 76.348 135.62 82.1833C135.127 83.0098 134.556 83.7799 134.005 84.5242C132.084 87.1161 131.189 88.4662 131.329 91.5726C131.349 92.0185 131.003 92.3976 130.557 92.4174C130.099 92.4356 129.734 92.0916 129.714 91.6456C129.481 86.4586 132.174 84.8042 134.232 81.3554C137.355 76.1227 136.539 68.7166 132.376 64.493C130.251 62.3348 127.207 60.7474 123.872 60.341C119.074 59.7763 114.002 62.0655 111.248 66.0318C108.45 70.0606 108.086 75.66 110.344 79.9658C110.86 80.9505 111.525 81.9154 112.169 82.8469C113.431 84.6748 114.735 86.5637 115.142 88.8619C115.44 90.5818 115.175 92.9607 116.548 93.8663C116.921 94.1129 117.025 94.6136 116.778 94.9865C116.533 95.3579 116.032 95.4628 115.658 95.2163Z" fill="black"/>
<path d="M117.19 105.043C116.765 104.904 116.534 104.448 116.672 104.023C116.813 103.6 117.269 103.367 117.692 103.506C120.492 104.42 124.43 104.3 127.727 103.198C128.154 103.057 128.608 103.285 128.75 103.71C128.891 104.133 128.663 104.591 128.238 104.732C124.911 105.843 120.521 106.133 117.189 105.043H117.19Z" fill="black"/>
<path d="M132.165 64.3004C130.613 62.926 128.619 61.7586 126.24 60.8302C125.835 60.6719 125.626 60.2229 125.769 59.812C125.912 59.4025 126.352 59.1773 126.769 59.3036C129.193 60.0433 131.436 61.3599 133.261 63.1102C133.58 63.4146 133.595 63.9184 133.295 64.241C132.998 64.5637 132.496 64.5911 132.164 64.2988L132.165 64.3004Z" fill="black"/>
<path d="M120.358 95.7577C119.913 95.7182 119.586 95.324 119.626 94.8795C119.989 90.8691 119.414 85.2376 118.775 80.1602C115.621 79.1968 113.316 76.0234 113.54 72.7922C113.625 71.567 114.073 70.529 114.802 69.8699C115.788 68.972 117.303 68.873 118.251 69.6447C119.073 70.3189 119.263 71.3554 119.376 72.2747C119.597 74.0692 119.924 76.4283 120.235 78.8331C121.276 78.9777 122.366 78.8666 123.437 78.5059C123.813 75.7023 124.381 72.9566 125.151 70.2307C125.408 69.3236 125.845 68.4423 126.348 67.8091C127.151 66.7909 128.534 66.4196 129.71 66.9096C131.261 67.5565 131.153 69.1485 131.112 69.7467C130.827 73.8789 128.719 77.8909 124.923 79.6519C124.326 84.638 124.363 89.7306 125.028 94.4123C125.09 94.8537 124.783 95.2646 124.341 95.327C123.901 95.3894 123.49 95.082 123.427 94.6406C122.777 90.07 122.711 85.122 123.229 80.2531C122.3 80.4845 121.362 80.562 120.446 80.4859C121.07 85.5116 121.603 91.006 121.238 95.0287C121.197 95.4823 120.792 95.8019 120.359 95.7608L120.358 95.7577ZM115.889 71.0678C115.324 71.5792 115.185 72.4376 115.152 72.9048C115 75.0919 116.449 77.3522 118.539 78.3384C117.685 71.8394 117.726 71.3067 117.227 70.8973C117.094 70.7892 116.249 70.739 115.887 71.0678H115.889ZM127.616 68.8122C127.249 69.2748 126.87 70.0084 126.649 70.8821C126.031 73.0905 125.544 75.3613 125.192 77.6641C127.841 75.9747 129.281 72.7876 129.499 69.6371C129.558 68.7574 129.413 68.5382 129.088 68.4027C128.582 68.1927 127.966 68.3708 127.616 68.8137V68.8122Z" fill="black"/>
<path d="M123.013 99.7247C122.567 99.705 122.221 99.3259 122.241 98.88C122.261 98.434 122.622 98.0886 123.084 98.1084C124.555 98.1738 126.039 98.1251 127.502 97.9637C127.954 97.9105 128.345 98.2347 128.395 98.6791C128.444 99.1235 128.124 99.5223 127.68 99.571C126.135 99.7415 124.567 99.7932 123.013 99.7232V99.7247Z" fill="black"/>
<path d="M116.297 99.2776C115.293 98.3994 115.108 96.8027 115.889 95.716C116.149 95.3538 116.653 95.2701 117.019 95.5304C117.381 95.7906 117.465 96.2959 117.204 96.6581C116.918 97.0569 116.994 97.7373 117.363 98.0584C117.699 98.3521 117.734 98.8635 117.44 99.1999C117.147 99.5363 116.635 99.5713 116.299 99.2776H116.297Z" fill="black"/>
<path d="M127.255 104.268C126.626 105.281 125.986 106.31 125.103 107.105C123.232 108.786 121.028 108.754 119.323 106.776C118.763 106.126 118.154 105.249 117.906 104.426C118.977 104.012 120.973 104.619 122.169 104.633C122.889 104.64 126.865 104.898 127.257 104.268H127.255Z" fill="black"/>
<path d="M146.057 116.091H96.7868C96.3408 116.091 95.9785 115.729 95.9785 115.283C95.9785 114.837 96.3408 114.475 96.7868 114.475H146.057C146.503 114.475 146.865 114.837 146.865 115.283C146.865 115.729 146.503 116.091 146.057 116.091Z" fill="black"/>
<path d="M144.355 125.363H99.8229C99.3769 125.363 99.0146 125.001 99.0146 124.555C99.0146 124.109 99.3769 123.747 99.8229 123.747H144.355C144.801 123.747 145.163 124.109 145.163 124.555C145.163 125.001 144.801 125.363 144.355 125.363Z" fill="black"/>
<path d="M126.607 134.028H113.669C113.223 134.028 112.86 133.665 112.86 133.219C112.86 132.773 113.223 132.411 113.669 132.411H126.607C127.053 132.411 127.416 132.773 127.416 133.219C127.416 133.665 127.053 134.028 126.607 134.028Z" fill="black"/>
<path d="M170.046 101.641C169.514 100.454 169.283 98.8889 170.224 97.9879C170.629 97.5998 171.213 97.3867 171.493 96.8997C171.892 96.2087 171.62 95.0855 172.347 94.7552C172.833 94.5345 173.423 94.9469 173.56 95.4614C173.697 95.9758 173.501 96.5207 173.242 96.9864C172.983 97.4522 172.655 97.8859 172.492 98.3943C172.024 99.8554 173.043 101.338 174.003 102.536C175.206 104.036 176.404 105.542 177.616 107.036C174.273 107.42 171.352 104.551 170.049 101.641H170.046Z" fill="#CCCCCC"/>
<path d="M191.568 112.156C191.624 114.967 191.679 117.778 191.735 120.589C191.752 121.446 191.772 122.32 192.049 123.132C192.341 123.991 192.906 124.73 193.533 125.385C196.262 128.239 200.393 129.683 204.305 129.152C201.486 128.213 198.769 126.968 196.218 125.443C195.397 124.953 194.568 124.406 194.068 123.592C193.571 122.778 193.504 121.621 194.164 120.93C192.549 117.726 194.359 115.373 194.656 112.242C194.956 109.093 191.511 109.322 191.568 112.156Z" fill="#CCCCCC"/>
<path d="M190.273 109.991C190.134 109.991 189.994 109.968 189.857 109.921C189.458 109.784 189.164 109.469 189.067 109.078C188.97 108.688 189.082 108.271 189.37 107.963C189.656 107.656 190.064 107.513 190.461 107.585C190.525 107.595 190.586 107.615 190.644 107.639C190.705 107.655 190.764 107.677 190.822 107.708C191.178 107.897 191.413 108.26 191.449 108.679C191.486 109.097 191.318 109.496 191 109.743C190.792 109.906 190.536 109.989 190.273 109.989V109.991Z" fill="black"/>
<path d="M190.567 123.762C190.199 123.762 189.865 123.51 189.78 123.135C189.307 121.081 189.247 118.897 189.605 116.817C189.681 116.378 190.106 116.082 190.539 116.158C190.979 116.235 191.275 116.653 191.199 117.093C190.876 118.962 190.931 120.925 191.355 122.773C191.456 123.208 191.183 123.642 190.75 123.743C190.689 123.756 190.628 123.764 190.567 123.764V123.762Z" fill="black"/>
<path d="M235.887 139.8C235.455 139.685 235.198 139.243 235.312 138.81C235.7 137.345 237.408 136.486 238.871 137.297C238.919 137.051 238.97 136.795 239.052 136.533C239.318 135.683 240.099 134.877 241.012 134.868C241.591 134.037 242.041 133.13 242.352 132.164C242.489 131.739 242.942 131.505 243.37 131.642C243.795 131.779 244.029 132.234 243.892 132.658C243.474 133.958 242.839 135.167 242.005 136.249C241.769 136.556 241.347 136.652 241 136.477C240.947 136.494 240.693 136.708 240.597 137.014C240.399 137.643 240.407 138.518 239.828 139.259C239.452 139.737 238.703 139.647 238.454 139.092C238.317 138.789 237.954 138.571 237.619 138.6C237.288 138.628 236.962 138.9 236.878 139.221C236.765 139.644 236.332 139.912 235.889 139.797L235.887 139.8Z" fill="black"/>
<path d="M233.76 132.711C232.916 133.642 231.68 134.304 230.431 134.157C229.332 134.026 228.256 133.005 228.516 131.929C228.793 130.783 230.244 130.397 230.963 129.461C231.527 128.726 231.666 127.615 232.489 127.191C232.909 126.974 233.41 126.999 233.865 126.868C234.786 126.6 235.388 125.74 235.914 124.938C237.025 123.244 238.207 121.564 239.234 119.827C237.173 124.043 235.958 130.288 233.76 132.712V132.711Z" fill="#CCCCCC"/>
<path d="M247.36 133.309C246.407 135.945 245.433 138.619 243.794 140.893C242.154 143.167 239.731 145.028 236.947 145.343C233.985 145.679 231.135 144.27 228.488 142.9C225.261 141.231 221.889 139.433 219.917 136.385C223.556 138.004 227.194 139.625 230.834 141.244C233.443 142.406 236.257 143.594 239.064 143.065C242.768 142.366 245.316 138.84 246.45 135.246" fill="#CCCCCC"/>
<path d="M216.556 241.309C213.474 241.512 210.292 241.706 207.362 240.767C204.931 239.123 208.925 240.191 209.909 239.663C210.892 239.135 212.39 238.414 212.241 237.36C216.381 238.064 220.095 237.175 223.855 235.682C224.214 239.627 220.145 241.07 216.558 241.307L216.556 241.309Z" fill="#CCCCCC"/>
<path d="M253.91 251.383C244.773 251.168 238.122 251.264 228.54 250.06C228.191 250.016 227.911 249.752 227.846 249.407C227.264 246.326 229.706 243.704 232.383 242.47C234.714 241.395 237.271 241.26 239.903 241.279C239.947 240.141 240.042 239.567 240.045 238.318C240.045 237.887 240.384 237.532 240.815 237.513L253.084 236.917C253.501 236.893 253.866 237.199 253.924 237.614C254.461 241.491 254.585 247.328 254.737 250.536C254.748 250.76 254.665 250.979 254.509 251.141C254.344 251.31 254.114 251.393 253.91 251.384V251.383ZM229.38 248.533C238.203 249.603 244.559 249.559 253.084 249.745C252.951 246.573 252.823 242.005 252.417 238.567L241.649 239.089C241.606 240.251 241.509 240.84 241.506 242.101C241.506 242.575 241.1 242.928 240.682 242.908C237.956 242.856 235.32 242.897 233.062 243.938C231.202 244.795 229.37 246.552 229.38 248.533Z" fill="black"/>
<path d="M223.149 249.332C215.074 248.863 206.276 248.99 198.176 248.309C197.768 248.276 197.45 247.941 197.436 247.53C197.327 244.241 198.007 242.022 199.459 240.938C202.761 238.471 207.055 238.648 210.894 239.052C210.935 238.949 210.976 238.852 211.014 238.76C211.724 237.08 210.988 236.457 211.562 235.894C211.731 235.728 211.964 235.646 212.201 235.666L223.23 236.661C223.659 236.701 223.983 237.069 223.965 237.5C223.819 241.116 224.154 244.865 224.005 248.556C223.986 248.996 223.618 249.353 223.149 249.331V249.332ZM199.042 246.757C206.585 247.343 214.815 247.27 222.412 247.672C222.481 244.53 222.25 241.396 222.324 238.206L212.961 237.36C212.923 238.867 212.482 239.218 212.233 240.138C212.13 240.523 211.763 240.772 211.366 240.731C207.71 240.336 203.482 239.954 200.426 242.235C199.543 242.896 199.059 244.488 199.042 246.757Z" fill="black"/>
<path d="M224.945 171.036C223.826 170.986 220.798 170.606 217.593 170.203C214.321 169.792 210.938 169.368 209.249 169.249C208.803 169.217 208.469 168.83 208.499 168.386C208.529 167.94 208.918 167.599 209.362 167.636C211.094 167.757 214.499 168.185 217.794 168.599C220.966 168.998 223.963 169.374 225.015 169.421C235.468 169.884 245.065 169.623 258.141 168.52C258.911 168.454 259.587 168.04 259.996 167.384C260.404 166.728 260.479 165.942 260.199 165.223C257.578 158.508 255.134 146.889 254.638 138.771C254.159 130.925 254.034 115.37 254.162 104.717C254.179 103.364 253.589 102.093 252.548 101.229C252.204 100.944 252.157 100.434 252.442 100.09C252.726 99.7464 253.236 99.6992 253.58 99.9838C254.999 101.162 255.801 102.894 255.778 104.737C255.652 115.361 255.774 130.865 256.252 138.672C256.74 146.649 259.136 158.053 261.706 164.636C262.688 167.152 260.972 169.905 258.278 170.132C246.42 171.132 236.463 171.547 224.943 171.037L224.945 171.036Z" fill="black"/>
<path d="M187.176 119.36C186.937 119.36 186.7 119.254 186.54 119.051C185.535 117.776 184.668 116.837 183.748 115.843C182.75 114.762 181.718 113.647 180.416 112.002C180.142 111.655 180.197 111.152 180.539 110.874C184.369 107.746 188.012 103.487 189.817 100.025C189.933 99.8027 190.147 99.6459 190.396 99.6017C190.644 99.5591 190.896 99.6322 191.082 99.8027C191.353 100.052 192.683 101.466 194.839 103.764C196.445 105.475 198.264 107.416 198.51 107.643C198.839 107.945 198.86 108.457 198.558 108.786C198.255 109.114 197.743 109.136 197.414 108.833C197.143 108.583 195.813 107.169 193.658 104.871C192.598 103.74 191.444 102.51 190.712 101.74C188.802 104.985 185.59 108.705 182.179 111.61C183.217 112.884 184.089 113.826 184.937 114.743C185.878 115.761 186.767 116.723 187.811 118.048C188.088 118.399 188.027 118.908 187.675 119.184C187.528 119.301 187.351 119.357 187.176 119.357V119.36Z" fill="black"/>
<path d="M209.251 169.303C206.744 169.154 201.23 169.13 198.901 168.991C197.956 168.935 197.084 168.472 196.509 167.724C195.933 166.973 195.712 166.011 195.903 165.083C196.685 161.278 197.44 156.161 198.171 151.211C198.856 146.571 199.564 141.773 200.285 138.139C200.556 136.777 200.253 135.338 199.451 134.197C199.194 133.831 199.282 133.326 199.649 133.07C200.013 132.815 200.518 132.901 200.775 133.268C201.83 134.771 202.229 136.662 201.873 138.455C201.159 142.05 200.454 146.828 199.772 151.449C199.039 156.421 198.28 161.562 197.487 165.41C197.391 165.877 197.503 166.363 197.792 166.74C198.081 167.118 198.519 167.351 198.996 167.378C201.238 167.512 206.808 167.539 209.345 167.69C209.791 167.716 210.131 168.099 210.105 168.545C210.079 168.976 209.717 169.328 209.249 169.305L209.251 169.303Z" fill="black"/>
<path d="M233.383 143.007C224.318 138.642 218.118 137.406 209.704 132.058C209.341 131.828 209.223 131.356 209.431 130.982C210.994 128.177 214.095 121.977 215.465 118.923C215.553 118.725 215.718 118.571 215.922 118.495C216.126 118.42 216.351 118.428 216.547 118.521C219.764 120.029 222.642 121.341 225.423 122.609C228.016 123.79 230.69 125.009 233.648 126.391C237.977 119.054 241.128 113.269 244.124 107.161C244.32 106.759 244.807 106.594 245.206 106.791C245.608 106.987 245.774 107.473 245.576 107.873C242.475 114.195 239.211 120.168 234.666 127.848C234.453 128.205 234.002 128.344 233.626 128.167C230.41 126.659 227.535 125.349 224.752 124.081C222.181 122.909 219.528 121.7 216.601 120.332C215.214 123.337 212.737 128.285 211.214 131.096C219.146 136.001 225.209 137.277 234.085 141.55C235.413 142.19 237.887 142.671 239.453 142.365C240.91 142.082 241.837 140.873 242.662 139.659C244.209 137.386 245.557 135.371 246.908 133.354C248.252 131.347 249.597 129.338 251.138 127.073C251.389 126.703 251.891 126.609 252.261 126.86C252.63 127.111 252.725 127.615 252.474 127.983C250.937 130.243 249.594 132.249 248.25 134.254C246.898 136.274 245.547 138.292 243.997 140.567C243.026 141.993 241.819 143.549 239.759 143.951C237.852 144.322 235.042 143.806 233.38 143.005L233.383 143.007Z" fill="black"/>
<path d="M207.78 112.624C207.757 112.624 207.736 112.624 207.713 112.621C207.267 112.585 206.937 112.194 206.973 111.749C207.021 111.182 207.063 110.606 207.107 110.028C207.456 105.375 207.818 100.565 210.164 96.3815C210.72 95.3922 211.531 94.1441 212.887 93.2781C213.893 92.6358 215.647 91.8946 217.119 91.7835C217.69 91.7409 218.224 91.4989 218.665 91.0849C220.019 89.8141 221.577 89.0119 223.381 88.0835L224.008 87.7593C224.404 87.5554 224.893 87.7076 225.098 88.1048C225.304 88.5006 225.15 88.9891 224.753 89.1946L224.121 89.5203C222.425 90.3939 220.961 91.1473 219.774 92.2629C219.07 92.9235 218.171 93.3253 217.241 93.3953C216.113 93.4805 214.604 94.1 213.758 94.6403C212.709 95.31 212.065 96.2963 211.575 97.1714C209.403 101.043 209.056 105.672 208.719 110.148C208.675 110.731 208.633 111.309 208.585 111.882C208.55 112.305 208.197 112.624 207.78 112.624Z" fill="black"/>
<path d="M205.558 117.793C205.401 117.793 205.241 117.747 205.101 117.651C202.348 115.768 198.81 113.633 196.227 112.074C195.869 111.858 195.429 111.803 195.128 111.939C194.959 112.015 194.863 112.141 194.829 112.338C194.727 112.899 196.123 113.733 197.6 114.616C198.276 115.019 199.041 115.478 199.84 116.004C200.213 116.251 200.317 116.752 200.07 117.124C199.824 117.497 199.321 117.599 198.95 117.354C198.18 116.847 197.431 116.398 196.769 116.004C194.545 114.675 192.936 113.715 193.236 112.052C193.367 111.327 193.802 110.765 194.461 110.467C195.246 110.111 196.243 110.198 197.062 110.692C199.662 112.26 203.221 114.409 206.013 116.319C206.381 116.572 206.476 117.074 206.225 117.444C206.068 117.672 205.815 117.796 205.556 117.796L205.558 117.793Z" fill="black"/>
<path d="M213.226 120.324C213.076 120.324 212.926 120.283 212.79 120.197C212.684 120.128 212.527 120.084 212.344 120.034C211.717 119.857 210.67 119.562 210.577 117.743C210.461 115.469 207.356 111.914 204.901 111.914C204.879 111.914 204.86 111.914 204.835 111.914C204.397 111.914 204.036 111.562 204.027 111.121C204.018 110.675 204.374 110.305 204.82 110.296C204.846 110.296 204.872 110.296 204.898 110.296C208.256 110.296 212.038 114.586 212.194 117.661C212.227 118.32 212.302 118.341 212.784 118.477C213.038 118.548 213.355 118.638 213.663 118.834C214.039 119.075 214.15 119.576 213.909 119.952C213.755 120.194 213.494 120.324 213.227 120.324H213.226Z" fill="black"/>
<path d="M209.976 131.777C209.895 131.777 209.813 131.765 209.731 131.739C204.986 130.232 199.891 127.955 194.588 124.97C194.043 124.666 193.09 123.869 192.781 123.132C192.559 122.62 192.458 121.555 192.936 120.815C193.244 120.339 193.735 120.073 194.32 120.063C194.428 120.068 194.533 120.082 194.631 120.121C195.174 120.339 195.713 120.555 196.255 120.776C196.669 120.945 196.868 121.415 196.699 121.829C196.532 122.243 196.06 122.442 195.646 122.273C195.197 122.091 194.749 121.91 194.297 121.73C194.194 121.893 194.186 122.31 194.267 122.497C194.382 122.771 194.973 123.333 195.379 123.56C200.587 126.491 205.58 128.724 210.219 130.197C210.644 130.332 210.88 130.788 210.746 131.212C210.636 131.556 210.318 131.777 209.976 131.777Z" fill="black"/>
<path d="M194.334 121.678C194.217 121.678 194.097 121.652 193.983 121.597C192.67 120.964 192.081 119.687 192.089 118.768C192.094 118.074 192.427 117.506 192.981 117.25C193.568 116.978 194.547 116.818 195.876 117.6C196.047 117.701 196.175 117.76 196.304 117.821C196.55 117.937 196.829 118.069 197.299 118.392C197.668 118.644 197.761 119.148 197.508 119.516C197.255 119.885 196.751 119.978 196.383 119.725C196.019 119.475 195.83 119.387 195.613 119.284C195.444 119.204 195.276 119.125 195.054 118.993C194.671 118.768 194.135 118.538 193.713 118.695C193.701 118.758 193.695 118.908 193.771 119.128C193.919 119.558 194.261 119.935 194.686 120.14C195.088 120.335 195.257 120.818 195.062 121.22C194.922 121.509 194.634 121.676 194.333 121.676L194.334 121.678Z" fill="black"/>
<path d="M194.445 118.614C194.333 118.614 194.219 118.591 194.111 118.541C192.49 117.804 192.027 116.423 192.288 115.378C192.588 114.176 193.728 113.432 195.136 113.514C195.582 113.541 195.92 113.925 195.892 114.371C195.865 114.815 195.51 115.161 195.035 115.127C194.435 115.095 193.964 115.342 193.857 115.77C193.766 116.135 193.953 116.693 194.78 117.069C195.186 117.254 195.365 117.733 195.181 118.141C195.046 118.439 194.752 118.616 194.445 118.616V118.614Z" fill="black"/>
<path d="M204.782 134.76C204.75 134.76 204.718 134.758 204.688 134.754C197.531 133.912 193.532 132.284 187.078 129.477C186.782 129.349 186.592 129.057 186.592 128.736C186.592 127.11 186.587 125.555 186.58 124.042C186.555 117.672 186.533 112.17 187.014 105.091C187.03 104.851 187.152 104.63 187.349 104.489C187.543 104.349 187.792 104.302 188.026 104.364C191.125 105.177 193.555 106.005 195.905 106.804C198.461 107.674 201.105 108.574 204.607 109.447C204.947 109.533 205.193 109.826 205.218 110.175C205.254 110.677 205.286 111.114 205.317 111.507C205.457 113.333 205.525 114.251 205.432 116.354C205.412 116.8 205.024 117.147 204.589 117.126C204.143 117.106 203.797 116.729 203.817 116.283C203.905 114.277 203.843 113.447 203.705 111.63C203.686 111.396 203.668 111.145 203.648 110.874C200.36 110.029 197.832 109.169 195.384 108.335C193.308 107.629 191.169 106.9 188.565 106.183C188.154 112.738 188.175 117.994 188.198 124.034C188.203 125.384 188.209 126.768 188.21 128.205C194.131 130.774 197.771 132.217 203.988 133.036C203.989 132.632 203.989 132.148 203.989 131.695C203.989 130.377 203.991 129.489 204.009 129.191C204.035 128.747 204.402 128.41 204.864 128.431C205.31 128.457 205.65 128.841 205.624 129.287C205.607 129.559 205.607 130.693 205.607 131.695C205.607 132.765 205.607 133.69 205.592 133.99C205.58 134.214 205.476 134.422 205.306 134.567C205.158 134.69 204.974 134.757 204.784 134.757L204.782 134.76Z" fill="black"/>
<path d="M189.745 102.439C189.401 102.439 189.082 102.218 188.973 101.873C188.48 100.31 186.971 97.1728 185.893 96.0405C185.348 95.4682 184.438 94.5109 183.61 94.2445C182.631 93.931 181.508 94.2414 180.345 94.6174C179.738 94.8137 179.111 95.0177 178.668 95.3678C178.314 95.6463 178.118 96.0389 178.191 96.3205C178.314 96.8091 179.168 97.1135 179.922 97.1242C180.114 97.1287 180.45 97.0739 180.773 97.0222C181.545 96.8989 182.342 96.7726 182.969 97.0252C183.303 97.1607 183.736 97.5031 183.913 98.3722C184.087 99.2351 183.963 100.459 183.391 101.028C183.074 101.343 182.563 101.342 182.248 101.025C181.933 100.708 181.934 100.197 182.251 99.8821C182.394 99.6644 182.414 98.812 182.278 98.5046C182.001 98.465 181.38 98.564 181.03 98.6203C180.622 98.6857 180.24 98.742 179.899 98.742C178.52 98.7207 176.972 98.0876 176.625 96.7193C176.393 95.8106 176.803 94.7818 177.668 94.0984C178.337 93.5688 179.141 93.3085 179.849 93.0786C180.925 92.7301 182.551 92.205 184.106 92.7042C185.233 93.0665 186.225 94.0405 187.067 94.9248C188.358 96.2809 189.971 99.6568 190.516 101.386C190.65 101.812 190.414 102.266 189.988 102.399C189.907 102.425 189.825 102.438 189.745 102.438V102.439Z" fill="black"/>
<path d="M179.523 109.656C179.295 109.656 179.067 109.559 178.907 109.372C177.433 107.638 176.517 106.628 175.63 105.65C174.734 104.664 173.809 103.646 172.32 101.893C171.829 101.313 171.217 100.591 171.02 99.6704C170.798 98.6248 171.281 97.322 172.468 96.9521C173.209 96.7208 174.062 96.9095 174.814 97.4666L175.004 97.6081C175.427 97.9217 175.908 98.2763 176.301 98.6233C176.767 99.0358 177.094 99.4163 177.471 99.8561C178.143 100.637 178.307 101.602 177.905 102.335C177.625 102.848 177.031 103.188 176.395 103.197C176.386 103.197 176.377 103.197 176.368 103.197C175.808 103.197 175.321 102.935 175.06 102.491C174.835 102.106 174.963 101.609 175.349 101.384C175.701 101.179 176.146 101.267 176.392 101.578C176.433 101.573 176.483 101.555 176.503 101.536C176.547 101.45 176.479 101.179 176.264 100.929C175.893 100.497 175.613 100.173 175.229 99.8318C174.891 99.5319 174.441 99.2001 174.043 98.9064L173.85 98.7633C173.533 98.5289 173.18 98.4224 172.952 98.4939C172.661 98.5852 172.535 99.0084 172.603 99.3341C172.715 99.8546 173.161 100.38 173.553 100.844C175.024 102.576 175.942 103.585 176.827 104.561C177.723 105.547 178.65 106.567 180.14 108.322C180.429 108.662 180.388 109.172 180.047 109.462C179.895 109.591 179.709 109.653 179.525 109.653L179.523 109.656Z" fill="black"/>
<path d="M178.276 101.562C178.141 101.562 178.002 101.553 177.864 101.535C177.106 101.435 176.431 101.068 176.06 100.555C175.798 100.194 175.877 99.6873 176.24 99.4255C176.6 99.1637 177.107 99.2429 177.369 99.6051C177.459 99.7284 177.719 99.8836 178.078 99.9323C178.359 99.9688 178.585 99.9262 178.707 99.8577C178.73 99.5655 178.368 98.7451 177.941 98.3798C177.602 98.0891 177.564 97.5793 177.855 97.2399C178.145 96.9005 178.655 96.8609 178.995 97.1516C179.645 97.7087 180.337 98.908 180.322 99.876C180.313 100.515 180.018 100.887 179.771 101.084C179.384 101.395 178.855 101.562 178.276 101.562Z" fill="black"/>
<path d="M172.892 98.4695C172.643 98.4695 172.398 98.3554 172.239 98.1377C171.704 97.4041 172.039 96.2321 172.376 95.6659C172.597 95.2946 173.323 94.5595 174.069 94.2505C174.282 93.7087 174.666 93.3038 175.263 92.975C175.552 92.8152 175.992 92.6356 176.473 92.5169C175.104 90.3526 173.713 88.0879 172.506 85.8201C172.217 85.2782 171.953 84.7409 171.883 84.1124C171.789 83.257 172.128 82.4549 172.766 82.0151C173.593 81.4474 174.684 81.6209 175.401 82.0455C176.08 82.4473 176.535 83.0561 176.903 83.5462L183.769 92.7102C184.036 93.0679 183.963 93.5747 183.606 93.8426C183.25 94.1089 182.741 94.0389 182.473 93.6798L175.607 84.5157C175.298 84.1018 174.976 83.6741 174.576 83.4382C174.269 83.2555 173.874 83.2159 173.681 83.3499C173.517 83.4625 173.466 83.7258 173.489 83.9373C173.527 84.2798 173.711 84.6481 173.931 85.0606C175.33 87.6891 176.992 90.3328 178.575 92.8167C178.757 93.1044 178.742 93.4743 178.534 93.7437C178.327 94.0131 177.972 94.1242 177.648 94.0222C177.363 93.9324 176.521 94.1257 176.039 94.392C175.652 94.6051 175.564 94.7725 175.508 95.0678C175.436 95.4498 175.104 95.7253 174.721 95.7284C174.479 95.7984 173.888 96.2854 173.762 96.4939C173.635 96.7055 173.552 97.0829 173.573 97.2305C173.798 97.5867 173.711 98.0616 173.366 98.3142C173.221 98.4192 173.055 98.471 172.889 98.471L172.892 98.4695Z" fill="black"/>
<path d="M178.508 98.6152C178.327 98.6152 178.146 98.5544 177.995 98.4311C177.779 98.253 176.974 97.6046 176.17 96.9563C175.36 96.3033 174.55 95.6519 174.333 95.4723C173.987 95.1892 173.938 94.6793 174.222 94.3338C174.505 93.9883 175.015 93.938 175.36 94.2227C175.576 94.4007 176.382 95.0492 177.185 95.6975C177.995 96.3505 178.805 97.0019 179.023 97.1815C179.368 97.4646 179.417 97.9745 179.134 98.32C178.974 98.5148 178.742 98.6152 178.508 98.6152Z" fill="black"/>
<path d="M230.849 92.6747C230.774 92.6747 230.698 92.6747 230.622 92.6747C227.893 92.6579 225.047 90.518 224.145 87.8043C224.003 87.3811 224.233 86.923 224.656 86.7814C225.079 86.6414 225.538 86.8698 225.679 87.2929C226.366 89.3567 228.588 91.0446 230.632 91.0568C232.899 91.0659 233.628 90.9365 235.503 89.5835C235.864 89.3232 236.371 89.4024 236.633 89.7661C236.895 90.1284 236.813 90.6337 236.45 90.8955C234.348 92.4114 233.272 92.6747 230.85 92.6747H230.849Z" fill="black"/>
<path d="M226.709 83.0526C225.37 83.0526 224.011 82.59 223.015 81.7985C221.175 80.3343 219.933 78.0787 219.52 75.4472C218.893 71.4489 218.986 68.1004 219.799 65.4932C219.931 65.0671 220.383 64.8281 220.811 64.962C221.237 65.0945 221.476 65.548 221.342 65.9742C220.614 68.3089 220.537 71.4975 221.117 75.196C221.467 77.4273 222.499 79.3222 224.021 80.5321C225.44 81.66 227.904 81.8609 229.078 80.4409C229.361 80.0969 229.872 80.0482 230.217 80.3328C230.561 80.6174 230.609 81.1273 230.325 81.4713C229.414 82.5717 228.073 83.0511 226.709 83.0511V83.0526Z" fill="black"/>
<path d="M226.105 89.7396C226.057 89.7396 226.008 89.735 225.958 89.7259C225.519 89.6452 225.229 89.2237 225.309 88.7838C225.503 87.7382 225.698 86.5191 225.87 85.4445C226.133 83.7962 226.288 82.8449 226.408 82.4477C226.538 82.02 226.991 81.7795 227.416 81.9073C227.844 82.0367 228.086 82.4888 227.956 82.9149C227.862 83.2269 227.661 84.4841 227.468 85.6987C227.294 86.7824 227.098 88.0106 226.902 89.076C226.83 89.4656 226.489 89.7381 226.107 89.7381L226.105 89.7396Z" fill="black"/>
<path d="M231.846 79.8837C231.717 79.456 231.959 79.0056 232.387 78.8762C233.691 78.4835 233.883 78.135 234.248 77.1868C234.41 76.7697 234.879 76.5612 235.294 76.7226C235.711 76.8824 235.92 77.3512 235.758 77.7667C235.223 79.1608 234.676 79.8762 232.854 80.4241C232.423 80.5535 231.974 80.3084 231.846 79.8837Z" fill="black"/>
<path d="M223.426 75.2875C223.084 75.2875 222.743 75.1672 222.449 74.9344C221.954 74.5432 221.662 73.8903 221.706 73.2693C221.765 72.4276 222.271 71.7793 222.677 71.2587L222.72 71.2054C223 70.8462 223.283 70.4338 223.249 70.1111C223.204 69.6667 223.528 69.2694 223.971 69.2238C224.429 69.1796 224.813 69.5008 224.859 69.9452C224.95 70.8371 224.473 71.5844 223.995 72.1993L223.953 72.2541C223.639 72.6544 223.344 73.0334 223.32 73.3834C223.312 73.4854 223.388 73.6102 223.443 73.6589C223.854 73.5646 224.269 73.7989 224.396 74.2053C224.53 74.6315 224.292 75.0851 223.866 75.219C223.721 75.2647 223.572 75.2875 223.425 75.2875H223.426Z" fill="black"/>
<path d="M224.229 78.0318C223.821 78.0318 223.412 77.9299 223.056 77.7259C222.668 77.5052 222.532 77.0106 222.754 76.6224C222.975 76.2343 223.47 76.1004 223.858 76.3211C224.059 76.4368 224.325 76.4474 224.537 76.3515C224.94 76.1643 225.423 76.3409 225.61 76.7472C225.797 77.1521 225.621 77.6331 225.214 77.8203C224.907 77.9618 224.569 78.0318 224.231 78.0318H224.229Z" fill="black"/>
<path d="M274.971 94.8944C271.795 94.7924 268.816 92.2704 267.002 88.1473C266.57 87.1656 266.198 86.1458 265.839 85.1581C263.708 79.3059 262.72 78.0747 257.073 74.7613C256.065 74.1692 255.021 73.5573 254.04 72.8816C249.119 69.4875 244.872 63.885 243.472 58.9384C243.35 58.5092 243.6 58.0618 244.03 57.94C244.455 57.8183 244.907 58.0679 245.029 58.4971C246.335 63.1087 250.325 68.3536 254.958 71.5498C257.992 73.6426 261.717 75.1235 264.163 78.1568C266.384 80.9117 267.131 84.4244 268.481 87.4958C269.064 88.8215 271.261 93.1577 275.021 93.278C275.467 93.2917 275.817 93.6661 275.803 94.112C275.788 94.5747 275.388 94.9187 274.969 94.8944H274.971Z" fill="black"/>
<path d="M272.355 97.2638C272.046 95.4221 270.417 94.7083 268.98 94.0797C268.397 93.824 267.846 93.5835 267.391 93.2822C266.091 92.4238 265.266 90.7724 264.867 88.2352C264.531 86.0876 264.45 83.7651 263.4 81.6966C262.012 78.957 259.31 77.3635 256.996 75.5904C252.892 72.4413 249.651 68.2619 247.625 63.5026C247.432 63.0505 247.248 62.5879 247.062 62.1236C246.129 59.7919 245.163 57.3811 243.12 55.7632C241.456 54.4466 239.244 53.7754 236.157 53.6537C234.163 53.5745 229.079 53.573 224.96 55.2731C222.426 56.3187 220.17 58.6778 219.212 61.2805C218.552 63.0764 218.584 64.7704 219.305 66.1767C219.469 66.4948 219.821 66.6684 220.173 66.6029C221.937 66.2726 224.048 64.1479 225.22 61.6411C226.567 62.7339 228.003 63.9774 229.4 65.1874C234.058 69.2253 236.081 70.8569 237.331 70.7671C237.663 70.7428 237.944 70.6027 238.15 70.3638C238.24 70.2588 238.658 70.1355 239.269 70.3135C241.05 70.831 241.438 72.834 240.534 73.8005C239.812 74.5691 238.526 74.8537 237.256 74.5265C236.797 74.4093 236.335 74.7076 236.256 75.1764C236.168 75.703 236.083 76.2326 235.997 76.7608C235.233 81.511 235.162 81.1685 235.025 82.1C234.571 85.1805 235.93 88.7725 238.488 91.2549C239.689 92.4208 241.126 93.3278 242.514 94.206C244.642 95.5515 246.654 96.8239 247.685 98.877C247.895 99.2971 248.064 99.7477 248.242 100.226C248.56 101.079 248.889 101.964 249.499 102.738C250.277 103.726 251.197 104.061 252.125 104.061C253.332 104.061 254.554 103.493 255.503 103.054C256.331 102.67 256.121 102.786 257.413 102.19C259.12 101.407 260.733 100.665 262.441 100.659H262.458C263.598 100.659 264.747 100.991 265.98 101.213C267.371 101.463 269.405 101.652 271.022 100.411C272.035 99.6335 272.544 98.4266 272.349 97.2577L272.355 97.2638ZM258.185 95.7554C258.065 95.7554 257.943 95.7143 257.842 95.6322C254.462 92.8408 251.506 89.5776 249.061 85.9369C248.027 84.3982 247.067 82.7119 247.044 80.8109C247.023 79.1549 247.743 77.5492 247.377 76.1459C246.762 73.7868 243.411 72.8386 242.103 70.3288C241.375 68.9331 241.433 67.3913 241.103 65.9865C240.409 63.0307 237.714 60.6519 234.694 60.3307C234.398 60.2988 234.183 60.0339 234.215 59.7371C234.245 59.4418 234.516 59.2227 234.807 59.2577C238.267 59.626 241.356 62.3519 242.152 65.7384C242.272 66.2483 242.343 66.7673 242.413 67.2695C242.767 69.8143 243.05 70.4018 245.472 72.2937C246.715 73.2647 248.003 74.2692 248.42 75.875C248.693 76.9236 248.51 77.9586 248.333 78.9586C247.977 80.9798 247.848 82.1959 249.956 85.3358C252.343 88.8912 255.227 92.0752 258.529 94.8011C258.92 95.1238 258.687 95.7554 258.185 95.7554ZM262.505 91.99C260.989 91.5684 260.479 89.8897 260.107 88.6644C259.952 88.1546 259.371 86.5123 258.308 86.5123C258.293 86.5123 258.278 86.5123 258.263 86.5123C257.966 86.526 257.713 86.2947 257.699 85.9979C257.686 85.7011 257.917 85.4484 258.214 85.4347C259.488 85.3845 260.56 86.4392 261.14 88.3493C261.528 89.6278 261.92 90.707 262.794 90.9505C263.473 91.1392 263.202 92.1818 262.505 91.9885V91.99Z" fill="black"/>
<path d="M228.343 132.42C228.21 131.994 228.449 131.54 228.875 131.408C230.714 130.839 232.271 129.365 232.941 127.56C233.096 127.142 233.561 126.929 233.981 127.084C234.4 127.239 234.613 127.705 234.457 128.123C233.617 130.388 231.661 132.239 229.352 132.953C228.92 133.087 228.471 132.84 228.341 132.419L228.343 132.42Z" fill="black"/>
<path d="M208.415 165.712C207.987 165.584 207.743 165.134 207.873 164.706C208.209 163.58 208.017 162.345 207.813 161.04C207.628 159.851 207.434 158.623 207.628 157.372C208.001 154.962 209.788 152.795 209.686 150.835C208.804 150.694 208.045 149.909 207.889 148.994C207.713 147.949 208.177 146.994 208.517 146.297L211.407 140.355C211.602 139.954 212.086 139.786 212.488 139.983C212.89 140.177 213.057 140.661 212.861 141.063C209.876 147.246 209.355 147.967 209.483 148.725C209.539 149.052 209.891 149.284 209.995 149.233C210.448 149.011 210.989 149.252 211.129 149.733C211.973 152.632 209.608 155.142 209.224 157.618C209.069 158.621 209.235 159.674 209.409 160.788C209.632 162.215 209.862 163.689 209.419 165.167C209.291 165.595 208.841 165.838 208.413 165.711L208.415 165.712Z" fill="black"/>
<path d="M250.561 166.371C250.507 166.371 250.454 166.367 250.402 166.356C249.964 166.269 249.679 165.843 249.768 165.405L251.491 156.766C251.577 156.328 252.007 156.046 252.442 156.131C252.88 156.218 253.165 156.644 253.077 157.083L251.354 165.722C251.278 166.107 250.94 166.373 250.562 166.373L250.561 166.371Z" fill="black"/>
<path d="M246.79 164.349C246.726 164.349 246.661 164.341 246.597 164.325C246.163 164.218 245.898 163.78 246.005 163.346L247.614 156.812C247.72 156.378 248.158 156.113 248.592 156.22C249.026 156.326 249.291 156.765 249.184 157.199L247.575 163.733C247.486 164.101 247.154 164.347 246.791 164.347L246.79 164.349Z" fill="black"/>
<path d="M242.055 109.504C241.934 109.504 241.813 109.477 241.697 109.42L240.899 109.028C240.706 108.933 240.56 108.766 240.491 108.562C240.423 108.358 240.437 108.136 240.532 107.944C241.036 106.924 241.268 105.761 241.195 104.623C240.14 104.105 239.357 103.04 239.22 101.87C239.059 100.51 239.777 99.0872 240.966 98.4099C241.353 98.1893 241.848 98.3233 242.07 98.7114C242.292 99.0995 242.157 99.5926 241.768 99.8148C241.138 100.176 240.741 100.959 240.826 101.681C240.911 102.402 241.479 103.073 242.176 103.277C242.482 103.367 242.708 103.627 242.752 103.944C242.933 105.273 242.775 106.658 242.304 107.916L242.414 107.97C242.814 108.168 242.98 108.652 242.782 109.053C242.641 109.338 242.355 109.504 242.056 109.504H242.055Z" fill="black"/>
<path d="M215.412 106.455C215.356 106.455 215.298 106.449 215.242 106.437C214.805 106.343 214.528 105.912 214.622 105.477C215.09 103.312 216.244 101.294 217.874 99.7964C218.203 99.495 218.714 99.5148 219.017 99.8436C219.32 100.172 219.297 100.684 218.97 100.987C217.585 102.261 216.601 103.977 216.204 105.817C216.122 106.196 215.787 106.455 215.414 106.455H215.412Z" fill="black"/>
<path d="M231.238 155.208L229.768 154.527C229.363 154.34 229.186 153.859 229.374 153.454C229.562 153.049 230.043 152.873 230.447 153.06L231.917 153.742C232.322 153.929 232.499 154.41 232.311 154.815C232.124 155.22 231.643 155.396 231.237 155.209L231.238 155.208Z" fill="black"/>
<path d="M228.066 161.038L226.032 159.714C225.658 159.471 225.553 158.97 225.796 158.596C226.04 158.221 226.541 158.116 226.915 158.36L228.949 159.684C229.323 159.927 229.428 160.428 229.185 160.803C228.943 161.175 228.442 161.283 228.066 161.038Z" fill="black"/>
<path d="M269.579 251.392L256.753 251.124C256.307 251.115 255.952 250.745 255.961 250.299C255.972 249.835 256.369 249.488 256.786 249.508L269.612 249.776C270.058 249.785 270.413 250.155 270.404 250.6C270.393 251.065 269.996 251.412 269.579 251.392Z" fill="black"/>
<path d="M194.965 248.701L184.041 248.068C183.595 248.042 183.254 247.66 183.282 247.214C183.308 246.768 183.685 246.43 184.136 246.453L195.059 247.086C195.505 247.112 195.846 247.494 195.819 247.94C195.794 248.374 195.427 248.724 194.965 248.701Z" fill="black"/>
<path d="M274.527 179.561L274.589 179.585H274.596C275.173 179.772 275.805 179.478 276.029 178.905L276.029 178.905L278.627 172.272L278.627 172.272C278.86 171.675 278.566 171.004 277.971 170.771L277.971 170.771L277.969 170.77C277.373 170.54 276.703 170.831 276.47 171.427L276.47 171.427L273.871 178.06L273.871 178.06C273.638 178.657 273.932 179.328 274.527 179.561Z" fill="#1B4071" stroke="#1B4071" stroke-width="0.698889"/>
<path d="M264.645 183.461L264.722 183.501H264.731C265.277 183.737 265.926 183.519 266.212 182.979C270.279 175.296 272.38 166.642 272.288 157.951C272.282 157.315 271.765 156.805 271.13 156.805H271.121V156.805L271.118 156.805C270.477 156.811 269.965 157.335 269.971 157.975L269.971 157.975C270.059 166.282 268.051 174.553 264.163 181.895L264.163 181.895C263.865 182.46 264.08 183.162 264.645 183.461Z" fill="#1B4071" stroke="#1B4071" stroke-width="0.698889"/>
<path d="M273.124 40.9964C271.823 43.2323 269.098 44.2429 266.524 44.4894C263.949 44.7345 261.339 44.3874 258.772 44.7086C256.205 45.0297 253.517 46.2215 252.418 48.5623C252.098 45.8181 251.78 43.0755 251.46 40.3313C257.395 40.8031 263.33 41.2749 269.266 41.7468C269.876 41.7955 270.52 41.8366 271.066 41.5611C271.996 41.0923 272.276 39.9204 272.455 38.8945" fill="#CCCCCC"/>
<path d="M244.646 43.2129C242.266 42.7487 238.507 43.0531 236.847 40.5388C236.064 39.3531 236.157 37.5298 237.328 36.7246C237.153 38.1979 238.188 39.6286 239.529 40.2648C240.87 40.901 242.438 40.8706 243.893 40.5783C244.809 40.3942 245.84 40.1309 246.616 40.6499C247.057 40.9451 247.009 40.9695 251.409 47.0606C250.662 47.0179 248.902 45.4122 248.199 44.9495C247.016 44.1703 246.08 43.4915 244.646 43.2114V43.2129Z" fill="#CCCCCC"/>
<path d="M271.302 19.5725L241.379 17.8465C239.396 17.7354 237.648 19.2605 237.508 21.2528L236.338 37.9584C236.197 39.9446 237.641 41.6629 239.622 41.8669L245.303 42.4452L252.447 50.8208C252.896 51.3459 253.753 51.1024 253.861 50.4236L255.118 42.5107L269.899 43.4711C270.791 43.5289 271.663 43.261 272.363 42.7207C273.283 42.0115 273.715 41.1607 273.806 39.8654L274.753 23.4475C274.87 21.4278 273.331 19.6897 271.301 19.5725H271.302ZM244.203 26.4124C244.248 26.4002 244.305 26.42 244.352 26.4322C244.731 26.4094 245.331 26.7396 245.579 27.3986C245.769 27.9024 245.704 28.4382 245.402 28.8309C244.764 29.6665 243.327 29.5279 242.86 28.5858C242.393 27.6437 243.148 26.417 244.203 26.4124ZM247.565 34.581C247.503 34.581 240.531 34.0833 240.452 34.0772C240.059 34.0483 239.828 33.6191 240.023 33.2736C240.662 32.1473 241.332 31.0987 242.493 30.6497C243.693 30.187 245.134 30.3331 246.078 31.0149C246.825 31.5537 247.285 32.4076 247.692 33.1595C247.804 33.368 247.915 33.575 248.029 33.7698C248.241 34.1275 247.981 34.5825 247.565 34.5825V34.581ZM267.211 35.5597L253.293 34.6008C252.996 34.581 252.773 34.3238 252.792 34.0255C252.814 33.7287 253.072 33.508 253.368 33.5247L267.285 34.4836C267.582 34.5034 267.806 34.7606 267.786 35.0589C267.766 35.3481 267.518 35.5795 267.211 35.5597ZM268.211 27.1003L249.014 25.7001C248.717 25.6788 248.494 25.42 248.515 25.1233C248.536 24.8265 248.795 24.6073 249.092 24.624L268.29 26.0243C268.587 26.0456 268.809 26.3043 268.788 26.6011C268.768 26.8827 268.527 27.1186 268.211 27.1003Z" fill="black"/>
<path d="M285.732 22.0754C285.735 22.0883 285.739 22.1008 285.743 22.113C285.899 22.711 286.502 23.0927 287.122 22.9557L287.123 22.9555C287.75 22.8152 288.144 22.1914 288.004 21.566L288.004 21.5659C286.379 14.3137 281.13 7.99189 274.299 5.05982L274.299 5.05967C273.706 4.80609 273.025 5.07995 272.771 5.6701C272.517 6.26108 272.791 6.94378 273.38 7.1975L273.38 7.19772C279.534 9.83923 284.269 15.5428 285.732 22.0754Z" fill="#CF3245" stroke="#CF3245" stroke-width="0.708333" stroke-linejoin="round"/>
<path d="M290.414 13.5226C290.417 13.53 290.42 13.5374 290.423 13.5447C290.668 14.1303 291.343 14.42 291.943 14.1704L291.944 14.1703C292.537 13.9231 292.817 13.2424 292.57 12.6493L292.57 12.6492C290.605 7.9415 287.129 3.8792 282.78 1.21026L282.78 1.21001C282.234 0.87577 281.518 1.04359 281.181 1.59322L281.18 1.59356C280.846 2.13984 281.016 2.85728 281.564 3.19293C285.492 5.60303 288.634 9.27259 290.414 13.5226Z" fill="#CF3245" stroke="#CF3245" stroke-width="0.708333" stroke-linejoin="round"/>
<path d="M251.94 169.465C246.467 169.572 234.499 170.036 227.559 170.223C226.334 169.482 222.411 169.881 220.879 169.91C216.397 169.993 212.086 168.569 207.643 168.225C207.15 168.187 206.748 168.365 206.532 168.786C206.329 169.179 206.613 169.794 206.59 170.241C205.978 182.675 206.182 193.134 206.389 205.604C206.672 222.664 206.384 229.826 206.588 237.153C215.552 238.222 222.833 238.604 227.587 238.12C227.658 218.784 227.973 237.295 227.686 194.371C229.732 209.471 232.609 226.279 234.991 237.994C242.562 239.866 251.336 238.341 259.465 238.027C255.219 215.299 255.889 192.151 251.94 169.465ZM208.83 191.711C208.441 189.977 208.658 188.143 209.442 186.548C209.862 185.696 210.803 184.394 210.228 183.492C210.063 183.233 209.677 182.943 209.423 182.568C208.549 181.282 209.171 180.014 210.324 174.619C210.389 174.328 210.678 174.147 210.968 174.209C211.258 174.275 211.441 174.562 211.375 174.853C210.196 180.288 209.78 181.175 210.314 181.962C210.522 182.267 210.87 182.494 211.138 182.914C211.531 183.532 211.586 184.378 211.289 185.238C211.059 185.904 210.692 186.451 210.41 187.023C209.735 188.399 209.547 189.98 209.882 191.475C209.948 191.766 209.765 192.053 209.474 192.119C209.187 192.184 208.896 192.003 208.83 191.711ZM211.197 230.648C210.963 230.648 210.747 230.493 210.68 230.256L209.622 226.534C209.54 226.248 209.707 225.95 209.993 225.869C210.279 225.789 210.578 225.954 210.66 226.241L211.718 229.962C211.817 230.307 211.555 230.648 211.199 230.648H211.197ZM213.042 231.236C212.753 231.236 212.514 231.008 212.503 230.717L212.376 227.209C212.365 226.91 212.598 226.661 212.895 226.65C213.175 226.639 213.443 226.871 213.453 227.169L213.581 230.677C213.592 230.982 213.35 231.236 213.042 231.236ZM214.982 217.708C214.992 218.005 214.758 218.255 214.461 218.265C214.173 218.279 213.914 218.049 213.904 217.745C213.726 212.392 213.835 206.97 214.231 201.63C214.254 201.333 214.508 201.109 214.808 201.132C215.105 201.153 215.327 201.412 215.306 201.709C214.913 207.012 214.803 212.395 214.98 217.708H214.982ZM237.42 210.348C236.709 210.995 235.531 210.503 235.215 209.593C234.991 208.949 235.137 208.313 235.265 207.642C235.583 205.852 235.192 203.954 234.192 202.435C234.027 202.187 234.096 201.852 234.345 201.688C234.594 201.523 234.928 201.593 235.091 201.841C236.242 203.589 236.693 205.771 236.326 207.83C236.228 208.345 236.102 208.865 236.231 209.238C236.315 209.476 236.626 209.611 236.694 209.549C236.915 209.349 237.256 209.365 237.455 209.585C237.655 209.806 237.639 210.147 237.419 210.346L237.42 210.348ZM248.948 232.347C248.698 232.347 248.473 232.172 248.42 231.918L236.557 174.766C236.496 174.476 236.683 174.189 236.976 174.129C237.266 174.068 237.553 174.255 237.614 174.547L249.476 231.699C249.546 232.033 249.289 232.347 248.948 232.347Z" fill="black"/>
<path d="M68.7769 40.3193C68.5653 40.3193 68.3537 40.2371 68.1939 40.0712C67.8849 39.7485 67.894 39.2371 68.2167 38.9281C94.0834 14.1575 92.6053 15.1833 93.2142 15.2168L116.956 15.7038C117.402 15.713 117.757 16.0828 117.747 16.5288C117.737 16.9914 117.341 17.34 116.922 17.3202L93.5156 16.8408L69.337 40.094C69.1803 40.2447 68.9778 40.3193 68.7769 40.3193Z" fill="black"/>
<path d="M158.482 10.3448C158.041 9.88512 160.1 10.2306 119.695 9.31288C119.287 9.287 118.881 9.63553 118.87 10.1043L118.619 22.3823C118.61 22.8283 118.964 23.1981 119.41 23.2073C164.403 24.1296 156.756 23.9911 157.646 23.9911C158.085 23.9911 158.445 23.6395 158.455 23.1997L158.707 10.9216C158.712 10.707 158.63 10.5 158.482 10.3448ZM130.344 17.9396L124.972 17.83L125.058 13.6856L130.43 13.7952L130.344 17.9396ZM142.082 18.4114L136.71 18.3018L136.795 14.1574L142.167 14.267L142.082 18.4114ZM152.979 18.6352L147.607 18.5256L147.693 14.3811L153.064 14.4907L152.979 18.6352Z" fill="black"/>
<path d="M46.4093 239.651C40.8807 239.633 16.4129 239.552 10.8995 239.534C10.4535 239.532 10.0913 239.169 10.0928 238.723C10.0943 238.277 10.4566 237.916 10.9011 237.916C16.4297 237.934 40.8974 238.015 46.4108 238.033C46.8568 238.035 47.2191 238.399 47.2176 238.844C47.2161 239.29 46.8538 239.651 46.4093 239.651Z" fill="black"/>
<path d="M29.658 195.227C30.4191 194.748 31.369 194.376 32.2001 194.717C33.2519 195.149 33.5792 196.492 33.5183 197.627C33.363 200.553 29.4115 206.854 25.6729 205.102C21.6787 203.23 27.7325 196.439 29.658 195.226V195.227Z" fill="#CCCCCC"/>
<path d="M8.32866 186.407C8.43521 184.944 8.89491 183.285 10.2314 182.684C11.679 182.032 13.734 182.831 14.6016 185.385C15.3795 187.676 14.8695 190.084 14.3596 192.37C14.1008 193.534 13.8831 197.721 12.676 197.924C9.22368 198.505 8.18557 188.375 8.32866 186.407Z" fill="#CCCCCC"/>
<path d="M5.23421 206.66C6.34237 204.322 10.7659 208.06 10.1813 209.508C9.33957 211.593 4.3346 208.558 5.23421 206.66Z" fill="#CCCCCC"/>
<path d="M19.5922 221.846C19.1478 221.808 18.8175 221.416 18.8555 220.971C19.5283 213.159 21.1829 204.494 28.3525 199.449C28.7178 199.191 29.2217 199.278 29.4789 199.645C29.7362 200.01 29.6479 200.514 29.2826 200.771C22.6549 205.435 21.1068 213.669 20.466 221.11C20.4294 221.542 20.0535 221.883 19.5907 221.846H19.5922Z" fill="black"/>
<path d="M21.8188 207.992C21.7914 207.546 22.1308 207.162 22.5768 207.137C26.0063 206.93 31.8074 205.485 34.9919 204.044C37.4304 202.942 39.0363 201.743 40.0455 200.274C41.2557 198.511 41.4368 196.236 40.4839 194.741C39.3392 192.944 36.9007 192.432 35.001 192.548C32.0677 192.731 29.0598 194.174 26.7476 196.505C24.5557 198.715 23.8357 201.403 22.9254 204.465C22.7976 204.893 22.3439 205.135 21.9192 205.009C21.4915 204.881 21.248 204.43 21.3758 204.003C22.3485 200.729 23.1553 197.831 25.5999 195.367C28.1877 192.758 31.5776 191.142 34.9005 190.935C37.263 190.787 40.3256 191.483 41.8478 193.872C43.1584 195.93 42.9697 198.871 41.3775 201.189C40.1947 202.911 38.3772 204.286 35.657 205.516C32.2686 207.048 26.3229 208.528 22.6727 208.748C22.2282 208.776 21.8431 208.436 21.8173 207.99L21.8188 207.992Z" fill="black"/>
<path d="M24.9106 224.647C24.5255 224.422 24.3945 223.927 24.6198 223.54C26.0309 221.123 24.9912 217.973 23.6715 216.01C22.0838 213.647 19.6986 211.743 17.738 209.518C13.0527 204.203 10.7572 196.831 11.5959 189.796C11.6492 189.353 12.0511 189.038 12.494 189.088C12.937 189.142 13.2536 189.543 13.2018 189.986C12.4164 196.57 14.5657 203.473 18.9512 208.448C20.9483 210.715 23.291 212.542 25.0141 215.107C26.6702 217.573 27.8027 221.297 26.0157 224.356C25.7919 224.74 25.2972 224.872 24.9091 224.647H24.9106Z" fill="black"/>
<path d="M13.7829 201.62H13.7676C13.3216 201.612 12.9655 201.244 12.9731 200.796C13.0248 197.903 14.9671 193.498 16.1271 190.867C17.1774 188.372 18.4164 185.76 18.2627 182.887C18.1394 180.56 16.6751 177.838 14.2061 177.379C11.766 176.924 9.46595 178.826 8.23602 180.593C4.55992 185.873 5.41995 193.221 10.4706 197.468C10.8116 197.755 10.8572 198.265 10.568 198.608C10.2818 198.949 9.77189 198.993 9.42787 198.707C3.86273 194.025 2.66175 185.765 6.90867 179.669C8.48719 177.404 11.3139 175.195 14.5014 175.79C17.8182 176.408 19.7164 179.785 19.8778 182.802C20.0498 186.018 18.7498 188.795 17.6067 191.52C16.4955 194.04 14.6353 198.259 14.5897 200.827C14.582 201.268 14.2213 201.621 13.7814 201.621L13.7829 201.62Z" fill="black"/>
<path d="M19.9258 222.071C19.6427 220.622 17.3457 217.213 15.6637 215.437C13.356 213.002 10.9981 211.262 8.28407 209.25C7.92484 208.983 7.85027 208.478 8.11665 208.119C8.38304 207.76 8.88992 207.685 9.24763 207.952C12.05 210.029 14.4399 211.795 16.8388 214.326C18.5346 216.116 21.1329 219.81 21.515 221.762C21.6003 222.201 21.3141 222.625 20.8757 222.711C20.4403 222.796 20.0141 222.513 19.9273 222.071H19.9258Z" fill="black"/>
<path d="M10.1782 213.891C8.49158 213.593 6.54772 213.196 4.79415 212.264C2.85183 211.232 1.43772 209.622 0.915604 207.847C0.276282 205.674 1.06632 203.28 2.79553 202.152C5.01032 200.706 7.89639 201.609 9.59973 203.249C11.3076 204.893 13.4037 209.873 14.0659 211.654C14.2211 212.072 14.0095 212.538 13.5909 212.693C13.1708 212.849 12.7065 212.637 12.5512 212.217C11.6151 209.703 9.73214 205.619 8.47785 204.414C7.26467 203.246 5.17016 202.532 3.67841 203.505C2.55198 204.24 2.03136 205.91 2.46823 207.389C2.86857 208.75 3.99348 210.006 5.55373 210.835C7.09875 211.655 8.89646 212.021 10.4613 212.298C10.9012 212.375 11.195 212.795 11.1158 213.235C11.0397 213.672 10.6227 213.969 10.1782 213.89V213.891Z" fill="black"/>
<path d="M14.7387 183.627C14.7067 182.355 13.8756 181.101 12.7157 180.576C12.3092 180.391 12.1281 179.914 12.3123 179.506C12.4965 179.099 12.9745 178.918 13.3824 179.102C15.1147 179.885 16.3096 181.687 16.3567 183.588C16.3674 184.034 16.0143 184.405 15.5683 184.416C15.1375 184.432 14.7509 184.084 14.7402 183.627H14.7387Z" fill="black"/>
<path d="M15.2563 187.134C14.8331 186.991 14.6063 186.533 14.7494 186.11L14.8453 185.825C14.9869 185.402 15.4466 185.175 15.8697 185.318C16.2929 185.461 16.5197 185.92 16.3766 186.343L16.2807 186.627C16.1391 187.049 15.681 187.277 15.2563 187.134Z" fill="black"/>
<path d="M3.90928 208.601C3.21516 207.64 3.0036 206.342 3.36131 205.213C3.49527 204.788 3.94583 204.549 4.37661 204.684C4.80282 204.818 5.03876 205.273 4.9048 205.698C4.69931 206.351 4.82109 207.1 5.22143 207.652C5.48325 208.015 5.40258 208.52 5.0403 208.782C4.68106 209.042 4.17415 208.964 3.91081 208.601H3.90928Z" fill="black"/>
<path d="M32.5236 202.56C32.3424 202.152 32.5251 201.674 32.933 201.493C33.8616 201.079 34.8358 200.621 35.6577 199.979C37.6609 198.408 37.7614 196.405 36.8238 195.393C36.5193 195.065 36.5391 194.554 36.8664 194.25C37.1921 193.947 37.7051 193.965 38.0095 194.292C39.5926 196 39.4267 199.079 36.6548 201.249C35.6882 202.006 34.5663 202.534 33.5906 202.969C33.1842 203.15 32.7047 202.969 32.5236 202.56Z" fill="black"/>
<path d="M39.6682 219.694C39.6499 219.262 39.2922 218.921 38.8599 218.921H3.66369C3.22987 218.921 2.87366 219.263 2.8554 219.696C2.84322 219.968 2.83105 220.234 2.83105 220.49C2.83105 230.653 11.0996 238.919 21.2618 238.919C31.4239 238.919 39.6925 230.651 39.6925 220.49C39.6925 220.216 39.6788 219.95 39.6682 219.694ZM16.9403 234.388C12.2062 232.75 8.19831 229.026 6.21946 224.423C6.10225 224.149 6.22857 223.832 6.50257 223.715C6.77504 223.598 7.0932 223.724 7.21041 223.998C9.07053 228.327 12.8395 231.831 17.2919 233.369C17.9556 233.599 17.6268 234.624 16.9387 234.389L16.9403 234.388ZM22.8525 234.465L20.6559 234.566C20.3439 234.576 20.1064 234.337 20.0927 234.051C20.079 233.754 20.3104 233.502 20.6072 233.488L22.8038 233.388C23.0778 233.382 23.3533 233.604 23.367 233.902C23.3807 234.2 23.1493 234.452 22.8525 234.465Z" fill="black"/>
</svg>
