<svg width="80" height="75" viewBox="0 0 80 75" fill="none" xmlns="http://www.w3.org/2000/svg">
<path fill-rule="evenodd" clip-rule="evenodd" d="M24.2635 66.7326C24.1938 67.0394 24.1148 67.3323 24.0543 67.6345C24.0125 67.8391 23.9427 68.0529 23.952 68.2575C23.9753 68.7317 23.7149 69.099 23.515 69.4848C23.4313 69.6522 22.8874 69.7638 22.6875 69.6987C22.7386 69.4151 22.8223 69.1362 22.8363 68.8572C22.8828 67.9321 22.9943 67.0255 23.2082 66.1236C23.3942 65.3379 23.529 64.5382 23.6731 63.7433C23.8312 62.8832 24.0776 62.0557 24.4262 61.256C24.6029 60.8562 25.1747 60.6284 25.5699 60.8097C25.6257 60.8376 25.6722 60.9492 25.6722 61.0236C25.6722 61.1351 25.6257 61.2421 25.6025 61.349C25.9651 61.2328 26.3091 61.0747 26.6671 61.0143C27.5923 60.8562 28.4058 61.0608 29.0242 61.8418C29.6285 62.6089 29.8145 63.4457 29.582 64.3895C29.503 64.7056 29.4565 65.0311 29.3728 65.3425C29.3263 65.5146 29.2427 65.6773 29.159 65.8353C29.0567 66.0306 28.9451 66.2212 28.8196 66.3979C28.7313 66.5234 28.6104 66.6303 28.4988 66.7419C28.3547 66.8814 28.2106 67.0348 28.0479 67.1557C27.8805 67.2812 27.6945 67.3788 27.5132 67.4764C27.3412 67.5694 27.1738 67.681 26.9879 67.7228C26.7461 67.774 26.4858 67.7926 26.244 67.7647C26.0581 67.7414 25.8767 67.6345 25.7047 67.5508C25.4537 67.43 25.2026 67.2998 24.9609 67.1603C24.747 67.0394 24.5378 66.9 24.2682 66.728L24.2635 66.7326ZM28.5779 64.4453C28.5779 64.4453 28.5593 64.436 28.5546 64.4313C28.5778 64.264 28.615 64.1012 28.6243 63.9339C28.6569 63.4643 28.722 62.9948 28.5407 62.5345C28.3407 62.0231 27.8898 61.6372 27.4435 61.6326C26.9088 61.6279 26.4114 61.7349 25.9697 62.0464C25.7977 62.1672 25.6536 62.33 25.4769 62.4369C25.2863 62.5531 25.2305 62.7205 25.198 62.9064C25.1097 63.4132 25.0957 63.9385 24.8214 64.4034C24.7842 64.4639 24.7889 64.5522 24.7749 64.6266C24.7191 64.9241 24.6866 65.2263 24.5936 65.5099C24.5146 65.7516 24.4727 65.9376 24.7331 66.091C24.8307 66.1468 24.8865 66.2584 24.9702 66.3328C25.1097 66.4583 25.2398 66.6257 25.4072 66.6908C26.43 67.0999 27.4295 66.8814 28.006 65.8632C28.2571 65.4262 28.3872 64.9195 28.5732 64.4453H28.5779Z" fill="black"/>
<path fill-rule="evenodd" clip-rule="evenodd" d="M42.3063 68.2808C42.4318 68.3923 42.5341 68.4946 42.6457 68.5876C42.9758 68.8665 43.1338 69.2106 43.1199 69.6476C43.1059 70.066 43.0362 70.4658 42.7852 70.8005C42.5248 71.1539 42.1482 71.3631 41.7159 71.4328C41.3161 71.5025 40.9069 71.5444 40.4978 71.5769C39.8144 71.6327 39.1914 71.4189 38.5871 71.1353C38.4476 71.0702 38.3128 70.9912 38.1687 70.9633C37.7363 70.8842 37.5643 70.5402 37.3737 70.2148C37.3411 70.159 37.4155 69.9637 37.4713 69.9498C37.6619 69.8986 37.6666 69.7545 37.6945 69.615C37.8153 68.9967 37.913 68.3691 38.0617 67.7554C38.257 66.9418 38.4848 66.1329 38.7172 65.3286C38.8009 65.0311 38.9311 64.7428 39.0613 64.4592C39.2007 64.1524 39.4936 64.0455 39.7958 64.0315C40.1445 64.0222 40.4978 64.0408 40.8372 64.1106C41.2928 64.2035 41.7345 64.3523 42.1808 64.4825C42.7619 64.6498 43.2454 64.9846 43.5244 65.5053C43.7475 65.9144 43.8823 66.3886 43.6499 66.8721C43.5569 67.0627 43.4872 67.2673 43.4035 67.4625C43.2919 67.7136 43.1059 67.8716 42.8503 67.9739C42.6689 68.0437 42.5062 68.1645 42.3063 68.2808ZM38.3732 70.2473C38.5034 70.3077 38.6522 70.4147 38.8149 70.4519C39.6564 70.6332 40.5071 70.7122 41.344 70.4891C41.6183 70.4147 41.8926 70.2101 42.0878 69.9916C42.3714 69.6801 42.2412 69.0525 41.9297 68.7689C41.5392 68.4109 41.0371 68.4249 40.5769 68.2947C40.3863 68.2389 40.1956 68.2017 40.005 68.1506C39.7772 68.0901 39.5541 68.0111 39.3216 67.9693C39.0101 67.9181 38.9822 67.9507 38.9078 68.2622C38.8056 68.6666 38.6986 69.0711 38.5871 69.4756C38.5545 69.6057 38.5173 69.7359 38.4801 69.8707C38.4476 69.987 38.4104 70.1032 38.3686 70.2473H38.3732ZM40.5443 64.5476C40.1073 64.4453 40.0143 64.4871 39.8935 64.8172C39.847 64.9334 39.847 65.0683 39.8144 65.1891C39.6471 65.7749 39.4797 66.3653 39.2891 66.9418C39.2286 67.1231 39.2891 67.1789 39.4378 67.2161C39.6331 67.2719 39.8377 67.3184 40.0283 67.3835C40.4234 67.509 40.8233 67.6159 41.2277 67.4858C41.5857 67.3649 41.9623 67.2394 42.2691 67.0302C42.6782 66.7512 42.7898 66.2863 42.7154 65.8121C42.6689 65.5239 42.5574 65.2356 42.1947 65.1612C42.0181 65.1241 41.8461 65.0497 41.6787 64.9846C41.2742 64.8312 40.8744 64.6731 40.5443 64.5476Z" fill="black"/>
<path fill-rule="evenodd" clip-rule="evenodd" d="M35.768 64.6402C35.6238 64.7704 35.4518 64.8819 35.3356 65.0307C35.0799 65.3654 34.7777 65.6444 34.4755 65.928C34.1687 66.2162 33.8618 66.5138 33.5736 66.8206C33.4341 66.9694 33.3504 67.1693 33.2203 67.3227C32.932 67.6667 32.6624 68.0293 32.3323 68.3222C32.058 68.564 31.7233 68.7546 31.3839 68.8941C31.2723 68.9406 31.0445 68.7964 30.9097 68.6895C30.654 68.485 30.5889 68.22 30.6028 67.8666C30.64 66.7834 31.0445 65.7839 31.277 64.7518C31.4397 64.0265 31.6861 63.3199 31.8813 62.5993C31.9325 62.4086 31.9418 62.2041 31.9743 61.9856C32.2114 61.9298 32.3834 62.046 32.5555 62.2599C32.9041 62.6969 32.7693 63.1525 32.6484 63.6035C32.4857 64.2311 32.2905 64.8448 32.1231 65.4724C32.0534 65.7374 32.0394 66.0163 31.965 66.2813C31.886 66.5649 31.7558 66.8345 31.6675 67.1181C31.6163 67.2855 31.6071 67.4622 31.5745 67.6388C31.6024 67.6528 31.6303 67.6667 31.6582 67.6807C31.8534 67.4529 32.0441 67.2251 32.2393 66.9973C32.4346 66.7741 32.6298 66.5556 32.8391 66.3417C33.2528 65.914 33.6759 65.4956 34.0943 65.0726C34.5267 64.6309 34.959 64.1892 35.3867 63.7476C35.489 63.6453 35.5913 63.5384 35.6657 63.4221C35.8563 63.1339 36.1492 63.1525 36.4374 63.1339C36.4839 63.1339 36.5304 63.1339 36.5769 63.1339C36.9163 63.1432 36.9953 63.2408 37.0092 63.5802C37.0464 64.5751 36.7536 65.5142 36.5025 66.458C36.3584 66.9973 36.2282 67.5412 36.0841 68.0805C35.9493 68.5919 35.8144 69.1079 35.6564 69.6147C35.5773 69.8704 35.3449 70.1307 35.0195 70.0005C34.8474 69.9308 34.787 69.8285 34.7591 69.6472C34.6475 68.9731 34.8846 68.3548 35.052 67.7225C35.2752 66.8717 35.489 66.021 35.7075 65.1702C35.7494 65.0028 35.7866 64.8355 35.8237 64.6681C35.8005 64.6588 35.7819 64.6448 35.7586 64.6355L35.768 64.6402Z" fill="black"/>
<path fill-rule="evenodd" clip-rule="evenodd" d="M44.9556 68.9364C44.9788 68.2251 45.5042 67.8067 45.8947 67.3092C46.0528 67.1093 46.2248 66.9094 46.4154 66.7328C46.5223 66.6351 46.6618 66.5421 46.8059 66.5096C47.215 66.4166 47.6334 66.3422 48.0519 66.2864C48.54 66.2214 49.0281 66.2771 49.4838 66.4585C49.7395 66.5607 49.9626 66.756 50.1997 66.9141C50.3113 66.9885 50.4322 67.0582 50.5205 67.1558C50.6135 67.2581 50.6646 67.3929 50.739 67.5091C51.097 68.0763 51.1156 68.7086 51.0784 69.3502C51.0691 69.4664 51.0784 69.5919 51.0551 69.7035C50.9529 70.2056 50.5159 70.0987 50.2044 70.0987C49.6837 70.094 49.1583 70.0243 48.6469 69.9267C48.1913 69.8383 47.759 69.671 47.308 69.5501C46.9686 69.4571 46.6199 69.3781 46.2759 69.3037C46.1318 69.2711 46.0249 69.3316 45.983 69.485C45.718 70.3962 45.8993 71.6608 46.857 72.2465C47.1825 72.4418 47.4986 72.6185 47.8798 72.5348C48.089 72.4883 48.2936 72.3767 48.4796 72.2651C48.7911 72.0792 49.0932 71.8653 49.3954 71.6607C49.4326 71.6375 49.4652 71.6003 49.4931 71.5631C49.6232 71.3865 49.9254 71.3353 50.1207 71.4515C50.3392 71.5864 50.3671 71.7956 50.1625 71.9862C49.8882 72.2372 49.6093 72.479 49.3025 72.6928C49.0375 72.8788 48.7492 73.0508 48.447 73.167C48.2611 73.2368 48.0286 73.2182 47.8194 73.1996C46.699 73.0834 45.9691 72.4046 45.3833 71.5073C45.0067 70.9308 44.8394 70.3032 44.8394 69.6245C44.8394 69.392 44.9184 69.1596 44.9602 68.9271L44.9556 68.9364ZM46.1969 68.6807C46.4293 68.6807 46.6153 68.6528 46.7873 68.6807C47.7822 68.876 48.7678 69.0805 49.7581 69.2897C50.0324 69.3502 50.1207 69.3176 50.1114 69.034C50.1021 68.7411 50.0649 68.439 49.9766 68.1647C49.8185 67.6765 49.5953 67.2163 49.0375 67.0535C48.8654 67.0024 48.6795 66.9745 48.5168 66.9001C48.089 66.7095 47.7311 66.8397 47.3963 67.1093C47.3405 67.1512 47.2848 67.1884 47.2336 67.2349C46.9686 67.4906 46.6897 67.7323 46.5549 68.1042C46.4851 68.2948 46.3317 68.4576 46.1922 68.6761L46.1969 68.6807Z" fill="black"/>
<path fill-rule="evenodd" clip-rule="evenodd" d="M16.2734 65.1754C16.3292 64.6408 16.3711 64.134 16.4362 63.6319C16.5105 63.0648 16.6082 62.5069 16.8267 61.9676C17.0312 61.4608 17.1475 60.9215 17.3009 60.3915C17.3939 60.0661 17.4775 59.736 17.5612 59.4059C17.617 59.1967 17.8774 58.9922 18.147 58.9596C18.319 58.9364 18.491 58.8899 18.6631 58.8853C18.8258 58.8853 18.9931 58.8992 19.1465 58.941C19.5743 59.0526 19.988 59.2014 20.4157 59.2944C20.9504 59.4106 21.4478 59.6198 21.9313 59.8662C22.1266 59.9638 22.3219 60.0615 22.5264 60.1451C22.6891 60.2149 22.7124 60.3265 22.6659 60.4752C22.5311 60.9169 22.3962 61.3586 22.2568 61.8002C22.0429 62.4697 21.8105 63.1298 21.6013 63.7993C21.4804 64.1898 21.3734 64.585 21.2991 64.9848C21.2247 65.3567 21.2014 65.738 21.1549 66.1192C21.1456 66.1889 21.1363 66.254 21.1224 66.3191C21.0573 66.6306 20.8807 66.7096 20.611 66.5469C20.3925 66.4121 20.2391 66.2308 20.2437 65.9518C20.2437 65.8216 20.2344 65.6915 20.253 65.5659C20.4483 64.2131 20.5878 62.8555 20.9364 61.5306C21.0248 61.1912 21.0248 60.8193 21.0387 60.4613C21.0387 60.3776 20.9643 60.2428 20.8946 60.2195C20.2437 60.001 19.5836 59.8104 18.9327 59.5966C18.7142 59.5222 18.6119 59.6152 18.5654 59.8058C18.5282 59.9731 18.5282 60.1544 18.4817 60.3172C18.4213 60.531 18.3144 60.7356 18.2493 60.9494C18.1981 61.1121 18.1796 61.2888 18.1284 61.4515C18.0633 61.6793 17.961 61.8932 17.9053 62.121C17.7797 62.6138 17.6682 63.1066 17.5659 63.604C17.4868 63.976 17.4682 64.3665 17.3427 64.7152C17.2869 64.8779 17.0498 65.0081 16.8685 65.0778C16.6779 65.1522 16.4548 65.1429 16.2734 65.1661V65.1754Z" fill="black"/>
<path fill-rule="evenodd" clip-rule="evenodd" d="M52.7354 67.4492C54.8088 67.5747 56.7521 68.114 58.6303 68.8997C58.6303 68.9369 58.6303 68.9741 58.6303 69.0113C58.4955 69.0671 58.3654 69.1461 58.2259 69.1694C57.6262 69.267 57.0311 69.2716 56.4592 69.0066C56.4034 68.9834 56.343 68.9695 56.2872 68.9462C56.1106 68.8672 56.0036 68.909 55.9478 69.1043C55.7805 69.7226 55.6085 70.3363 55.4271 70.95C55.283 71.452 55.1017 71.9448 54.9762 72.4516C54.8367 73.0095 54.7437 73.5813 54.6275 74.1485C54.595 74.3205 54.5624 74.4925 54.5113 74.6552C54.4694 74.7808 54.3765 74.8087 54.2602 74.725C54.1859 74.6738 54.1022 74.632 54.0231 74.5902C53.6326 74.3763 53.5722 74.2461 53.614 73.7998C53.7209 72.698 53.9534 71.6148 54.2184 70.5455C54.3672 69.9411 54.5392 69.346 54.7112 68.751C54.7437 68.6347 54.7344 68.5696 54.6043 68.5324C53.9069 68.3232 53.2514 68.0396 52.7354 67.4539V67.4492Z" fill="black"/>
<path fill-rule="evenodd" clip-rule="evenodd" d="M40.9146 42.7496C41.3841 42.7031 41.6677 42.9355 41.9001 43.2656C41.9559 43.3446 41.9838 43.4562 42.0117 43.5539C42.4255 44.9951 42.8346 46.4363 43.2577 47.8775C43.518 48.7608 43.8156 49.6255 44.2758 50.4995C44.3827 50.3973 44.4757 50.3461 44.5176 50.2717C44.9034 49.593 45.4985 49.1095 46.1168 48.6632C46.6747 48.2633 47.3163 48.1192 47.9904 48.2401C48.5715 48.347 48.9714 48.7608 49.2643 49.235C49.9663 50.3554 50.4079 51.5967 50.8124 52.852C51.096 53.7306 51.3796 54.6139 51.6632 55.4926C51.6771 55.5345 51.7004 55.5717 51.7004 55.6088C51.7143 55.8459 51.8166 56.1574 51.705 56.2969C51.5144 56.5294 51.1797 56.3899 50.9705 56.2458C50.6962 56.0505 50.4033 55.8041 50.2592 55.5112C49.9337 54.851 49.6641 54.1583 49.427 53.4563C48.9946 52.1871 48.4786 50.9598 47.7859 49.8115C47.7115 49.686 47.6278 49.5697 47.5348 49.4581C47.2326 49.0816 47.1117 49.0537 46.7212 49.3652C46.4516 49.5837 46.1726 49.8301 46.0146 50.1276C45.7124 50.6994 45.2754 51.2201 45.2149 51.9036C44.7082 52.4382 45.0755 52.9728 45.2149 53.5075C45.4846 54.5582 45.7635 55.6088 46.0146 56.6688C46.0843 56.9664 46.1029 57.2825 46.0936 57.5893C46.0796 57.9659 45.903 58.0542 45.5636 57.9055C45.2428 57.766 45.0522 57.5149 44.8988 57.2081C44.3827 56.1667 44.127 55.0417 43.8063 53.9398C43.2716 52.1035 42.7044 50.281 41.9885 48.5051C41.412 47.0685 41.0959 45.5529 41.0029 44.0048C40.9796 43.6003 40.9471 43.1959 40.9146 42.7635V42.7496Z" fill="black"/>
<path fill-rule="evenodd" clip-rule="evenodd" d="M70.1714 47.6908C69.8692 46.7935 69.8971 45.8683 69.9994 44.9432C70.0226 44.7247 70.1017 44.5015 70.204 44.3016C70.4875 43.753 70.7851 43.2137 71.1012 42.6837C71.3662 42.2421 71.6545 41.8144 72.1705 41.6098C72.2449 41.5819 72.3146 41.5261 72.3704 41.4657C72.9469 40.8427 73.6907 40.7637 74.4671 40.8567C75.1366 40.931 75.82 41.0194 76.4058 41.4006C76.7126 41.5959 76.9916 41.8422 77.2473 42.1026C77.7959 42.6605 78.3863 43.2323 78.549 44.0134C78.7675 45.0919 78.986 46.1845 78.7582 47.3049C78.6187 48.0115 78.5025 48.7275 78.112 49.3458C77.2705 50.6661 76.0013 51.2519 74.4857 51.3542C73.6303 51.41 72.8074 51.331 72.0915 50.7638C71.2593 50.1083 70.6828 49.2761 70.3295 48.2858C70.2597 48.0952 70.2225 47.8907 70.1761 47.6908H70.1714ZM75.1691 50.3919C75.82 50.1873 76.536 49.7317 76.8567 48.8019C77.1775 47.8767 77.317 46.9376 77.2938 45.9567C77.2705 45.0501 76.9962 44.2598 76.3872 43.5996C76.099 43.2881 75.7875 42.958 75.4248 42.7535C75.0018 42.5164 74.509 42.3862 74.0394 42.2467C73.3188 42.0329 72.1844 42.4838 71.8544 43.1533C71.436 44.0087 71.1895 44.9432 71.1895 45.8869C71.1849 47.1189 71.5429 48.2765 72.2402 49.3133C72.9004 50.2989 73.793 50.6754 75.1738 50.3872L75.1691 50.3919Z" fill="black"/>
<path fill-rule="evenodd" clip-rule="evenodd" d="M54.5025 51.1538C54.4374 52.1579 55.3673 53.5713 56.2878 53.8316C57.185 54.0873 58.0776 53.9943 58.9052 53.5248C59.0725 53.4318 59.2353 53.2598 59.3143 53.0831C59.5235 52.6182 59.7188 52.1347 59.8582 51.6465C59.9466 51.3304 60.0442 51.1073 60.4068 51.1166C60.7555 51.1305 61.0112 51.3537 61.0577 51.7395C61.1321 52.3579 60.9461 52.9111 60.5742 53.4085C59.8489 54.3802 58.8075 54.7149 57.6685 54.7847C57.0177 54.8218 56.3482 54.8218 55.7252 54.5476C54.8466 54.157 54.205 53.4876 53.7215 52.6879C53.3868 52.13 53.1125 51.5257 52.894 50.912C52.7917 50.6284 52.8754 50.2704 52.9079 49.9543C52.9962 49.1407 53.0985 48.3225 53.2054 47.5089C53.2147 47.4113 53.2519 47.295 53.317 47.2346C53.6796 46.9045 54.033 46.5605 54.4281 46.2676C55.4416 45.5238 56.5946 45.3889 57.7662 45.7144C58.4914 45.9189 59.0958 46.3931 59.6397 46.9464C60.0907 47.402 60.3789 47.918 60.5649 48.5131C60.7137 48.9733 60.6858 49.1407 60.2627 49.3778C59.9047 49.5731 59.5235 49.7497 59.1376 49.866C57.8777 50.2379 56.6085 50.5819 55.344 50.9352C55.0697 51.0096 54.7908 51.0794 54.4979 51.1491L54.5025 51.1538ZM59.0354 48.9966C59.1981 48.6014 59.0214 48.2527 58.7843 48.0342C58.2915 47.5833 57.7987 47.0672 57.1013 46.9603C56.669 46.8952 56.2087 46.9743 55.7624 47.0114C55.2092 47.0579 54.8512 47.3787 54.7071 47.8994C54.5723 48.3922 54.4793 48.8943 54.3956 49.3964C54.3445 49.7079 54.3398 50.024 54.3119 50.3448C55.8694 49.9125 57.3431 49.5033 58.8168 49.0896C58.8959 49.0663 58.9656 49.0245 59.0354 48.9966Z" fill="black"/>
<path fill-rule="evenodd" clip-rule="evenodd" d="M60.9517 40.4614C61.3747 40.2615 61.8071 40.2661 62.2022 40.4335C62.3789 40.5079 62.5602 40.745 62.5974 40.9356C62.9229 42.6511 63.4436 44.3154 63.9364 45.9845C64.3408 47.3606 64.7127 48.7506 65.094 50.1361C65.2799 50.8102 65.4473 51.4843 65.624 52.1584C65.6425 52.2374 65.6612 52.3211 65.6658 52.4001C65.6751 52.6233 65.7309 52.8604 65.4659 52.9906C65.2241 53.1114 64.8522 53.0696 64.6802 52.8465C64.4431 52.5396 64.1874 52.2235 64.0572 51.8701C63.755 51.0426 63.504 50.1918 63.2669 49.3411C62.7555 47.5 62.2627 45.659 61.7699 43.8087C61.5979 43.1532 61.4631 42.4884 61.305 41.8329C61.1981 41.3958 61.0818 40.9635 60.9563 40.4567L60.9517 40.4614Z" fill="black"/>
<path fill-rule="evenodd" clip-rule="evenodd" d="M67.622 44.2741C68.0032 45.7664 68.3705 47.2588 68.7703 48.7418C68.9423 49.3741 69.1887 49.9878 69.3747 50.6154C69.4956 51.0245 69.6025 51.4476 69.6537 51.8706C69.7094 52.3169 69.5328 52.4285 69.1144 52.3309C68.668 52.2286 68.3891 51.945 68.2496 51.5313C67.9614 50.6758 67.6824 49.8158 67.4268 48.951C66.7991 46.845 66.3621 44.6879 65.9065 42.54C65.7159 41.6334 65.4788 40.7455 65.2556 39.8435C65.1627 39.4623 65.2556 39.3368 65.6322 39.4065C65.9065 39.4577 66.1808 39.4949 66.2924 39.8528C66.748 41.3219 67.2315 42.7864 67.701 44.2508C67.6731 44.2601 67.6499 44.2648 67.622 44.2694V44.2741Z" fill="black"/>
<path fill-rule="evenodd" clip-rule="evenodd" d="M9.91392 48.2676C9.69541 47.6306 9.40717 47.0356 9.30024 46.4033C9.19796 45.7943 9.27699 45.1573 9.27699 44.5297C9.31884 44.5158 9.36068 44.4972 9.40252 44.4832C9.62102 44.8319 9.86742 45.1666 10.0534 45.5339C10.1929 45.8129 10.2486 46.1336 10.3556 46.4265C10.4114 46.58 10.4811 46.738 10.5787 46.8635C10.8902 47.2541 11.2156 47.6353 11.5271 48.0026C13.1822 47.8724 14.8373 47.7422 16.5481 47.6074C16.2552 47.3796 15.9716 47.1471 15.6787 46.9286C15.265 46.6125 14.8652 46.2778 14.4235 46.0081C13.926 45.7013 13.3728 45.5525 12.7684 45.6316C12.5406 45.6641 12.3082 45.6316 12.0711 45.5618C12.8614 44.9435 13.7261 44.6181 14.7024 44.9156C15.6462 45.2038 16.5109 45.6408 17.2501 46.3475C17.8638 46.9333 18.6169 47.3656 19.3097 47.8724C19.4212 47.9514 19.5142 48.0584 19.7048 48.235C19.3933 48.2908 19.2027 48.3326 19.0121 48.3605C18.1334 48.4907 17.2362 48.5651 16.3715 48.7604C14.9116 49.0858 13.4379 49.2392 11.9595 49.388C11.0018 49.4856 10.0487 49.6483 9.09568 49.7785C8.92832 49.8018 8.76095 49.8017 8.59358 49.8157C8.00315 49.8715 7.40808 49.9226 6.81765 49.9877C5.83205 50.0946 4.93478 49.9133 4.17233 49.2346C3.65164 48.7697 3.46103 48.1606 3.3634 47.5051C3.30761 47.1378 3.30296 46.7613 3.24717 46.394C3.0891 45.2689 2.93569 44.1485 2.74043 43.0327C2.66604 42.619 2.48938 42.2238 2.32666 41.7124C2.79621 41.9681 3.09375 42.2842 3.33086 42.6376C3.53541 42.9398 3.70743 43.2884 3.79111 43.6418C3.98637 44.4507 4.13514 45.2736 4.28391 46.0965C4.41409 46.8124 4.50707 47.5284 4.64189 48.2443C4.72092 48.6813 5.26951 49.1183 5.76696 49.0811C7.15703 48.9742 8.54709 48.858 9.86742 48.3466C9.88137 48.3419 9.89067 48.3187 9.91856 48.2815L9.91392 48.2676Z" fill="black"/>
<path fill-rule="evenodd" clip-rule="evenodd" d="M24.841 43.7861C25.5198 43.9256 26.338 45.0228 27.0121 46.6034C27.2027 46.4826 27.384 46.3617 27.57 46.2501C27.8861 46.0641 28.193 45.8363 28.5323 45.7155C28.8671 45.5946 28.9926 45.39 29.053 45.0739C29.0995 44.7996 29.1646 44.5253 29.2576 44.265C29.4715 43.6699 29.7179 43.549 30.3362 43.5118C30.9359 43.4746 31.3822 43.6978 31.7448 44.1394C32.2004 44.702 32.6468 45.2738 33.1024 45.8363C33.2744 46.0502 33.465 46.2501 33.6881 46.5104C33.0838 46.7104 32.498 46.8452 31.889 46.8219C31.3497 46.8033 30.8104 46.7615 30.2757 46.7057C29.8759 46.6639 29.5133 46.7104 29.146 46.8963C28.2488 47.3473 27.3794 47.8261 26.6216 48.5049C26.3054 48.7838 25.9103 48.9791 25.6732 49.351C25.4454 49.709 25.2315 50.0763 25.013 50.4389C24.6643 51.0293 24.125 51.4291 23.5904 51.8243C23.4509 51.9266 23.2464 51.9684 23.0697 51.9777C22.1166 52.0289 21.2752 51.7174 20.5453 51.1177C20.3175 50.9317 20.1083 50.7271 19.8433 50.49C20.2942 50.4203 20.6847 50.4621 21.0567 50.597C22.1166 50.9828 22.4514 50.9177 23.2092 50.0763C23.6927 49.537 24.1436 48.9651 24.6271 48.4305C24.9014 48.1283 25.1943 47.8401 25.5058 47.5797C25.7243 47.3984 25.7987 47.2357 25.6964 46.9568C25.4733 46.3477 25.2641 45.7341 25.0874 45.1064C24.9712 44.6973 24.9247 44.2743 24.841 43.7954V43.7861ZM31.9122 45.6829C31.3032 44.781 30.8987 44.3765 30.4478 44.1859C30.0712 44.4556 30.0154 44.8461 30.0619 45.2692C30.0758 45.4319 30.1502 45.5527 30.3315 45.5667C30.8243 45.6039 31.3218 45.6364 31.9122 45.6783V45.6829Z" fill="black"/>
<path fill-rule="evenodd" clip-rule="evenodd" d="M7.55273 52.4138C7.73405 52.107 7.89212 51.8606 8.03624 51.6049C8.25474 51.219 8.75219 51.0098 9.1706 51.1678C9.49604 51.2934 9.81682 51.4468 10.1237 51.6142C10.4119 51.7722 10.5328 52.0837 10.4305 52.3719C10.3096 52.702 10.1794 53.0275 10.026 53.3436C9.84007 53.7341 9.70525 53.762 9.33332 53.5668C8.9614 53.3668 8.57553 53.1809 8.20825 52.9763C7.9572 52.8322 7.68291 52.702 7.55273 52.4184V52.4138Z" fill="black"/>
<path fill-rule="evenodd" clip-rule="evenodd" d="M20.0177 18.7506C20.6128 18.3833 20.7011 17.8161 20.9103 17.328C21.2962 16.4075 21.6449 15.473 21.9982 14.5432C22.0633 14.3758 22.1005 14.1992 22.1656 13.99C21.9285 13.8877 21.6914 13.7994 21.4636 13.6878C21.0126 13.4693 20.5663 13.2415 20.12 13.0183C19.6783 12.7998 19.511 12.4139 19.4691 11.9537C19.3808 10.9541 19.2971 9.95924 19.2134 8.9597C19.1855 8.62961 19.1018 8.29953 19.2924 7.96945C19.3622 7.84393 19.2924 7.63937 19.2924 7.4534C18.4649 7.43016 17.6467 7.50919 16.9028 7.10473C17.4747 6.84438 18.0093 6.59798 18.5439 6.36088C19.5388 5.92387 19.3575 6.22606 19.4133 5.0545C19.4505 4.24091 19.3808 3.41803 19.3389 2.60445C19.325 2.36735 19.2506 2.13024 19.1902 1.83735C19.4831 1.80946 19.7945 1.74902 20.1014 1.75367C20.2362 1.75367 20.4129 1.8792 20.4826 1.99542C20.6825 2.3348 20.8313 2.69278 20.822 3.10654C20.808 3.8318 20.822 4.5617 20.8313 5.28695C20.8313 5.38923 20.8685 5.49151 20.8964 5.63098C21.1102 5.57519 21.3101 5.55659 21.4775 5.48221C22.1563 5.16607 22.835 5.2823 23.5231 5.44502C23.8485 5.52405 23.8578 5.82624 23.9787 6.05404C24.5505 7.12797 24.5738 8.29953 24.6435 9.47574C24.7039 10.5497 24.425 11.5818 24.3413 12.6324C24.3413 12.665 24.332 12.6929 24.3227 12.7254C24.1554 13.274 24.1879 13.2275 24.6807 13.5669C25.0945 13.8551 25.4431 14.2596 25.7779 14.6501C25.9685 14.8779 25.8151 15.1011 25.4989 15.0964C25.1967 15.0964 24.8899 15.1243 24.597 15.0778C24.3088 15.0314 24.0298 14.9058 23.7183 14.8036C23.63 14.9802 23.5417 15.1708 23.444 15.3568C23.1512 15.9054 22.8815 16.4726 22.5514 16.9933C22.2818 17.4256 21.961 17.8254 21.6216 18.2113C21.2915 18.5879 20.8499 18.8017 20.3431 18.8436C20.2687 18.8482 20.1897 18.7971 20.013 18.7413L20.0177 18.7506ZM22.4956 12.7998C22.9327 11.8886 22.9559 10.9076 22.9001 9.91275C22.8862 9.6617 22.9094 9.38276 22.8118 9.16426C22.7141 8.9411 22.5933 8.77838 22.8025 8.56918C22.835 8.53663 22.849 8.4669 22.835 8.42041C22.7048 7.88112 22.5793 7.34648 22.4306 6.81184C22.3748 6.60728 22.2353 6.54219 22.0121 6.61193C21.71 6.70026 21.3892 6.7328 21.0823 6.81649C20.9986 6.83973 20.8917 6.95131 20.8824 7.03499C20.8452 7.28604 20.8452 7.54639 20.8499 7.79743C20.8592 8.27164 20.8871 8.75049 20.8964 9.22469C20.901 9.64776 20.8824 10.0708 20.8824 10.4939C20.8824 11.1169 20.8731 11.7398 20.8871 12.3628C20.8871 12.4372 20.9801 12.572 21.0451 12.5813C21.524 12.665 22.0075 12.7301 22.4956 12.7998Z" fill="black"/>
<path fill-rule="evenodd" clip-rule="evenodd" d="M23.884 2.63226C24.2699 2.47884 24.6418 2.30682 25.0324 2.17665C25.8785 1.89306 26.7339 1.62341 27.5847 1.35842C28.4587 1.08412 29.3374 0.823777 30.2161 0.56343C30.932 0.349574 31.5922 0.489046 32.2291 0.851671C32.4708 0.991143 32.443 1.13991 32.3314 1.32123C31.9734 1.90701 31.5875 2.47884 31.2481 3.07392C30.8995 3.68759 30.5833 4.32451 30.2579 4.95213C30.2393 4.98933 30.2207 5.02652 30.2021 5.06371C30.1231 5.21713 29.965 5.37984 29.979 5.52397C30.0254 5.94703 30.1696 6.3515 30.4671 6.67228C30.5043 6.71412 30.6252 6.71412 30.6903 6.69553C31.025 6.5886 31.3597 6.47237 31.6898 6.3515C32.4197 6.0865 33.1775 6.01677 33.926 6.12834C34.1585 6.16553 34.3584 6.48632 34.5397 6.70482C34.5583 6.72807 34.377 6.99771 34.2468 7.04885C33.6517 7.29525 33.038 7.49981 32.4337 7.72297C32.085 7.84849 31.7316 7.97401 31.3923 8.11813C31.3132 8.15068 31.2156 8.2855 31.2295 8.35059C31.3365 8.87593 31.4341 9.40592 31.6061 9.90802C31.9641 10.9727 32.0292 12.0652 32.0245 13.1717C32.0245 13.5715 32.0617 13.9759 32.0338 14.3758C31.992 14.8918 31.9362 15.4311 31.4388 15.7426C31.2853 15.8402 31.0808 15.8588 30.8948 15.8867C30.0766 16.0029 29.2769 15.8867 28.4866 15.6496C28.4494 15.6403 28.4122 15.6217 28.3518 15.5938C28.5842 15.4543 28.812 15.3474 29.0027 15.2033C29.3885 14.9011 29.7651 14.5896 30.1277 14.2595C30.4485 13.9713 30.4346 13.5622 30.402 13.1902C30.3276 12.372 30.2068 11.5584 30.0998 10.7448C30.0161 10.1126 29.9232 9.48031 29.8534 8.84803C29.8209 8.51795 29.6721 8.43427 29.3699 8.5133C29.0119 8.60164 28.6493 8.66672 28.2867 8.74111C27.7567 8.84804 27.2314 8.95961 26.7014 9.06189C26.6223 9.07584 26.5201 9.06189 26.455 9.0154C26.0923 8.76435 25.739 8.49936 25.395 8.24831C26.7153 7.91823 28.0217 7.59279 29.3792 7.25341C29.2862 7.01166 29.2119 6.82105 29.1421 6.62579C28.9887 6.18413 28.8167 5.74712 28.6912 5.30081C28.4913 4.56626 28.9887 4.05951 29.3234 3.50628C29.3327 3.48768 29.3606 3.47838 29.3699 3.45979C29.6628 2.90655 29.9557 2.35331 30.2532 1.78148C29.9232 1.87911 29.5698 1.99069 29.2119 2.09762C28.6958 2.25103 28.1844 2.44165 27.6544 2.55322C26.9292 2.70664 26.19 2.80892 25.4554 2.92515C24.8789 3.01813 24.3536 2.85076 23.8794 2.62761L23.884 2.63226Z" fill="black"/>
<path fill-rule="evenodd" clip-rule="evenodd" d="M1.80383 12.3766C1.68296 12.7578 1.52954 13.1298 1.44121 13.5156C1.25524 14.3432 0.794988 14.5849 0 14.743C0.692709 11.9722 1.39472 9.18272 2.08742 6.40259C2.58952 6.37005 3.00794 6.63505 2.98469 7.06741C2.9568 7.59275 2.90101 8.12274 2.84057 8.64809C2.80803 8.92238 2.71505 9.18737 2.7011 9.46167C2.6918 9.63368 2.78013 9.8057 2.82198 9.97771C2.98469 10.6704 3.13346 11.3678 3.31013 12.0558C3.4589 12.623 3.6774 13.1716 3.81222 13.7388C4.09117 14.915 4.33292 16.1005 4.58862 17.286C4.74203 17.9927 4.93265 18.69 5.04422 19.4013C5.1744 20.2196 5.27203 21.0425 5.32317 21.8653C5.35106 22.3256 4.92335 22.6138 4.36081 22.6045C4.22134 22.0513 4.08652 21.5027 3.94705 20.9541C3.65881 19.8058 3.35197 18.6621 3.08697 17.5092C2.77549 16.1377 2.50584 14.7616 2.21295 13.3855C2.14321 13.0461 2.04558 12.7114 1.9619 12.372C1.91076 12.372 1.85497 12.372 1.80383 12.372V12.3766Z" fill="black"/>
<path fill-rule="evenodd" clip-rule="evenodd" d="M5.05104 12.9992C5.16726 12.1716 5.26489 11.3906 5.38112 10.6189C5.59033 9.18695 5.80418 7.75504 6.02734 6.32313C6.07848 6.00235 6.16216 5.68621 6.24119 5.32359C6.20865 5.34683 6.22725 5.32359 6.24119 5.32359C7.2082 5.12368 7.31977 5.56069 7.25934 6.4719C7.23144 6.88102 7.14311 7.28549 7.07337 7.76434C7.30583 7.68065 7.48714 7.62022 7.66845 7.55513C8.66335 7.20645 9.65825 6.84848 10.6578 6.51374C11.3737 6.27199 12.0944 6.03024 12.8243 5.83963C13.4054 5.68621 14.0051 5.7513 14.5862 5.90472C14.642 5.91866 14.7025 6.02559 14.7164 6.09533C14.8931 7.00189 15.0233 7.91311 14.9396 8.84292C14.9163 9.12651 14.9489 9.41475 14.9721 9.70299C15.0047 10.0889 14.9582 10.1307 14.5862 10.1121C14.2794 10.0935 13.9679 10.1214 13.7215 9.88431C13.6006 9.76808 13.424 9.71229 13.5449 9.45659C13.6146 9.31247 13.5077 9.08467 13.4891 8.89406C13.4472 8.41985 13.4193 7.941 13.3589 7.46215C13.3124 7.10417 13.2892 7.12277 12.9451 7.23435C11.6945 7.64811 10.4393 8.04328 9.18404 8.44775C8.97019 8.51748 8.75168 8.56862 8.55177 8.66625C8.10081 8.88941 7.62661 8.97774 7.12916 8.9266C6.9525 8.908 6.89671 8.96844 6.86417 9.14511C6.65961 10.1539 6.43181 11.1581 6.2226 12.167C6.17611 12.3808 6.09242 12.511 5.85997 12.5901C5.56708 12.6877 5.29744 12.869 5.04639 12.9992H5.05104Z" fill="black"/>
<path fill-rule="evenodd" clip-rule="evenodd" d="M9.36461 21.1299C10.0713 20.7626 10.313 20.0699 10.6803 19.4609C10.9871 18.9495 10.7872 18.466 10.6803 17.9779C10.3223 16.4111 9.92715 14.849 9.58312 13.2777C9.47154 12.7709 9.49014 12.2409 9.4204 11.7202C9.38321 11.4273 9.28093 11.1438 9.20654 10.8369C10.1921 10.3348 10.9267 11.26 10.9499 12.041C10.9778 13.0127 11.2475 13.9378 11.5264 14.8676C11.7077 15.4627 11.8193 16.0857 11.9216 16.704C12.0704 17.6013 12.1866 18.4986 12.3028 19.4005C12.3447 19.7445 12.2284 20.0374 11.9495 20.2745C11.7077 20.479 11.4985 20.7254 11.2986 20.9718C10.9499 21.4042 9.9225 21.5204 9.37391 21.1253L9.36461 21.1299Z" fill="black"/>
<path fill-rule="evenodd" clip-rule="evenodd" d="M12.8879 12.6928C13.3622 12.3813 13.8457 12.4232 14.3571 12.5301C14.9242 12.6463 15.1753 13.0555 15.4449 13.5064C15.7378 13.9946 16.1562 14.413 16.4398 14.9058C16.7792 15.4916 17.0489 16.1192 17.3185 16.7375C17.444 17.035 17.3278 17.1234 17.007 17.1187C16.7048 17.1187 16.5003 16.9607 16.2678 16.8026C15.5379 16.3005 15.0637 15.5799 14.5756 14.8686C14.1618 14.2642 13.7573 13.6505 13.3343 13.0555C13.2366 12.916 13.0646 12.8323 12.8833 12.6928H12.8879Z" fill="black"/>
<path fill-rule="evenodd" clip-rule="evenodd" d="M6.55543 19.9686C6.60657 18.9133 6.61587 17.9137 6.70885 16.9281C6.77394 16.2587 6.9413 15.5892 7.08542 14.929C7.14121 14.678 7.81067 14.3758 8.01988 14.5153C8.14541 14.5989 8.25233 14.8082 8.24769 14.9569C8.23374 15.4218 8.1733 15.8867 8.10821 16.3516C8.03848 16.8537 7.99664 17.3698 7.84787 17.8533C7.6619 18.4577 7.41551 19.0481 7.12726 19.6153C7.03893 19.7919 6.74139 19.857 6.55078 19.9686H6.55543Z" fill="black"/>
<path fill-rule="evenodd" clip-rule="evenodd" d="M50.9734 8.52733C51.2662 7.75559 51.7637 7.26279 52.382 6.90481C53.4281 6.29579 54.5345 5.96571 55.7572 6.31439C56.7893 6.60263 57.4123 7.25349 57.5518 8.32277C57.6912 9.38741 57.7331 10.4427 57.5797 11.5213C57.4262 12.6185 57.3937 13.7389 57.3147 14.8454C57.3007 15.0081 57.3472 15.1755 57.3658 15.3289C57.7889 15.4963 58.0213 15.1522 58.3328 15.036C58.5746 15.2173 58.8767 15.3428 58.6815 15.7427C58.4862 16.1285 58.0213 16.3935 57.6169 16.2819C57.0171 16.1192 56.5429 15.7659 56.2221 15.1708C56.1152 15.2313 56.0176 15.2638 55.9525 15.3335C55.1343 16.1657 54.1161 16.347 53.0003 16.2726C52.1682 16.2215 51.4057 16.0216 50.7177 15.5335C50.369 15.2871 50.1226 14.9802 50.0064 14.5757C49.7507 13.6971 49.7414 12.7859 50.2806 12.0467C50.806 11.3261 51.5266 10.7403 52.4564 10.5497C52.9492 10.452 53.4374 10.4381 53.9627 10.4892C54.6136 10.5497 55.3016 10.3079 55.9618 10.1452C56.0827 10.1173 56.2268 9.84766 56.2175 9.69889C56.1803 9.01548 56.1106 8.33672 56.0176 7.66261C55.9618 7.25349 55.6828 7.05358 55.2598 7.01174C54.0882 6.90481 53.0561 7.18376 52.2425 8.07638C51.9171 8.43435 51.5266 8.58312 50.9687 8.53663L50.9734 8.52733ZM56.1384 11.8049C55.0692 11.9118 54.1022 11.7398 53.1119 11.9304C52.0659 12.1303 51.4197 12.6789 51.0338 13.6041C50.7548 14.2643 51.0152 14.9849 51.6521 15.301C52.5261 15.738 53.442 15.7798 54.2788 15.2545C54.8553 14.8965 55.3574 14.4177 55.8735 13.976C55.9897 13.8737 56.0966 13.6924 56.1059 13.5437C56.1385 12.9951 56.1292 12.4465 56.1384 11.8049Z" fill="black"/>
<path fill-rule="evenodd" clip-rule="evenodd" d="M47.3949 8.71444C47.2229 8.26813 47.0788 7.86831 46.9114 7.47779C46.4651 6.44106 45.6376 5.97615 44.5404 5.90642C43.8895 5.86457 43.578 6.30623 43.2851 6.75719C43.0341 7.14771 43.0202 7.55218 43.3177 7.952C43.5966 8.32857 43.7919 8.79812 44.1406 9.08636C44.5218 9.4025 45.0146 9.61636 45.4934 9.76513C46.4326 10.058 47.1578 10.6577 47.7854 11.3458C48.4456 12.0711 48.427 12.8753 47.8691 13.6982C47.4275 14.3491 46.9625 14.9581 46.2001 15.3161C45.075 15.8414 43.9593 15.7763 42.8202 15.4556C42.1229 15.2603 41.6487 14.7629 41.2582 14.1864C40.8211 13.5402 40.598 12.8056 40.4492 11.9548C40.6584 11.9595 40.8676 11.9083 41.0071 11.9827C41.3837 12.1826 41.7417 12.4151 41.8672 12.88C42.0392 13.5123 42.4483 13.9818 43.0016 14.2979C43.578 14.628 44.1778 14.9209 44.8844 14.6373C45.3214 14.4607 45.6701 14.1864 45.9165 13.8052C46.1862 13.396 46.1955 12.9404 45.9026 12.5406C45.512 12.006 45.0518 11.5597 44.4288 11.2435C43.4246 10.7368 42.5831 9.98828 41.9788 9.03523C41.2814 7.93805 41.4627 6.97105 42.4437 6.12492C43.1271 5.53914 43.8709 5.11143 44.8054 5.08818C46.2745 5.05564 47.6832 6.04589 48.0458 7.09192C48.1248 7.31043 48.1806 7.54288 48.2131 7.77533C48.3247 8.52848 48.1527 8.71444 47.3856 8.72374L47.3949 8.71444Z" fill="black"/>
<path fill-rule="evenodd" clip-rule="evenodd" d="M65.5956 7.25928C66.1442 7.81251 66.293 8.33786 66.2976 8.93294C66.2976 10.3184 66.3116 11.7084 66.3162 13.0938C66.3162 13.6703 66.2651 14.2514 66.3209 14.8233C66.3674 15.2603 66.4929 15.7066 66.6835 16.1018C66.9485 16.6597 67.5343 16.8782 68.1479 16.7619C69.3335 16.5388 70.6073 15.3579 70.8304 14.0469C71.1605 12.0896 71.3604 10.1045 71.8858 8.17979C71.8997 8.11935 71.9323 8.06356 71.9602 8.01242C72.5413 8.07286 72.7273 8.18909 72.7645 8.70513C72.8109 9.34205 72.7877 9.98827 72.7552 10.6252C72.6715 12.2291 72.5692 13.8284 72.4623 15.4277C72.4204 16.0692 72.3553 16.7061 72.2763 17.3431C72.2298 17.715 72.1136 17.7754 71.7603 17.6871C71.2628 17.5616 70.8398 17.3431 70.6817 16.734C70.2447 16.9386 69.8495 17.1292 69.445 17.3105C68.1991 17.8777 66.3999 17.4872 65.5863 16.4365C65.0238 15.7112 64.8611 14.8326 64.8936 13.9493C64.9494 12.3918 65.0563 10.8297 65.1911 9.27696C65.2469 8.64934 65.4375 8.03567 65.6003 7.26393L65.5956 7.25928Z" fill="black"/>
<path fill-rule="evenodd" clip-rule="evenodd" d="M76.067 9.95948C75.7183 9.93624 75.4208 9.83861 75.2534 9.48528C75.2023 9.37835 74.9885 9.36441 74.8676 9.28072C74.6026 9.09011 74.2585 8.94599 74.305 8.44854C74.4956 8.50433 74.6444 8.55547 74.8025 8.59731C75.0303 8.65775 75.2534 8.75073 75.4812 8.76933C76.2623 8.83441 76.3553 8.77398 76.4808 7.98829C76.5831 7.35602 76.611 6.7191 76.6761 6.04963C76.9875 5.90086 77.2897 6.05893 77.5733 6.16121C77.6849 6.20305 77.7825 6.42621 77.7918 6.57498C77.8244 6.99804 77.8151 7.4304 77.8151 7.85347C77.8151 8.08592 77.7965 8.31837 77.7779 8.62986C78.2149 8.69029 78.6287 8.74143 79.0424 8.80652C79.4887 8.87626 79.7072 9.23423 80.0001 9.57826C79.2888 10.0804 78.4752 9.97343 77.6524 9.98738C77.564 10.708 77.4664 11.3821 77.4013 12.0609C77.2944 13.1906 77.1782 14.3203 77.1224 15.45C77.0898 16.0637 77.1363 16.6867 77.2153 17.2957C77.2851 17.8257 77.7035 18.007 78.1545 17.7234C78.5496 17.4723 78.9122 17.1702 79.3028 16.8773C79.67 17.1423 79.6793 17.1934 79.498 17.5839C78.9076 18.8531 77.9452 18.9461 76.6947 18.3975C75.895 18.0442 75.4905 17.3143 75.4719 16.3705C75.4487 14.9479 75.6626 13.5578 75.8439 12.1538C75.9322 11.4379 75.988 10.7173 76.0577 9.95948H76.067Z" fill="black"/>
<path fill-rule="evenodd" clip-rule="evenodd" d="M61.796 3.72096C62.4329 3.7814 62.6189 3.91157 62.7398 4.38112C62.7909 4.58568 62.8141 4.80419 62.8141 5.01804C62.8095 5.99899 62.8002 6.98459 62.763 7.96554C62.7351 8.73263 62.6607 9.49973 62.5956 10.2622C62.4701 11.6894 62.3446 13.1167 62.1958 14.5439C62.1354 15.1158 62.0378 15.6876 61.9169 16.2501C61.8657 16.4872 61.7123 16.7011 61.61 16.9103C60.7686 16.729 60.5454 16.4733 60.5454 15.748C60.5454 15.4691 60.5733 15.1948 60.5872 14.9159C60.6663 13.6374 60.7407 12.3542 60.8243 11.0758C60.8476 10.7131 60.8615 10.3459 60.908 9.98788C61.173 8.12361 61.452 6.25934 61.7216 4.39507C61.7542 4.18586 61.7635 3.97666 61.7867 3.71631L61.796 3.72096Z" fill="black"/>
<path fill-rule="evenodd" clip-rule="evenodd" d="M20.8506 23.7231C21.4038 23.8115 21.799 24.0207 21.9664 24.6344C22.2639 25.7129 22.4964 26.7915 22.3941 27.9212C22.3894 27.977 22.4127 28.0375 22.4359 28.149C22.5708 28.0979 22.7056 28.0747 22.8125 28.0096C23.0171 27.8794 23.1984 27.7167 23.4029 27.5865C24.5327 26.8613 25.6531 26.9589 26.7735 27.6283C27.4988 28.0607 27.7777 28.786 27.9125 29.5391C28.1078 30.6316 28.2519 31.7381 28.3216 32.8446C28.3821 33.8674 28.3356 34.9041 28.2984 35.9315C28.2891 36.2244 28.1775 36.522 28.0752 36.8056C27.9916 37.038 27.8056 37.1496 27.5406 37.0845C27.3128 37.0287 27.2477 36.8753 27.2245 36.6382C27.0664 35.0296 26.899 33.4257 26.7177 31.8218C26.6294 31.0407 26.5364 30.2597 26.3923 29.4833C26.3318 29.1532 26.1505 28.8417 26.0018 28.5396C25.8019 28.1304 25.4439 28.0235 25.0301 28.1304C24.3281 28.3071 23.6958 28.6093 23.2728 29.2323C23.031 29.5809 22.78 29.925 22.5847 30.3016C22.4917 30.4829 22.4824 30.7293 22.4917 30.9431C22.5522 32.64 22.6405 34.3323 22.6963 36.0292C22.7056 36.3221 22.6358 36.6289 22.5382 36.9078C22.4917 37.0473 22.3104 37.1961 22.1663 37.2333C21.9338 37.2891 21.72 37.1589 21.6363 36.9218C21.441 36.35 21.1807 35.7828 21.1017 35.1923C20.8924 33.6117 20.739 32.017 20.6135 30.4271C20.5159 29.2183 20.4415 28.0049 20.4647 26.7962C20.4787 25.8292 20.646 24.8668 20.7483 23.9045C20.753 23.8533 20.8088 23.8068 20.8599 23.7324L20.8506 23.7231Z" fill="black"/>
<path fill-rule="evenodd" clip-rule="evenodd" d="M44.3017 29.9525C44.8409 29.0041 45.6731 28.3858 46.6215 27.9069C47.3468 27.5443 48.0767 27.2096 48.9275 27.2793C50.2524 27.3955 50.8661 27.9162 51.2055 29.0041C51.517 29.999 51.6611 31.0078 51.6658 32.0353C51.6704 33.0395 51.6332 34.0437 51.6239 35.0479C51.6239 35.5081 51.5728 35.9777 51.8052 36.41C52.2748 36.5402 52.484 36.0985 52.8513 35.973C53.1256 36.2008 53.1302 36.4798 52.9861 36.7773C52.8234 37.112 52.5165 37.3119 52.1585 37.2747C51.6193 37.2143 51.1404 37.033 50.8057 36.5681C50.7266 36.4565 50.6337 36.3496 50.5174 36.2101C50.3408 36.3403 50.192 36.4705 50.0246 36.5727C48.788 37.3352 47.4351 37.47 46.0636 37.1399C44.6689 36.8052 43.9297 35.7778 44.0553 34.4249C44.1761 33.1185 44.8967 32.1282 46.1845 31.6494C47.0213 31.3426 47.8861 31.1473 48.7787 31.0822C48.8996 31.0729 49.0204 31.0636 49.1413 31.0404C49.9596 30.873 50.1734 30.5941 49.9781 29.7851C49.5365 27.9395 48.8577 27.721 47.0678 28.5671C46.589 28.7949 46.2403 29.1761 45.9846 29.6689C45.5941 30.4174 44.9851 30.5011 44.3017 29.9478V29.9525ZM50.1781 32.4118C49.4296 32.5095 48.7322 32.5374 48.0767 32.7047C47.3235 32.8953 46.5332 33.0627 45.9567 33.6717C45.529 34.1227 45.3244 34.6713 45.343 35.2664C45.3709 36.0613 46.1659 36.596 47.0539 36.503C48.3928 36.3589 49.2901 35.5546 50.0432 34.5318C50.099 34.4528 50.1688 34.3505 50.1734 34.2622C50.1827 33.681 50.1781 33.0999 50.1781 32.4165V32.4118Z" fill="black"/>
<path fill-rule="evenodd" clip-rule="evenodd" d="M38.2695 32.18C38.2742 33.5654 37.8232 34.7974 37.0933 35.9411C36.9724 36.1317 36.7725 36.2991 36.5726 36.4199C35.1593 37.2939 33.8064 37.0754 32.4954 36.1689C32.249 35.9969 31.9701 35.8667 31.7469 35.6714C31.4819 35.439 31.1704 35.2158 31.1518 34.8021C31.1472 34.6858 31.096 34.5696 31.0496 34.458C30.3475 32.7518 30.5196 31.0782 31.3471 29.4835C32.0073 28.2097 33.2021 27.5728 34.5549 27.331C35.0105 27.252 35.5731 27.438 36.0054 27.6565C37.1584 28.2423 37.9394 29.1628 38.1068 30.5017C38.1765 31.0596 38.2137 31.6221 38.2649 32.1846L38.2695 32.18ZM31.9747 32.5287C31.7655 33.5282 32.2862 34.3883 32.9696 35.1647C33.1602 35.3785 33.4485 35.5227 33.7135 35.6482C33.9413 35.7551 34.2109 35.783 34.4573 35.8713C34.8525 36.0062 35.1221 35.9829 35.2988 35.6389C35.6707 34.909 36.21 34.2442 36.2751 33.3794C36.303 33.0168 36.3402 32.6495 36.4192 32.2962C36.6424 31.3525 36.4099 30.4877 35.9961 29.6602C35.7265 29.1302 35.3546 28.6607 34.7548 28.4747C34.1737 28.2934 33.481 28.3306 33.1835 28.7211C32.3513 29.8229 31.8259 31.0084 31.984 32.5287H31.9747Z" fill="black"/>
<path fill-rule="evenodd" clip-rule="evenodd" d="M40.8647 24.0485C41.5017 24.016 41.7852 24.2391 41.8224 24.7598C41.8643 25.3828 41.8782 26.0104 41.9154 26.6334C41.9433 27.1773 41.9991 27.7213 42.027 28.2652C42.0967 29.6553 42.1665 31.0453 42.2223 32.4354C42.2595 33.3791 42.2594 34.3229 42.278 35.2713C42.278 35.3317 42.2827 35.3922 42.278 35.4526C42.2502 35.7781 42.3803 36.1825 41.934 36.3266C41.5528 36.4522 40.874 36.0988 40.7206 35.7083C40.6555 35.541 40.6276 35.355 40.6183 35.1783C40.5486 33.5837 40.4742 31.9937 40.4231 30.3991C40.3952 29.5716 40.4184 28.744 40.3998 27.9165C40.3719 26.6148 40.6602 25.3549 40.8647 24.0532V24.0485Z" fill="black"/>
</svg>
