<svg width="295" height="251" viewBox="0 0 295 251" fill="none" xmlns="http://www.w3.org/2000/svg">
<path d="M53.4973 95.5355C53.3945 95.2064 53.2663 94.8575 52.9845 94.658C52.6062 94.3909 52.0595 94.4938 51.6917 94.7764C51.324 95.0591 51.0965 95.4819 50.8851 95.8942C47.0802 103.325 46.6815 109.528 44.2588 112.704C45.4909 111.089 46.7231 109.474 47.9552 107.859C48.2482 107.474 48.6371 107.048 49.1148 107.115C50.473 107.305 50.0228 110.777 50.2814 112.605C50.2715 112.538 52.2384 109.852 52.4251 109.502C53.1451 108.155 53.6918 107.002 54.001 105.463C54.6668 102.154 54.4906 98.7063 53.4973 95.5348V95.5355Z" fill="#CCCCCC"/>
<path d="M77.2382 138.078C76.9578 119.938 77.7095 101.766 79.4925 83.6812C79.6109 82.481 80.538 78.069 78.6352 80.361C77.284 81.9883 77.1445 86.3467 76.8627 88.3842C75.6404 97.2214 74.9564 117.477 77.2382 138.078Z" fill="#CCCCCC"/>
<path d="M102.374 107.017C101.727 106.263 100.598 105.65 99.7833 106.219C99.3775 106.502 99.1873 106.998 99.0366 107.469C98.1454 110.257 97.8876 113.246 98.2877 116.145C98.5124 117.775 98.7076 118.437 101.206 128.788C100.765 126.96 101.485 124.138 101.645 122.26C101.824 120.136 101.845 117.839 102.307 115.759C103.025 112.534 105.133 110.235 102.374 107.018V107.017Z" fill="#CCCCCC"/>
<path d="M26.4864 238.785C22.7738 240.169 21.4712 235.021 24.9936 234.238C28.7612 233.4 32.9141 235.192 36.8521 234.273C36.7767 234.291 35.8905 235.994 35.6052 236.234C33.9504 237.624 30.7809 237.184 26.4871 238.786L26.4864 238.785Z" fill="#CCCCCC"/>
<path d="M84.8327 240.709C87.8451 240.943 90.9553 241.167 93.831 240.25C96.2234 238.619 92.3072 239.656 91.3506 239.116C90.3939 238.575 88.6728 235.764 88.8285 234.706C84.0212 233.728 81.9627 235.695 78.7819 235.217C78.3952 239.182 81.3251 240.436 84.8327 240.709Z" fill="#CCCCCC"/>
<path d="M48.7407 158.823C48.2321 158.888 47.7065 158.776 47.2078 158.897C46.3603 159.102 45.82 159.907 45.1225 160.43C43.6988 161.497 41.6086 161.299 40.108 160.344C37.0217 158.378 36.3525 154.329 34.6519 151.346C35.6388 153.632 36.7294 156.046 38.8026 157.425C40.3652 158.466 42.3694 158.779 44.1997 158.365C45.0084 158.182 45.7805 157.867 46.5484 157.553C47.2937 157.248 48.082 156.909 48.5322 156.241C49.1099 155.384 48.9528 154.193 48.4216 153.307C47.8897 152.42 47.0493 151.771 46.2278 151.144C47.5114 152.125 53.863 158.161 48.7414 158.822L48.7407 158.823Z" fill="#CCCCCC"/>
<path d="M63.4092 44.1818C63.1549 45.0445 62.8999 45.9071 62.6456 46.7698C59.0689 43.8562 54.1559 43.1585 49.55 43.4037C47.5873 43.5081 45.6162 43.7618 43.6627 43.5412C41.7092 43.3199 39.7197 42.5503 38.5207 40.992C37.3217 39.4337 37.1801 36.9839 38.5665 35.5898C38.1713 37.5696 39.5387 39.5824 41.3344 40.5036C45.0111 42.3896 49.357 40.5839 53.2887 40.9575C56.7977 41.2908 60.1975 43.3206 63.6931 42.3741C65.3451 41.9449 66.9063 40.6255 67.1986 38.8847C66.9669 40.142 67.4825 40.9934 66.7189 42.157C65.9954 43.2607 64.721 44.0465 63.4099 44.1825L63.4092 44.1818Z" fill="#CCCCCC"/>
<path d="M93.6559 243.704C93.1691 243.704 92.7746 244.098 92.7739 244.585C92.7725 245.073 93.167 245.469 93.6545 245.47C95.5573 245.474 94.9712 245.472 96.8677 245.476C97.3544 245.476 97.749 245.082 97.7497 244.595C97.7511 244.107 97.3566 243.711 96.8691 243.71C94.9663 243.706 95.5524 243.708 93.6559 243.704Z" fill="black"/>
<path d="M22.5558 240.641C23.0144 240.641 23.4018 240.287 23.4349 239.821C23.5498 238.219 23.6681 236.892 23.7978 235.764C23.8534 235.28 23.5061 234.842 23.0221 234.787C22.5381 234.729 22.1007 235.078 22.045 235.562C21.9126 236.716 21.7914 238.067 21.6752 239.695C21.6385 240.206 22.0429 240.641 22.5558 240.641Z" fill="black"/>
<path d="M29.0963 241.08C29.5838 241.079 29.9776 240.682 29.9762 240.195C29.9748 239.708 29.5803 239.314 29.0942 239.314C29.0336 239.314 26.3806 239.321 26.4404 239.321C25.9529 239.322 25.5591 239.718 25.5606 240.206C25.562 240.693 25.9565 241.086 26.4426 241.086C26.5031 241.086 29.1562 241.08 29.0963 241.08Z" fill="black"/>
<path d="M80.4118 63.7313C80.5957 63.2803 80.3794 62.7651 79.9278 62.5804C78.7478 62.0998 78.6365 61.7135 78.5943 61.1342C78.5576 60.6486 78.1371 60.2864 77.6488 60.3195C77.1628 60.3554 76.7985 60.779 76.8345 61.2653C76.9416 62.7009 77.6446 63.5551 79.2621 64.2155C79.7186 64.4009 80.2301 64.1789 80.4125 63.7313H80.4118Z" fill="black"/>
<path d="M87.2168 59.9105C87.0062 60.3502 87.1915 60.8774 87.6304 61.0881C88.6652 61.585 89.8974 60.7506 90.0207 59.6278C90.1059 58.8526 89.7445 58.2176 89.4261 57.6573C89.3451 57.5142 89.0978 57.0779 89.1555 56.8869C89.2957 56.4197 89.0302 55.9277 88.5638 55.7882C88.096 55.6486 87.6057 55.9136 87.4655 56.3802C87.2246 57.1851 87.5458 57.9173 87.8917 58.5284C87.8917 58.5284 87.9206 58.5791 87.9206 58.5798C88.0023 58.7236 88.3546 59.3156 88.2538 59.4439C87.848 59.329 87.4056 59.5172 87.2161 59.9112L87.2168 59.9105Z" fill="black"/>
<path d="M85.7919 61.7924C85.5284 62.2019 85.6461 62.7481 86.0561 63.0124C86.6478 63.3936 87.3967 63.4761 88.0568 63.2492C88.5175 63.0906 88.7627 62.5881 88.6042 62.1272C88.4449 61.6662 87.9427 61.4217 87.4826 61.5795C87.3319 61.631 87.1388 61.6106 87.0113 61.5281C86.6027 61.2645 86.0561 61.3829 85.7919 61.7924Z" fill="black"/>
<path d="M25.8724 112.348C23.6329 118.027 24.1429 116.894 24.0006 117.573C23.8238 120.988 23.5293 132.97 27.1834 143.737C27.3279 144.162 27.766 144.407 28.1965 144.317C32.2761 143.481 38.162 141.082 41.4956 139.246C41.6048 139.187 41.695 139.107 41.7669 139.015C42.031 138.807 42.1649 138.457 42.0789 138.11C40.5495 131.934 39.4386 122.476 39.7612 121.146C42.7524 116.688 46.7651 111.726 49.6204 107.096C49.8761 106.681 49.7472 106.137 49.3323 105.881C48.9166 105.625 48.3742 105.754 48.1177 106.169C45.3083 110.725 41.2491 115.749 38.2501 120.229C37.2906 121.664 39.08 132.99 40.2212 137.928C37.1645 139.55 32.2937 141.536 28.6072 142.418C26.1591 134.764 25.4448 125.65 25.7674 117.589C25.9598 116.803 28.3494 111.004 30.2881 105.841C34.5009 94.6177 44.6115 79.8455 46.322 79.19C54.9885 76.4512 62.1559 74.8013 68.8266 74.0106C70.349 75.6992 72.7611 76.9411 75.5332 77.4485C76.0087 77.5359 76.4716 77.2187 76.5596 76.7388C76.647 76.2595 76.3293 75.7993 75.8502 75.7112C73.3254 75.2496 71.0957 74.0606 69.8861 72.5312C69.6973 72.2923 69.4 72.169 69.0957 72.2014C62.1763 72.9823 54.7708 74.6681 45.7908 77.5056C43.0173 78.3816 32.6425 94.5479 28.6361 105.22C27.6864 107.748 26.6812 110.298 25.8731 112.347L25.8724 112.348Z" fill="black"/>
<path d="M99.1288 105.828C99.6114 105.762 99.9495 105.316 99.8833 104.833C99.5917 102.703 99.4324 100.467 100.238 98.5468C100.426 98.0972 100.215 97.5799 99.7657 97.3917C99.3176 97.2021 98.7991 97.4142 98.611 97.8639C97.6388 100.18 97.8248 102.808 98.1348 105.073C98.2003 105.55 98.6392 105.893 99.1288 105.828Z" fill="black"/>
<path d="M83.2069 138.362C83.0505 140.207 82.6899 142.325 82.8512 144.251C83.3471 150.211 86.9977 153.255 90.4793 153.255C92.4307 153.255 94.3208 152.273 95.2669 150.701C96.7682 148.205 96.4765 142.66 96.1447 139.775C96.0904 139.302 95.6678 138.956 95.1972 138.996C91.5621 139.289 87.8199 138.808 84.3771 137.605C83.836 137.415 83.2555 137.787 83.2069 138.364V138.362Z" fill="black"/>
<path d="M78.7181 42.1236C78.015 43.1751 76.2792 42.4985 74.7511 43.3196C73.4422 44.023 72.9822 45.41 72.6532 46.6553C71.9593 49.2813 71.2421 51.9962 71.4225 54.8202C71.6331 58.1285 73.2816 58.3801 73.9438 59.5267C74.2538 60.0631 74.4172 60.918 74.4616 61.7285C74.1516 63.2642 73.9868 64.5039 73.8572 66.9918C73.8318 67.4788 74.2059 67.8939 74.6927 67.9193C75.1738 67.946 75.5944 67.5732 75.6198 67.0834C75.705 65.4462 75.8022 64.3918 75.9523 63.4101C76.0573 63.3044 76.1453 63.1796 76.1869 63.026C76.4356 62.1069 76.6251 60.7707 76.8512 59.939C77.0005 59.3886 77.1097 58.7191 76.8294 58.1714C76.4299 57.3165 75.624 57.1692 75.0569 56.8422C74.9315 56.7062 74.8209 56.561 74.7349 56.3947C74.487 55.919 74.5983 54.9985 74.7948 54.8703C75.4775 54.7406 77.7882 56.5631 82.0143 55.377C83.6973 55.0246 85.1436 54.2226 86.5011 53.1337C87.231 52.6037 87.9517 51.9919 88.6611 51.3083C88.8548 51.2646 89.0845 51.3132 89.4015 51.4648C89.9277 52.2915 90.3758 53.0216 90.4969 53.8899C91.0035 57.5844 89.9327 63.3156 86.6794 64.9972C85.3366 65.6915 83.2739 65.5442 82.5244 64.3073C82.2722 63.8907 81.7297 63.7568 81.3127 64.0098C80.8956 64.2629 80.7632 64.8055 81.0154 65.2221C81.9368 66.7416 83.7706 67.3195 85.5015 67.1412C85.6346 68.7396 86.1334 72.709 86.2179 74.0213C84.3849 75.5133 82.611 76.6874 79.8952 77.2907C79.5205 77.3739 79.2422 77.6903 79.2077 78.073C77.5888 95.9632 76.7385 115.273 76.7202 133.15C74.4313 133.978 71.6669 133.556 69.3351 132.596C72.1699 115.424 74.1213 97.9577 75.0653 81.1015C75.0928 80.6145 74.7202 80.198 74.2341 80.1705C73.7508 80.1444 73.3309 80.5158 73.3034 81.0021C71.9361 105.414 68.4489 131.114 63.2174 155.325C63.209 155.364 63.2076 155.404 63.204 155.442C60.2924 155.762 57.2857 155.858 54.2818 155.708C52.9539 152.952 51.7689 150.648 50.4269 147.185C50.2924 146.837 49.9563 146.615 49.5844 146.625C49.0123 144.358 46.3607 142.233 43.9802 141.582C48.0472 126.027 51.4019 110.175 53.9458 94.4451C54.0233 93.9637 53.6964 93.5106 53.2159 93.4323C52.732 93.3576 52.2818 93.6818 52.2036 94.1625C49.6548 109.923 46.2902 125.809 42.2071 141.391C41.9351 141.402 41.8379 141.359 41.8365 141.358C41.7238 141.248 41.6322 140.749 41.2624 140.304C40.9503 139.929 40.3944 139.878 40.0197 140.19C39.6449 140.501 39.5942 141.058 39.9055 141.433C40.1711 141.751 40.2951 143.312 42.4254 143.148C44.1366 143.026 47.037 144.877 47.7612 146.713C46.6664 146.77 45.8844 146.833 44.6037 147.038C44.4959 146.915 44.386 146.786 44.2803 146.667C43.957 146.301 43.399 146.268 43.0348 146.591C42.6699 146.915 42.6368 147.472 42.9594 147.837C44.8939 150.021 47.1307 152.857 48.7643 154.927C49.0011 155.228 49.137 155.782 48.7742 155.896C48.2747 156.064 46.7524 153.778 45.2286 151.997C44.9116 151.626 44.3543 151.584 43.9845 151.9C43.6139 152.217 43.5709 152.775 43.8879 153.145C44.8327 154.249 45.4935 155.179 46.1972 156.011C46.1937 156.08 46.1958 156.149 46.2092 156.22C46.3987 157.221 45.5012 157.551 44.8721 156.53C44.8355 156.471 44.7918 156.419 44.7446 156.371C44.4987 155.856 44.3247 155.719 44.05 155.287C43.9189 155.08 43.7703 154.846 43.4286 154.461C43.1046 154.097 42.5466 154.065 42.1831 154.388C41.8189 154.712 41.7865 155.27 42.1098 155.634C42.553 156.132 42.5114 156.218 42.8827 156.699C43.0398 156.903 43.2765 157.262 43.2701 157.574H43.2652C43.0214 157.574 42.5206 157.418 42.2127 156.945C41.9746 156.514 41.7372 156.087 41.4969 155.658C41.2588 155.233 40.7213 155.082 40.2958 155.32C39.871 155.558 39.7195 156.096 39.9577 156.521C40.1359 156.839 40.3127 157.156 40.4888 157.474C40.3599 157.503 40.1951 157.51 40.1063 157.488C39.9147 157.433 39.3948 157.019 39.1616 156.703C36.0563 152.513 33.5786 148.431 31.797 144.572C31.5927 144.129 31.0686 143.936 30.6261 144.141C30.1837 144.345 29.9907 144.869 30.195 145.312C30.6811 146.364 31.22 147.433 31.804 148.513C30.6733 148.659 29.1784 148.84 28.8149 148.905C28.314 148.994 27.9914 149.49 28.114 149.985C29.6328 156.133 31.4884 159.439 34.6374 164.75C34.8143 165.049 35.1524 165.22 35.5068 165.176C36.6854 165.027 37.8146 164.889 38.9228 164.754C32.6564 190.029 29.2489 208.178 21.7638 234.458C26.4655 235.629 31.0037 235.975 35.2116 235.778C35.1383 235.908 35.0939 236.057 35.0961 236.217C35.1024 236.757 35.1235 237.287 35.1454 237.827C35.1735 238.537 35.2031 239.27 35.1989 240.06C35.1975 240.297 35.2912 240.524 35.4589 240.691C35.6265 240.857 35.8625 240.956 36.0908 240.947C38.443 240.922 40.7086 240.986 42.6157 242.056C44.2282 242.961 45.7386 246.229 45.752 248.568C38.8918 248.397 30.0576 248.221 23.0488 248.046C23.103 246.596 23.1713 244.194 23.2587 242.683C23.2869 242.196 22.9149 241.779 22.4288 241.751C21.9512 241.732 21.525 242.094 21.4968 242.581C21.3862 244.496 21.3172 247.43 21.2495 248.864C21.2263 249.357 21.6123 249.775 22.1083 249.788C24.9149 249.859 46.5051 250.353 46.5664 250.353C46.9961 250.353 47.3653 250.042 47.4364 249.615C47.945 246.558 45.9112 241.88 43.4786 240.516C41.4617 239.384 39.1785 239.189 36.9559 239.177C36.9453 238.686 36.927 238.215 36.9087 237.756C36.8882 237.232 36.8671 236.718 36.8608 236.196C36.8587 236.004 36.7938 235.829 36.6882 235.685C38.9559 235.508 41.1201 235.177 43.1454 234.733C53.8098 208.052 61.6683 187.968 69.8973 158.275C69.8029 186.191 70.8089 208.77 75.891 236.393C76.4067 236.361 76.9562 236.329 77.5205 236.297C77.6501 242.136 77.4479 243.692 77.5247 248.267H62.0712C61.5837 248.267 61.1892 248.662 61.1892 249.149C61.1892 249.636 61.5844 250.032 62.0712 250.032H134.373C134.861 250.032 135.255 249.636 135.255 249.149C135.255 248.662 134.86 248.267 134.373 248.267H104.484C104.459 246.796 103.996 244.673 103.32 243.022C103.135 242.571 102.62 242.355 102.169 242.54C101.718 242.725 101.502 243.241 101.687 243.692C102.245 245.053 102.596 246.663 102.696 247.797C95.3304 248.287 86.7224 247.909 79.2852 248.217C79.2013 243.12 79.4218 242.417 79.2831 236.2C82.12 236.047 85.319 235.891 88.3469 235.737C88.306 235.964 88.2708 236.722 88.3236 237.246C88.3722 237.874 88.5258 238.329 88.7315 238.847C88.8245 239.082 88.9126 239.304 88.9865 239.592C89.0943 240.015 89.4938 240.298 89.9327 240.251C93.3494 239.895 97.0937 239.59 100 241.467C100.148 241.563 100.314 241.608 100.478 241.608C101.354 241.608 101.696 240.461 100.957 239.984C97.8475 237.976 94.0919 238.058 90.4596 238.422C90.2701 237.928 90.1236 237.635 90.0806 237.089C90.051 236.798 90.0545 236.429 90.0898 235.959C90.0982 235.851 90.0834 235.747 90.0552 235.648C91.7833 235.558 93.4177 235.468 94.8422 235.38C97.7982 209.116 98.4977 187.639 96.969 161.341C98.9028 161.2 100.842 160.985 102.794 160.683C103.245 160.613 103.569 160.21 103.54 159.754C102.579 144.918 102.27 129.869 102.613 115.009C106.391 119.075 111.431 122.72 115.414 126.286C116.511 127.268 118.18 127.306 119.298 126.375C130.189 117.303 138.83 106.803 144.98 95.1675C145.167 94.8137 145.093 94.3788 144.8 94.1075C141.765 91.2968 140.084 89.7527 135.295 85.3238C135.669 85.2512 135.686 85.2632 137.562 82.9875C138.671 81.6428 140.188 79.8019 140.909 79.2451C142.958 77.6622 143.586 77.4994 146.046 78.7376C146.564 78.9977 147.098 79.2662 147.439 79.6327C147.684 79.8963 147.801 80.2318 147.716 80.4305C147.577 80.7576 146.878 80.9443 146.158 80.8428C145.574 80.7618 144.294 80.0972 143.334 80.3248C141.984 80.6441 141.586 83.1616 142.309 84.1412C142.599 84.5338 143.166 84.6409 143.558 84.3519C143.95 84.0623 144.048 83.5344 143.758 83.1418C143.672 82.9283 143.742 82.3243 143.868 82.0452C144.263 82.0903 144.952 82.3623 145.575 82.5167C144.762 84.0397 145.522 85.1765 147.03 85.3964C146.96 87.0724 149.055 87.7511 149.941 86.6601C150.549 85.913 149.681 84.8692 148.837 85.3266C148.878 85.2519 148.95 85.1575 149.062 85.0609C149.929 84.3188 150.073 84.218 151.534 83.4505C152.006 83.201 152.217 83.397 152.286 83.4611C152.533 83.6916 152.677 84.2082 152.456 84.7135C152.108 85.5078 151.797 85.6389 144.637 91.4942C144.259 91.8022 144.204 92.3589 144.512 92.736C144.821 93.1145 145.377 93.1687 145.753 92.8608C152.993 86.9413 153.515 86.6946 154.072 85.4218C154.557 84.316 154.335 83.0199 153.544 82.2313C153.651 81.6611 153.539 81.0345 153.384 80.6504C153.242 80.3009 152.693 79.5016 152.024 79.0781C151.789 78.1632 151.027 77.5811 150.171 77.19C151.696 75.4358 153.246 73.5998 154.634 71.742C154.983 71.2754 155.309 70.8075 155.466 70.2211C155.978 68.3161 154.225 66.9255 152.358 67.6733C151.353 68.0771 151.265 68.34 143.273 76.1737C141.981 76.2582 140.924 77.0025 139.83 77.8482C138.422 78.9364 135.456 82.9015 134.506 83.848C134.359 83.9946 134.288 84.1814 134.266 84.3731C133.95 84.0799 133.979 84.0905 133.782 83.9939C133.417 83.4822 132.7 83.5161 132.358 83.9791C126.168 92.3477 124.706 94.345 119.301 101.653C116.741 95.9857 112.579 90.9889 110.04 85.543C109.97 85.3936 109.86 85.2667 109.721 85.1765C102.899 80.7322 95.5664 76.7255 87.927 73.2678C87.7706 71.5559 87.3254 68.0201 87.2359 66.6817C91.4177 64.8084 92.8746 58.2377 92.2448 53.6475C92.2116 53.4085 92.1588 53.183 92.0975 52.9631C94.2095 53.7137 96.6118 52.1146 96.981 50.0559C97.0718 49.5492 96.7112 49.072 96.199 49.0213C95.0183 48.9043 94.6167 48.5625 94.5843 48.4976C94.5843 48.4962 94.59 48.3433 94.8816 48.0219C95.3903 47.4616 96.1588 47.0394 96.6527 46.0943C96.883 45.6552 96.9359 44.8187 97.0507 44.3951C97.2621 44.0744 97.2459 43.641 96.9838 43.3351C96.6661 42.9644 96.1088 42.9228 95.7397 43.2393C94.7957 44.0491 94.3864 44.0779 94.2856 44.0716C94.2589 44.0695 94.2215 44.066 94.1609 43.9927C93.9806 43.66 94.3969 41.3829 92.0362 41.3039C91.5516 41.2849 91.1246 41.4428 90.7858 41.5675C89.9376 41.879 90.0559 41.7226 89.0119 41.0756C86.9872 39.8225 85.2493 40.6464 83.5684 40.8183C83.2169 40.855 82.8231 40.8338 82.4053 40.8106C81.1971 40.7457 79.6938 40.6654 78.7202 42.1222L78.7181 42.1236ZM30.0703 150.512C30.7614 150.422 32.0619 150.262 32.7332 150.17C34.1654 152.644 35.8372 155.18 37.7435 157.751C38.0929 158.226 38.9094 158.984 39.6223 159.184C39.7837 159.231 40.0063 159.264 40.2564 159.264C40.7072 159.264 41.2433 159.15 41.6752 158.837C42.6452 159.47 44.0232 159.587 44.7016 158.684C45.9704 159.264 47.3336 158.702 47.8168 157.45C48.1028 157.594 48.3973 157.674 48.708 157.674C48.8996 157.674 49.0969 157.644 49.3026 157.579C50.8912 157.081 51.1913 155.152 50.1508 153.833C48.9595 152.323 47.4498 150.411 45.9605 148.627C46.9052 148.513 47.6787 148.483 49.0151 148.416C51.0447 153.524 52.6404 155.997 54.6073 160.692C47.8316 161.971 42.6044 162.507 35.8611 163.352C33.0629 158.62 31.4349 155.645 30.071 150.512H30.0703ZM37.6871 184.884C37.9302 184.288 38.505 183.994 38.8854 183.799C39.6723 183.395 39.6421 183.262 39.1792 182.49C39.0411 182.26 38.8988 182.023 38.7974 181.757C38.5093 181.001 38.6206 180.094 39.1024 179.268C39.4969 178.59 40.0725 178.06 40.5797 177.591C40.8192 177.371 41.1912 177.386 41.411 177.624C41.6315 177.863 41.6167 178.235 41.3779 178.456C40.9094 178.888 40.4247 179.336 40.119 179.86C39.8217 180.371 39.7386 180.922 39.8971 181.337C40.1697 182.051 41.7837 183.636 39.4223 184.846C39.2771 184.92 38.7354 185.192 38.7819 185.36C39.3215 185.364 39.573 186.04 39.1602 186.394C37.4497 187.863 37.6702 188.425 37.9844 189.259C38.6008 190.9 38.5198 192.474 37.9302 193.835C37.8337 194.057 37.6174 194.19 37.3905 194.19C36.9714 194.19 36.6818 193.758 36.8509 193.367C37.3356 192.248 37.3807 191 36.8833 189.673C36.7629 189.352 36.6269 188.99 36.5959 188.586C36.5191 187.573 37.077 186.756 37.8083 186.036C37.5892 185.692 37.5392 185.249 37.6878 184.883L37.6871 184.884ZM29.0235 218.263C28.7121 218.17 28.536 217.842 28.6289 217.53L30.1112 212.58C30.2049 212.268 30.5332 212.091 30.8438 212.185C31.1552 212.278 31.3313 212.607 31.2383 212.918L29.7561 217.868C29.6624 218.18 29.3341 218.357 29.0235 218.263ZM32.7494 214.923L32.0753 217.465C31.9928 217.777 31.673 217.968 31.356 217.883C31.0418 217.8 30.8551 217.478 30.9382 217.164L31.6124 214.621C31.6955 214.306 32.0168 214.12 32.3317 214.204C32.6459 214.287 32.8326 214.609 32.7487 214.923H32.7494ZM52.317 172.406L34.2049 227.283C34.1232 227.53 33.8935 227.687 33.6462 227.687C33.2475 227.687 32.9622 227.296 33.0876 226.914L51.1997 172.037C51.3019 171.729 51.6351 171.562 51.943 171.663C52.2515 171.765 52.4192 172.098 52.317 172.407V172.406ZM73.8487 187.665L72.7835 192.307C72.7117 192.62 72.3996 192.823 72.0791 192.749C71.7621 192.677 71.5648 192.361 71.6374 192.045L72.7025 187.402C72.7758 187.086 73.0928 186.889 73.407 186.96C73.724 187.033 73.9213 187.349 73.8487 187.665ZM75.3204 192.63C75.2781 192.923 75.0266 193.133 74.7392 193.133C74.3771 193.133 74.1051 192.813 74.1559 192.46L74.3369 191.211C74.3834 190.889 74.6835 190.67 75.0034 190.712C75.3246 190.759 75.5479 191.058 75.5014 191.379L75.3204 192.629V192.63ZM149.393 79.5848C149.291 79.2402 149.114 78.9061 148.87 78.6023C149.205 78.6707 149.732 78.8969 150.075 79.1887C149.875 79.3057 149.644 79.4396 149.394 79.5848H149.393ZM150.507 81.998C149.63 82.4589 149.122 82.7295 148.418 83.2997C148.279 83.3399 148.144 83.4026 148.035 83.514C147.887 83.6634 147.349 83.7465 147.017 83.5844C147.098 83.3011 147.474 82.7782 147.808 82.5484C148.18 82.3285 150.29 81.1057 151.132 80.6152C151.346 80.7752 151.67 81.1466 151.745 81.315C151.773 81.3848 151.792 81.4764 151.806 81.5688C151.11 81.6146 150.63 81.9444 150.505 81.998H150.507ZM153.014 69.3133C153.296 69.1999 153.598 69.2309 153.704 69.3309C153.784 69.4057 153.808 69.5889 153.761 69.7658C153.498 70.744 148.52 76.4013 147.882 77.1293C147.761 77.2668 147.69 77.4352 147.67 77.6086C147.157 77.3048 146.139 76.7903 145.431 76.5303C152.644 69.4592 152.489 69.5241 153.014 69.3126L153.014 69.3133ZM87.4254 221.105C87.1154 221.105 86.8562 220.862 86.8386 220.549L84.3997 175.834C84.3821 175.509 84.6308 175.232 84.9548 175.214C85.2747 175.193 85.5564 175.446 85.5741 175.77L88.013 220.485C88.0313 220.821 87.7636 221.105 87.4247 221.105L87.4254 221.105ZM90.3173 174.282C90.5265 173.619 90.5279 172.889 90.3215 172.224C90.225 171.914 90.3983 171.584 90.709 171.488C91.0176 171.39 91.3487 171.564 91.4452 171.875C91.722 172.767 91.7199 173.748 91.4388 174.637C91.3409 174.947 91.0105 175.119 90.7005 175.021C90.3913 174.923 90.2187 174.593 90.3166 174.283L90.3173 174.282ZM91.0591 212.715L94.8084 211.785C95.124 211.706 95.4431 211.9 95.5206 212.215C95.5988 212.531 95.4065 212.85 95.0909 212.928L91.3416 213.858C91.0274 213.935 90.7076 213.745 90.6294 213.428C90.5512 213.113 90.7435 212.793 91.0584 212.716L91.0591 212.715ZM92.6062 168.735C92.5907 168.41 92.8407 168.134 93.1648 168.118C93.4938 168.101 93.765 168.352 93.7812 168.677L94.0377 173.899C94.0532 174.223 93.8031 174.499 93.479 174.515C93.1282 174.525 92.8774 174.262 92.8626 173.956L92.6062 168.735ZM95.8742 214.866C91.1888 215.789 91.441 215.753 91.3311 215.753C91.0556 215.753 90.8097 215.56 90.7548 215.279C90.6914 214.96 90.8992 214.65 91.2176 214.588L95.646 213.712C95.9665 213.647 96.2744 213.856 96.3371 214.175C96.4005 214.494 96.1927 214.803 95.8742 214.866ZM118.836 105.366C118.978 105.832 119.471 106.095 119.938 105.952C120.403 105.81 120.666 105.316 120.523 104.85C120.391 104.417 120.239 103.989 120.082 103.563C125.457 96.2973 127.486 93.5338 133.207 85.7981C136.828 89.1501 139.893 91.972 143.101 94.9406C137.081 106.134 128.696 116.25 118.169 125.019C117.719 125.394 117.04 125.374 116.59 124.971C115.173 123.702 113.661 122.454 112.06 121.132C107.94 117.732 103.68 114.216 101.149 110.35C100.882 109.942 100.336 109.828 99.9278 110.095C99.5199 110.362 99.4065 110.909 99.6728 111.317C100.148 112.043 100.679 112.752 101.25 113.45C101.021 113.605 100.872 113.871 100.864 114.169C100.496 129.07 100.787 144.168 101.726 159.059C94.1391 160.146 86.7245 159.977 79.0928 158.553C77.8509 135.206 78.5264 105.501 80.9062 78.861C83.8023 78.0963 85.7396 76.7114 87.6847 75.0982C94.9894 78.4332 102.005 82.2735 108.547 86.5205C111.574 92.8882 116.863 98.9205 118.836 105.367V105.366ZM77.6606 46.1726C77.6606 45.8477 77.9241 45.5841 78.2489 45.5841C78.5737 45.5841 78.8371 45.8477 78.8371 46.1726V46.3537C78.8357 46.6779 78.5722 46.9394 78.2489 46.9394H78.2461C77.9213 46.9379 77.6592 46.6729 77.6606 46.348V46.1726ZM80.6328 44.3965C83.0936 43.0292 86.2616 43.0532 88.7019 44.4564C89.224 44.7567 89.0077 45.5552 88.4082 45.5552C88.3088 45.5552 88.2081 45.5305 88.1158 45.4769C86.0256 44.2753 83.312 44.2548 81.2035 45.4255C80.9196 45.5827 80.561 45.4805 80.4039 45.1964C80.2461 44.9124 80.3489 44.5537 80.6328 44.3965Z" fill="black"/>
<path d="M181.312 249.775C175.649 249.757 150.587 249.674 144.939 249.655C144.482 249.654 144.111 249.281 144.113 248.824C144.114 248.367 144.485 247.998 144.941 247.998C150.604 248.017 175.666 248.099 181.314 248.118C181.77 248.12 182.141 248.492 182.14 248.949C182.138 249.406 181.767 249.775 181.312 249.775Z" fill="black"/>
<path d="M164.157 204.275C164.937 203.784 165.91 203.403 166.761 203.753C167.838 204.195 168.173 205.57 168.111 206.733C167.952 209.73 163.904 216.184 160.075 214.39C155.984 212.472 162.185 205.516 164.157 204.273V204.275Z" fill="#CCCCCC"/>
<path d="M142.302 195.239C142.411 193.741 142.882 192.041 144.251 191.425C145.733 190.758 147.838 191.577 148.727 194.193C149.524 196.539 149.001 199.005 148.479 201.347C148.214 202.54 147.991 206.828 146.755 207.036C143.218 207.631 142.155 197.255 142.302 195.239Z" fill="#CCCCCC"/>
<path d="M139.138 215.983C140.273 213.588 144.804 217.417 144.205 218.9C143.343 221.035 138.216 217.927 139.138 215.983Z" fill="#CCCCCC"/>
<path d="M153.843 231.542C153.388 231.503 153.05 231.101 153.089 230.645C153.778 222.643 155.472 213.768 162.816 208.6C163.19 208.336 163.707 208.425 163.97 208.801C164.234 209.175 164.143 209.691 163.769 209.954C156.98 214.731 155.395 223.165 154.738 230.787C154.701 231.23 154.316 231.579 153.842 231.542H153.843Z" fill="black"/>
<path d="M156.122 217.348C156.094 216.892 156.442 216.499 156.899 216.472C160.412 216.26 166.354 214.781 169.616 213.304C172.113 212.176 173.758 210.947 174.792 209.443C176.032 207.637 176.217 205.307 175.241 203.776C174.069 201.935 171.571 201.411 169.625 201.529C166.62 201.716 163.539 203.194 161.171 205.583C158.926 207.846 158.188 210.6 157.256 213.736C157.125 214.174 156.66 214.422 156.225 214.293C155.787 214.162 155.538 213.7 155.669 213.262C156.665 209.909 157.491 206.94 159.995 204.416C162.646 201.744 166.118 200.089 169.522 199.877C171.942 199.726 175.079 200.438 176.638 202.886C177.981 204.993 177.787 208.005 176.156 210.38C174.945 212.144 173.083 213.552 170.297 214.812C166.826 216.382 160.736 217.897 156.997 218.123C156.542 218.151 156.147 217.804 156.121 217.347L156.122 217.348Z" fill="black"/>
<path d="M159.291 234.407C158.897 234.176 158.762 233.669 158.993 233.273C160.439 230.798 159.374 227.571 158.022 225.559C156.396 223.14 153.952 221.19 151.944 218.91C147.145 213.466 144.794 205.915 145.653 198.709C145.707 198.255 146.119 197.932 146.573 197.984C147.026 198.038 147.351 198.45 147.298 198.904C146.493 205.648 148.695 212.718 153.187 217.814C155.232 220.136 157.632 222.008 159.397 224.635C161.093 227.161 162.254 230.975 160.423 234.109C160.194 234.502 159.687 234.637 159.289 234.407H159.291Z" fill="black"/>
<path d="M147.898 210.822H147.882C147.425 210.814 147.06 210.437 147.068 209.979C147.121 207.015 149.111 202.503 150.299 199.808C151.375 197.253 152.644 194.577 152.486 191.634C152.36 189.25 150.86 186.463 148.331 185.992C145.832 185.526 143.476 187.475 142.216 189.285C138.451 194.693 139.332 202.219 144.505 206.569C144.854 206.864 144.901 207.386 144.605 207.737C144.312 208.086 143.789 208.131 143.437 207.838C137.736 203.043 136.506 194.582 140.856 188.338C142.473 186.018 145.369 183.755 148.634 184.364C152.031 184.997 153.975 188.457 154.141 191.547C154.317 194.841 152.985 197.686 151.814 200.477C150.676 203.058 148.771 207.38 148.724 210.01C148.716 210.462 148.347 210.824 147.896 210.824L147.898 210.822Z" fill="black"/>
<path d="M154.188 231.771C153.898 230.287 151.545 226.795 149.822 224.975C147.458 222.481 145.043 220.699 142.263 218.638C141.895 218.365 141.819 217.847 142.092 217.48C142.365 217.112 142.884 217.035 143.25 217.308C146.121 219.436 148.569 221.244 151.026 223.837C152.763 225.67 155.424 229.454 155.816 231.454C155.903 231.903 155.61 232.338 155.161 232.426C154.715 232.513 154.278 232.223 154.189 231.771H154.188Z" fill="black"/>
<path d="M144.2 223.392C142.472 223.087 140.481 222.68 138.685 221.726C136.695 220.669 135.247 219.019 134.712 217.202C134.057 214.975 134.866 212.523 136.638 211.368C138.906 209.887 141.862 210.811 143.607 212.492C145.357 214.176 147.504 219.277 148.182 221.101C148.341 221.529 148.124 222.006 147.695 222.165C147.265 222.324 146.789 222.108 146.63 221.677C145.672 219.102 143.743 214.919 142.458 213.684C141.215 212.489 139.07 211.758 137.542 212.754C136.388 213.507 135.855 215.217 136.302 216.732C136.712 218.126 137.865 219.412 139.463 220.262C141.045 221.102 142.887 221.476 144.49 221.76C144.94 221.84 145.241 222.27 145.16 222.72C145.082 223.168 144.655 223.472 144.2 223.391V223.392Z" fill="black"/>
<path d="M148.867 192.393C148.834 191.09 147.983 189.805 146.795 189.267C146.378 189.079 146.193 188.589 146.381 188.172C146.57 187.755 147.06 187.57 147.478 187.758C149.252 188.56 150.476 190.406 150.524 192.353C150.535 192.809 150.173 193.19 149.717 193.201C149.275 193.218 148.879 192.861 148.868 192.393H148.867Z" fill="black"/>
<path d="M149.4 195.982C148.967 195.835 148.735 195.366 148.881 194.933L148.98 194.641C149.125 194.208 149.595 193.975 150.029 194.122C150.462 194.269 150.695 194.738 150.548 195.171L150.45 195.463C150.305 195.895 149.836 196.128 149.4 195.982Z" fill="black"/>
<path d="M137.779 217.974C137.068 216.99 136.851 215.66 137.218 214.504C137.355 214.069 137.816 213.824 138.257 213.963C138.694 214.1 138.936 214.566 138.799 215.001C138.588 215.67 138.713 216.437 139.123 217.003C139.391 217.374 139.308 217.891 138.937 218.16C138.569 218.426 138.05 218.347 137.78 217.974H137.779Z" fill="black"/>
<path d="M167.091 211.786C166.906 211.368 167.093 210.878 167.511 210.693C168.462 210.269 169.46 209.799 170.302 209.142C172.353 207.533 172.456 205.481 171.496 204.444C171.184 204.109 171.204 203.585 171.54 203.274C171.873 202.963 172.399 202.982 172.71 203.317C174.332 205.066 174.162 208.22 171.323 210.443C170.333 211.218 169.184 211.759 168.184 212.205C167.768 212.391 167.277 212.205 167.091 211.786Z" fill="black"/>
<path d="M174.407 229.333C174.388 228.89 174.022 228.541 173.579 228.541H137.527C137.083 228.541 136.718 228.892 136.699 229.335C136.687 229.614 136.674 229.886 136.674 230.148C136.674 240.558 145.144 249.025 155.553 249.025C165.962 249.025 174.432 240.556 174.432 230.148C174.432 229.868 174.418 229.595 174.407 229.333ZM151.126 244.384C146.277 242.706 142.172 238.891 140.145 234.177C140.025 233.896 140.154 233.572 140.435 233.452C140.714 233.332 141.04 233.461 141.16 233.742C143.065 238.176 146.926 241.764 151.487 243.341C152.166 243.576 151.83 244.625 151.125 244.385L151.126 244.384ZM157.182 244.463L154.932 244.566C154.613 244.577 154.37 244.332 154.356 244.039C154.341 243.735 154.578 243.476 154.883 243.462L157.132 243.359C157.413 243.353 157.695 243.581 157.709 243.886C157.723 244.192 157.486 244.449 157.182 244.463Z" fill="black"/>
<path d="M148.933 172.239C148.821 172.716 149.115 173.186 149.586 173.298C159.105 175.528 155.847 174.754 156.544 174.929L161.979 175.717C161.867 176.282 161.814 176.859 161.809 177.453C161.785 180.925 163.603 183.979 166.343 185.703C166.343 185.707 166.345 185.711 166.349 185.715C169.674 187.778 173.971 187.762 176.937 186.216C179.148 185.056 180.878 182.89 181.225 180.42C181.331 179.672 181.295 178.901 181.137 178.16C181.149 177.972 181.166 177.777 181.172 177.583C181.184 176.254 180.919 174.959 180.413 173.764C180.513 173.706 180.613 173.629 180.713 173.558C182.872 171.952 184.019 169.904 184.031 167.638C184.101 166.979 184.16 166.314 184.219 165.655C184.26 165.172 183.896 164.743 183.413 164.702C182.93 164.66 182.501 165.019 182.46 165.508C182.401 166.173 182.342 166.838 182.272 167.497C182.272 169.459 181.228 170.973 179.66 172.14C179.637 172.157 179.613 172.175 179.583 172.193C175.129 165.582 165.292 166.745 162.467 174.005L156.832 173.187L149.991 171.581C149.515 171.469 149.038 171.763 148.932 172.24L148.933 172.239ZM173.149 170.479C173.279 170.179 173.62 170.038 173.92 170.161C175.9 170.974 177.39 172.768 177.891 174.822C177.965 175.103 177.791 175.459 177.455 175.528C177.305 175.566 177.159 175.54 177.026 175.47C176.633 175.24 176.835 174.936 176.285 173.852C175.685 172.692 174.685 171.745 173.473 171.25C173.173 171.127 173.026 170.78 173.15 170.479H173.149ZM170.326 173.145C170.326 172.656 170.726 172.268 171.208 172.268H171.214C171.702 172.274 172.09 172.668 172.09 173.157C172.09 173.217 172.065 176.533 172.067 176.328C172.126 176.328 174.789 176.347 174.62 176.346C175.102 176.346 175.496 176.746 175.496 177.235C175.49 177.717 175.096 178.111 174.614 178.111H174.608L172.055 178.094L172.038 180.983C172.032 181.472 171.638 181.86 171.156 181.86H171.15C170.662 181.86 170.268 181.46 170.274 180.971L170.291 178.082L167.745 178.064C166.855 178.054 166.556 176.912 167.262 176.452C167.57 176.233 167.651 176.295 170.303 176.316L170.315 174.821L170.327 173.144L170.326 173.145Z" fill="black"/>
<path d="M132.486 168.167C134.798 171.412 142.994 172.262 144.613 172.399C145.087 172.442 145.525 172.087 145.567 171.594C145.608 171.108 145.248 170.681 144.763 170.64C140.484 170.277 135.267 169.028 133.924 167.143C132.522 165.176 132.751 163.734 132.705 161.406C132.451 149.063 132.911 149.594 132.93 147.975C132.932 147.821 132.944 147.672 132.944 147.668C133.187 144.423 136.638 141.577 141.02 141.038L152.196 139.156C152.676 139.075 153 138.619 152.919 138.139C152.838 137.658 152.382 137.333 151.903 137.415L140.766 139.291C135.938 139.884 131.237 143.329 131.166 147.919C130.621 153.802 130.958 159.686 130.945 162.416C130.942 163.269 131.147 166.287 132.486 168.167L132.486 168.167Z" fill="black"/>
<path d="M154.672 137.962C154.731 138.446 155.171 138.792 155.655 138.731L166.612 137.386C171.98 136.728 177.279 137.917 180.114 140.416C181.485 141.626 182.184 143.023 182.19 144.572C182.19 145.064 183.207 152.934 182.642 162.859C182.614 163.346 182.986 163.764 183.472 163.791C183.974 163.816 184.376 163.435 184.404 162.96C184.738 157.088 184.587 150.885 183.954 144.522C183.934 142.493 183.01 140.617 181.281 139.093C178.035 136.231 172.332 134.906 166.398 135.634L155.441 136.98C154.957 137.039 154.613 137.48 154.673 137.964L154.672 137.962Z" fill="black"/>
<path d="M152.721 149.464C152.711 148.977 152.324 148.571 151.821 148.6L135.854 148.926C135.367 148.936 134.979 149.339 134.99 149.827C135.001 150.333 135.432 150.712 135.89 150.691L151.857 150.365C152.344 150.355 152.732 149.952 152.721 149.464Z" fill="black"/>
<path d="M151.269 155.312C151.262 154.825 150.836 154.425 150.375 154.44C145.991 154.496 141.553 154.344 137.182 153.991C136.694 153.952 136.27 154.314 136.231 154.8C136.192 155.286 136.554 155.711 137.04 155.751C140.87 156.06 144.752 156.217 148.605 156.217C149.204 156.217 149.801 156.213 150.398 156.206C150.885 156.199 151.275 155.8 151.269 155.312H151.269Z" fill="black"/>
<path d="M147.79 159.443C145.547 159.709 143.267 159.752 141.017 159.572C140.524 159.532 140.105 159.895 140.066 160.381C140.028 160.867 140.39 161.292 140.875 161.332C141.831 161.408 142.792 161.447 143.753 161.447C145.172 161.447 146.591 161.363 147.997 161.196C148.481 161.139 148.826 160.7 148.769 160.216C148.711 159.732 148.272 159.387 147.789 159.444L147.79 159.443Z" fill="black"/>
<path d="M156.535 162.359L158.402 162.534C162.18 162.89 165.751 163.227 172.894 163.483C172.905 163.483 172.916 163.483 172.927 163.483C173.348 163.483 173.705 163.185 173.79 162.782C174.116 162.262 173.729 162.911 173.586 154.052C173.461 146.33 173.21 145.418 173.147 144.343C173.091 143.772 172.514 143.401 171.966 143.6C171.188 143.808 160.132 146.264 156.207 146.949C155.765 147.026 155.452 147.422 155.478 147.871C155.597 149.903 155.602 152.349 155.606 154.713C155.611 157.072 155.615 159.509 155.734 161.532C155.761 161.968 156.101 162.319 156.535 162.359L156.535 162.359ZM157.412 159.278C157.377 157.82 157.374 156.248 157.371 154.711C157.368 153.096 157.364 151.447 157.325 149.902C158.912 151.094 160.61 152.445 162.312 153.862C160.639 155.637 159.005 157.444 157.413 159.278H157.412ZM158.458 160.766C160.147 158.812 161.883 156.888 163.663 155.002C166.29 157.241 168.844 159.569 170.927 161.64C165.153 161.397 161.944 161.095 158.568 160.777L158.459 160.767L158.458 160.766ZM171.59 147.106C171.742 149.532 171.785 151.839 171.822 154.08C171.856 156.172 171.892 158.179 172.01 160.228C169.946 158.187 167.448 155.912 164.879 153.72C167.06 151.452 169.303 149.246 171.59 147.106ZM170.438 145.766C168.081 147.969 165.772 150.242 163.527 152.579C161.716 151.067 159.904 149.626 158.222 148.368C160.811 147.862 164.362 147.1 166.004 146.744C167.697 146.376 169.268 146.03 170.438 145.766Z" fill="black"/>
<path d="M178.989 27.2823C182.079 27.2823 184.593 24.5647 184.593 21.2233C184.593 17.882 182.079 15.165 178.989 15.165C175.9 15.165 173.385 17.8827 173.385 21.2233C173.385 24.564 175.9 27.2823 178.989 27.2823Z" fill="black"/>
<path d="M148.27 18.5483C150.339 18.8204 152.244 20.3075 153.012 22.2492C153.367 23.1463 154.704 22.8975 154.715 21.9348C154.74 19.7683 156.332 17.7005 158.421 17.1254C158.89 16.9957 159.166 16.5101 159.037 16.04C158.907 15.5699 158.422 15.2944 157.952 15.4233C155.915 15.9851 154.227 17.5983 153.436 19.5534C152.205 18.0719 150.43 17.0528 148.499 16.7984C148.017 16.7342 147.573 17.0747 147.51 17.5588C147.446 18.0423 147.786 18.4856 148.27 18.5491V18.5483Z" fill="black"/>
<path d="M186.426 10.3189C188.198 10.9828 189.799 12.1753 190.946 13.6835C190.974 13.723 191.004 13.7625 191.035 13.8012C191.336 14.1776 191.882 14.2424 192.262 13.9492C192.643 13.6553 192.719 13.1105 192.433 12.7243C192.414 12.6982 192.394 12.6722 192.374 12.6461C192.046 12.164 192.225 11.3782 192.602 10.8729C193.12 10.178 193.978 9.71914 194.807 9.27583C195.236 9.04607 195.398 8.51114 195.169 8.08123C194.94 7.65131 194.405 7.48851 193.975 7.71897C192.548 8.48154 191.2 9.2864 190.657 10.8172C189.588 9.89533 188.356 9.15672 187.044 8.66549C186.588 8.49423 186.08 8.7261 185.908 9.1828C185.737 9.6395 185.969 10.1476 186.426 10.3189Z" fill="black"/>
<path d="M253.302 40.9844C245.109 40.9844 238.444 47.8299 238.444 56.2443C238.444 64.6587 245.109 71.5042 253.302 71.5042C261.494 71.5042 268.159 64.6587 268.159 56.2443C268.159 47.8299 261.494 40.9844 253.302 40.9844ZM253.302 69.738C246.082 69.738 240.209 63.6847 240.209 56.2436C240.209 48.8025 246.082 42.7491 253.302 42.7491C260.521 42.7491 266.395 48.8025 266.395 56.2436C266.395 63.6847 260.521 69.738 253.302 69.738Z" fill="black"/>
<path d="M234.935 48.9404H204.117V53.6011H234.935V48.9404Z" fill="black"/>
<path d="M229.38 58.6191H210.388V63.2799H229.38V58.6191Z" fill="black"/>
<path d="M202.164 36.971C202.186 37.4439 202.577 37.8118 203.044 37.8118C203.087 37.8118 226.747 36.6841 274.025 34.4288C274.512 34.4056 274.887 33.9919 274.865 33.5049C274.841 33.0179 274.437 32.6457 273.941 32.6648L203.003 36.047C202.516 36.0703 202.141 36.484 202.163 36.971H202.164Z" fill="black"/>
<path d="M194.174 92.675V76.0957C190.745 78.3602 187.446 80.8198 184.298 83.4614L194.155 92.6728L194.174 92.6743V92.675Z" fill="black"/>
<path d="M175.633 89.9043C177.838 87.6447 180.141 85.4825 182.534 83.4231L175.633 76.9736V89.9043Z" fill="black"/>
<path d="M176.103 91.1028L192.256 92.5081L183.399 84.2305C180.862 86.4075 178.425 88.6995 176.103 91.1028Z" fill="black"/>
<path d="M183.431 82.6551C186.714 79.8923 190.159 77.3241 193.745 74.9688L176.785 76.4439L183.431 82.6551Z" fill="black"/>
<path d="M229.186 75.7549L211.841 77.2638C214.514 79.2943 217.124 81.4227 219.662 83.6379L229.186 75.7556V75.7549Z" fill="black"/>
<path d="M229.382 92.9388V77.1221L220.566 84.4194C223.608 87.118 226.539 89.9406 229.339 92.8697C229.359 92.8901 229.366 92.9162 229.382 92.9388Z" fill="black"/>
<path d="M210.839 90.9436L218.747 84.3983C216.182 82.1648 213.543 80.0187 210.839 77.9756V90.9443V90.9436Z" fill="black"/>
<path d="M219.651 85.1787L211.499 91.9256L228.196 93.3781C225.465 90.5379 222.611 87.7984 219.651 85.1787H219.651Z" fill="black"/>
<path d="M264.134 77.1208L246.971 78.6135C249.788 80.7511 252.561 82.9007 255.264 85.1447C258.287 82.5349 261.25 79.854 264.134 77.1201L264.134 77.1208Z" fill="black"/>
<path d="M246.048 92.7526C246.056 92.7456 246.06 92.735 246.069 92.7279C248.871 90.5269 251.639 88.2519 254.363 85.9226C251.655 83.6793 248.873 81.5276 246.048 79.3857V92.7526Z" fill="black"/>
<path d="M255.282 86.6836C252.633 88.9523 249.942 91.1674 247.219 93.3156L263.867 94.7639C261.141 91.8546 258.264 89.1975 255.281 86.6836H255.282Z" fill="black"/>
<path d="M264.59 78.3135C261.853 80.8979 259.049 83.4351 256.188 85.9089C259.1 88.37 261.913 90.9749 264.59 93.8187V78.3135Z" fill="black"/>
<path d="M252.237 53.7797C254.086 53.7797 255.585 52.2799 255.585 50.4299C255.585 48.5798 254.086 47.0801 252.237 47.0801C250.388 47.0801 248.889 48.5798 248.889 50.4299C248.889 52.2799 250.388 53.7797 252.237 53.7797Z" fill="black"/>
<path d="M252.588 55.3369C246.826 55.3369 242.983 59.5691 243.871 63.702H261.303C262.199 59.5318 258.292 55.3369 252.587 55.3369H252.588Z" fill="black"/>
<path d="M244.977 31.6109C246.148 31.3304 246.974 30.0329 246.732 28.8524C246.488 27.6719 245.218 26.805 244.031 27.0108L243.742 27.0799C242.591 27.4337 241.849 28.7812 242.166 29.9441C242.483 31.107 243.805 31.8914 244.977 31.6109H244.977Z" fill="black"/>
<path d="M254.622 30.5279C255.793 30.2481 256.619 28.9499 256.377 27.7694C256.134 26.5889 254.863 25.722 253.676 25.9278L253.387 25.9968C252.236 26.3506 251.494 27.6982 251.811 28.8611C252.128 30.024 253.45 30.8084 254.622 30.5279H254.622Z" fill="black"/>
<path d="M264.056 29.9175C265.228 29.6377 266.053 28.3395 265.811 27.159C265.568 25.9785 264.298 25.1116 263.111 25.3174L262.822 25.3865C261.67 25.7403 260.928 27.0878 261.245 28.2507C261.562 29.4136 262.885 30.198 264.057 29.9175H264.056Z" fill="black"/>
<path d="M165.786 111.719V83.6099C165.786 83.1222 165.391 82.7275 164.904 82.7275C164.417 82.7275 164.022 83.1229 164.022 83.6099V111.719C164.022 112.206 164.417 112.601 164.904 112.601C165.391 112.601 165.786 112.206 165.786 111.719Z" fill="black"/>
<path d="M227.101 23.1331C227.137 22.1697 227.33 21.0907 227.29 20.1836C226.107 19.3393 224.924 18.495 223.741 17.65C223.57 17.2489 223.164 17.0579 222.777 17.1263C216.93 18.1743 212.972 19.1152 206.615 20.4317C206.196 20.5184 205.9 20.8926 205.911 21.3197L206.018 25.2834L200.705 25.8254V5.8343C200.705 2.78119 198.018 0.42934 194.997 0.824722L145.999 7.25866C143.495 7.5878 141.606 9.7409 141.606 12.2682V50.8388C141.606 53.3654 143.495 55.5192 145.999 55.8484L164.024 58.215L164.019 77.4203C164.019 77.908 164.414 78.3034 164.901 78.3034C165.388 78.3034 165.783 77.908 165.783 77.421L165.788 58.4469C181.985 60.6056 180.351 60.409 180.614 60.3935C195.625 62.3493 195.044 62.3246 195.654 62.3246C198.45 62.3246 200.705 60.0538 200.705 57.272V27.6C200.765 27.5937 270.828 20.45 271.952 20.3316C273.951 20.1695 275.787 21.5988 275.808 23.63C275.806 130.855 275.818 126.851 275.794 127.13C275.658 128.876 274.003 130.357 271.88 130.165L174.204 120.518C173.72 120.473 173.288 120.825 173.24 121.31C173.192 121.795 173.546 122.227 174.031 122.275L211.168 125.942V139.848C209.263 140.173 207.808 141.832 207.808 143.828C207.808 146.056 209.621 147.869 211.848 147.869C214.076 147.869 215.888 146.056 215.888 143.828C215.888 141.975 214.634 140.414 212.932 139.938V126.116C253.305 130.096 271.813 131.948 272.274 131.948C272.735 131.948 273.233 131.889 273.709 131.76C273.714 131.758 273.718 131.756 273.724 131.755C276.245 131.397 278.693 129.55 279.928 127.215C281.724 123.82 281.647 119.781 281.537 115.941C280.712 87.3168 280.426 58.6773 280.681 30.0428C280.752 21.954 278.29 17.2729 270.204 18.7367C266.556 19.1088 229.273 22.9097 227.101 23.1317L227.101 23.1331ZM143.37 12.2682C143.37 10.624 144.599 9.22289 146.228 9.00934L195.226 2.5754C197.199 2.31815 198.939 3.85528 198.939 5.8343C198.85 60.1905 199.155 57.3524 198.7 58.4899C192.923 49.2904 187.698 41.5843 182.749 34.9699C182.426 34.5379 181.811 34.5055 181.437 34.8565L174.201 41.6773C176.076 46.8631 178.643 53.0335 180.835 57.549C180.976 57.8415 180.855 58.1932 180.563 58.3355C180.272 58.4772 179.919 58.3567 179.777 58.0635C177.355 53.075 174.478 46.0794 172.566 40.587C170.316 35.8136 168.475 31.8689 166.617 28.0321C166.366 27.5141 165.691 27.3703 165.252 27.7438C158.018 33.8888 149.976 44.7925 143.681 52.2039C143.086 50.9156 143.49 52.6529 143.369 12.269L143.37 12.2682Z" fill="black"/>
<path d="M267.165 119.237L268.104 104.389L175.835 101.422L175.258 110.545L267.165 119.237ZM240.283 112.801C227.427 112.13 215.542 111.725 201.836 110.65C201.512 110.624 201.27 110.341 201.295 110.017C201.321 109.692 201.61 109.455 201.928 109.476C215.591 110.548 227.77 110.968 240.345 111.626C240.669 111.643 240.918 111.92 240.901 112.244C240.884 112.573 240.602 112.819 240.283 112.801H240.283ZM180.049 103.918C206.547 105.078 233.693 107.059 260.408 108.31C260.733 108.325 260.984 108.601 260.968 108.925C260.953 109.233 260.7 109.496 260.353 109.485C233.632 108.234 206.487 106.254 179.998 105.094C179.673 105.08 179.422 104.805 179.436 104.48C179.45 104.155 179.732 103.915 180.05 103.918H180.049Z" fill="black"/>
<path d="M57.6813 42.8755L61.8137 47.5066C61.9842 47.6976 62.2251 47.8012 62.4724 47.8012C62.9345 47.8012 63.3234 47.4418 63.353 46.9738L63.6101 42.891C63.663 42.891 63.4185 42.891 64.1272 42.8924C66.409 42.8924 68.3069 41.0452 68.4506 38.6842L69.1988 26.7015C69.3481 24.3257 67.6123 22.1747 65.3277 21.9076L43.2303 19.3267C40.4589 19.0046 37.9488 20.9603 37.8678 23.7781C37.741 28.3937 37.4719 33.392 37.35 38.0167C37.2739 40.733 39.5416 42.8382 42.2335 42.8403L57.6813 42.8748V42.8755ZM48.9971 33.7408C49.0197 33.4166 49.2966 33.1756 49.6248 33.1946L60.3787 33.9466C60.7028 33.9692 60.9472 34.2504 60.9247 34.5746C60.9028 34.8875 60.6358 35.1412 60.297 35.1208L49.5431 34.3688C49.2191 34.3463 48.9746 34.065 48.9971 33.7408ZM46.175 25.38L62.2871 27.6233C62.6091 27.6677 62.8331 27.9652 62.7887 28.2872C62.7436 28.6122 62.4414 28.8349 62.1251 28.7891L46.013 26.5457C45.691 26.5013 45.467 26.2039 45.5114 25.8818C45.5558 25.5597 45.8545 25.3328 46.175 25.38Z" fill="black"/>
<path d="M198.56 181.468C198.565 181.864 198.881 182.189 199.277 182.206C206.805 182.526 214.382 182.802 221.83 181.679C222.178 181.627 222.549 181.559 222.797 181.31C223.066 181.041 223.119 180.628 223.15 180.248C223.37 177.546 223.217 174.814 222.696 172.154C222.667 174.418 222.637 176.681 222.608 178.945C222.594 180.007 222.288 180.29 221.277 180.32C213.999 180.532 206.717 180.581 199.436 180.468C199.28 175.213 199.265 169.955 199.391 164.7C199.337 165.452 198.444 171.735 198.561 181.468L198.56 181.468Z" fill="#CCCCCC"/>
<path d="M218.724 169.487V168.706C218.034 168.883 217.329 169.006 216.618 169.059C215.991 169.106 214.987 168.874 214.441 169.085C214.561 169.563 215.231 169.875 215.672 169.987C216.656 170.237 218.015 169.918 218.973 169.585V169.487H218.723H218.724Z" fill="#CCCCCC"/>
<path d="M220.888 167.932C221.123 168.191 221.041 168.458 221.059 168.596C222.001 168.009 222.851 167.276 223.549 166.413C222.711 166.999 221.818 167.509 220.888 167.932Z" fill="#CCCCCC"/>
<path d="M209.897 151.835H199.374C198.887 151.835 198.492 152.23 198.492 152.717V180.714C198.492 181.201 198.887 181.596 199.374 181.596H222.523C223.01 181.596 223.405 181.201 223.405 180.714V167.318L224.389 166.62L232.094 160.9C231.812 160.582 230.931 157.823 227.665 155.115C227.589 155.056 227.542 154.98 227.507 154.898L223.405 158.057V152.716C223.405 152.229 223.01 151.834 222.523 151.834H214.862C214.375 151.834 213.98 152.229 213.98 152.716C213.98 153.203 214.375 153.599 214.862 153.599H221.641V159.324L216.32 163.136C218.025 164.996 219.437 167.09 220.508 169.374L221.641 168.57V179.831H200.257V153.6H209.897C210.384 153.6 210.779 153.205 210.779 152.718C210.779 152.231 210.384 151.835 209.897 151.835V151.835Z" fill="black"/>
<path d="M206.482 172.773H211.543C212.031 172.773 212.425 172.377 212.425 171.89C212.425 171.403 212.03 171.008 211.543 171.008H206.482C205.995 171.008 205.6 171.403 205.6 171.89C205.6 172.377 205.995 172.773 206.482 172.773Z" fill="black"/>
<path d="M214.911 159.481H202.253C201.765 159.481 201.371 159.877 201.371 160.364C201.371 160.851 201.766 161.246 202.253 161.246H214.911C215.399 161.246 215.793 160.851 215.793 160.364C215.793 159.877 215.398 159.481 214.911 159.481Z" fill="black"/>
<path d="M210.487 166.776C210.975 166.776 211.369 166.38 211.369 165.893C211.369 165.406 210.974 165.011 210.487 165.011H206.013C205.525 165.011 205.131 165.406 205.131 165.893C205.131 166.38 205.526 166.776 206.013 166.776H210.487Z" fill="black"/>
<path d="M233.022 160.204C234.72 158.956 235.073 156.576 233.818 154.891C232.594 153.245 230.242 152.879 228.551 154.091L228.402 154.206C228.47 154.276 231.27 156.349 233.022 160.204Z" fill="black"/>
<path d="M214.99 169.669C215.002 169.669 215.019 169.669 215.031 169.664C216.295 169.603 217.704 169.665 219.319 169.634C218.348 167.615 217.096 165.756 215.589 164.091L214.148 168.51C213.961 169.098 214.396 169.669 214.989 169.669H214.99Z" fill="black"/>
<path d="M0.50293 249.899C0.50293 250.387 0.898142 250.781 1.38494 250.781H19.0279C19.5154 250.781 19.9099 250.386 19.9099 249.899C19.9099 249.412 19.5147 249.017 19.0279 249.017H1.38494C0.897438 249.017 0.50293 249.412 0.50293 249.899Z" fill="black"/>
<path d="M288.457 33.9994C289.058 34.0939 289.638 33.683 289.733 33.0642C291.298 22.9244 286.169 12.3046 277.255 7.23175C276.719 6.92609 276.035 7.11385 275.73 7.65072C275.424 8.18753 275.612 8.87084 276.148 9.17641L276.149 9.17643C284.14 13.7245 288.926 23.6322 287.522 32.7229C287.427 33.3341 287.846 33.9048 288.457 33.9994ZM288.457 33.9994C288.457 33.9994 288.456 33.9994 288.456 33.9993L288.493 33.7661L288.457 33.9994C288.457 33.9994 288.457 33.9994 288.457 33.9994Z" fill="#E99950" stroke="#E99950" stroke-width="0.472222"/>
<path d="M292.5 21.0049L292.5 21.005C292.55 21.5883 293.038 22.0286 293.614 22.0286C294.275 22.0286 294.784 21.4619 294.729 20.8146C294.372 16.6454 292.46 12.5721 289.48 9.6353L289.48 9.63518C289.04 9.20192 288.332 9.20738 287.899 9.64673L287.899 9.64673L287.898 9.64708C287.465 10.0873 287.47 10.7955 287.91 11.2289L287.91 11.229C290.515 13.7958 292.189 17.3602 292.5 21.0049Z" fill="#E99950" stroke="#E99950" stroke-width="0.472222"/>
<path d="M222.625 229.119L222.625 229.119C237.336 218.947 249.043 204.178 255.589 187.536L222.625 229.119ZM222.625 229.119C222.082 229.495 221.941 230.241 222.32 230.789L222.321 230.789M222.625 229.119L222.321 230.789M257.824 188.414L257.824 188.414C251.104 205.497 239.09 220.653 223.991 231.094L257.824 188.414ZM257.824 188.414C258.066 187.798 257.763 187.1 257.146 186.857C256.53 186.615 255.832 186.918 255.59 187.535L257.824 188.414ZM222.321 230.789C222.698 231.334 223.445 231.472 223.991 231.094L222.321 230.789Z" fill="#1B4071" stroke="#1B4071" stroke-width="0.708333"/>
<path d="M245.03 219.239L245.03 219.24C244.565 219.714 244.573 220.473 245.043 220.937L245.044 220.938C245.516 221.4 246.274 221.396 246.74 220.925L246.741 220.924C250.591 217.016 253.737 212.274 255.841 207.208C256.097 206.597 255.804 205.896 255.194 205.64L255.194 205.64L255.193 205.64C254.581 205.386 253.879 205.677 253.625 206.288L253.625 206.288C251.639 211.071 248.666 215.551 245.03 219.239Z" fill="#1B4071" stroke="#1B4071" stroke-width="0.708333"/>
<path d="M36.3954 65.8183C37.049 65.7055 37.4867 65.0842 37.374 64.4311L37.3737 64.4297C37.2589 63.7797 36.6259 63.3352 35.9846 63.453C21.4007 65.9749 10.6994 78.6836 10.6437 93.4363L10.6437 93.4365C10.6417 94.0847 11.1511 94.6127 11.7913 94.6403C11.8065 94.6424 11.822 94.6435 11.8377 94.6436C12.4947 94.6468 13.0414 94.1164 13.0433 93.4477C13.0945 79.8097 23.0013 68.1339 36.3954 65.8183ZM36.3954 65.8183L36.3352 65.4693M36.3954 65.8183L36.3352 65.4693M36.3352 65.4693C22.7721 67.8141 12.741 79.6362 12.6892 93.4464L10.9979 93.4376C11.0529 78.8558 21.6317 66.2934 36.0469 63.8017C36.4922 63.7189 36.9437 64.0309 37.025 64.4913C37.1045 64.9519 36.7958 65.3898 36.3352 65.4693Z" fill="#CF3245" stroke="#CF3245" stroke-width="0.708333" stroke-linejoin="round"/>
<path d="M4.4358 76.563C4.2526 77.2013 4.62068 77.8641 5.25602 78.0482L5.25597 78.049C5.89465 78.2322 6.55789 77.8637 6.74157 77.2277L6.74162 77.2275C8.31088 71.7818 12.2845 67.0315 17.3691 64.5272C17.964 64.235 18.2101 63.5149 17.915 62.9196L17.5977 63.0769L17.9154 62.9204C17.6233 62.3273 16.9098 62.0818 16.31 62.3736L16.3084 62.3744C10.6256 65.1746 6.18969 70.4748 4.4359 76.5627L4.4358 76.563Z" fill="#CF3245" stroke="#CF3245" stroke-width="0.708333"/>
</svg>
