<svg width="142" height="45" viewBox="0 0 142 45" fill="none" xmlns="http://www.w3.org/2000/svg">
<path fill-rule="evenodd" clip-rule="evenodd" d="M23.0072 22.8062C23.1438 27.0984 24.8384 31.3552 28.1019 34.6136C24.9406 31.5024 19.8233 31.5259 16.6855 34.6361L16.6629 34.6587L15.1618 36.1574C14.9683 36.3507 14.7413 36.4409 14.479 36.4301C14.2285 36.4301 13.9898 36.3507 13.7972 36.1574L11.1025 33.4895L8.43041 30.7981C8.38522 30.753 8.34003 30.7079 8.30565 30.651C8.27225 30.5941 8.23688 30.5372 8.22608 30.4803C8.19169 30.4234 8.18088 30.3665 8.1691 30.3096C8.12391 30.0595 8.1691 29.8094 8.31744 29.5946C8.34003 29.5495 8.37442 29.4926 8.41961 29.4475L8.4422 29.4249L9.9433 27.9262L9.9659 27.9036C13.2294 24.6453 17.5048 22.9425 21.8028 22.8062C22.2007 22.7944 22.6093 22.7944 23.0082 22.8062H23.0072Z" fill="#EB8950"/>
<path fill-rule="evenodd" clip-rule="evenodd" d="M31.0137 8.25119L36.3805 13.6095L36.4031 13.6321C36.4827 13.7341 36.5505 13.8253 36.5966 13.9391C36.6084 13.9509 36.6084 13.9734 36.6192 14.0078C36.6536 14.1098 36.6762 14.201 36.6654 14.303C36.6654 14.4844 36.5966 14.6659 36.5063 14.8248C36.4719 14.8817 36.4267 14.9268 36.3815 14.9729L35.6427 15.7331L34.8696 16.4824C34.8352 16.5168 34.79 16.5619 34.7556 16.6188L34.733 16.6413C31.4813 19.8202 27.2737 21.4779 23.0101 21.6024C22.6122 21.6358 22.2026 21.6368 21.7929 21.6142C21.6682 17.3112 19.9617 13.0652 16.71 9.81857L15.2207 8.30807L16.71 9.79503C19.8606 12.9171 24.9543 12.9171 28.1156 9.8068L29.6619 8.26296C29.7071 8.21784 29.7533 8.17174 29.8103 8.13839C29.8554 8.09327 29.9242 8.06973 29.9802 8.05894C30.0942 8.01382 30.2081 7.99028 30.3329 7.97949C30.4468 7.97949 30.5824 8.00205 30.6964 8.04815C30.8103 8.09327 30.9243 8.16193 31.0147 8.25217L31.0137 8.25119Z" fill="#1B4071"/>
<path fill-rule="evenodd" clip-rule="evenodd" d="M34.7313 16.6416C31.7173 19.7862 31.7634 24.8042 34.8452 27.9037L36.3463 29.4024C36.3915 29.4475 36.4377 29.4936 36.4711 29.5505C36.5958 29.7437 36.642 29.9477 36.6184 30.1743C36.5841 30.3901 36.4819 30.6059 36.3227 30.7648L30.9893 36.1123L30.9775 36.1241C30.8862 36.2153 30.7732 36.283 30.6592 36.3281C30.5453 36.3732 30.4097 36.3968 30.2957 36.3968C30.0452 36.3968 29.7839 36.2948 29.6022 36.1133L28.1011 34.6146C24.8375 31.3562 23.1429 27.0994 23.0064 22.8072C22.9946 22.4099 22.9838 22.0127 23.0064 21.6037C27.27 21.4791 31.4776 19.8215 34.7293 16.6426L34.7313 16.6416Z" fill="#018076"/>
<path fill-rule="evenodd" clip-rule="evenodd" d="M15.2168 8.30837L16.7062 9.81887C19.9579 13.0655 21.6633 17.3125 21.7891 21.6145C21.8117 22.0009 21.8225 22.3982 21.8009 22.8062C17.5029 22.9426 13.2265 24.6453 9.96398 27.9037C13.0909 24.7816 13.0909 19.6724 9.98658 16.5278L8.46288 15.0066C8.4285 14.9722 8.38331 14.9271 8.36071 14.882C8.29293 14.7682 8.24675 14.6554 8.21237 14.5299C8.20058 14.473 8.20058 14.4053 8.20156 14.3366C8.20156 14.1552 8.24675 13.9737 8.34892 13.8031C8.38232 13.7462 8.4285 13.701 8.47369 13.6559L11.1458 10.9655L12.0329 10.0798L13.8297 8.30935C13.978 8.16124 14.1598 8.071 14.3307 8.03667C14.3995 8.03667 14.4555 8.0249 14.5243 8.0249C14.649 8.03667 14.7738 8.04746 14.8877 8.09356C15.0017 8.13868 15.1147 8.20734 15.2178 8.30935L15.2168 8.30837Z" fill="#CF3245"/>
<path fill-rule="evenodd" clip-rule="evenodd" d="M19.3893 41.714L21.6194 43.9317C22.0546 44.3643 22.7589 44.3633 23.1922 43.9288L25.3947 41.7199C26.5746 40.537 26.4636 38.5351 25.0853 37.5906C25.0666 37.5778 25.0489 37.5651 25.0302 37.5533C23.4584 36.5048 21.3394 36.496 19.7587 37.5307C19.742 37.5415 19.7243 37.5533 19.7076 37.5641C18.3097 38.5028 18.1947 40.5272 19.3884 41.714H19.3893Z" fill="#EB8950"/>
<path fill-rule="evenodd" clip-rule="evenodd" d="M41.9406 19.2035L44.1618 21.43C44.5951 21.8645 44.5941 22.5678 44.1589 23.0003L41.9465 25.1994C40.7618 26.3774 38.7567 26.2665 37.8106 24.8904C37.7979 24.8718 37.7851 24.8541 37.7733 24.8355C36.7231 23.2661 36.7143 21.1504 37.7507 19.5723C37.7615 19.5556 37.7733 19.5379 37.7841 19.5213C38.7243 18.1255 40.7519 18.0108 41.9406 19.2025V19.2035Z" fill="#018076"/>
<path fill-rule="evenodd" clip-rule="evenodd" d="M25.419 2.70787L23.1889 0.490184C22.7537 0.0576319 22.0494 0.0586127 21.6161 0.493127L19.4136 2.70199C18.2337 3.88489 18.3448 5.88679 19.7231 6.83134C19.7417 6.84409 19.7594 6.85684 19.7781 6.86861C21.3499 7.91714 23.4689 7.92596 25.0496 6.89117C25.0663 6.88038 25.084 6.86861 25.1007 6.85782C26.4986 5.91916 26.6136 3.89469 25.42 2.70787H25.419Z" fill="#1B4071"/>
<path fill-rule="evenodd" clip-rule="evenodd" d="M2.8784 25.2295L0.6572 23.003C0.223964 22.5685 0.224946 21.8652 0.660147 21.4327L2.8725 19.2336C4.05727 18.0556 6.06234 18.1664 7.00839 19.5426C7.02116 19.5612 7.03393 19.5789 7.04572 19.5975C8.0959 21.1669 8.10474 23.2825 7.06831 24.8607C7.05751 24.8774 7.04572 24.895 7.03491 24.9117C6.09476 26.3075 4.06709 26.4222 2.8784 25.2305V25.2295Z" fill="#CF3245"/>
<g style="mix-blend-mode:multiply" opacity="0.2">
<mask id="mask0_2074_64564" style="mask-type:luminance" maskUnits="userSpaceOnUse" x="8" y="7" width="29" height="30">
<path d="M36.3487 29.4021L34.8476 27.9034C31.7658 24.8039 31.7196 19.7859 34.7336 16.6413C34.7408 16.6341 34.7483 16.6266 34.7562 16.6188C34.7906 16.5619 34.8358 16.5168 34.8702 16.4824L35.6433 15.7331L36.3821 14.9719C36.4273 14.9268 36.4734 14.8807 36.5068 14.8248C36.5982 14.6659 36.666 14.4844 36.666 14.303C36.6778 14.201 36.6542 14.1098 36.6208 14.0078C36.609 13.9734 36.609 13.9509 36.5982 13.9391C36.553 13.8253 36.4852 13.7351 36.4047 13.6331C36.3975 13.6259 36.3899 13.6184 36.3821 13.6105L31.0152 8.25217C30.9239 8.16193 30.8109 8.09327 30.697 8.04815C30.583 8.00303 30.4474 7.97949 30.3335 7.97949C30.2087 7.99126 30.0947 8.01382 29.9808 8.05894C29.9238 8.06973 29.856 8.09327 29.8108 8.13839C29.7538 8.17174 29.7077 8.21784 29.6625 8.26296L28.1162 9.8068C24.9548 12.9171 19.8611 12.918 16.7116 9.79503L15.2223 8.30807C15.1201 8.20607 15.0061 8.13741 14.8922 8.09229C14.7782 8.04717 14.6534 8.0354 14.5287 8.02461C14.4599 8.02461 14.4039 8.0354 14.3352 8.0354C14.1642 8.06973 13.9825 8.15997 13.8341 8.30807L12.0383 10.0795L11.1512 10.9652L8.47909 13.6566C8.4339 13.7017 8.38773 13.7478 8.35433 13.8037C8.25216 13.9744 8.20697 14.1559 8.20697 14.3373C8.20697 14.405 8.20696 14.4737 8.21777 14.5305C8.25216 14.6551 8.29735 14.7689 8.36611 14.8827C8.38871 14.9278 8.4339 14.9739 8.46828 15.0082L9.99198 16.5295C13.0963 19.6741 13.0963 24.7833 9.96938 27.9053L9.94679 27.9279L8.44569 29.4266L8.42309 29.4492C8.3779 29.4943 8.34352 29.5512 8.32092 29.5963C8.17258 29.8121 8.12739 30.0612 8.17357 30.3113C8.18437 30.3682 8.19616 30.4241 8.22956 30.481C8.24135 30.5379 8.27573 30.5938 8.30914 30.6517C8.34352 30.7086 8.38871 30.7537 8.4339 30.7988L11.106 33.4903L13.8007 36.1582C13.9943 36.3514 14.233 36.4308 14.4825 36.4308C14.7438 36.4426 14.9717 36.3514 15.1643 36.1591L16.6654 34.6604C16.6733 34.6532 16.6811 34.6457 16.689 34.6379C19.8267 31.5276 24.944 31.505 28.1054 34.6153L29.6065 36.114C29.7882 36.2955 30.0495 36.3975 30.3001 36.3975C30.414 36.3975 30.5506 36.3739 30.6635 36.3288C30.7775 36.2837 30.8905 36.216 30.9818 36.1248L30.9926 36.113L36.3261 30.7655C36.4852 30.6066 36.5874 30.3908 36.6218 30.175C36.6444 29.9484 36.5992 29.7434 36.4744 29.5502C36.44 29.4933 36.3948 29.4482 36.3487 29.4031V29.4021ZM21.8053 22.8059C21.8279 22.3969 21.8161 21.9997 21.7935 21.6142C22.2032 21.6368 22.6118 21.6368 23.0107 21.6034C22.9881 22.0114 22.9989 22.4097 23.0107 22.8069C22.6128 22.7961 22.2032 22.7961 21.8053 22.8069V22.8059Z" fill="white"/>
</mask>
<g mask="url(#mask0_2074_64564)">
<path fill-rule="evenodd" clip-rule="evenodd" d="M21.8774 21.6157H21.792C21.6584 17.3157 19.9598 13.0627 16.7081 9.8171L15.2158 8.31543L16.7081 9.79356C17.7032 10.7744 18.8919 11.4531 20.1543 11.8288C21.7802 14.6507 22.2901 19.1214 21.8774 21.6167V21.6157Z" fill="black"/>
<path fill-rule="evenodd" clip-rule="evenodd" d="M23.002 21.6882V21.6029C27.3088 21.4695 31.5684 19.7736 34.8192 16.527L36.3232 15.0371L34.8428 16.527C33.8604 17.5206 33.1806 18.7074 32.8043 19.9678C29.978 21.5911 25.5002 22.1002 23.001 21.6882H23.002Z" fill="black"/>
<path fill-rule="evenodd" clip-rule="evenodd" d="M21.8135 22.7167V22.802C17.5066 22.9354 13.247 24.6313 9.99623 27.8779L8.49219 29.3678L9.97266 27.8779C10.9551 26.8843 11.6349 25.6975 12.0111 24.4371C14.8375 22.8138 19.3152 22.3047 21.8145 22.7167H21.8135Z" fill="black"/>
<path fill-rule="evenodd" clip-rule="evenodd" d="M22.9283 22.8052H23.0138C23.1474 27.1052 24.846 31.3581 28.0977 34.6038L29.5899 36.1054L28.0977 34.6273C27.1025 33.6465 25.9138 32.9677 24.6514 32.592C23.0256 29.7702 22.5157 25.2995 22.9283 22.8042V22.8052Z" fill="black"/>
</g>
</g>
<path d="M54.4892 32.1796C53.7789 32.1796 53.2032 31.6049 53.2032 30.8967L53.1895 12.2185C53.1895 11.5093 53.7651 10.9346 54.4744 10.9346C55.1837 10.9346 55.7604 11.5093 55.7604 12.2185L55.7732 29.6138H66.0195C66.7298 29.6138 67.3045 30.1885 67.3045 30.8977C67.3045 31.6068 66.7288 32.1806 66.0195 32.1806H54.4892V32.1796Z" fill="black"/>
<path d="M75.2994 17.3525C79.4402 17.3555 82.7961 20.7061 82.797 24.8403C82.797 25.5495 82.2214 26.1233 81.5111 26.1233H70.5417C71.1232 28.2684 73.0723 29.7583 75.2984 29.7592C76.7268 29.7602 78.0855 29.1413 79.0207 28.0624C79.4864 27.5268 80.2978 27.47 80.8342 27.9339C81.3706 28.3988 81.4276 29.209 80.9629 29.7445C79.5404 31.3855 77.4734 32.3271 75.3004 32.3251C71.1596 32.3232 67.8037 28.9726 67.8018 24.8383C67.8037 20.7041 71.1596 17.3535 75.3004 17.3516L75.2994 17.3525ZM80.0552 23.5554C79.4726 21.4113 77.5245 19.9214 75.2994 19.9194C73.0743 19.9214 71.1252 21.4113 70.5426 23.5554H80.0552Z" fill="black"/>
<path d="M91.3971 32.3261C87.2563 32.3241 83.9004 28.9736 83.8984 24.8393C83.9004 20.7051 87.2563 17.3545 91.3971 17.3525C95.5379 17.3545 98.8937 20.7051 98.8957 24.8393V31.0422C98.8957 31.7513 98.32 32.3251 97.6097 32.3251C96.8995 32.3251 96.3248 31.7503 96.3248 31.0422V30.4802C94.9612 31.6719 93.2096 32.3271 91.3971 32.3251V32.3261ZM86.4694 24.8393C86.4704 27.5563 88.6758 29.7583 91.3971 29.7592C94.1183 29.7583 96.3238 27.5563 96.3248 24.8393C96.3238 22.1224 94.1183 19.9204 91.3971 19.9194C88.6758 19.9204 86.4704 22.1224 86.4694 24.8393Z" fill="black"/>
<path d="M109.319 18.7781C109.319 19.4872 108.743 20.061 108.033 20.061H105.676C105.108 20.061 104.563 20.2866 104.162 20.6878C103.76 21.0889 103.534 21.6333 103.534 22.2002V31.0416C103.534 31.7507 102.958 32.3245 102.248 32.3245C101.538 32.3245 100.963 31.7497 100.963 31.0416V22.2002C100.963 20.9526 101.459 19.755 102.343 18.8732C103.227 17.9904 104.426 17.4941 105.676 17.4941H108.033C108.743 17.4941 109.319 18.0689 109.319 18.7781Z" fill="black"/>
<path d="M110.793 32.3251C110.083 32.3251 109.508 31.7503 109.508 31.0422V24.8393C109.51 20.7051 112.866 17.3545 117.006 17.3525C121.147 17.3545 124.503 20.7051 124.505 24.8393V31.0422C124.505 31.7513 123.929 32.3251 123.219 32.3251C122.509 32.3251 121.934 31.7503 121.934 31.0422V24.8393C121.933 22.1224 119.728 19.9204 117.006 19.9194C114.285 19.9204 112.08 22.1224 112.079 24.8393V31.0422C112.079 31.7513 111.503 32.3251 110.793 32.3251Z" fill="black"/>
<path d="M133.558 32.3261C129.417 32.3241 126.062 28.9736 126.06 24.8393C126.062 20.7051 129.417 17.3545 133.558 17.3525C137.699 17.3545 141.055 20.7051 141.057 24.8393V31.0422C141.057 31.7513 140.481 32.3251 139.771 32.3251C139.061 32.3251 138.486 31.7503 138.486 31.0422V30.4802C137.122 31.6719 135.371 32.3271 133.558 32.3251V32.3261ZM128.63 24.8393C128.631 27.5563 130.837 29.7583 133.558 29.7592C136.279 29.7583 138.485 27.5563 138.486 24.8393C138.485 22.1224 136.279 19.9204 133.558 19.9194C130.837 19.9204 128.631 22.1224 128.63 24.8393Z" fill="black"/>
</svg>
