<svg width="82" height="53" viewBox="0 0 82 53" fill="none" xmlns="http://www.w3.org/2000/svg">
<path d="M26.4838 51.7286C26.2535 51.5855 26.0233 51.4335 25.7993 51.2842" stroke="black" stroke-width="0.613167" stroke-miterlimit="10"/>
<path d="M71.3487 51.572L79.9657 45.5045C80.1879 45.3486 80.3586 45.1301 80.4559 44.8767C80.5532 44.6234 80.5728 44.3468 80.5122 44.0822C80.4514 43.8177 80.3132 43.5772 80.1152 43.3917C79.9171 43.2061 79.6682 43.0838 79.4003 43.0404L12.1698 32.1071C10.9547 31.9115 10.1182 33.2937 10.8604 34.2786L18.7778 44.8013C20.0976 46.4624 21.5835 47.9844 23.2125 49.3436" stroke="black" stroke-width="1.70407" stroke-miterlimit="10"/>
<path d="M75.2842 49.33C75.2863 49.7939 75.1642 50.25 74.9305 50.6508C74.6969 51.0516 74.3603 51.3825 73.9555 51.6093C73.5508 51.836 73.0928 51.9503 72.629 51.9403C72.1651 51.9302 71.7125 51.7963 71.3179 51.5523C70.7117 51.1807 70.4379 50.5745 69.933 50.106C69.4521 49.6616 68.8219 49.3283 68.1552 49.3283C67.5378 49.3224 66.9399 49.5439 66.4752 49.9505C66.0566 50.3327 65.7899 50.8492 65.3766 51.2358C64.9071 51.6842 64.2836 51.9356 63.6343 51.938C63.1954 51.9381 62.7636 51.8273 62.379 51.6157C61.9943 51.4043 61.6694 51.0989 61.4343 50.7283L61.3197 50.5354C61.0846 50.1647 60.7596 49.8596 60.375 49.648C59.9904 49.4365 59.5586 49.3257 59.1197 49.3257C58.6807 49.3257 58.249 49.4365 57.8644 49.648C57.4797 49.8596 57.1548 50.1647 56.9196 50.5354L56.8041 50.7283C56.5695 51.1004 56.2444 51.4068 55.8592 51.6192C55.474 51.8316 55.0412 51.9428 54.6014 51.9425C53.9525 51.9397 53.3293 51.6885 52.8601 51.2403C52.4458 50.8536 52.1801 50.3372 51.7614 49.9549C51.2968 49.5483 50.6988 49.3268 50.0814 49.3327C49.4129 49.3327 48.7818 49.6634 48.3036 50.1105C47.7987 50.5789 47.5249 51.1852 46.9187 51.5567C46.5129 51.8105 46.0439 51.9451 45.5654 51.9451C45.0868 51.9451 44.6178 51.8105 44.212 51.5567C43.6058 51.1852 43.332 50.5789 42.828 50.1105C42.3471 49.666 41.716 49.3327 41.0502 49.3327C40.4328 49.3268 39.8349 49.5483 39.3702 49.9549C38.9516 50.3372 38.6858 50.8536 38.2716 51.2403C37.8023 51.6885 37.1791 51.9397 36.5302 51.9425C36.0913 51.9428 35.6593 51.8321 35.2747 51.6205C34.8899 51.409 34.5651 51.1036 34.3302 50.7327L34.2147 50.5398C33.9795 50.1692 33.6546 49.864 33.27 49.6524C32.8854 49.441 32.4536 49.3301 32.0146 49.3301C31.5757 49.3301 31.1439 49.441 30.7593 49.6524C30.3747 49.864 30.0497 50.1692 29.8146 50.5398L29.7 50.7327C29.4649 51.1034 29.14 51.4087 28.7553 51.6202C28.3707 51.8317 27.9389 51.9426 27.5 51.9425C26.8508 51.94 26.2272 51.6886 25.7577 51.2403C25.3444 50.8536 25.0777 50.3372 24.6591 49.9549C24.1944 49.5483 23.5965 49.3268 22.979 49.3327C22.3106 49.3327 21.6804 49.6634 21.2013 50.1105C20.6964 50.5789 20.4226 51.1852 19.8164 51.5567C19.4218 51.8007 18.9692 51.9347 18.5053 51.9447C18.0415 51.9548 17.5836 51.8405 17.1788 51.6137C16.774 51.3869 16.4374 51.056 16.2038 50.6552C15.9701 50.2544 15.8481 49.7984 15.8501 49.3345" stroke="black" stroke-width="1.70407" stroke-miterlimit="10"/>
<path d="M56.9658 24.7207C57.6476 27.3652 58.1312 30.0772 58.6716 32.7207" stroke="black" stroke-width="0.613167" stroke-linecap="round" stroke-linejoin="round"/>
<path d="M1 51.9416V32.5691C1 16.8028 13.7823 4.02051 29.5486 4.02051C37.2073 4.02051 45.6313 8.13875 51.2376 13.409C51.3993 13.5601 51.5587 13.7124 51.7158 13.8659C51.7647 13.9157 51.8171 13.9654 51.8642 14.0179" stroke="black" stroke-width="1.70407" stroke-linecap="round" stroke-linejoin="round"/>
<path d="M54.0288 17.0122C54.4929 17.8568 54.9116 18.7256 55.283 19.6148C55.3088 19.6806 55.3381 19.7428 55.3639 19.8086C55.4528 20.0228 55.5417 20.2371 55.6199 20.454" stroke="black" stroke-width="1.70407" stroke-linecap="round" stroke-linejoin="round"/>
<path d="M68.9347 11.8271C68.9347 11.8271 67.805 13.9249 70.5045 14.0992C73.2041 14.2734 74.965 12.1258 74.965 12.1258" stroke="black" stroke-width="0.613167" stroke-linecap="round" stroke-linejoin="round"/>
<path d="M63.834 29.5214C64.2394 29.6938 64.6518 29.8636 65.0723 30.0227C64.054 29.7718 62.9896 29.7764 61.9736 30.0361C61.8011 30.0832 60.386 30.6796 60.1958 30.6512C60.2234 30.029 60.4722 27.8183 60.6402 27.4512C61.3683 27.7996 63.2696 29.2805 63.834 29.5214Z" fill="black"/>
<path d="M80.4196 22.7655L79.5859 25.0366C79.5859 25.0366 77.5272 20.3255 72.9192 22.1922C72.9192 22.1922 72.1938 24.9806 68.3725 24.2277C64.4329 23.4526 62.1698 22.4811 62.2658 21.9513C62.3698 21.3815 62.8951 20.3122 63.0169 20.393C63.2488 19.7474 63.5442 19.1263 63.8987 18.5388C64.0542 18.2819 64.064 18.5388 64.072 18.361C64.1947 15.713 61.8267 15.161 61.8267 15.161C63.8284 13.2721 66.3396 12.1246 68.9031 11.6943C68.9031 11.6943 68.064 13.4588 69.4747 13.8766C70.8854 14.2944 72.4854 14.3806 75.3281 12.0348C75.3298 12.0401 83.1556 13.6259 80.4196 22.7655Z" fill="black"/>
<path d="M78.5337 26.9102C78.3168 28.0293 76.1114 38.76 70.7683 40.9813C71.7585 36.2435 68.1683 32.3768 68.1683 32.3768C67.5301 31.3342 66.7336 30.6995 65.9238 30.3324C69.3905 31.5004 73.1923 31.8746 76.2652 29.3973C77.1398 28.6846 77.9042 27.8464 78.5337 26.9102Z" fill="black"/>
<path d="M68.977 33.6023C68.1148 32.1801 67.041 30.6414 65.0783 30.0743C62.9699 29.4627 60.561 30.012 59.4579 31.5854C58.5592 32.8707 57.7254 34.1907 56.8374 35.4867C56.5787 35.8681 56.3121 36.2494 56.0374 36.6254C55.6925 37.1063 55.3449 37.5845 55.0001 38.0628C54.7832 38.3632 54.5689 38.6636 54.3521 38.9614" stroke="black" stroke-width="1.70407" stroke-miterlimit="10"/>
<path d="M60.0572 30.9336C59.4402 30.5879 58.7985 30.2884 58.1372 30.0376" stroke="black" stroke-width="1.70407" stroke-miterlimit="10"/>
<path d="M40.1113 36.6509C41.4909 35.6135 42.8731 34.5762 44.2296 33.5051C46.5336 31.6891 48.7834 29.7157 51.8118 29.2695C53.2724 29.0618 54.7586 29.1239 56.1967 29.4526" stroke="black" stroke-width="1.70407" stroke-miterlimit="10"/>
<path d="M78.5518 26.8037C78.5518 26.8037 75.9393 41.1976 68.9028 41.3762" stroke="black" stroke-width="1.70407" stroke-miterlimit="10"/>
<path d="M66.3167 39.123L65.2358 40.7373" stroke="black" stroke-width="1.70407" stroke-miterlimit="10"/>
<path d="M49.8246 38.232C49.7926 38.2267 50.3357 37.9129 50.9953 37.5404C51.6305 37.1813 52.3652 37.0386 53.0887 37.1337C53.8122 37.2288 54.4851 37.5565 55.0059 38.0675" stroke="black" stroke-width="1.70407" stroke-miterlimit="10"/>
<path d="M53.0898 18.8696C53.2543 19.2412 53.5618 19.8981 53.7298 20.3087" stroke="black" stroke-width="1.70407" stroke-linecap="round" stroke-linejoin="round"/>
<path d="M56.8382 35.4911C56.6373 31.7124 55.9333 27.195 55.2222 24.7417" stroke="black" stroke-width="1.70407" stroke-linecap="round" stroke-linejoin="round"/>
<path d="M62.1313 21.955C62.7072 20.6421 63.3978 19.3827 64.1954 18.1914" stroke="black" stroke-width="0.613167" stroke-linecap="round" stroke-linejoin="round"/>
<path d="M60.5736 27.2993C60.3176 28.6327 60.1158 29.8096 59.9932 30.7562" stroke="black" stroke-width="0.613167" stroke-linecap="round" stroke-linejoin="round"/>
<path d="M70.018 11.5566C69.6447 11.5904 69.2729 11.6382 68.9025 11.6998C66.3389 12.1309 63.8278 13.2784 61.826 15.1664C61.3333 15.6301 60.8787 16.1328 60.4669 16.6696C59.9886 17.2864 59.5442 18.3816 58.6846 18.5247C57.7282 18.682 56.9522 17.7362 56.4197 17.0829C55.5673 16.0375 54.7077 15.0002 53.9006 13.9184C53.5344 13.4269 53.1895 12.8135 52.5415 12.6642C52.0188 12.5442 51.4286 12.9202 51.0215 13.2073" stroke="black" stroke-width="1.70407" stroke-linecap="round" stroke-linejoin="round"/>
<path d="M53.6598 17.3911C53.9984 17.2764 54.0749 17.68 54.0749 17.68C54.0949 17.8455 54.0703 18.0133 54.0035 18.1661C53.9367 18.3188 53.8303 18.4508 53.6953 18.5485C53.2464 18.904 52.6349 19.0293 52.0731 19.0098C51.8064 19.0009 51.4624 18.9449 51.2944 18.7182C51.1264 18.4916 51.1166 18.1769 51.1664 17.9004" stroke="black" stroke-width="1.70407" stroke-linecap="round" stroke-linejoin="round"/>
<path d="M49.6498 13.8261C49.4759 13.9252 49.3244 14.0589 49.2043 14.219C49.0843 14.3791 48.9984 14.5621 48.952 14.7568C48.9083 14.9177 48.9252 15.089 48.9996 15.2381C49.074 15.3873 49.2007 15.5039 49.3556 15.5657C50.1461 15.9318 51.0429 15.9972 51.8782 15.7497C52.3227 15.6172 52.6062 15.3346 52.912 15.0092C52.9783 14.9379 53.0297 14.8541 53.063 14.7626C53.0964 14.6711 53.111 14.5739 53.1061 14.4766C53.1011 14.3794 53.0766 14.2841 53.0341 14.1965C52.9916 14.1089 52.9319 14.0307 52.8587 13.9666C52.7714 13.8921 52.6679 13.8389 52.5566 13.8113C52.4452 13.7836 52.3289 13.7824 52.2169 13.8075C52.1317 13.8286 52.0516 13.8667 51.9814 13.9195C51.9308 13.9534 51.8842 13.9931 51.8427 14.0377C51.7628 14.1508 51.6701 14.2544 51.5662 14.3461C51.1805 14.6199 50.2711 14.6172 50.1529 14.3701" stroke="black" stroke-width="1.70407" stroke-linecap="round" stroke-linejoin="round"/>
<path d="M53.0978 14.5981C53.3294 14.6749 53.5254 14.8327 53.6498 15.0426C54.0214 15.7333 53.2311 16.407 52.6658 16.6239C52.0054 16.8764 51.2907 16.8737 50.5974 16.8017C50.272 16.7688 49.8782 16.775 49.6365 16.5182C49.5419 16.4195 49.4742 16.2982 49.4398 16.166C49.4054 16.0337 49.4054 15.8949 49.44 15.7626C49.4527 15.7162 49.4716 15.6717 49.496 15.6302" stroke="black" stroke-width="1.70407" stroke-linecap="round" stroke-linejoin="round"/>
<path d="M53.6816 15.7202C53.6816 15.7202 54.2363 15.9647 54.1812 16.5522C54.1172 17.234 53.47 17.5816 52.8736 17.7442C52.3379 17.8823 51.7841 17.9362 51.2318 17.9042C51.0858 17.9013 50.9405 17.8816 50.7989 17.8456C50.366 17.7238 50.0167 17.2589 50.1234 16.802C50.1234 16.7869 50.1314 16.7709 50.1358 16.7558" stroke="black" stroke-width="1.70407" stroke-linecap="round" stroke-linejoin="round"/>
<path d="M55.0161 19.0014C55.4676 18.8488 55.9473 18.7984 56.4206 18.8539C56.9191 18.8974 57.4011 19.0547 57.8295 19.3134C58.2739 19.604 58.6748 19.9917 59.1112 20.301C60.0384 20.9615 61.0206 21.509 62.0259 22.0379C64.2944 23.2299 68.0704 24.2929 69.2802 24.2529L69.4349 24.2459C70.3237 24.1961 71.2126 23.9481 71.9184 23.3979C72.4539 22.975 72.8654 22.4154 73.1095 21.7784C73.3076 21.2858 73.4055 20.7588 73.3975 20.2281C73.3931 20.0601 73.3975 19.7161 73.2393 19.6059" stroke="black" stroke-width="1.70407" stroke-linecap="round" stroke-linejoin="round"/>
<path d="M55.3656 19.8081C55.8358 19.8081 55.8101 20.3931 55.4749 20.5842C55.4199 20.6147 55.3622 20.6399 55.3025 20.6597L55.2456 20.6757" stroke="black" stroke-width="0.613167" stroke-linecap="round" stroke-linejoin="round"/>
<path d="M74.9558 12.0405C75.2482 12.1187 75.5407 12.2076 75.8331 12.3072L75.9327 12.3392C77.3878 12.8299 78.8927 13.5934 79.7949 14.8868C80.7087 16.2032 81.0251 17.8317 80.9505 19.4148C80.778 23.141 79.21 27.005 76.2624 29.3855C74.5407 30.7748 72.3806 31.3322 70.1922 31.2113C69.1103 31.1408 68.0392 30.9537 66.9975 30.6531C65.8802 30.3419 64.7557 29.9704 63.7157 29.4531C63.3851 29.2886 63.0606 29.1099 62.7459 28.9197C61.6873 28.2717 60.7326 27.4726 59.8126 26.6406C59.3806 26.2477 58.9379 25.8584 58.5193 25.453C58.1637 25.1108 57.7939 24.7481 57.3166 24.5899C57.13 24.5288 56.934 24.5017 56.7379 24.5099C56.129 24.5384 55.5512 24.7846 54.9352 24.7037C53.1815 24.4761 52.5654 22.8246 52.3246 21.2832C52.2597 20.8628 52.2357 20.285 52.6748 20.0495C52.7529 20.0063 52.8347 19.9703 52.9192 19.9419C53.0615 19.8985 53.2144 19.9047 53.3527 19.9595C53.4911 20.0143 53.6068 20.1143 53.681 20.2432C53.7938 20.4577 53.9763 20.6275 54.1985 20.7244C54.4207 20.8214 54.6692 20.8398 54.9032 20.7766L55.2383 20.6877L55.2952 20.6717" stroke="black" stroke-width="1.70407" stroke-linecap="round" stroke-linejoin="round"/>
<path d="M50.3061 14.4934L50.2669 14.449C50.1363 14.3023 50.0003 14.1565 49.8616 14.0045C46.2171 10.0801 39.2971 5.0027 29.4277 4.67114V4.01514" stroke="black" stroke-width="1.70407" stroke-miterlimit="10"/>
<path d="M72.2275 0.999235C72.72 0.599233 73.6062 0.161899 74.776 0.745013C76.0933 1.40279 76.1804 2.51658 76.12 3.10236L74.2019 1.7513L72.2275 0.999235Z" fill="black"/>
<path d="M73.0721 10.0173C73.0721 10.0173 69.6943 11.0075 70.0045 6.80837C70.0806 5.91015 70.2235 5.01877 70.4321 4.14169C70.4543 4.05281 70.4747 3.96392 70.497 3.8688C70.595 3.46 70.8027 3.08569 71.0978 2.78613" stroke="black" stroke-width="0.852036" stroke-linecap="round" stroke-linejoin="round"/>
<path d="M75.7729 4.25732V4.26532C75.9978 5.404 75.6475 6.59067 75.6235 6.66534" stroke="black" stroke-width="0.613167" stroke-linecap="round" stroke-linejoin="round"/>
<path d="M75.6237 6.67675C75.9793 6.2083 76.7322 6.64208 76.4815 7.17453C76.2202 7.73009 75.4148 8.26164 75.4148 8.26164L74.9126 12.2243" stroke="black" stroke-width="0.852036" stroke-linecap="round" stroke-linejoin="round"/>
<path d="M75.7742 4.25685C75.3787 2.83462 73.5138 3.4284 72.0124 3.20973C71.5351 3.1404 71.256 2.97595 71.0986 2.78306C71.3159 2.56155 71.5761 2.38662 71.8633 2.2691C72.1505 2.15159 72.4586 2.09381 72.7689 2.0995C73.5493 2.11639 74.4178 2.28795 75.0275 2.84795C75.4219 3.22475 75.6838 3.71898 75.7742 4.25685Z" fill="black"/>
<path d="M75.7744 4.26483V4.25683C75.684 3.71896 75.4221 3.22473 75.0278 2.84793C74.418 2.28793 73.5495 2.11637 72.7691 2.09948C72.4588 2.0938 72.1507 2.15148 71.8635 2.26908C71.5763 2.3866 71.3161 2.56144 71.0989 2.78304C70.7584 2.37237 70.9753 1.83459 70.9753 1.83459C71.242 1.22659 71.6864 0.997256 72.2198 0.999034C73.578 1.00348 75.4642 2.53326 76.1122 3.10216C76.2073 3.18482 76.2749 3.24793 76.3113 3.27993C76.6989 3.64882 76.1656 5.69861 75.7744 4.26483Z" stroke="black" stroke-width="0.613167" stroke-linecap="round" stroke-linejoin="round"/>
<path d="M72.2178 0.999235C72.7102 0.599233 73.5964 0.161899 74.7662 0.745013C76.0836 1.40279 76.1707 2.51658 76.1102 3.10236" stroke="black" stroke-width="0.613167" stroke-linecap="round" stroke-linejoin="round"/>
<path d="M73.776 7.32152C74.5355 7.32152 75.1511 6.70579 75.1511 5.94641C75.1511 5.18694 74.5355 4.57129 73.776 4.57129C73.0165 4.57129 72.4009 5.18694 72.4009 5.94641C72.4009 6.70579 73.0165 7.32152 73.776 7.32152Z" stroke="black" stroke-width="0.852036" stroke-linecap="round" stroke-linejoin="round"/>
<path d="M70.4674 6.89037C71.2269 6.89037 71.8425 6.27472 71.8425 5.51525C71.8425 4.75578 71.2269 4.14014 70.4674 4.14014C69.7079 4.14014 69.0923 4.75578 69.0923 5.51525C69.0923 6.27472 69.7079 6.89037 70.4674 6.89037Z" stroke="black" stroke-width="0.852036" stroke-linecap="round" stroke-linejoin="round"/>
<path d="M72.4242 5.70877L71.8402 5.63232L71.4873 7.25366L72.0953 7.25989" stroke="black" stroke-width="0.852036" stroke-linecap="round" stroke-linejoin="round"/>
<path d="M76.1845 4.72119C76.3274 5.30333 76.3014 5.91417 76.1098 6.48209C76.1098 6.48209 75.5951 6.78076 75.7489 6.20742C75.9027 5.63408 75.8378 4.74075 75.8378 4.74075L76.1845 4.72119Z" fill="black"/>
<path d="M70.769 9.88379L69.8926 12.4838" stroke="black" stroke-width="0.852036" stroke-linecap="round" stroke-linejoin="round"/>
<path d="M73.8557 7.80578C74.0175 7.636 74.2024 8.41823 74.2113 8.50001C74.2228 8.7409 74.0744 8.82267 73.8557 8.87423C73.2519 9.00765 72.62 8.90489 72.0895 8.58712C72.0006 8.53378 71.8228 8.43778 71.8184 8.32045C72.4459 8.35867 73.3073 8.29823 73.7988 7.86533C73.8166 7.844 73.837 7.82534 73.8557 7.80578Z" stroke="black" stroke-width="0.852036" stroke-miterlimit="10"/>
<path d="M73.2476 5.88453C73.3597 5.86924 73.4739 5.87715 73.5829 5.90773C73.6919 5.93831 73.7934 5.99093 73.8813 6.06231" stroke="black" stroke-width="0.852036" stroke-linecap="round" stroke-linejoin="round"/>
<path d="M70.7358 5.52125C70.848 5.50596 70.9621 5.51387 71.0711 5.54445C71.1801 5.57503 71.2817 5.62765 71.3696 5.69903" stroke="black" stroke-width="0.852036" stroke-linecap="round" stroke-linejoin="round"/>
<path d="M65.9237 30.327C65.6357 30.231 65.354 30.1288 65.0713 30.0239C65.3637 30.0999 65.649 30.2014 65.9237 30.327Z" fill="black"/>
<path d="M37.4189 36.2144L37.6382 36.2481C37.5761 36.2401 37.4997 36.2277 37.4189 36.2144Z" fill="#3FBDF1"/>
</svg>
