<svg width="133" height="229" viewBox="0 0 133 229" fill="none" xmlns="http://www.w3.org/2000/svg">
<path d="M51.4179 145.88C47.9502 144.053 40.7407 145.782 36.9765 145.995C31.402 146.323 25.7427 146.537 20.2966 145.176C17.0404 144.37 13.8708 142.986 11.2873 140.941L5.52213 140.618C3.04962 140.48 0.943015 142.549 0.816441 145.238C0.691602 147.897 2.56415 150.215 5.06267 150.355L53.2073 153.063C53.6633 150.136 54.3031 147.399 51.4179 145.878V145.88ZM4.5061 145.58C4.79219 145.638 4.98291 145.936 4.92915 146.248C4.89968 146.44 5.44413 146.667 5.81345 146.467C6.40817 146.15 6.84687 145.412 7.66179 145.027C8.40042 144.681 9.39049 145.021 9.76327 145.672C11.0342 145.102 12.6276 145.372 13.6228 146.416C13.8344 146.64 13.8396 147.003 13.6384 147.235C13.4321 147.459 13.0992 147.465 12.8859 147.246C12.0554 146.37 10.6197 146.272 9.69385 147.033C9.26212 147.373 8.69866 146.905 8.87898 146.37C8.9362 146.218 8.42464 145.931 8.0796 146.087C7.27855 146.459 6.69427 147.695 5.48056 147.695C5.0783 147.695 4.67085 147.563 4.36395 147.314C3.5733 146.665 3.78827 145.434 4.5061 145.58Z" fill="black"/>
<path d="M51.7411 145.076C48.041 143.13 40.8281 144.87 36.913 145.11C31.264 145.444 25.7485 145.635 20.455 144.31C17.0774 143.474 14.0604 142.056 11.7318 140.218C11.3729 139.941 11.4267 140.109 5.54363 139.735C2.68447 139.557 0.161728 141.952 0.0074127 145.169C-0.145169 148.317 2.07585 151.027 4.99917 151.195C5.66151 151.233 -1.57042 150.825 53.1872 153.903C53.5739 153.903 53.9068 153.603 53.9709 153.182L54.0558 152.652C54.4945 149.904 54.9922 146.786 51.7429 145.074L51.7411 145.076ZM52.5248 152.135L5.08417 149.472C4.09933 149.413 3.19425 148.947 2.53711 148.152C0.397508 145.565 2.08631 141.45 5.26797 141.45C5.40668 141.45 6.17132 141.498 10.9898 141.768C13.4623 143.67 16.6058 145.127 20.0996 145.997C25.5942 147.369 31.2258 147.173 36.9962 146.833C40.7362 146.616 47.8468 144.946 51.051 146.631C53.0675 147.698 52.9618 149.345 52.5231 152.135H52.5248Z" fill="black"/>
<path d="M83.3613 205.28C82.3348 202.03 81.3431 199.064 80.2924 195.921C78.6365 190.969 76.7604 185.356 74.059 176.632C73.9186 176.18 74.1423 175.691 74.5584 175.538C74.9762 175.385 75.4236 175.628 75.5641 176.081C78.2585 184.784 80.1311 190.387 81.7834 195.332C82.77 198.282 83.7046 201.079 84.6652 204.103C91.9284 203.663 105.966 202.266 111.311 196.931C111.636 196.608 112.137 196.633 112.433 196.984C112.73 197.335 112.707 197.882 112.385 198.205C106.583 203.995 92.1001 205.416 84.1503 205.864C83.8087 205.884 83.4775 205.656 83.3578 205.282L83.3613 205.28Z" fill="black"/>
<path d="M56.7398 48.5687C56.5837 46.9833 54.6748 46.2247 53.3033 46.7852C51.9318 47.3458 51.0162 48.731 50.184 50.0427C49.109 51.7395 48.0322 53.4343 46.9572 55.131C45.9689 56.6881 44.9338 58.5584 45.4834 60.3533L56.7381 48.5687H56.7398Z" fill="#CCCCCC"/>
<path d="M28.8057 81.0838C28.4069 80.8856 28.2317 80.3723 28.4138 79.9382L31.3597 72.9248C31.5417 72.4907 32.0133 72.3001 32.4121 72.4983C32.8109 72.6965 32.9861 73.2098 32.804 73.6439L29.8581 80.6573C29.676 81.0914 29.2062 81.2819 28.8057 81.0838Z" fill="black"/>
<path d="M65.3103 84.6025C66.7338 84.3968 68.1798 84.9291 69.6016 84.7082C70.9731 84.495 72.1834 83.606 73.3416 82.7397C75.4414 81.1694 77.5931 79.5426 79.0426 77.2061C73.4092 78.9726 67.7759 80.741 62.1442 82.5076C61.1629 82.8152 60.0948 83.1927 59.533 84.159C58.8481 85.3367 59.0822 89.6021 60.641 88.3206C61.234 87.8317 61.5599 86.7654 62.1754 86.1954C63.0493 85.3877 64.1919 84.7629 65.312 84.6006L65.3103 84.6025Z" fill="#CCCCCC"/>
<path d="M53.1617 41.5659C52.3936 41.5659 51.6255 41.4168 50.9146 41.1186C49.6125 40.5694 48.6121 39.554 48.0971 38.2574C47.9237 37.8195 48.1093 37.3099 48.5115 37.1212C48.9155 36.9325 49.3819 37.1344 49.5553 37.5723C49.9975 38.684 50.8505 39.2388 51.4886 39.5087C52.6225 39.9881 53.9559 39.9503 55.0569 39.4105C56.8757 38.5197 58.3998 36.538 59.5858 33.5201C60.94 30.0871 61.5954 26.2898 61.4792 22.5434C61.4168 20.6315 60.5516 19.0273 59.8251 17.1852C49.8206 27.5486 42.7377 21.9601 42.6024 21.9451C42.1187 21.6487 41.6644 21.3732 41.276 21.4129C41.1512 21.4261 41.0385 21.5789 40.9674 21.7035C40.5964 22.3471 40.4836 23.6702 40.735 24.427C41.087 25.482 41.7546 26.1463 42.8625 26.9975C43.1382 27.2107 43.2614 27.5901 43.1677 27.9431C41.6558 33.6278 41.6627 33.4069 40.9466 39.1161C40.8877 39.5898 40.4923 39.9183 40.0519 39.856C39.6184 39.7918 39.3133 39.3558 39.3722 38.8821C40.0883 33.1823 40.1317 33.1464 41.4876 28.0468C40.5756 27.3032 39.7086 26.4124 39.2439 25.0158C38.6266 23.1605 39.2058 19.903 41.1165 19.6935C42.0199 19.5916 42.7724 20.0652 43.5197 20.522C50.0443 24.4401 56.9105 17.9967 59.5598 15.0449C59.969 14.5901 60.6851 14.7543 60.8793 15.3677C61.1203 16.1302 61.4306 16.8662 61.7289 17.5796C62.3565 19.0725 63.0068 20.6183 63.0675 22.4849C63.2634 28.8452 60.999 38.3952 55.7089 40.9884C54.9182 41.3753 54.0391 41.5716 53.1601 41.5716L53.1617 41.5659Z" fill="black"/>
<path d="M46.2621 36.3972C46.1268 36.3972 45.9898 36.3594 45.865 36.2801C44.0583 35.1439 43.337 33.8757 43.3786 31.9072C43.3891 31.4297 43.7514 31.0541 44.1901 31.0616C44.6287 31.073 44.9755 31.4674 44.9668 31.9449C44.9426 33.1302 45.1905 33.8568 46.6608 34.7816C47.0405 35.0213 47.1707 35.5498 46.9505 35.9631C46.8031 36.2405 46.536 36.3953 46.2621 36.3953V36.3972Z" fill="black"/>
<path d="M56.7937 32.6947C56.4295 32.4304 56.3307 31.8926 56.5735 31.4963C56.8162 31.0981 57.3103 30.9924 57.6744 31.2566C57.7125 31.2377 57.9311 31.0508 57.9727 30.813C58.1807 29.624 56.6809 28.0387 57.3225 26.1494C57.475 25.7021 57.9328 25.4719 58.342 25.638C58.7529 25.8022 58.9644 26.3004 58.8118 26.7477C58.4651 27.7744 59.8418 29.3579 59.5332 31.1358C59.4048 31.8737 58.9141 32.5362 58.2847 32.825C57.7611 33.0647 57.2202 33.0042 56.7937 32.6947Z" fill="black"/>
<path d="M56.2426 36.0926C55.6497 36.0926 55.0601 35.8604 54.6041 35.4282C54.2729 35.1149 54.24 34.5695 54.5278 34.209C54.8156 33.8485 55.3167 33.8108 55.6479 34.126C55.8646 34.3317 56.1802 34.4129 56.4541 34.3336C56.8755 34.2072 57.3142 34.4789 57.4286 34.9394C57.543 35.4 57.2934 35.8756 56.872 36.0002C56.6657 36.0605 56.4542 36.0907 56.2426 36.0907V36.0926Z" fill="black"/>
<path d="M54.1871 52.4533C54.175 52.4533 54.1611 52.4533 54.1489 52.4533C53.7103 52.4307 53.3722 52.0249 53.393 51.5493C53.4398 50.4716 53.4589 48.4049 53.4762 46.4081C53.4953 44.3868 53.5126 42.2957 53.5629 41.1802C53.5837 40.7027 53.9617 40.3365 54.3935 40.3573C54.8321 40.3799 55.1702 40.7857 55.1494 41.2613C55.1026 42.3428 55.0836 44.417 55.0645 46.4232C55.0471 48.437 55.028 50.5187 54.9795 51.6304C54.9587 52.0928 54.6085 52.4533 54.1871 52.4533Z" fill="black"/>
<path d="M25.0735 89.4378C24.2932 88.8943 23.5754 88.0922 22.8507 87.7392C21.7982 87.2277 20.5463 87.5052 19.4748 87.6826C16.8393 88.162 14.5367 88.2601 9.97137 85.6442C9.41133 85.3215 5.4737 83.4172 4.5166 83.202C3.90627 83.3945 3.341 82.7661 3.53867 82.1055C4.7992 77.8816 6.37356 73.6465 8.21667 69.5207C8.4074 69.0923 8.8825 68.913 9.27782 69.1206C9.67141 69.3301 9.83611 69.8472 9.64365 70.2757C7.97219 74.0202 6.5262 77.8515 5.3385 81.6828C7.33939 82.2924 10.6684 84.0891 10.7101 84.1136C12.7283 85.2706 15.1384 86.4237 17.6716 86.2067C19.4748 86.0576 21.5399 85.2083 23.4974 86.1576C24.4753 86.6333 25.1706 87.4505 25.9335 87.9827C26.9426 88.6961 28.914 88.43 30.2075 88.4036C33.7931 81.728 35.8478 76.4888 37.2661 70.4304C37.3753 69.968 37.8071 69.6887 38.2319 69.8057C38.6567 69.9227 38.9133 70.3946 38.8058 70.857C37.3182 77.2136 35.156 82.6736 31.3467 89.7058C31.201 89.9738 30.9323 90.1456 30.6462 90.1305C30.0064 90.1191 29.1481 90.1852 28.4026 90.1965C28.3263 90.1965 26.0254 90.1078 25.0735 89.434V89.4378Z" fill="black"/>
<path d="M11.137 66.1302C11.0069 66.1302 10.877 66.0963 10.7556 66.0227C10.3707 65.7924 10.2302 65.2677 10.4417 64.8487C12.7235 60.321 15.4249 55.7782 18.4696 51.3448C21.249 47.2927 25.1849 44.5579 29.5525 43.6463C30.2634 43.4991 30.7819 43.3764 31.2188 43.2707C32.3164 43.0084 32.977 42.8517 34.8565 42.7517C35.3004 42.7215 35.6662 43.0971 35.6887 43.5727C35.7095 44.0502 35.3731 44.4542 34.9345 44.4787C33.1885 44.5712 32.6441 44.7014 31.5587 44.9599C31.1096 45.0675 30.5772 45.194 29.849 45.345C25.8732 46.1754 22.2824 48.6742 19.7405 52.3809C16.7409 56.7501 14.0794 61.2251 11.834 65.6811C11.6901 65.968 11.4179 66.1302 11.137 66.1302Z" fill="black"/>
<path d="M57.4156 85.143C57.2682 84.6938 57.4815 84.1993 57.8942 84.037C58.5114 83.7954 59.0905 83.4632 59.7025 83.1103C61.5318 82.0553 62.0728 81.8571 64.15 81.4967C65.8527 81.2003 66.3902 81.1192 69.2754 79.5338C69.8926 79.1941 70.5307 78.8431 71.1826 78.5317C71.708 78.2787 76.6981 77.0953 77.6968 76.8556C75.3769 70.6312 73.6499 66.5376 68.9736 59.9527C66.9086 57.0424 63.3802 53.0732 60.9094 51.4463C58.5132 49.8685 56.5452 48.7097 54.7264 48.1869C54.3016 48.0642 54.0484 47.5924 54.1611 47.13C54.2738 46.6695 54.7107 46.3939 55.1321 46.5147C57.1347 47.0904 59.2188 48.3114 61.7312 49.9648C64.7065 51.9238 68.4431 56.378 70.229 58.8919C75.2659 65.9846 76.9598 70.2405 79.5191 77.1501C79.604 77.3822 79.5936 77.6427 79.4896 77.8654C79.3752 78.1107 78.8302 78.3504 77.8546 78.5845C76.3236 78.9525 72.2576 79.9302 71.8068 80.117C70.1717 80.9021 68.5471 81.9893 66.7456 82.6442C65.1417 83.2274 63.4893 83.1896 62.0866 83.7766C60.859 84.2899 59.8084 85.1222 58.4282 85.662C58.3398 85.696 57.5595 85.5865 57.4121 85.1411L57.4156 85.143Z" fill="black"/>
<path d="M61.3699 97.9204C59.9915 92.9983 59.2892 89.8823 58.3651 84.5826C58.2836 84.1127 58.5662 83.6616 58.9962 83.5729C59.4262 83.4841 59.8424 83.7918 59.9239 84.2599C60.8359 89.4878 61.5277 92.5623 62.887 97.4165C63.0153 97.8733 62.7778 98.3565 62.3599 98.4961C61.9438 98.6339 61.4982 98.381 61.3682 97.9204H61.3699Z" fill="black"/>
<path d="M18.9603 61.4509C18.8945 61.4509 18.8251 61.4415 18.7575 61.4227C18.3344 61.3019 18.0795 60.8282 18.1922 60.3677C19.0037 57.012 20.344 53.894 22.1784 51.1008C22.4333 50.712 22.9291 50.6233 23.2863 50.9007C23.6435 51.1782 23.725 51.718 23.4701 52.1068C21.7727 54.6924 20.4775 57.7008 19.7267 60.8093C19.6331 61.1962 19.3123 61.4547 18.9603 61.4547V61.4509Z" fill="black"/>
<path d="M24.7083 57.4852C24.6805 57.4852 24.6528 57.4852 24.6233 57.4796C24.1864 57.4286 23.8708 57.0039 23.9159 56.5302C24.0997 54.6391 25.0065 52.8197 26.345 51.6609C26.6883 51.3646 27.1877 51.4269 27.4599 51.7987C27.7322 52.1724 27.6767 52.7159 27.3334 53.0141C26.3225 53.8879 25.6359 55.2713 25.4954 56.7114C25.4521 57.1549 25.1071 57.4852 24.7066 57.4852H24.7083Z" fill="black"/>
<path d="M66.8503 65.3085C66.8503 65.3085 66.8364 65.3085 66.8312 65.3085C66.3926 65.2972 66.0458 64.9009 66.0562 64.4234C66.0753 63.591 66.0944 62.7323 65.8395 62.0227C65.628 61.4339 65.191 61.0092 64.7853 61.0319C64.7142 61.0356 64.6414 61.0507 64.5686 61.062C64.3033 61.1073 63.9391 61.1715 63.5473 61.0224C62.7774 60.7298 62.5122 59.8995 62.337 59.3484L62.2868 59.1935C61.9591 58.2008 61.2464 57.3873 60.3795 57.0155C59.972 56.84 59.7709 56.338 59.9321 55.8945C60.0934 55.449 60.5546 55.232 60.962 55.4075C62.2469 55.9586 63.3011 57.1552 63.7814 58.6084L63.8368 58.7802C63.8975 58.9727 64.012 59.3275 64.0934 59.403C64.1004 59.3936 64.2322 59.3709 64.3189 59.3558C64.4437 59.3351 64.5685 59.3143 64.6934 59.3068C65.7753 59.2351 66.8538 60.0976 67.3185 61.3961C67.6895 62.4284 67.6652 63.5118 67.6444 64.4687C67.634 64.9386 67.2803 65.3123 66.8503 65.3123V65.3085Z" fill="black"/>
<path d="M107.479 63.9537C107.051 63.8517 106.628 64.1481 106.534 64.6142C105.476 69.9082 103.926 78.8939 101.494 85.9394C102.017 86.079 102.501 86.3999 102.879 86.8321C105.372 79.7413 106.931 70.7595 108.086 64.9823C108.179 64.5161 107.907 64.0556 107.479 63.9537Z" fill="black"/>
<path d="M91.8789 57.0618C91.7281 54.5328 91.2235 51.6734 91.5616 49.6936C92.2691 45.4377 93.2799 44.0429 97.5141 42.9426C98.3706 42.7199 99.3433 42.4671 100.332 42.5897C101.573 42.7464 102.601 43.5334 102.95 44.596C103.487 46.2436 102.379 47.9157 101.044 48.8405C100.335 49.3294 98.8179 49.7918 98.4122 50.2447C98.4295 50.7033 99.163 51.8414 99.5409 51.9698C99.9692 52.0755 100.234 52.536 100.137 53.0022C100.042 53.4684 99.6155 53.759 99.1855 53.6552C98.2961 53.4363 97.3563 52.1755 96.9974 51.1318C96.3524 49.2577 97.5504 48.6009 99.2392 47.8535C99.6068 47.6912 99.9865 47.5213 100.193 47.3798C100.994 46.8249 101.686 45.8888 101.453 45.1753C101.309 44.7375 100.784 44.3865 100.15 44.3053C99.4369 44.2166 98.648 44.4223 97.8834 44.6224C94.3532 45.5397 93.7273 46.3512 93.1221 50.0032C92.8395 51.6527 93.3198 54.5535 93.462 56.9486C93.4897 57.4242 93.1586 57.8356 92.7199 57.8677C92.2726 57.896 91.905 57.5299 91.8755 57.06L91.8789 57.0618Z" fill="black"/>
<path d="M108.302 60.2927C107.804 60.2927 107.43 59.802 107.52 59.2716C108.35 54.3834 108.507 53 109.089 47.8494C109.224 46.6604 109.417 45.511 109.119 44.7032C108.938 44.2144 108.416 43.7596 107.952 43.8842C107.556 43.9917 107.265 44.4617 107.125 44.8675C106.379 46.9945 106.322 47.2474 106.129 48.8347C106.077 49.2593 106.152 49.7425 106.424 49.9048C106.511 49.9557 106.715 49.901 106.795 49.8274C106.802 49.3782 107.126 49.0064 107.546 48.98C108.565 48.9064 108.73 50.5427 107.617 51.3071C106.089 52.3584 104.272 50.9484 104.55 48.6515C104.763 46.8831 104.877 46.4264 105.54 44.5352C105.585 44.4541 106.02 42.6253 107.565 42.2044C108.902 41.844 110.15 42.8631 110.591 44.0578C111.052 45.3091 110.818 46.685 110.662 48.0571C110.076 53.2472 109.918 54.6421 109.077 59.5831C109.006 59.9983 108.673 60.2909 108.297 60.2909L108.302 60.2927Z" fill="black"/>
<path d="M102.746 51.2528C101.239 50.7979 100.79 48.2274 101.205 46.708C101.33 46.2494 101.772 45.989 102.191 46.1249C102.611 46.2608 102.852 46.742 102.727 47.1988C102.469 48.1443 102.866 49.4938 103.171 49.5862C103.448 49.6712 103.703 49.6146 103.949 49.4202C104.34 49.1107 104.589 48.5369 104.605 48.1594C104.624 47.6819 105.004 47.3082 105.434 47.3346C105.872 47.3554 106.21 47.7593 106.191 48.2368C106.118 50.0147 104.555 51.8001 102.746 51.2528Z" fill="black"/>
<path d="M94.159 45.9588C93.7204 45.9305 93.3874 45.521 93.4152 45.0435C94.3359 28.567 94.1798 29.0332 94.7329 27.8479C95.1542 26.9476 96.0784 26.07 97.2228 26.1266C98.0811 26.1719 98.8873 26.7721 99.3294 27.6931C99.6641 28.3933 99.7542 29.1407 99.8236 29.9089C100.127 33.2797 100.233 36.7845 100.295 40.1515C101.523 39.6608 102.986 39.4871 104.037 40.3534C104.954 40.1628 106.201 40.4742 106.65 40.7177C107.102 40.963 108.38 41.9331 108.325 43.1372C108.302 43.6147 107.936 43.9847 107.493 43.9582C107.064 43.9356 106.733 43.5468 106.738 43.0863C106.681 42.89 106.281 42.4503 105.942 42.2653C105.594 42.0766 104.531 41.9501 104.271 42.0671C103.95 42.3049 103.555 42.2351 103.286 41.9331C102.955 41.5594 102.679 41.4481 102.123 41.4764C101.393 41.5141 100.389 41.884 100.132 42.2087C99.6588 42.8107 98.7468 42.4559 98.7347 41.6614C98.7104 40.1722 98.5717 29.8428 97.925 28.4914C97.7897 28.2083 97.5054 27.8706 97.15 27.8517C96.7494 27.8271 96.3403 28.2272 96.153 28.6311C95.7889 29.4106 95.8929 29.2464 95.0051 45.1472C94.9791 45.6247 94.5994 45.9871 94.1642 45.9569L94.159 45.9588Z" fill="black"/>
<path d="M101.707 47.8523C101.289 47.707 101.059 47.22 101.192 46.7651C101.393 46.08 102.714 41.7713 102.917 41.0805C103.051 40.6257 103.498 40.3766 103.916 40.5219C104.334 40.6672 104.565 41.1541 104.429 41.609C104.221 42.3129 102.916 46.5726 102.704 47.2917C102.597 47.6598 102.13 47.9976 101.705 47.8523H101.707Z" fill="black"/>
<path d="M84.4077 81.5402C83.9083 81.3232 83.7505 80.6418 84.0834 80.1945C84.295 79.7737 85.1688 77.6731 85.9543 75.7348C88.6505 69.08 90.0445 64.1257 90.8681 61.5174C91.7888 58.5901 92.2014 57.4728 91.6119 54.2625C91.527 53.7944 91.8044 53.3395 92.2344 53.2452C92.6644 53.1527 93.0822 53.4546 93.1689 53.9227C93.9249 58.0428 93.188 59.3149 91.9916 63.2934C90.2924 68.9385 88.3245 74.5268 85.7359 80.4512C85.4099 81.1948 85.1151 81.846 84.4059 81.5384L84.4077 81.5402Z" fill="black"/>
<path d="M96.5694 58.2944C96.2833 57.932 96.3215 57.3866 96.6544 57.0752C96.9873 56.7637 97.4883 56.8052 97.7744 57.1676C98.546 58.1433 99.8724 58.6001 101.005 58.2793C101.426 58.1604 101.863 58.4359 101.972 58.8983C102.081 59.3607 101.828 59.8326 101.403 59.9534C99.6921 60.4403 97.745 59.7853 96.5677 58.2962L96.5694 58.2944Z" fill="black"/>
<path d="M111.103 197.86C107.162 186.013 103.221 172.919 99.3873 158.941C96.0756 146.855 92.9823 134.634 90.189 122.62C89.6515 120.323 88.3148 118.33 86.4231 117.008C85.3221 116.238 85.0221 115.867 84.2298 115.47C83.831 115.27 83.6558 114.759 83.8396 114.325C84.0234 113.891 84.4967 113.702 84.8921 113.9C85.8717 114.389 86.1613 114.77 87.2796 115.553C89.5111 117.11 91.0907 119.468 91.7288 122.193C94.5151 134.185 97.6049 146.383 100.91 158.445C104.735 172.391 108.667 185.453 112.596 197.27C112.745 197.719 112.532 198.213 112.119 198.376C111.708 198.538 111.252 198.306 111.103 197.857V197.86Z" fill="black"/>
<path d="M79.1857 120.459C79.0001 120.984 78.147 121.582 77.7136 121.825C78.74 133.54 77.9026 145.649 76.4114 157.285C75.7075 162.856 74.792 168.671 73.6113 175.043C73.6008 175.088 73.5956 175.135 73.5956 175.175L73.554 176.258C72.1513 187.644 71.3035 197.515 71.7439 208.417C64.0818 209.33 57.0717 209.207 50.1189 208.29C49.1704 198.119 50.3304 188.416 51.5528 178.161C54.0895 156.807 53.3179 157.458 54.0721 152.68C54.5108 149.932 55.0084 146.814 51.7591 145.102C48.0469 143.143 40.7663 144.902 36.931 145.136C31.2768 145.464 25.7666 145.655 20.4678 144.336C13.5462 142.611 7.28686 138.334 6.12169 130.737C5.45415 126.387 5.67089 122.792 6.90541 117.905C7.01638 117.45 6.77364 116.971 6.34884 116.845C5.92057 116.718 5.48538 116.988 5.36921 117.45C4.08788 122.527 3.8555 126.462 4.55426 131.02C5.83906 139.364 12.5458 144.145 20.1176 146.019C25.6123 147.391 31.2439 147.201 37.0142 146.861C40.7334 146.646 47.8718 144.97 51.0639 146.659C53.9178 148.157 52.4735 150.943 52.1805 154.865C50.5073 179.295 46.9719 193.131 48.6017 209.156C48.6433 209.555 48.9243 209.866 49.2901 209.917C56.4441 210.97 64.4632 211.087 72.661 210.044C73.0737 209.991 73.3806 209.6 73.3598 209.145C72.8466 198.036 73.6979 188.045 75.1284 176.451C75.1336 176.422 75.1335 176.398 75.1387 176.369L75.1751 175.32C76.3611 168.935 77.2766 163.111 77.9806 157.521C79.5983 144.883 80.33 133.055 79.1822 120.459H79.1857Z" fill="black"/>
<path d="M46.3718 61.2577C46.143 61.2577 45.9176 61.1501 45.7615 60.9463C43.6514 58.187 41.5777 55.4427 39.5057 52.7004C37.4354 49.96 35.3652 47.2196 33.2551 44.4622C32.9742 44.096 33.0192 43.5506 33.3573 43.2449C33.6954 42.9391 34.1965 42.9901 34.4756 43.3562C36.5858 46.1155 38.6595 48.8597 40.7315 51.602C42.644 54.131 44.5547 56.662 46.4966 59.2043C50.2349 56.0505 53.4755 52.0776 55.9012 47.6688C56.1266 47.2593 56.6156 47.1252 56.9901 47.3724C57.3663 47.6178 57.4895 48.1482 57.264 48.5577C54.6043 53.3912 51.0013 57.7245 46.8452 61.0859C46.703 61.201 46.5366 61.2557 46.3718 61.2557V61.2577Z" fill="black"/>
<path d="M66.0529 6.06141C64.8582 5.21965 63.4641 4.6421 61.7389 4.28539C62.5486 3.7475 63.563 3.54933 64.4681 3.82111C65.2431 4.05514 65.81 3.01902 65.25 2.38864C63.9323 0.903306 62.0892 0.0426331 60.1906 0.031309C58.4376 0.0237596 56.6466 0.740946 55.5091 1.91487C54.3075 3.15675 53.6955 2.78872 53.2204 2.3433C52.0934 1.29583 50.871 1.36757 50.923 1.3789C49.4249 1.3789 48.8267 2.19613 48.0361 3.37572C47.3755 4.35525 46.3785 4.33635 45.4006 4.33257C44.577 4.3288 43.6424 4.32121 42.7668 4.7704C41.163 5.5914 40.4521 7.53161 39.9129 9.28307C38.7251 13.1408 37.4994 17.1307 37.3745 21.3602C37.3364 22.6851 37.3918 24.3874 38.1703 25.8105C38.7338 26.841 39.5591 27.6621 39.9198 28.6227C40.4209 29.9552 40.4382 32.2804 40.1972 33.8884C40.1313 34.3319 40.388 34.7565 40.7885 34.866C40.8527 34.883 40.9185 34.8924 40.9826 34.8924C41.3138 34.8924 41.6225 34.664 41.7334 34.3073C42.1461 32.9937 42.5605 30.9592 42.9541 29.7022C43.1361 29.1228 43.4413 28.1527 43.098 27.2317C42.7356 26.2616 41.8618 25.852 41.378 25.4953C40.0152 24.4913 39.8626 22.6398 40.7348 21.7489C41.1804 21.2922 41.4751 21.3394 41.7369 21.4262C42.4651 21.6659 43.3148 22.519 44.4158 22.7304C49.5897 23.7269 51.731 23.6004 56.0223 20.5222C56.4784 20.1957 56.9499 19.8579 57.3817 19.4464C57.966 18.8897 58.3787 18.3707 58.9804 18.1989C59.6202 18.0177 60.4264 18.2442 61.1425 18.801C62.4169 19.7937 63.1989 21.5017 64.2288 22.1849C64.879 22.6152 65.6315 22.6965 66.2436 22.402C66.9267 22.0736 67.2769 21.3791 67.4815 20.8846C68.6692 18.0177 68.3207 14.5412 66.2782 11.9631C66.9891 12.082 67.6809 12.3462 68.2982 12.7444C68.8461 13.0992 69.538 12.6368 69.4946 11.9423C69.3524 9.67938 68.0676 7.48065 66.0546 6.06325L66.0529 6.06141ZM41.267 13.488L40.8769 13.4655C40.5856 13.4485 40.3602 13.1786 40.3758 12.8596C40.3914 12.5425 40.6324 12.2953 40.9324 12.3142L41.3225 12.3368C41.6138 12.3538 41.8392 12.6237 41.8236 12.9427C41.808 13.2635 41.5548 13.505 41.267 13.488ZM45.0781 7.83733C44.0568 8.245 43.2177 9.1491 42.8328 10.257C42.7287 10.5552 42.4235 10.7061 42.1495 10.5929C41.8756 10.4796 41.7386 10.1475 41.8409 9.85121C42.3334 8.43381 43.4066 7.2768 44.714 6.75589C44.9879 6.64642 45.2931 6.79936 45.3937 7.09945C45.4943 7.39765 45.352 7.7298 45.0781 7.83927V7.83733ZM64.1698 15.9831C63.9063 15.9831 63.6774 15.7698 63.6445 15.4773C63.5127 14.3109 63.1434 13.1635 62.5764 12.1632C62.4238 11.8914 62.5001 11.5366 62.7498 11.3705C62.9994 11.2025 63.3254 11.2874 63.478 11.5592C64.123 12.7011 64.5444 14.0071 64.6952 15.3377C64.7334 15.6793 64.4888 15.9851 64.1698 15.9851V15.9831Z" fill="black"/>
<path d="M132.185 68.1375C132.025 67.8959 131.772 67.7506 131.496 67.7751L126.133 68.0526C110.104 68.8831 94.9652 69.672 79.3586 71.1592C79.0413 71.1932 78.7708 71.4234 78.6755 71.7593C74.9806 84.2497 71.2389 95.7323 68.019 107.996C68.3641 108.629 69.283 108.517 69.4581 107.743C69.4893 107.611 69.5171 107.474 69.5483 107.328C72.0572 106.107 74.5714 104.914 77.1878 104.008C78.046 103.714 78.9615 103.45 79.8354 103.697C80.7041 103.944 81.4704 104.884 81.2641 105.841C81.0474 106.849 79.8666 107.598 80.1423 108.589C80.4371 109.555 81.8519 109.682 82.027 110.663C82.2385 111.833 80.4127 112.518 80.5601 113.7C80.6555 114.449 81.5242 114.853 81.656 115.595C81.8155 116.518 80.8202 117.11 80.274 117.86C80.0036 117.576 79.655 117.393 79.2528 117.318C79.0378 117.271 79.1331 117.273 76.6953 117.894C76.2722 118.003 76.007 118.469 76.1076 118.937C76.2081 119.398 76.6312 119.692 77.0612 119.577C77.7444 119.403 78.4223 119.232 79.1106 119.058C79.4591 119.224 79.3065 120.292 79.1002 120.649C78.9684 120.879 78.6286 121.202 78.242 121.48C90.2838 120.268 104.314 118.379 116.165 115.482C116.441 115.412 116.663 115.193 116.748 114.906C121.353 99.458 126.572 83.9988 132.27 68.9699C132.37 68.6924 132.339 68.3829 132.185 68.1394V68.1375ZM100.529 97.8066C97.6077 98.2388 94.9704 96.4345 94.6375 93.7733C94.2994 91.1103 96.3957 88.5983 99.3173 88.1604C102.239 87.7282 104.881 89.5324 105.214 92.1936C105.547 94.8547 103.451 97.3687 100.529 97.8066ZM119.442 86.5769L115.25 105.131C115.191 105.39 114.974 105.569 114.737 105.569C114.388 105.569 114.142 105.212 114.223 104.854L118.411 86.3051C118.485 85.9937 118.766 85.8087 119.051 85.8785C119.337 85.9597 119.512 86.2711 119.442 86.5749V86.5769ZM120.294 81.4717L120.051 81.7415C119.839 81.9717 119.512 81.9717 119.299 81.7415C119.092 81.5169 119.092 81.1546 119.299 80.93L119.546 80.66C119.753 80.4354 120.086 80.4354 120.292 80.66C120.498 80.8846 120.498 81.2471 120.292 81.4717H120.294Z" fill="black"/>
<path d="M36.67 110.899C31.6331 109.708 28.6196 108.308 27.3296 107.849C24.5554 106.86 24.0543 106.564 23.9746 105.864C23.4024 100.808 25.5558 94.1982 26.5424 89.3798C26.6377 88.9136 27.0574 88.6192 27.4909 88.723C27.9191 88.8268 28.1879 89.2891 28.0925 89.7553C27.1458 94.3868 25.1293 100.666 25.5177 105.3C26.0535 105.575 27.3556 106.039 27.8255 106.207C29.1329 106.673 32.0666 108.044 37.0081 109.212C43.8015 110.818 48.691 111.609 55.4046 110.571C55.8364 110.505 56.2403 110.831 56.3027 111.305C56.3634 111.777 56.0617 112.215 55.6282 112.283C53.792 112.566 51.9212 112.73 50.0642 112.768C45.5579 112.866 40.9909 111.922 36.6718 110.901L36.67 110.899Z" fill="black"/>
<path d="M45.4228 127.214C45.402 127.214 45.3811 127.214 45.3586 127.212C28.859 125.789 31.0125 125.31 14.8891 121.901C10.974 121.073 6.95491 119.974 4.62284 116.494C2.96178 114.018 2.59941 110.817 2.46243 108.014C2.05497 99.6535 3.14379 91.0396 5.60763 83.1071C5.74807 82.6541 6.1972 82.4125 6.61333 82.5654C7.02946 82.7183 7.25142 83.209 7.11097 83.6601C4.71129 91.3869 3.65008 99.778 4.04714 107.924C4.17718 110.602 4.49282 113.369 5.9042 115.475C7.89643 118.449 11.5843 119.442 15.1908 120.203C31.5187 123.655 29.0688 124.072 45.4817 125.487C45.9186 125.525 46.2446 125.94 46.2099 126.418C46.177 126.871 45.8302 127.214 45.4193 127.214H45.4228Z" fill="black"/>
<path d="M33.6909 152.078C37.8834 173.235 41.5732 192.171 45.7657 213.328L33.6909 152.078Z" fill="black"/>
<path d="M45.7621 214.191C45.3963 214.191 45.0669 213.914 44.9871 213.508C40.8015 192.379 37.0823 173.302 32.9124 152.258C32.8205 151.792 33.0927 151.331 33.5209 151.231C33.9492 151.131 34.3723 151.428 34.4642 151.894C38.6498 173.023 42.3689 192.1 46.5389 213.144C46.6308 213.61 46.3586 214.07 45.9303 214.17C45.8749 214.184 45.8176 214.189 45.7621 214.189V214.191Z" fill="black"/>
<path d="M7.40647 213.465C6.98167 213.346 6.72501 212.876 6.83424 212.413L21.1232 151.458C21.2307 150.995 21.6624 150.716 22.0889 150.835C22.5137 150.954 22.7704 151.424 22.6611 151.886L8.37221 212.842C8.26471 213.302 7.83474 213.583 7.40647 213.465Z" fill="black"/>
<path d="M40.9492 192.073C39.3159 192.059 14.8421 191.861 13.2088 191.848C12.7701 191.844 12.4182 191.455 12.4199 190.978C12.4234 190.502 12.7789 190.119 13.2141 190.119C14.8474 190.132 39.321 190.331 40.9543 190.344C41.393 190.347 41.745 190.736 41.7433 191.214C41.7398 191.689 41.3844 192.073 40.9492 192.073Z" fill="black"/>
<path d="M72.6507 111.476C72.4687 111.042 72.6437 110.529 73.0425 110.33C76.9334 108.392 80.4913 107.379 80.4583 105.961C80.4358 104.887 79.2412 104.606 78.3188 105.018C74.6395 106.661 69.6007 108.911 65.6354 110.978C65.2383 111.183 64.765 111.002 64.576 110.572C64.387 110.142 64.5534 109.626 64.9487 109.419C68.954 107.331 74.017 105.07 77.7154 103.419C79.6937 102.534 81.9928 103.594 82.0448 105.92C82.1107 108.804 78.3794 109.574 73.7014 111.903C73.3008 112.103 72.831 111.908 72.6489 111.476H72.6507Z" fill="black"/>
<path d="M80.4396 121.563C79.9506 122.423 78.7074 123.314 77.8509 123.637C77.8509 123.637 77.8474 123.639 77.8405 123.642C70.9622 126.262 61.3426 126.966 54.0187 127.162C52.3039 127.208 50.5197 127.232 48.661 127.232C47.6016 127.232 46.5283 127.227 45.4273 127.215C44.9887 127.204 44.6384 126.817 44.6436 126.34C44.6488 125.862 45.0043 125.486 45.4377 125.486H45.4429C48.5032 125.526 51.3936 125.509 54.1088 125.428C64.3526 125.133 72.1343 123.988 77.3151 122.012C77.8266 121.817 78.8218 121.119 79.0941 120.645C79.3091 120.272 79.4443 119.217 79.1045 119.054C79.0507 119.069 77.1192 119.558 77.055 119.573C76.6268 119.688 76.202 119.394 76.1014 118.934C76.0009 118.467 76.2661 117.999 76.6891 117.89C76.9492 117.82 77.2076 117.758 77.4729 117.688C78.912 117.343 78.9952 117.26 79.2466 117.314C79.9402 117.444 80.4343 117.892 80.6909 118.507C81.0776 119.453 80.8748 120.823 80.4361 121.561L80.4396 121.563Z" fill="black"/>
<path d="M78.3556 118.416C78.2273 117.959 78.4631 117.476 78.8827 117.336C80.3981 116.832 80.8107 115.188 80.5749 115.016C79.9611 114.571 79.0838 114.801 78.4562 115.073C77.617 115.437 77.5042 115.333 76.5627 115.826C76.1674 116.034 75.6923 115.853 75.5033 115.422C75.3126 114.992 75.4791 114.475 75.8744 114.269C76.9147 113.724 77.2164 113.75 77.8684 113.467C79.2745 112.857 80.516 112.895 81.4558 113.578C83.07 114.75 81.9984 118.106 79.3473 118.989C78.9225 119.129 78.4822 118.867 78.3556 118.416Z" fill="black"/>
<path d="M78.8195 114.03C78.7016 113.569 78.9478 113.094 79.3709 112.965C81.6821 112.261 81.4914 109.795 79.3813 109.583C78.9443 109.54 78.6236 109.119 78.6635 108.643C78.7034 108.168 79.0935 107.819 79.527 107.862C83.4022 108.251 83.794 113.415 79.7992 114.63C79.3813 114.758 78.9391 114.494 78.8212 114.03H78.8195Z" fill="black"/>
<path d="M72.6512 111.477C72.4691 111.043 72.6442 110.53 73.043 110.331C76.9338 108.393 80.4918 107.38 80.4588 105.962C80.4363 104.888 79.2417 104.607 78.3192 105.019C74.6399 106.662 69.6012 108.912 65.6358 110.979C65.2388 111.184 64.7655 111.003 64.5765 110.573C64.3875 110.143 64.5539 109.627 64.9492 109.42C68.9545 107.332 74.0175 105.071 77.7159 103.42C79.6942 102.535 81.9933 103.595 82.0453 105.921C82.1112 108.804 78.3799 109.575 73.7019 111.904C73.3013 112.104 72.8315 111.909 72.6494 111.477H72.6512Z" fill="black"/>
<path d="M69.4547 107.74C69.2795 108.516 68.3606 108.627 68.0156 107.993C67.8994 107.802 67.8561 107.572 67.9098 107.336C68.1005 106.477 68.2375 105.769 68.1647 105.094C68.1282 104.76 67.4867 104.586 67.1053 104.518C64.7923 104.08 62.7914 104.697 61.1546 106.362C60.1854 107.347 59.2543 108.661 58.7827 109.716C58.0163 111.439 57.2864 112.168 55.1832 112.343C54.3804 112.43 48.4036 112.883 47.0582 112.649C46.6247 112.579 46.3282 112.136 46.3958 111.664C46.4652 111.192 46.8726 110.869 47.3009 110.943C48.3169 111.116 53.4146 110.763 55.0618 110.62C56.5286 110.493 56.8095 110.193 57.3592 108.961C58.0215 107.468 59.1953 105.988 60.0692 105.094C62.0597 103.071 64.5842 102.282 67.3792 102.812C68.5531 103.038 69.5865 103.59 69.7408 104.886C69.8362 105.751 69.6749 106.823 69.4547 107.738V107.74Z" fill="black"/>
<path d="M78.3522 118.416C78.2239 117.96 78.4597 117.477 78.8793 117.337C80.3947 116.833 80.8073 115.189 80.5715 115.017C79.9577 114.572 79.0804 114.802 78.4528 115.074C77.6136 115.438 77.5008 115.334 76.5593 115.827C76.164 116.035 75.6889 115.853 75.4999 115.423C75.3092 114.993 75.4757 114.476 75.871 114.27C76.9113 113.725 77.213 113.751 77.8649 113.468C79.2711 112.858 80.5126 112.896 81.4523 113.579C83.0666 114.751 81.995 118.107 79.3439 118.99C78.9191 119.13 78.4788 118.868 78.3522 118.416Z" fill="black"/>
<path d="M78.8195 114.029C78.7016 113.568 78.9478 113.093 79.3709 112.964C81.6821 112.26 81.4914 109.794 79.3813 109.582C78.9443 109.539 78.6236 109.118 78.6635 108.642C78.7034 108.167 79.0935 107.818 79.527 107.861C83.4022 108.25 83.794 113.414 79.7992 114.629C79.3813 114.757 78.9391 114.493 78.8212 114.029H78.8195Z" fill="black"/>
<path d="M61.3304 192.793C61.3062 192.793 61.2819 192.793 61.2576 192.789C60.8207 192.745 60.4981 192.325 60.538 191.851C65.0097 138.005 64.9577 140.572 64.5919 138.994C64.2486 137.514 63.1631 136.11 61.613 135.142C60.1375 134.219 58.4141 133.734 56.7495 133.264C56.3247 133.143 56.0698 132.673 56.1791 132.211C56.2901 131.748 56.7235 131.471 57.1465 131.592C58.9151 132.09 60.7426 132.607 62.4037 133.643C64.3526 134.861 65.6773 136.612 66.1315 138.571C66.4454 139.922 66.3292 141.315 66.2286 142.542L62.1211 192.007C62.0847 192.457 61.7379 192.794 61.3304 192.794V192.793Z" fill="black"/>
<path d="M68.6922 179.493C68.3628 179.178 68.3316 178.631 68.6229 178.274C69.0425 177.759 68.6437 176.551 68.5865 176.275C68.0108 174.148 68.1478 173.318 69.3268 171.887C69.5019 171.674 69.6684 171.472 69.7898 171.27C70.518 170.066 70.0672 168.297 69.5869 166.737C69.4811 166.389 69.5869 166.006 69.8521 165.78L70.4555 165.268C70.8023 164.974 71.3 165.042 71.5705 165.417C71.8409 165.793 71.7785 166.336 71.4335 166.631L71.2688 166.771C71.6953 168.241 72.1773 170.464 71.1179 172.219C70.6914 172.927 70.0793 173.423 69.9077 173.954C69.7291 174.507 69.9666 175.264 70.1799 176.049C70.5665 177.509 70.4434 178.642 69.8141 179.418C69.5228 179.776 69.0217 179.808 68.694 179.493H68.6922Z" fill="black"/>
<path d="M18.8042 138.766C15.6729 136.707 13.1899 133.54 11.8167 129.85C11.6519 129.409 11.8479 128.905 12.2536 128.726C12.6593 128.546 13.1223 128.76 13.287 129.201C14.5336 132.548 16.7843 135.42 19.6244 137.287C19.9989 137.534 20.1202 138.064 19.8931 138.474C19.6642 138.885 19.1735 139.012 18.8025 138.766H18.8042Z" fill="black"/>
<path d="M19.7402 133.049C19.5409 133.049 19.3397 132.968 19.1854 132.804L17.6162 131.138C17.3024 130.804 17.2955 130.256 17.6024 129.915C17.9093 129.573 18.4121 129.567 18.7259 129.899L20.2951 131.566C20.609 131.9 20.6158 132.447 20.3089 132.789C20.1529 132.963 19.9466 133.049 19.7402 133.049Z" fill="black"/>
<path d="M75.4397 135.424C75.0062 135.346 74.7149 134.901 74.786 134.429C74.89 133.75 74.0856 132.997 73.4822 133.212C72.8095 133.453 72.1991 132.676 72.532 131.989C72.8163 131.4 72.6031 130.543 72.0847 130.192C71.7119 129.939 71.5974 129.407 71.8298 129.001C72.0621 128.595 72.5528 128.471 72.9239 128.724C73.7891 129.309 74.2745 130.42 74.2433 131.509C75.509 131.817 76.5858 133.208 76.3552 134.714C76.2911 135.137 75.868 135.503 75.4415 135.424H75.4397Z" fill="black"/>
<path d="M94.4445 191.104C94.0907 191.104 93.7682 190.845 93.6763 190.456L85.2895 155.201C85.1786 154.738 85.4352 154.267 85.86 154.148C86.2865 154.029 86.7183 154.306 86.8275 154.769L95.2143 190.024C95.3253 190.487 95.0686 190.958 94.6438 191.077C94.578 191.096 94.5103 191.106 94.4445 191.106V191.104Z" fill="black"/>
<path d="M103.181 183.047C103.028 183.047 102.874 182.999 102.739 182.899C101.551 182.031 100.946 180.363 101.267 178.845C101.308 178.651 101.364 178.458 101.421 178.268C101.508 177.975 101.589 177.7 101.567 177.505C101.529 177.181 101.199 176.867 100.818 176.503C100.62 176.314 100.414 176.12 100.225 175.895C99.1255 174.606 98.9677 172.913 98.8151 171.275C98.6833 169.862 98.5585 168.527 97.8285 167.661C97.5321 167.31 97.5529 166.763 97.8754 166.44C98.1979 166.117 98.7006 166.14 98.9971 166.491C100.086 167.782 100.244 169.469 100.395 171.1C100.526 172.515 100.651 173.853 101.388 174.72C101.522 174.876 101.688 175.035 101.863 175.201C102.383 175.695 103.028 176.311 103.143 177.286C103.21 177.864 103.058 178.381 102.933 178.796C102.891 178.942 102.846 179.087 102.815 179.232C102.642 180.055 102.982 180.993 103.625 181.463C103.989 181.729 104.086 182.267 103.842 182.663C103.687 182.911 103.438 183.045 103.183 183.045L103.181 183.047Z" fill="black"/>
<path d="M80.1469 218.653C79.2956 218.163 78.3818 217.887 77.4993 217.619C74.224 216.628 67.9717 214.012 66.7978 210.519C66.6747 210.157 66.5654 209.824 66.4718 209.521C66.1892 208.603 64.9495 208.811 64.927 209.775L53.4556 209.485V209.47C53.4591 208.992 53.1054 208.603 52.6667 208.6H52.6615C52.2245 208.6 51.8708 208.983 51.8674 209.458C51.8518 211.965 51.8345 214.19 51.8431 216.183C51.8553 219.822 51.6524 222.923 53.5198 224.861C54.8792 226.273 56.854 226.533 58.7595 226.678C77.4837 228.111 77.6017 228.307 79.3789 227.724C80.6949 227.29 82.7668 225.416 82.9316 223.721C83.1153 221.962 81.5548 219.465 80.1469 218.653ZM73.9813 222.211C73.8564 222.211 73.7299 222.164 73.6293 222.064C71.3389 219.839 68.5854 218.114 65.669 217.074C65.3916 216.976 65.2391 216.649 65.331 216.347C65.4212 216.045 65.721 215.879 65.9985 215.979C69.0536 217.066 71.9371 218.874 74.3368 221.203C74.6974 221.554 74.4685 222.209 73.9847 222.209L73.9813 222.211Z" fill="black"/>
<path d="M119.842 212.05C118.51 211.501 117.125 211.431 115.847 211.149C110.333 209.96 106.682 208.047 105.569 205.765C104.7 203.962 104.393 203.123 104.142 201.86C104.048 201.394 103.625 201.096 103.197 201.199C102.779 201.299 102.512 201.741 102.586 202.196L91.9524 204.263C91.8779 203.811 91.493 203.498 91.0699 203.557C90.6347 203.619 90.3296 204.053 90.3868 204.527C91.3456 212.214 91.323 212.444 91.8692 216.255C92.1761 218.342 92.6113 220.486 94.2377 221.781C95.7687 223.006 97.754 222.993 99.6561 222.877C118.578 221.771 118.543 221.966 120.21 221.152C121.463 220.548 123.287 218.404 123.239 216.681C123.192 214.913 121.331 212.656 119.844 212.05H119.842ZM118.408 217.108C118.176 217.108 117.962 216.94 117.898 216.683C117.616 215.553 116.678 214.617 115.616 214.409C115.329 214.352 115.138 214.052 115.188 213.739C115.24 213.426 115.516 213.216 115.802 213.275C117.272 213.563 118.524 214.811 118.918 216.379C119.01 216.747 118.753 217.108 118.406 217.108H118.408Z" fill="black"/>
</svg>
