<svg width="29" height="30" viewBox="0 0 29 30" fill="none" xmlns="http://www.w3.org/2000/svg">
<path d="M26.9453 13.5672H2.05469C1.28667 13.5672 0.7 14.2292 0.7 15C0.7 15.7708 1.28667 16.4328 2.05469 16.4328H26.9453C27.7133 16.4328 28.3 15.7708 28.3 15C28.3 14.2292 27.7133 13.5672 26.9453 13.5672Z" fill="#018076" stroke="#018076" stroke-width="0.6"/>
<path d="M26.9453 4.50469H2.05469C1.28667 4.50469 0.7 5.16671 0.7 5.9375C0.7 6.70829 1.28667 7.37031 2.05469 7.37031H26.9453C27.7133 7.37031 28.3 6.70829 28.3 5.9375C28.3 5.16671 27.7133 4.50469 26.9453 4.50469Z" fill="#018076" stroke="#018076" stroke-width="0.6"/>
<path d="M26.9453 22.6297H2.05469C1.28667 22.6297 0.7 23.2917 0.7 24.0625C0.7 24.8333 1.28667 25.4953 2.05469 25.4953H26.9453C27.7133 25.4953 28.3 24.8333 28.3 24.0625C28.3 23.2917 27.7133 22.6297 26.9453 22.6297Z" fill="#018076" stroke="#018076" stroke-width="0.6"/>
</svg>
