<svg width="80" height="101" viewBox="0 0 80 101" fill="none" xmlns="http://www.w3.org/2000/svg">
<path d="M75.4414 19.9518C75.1331 19.7617 74.8268 19.632 74.5258 19.5476C74.5347 19.381 74.5436 19.2145 74.5511 19.0474C74.5594 18.8823 74.5661 18.7363 74.5485 18.5932C74.6922 18.5803 74.8331 18.5548 74.9655 18.4991C75.3296 18.3443 75.2257 17.8731 74.8792 17.7874C74.6365 17.728 74.3829 17.7862 74.1395 17.8208C73.8658 17.8605 73.5913 17.8983 73.3147 17.9219C72.8426 17.9642 72.9536 18.6336 73.4024 18.6342C73.4994 18.6345 73.596 18.6279 73.6921 18.6262C73.6366 18.8785 73.6496 19.1702 73.6606 19.4362C73.0626 19.446 72.4965 19.6383 71.9878 19.9576C71.9115 19.7099 71.8202 19.4624 71.6784 19.2676C71.8017 19.2064 71.9191 19.136 72.0152 19.0383C72.2187 18.8361 72.0429 18.4366 71.7716 18.4211C71.2976 18.3949 70.7576 18.6875 70.344 18.9038C69.9069 19.1331 70.1569 19.8274 70.6332 19.6298C70.7232 19.5923 70.8199 19.5626 70.9165 19.533C70.9009 19.8802 71.061 20.2316 71.2627 20.5248C70.9443 20.8299 70.6625 21.1803 70.4236 21.5608C70.2063 21.3502 69.9603 21.1223 69.6928 21.0556C69.7267 20.9841 69.76 20.9141 69.7856 20.8391C69.914 20.4476 69.4302 20.1144 69.1499 20.4573C68.888 20.7766 68.7091 21.163 68.4974 21.5187C68.2776 21.8892 68.896 22.2503 69.1415 21.9041C69.1634 21.8721 69.1873 21.8394 69.2106 21.808C69.2849 21.8878 69.38 21.9501 69.4911 22.0209C69.6633 22.1295 69.8315 22.2396 70.0062 22.3426C69.891 22.6075 69.7928 22.8746 69.7219 23.1436C69.6617 23.3724 69.5966 23.5777 69.5301 23.7675C69.3093 23.6033 69.0717 23.4287 68.8127 23.3805C68.8397 23.3176 68.8722 23.2571 68.8924 23.1947C69.0081 22.8557 68.648 22.5293 68.3374 22.7549C67.9309 23.047 67.7827 23.592 67.5698 24.0233C67.3848 24.3972 67.972 24.7581 68.202 24.4019C68.265 24.3049 68.3325 24.2049 68.3993 24.1028C68.5957 24.3276 68.8925 24.4565 69.1752 24.5645C68.5735 25.6147 67.8035 25.6996 66.9588 25.6747C66.9524 25.3098 66.8283 24.8895 66.6241 24.5985C66.667 24.5789 66.7132 24.5672 66.7533 24.5464C67.0984 24.367 66.9882 23.8567 66.5851 23.8839C66.1988 23.9101 65.8203 24.11 65.4588 24.2394C65.0184 24.3995 65.2864 25.0519 65.7258 24.9096C65.7831 24.8911 65.8431 24.8739 65.9017 24.856C65.9171 25.0197 65.9545 25.178 65.9977 25.342C66.0237 25.4425 66.0437 25.5453 66.0672 25.648C65.6023 25.6504 65.1241 25.7067 64.6488 25.9444C64.4752 25.8005 64.2958 25.6475 64.1019 25.5395C64.1947 25.4421 64.2775 25.337 64.3398 25.2033C64.4931 24.8688 64.1472 24.613 63.8454 24.6953C63.346 24.8318 62.9488 25.4205 62.699 25.8459C62.5018 26.1831 62.9944 26.5266 63.2746 26.3027C63.3478 26.2432 63.4139 26.1773 63.4842 26.1131C63.5925 26.2671 63.7395 26.3962 63.9017 26.5088C63.468 26.991 63.2503 27.6253 63.1581 28.2968C62.8869 28.1773 62.6106 28.0737 62.3199 28.0879C62.317 28.0487 62.3235 28.0068 62.3186 27.9683C62.2654 27.5783 61.7715 27.5485 61.6032 27.8682C61.4224 28.2092 61.3754 28.6487 61.3516 29.0304C61.3275 29.4319 61.8705 29.6118 62.0443 29.2217C62.1014 29.0923 62.1546 28.9531 62.2022 28.8114C62.4808 28.9672 62.7837 29.0971 63.0969 29.157C63.0924 29.6545 63.1307 30.1406 63.1767 30.5705C56.6782 36.5803 50.2272 42.6403 43.7791 48.7015C42.6223 49.7881 41.4663 50.8767 40.3094 51.9633C37.3243 49.4728 34.1 47.8504 30.1292 48.2761C27.6239 48.5448 24.6557 49.9428 23.226 52.0916C22.1894 53.6498 22.2995 55.8981 21.8041 57.6405C20.9445 60.6654 15.6205 59.7816 13.2121 60.2538C13.0076 60.2935 12.8098 60.3443 12.612 60.3951C9.26171 60.981 7.32076 63.271 6.37454 66.1414C6.13695 66.7837 5.95413 67.4594 5.83522 68.1626C5.82314 68.2368 5.83136 68.2982 5.8515 68.3548C5.43962 70.9879 5.67179 73.8377 6.29299 76.206C8.53814 84.7726 17.9661 90.8742 26.6896 89.6072C30.9539 88.9882 34.0995 87.4412 35.9571 83.4352C36.9766 81.2379 37.4452 78.7945 38.2583 76.5187C39.0703 74.2489 41.4169 73.9669 43.4093 73.1526C50.9113 70.0851 48.5054 60.5084 44.7683 55.6051C52.4538 48.4422 60.0281 41.1589 67.314 33.6427C67.3178 33.6377 67.3182 33.6329 67.3233 33.6285C67.3531 33.6281 67.376 33.6362 67.4082 33.6302C71.1617 32.9823 74.6034 30.7487 76.6647 27.5296C78.2606 25.0354 78.105 21.585 75.448 19.948L75.4414 19.9518ZM23.2706 74.0611C23.1473 73.9189 23.0213 73.7756 22.8974 73.6348C29.8562 67.5528 36.539 61.1324 43.2708 54.8009C50.9039 47.6222 58.5493 40.4454 65.9793 33.0572C66.1388 33.1686 66.3021 33.275 66.4678 33.3758C52.3309 47.2137 37.6736 60.5043 23.2726 74.0603L23.2706 74.0611ZM37.3279 62.4729C37.7106 64.1965 37.1202 65.7922 35.7751 67.0494C34.5677 68.1772 32.6941 68.7795 31.1636 68.0984C33.2204 66.2286 35.2749 64.3527 37.3279 62.4729ZM23.0682 79.7773C22.036 78.402 20.758 77.2124 19.5909 75.9561C18.3913 74.6645 17.2378 73.3264 15.9957 72.0761C16.1217 71.9896 16.2502 71.9008 16.378 71.81C16.5516 72.0151 16.7779 72.2048 16.9101 72.3491C17.7035 73.2185 18.4918 74.0924 19.2865 74.959C20.6446 76.441 22.1111 77.9083 23.3489 79.5024C23.2529 79.5919 23.1578 79.6834 23.0662 79.7781L23.0682 79.7773ZM24.2472 78.7234C24.0111 78.9248 23.7741 79.1208 23.543 79.326C22.5595 77.7219 21.0398 76.3327 19.7931 74.9745C18.8454 73.943 17.8326 72.4917 16.6705 71.5998C17.3327 71.118 17.9851 70.5825 18.5138 70.0054C20.4266 72.7374 22.6736 75.6374 25.1245 77.8972C24.8227 78.1598 24.5499 78.4662 24.2466 78.7247L24.2472 78.7234ZM22.7513 73.4729C22.6283 73.3342 22.5032 73.1962 22.3781 73.0582C29.3982 66.9214 36.13 60.4328 42.9125 54.037C50.4351 46.9432 57.9712 39.8486 65.3059 32.56C65.4584 32.68 65.6107 32.7966 65.7663 32.9096C51.6228 46.6322 37.3017 60.1861 22.7499 73.4723L22.7513 73.4729ZM22.2328 72.8983C22.1121 72.7655 21.9906 72.6308 21.8685 72.4974C28.8195 66.4219 35.5029 60.0233 42.2329 53.7076C49.8165 46.5903 57.4167 39.4768 64.7958 32.1462C64.8989 32.2317 65.0026 32.3159 65.1063 32.4001C50.9995 46.0871 36.7472 59.6457 22.2328 72.8983ZM21.7232 72.3375C21.6063 72.2113 21.4907 72.0856 21.3738 71.9594C28.3455 65.8664 35.0319 59.4261 41.7695 53.0773C49.2911 45.9896 56.8241 38.8986 64.1597 31.6155C64.3063 31.7378 64.4528 31.8602 64.6002 31.9846C50.5131 45.6487 36.2145 59.108 21.7226 72.3389L21.7232 72.3375ZM21.2279 71.8009C21.1188 71.6831 21.0098 71.5652 20.9022 71.448C28.7944 64.2133 36.6052 56.8925 44.4065 49.5593C50.8638 43.4921 57.435 37.5084 63.6919 31.2296C63.7821 31.303 63.8724 31.3765 63.962 31.4513C49.902 45.0906 35.6927 58.5948 21.2279 71.8009ZM27.4311 64.1282C26.6883 60.8081 30.0517 57.7289 33.2843 58.5759C31.3298 60.4219 29.3783 62.2724 27.4311 64.1282ZM16.8365 60.8471C13.661 65.9203 10.5633 71.0499 7.47299 76.1778C7.43057 76.0389 7.39074 75.8977 7.35091 75.7566C10.4134 70.855 13.5285 65.9378 16.3286 60.8807C16.4973 60.867 16.6662 60.8568 16.8365 60.8471ZM6.76115 72.5171C6.72955 72.1496 6.70391 71.7797 6.69595 71.4108C6.88127 71.5234 7.07258 71.622 7.28405 71.6812C7.11001 71.9605 6.93519 72.2378 6.76175 72.5157L6.76115 72.5171ZM7.43077 71.4464C7.18397 71.3737 6.94216 71.2932 6.69756 71.2114C6.69301 70.8308 6.69739 70.4523 6.71805 70.0742C7.12454 70.2617 7.51848 70.467 7.93055 70.6453C7.7639 70.9112 7.59664 71.1785 7.42938 71.4459L7.43077 71.4464ZM8.0693 70.4253C7.66401 70.235 7.20398 69.9038 6.74471 69.778C6.76518 69.4924 6.78288 69.2056 6.81964 68.9204C6.83057 68.8259 6.85002 68.7383 6.86313 68.6463C7.46195 68.9263 8.06991 69.2002 8.67871 69.453C8.47598 69.7761 8.27264 70.1007 8.07069 70.4259L8.0693 70.4253ZM8.81228 69.2374C8.21611 68.9321 7.57689 68.5009 6.90965 68.3537C6.97239 68.0003 7.04603 67.6597 7.13969 67.3377C7.41756 67.4684 7.7052 67.5802 7.98906 67.697C8.46308 67.892 8.93229 68.1097 9.42289 68.2622C9.21757 68.5876 9.01562 68.9128 8.81168 69.2388L8.81228 69.2374ZM9.5453 68.0649C9.15755 67.8491 8.74185 67.6907 8.33215 67.5183C7.96969 67.3662 7.60489 67.1965 7.23047 67.0608C7.34587 66.7034 7.47434 66.3616 7.62641 66.0415C8.47027 66.3752 9.29114 66.7818 10.1284 67.1309C9.93305 67.4407 9.74126 67.7537 9.5453 68.0649ZM10.2093 67.0035C9.7943 66.7247 9.31026 66.5684 8.85593 66.362C8.47464 66.1886 8.11389 65.9826 7.72376 65.8567C7.88416 65.5401 8.06182 65.2409 8.25672 64.959C8.57824 65.1184 8.90893 65.2602 9.23883 65.4C9.74858 65.6152 10.2667 65.9069 10.797 66.078C10.6008 66.3859 10.4033 66.6931 10.208 67.0029L10.2093 67.0035ZM10.9011 65.9159C10.4709 65.6455 9.94735 65.4739 9.48406 65.2769C9.11168 65.1172 8.73495 64.9524 8.34759 64.8276C8.59865 64.4838 8.87331 64.1617 9.17653 63.865C9.93735 64.2888 10.7992 64.4847 11.6035 64.8147C11.3701 65.1827 11.1345 65.548 10.9011 65.9159ZM11.7654 64.56C11.3199 64.3789 10.8579 64.2519 10.4059 64.0862C10.0596 63.9576 9.7262 63.803 9.38156 63.6784C9.68254 63.4023 10.0055 63.1439 10.3507 62.9066C11.0054 63.179 11.7035 63.3692 12.3598 63.6225C12.3598 63.6225 12.3612 63.6231 12.3626 63.6237C12.1627 63.9366 11.9647 64.2486 11.7648 64.5614L11.7654 64.56ZM12.5163 63.3804C12.5026 63.3663 12.4997 63.3501 12.4788 63.3412C11.9016 63.0837 11.2888 62.8673 10.6689 62.6941C11.1016 62.4215 11.5634 62.173 12.0517 61.9474C12.4199 62.0938 12.7947 62.2247 13.159 62.3726C12.9441 62.7088 12.7292 63.045 12.5151 63.3832L12.5163 63.3804ZM13.3041 62.1455C13.0192 62.0233 12.73 61.896 12.4341 61.7807C12.8942 61.586 13.3756 61.4071 13.8776 61.2453C13.685 61.5448 13.4953 61.8454 13.3041 62.1455ZM6.83581 73.1907C9.30335 69.1701 11.8102 65.1729 14.2819 61.1541C14.8519 61.0446 15.4412 60.9632 16.0441 60.9075C12.9723 65.62 10.1911 70.5331 7.22429 75.3154C7.04855 74.6165 6.92569 73.9057 6.83581 73.1907ZM41.011 72.746C38.7517 73.5649 37.7123 74.3662 36.8988 76.67C35.4465 80.782 34.9258 85.9285 30.1319 87.445C21.9621 90.0293 12.5313 86.7577 8.55221 78.8896C8.17452 78.1439 7.85452 77.3634 7.589 76.5632C10.8642 71.4071 14.0587 66.1553 17.0589 60.8349C17.2049 60.8281 17.3494 60.8173 17.4962 60.8124C20.1374 60.7294 22.296 60.0724 22.9085 57.2475C23.3387 55.2622 23.336 52.9706 25.0118 51.5674C25.9401 50.7913 27.031 50.2535 28.1508 49.8208C32.2441 48.2387 36.3878 49.9841 39.4395 52.7761C37.6532 54.456 35.8677 56.138 34.0844 57.8225C29.8575 56.1027 25.0241 60.5079 26.6282 64.8919C24.5417 66.8847 22.4581 68.882 20.3852 70.8889C19.8474 70.3094 19.3152 69.7322 18.8021 69.1566C18.7058 69.0475 18.5868 69.018 18.4751 69.033C18.3851 69.0242 18.2891 69.0409 18.1994 69.0967C17.6553 69.4372 17.186 69.914 16.6913 70.3237C16.2094 70.7224 15.7196 71.1127 15.2465 71.5217C15.0668 71.5571 14.9183 71.7348 14.9077 71.9321C14.8608 72.1336 14.9663 72.3326 15.1417 72.4144C17.1351 75.2768 19.8569 78.4814 22.6945 80.4952C22.7887 80.782 23.2117 80.9502 23.5008 80.6673C24.2125 79.9703 25.53 79.3032 25.9838 78.3368C26.1706 78.2235 26.2816 77.9568 26.1349 77.7352C25.4524 76.7066 24.6722 75.7105 23.8505 74.7381C26.0489 72.7453 28.2485 70.7497 30.4493 68.7514C34.6055 70.9817 39.1503 66.064 37.9822 61.8753C39.9641 60.0576 41.9394 58.2321 43.909 56.4009C48.2645 62.2094 48.7281 69.9477 41.0144 72.7458L41.011 72.746ZM74.9708 28.0965C73.2035 30.461 70.1269 32.1003 67.2868 32.6818C67.2057 32.6983 67.1399 32.7329 67.0846 32.7737C66.1193 31.9827 65.1088 31.136 64.0208 30.5124C64.022 30.5096 64.0232 30.5068 64.0224 30.5048C63.8925 28.3604 64.7041 26.6709 66.9927 26.6237C67.728 26.6082 68.2674 26.5319 68.9458 26.2771C70.103 25.8455 70.4121 24.3077 70.6628 23.2741C71.9283 18.0633 76.7448 21.0514 76.6358 24.4627C76.5931 25.8054 75.7365 27.0704 74.9708 28.0965Z" fill="black"/>
<path d="M67.0011 29.1387C67.0845 28.7064 66.6436 28.3304 66.234 28.426C65.7535 28.5376 65.5469 28.9849 65.7751 29.4119C65.824 29.5702 65.9756 29.6848 66.1325 29.714C66.1476 29.7172 66.1609 29.713 66.1752 29.7142C66.436 29.7698 66.7385 29.6745 66.8943 29.4568C66.9591 29.3671 66.979 29.2748 66.9821 29.1868C66.9873 29.1708 66.9981 29.1573 67.0025 29.1393L67.0011 29.1387Z" fill="black"/>
<path d="M69.4043 30.3039C69.4876 29.8716 69.0467 29.4956 68.6378 29.5898C68.1558 29.7008 67.95 30.1501 68.1788 30.5757C68.2278 30.734 68.3779 30.848 68.5363 30.8779C68.5514 30.881 68.5647 30.8768 68.579 30.878C68.8398 30.9336 69.1408 30.8377 69.2967 30.62C69.3615 30.5304 69.3827 30.4386 69.3845 30.35C69.3897 30.3341 69.4005 30.3205 69.4049 30.3025L69.4043 30.3039Z" fill="black"/>
<path d="M70.6478 27.8441C70.7312 27.4118 70.2888 27.0352 69.8807 27.1315C69.4015 27.2436 69.1941 27.6889 69.4215 28.1139C69.4679 28.2744 69.6229 28.3888 69.7798 28.4181C69.7949 28.4212 69.8102 28.4162 69.8253 28.4194C70.0861 28.475 70.3851 28.3799 70.541 28.1622C70.6058 28.0726 70.625 27.9816 70.629 27.8956C70.6354 27.8769 70.6456 27.8647 70.6506 27.8453L70.6478 27.8441Z" fill="black"/>
<path d="M73.7301 27.5635C73.8135 27.1312 73.3712 26.7546 72.963 26.8508C72.4819 26.9638 72.2753 27.4111 72.5041 27.8367C72.553 27.995 72.7046 28.1096 72.8609 28.1402C72.876 28.1434 72.8913 28.1384 72.9056 28.1396C73.1664 28.1952 73.4655 28.1001 73.6213 27.8824C73.6861 27.7928 73.706 27.7004 73.7092 27.6124C73.715 27.5951 73.7251 27.5829 73.7295 27.5649L73.7301 27.5635Z" fill="black"/>
<path d="M72.6305 24.74C72.7125 24.3071 72.2716 23.9311 71.8634 24.0273C71.3809 24.1397 71.1757 24.5876 71.4045 25.0132C71.4534 25.1715 71.607 25.2853 71.7619 25.3153C71.777 25.3185 71.7903 25.3143 71.8047 25.3155C72.0654 25.371 72.3673 25.2772 72.5237 25.0581C72.5885 24.9684 72.6084 24.8761 72.6116 24.7881C72.6168 24.7721 72.6275 24.7586 72.6319 24.7406L72.6305 24.74Z" fill="black"/>
<path d="M74.2063 24.1907C74.2214 24.1938 74.2347 24.1896 74.249 24.1908C74.5092 24.2478 74.8116 24.1525 74.9675 23.9349C75.0328 23.8438 75.0535 23.7534 75.0559 23.6635C75.0611 23.6475 75.0718 23.6339 75.0756 23.6173C75.1596 23.1836 74.7167 22.8084 74.3071 22.9041C73.8252 23.015 73.6194 23.4643 73.8482 23.8899C73.8958 24.0476 74.0493 24.1614 74.2057 24.1921L74.2063 24.1907Z" fill="black"/>
<path d="M28.7876 86.6955C23.4121 87.374 18.0718 86.3211 13.4531 83.4278C13.3716 83.3763 13.2782 83.4867 13.3575 83.5472C17.4349 86.6632 23.7962 88.688 28.8677 87.0111C29.0481 86.9511 28.9686 86.6723 28.7876 86.6955Z" fill="black"/>
<path d="M30.1798 86.4039C30.0052 86.3737 29.8494 86.3995 29.6764 86.4345C29.3144 86.5075 29.4464 87.0322 29.8011 86.9263C30.0085 86.8647 30.1799 86.7529 30.2596 86.5439C30.2838 86.4799 30.2475 86.4147 30.1804 86.4025L30.1798 86.4039Z" fill="black"/>
<path d="M28.1603 51.0183C31.7066 50.2286 34.961 51.2818 38.0943 52.8783C38.1942 52.9294 38.3075 52.7878 38.2336 52.7032C36.1125 50.2689 30.9873 49.305 28.099 50.7737C27.9791 50.8348 28.011 51.0519 28.1617 51.0189L28.1603 51.0183Z" fill="black"/>
<path d="M14.6193 61.8949C14.6193 61.8949 14.6308 61.8949 14.6364 61.8973C14.7148 61.9408 14.8173 61.9434 14.8856 61.8569C15.063 61.6352 14.7169 61.3794 14.535 61.6041C14.5008 61.6456 14.4871 61.7158 14.5117 61.766C14.5401 61.8262 14.5637 61.8595 14.6207 61.8955L14.6193 61.8949ZM14.8023 61.7137C14.8023 61.7137 14.8051 61.7149 14.8064 61.7155C14.8064 61.7155 14.8037 61.7143 14.8023 61.7137Z" fill="black"/>
<path d="M14.1572 62.6242C14.1572 62.6242 14.1687 62.6242 14.1743 62.6266C14.2513 62.6696 14.3538 62.6722 14.4222 62.5857C14.5981 62.3634 14.2535 62.1081 14.0716 62.3328C14.0387 62.3749 14.0236 62.4446 14.0482 62.4948C14.0786 62.5542 14.1002 62.5882 14.1572 62.6242ZM14.3402 62.443C14.3402 62.443 14.343 62.4442 14.3444 62.4448C14.3444 62.4448 14.3416 62.4436 14.3402 62.443Z" fill="black"/>
<path d="M13.6294 63.4284C13.6294 63.4284 13.6409 63.4284 13.6464 63.4308C13.7235 63.4738 13.826 63.4764 13.8943 63.3899C14.0717 63.1682 13.7256 62.9123 13.5437 63.137C13.5109 63.1791 13.4958 63.2488 13.5203 63.299C13.5502 63.3598 13.5724 63.3924 13.6294 63.4284ZM13.8124 63.2472C13.8124 63.2472 13.8151 63.2484 13.8165 63.249C13.8165 63.249 13.8138 63.2478 13.8124 63.2472Z" fill="black"/>
<path d="M13.1681 64.1581C13.1681 64.1581 13.1796 64.1581 13.1852 64.1604C13.2636 64.204 13.3647 64.206 13.4345 64.1201C13.6118 63.8984 13.2658 63.6425 13.0839 63.8672C13.0496 63.9088 13.0359 63.979 13.0605 64.0292C13.089 64.0894 13.1125 64.1227 13.1695 64.1587L13.1681 64.1581ZM13.3511 63.9769C13.3511 63.9769 13.3539 63.9781 13.3553 63.9787C13.3553 63.9787 13.3525 63.9775 13.3511 63.9769Z" fill="black"/>
<path d="M12.7013 64.9374C12.7013 64.9374 12.7128 64.9374 12.7184 64.9397C12.7968 64.9833 12.8979 64.9853 12.9677 64.8994C13.1436 64.6771 12.799 64.4218 12.6171 64.6465C12.5828 64.6881 12.5691 64.7583 12.5937 64.8085C12.6222 64.8687 12.6457 64.902 12.7027 64.938L12.7013 64.9374ZM12.8843 64.7562C12.8843 64.7562 12.8871 64.7574 12.8885 64.7579C12.8885 64.7579 12.8871 64.7574 12.8843 64.7562Z" fill="black"/>
<path d="M12.2363 65.6677C12.2363 65.6677 12.2478 65.6677 12.2534 65.6701C12.3304 65.713 12.4329 65.7156 12.5013 65.6291C12.6786 65.4074 12.3326 65.1516 12.1507 65.3763C12.1178 65.4184 12.1027 65.488 12.1273 65.5383C12.1572 65.599 12.1793 65.6317 12.2363 65.6677ZM12.4207 65.4871C12.4207 65.4871 12.4235 65.4883 12.4249 65.4889C12.4249 65.4889 12.4221 65.4877 12.4207 65.4871Z" fill="black"/>
<path d="M11.7138 66.4729C11.7138 66.4729 11.7254 66.4729 11.7309 66.4752C11.8079 66.5182 11.9111 66.5194 11.9788 66.4343C12.1547 66.212 11.8101 65.9567 11.6282 66.1814C11.5953 66.2236 11.5803 66.2932 11.6048 66.3434C11.6347 66.4042 11.6569 66.4369 11.7138 66.4729ZM11.8968 66.2917C11.8968 66.2917 11.8996 66.2929 11.901 66.2934C11.901 66.2934 11.8982 66.2923 11.8968 66.2917Z" fill="black"/>
<path d="M11.2482 67.202C11.2482 67.202 11.2597 67.202 11.2653 67.2044C11.3437 67.2479 11.4454 67.2486 11.5145 67.1641C11.6905 66.9418 11.3459 66.6865 11.164 66.9112C11.1297 66.9527 11.116 67.023 11.1406 67.0732C11.169 67.1334 11.1926 67.1666 11.2496 67.2026L11.2482 67.202ZM11.4312 67.0208C11.4312 67.0208 11.434 67.022 11.4354 67.0226C11.4354 67.0226 11.434 67.022 11.4312 67.0208Z" fill="black"/>
<path d="M10.81 68.0349C10.81 68.0349 10.8215 68.0349 10.8271 68.0373C10.9041 68.0802 11.0066 68.0828 11.075 67.9963C11.2523 67.7746 10.9063 67.5188 10.7244 67.7434C10.6915 67.7856 10.6765 67.8552 10.701 67.9054C10.7309 67.9662 10.7531 67.9989 10.81 68.0349ZM10.993 67.8537C10.993 67.8537 10.9958 67.8549 10.9972 67.8555C10.9972 67.8555 10.9944 67.8543 10.993 67.8537Z" fill="black"/>
<path d="M10.3483 68.765C10.3483 68.765 10.3598 68.765 10.3654 68.7674C10.4424 68.8103 10.5455 68.8115 10.6133 68.7265C10.7906 68.5048 10.4446 68.2489 10.2641 68.4742C10.2298 68.5157 10.2161 68.586 10.2393 68.6356C10.2692 68.6964 10.2914 68.729 10.3483 68.765ZM10.5313 68.5838C10.5313 68.5838 10.5341 68.585 10.5355 68.5856C10.5355 68.5856 10.5327 68.5844 10.5313 68.5838Z" fill="black"/>
<path d="M9.82438 69.5687C9.82438 69.5687 9.83591 69.5687 9.84147 69.5711C9.91847 69.614 10.021 69.6167 10.0893 69.5302C10.2667 69.3085 9.92066 69.0526 9.74015 69.2779C9.70528 69.3208 9.69222 69.3897 9.71536 69.4393C9.74524 69.5001 9.76743 69.5327 9.82438 69.5687ZM10.0074 69.3875C10.0074 69.3875 10.0102 69.3887 10.0116 69.3893C10.0116 69.3893 10.0102 69.3887 10.0074 69.3875Z" fill="black"/>
<path d="M9.35739 70.2981C9.35739 70.2981 9.36891 70.2981 9.37447 70.3004C9.45148 70.3434 9.55461 70.3446 9.62235 70.2595C9.79968 70.0378 9.45366 69.7819 9.27176 70.0066C9.23889 70.0488 9.22383 70.1184 9.24837 70.1686C9.27686 70.2288 9.30043 70.2621 9.35739 70.2981ZM9.54039 70.1169C9.54039 70.1169 9.54317 70.118 9.54456 70.1186C9.54456 70.1186 9.54178 70.1175 9.54039 70.1169Z" fill="black"/>
<path d="M8.83756 71.1644C8.83756 71.1644 8.84909 71.1644 8.85465 71.1668C8.93166 71.2098 9.03419 71.2124 9.10253 71.1259C9.27986 70.9042 8.93384 70.6483 8.75333 70.8736C8.71906 70.9151 8.7054 70.9854 8.72854 71.035C8.75902 71.0944 8.78061 71.1284 8.83756 71.1644ZM9.02057 70.9832C9.02057 70.9832 9.02334 70.9844 9.02473 70.985C9.02473 70.985 9.02195 70.9838 9.02057 70.9832Z" fill="black"/>
<path d="M8.29042 71.6036C8.25555 71.6465 8.24249 71.7153 8.26702 71.7656C8.29611 71.8243 8.31968 71.8576 8.37604 71.895C8.3816 71.8974 8.38757 71.895 8.39312 71.8974C8.47152 71.9409 8.57266 71.9429 8.6424 71.857C8.81833 71.6348 8.47371 71.3795 8.29181 71.6042L8.29042 71.6036ZM8.55904 71.7138C8.55904 71.7138 8.56182 71.715 8.56321 71.7156C8.56321 71.7156 8.56182 71.715 8.55904 71.7138Z" fill="black"/>
<path d="M7.76258 72.4083C7.72832 72.4498 7.71466 72.52 7.73919 72.5702C7.76768 72.6304 7.79125 72.6637 7.84821 72.6997C7.85377 72.7021 7.85973 72.6997 7.86529 72.7021C7.94369 72.7456 8.04622 72.7482 8.11456 72.6617C8.29189 72.44 7.94588 72.1842 7.76397 72.4088L7.76258 72.4083ZM8.03181 72.5171C8.03181 72.5171 8.03459 72.5183 8.03598 72.5189C8.03598 72.5189 8.0332 72.5177 8.03181 72.5171Z" fill="black"/>
<path d="M7.29764 73.1385C7.26476 73.1806 7.24971 73.2502 7.27425 73.3005C7.30472 73.3598 7.32631 73.3939 7.38326 73.4299C7.38882 73.4323 7.39479 73.4299 7.40035 73.4323C7.47736 73.4752 7.57989 73.4778 7.64823 73.3914C7.82417 73.1691 7.47954 72.9138 7.29764 73.1385ZM7.56686 73.2473C7.56686 73.2473 7.56964 73.2485 7.57103 73.2491C7.57103 73.2491 7.56825 73.2479 7.56686 73.2473Z" fill="black"/>
<path d="M38.9827 64.2484C38.9761 64.2753 38.9868 64.2965 38.9947 64.3164C38.6846 66.459 37.1969 68.4936 35.459 69.589C34.5713 70.1477 33.609 70.4892 32.5576 70.3096C31.9812 70.2113 31.4941 70.0354 30.904 70.0421C30.1385 70.0512 29.4611 70.8522 28.9772 71.3476C27.7543 72.596 26.7104 73.2697 28.2782 74.6927C29.7251 76.0061 31.8051 75.7205 33.3813 74.8832C34.9049 74.0729 36.245 72.6432 37.4153 71.387C39.1537 69.5195 40.318 67.4372 40.9137 64.9623C41.2064 63.7466 41.3495 62.0202 40.1783 61.1724C39.8786 60.9546 39.315 61.2752 39.1482 61.5377C38.6078 62.3876 39.2182 63.2811 38.9835 64.2504L38.9827 64.2484Z" fill="black"/>
</svg>
