<svg width="89" height="80" viewBox="0 0 89 80" fill="none" xmlns="http://www.w3.org/2000/svg">
<path d="M29.1567 54.4877C29.135 54.7125 28.7431 54.6678 28.5939 54.6579C28.2657 54.6364 27.938 54.5936 27.6135 54.5405C27.0393 54.4464 26.4729 54.3101 25.9164 54.1404C25.8765 53.3361 25.9297 52.5341 26.0737 51.7404C26.1109 51.5361 26.0123 51.3258 25.8003 51.2697C25.6082 51.2185 25.372 51.3387 25.3307 51.5435C25.1386 52.4936 25.0815 53.4684 25.1553 54.435C25.1694 54.6181 25.2705 54.7546 25.4452 54.8118C26.2596 55.0795 27.0948 55.2627 27.9451 55.3702C28.3514 55.4215 28.8032 55.5042 29.205 55.3894C29.5843 55.2811 29.9683 54.9127 29.9151 54.4863C29.8548 54.0041 29.2043 53.9927 29.1567 54.4873L29.1567 54.4877Z" fill="black"/>
<path d="M29.6697 53.1714C29.2934 52.666 28.7914 52.349 28.1774 52.213C28.1712 52.2115 28.1514 52.208 28.1359 52.2054C28.1294 52.1685 28.1188 52.1041 28.1133 52.0672C28.0874 51.895 28.0628 51.7227 28.0372 51.5501C27.9853 51.1959 27.9356 50.8415 27.8797 50.488C27.8473 50.2841 27.5986 50.1669 27.4136 50.2159C27.1947 50.2736 27.114 50.4778 27.1423 50.6828C27.1928 51.0467 27.2499 51.4099 27.3048 51.7733C27.3549 52.1067 27.3479 52.5423 27.6249 52.7788C27.8532 52.9739 28.213 52.9748 28.447 53.0915C28.7066 53.2212 28.894 53.3783 29.081 53.6144C29.1947 53.7573 29.435 53.7526 29.5677 53.6491C29.6984 53.5474 29.7817 53.3216 29.6696 53.1711L29.6697 53.1714Z" fill="black"/>
<path d="M28.226 55.4552C28.2849 56.121 27.4494 56.3293 26.9489 56.4452C26.2516 56.6071 25.516 56.6424 24.8067 56.5397C24.6784 56.521 24.4588 56.5154 24.3535 56.4285C24.2545 56.3469 24.2066 56.146 24.1728 56.0289C24.0771 55.6973 24.0517 55.3556 24.0281 55.0131C23.976 54.257 23.9258 53.5006 23.8746 52.7444C23.8421 52.2603 23.0863 52.2562 23.1178 52.7453C23.1759 53.6526 23.2023 54.569 23.3 55.4727C23.3472 55.9103 23.4215 56.381 23.6543 56.7638C23.9071 57.1799 24.3427 57.2479 24.7877 57.3049C25.6704 57.4176 26.577 57.3543 27.4335 57.1108C28.1978 56.8935 29.0706 56.3771 28.9886 55.4547C28.9453 54.9689 28.1825 54.964 28.2258 55.4555L28.226 55.4552Z" fill="black"/>
<path d="M27.0332 56.6421C26.9384 56.462 26.6938 56.4013 26.5204 56.4993C26.3268 56.6088 26.2983 56.8251 26.3781 57.0131C26.6066 57.5511 26.072 58.0245 25.6095 58.1586C25.0357 58.3247 24.3774 58.2702 23.813 58.0903C23.2711 57.9177 22.8034 57.5651 22.5744 57.0329C22.3306 56.4664 22.3675 55.8099 22.3874 55.2076C22.4118 54.4758 22.4391 53.7303 22.215 53.023C22.0707 52.5673 21.3557 52.7519 21.4959 53.2131C21.9374 54.6658 21.1993 56.333 22.0595 57.6887C22.4629 58.3248 23.1295 58.7219 23.8509 58.8968C24.5903 59.076 25.4367 59.0862 26.141 58.7726C26.925 58.4234 27.4639 57.4604 27.0332 56.6418L27.0332 56.6421Z" fill="black"/>
<path d="M71.5605 45.7936C71.3487 46.4597 71.1355 47.1276 70.9237 47.7937C69.2055 53.1877 67.5572 58.6037 65.8779 64.0098C65.4624 65.3465 65.0467 66.6813 64.6331 68.0178C64.2609 69.2151 63.9568 70.468 63.4472 71.6159C63.0034 72.6106 62.2788 73.4756 61.1604 73.6865C59.8894 73.9297 58.5653 73.4185 57.3562 73.0838C54.7171 72.3545 52.08 71.6247 49.4428 70.8953C49.0661 70.7912 48.6893 70.6874 48.3142 70.5813C46.4962 70.0801 44.6779 69.577 42.8612 69.0735C42.4977 68.9717 42.1345 68.8718 41.7734 68.7717C41.5198 68.7021 41.264 68.6306 41.0104 68.5611L33.2257 66.4081C32.9046 66.3183 32.5856 66.2299 32.2668 66.1436C29.7123 65.4362 27.1577 64.7287 24.6031 64.0232C20.8551 62.9869 17.1091 61.9523 13.3627 60.9139C11.5635 60.416 9.74559 59.8196 7.92785 59.4509C6.57496 59.1758 5.75621 58.4812 5.48398 57.0055C5.20393 55.4785 5.77366 53.947 6.21673 52.5103C6.67748 51.0174 7.13832 49.5226 7.59854 48.0279C7.62987 47.9275 7.6595 47.8288 7.69048 47.7281L7.92777 46.9603C8.10395 47.2292 8.28857 47.4914 8.48539 47.7465C8.39094 48.0577 8.2944 48.3672 8.19838 48.6786C8.18871 48.7077 8.18114 48.7385 8.17143 48.7673C7.69488 50.3162 7.21614 51.8652 6.7396 53.4141C6.32638 54.754 5.81956 56.3325 6.51646 57.6659C6.52852 57.6906 6.53923 57.7174 6.54731 57.7407C6.69372 57.9608 6.82438 58.1601 6.95518 58.3578C7.76796 58.5811 9.76981 59.1248 10.3769 59.2918C15.7477 60.7642 21.1144 62.2501 26.4808 63.7341C28.2816 64.2318 30.0808 64.7294 31.8816 65.2272C32.1951 65.314 32.5064 65.4014 32.8197 65.4867C35.5989 66.2558 38.3786 67.025 41.1577 67.7925C41.5211 67.8943 41.8844 67.9942 42.2473 68.0941C42.3588 68.1243 42.4686 68.1562 42.5798 68.1864C44.302 68.6633 46.0226 69.1403 47.7449 69.6191C48.0928 69.7153 48.4388 69.8115 48.7867 69.9077C52.0833 70.8205 55.3817 71.7353 58.6813 72.6404C59.8171 72.9536 61.1668 73.2813 62.0914 72.3261C62.8233 71.5705 63.073 70.4115 63.3741 69.4386C64.1983 66.7867 65.0224 64.1328 65.8466 61.4809C67.4932 56.1773 69.1568 50.8771 70.7667 45.5608C70.9216 45.0467 71.7214 45.2868 71.5602 45.7939L71.5605 45.7936Z" fill="black"/>
<path d="M13.9422 27.6372C13.919 27.6456 13.8979 27.6554 13.8746 27.6654C13.9743 27.3367 14.0763 27.0081 14.1779 26.6792C14.958 24.146 15.7389 21.6166 16.5211 19.0851C17.5031 15.8966 18.4853 12.7099 19.475 9.52392C19.4888 9.48124 19.5071 9.44729 19.5276 9.41531C19.5315 9.40181 19.5319 9.38871 19.5362 9.37706C19.731 8.77278 20.1741 8.27399 20.7459 8.00496C21.2717 7.7562 21.9145 7.6653 22.4731 7.86404C22.4904 7.86747 22.5074 7.86933 22.5263 7.87289C24.7607 8.49968 26.9935 9.12858 29.2284 9.75883C33.208 10.8821 37.1858 12.0076 41.1656 13.1331C44.3878 14.0452 47.6134 14.9569 50.8372 15.8692C51.3259 16.0068 51.8126 16.1467 52.3012 16.2843C51.8313 16.4057 51.3658 16.5468 50.9102 16.713C50.4833 16.5924 50.0563 16.4718 49.6291 16.3493C48.4769 16.0231 47.3247 15.6972 46.1724 15.3709C42.1943 14.2436 38.216 13.1144 34.2398 11.9869C30.3022 10.8718 26.366 9.75275 22.4327 8.62762C22.4009 8.62746 22.3692 8.62569 22.3383 8.6162C22.2229 8.58298 22.1107 8.54717 21.9912 8.52749C21.9723 8.52585 21.9385 8.52241 21.9346 8.52096C21.9122 8.51972 21.8898 8.51879 21.8671 8.51758C21.8037 8.51565 21.7406 8.51718 21.6778 8.52091C21.6593 8.52304 21.6392 8.52535 21.6189 8.52577C21.6173 8.52788 21.5586 8.53463 21.553 8.53528C21.4964 8.54562 21.4404 8.55939 21.3861 8.57297C21.3247 8.58927 21.2638 8.60934 21.2047 8.63112C21.1479 8.65453 21.1268 8.66429 21.1035 8.67461C20.9941 8.72638 20.8916 8.79042 20.7916 8.85798C20.7388 8.90132 20.7167 8.91884 20.6948 8.93824C20.6476 8.98094 20.6022 9.02342 20.5592 9.06945C20.5394 9.09052 20.5211 9.1111 20.5013 9.13217C20.4478 9.1998 20.419 9.24229 20.3907 9.28663C20.3579 9.34073 20.329 9.39628 20.3001 9.45184C20.2942 9.46367 20.2882 9.47742 20.2855 9.48728C20.2735 9.51287 20.2636 9.54012 20.2556 9.56716C20.2428 9.60207 20.2261 9.63393 20.2073 9.66412C20.2036 9.68142 20.2021 9.69848 20.1964 9.71569L19.8318 10.9121C18.869 14.0577 17.8985 17.2001 16.9299 20.3425C16.3082 22.3613 15.6866 24.38 15.0647 26.3968C14.9686 26.7101 14.8724 27.0231 14.7747 27.3366C14.4931 27.427 14.2162 27.5277 13.9423 27.6375L13.9422 27.6372Z" fill="black"/>
<path d="M36.5102 43.4533C35.7292 43.5394 34.9504 43.6441 34.1739 43.7688C33.4888 43.8796 32.8055 44.0385 32.1186 44.1491C32.1374 44.2161 32.1382 44.2867 32.1143 44.3547C31.9011 44.9592 31.6566 45.5508 31.3653 46.1231C31.1424 46.5628 30.8939 46.9908 30.6234 47.4041C30.4829 47.6219 30.3343 47.8345 30.178 48.0449C29.9595 47.8277 29.7643 47.5871 29.5966 47.3284C29.7058 47.1779 29.8108 47.0222 29.9136 46.8667C29.6966 46.4032 29.4495 45.9542 29.1689 45.5238C29.0834 45.3938 28.9852 45.4819 28.8019 45.49C28.6001 45.4982 28.3659 45.3217 28.2501 45.4637C27.6141 46.2436 27.4624 47.3187 27.3093 48.2819C27.4092 48.6806 27.5918 49.0217 27.8352 49.3255C27.9865 49.1851 28.136 49.0428 28.2787 48.8939C28.398 49.1878 28.5516 49.4704 28.7182 49.7385C28.5382 49.9197 28.3517 50.0941 28.1609 50.2635C27.567 50.7962 26.9267 51.2785 26.2517 51.7031C23.9975 53.1209 21.3455 53.846 18.6855 53.7902C15.9676 53.7337 13.2413 52.9082 10.994 51.3615C9.93892 50.6346 8.9895 49.7573 8.17205 48.7676C7.97313 48.5275 7.783 48.2809 7.59912 48.0279C6.95289 47.1344 6.40981 46.1654 5.9872 45.1472C4.89781 42.5217 4.61506 39.6465 5.20271 36.8633C5.75858 34.2234 7.07633 31.787 9.0054 29.905C10.4711 28.4773 12.2504 27.3641 14.1794 26.6793C14.4724 26.5745 14.7667 26.4791 15.0661 26.3963C15.1759 26.3648 15.2844 26.3358 15.3946 26.3081C17.8714 25.6777 20.4936 25.7917 22.901 26.6597C25.4466 27.579 27.6784 29.2504 29.2456 31.4668C30.8798 33.7796 31.739 36.639 31.656 39.4721C31.6718 39.4795 31.6876 39.4873 31.7017 39.4968C33.3117 40.6636 34.9809 41.7453 36.7027 42.735C37.0598 42.942 36.8663 43.4136 36.5098 43.4527L36.5102 43.4533Z" fill="black"/>
<path d="M42.8594 69.074C42.4978 68.972 42.1345 68.8721 41.7732 68.772C41.5664 68.4471 41.3613 68.12 41.158 67.7928C39.7601 65.5588 38.4036 63.2959 37.2042 60.9461C35.8007 58.1943 34.6111 55.3137 33.8866 52.3029C33.7227 51.6224 33.6412 50.9005 33.4055 50.2414C33.3142 49.9815 33.1713 49.7257 32.9506 49.5552C32.6929 49.3537 32.3552 49.2805 32.0498 49.1835C31.3446 48.9589 30.6968 48.5673 30.1768 48.045C29.9583 47.8278 29.7631 47.5872 29.5955 47.3285C29.464 47.1254 29.3498 46.909 29.2549 46.6833C29.1599 46.4573 29.0815 46.1625 28.8991 45.9857C28.7297 45.8224 28.5489 46.0633 28.4389 46.2085C28.0749 46.6848 27.9772 47.3043 28.0238 47.8881C28.0508 48.2356 28.1454 48.5716 28.2775 48.8939C28.3968 49.1878 28.5504 49.4705 28.717 49.7386C28.7286 49.7595 28.7423 49.7786 28.7537 49.7977C28.9581 50.1191 29.1833 50.4272 29.4172 50.7283C29.6419 51.0158 29.9029 51.2953 30.0481 51.635C30.2136 52.0207 30.1418 52.385 30.0404 52.7792C29.9668 53.0619 29.9161 53.3473 29.8956 53.6389C29.8519 54.2445 29.9121 54.8494 30.0726 55.4351C30.3859 56.5888 31.0778 57.6524 32.0551 58.3495C32.4463 58.629 32.0713 59.282 31.676 59.0011C31.4023 58.8068 31.1415 58.5945 30.9043 58.3587C29.9794 57.4375 29.3732 56.1962 29.1894 54.9062C29.0939 54.2401 29.1027 53.5712 29.2294 52.9114C29.2895 52.608 29.4777 52.2392 29.3536 51.9366C29.2134 51.591 28.8943 51.292 28.6724 50.9985C28.4926 50.7619 28.3192 50.5169 28.1597 50.2629C27.9898 49.999 27.8353 49.7257 27.7046 49.4462C27.33 48.6483 27.1376 47.7863 27.3266 46.8748C27.4547 46.2574 27.8234 45.4991 28.4289 45.2335C29.1324 44.9267 29.6131 45.5615 29.8503 46.1367C29.9177 46.3022 29.992 46.4618 30.0766 46.6142C30.2266 46.8991 30.4056 47.1619 30.6216 47.4036C30.7199 47.5156 30.8291 47.6221 30.9449 47.7228C31.1788 47.9271 31.4439 48.0962 31.7205 48.2357C32.0244 48.3854 32.3503 48.4673 32.6679 48.5763C33.0166 48.6963 33.3493 48.8539 33.6109 49.1222C33.8554 49.3721 34.0145 49.6856 34.1342 50.0132C34.3873 50.7076 34.4713 51.4703 34.6471 52.1886C35.4126 55.3288 36.685 58.3157 38.1805 61.1706C39.4251 63.5433 40.8266 65.8252 42.2473 68.0938C42.4506 68.421 42.6557 68.7481 42.859 69.0734L42.8594 69.074Z" fill="black"/>
<path d="M33.2255 66.4082C32.9044 66.3184 32.5854 66.23 32.2666 66.1437C32.2409 66.0833 32.2134 66.0212 32.1877 65.9608C32.0834 65.7174 31.981 65.4734 31.8818 65.2275C31.7316 64.8608 31.5865 64.4892 31.4452 64.1176C31.3468 63.8621 31.2437 63.5628 30.9879 63.4279C30.7585 63.3088 30.48 63.2832 30.234 63.2163C28.0982 62.638 26.3088 60.9975 25.5361 58.9228C25.466 58.7331 25.6212 58.514 25.802 58.467C26.0132 58.4109 26.1832 58.5464 26.2569 58.7338C26.6908 59.8195 27.445 60.7922 28.391 61.4798C28.8014 61.7793 29.2499 62.0373 29.7205 62.2311C29.994 62.3433 30.2761 62.4341 30.5631 62.5036C30.8389 62.5724 31.1222 62.6239 31.376 62.7606C31.9297 63.0605 32.103 63.6935 32.3151 64.2413C32.4751 64.6592 32.6437 65.0745 32.8195 65.4871C32.9114 65.7023 33.005 65.917 33.1003 66.1318C33.1408 66.2243 33.1829 66.3163 33.2253 66.4085L33.2255 66.4082Z" fill="black"/>
<path d="M46.7954 52.3553C44.8304 55.4485 42.9325 58.5836 41.1052 61.7606C40.5809 62.6719 40.0642 63.5875 39.5546 64.5073C39.3207 64.9291 39.9642 65.3073 40.2026 64.8856C42.0054 61.6948 43.8579 58.5328 45.7836 55.4148C46.3358 54.5204 46.8941 53.6293 47.4573 52.7418C47.722 52.3251 47.0599 51.9398 46.7957 52.3556L46.7954 52.3553Z" fill="black"/>
<path d="M68.9943 15.7098C68.8371 15.6273 68.6661 15.6521 68.5329 15.7671C68.3343 15.9381 68.15 16.1258 67.9773 16.3234C67.9131 16.0974 67.8293 15.8771 67.7239 15.665C67.6515 15.5195 67.4493 15.4355 67.2946 15.4832C67.1431 15.5303 66.994 15.6816 67.0106 15.8532C67.0639 16.4076 67.1197 16.9614 67.1743 17.5156C67.1937 17.7111 67.3348 17.9019 67.5514 17.8922C67.6889 17.886 67.8346 17.7994 67.8965 17.6719C68.0453 17.7615 68.2327 17.7498 68.3673 17.6244C68.7834 17.236 69.0779 16.7034 69.1726 16.1406C69.1999 15.9779 69.1526 15.7929 68.9946 15.7098L68.9943 15.7098Z" fill="black"/>
<path d="M68.9896 51.0293C68.1279 52.0005 67.1163 52.7775 65.9658 53.3769C64.8036 53.9823 63.554 54.3998 62.284 54.712C60.9886 55.0305 59.6578 55.2647 58.3293 55.389C57.0266 55.511 55.5624 55.5028 54.4353 54.7408C53.4895 54.1017 52.7223 52.762 53.2326 51.6252C53.3151 51.4418 53.285 51.2245 53.0983 51.1155C52.9375 51.0216 52.6741 51.0659 52.5898 51.2498C52.0329 52.4652 52.4472 53.8143 53.3189 54.7668C54.3065 55.8461 55.7818 56.1995 57.1958 56.2052C58.6693 56.211 60.1733 55.9442 61.6122 55.6444C63.0101 55.3532 64.3887 54.9486 65.6907 54.3566C67.1279 53.7029 68.4948 52.7863 69.5162 51.568C69.8233 51.2018 69.3145 50.6629 68.9899 51.0286L68.9896 51.0293Z" fill="black"/>
<path d="M70.6494 45.8531L69.6416 49.3609C69.5088 49.8224 70.2287 50.0143 70.3623 49.5521C70.7006 48.3835 71.0391 47.2146 71.3774 46.046C71.5122 45.5802 70.7841 45.386 70.6498 45.8531L70.6494 45.8531Z" fill="black"/>
<path d="M46.729 19.1043C46.4928 19.2993 46.2612 19.5015 46.0379 19.7116C45.7241 19.6356 45.4098 19.5581 45.0972 19.4785C41.5611 18.6025 38.0431 17.6573 34.5451 16.6425C29.4162 15.1554 24.3317 13.5176 19.2977 11.736C18.8495 11.5768 19.0386 10.8595 19.4866 11.0168C22.3088 12.0123 25.1481 12.963 28.0008 13.8674C33.0903 15.4823 38.2248 16.9558 43.3974 18.2774C44.1798 18.4765 44.9616 18.6737 45.7447 18.8651C46.0721 18.9468 46.3997 19.0266 46.7286 19.1043L46.729 19.1043Z" fill="black"/>
<path d="M48.8792 56.296C48.1753 56.9379 47.5628 57.7244 47.081 58.6283C46.2214 60.2504 45.7805 62.1853 45.8658 64.1696C45.9405 65.8988 46.4036 67.5799 47.1672 69.0595C47.3387 69.3958 47.5289 69.7231 47.7315 70.0359C47.7725 70.0996 47.8019 70.1694 47.819 70.2425C47.4546 70.1111 47.09 69.9775 46.7269 69.8418C46.5162 69.4726 46.328 69.0851 46.1587 68.689C45.9505 68.2023 45.7746 67.6988 45.6257 67.1835C45.0058 65.03 44.9549 62.6689 45.5152 60.557C46.0475 58.5456 47.0629 56.8199 48.4384 55.5813C48.7594 55.2934 49.196 56.0064 48.8789 56.296L48.8792 56.296Z" fill="black"/>
<path d="M23.1679 9.6647C23.0344 9.47943 22.87 9.34581 22.6518 9.27221C22.4683 9.21022 22.2428 9.21707 22.0618 9.2844C21.8214 9.37356 21.6341 9.51837 21.4845 9.72636C21.3594 9.90064 21.2873 10.1443 21.3149 10.359C21.321 10.406 21.3288 10.4488 21.3426 10.4892C21.3424 10.5227 21.3456 10.5564 21.3578 10.5903C21.4028 10.7167 21.4557 10.8115 21.5401 10.9155C21.6001 10.9898 21.6782 11.0499 21.7562 11.1034C21.9183 11.2143 22.1119 11.2643 22.3048 11.2816C22.6821 11.3155 23.0945 11.1107 23.2554 10.7588C23.3356 10.5833 23.3782 10.3933 23.3559 10.1994C23.3337 10.0096 23.2819 9.82132 23.1685 9.66431L23.1679 9.6647ZM22.5957 10.3994C22.5871 10.416 22.5775 10.4317 22.5678 10.4475C22.5551 10.4611 22.542 10.4743 22.5282 10.4865C22.5157 10.4939 22.5032 10.5011 22.4903 10.5077C22.463 10.5166 22.4356 10.5245 22.4077 10.5299C22.3802 10.5312 22.3528 10.5308 22.3253 10.5292C22.2898 10.5222 22.2548 10.5128 22.2204 10.5012C22.1974 10.4895 22.175 10.4768 22.1534 10.463C22.1353 10.447 22.1187 10.4295 22.1026 10.4116C22.0863 10.3857 22.0698 10.3606 22.0573 10.3327C22.0553 10.3068 22.0562 10.2812 22.0573 10.2553C22.0611 10.238 22.0658 10.2212 22.0712 10.2044C22.0854 10.176 22.1013 10.149 22.119 10.1227C22.1449 10.094 22.1715 10.066 22.2014 10.0413C22.2257 10.026 22.2508 10.012 22.2767 9.99948C22.2966 9.99305 22.3166 9.98724 22.337 9.98266C22.3597 9.98132 22.3827 9.98218 22.4054 9.98307C22.4184 9.98602 22.4312 9.98965 22.4437 9.9933C22.4593 10.0014 22.4743 10.0102 22.489 10.0196C22.5089 10.038 22.5286 10.0568 22.5459 10.0774C22.5599 10.1 22.5725 10.1234 22.5845 10.1475C22.5952 10.1797 22.6037 10.2122 22.6103 10.2451C22.6124 10.2768 22.6125 10.3083 22.6108 10.34C22.6067 10.3599 22.602 10.3799 22.596 10.3993L22.5957 10.3994Z" fill="black"/>
<path d="M26.2483 10.6652C25.9972 10.2453 25.4795 9.98489 24.9953 10.1152C24.8526 10.1536 24.7393 10.2841 24.7172 10.429C24.5701 10.4071 24.4228 10.4693 24.3375 10.6062C24.1302 10.939 24.1491 11.354 24.3128 11.6992C24.4793 12.0498 24.8249 12.2778 25.2076 12.3044C25.6046 12.3323 25.9791 12.1025 26.2053 11.7905C26.4419 11.4639 26.4538 11.0097 26.2479 10.6649L26.2483 10.6652ZM25.6462 11.2173C25.6361 11.2681 25.6309 11.2888 25.6218 11.3067C25.6119 11.3254 25.6043 11.3393 25.596 11.353C25.5923 11.3592 25.5819 11.3741 25.5732 11.3865C25.5289 11.4349 25.5063 11.4538 25.4845 11.4741C25.4455 11.4977 25.4223 11.5109 25.3982 11.5229C25.3288 11.5465 25.3117 11.5526 25.2944 11.5537C25.2595 11.5545 25.2353 11.5541 25.2105 11.5535C25.1816 11.5459 25.1654 11.5405 25.1493 11.5353C25.1381 11.5293 25.127 11.5236 25.116 11.5172C25.044 11.457 25.0274 11.4376 25.0109 11.4182C24.9846 11.3721 24.9716 11.3447 24.958 11.3172C24.9445 11.2688 24.9387 11.2379 24.9317 11.2075C24.9306 11.1621 24.9323 11.1329 24.9334 11.1038C24.946 11.0556 24.9576 11.0268 24.9669 10.9971C24.9282 11.1219 24.9587 11.0223 24.9831 10.9831C25.0082 10.9423 25.0235 10.896 25.0295 10.8485C25.0798 10.8574 25.1331 10.8569 25.1876 10.8443C25.2363 10.8371 25.2615 10.8377 25.287 10.8383C25.4117 10.8752 25.4235 10.8812 25.435 10.8878C25.4555 10.8994 25.4744 10.9125 25.4937 10.9253C25.5382 10.9667 25.5587 10.9904 25.5796 11.0145C25.6104 11.0644 25.6231 11.0945 25.6386 11.1236C25.593 11.0368 25.6197 11.0872 25.6339 11.1276C25.636 11.1293 25.6423 11.1477 25.6437 11.1657C25.646 11.1804 25.6513 11.196 25.6465 11.2173L25.6462 11.2173Z" fill="black"/>
<path d="M25.6204 11.3128C25.6275 11.2958 25.6321 11.283 25.6358 11.2697C25.6345 11.2701 25.6298 11.282 25.6204 11.3128Z" fill="black"/>
<path d="M25.3824 11.5298C25.3764 11.5299 25.3645 11.5341 25.3612 11.5358C25.3683 11.5337 25.3757 11.5322 25.3824 11.5298Z" fill="black"/>
<path d="M25.3972 10.8674C25.3701 10.8599 25.3821 10.864 25.4013 10.8695C25.3999 10.8686 25.3986 10.8682 25.3972 10.8674Z" fill="black"/>
<path d="M25.7677 40.7747C25.2097 41.2325 24.2241 41.9954 23.4796 41.504C23.2492 41.3519 23.1155 41.1233 23.0483 40.8658C23.6735 40.4113 24.2656 39.9103 24.813 39.3661C25.1985 38.9829 25.6747 38.5576 25.919 38.0658C26.1759 37.5483 26.0077 36.8817 25.3888 36.7507C24.9049 36.6482 24.4299 36.8752 24.0441 37.1476C23.5983 37.4623 23.2186 37.8465 22.9096 38.2974C22.4795 38.9249 22.1799 39.7288 22.2157 40.5088C21.41 41.0563 20.5489 41.5221 19.6483 41.8914C18.9883 42.162 18.081 42.4534 17.4081 42.0675C16.9842 41.8242 16.8272 41.4073 16.8068 40.9631C17.6813 40.3344 18.5287 39.6658 19.3206 38.9348C20.1886 38.1336 20.9914 37.258 21.6892 36.3031C21.9728 35.9151 22.2246 35.3647 22.058 34.8782C21.8564 34.2896 21.229 34.2354 20.7139 34.3957C19.6813 34.7162 18.812 35.4067 18.1327 36.235C17.4495 37.0678 16.8748 38.0263 16.458 39.0208C16.2576 39.4993 16.0821 40.0447 16.0344 40.5881C15.6266 40.8739 15.2091 41.1446 14.7792 41.3877C13.9564 41.8525 12.9251 42.2566 11.9806 41.9268C11.6515 41.8118 11.4535 41.6076 11.3459 41.3598C12.512 40.8156 13.5452 39.9954 14.3416 38.9562C14.6455 38.5597 15.0017 38.0904 15.1149 37.5945C15.2509 36.9986 14.8919 36.4253 14.2381 36.492C13.7384 36.5428 13.2205 36.8251 12.8034 37.0932C12.3578 37.3795 11.9498 37.7297 11.6089 38.1358C10.9779 38.8871 10.4294 39.9019 10.4682 40.915C10.3399 40.9625 10.2107 41.0077 10.0799 41.0476C9.77139 41.1417 9.45629 41.2171 9.13778 41.2685C9.12609 41.1835 9.11444 41.0989 9.10275 41.0139C9.07509 40.8123 8.82305 40.6987 8.64389 40.746C8.42772 40.8031 8.34978 41.0038 8.37685 41.2058C8.40291 41.3989 8.42865 41.5922 8.45474 41.7857C8.47487 41.9356 8.66977 42.0829 8.8195 42.0669C9.44201 42.001 10.0488 41.8591 10.6304 41.6533C11.0303 42.5573 12.1152 42.903 13.1048 42.7856C14.2098 42.6545 15.181 42.0895 16.0888 41.4716C16.1339 41.6591 16.2025 41.8413 16.3004 42.0151C16.8452 42.9826 17.9785 43.1413 18.9722 42.9218C20.0527 42.683 21.1042 42.1145 22.0413 41.541C22.1591 41.4688 22.2758 41.3949 22.3917 41.3197C22.5764 41.7698 22.9012 42.1318 23.3624 42.3159C23.8737 42.5201 24.4219 42.4376 24.918 42.232C25.433 42.0189 25.8847 41.6863 26.3131 41.3338C26.7009 41.0146 26.1531 40.4602 25.7684 40.7758L25.7677 40.7747ZM11.4911 39.7453C11.8259 38.9831 12.3775 38.3066 13.065 37.8363C13.4096 37.6005 13.8016 37.3763 14.2087 37.2715C14.2556 37.2594 14.3483 37.2255 14.3918 37.2561C14.3759 37.2446 14.3903 37.3283 14.3851 37.3662C14.3582 37.5575 14.2407 37.7321 14.1439 37.8933C13.4596 39.0313 12.4399 39.9605 11.2587 40.5666C11.2934 40.283 11.3808 39.9962 11.4913 39.7449L11.4911 39.7453ZM18.0464 37.6796C18.505 36.9485 19.0579 36.2396 19.7635 35.7312C20.1039 35.486 20.4782 35.2821 20.8777 35.1529C20.9742 35.1218 21.2469 35.0034 21.3317 35.1112C21.3839 35.1778 21.3126 35.3783 21.2916 35.441C21.1551 35.8478 20.8145 36.2019 20.5466 36.5274C20.2244 36.9186 19.8845 37.295 19.5303 37.6575C18.8387 38.3651 18.0932 39.0188 17.3155 39.6294C17.1986 39.7212 17.0811 39.8124 16.9628 39.9034C17.1958 39.1145 17.6132 38.3709 18.0467 37.6796L18.0464 37.6796ZM23.1212 39.6083C23.3831 38.7922 23.9751 38.0498 24.7242 37.6317C24.835 37.5699 25.2582 37.3877 25.2809 37.5737C25.3009 37.7389 25.0628 37.9647 24.9671 38.0741C24.796 38.2696 24.6195 38.4607 24.4378 38.6469C24.003 39.0925 23.5366 39.5067 23.0479 39.8929C23.0681 39.7931 23.093 39.697 23.1215 39.6083L23.1212 39.6083Z" fill="white"/>
<path d="M35.9495 19.987C34.0892 19.6547 32.2388 19.2996 30.476 18.5968C29.6054 18.2499 28.7473 17.8787 27.8589 17.5781C26.9682 17.2765 26.0625 17.0222 25.1504 16.7941C24.1244 16.5377 23.0916 16.3108 22.0567 16.093C21.5914 15.9953 21.3968 16.7062 21.8668 16.8139C23.7006 17.2343 25.5406 17.6358 27.3323 18.2177C29.1251 18.7998 30.8093 19.6479 32.6434 20.1068C33.6695 20.3635 34.7115 20.5499 35.752 20.7358C36.2376 20.8226 36.4404 20.0747 35.9492 19.987L35.9495 19.987Z" fill="black"/>
<path d="M25.2615 19.1862C24.0445 18.8028 22.8254 18.426 21.6067 18.0469C21.147 17.9036 20.9564 18.6275 21.4157 18.772C22.6332 19.1545 23.85 19.5389 25.0689 19.917C25.5325 20.0608 25.7241 19.3323 25.2615 19.1866L25.2615 19.1862Z" fill="black"/>
<path d="M35.2235 22.4142C32.5376 21.6113 29.8516 20.8079 27.1636 20.0123C26.7053 19.8765 26.5162 20.5935 26.9741 20.7315C29.6581 21.5419 32.3443 22.3444 35.0305 23.1475C35.4972 23.2871 35.6911 22.5539 35.2238 22.4141L35.2235 22.4142Z" fill="black"/>
<path fill-rule="evenodd" clip-rule="evenodd" d="M78.5951 23.6211C78.7292 21.2613 76.2984 18.7194 76.2984 18.7194C76.2984 18.7194 76.3619 11.3811 70.0562 9.36013C63.7505 7.33915 58.0555 5.33917 52.6851 9.16832C47.3189 12.9988 44.5841 16.513 44.5841 16.513C44.5841 16.513 43.7378 19.8453 50.2407 22.3066C56.7388 24.767 60.6867 24.7634 62.4242 23.8995C64.1665 23.0365 64.4396 22.7691 64.4396 22.7691C64.4396 22.7691 63.1957 24.5351 61.1358 25.2231C59.0715 25.9097 59.0269 25.935 59.0269 25.935C59.0269 25.935 61.8807 27.0103 65.1034 24.9384C68.3265 22.8665 71.2839 21.2113 71.2839 21.2113C71.1814 21.6967 69.9176 25.6303 71.0318 28.9084C72.1513 32.183 72.326 34.1059 70.1525 37.1973C67.979 40.2887 65.8014 42.724 62.9655 41.4014C60.1297 40.0788 58.4256 36.1686 54.3945 36.4056C50.3596 36.6368 50.0348 38.5233 48.9565 38.1529C47.8733 37.7815 48.9644 33.6637 48.9644 33.6637C48.9644 33.6637 47.5178 37.4157 46.4012 39.2776C45.2837 41.1444 43.0371 47.3322 47.2914 50.8403C48.7572 52.0489 51.3988 53.1013 54.3941 53.7262C54.1283 52.3099 54.2577 52.2101 53.7348 50.3199C53.1786 48.3164 50.4747 46.0419 51.8328 45.7868C53.1908 45.5318 54.5664 46.5461 55.2757 47.6363C55.9903 48.7277 58.3024 51.3187 58.9084 51.0132C59.5154 50.7029 62.8454 48.1465 64.6763 46.3271C66.5083 44.5028 68.141 42.7846 69.5755 41.8169C71.009 40.854 71.6184 42.0709 71.6184 42.0709C71.6184 42.0709 71.3184 43.1648 70.2888 44.4292C69.2629 45.6995 66.1918 49.6159 66.1918 49.6159L64.9257 53.7599C66.9535 53.2183 68.6498 52.2644 69.6704 50.7834C73.6367 45.0278 72.4666 43.0424 73.3007 39.0921C74.1348 35.1418 74.785 32.7383 76.0362 31.2642C77.2923 29.791 78.4553 25.9843 78.5952 23.6207L78.5951 23.6211Z" fill="black"/>
<path d="M51.7234 21.2808C51.7166 21.2894 50.0317 24.0011 50.3881 25.4599C50.6088 26.373 50.7308 27.31 50.7198 28.2235C50.7116 29.0786 50.59 29.9097 50.3259 30.6715C49.8158 32.1544 49.6415 32.8414 49.6415 32.8414L48.6396 32.5759C48.6406 32.5711 48.8385 31.82 49.3485 30.3375C49.5767 29.6765 49.6846 28.9559 49.6888 28.2133C49.6959 27.3877 49.585 26.5367 49.3815 25.7059C48.9241 23.817 50.8319 20.7482 50.8387 20.74L51.7233 21.2812L51.7234 21.2808Z" fill="black"/>
<path d="M53.7539 32.8673C53.0793 33.7788 52.774 34.5711 52.7363 35.1932C52.7163 35.5434 52.782 35.838 52.9187 36.0543C53.0439 36.2531 53.2304 36.3958 53.4632 36.4596C53.7278 36.5351 54.051 36.5197 54.4169 36.3949C56.5782 35.6447 56.9489 35.8711 56.9489 35.8711L56.4757 36.5736C56.4757 36.5736 56.4334 36.54 54.6496 37.1582C54.1037 37.3433 53.5971 37.3644 53.1652 37.2434C52.753 37.1221 52.4128 36.8679 52.1881 36.5104C51.9754 36.1651 51.868 35.719 51.8983 35.2033C51.9437 34.4301 52.3012 33.4814 53.0805 32.4247C54.428 30.6115 54.9449 28.6527 55.0846 27.781C56.9408 28.1729 54.4896 31.8801 53.7547 32.8675L53.7539 32.8673Z" fill="black"/>
<path fill-rule="evenodd" clip-rule="evenodd" d="M60.7006 32.9946C61.2234 33.105 61.8064 32.465 61.9945 31.5738C62.1827 30.6827 61.9083 29.8616 61.3855 29.7512C60.8627 29.6409 60.2759 30.2755 60.0868 31.171C59.8977 32.0666 60.173 32.8832 60.7006 32.9946Z" fill="black"/>
<path fill-rule="evenodd" clip-rule="evenodd" d="M51.9712 31.1513C52.4988 31.2627 53.0818 30.6227 53.2699 29.7316C53.4581 28.8404 53.1837 28.0193 52.6561 27.9079C52.1285 27.7965 51.5513 28.4332 51.3622 29.3287C51.1731 30.2243 51.4484 31.0409 51.9712 31.1513Z" fill="black"/>
<path d="M54.8679 26.7166C53.6364 25.503 51.7986 25.115 50.1861 25.728L49.8973 24.967C51.8062 24.2418 53.9814 24.7007 55.4393 26.1373L54.8681 26.7174L54.8679 26.7166Z" fill="black"/>
<path d="M59.3457 27.5884L59.0575 26.8268C61.2255 26.0052 63.6929 26.5262 65.3436 28.1542L64.7721 28.7342C63.3469 27.3288 61.217 26.8791 59.3457 27.5884Z" fill="black"/>
<path d="M65.9674 54.4999C64.0788 56.1569 55.0418 53.9584 50.9794 52.8267C50.6888 51.4605 50.5295 48.9196 50.4568 48.2882C50.3659 47.4989 49.9256 47.1497 49.5465 45.5938C49.1674 44.038 50.8141 44.4482 52.5901 44.2437C54.366 44.0392 56.4301 44.6013 58.4488 44.7687C60.4675 44.9362 61.606 44.4052 64.2777 43.2978C66.9493 42.1904 66.6838 41.6212 68.6117 40.9993C70.5395 40.3775 70.3876 40.7949 71.4196 41.0759C72.4517 41.3569 71.8597 41.4251 71.7078 41.8425C71.556 42.2598 71.4722 43.2692 71.5177 43.6638C71.5631 44.0585 70.5837 45.9707 70.4545 46.5854C70.3512 47.0772 69.5105 48.227 69.1031 48.7404C68.8448 49.9698 67.856 52.8429 65.9674 54.4999Z" fill="black"/>
</svg>
