<svg width="145" height="46" viewBox="0 0 145 46" fill="none" xmlns="http://www.w3.org/2000/svg">
<path d="M139.995 0.229492H5.0504C2.56614 0.229492 0.552246 2.24338 0.552246 4.72764V40.7128C0.552246 43.1971 2.56614 45.211 5.0504 45.211H139.995C142.479 45.211 144.493 43.1971 144.493 40.7128V4.72764C144.493 2.24338 142.479 0.229492 139.995 0.229492Z" fill="black"/>
<path fill-rule="evenodd" clip-rule="evenodd" d="M11.5435 22.2698V10.4396C11.5435 9.79866 12.1057 9.19141 12.7017 9.19141C13.2415 9.19141 13.5002 9.34884 13.77 9.49503L35.4736 21.3589C35.9347 21.6175 36.1708 21.9437 36.1708 22.281C36.1708 22.6184 35.9459 22.9445 35.4736 23.2031L13.77 35.067C13.5002 35.202 13.2415 35.3594 12.7017 35.3594C12.0945 35.3594 11.5435 34.7521 11.5435 34.1112V22.2698Z" fill="url(#paint0_linear_2538_32329)"/>
<path fill-rule="evenodd" clip-rule="evenodd" d="M25.6444 22.3485L12.5098 9.2139C12.5772 9.20265 12.6447 9.19141 12.7122 9.19141C13.252 9.19141 13.5106 9.34884 13.7805 9.49503L29.7714 18.2327L25.6444 22.3597V22.3485Z" fill="url(#paint1_linear_2538_32329)"/>
<path fill-rule="evenodd" clip-rule="evenodd" d="M29.667 26.3756L25.6411 22.3497L29.7682 18.2227L35.4808 21.3489C35.9419 21.6075 36.178 21.9336 36.178 22.271C36.178 22.6084 35.9531 22.9345 35.4808 23.1931L29.667 26.3756Z" fill="url(#paint2_linear_2538_32329)"/>
<path fill-rule="evenodd" clip-rule="evenodd" d="M12.6313 35.3498H12.6426L25.631 22.3389L29.6568 26.3647L13.7671 35.0461C13.4972 35.1811 13.2386 35.3385 12.6988 35.3385C12.6763 35.3385 12.6538 35.3385 12.6313 35.3385V35.3498Z" fill="url(#paint3_linear_2538_32329)"/>
<path fill-rule="evenodd" clip-rule="evenodd" d="M80.5237 38.306C79.9951 37.8337 79.5453 37.114 79.2754 36.5967L81.0859 35.8207C81.1984 36.0457 81.3671 36.383 81.637 36.6754C82.098 37.1814 82.7278 37.53 83.4812 37.53C84.1897 37.53 84.9768 37.2039 85.3929 36.6304C85.764 36.1131 85.9102 35.4496 85.9102 34.7412V34.0327C84.617 35.697 81.7831 35.4609 80.2088 33.7403C78.522 31.8961 78.5332 28.9161 80.2425 27.0718C81.9293 25.3963 84.437 25.1826 85.9102 26.7682V25.9698H87.8781V34.505C87.8781 36.6754 87.0797 37.9011 86.0901 38.6208C85.3704 39.1494 84.3471 39.3855 83.4587 39.3855C82.3004 39.3855 81.2996 38.9807 80.5237 38.2947V38.306ZM127.586 38.7783L129.486 34.2914L126.135 26.5096H128.047L130.442 32.0535L132.781 26.5096H134.693L129.509 38.7895H127.597L127.586 38.7783ZM118.511 34.4938C117.971 33.9765 117.678 33.1556 117.667 32.4134C117.667 31.7612 117.881 31.0977 118.364 30.5804C119.129 29.7595 120.287 29.3996 121.502 29.3996C122.3 29.3996 122.997 29.5571 123.526 29.8607C123.526 28.4888 122.458 27.9602 121.547 27.9602C120.703 27.9602 119.961 28.3988 119.68 29.1747L117.96 28.4775C118.263 27.6454 119.23 26.2284 121.502 26.2284C122.615 26.2284 123.706 26.622 124.426 27.3755C125.145 28.1402 125.381 29.0848 125.381 30.3442V35.0561H123.503V34.2127C123.256 34.5163 122.874 34.8312 122.48 35.0223C121.997 35.2585 121.434 35.3372 120.917 35.3372C120.062 35.3372 119.118 35.0561 118.511 34.4713V34.4938ZM58.5952 30.4342C58.5952 28.1851 60.3045 25.7111 63.2732 25.7111C66.242 25.7111 67.9513 28.1851 67.9513 30.4342C67.9513 32.6833 66.242 35.1573 63.2732 35.1573C60.3045 35.1573 58.5952 32.6833 58.5952 30.4342ZM68.7497 30.4342C68.7497 28.1851 70.459 25.7111 73.4278 25.7111C76.3966 25.7111 78.1059 28.1851 78.1059 30.4342C78.1059 32.6833 76.3966 35.1573 73.4278 35.1573C70.459 35.1573 68.7497 32.6833 68.7497 30.4342ZM45.9216 32.9194C43.0878 30.0631 43.1778 25.4862 46.0003 22.6299C47.4285 21.2018 49.2952 20.482 51.162 20.4933C52.95 20.4933 54.738 21.168 56.1324 22.4837L54.7268 23.9456C52.6913 21.9777 49.4639 22.0002 47.4847 24.0468C45.4718 26.1272 45.4268 29.4784 47.4398 31.5587C49.4639 33.6391 52.815 33.7628 54.8392 31.6824C55.5252 30.974 55.7613 30.0744 55.8963 29.1635H51.1507V27.1618H57.8192C57.9092 27.6678 57.9317 28.1851 57.9317 28.6912C57.9317 30.3442 57.2232 32.0873 56.1099 33.2231C54.8505 34.5163 53.0849 35.1798 51.2294 35.1685C49.3065 35.1573 47.361 34.3926 45.9104 32.9419L45.9216 32.9194ZM93.4109 33.7628C91.7465 31.9186 91.7465 28.9048 93.4109 27.0718C95.0752 25.2276 97.9203 25.2388 99.5396 27.0718C100.068 27.6678 100.428 28.4438 100.743 29.2422L94.5017 31.8736C94.8615 32.6046 95.5812 33.313 96.717 33.313C97.6841 33.313 98.3476 32.9869 99.0448 31.9973L100.675 33.0994C100.484 33.3468 100.259 33.5942 100.079 33.7853C98.4151 35.6296 95.0639 35.6296 93.3996 33.7853L93.4109 33.7628ZM105.129 35.0785V22.6412H109.132C111.538 22.6412 113.36 24.328 113.36 26.4084C113.36 28.4888 111.628 30.1756 109.503 30.1756H107.029V35.0785H105.129ZM114.597 35.0785V22.6412H116.498V35.0785H114.597ZM89.2051 34.8761V20.9656H91.2855V34.8761H89.2051ZM123.515 31.435C123.054 31.1202 122.345 30.9852 121.727 30.9852C120.377 30.9852 119.613 31.6712 119.613 32.4134C119.613 33.2456 120.411 33.6616 121.153 33.6616C122.233 33.6616 123.515 32.762 123.515 31.4463V31.435ZM65.8822 30.4342C65.8822 29.0735 64.9263 27.5891 63.2732 27.5891C61.6202 27.5891 60.6643 29.0848 60.6643 30.4342C60.6643 31.7837 61.6202 33.2793 63.2732 33.2793C64.9263 33.2793 65.8822 31.7837 65.8822 30.4342ZM76.0368 30.4342C76.0368 29.0735 75.0809 27.5891 73.4278 27.5891C71.7748 27.5891 70.8189 29.0848 70.8189 30.4342C70.8189 31.7837 71.7748 33.2793 73.4278 33.2793C75.0809 33.2793 76.0368 31.7837 76.0368 30.4342ZM85.9552 31.2889C85.9777 31.2326 86.0114 31.0864 86.0339 30.9515C86.0339 30.929 86.0339 30.9065 86.0339 30.9065C86.0564 30.7491 86.0789 30.5804 86.0676 30.4117C86.0676 30.2543 86.0564 30.0968 86.0227 29.9394C86.0227 29.9057 86.0227 29.8832 86.0227 29.8832C86.0002 29.737 85.9664 29.602 85.9214 29.4671C85.5728 28.3651 84.6282 27.5891 83.5262 27.6004C82.1317 27.6004 80.996 28.8936 81.0072 30.4679C81.0072 32.0311 82.1655 33.3018 83.5599 33.2905C84.662 33.2905 85.5953 32.4809 85.9552 31.3113V31.2889ZM94.1868 30.2655L98.3476 28.5C97.9203 27.7578 97.223 27.5217 96.627 27.5217C95.0414 27.5217 93.9619 29.3209 94.1868 30.2655ZM111.426 26.4533C111.426 25.3625 110.571 24.4854 109.301 24.4854H107.018V28.4213H109.402C110.526 28.4213 111.415 27.5441 111.415 26.4533H111.426Z" fill="white"/>
<path fill-rule="evenodd" clip-rule="evenodd" d="M129.035 36.5083V36.4968H129.023V36.4854H129.035H129.023V36.4968V36.5083H129.035Z" fill="white"/>
<path fill-rule="evenodd" clip-rule="evenodd" d="M129.071 36.4968H129.059H129.071H129.059V36.4854H129.071H129.059V36.5083H129.071V36.4968Z" fill="white"/>
<path fill-rule="evenodd" clip-rule="evenodd" d="M129.088 36.4854H129.077H129.088V36.5083V36.4854Z" fill="white"/>
<path fill-rule="evenodd" clip-rule="evenodd" d="M129.113 36.4968H129.102H129.113H129.102V36.4854H129.113H129.102V36.5083H129.113V36.4968Z" fill="white"/>
<path fill-rule="evenodd" clip-rule="evenodd" d="M129.167 36.4854H129.156V36.4968V36.4854H129.145L129.156 36.4968V36.5083V36.4968L129.167 36.4854Z" fill="white"/>
<path fill-rule="evenodd" clip-rule="evenodd" d="M129.192 36.4967H129.18V36.4736V36.5082H129.192V36.4967Z" fill="white"/>
<path fill-rule="evenodd" clip-rule="evenodd" d="M129.311 36.5082V36.4736L129.299 36.4967L129.288 36.4736H129.276V36.5082H129.288V36.4852V36.5082H129.299L129.311 36.4852H129.299V36.5082H129.311Z" fill="white"/>
<path fill-rule="evenodd" clip-rule="evenodd" d="M129.348 36.5082V36.4736H129.337V36.5082H129.348Z" fill="white"/>
<path fill-rule="evenodd" clip-rule="evenodd" d="M129.378 36.4736H129.355H129.367V36.5082H129.378V36.4736Z" fill="white"/>
<path fill-rule="evenodd" clip-rule="evenodd" d="M129.402 36.4967H129.391V36.4852H129.402H129.391V36.4736H129.402H129.391V36.5082H129.402V36.4967Z" fill="white"/>
<path d="M44.3208 11.5424C44.3208 9.55198 45.7939 8.28125 47.6382 8.28125C48.8639 8.28125 49.6736 8.86601 50.1796 9.58571L49.28 10.103C48.9427 9.6307 48.3466 9.2596 47.6382 9.2596C46.3899 9.2596 45.4566 10.2042 45.4566 11.5424C45.4566 12.8806 46.3899 13.8252 47.6382 13.8252C48.2792 13.8252 48.8527 13.5328 49.1338 13.263V12.2846H47.2446V11.3063H50.2359V13.6678C49.6174 14.3538 48.729 14.8261 47.6382 14.8261C45.8052 14.8261 44.3208 13.5328 44.3208 11.5537V11.5424Z" fill="white"/>
<path d="M51.5962 14.691V8.37109H55.9257V9.34944H52.7095V10.98H55.8582V11.9584H52.7095V13.7239H55.9257V14.7022H51.5962V14.691Z" fill="white"/>
<path d="M59.0001 14.691V9.34944H57.0884V8.37109H62.0251V9.34944H60.1134V14.691H59.0001Z" fill="white"/>
<path d="M65.8647 14.691V8.37109H66.9668V14.691H65.8647Z" fill="white"/>
<path d="M70.0518 14.691V9.34944H68.1401V8.37109H73.0769V9.34944H71.1651V14.691H70.0518Z" fill="white"/>
<path d="M76.6528 11.5424C76.6528 9.65319 77.991 8.28125 79.8802 8.28125C81.7695 8.28125 83.1077 9.66443 83.1077 11.5424C83.1077 13.4204 81.7582 14.8036 79.8802 14.8036C78.0023 14.8036 76.6528 13.4204 76.6528 11.5424ZM81.9719 11.5424C81.9719 10.2379 81.151 9.2596 79.8802 9.2596C78.6095 9.2596 77.7886 10.2379 77.7886 11.5424C77.7886 12.8469 78.5983 13.8252 79.8802 13.8252C81.1622 13.8252 81.9719 12.8356 81.9719 11.5424Z" fill="white"/>
<path d="M88.8061 14.691L85.5112 10.1704V14.691H84.4092V8.37109H85.545L88.7724 12.7455V8.37109H89.8857V14.691H88.8174H88.8061Z" fill="white"/>
<defs>
<linearGradient id="paint0_linear_2538_32329" x1="18.8417" y1="7.61705" x2="25.1391" y2="33.4702" gradientUnits="userSpaceOnUse">
<stop stop-color="#006884"/>
<stop offset="1" stop-color="#8AD1D0"/>
</linearGradient>
<linearGradient id="paint1_linear_2538_32329" x1="11.1716" y1="11.2943" x2="28.3208" y2="20.5717" gradientUnits="userSpaceOnUse">
<stop stop-color="#24BBB6"/>
<stop offset="1" stop-color="#DBE692"/>
</linearGradient>
<linearGradient id="paint2_linear_2538_32329" x1="30.9039" y1="26.7916" x2="30.9039" y2="17.8516" gradientUnits="userSpaceOnUse">
<stop stop-color="#FCC072"/>
<stop offset="1" stop-color="#F58A5B"/>
</linearGradient>
<linearGradient id="paint3_linear_2538_32329" x1="14.4868" y1="37.6438" x2="28.0375" y2="23.8457" gradientUnits="userSpaceOnUse">
<stop stop-color="#712B8F"/>
<stop offset="1" stop-color="#EA1D27"/>
</linearGradient>
</defs>
</svg>
