<svg width="299" height="261" viewBox="0 0 299 261" fill="none" xmlns="http://www.w3.org/2000/svg">
<path d="M86.0181 173.981C84.9656 173.284 83.3562 172.94 82.5858 173.94C82.2599 174.362 82.1824 174.922 82.1532 175.454C81.7833 182.231 87.5223 188.052 94.4556 187.455C96.945 187.242 95.9934 186.517 94.5886 185.397C90.728 182.322 90.1901 176.742 86.0167 173.979L86.0181 173.981Z" fill="#262626"/>
<path d="M155.517 194.263C152.556 197.122 147.729 197.252 143.952 195.617C136.305 192.303 132.608 183.645 125.58 179.365C120.339 176.174 113.47 175.844 107.948 178.516C112.998 176.915 118.563 178.682 123.05 181.502C127.536 184.321 131.301 188.142 135.602 191.236C139.903 194.332 145.076 196.752 150.337 196.125" fill="#262626"/>
<path d="M179.217 215.048C170.302 211.94 162.914 204.722 159.597 195.884C165.816 202.335 172.552 208.288 179.717 213.667" fill="#262626"/>
<path d="M190.735 199.285C169.664 177.122 151.04 164.796 147.941 162.3C143.22 158.503 142.46 159.396 137.036 161.742C131.247 164.257 123.814 168.299 119.817 170.845C119.507 171.041 119.094 170.951 118.896 170.64C118.699 170.33 118.79 169.917 119.101 169.719C120.408 168.886 121.725 168.122 122.953 167.42C131.152 162.736 135.594 160.951 137.572 160.036C140.474 158.693 142.678 157.735 145.388 158.975C147.217 159.801 148.701 161.296 150.177 162.347C164.599 172.613 178.697 184.688 191.702 198.368C191.957 198.636 191.945 199.058 191.679 199.311C191.411 199.565 190.989 199.554 190.736 199.288L190.735 199.285Z" fill="#262626"/>
<path d="M189.397 224.151C177.471 211.734 164.244 200.137 151.144 190.613C149.906 189.709 148.211 189.66 146.921 190.491C144.689 191.935 142.179 194.001 140.754 195.075C140.46 195.297 140.042 195.24 139.82 194.945C139.598 194.651 139.656 194.233 139.95 194.011C141.361 192.944 143.914 190.848 146.198 189.37C147.948 188.24 150.251 188.306 151.931 189.534C164.982 199.023 178.158 210.558 190.059 222.913C196.261 220.625 200.302 217.883 204.307 214.504C202.768 212.56 195.761 204.732 192.836 201.519C192.588 201.247 192.608 200.825 192.88 200.576C193.152 200.329 193.573 200.347 193.823 200.62C195.121 202.045 198.123 205.379 200.733 208.326C205.89 214.15 205.881 214.289 205.859 214.659C205.849 214.837 205.764 215.013 205.628 215.131C201.269 218.86 196.964 221.846 190.104 224.314C189.859 224.404 189.581 224.339 189.397 224.149V224.151Z" fill="#262626"/>
<path d="M176.759 185.055C176.224 180.914 175.523 176.849 174.619 172.625C174.541 172.264 174.771 171.91 175.132 171.833C175.491 171.755 175.846 171.985 175.924 172.346C176.838 176.605 177.544 180.706 178.083 184.884C178.13 185.249 177.872 185.584 177.507 185.63C177.15 185.679 176.808 185.426 176.76 185.055H176.759Z" fill="#262626"/>
<path d="M174.071 170.187C173.545 167.916 172.963 165.599 172.291 163.106C171.614 160.59 170.863 158.198 169.132 156.564C166.15 153.753 161.38 154.351 158.202 155.715C154.565 157.276 151.725 159.623 148.04 161.63C147.717 161.805 147.312 161.687 147.135 161.362C146.96 161.038 147.079 160.633 147.402 160.457C151.051 158.48 153.823 156.143 157.676 154.49C161.225 152.965 166.594 152.34 170.047 155.593C172.031 157.466 172.88 160.159 173.579 162.759C174.256 165.269 174.84 167.602 175.369 169.888C175.453 170.246 175.229 170.605 174.869 170.687C174.513 170.771 174.153 170.548 174.07 170.187H174.071Z" fill="#262626"/>
<path d="M164.541 225.276C164.277 225.23 164.066 225.027 164.008 224.763C161.955 215.466 160.536 206.078 159.017 196.876C158.957 196.512 159.203 196.17 159.567 196.11C159.927 196.05 160.273 196.296 160.333 196.66C161.779 205.396 163.197 214.808 165.214 224.037C169.53 224.721 175.262 224.386 179.881 224.236C179.219 221.276 179.17 218.055 178.863 213.671C178.836 213.303 179.114 212.984 179.481 212.959C179.843 212.929 180.166 213.209 180.193 213.578C180.529 218.37 180.558 221.678 181.369 224.705C181.481 225.12 181.175 225.532 180.744 225.544C175.891 225.678 169.329 226.134 164.54 225.276H164.541Z" fill="#262626"/>
<path d="M139.772 195.221C134.15 192.326 129.994 187.441 125.118 183.619C122.368 181.459 115.249 176.7 108.545 179.11C105.281 180.282 102.771 182.893 99.8917 185.129C91.7101 191.455 84.2344 189.2 81.5053 177.755C80.1473 172.102 79.7965 166.347 79.6313 161.463C79.6181 161.094 79.9076 160.786 80.276 160.773C80.659 160.745 80.9527 161.049 80.9659 161.417C81.1281 166.233 81.4731 171.904 82.8033 177.444C85.1758 187.397 91.2466 190.126 99.0745 184.074C101.919 181.865 104.578 179.117 108.095 177.855C113.255 175.998 119.762 177.717 125.942 182.57C130.781 186.364 134.992 191.261 140.383 194.036C142.841 195.305 151.199 198.992 155.634 193.263C155.859 192.972 156.279 192.918 156.57 193.143C156.861 193.368 156.915 193.788 156.69 194.079C152.671 199.27 145.589 198.222 139.772 195.22V195.221Z" fill="#262626"/>
<path d="M69.7668 138.915C69.6016 136.711 69.5125 133.633 69.5183 130.248C69.5183 129.599 70.2448 129.555 70.1863 129.581C70.5547 129.581 70.8529 129.881 70.8529 130.249C70.8471 133.602 70.9348 136.644 71.0985 138.814C71.1263 139.181 70.85 139.501 70.4831 139.529C70.1206 139.557 69.7961 139.285 69.7683 138.914L69.7668 138.915Z" fill="#262626"/>
<path d="M76.5743 131.285C75.8347 128.961 74.845 123.149 73.737 121.33C73.0295 120.105 71.1657 120.599 71.0794 121.978C70.9946 123.316 70.9318 124.982 70.8953 126.799C70.888 127.167 70.6014 127.455 70.2141 127.452C69.8457 127.445 69.5534 127.141 69.5607 126.771C69.5972 124.937 69.6615 123.25 69.7478 121.895C69.9173 119.19 73.547 118.289 74.9079 120.685C76.2191 123.022 77.0815 128.48 77.8461 130.88C77.9572 131.23 77.7642 131.606 77.4119 131.717C77.0611 131.828 76.6854 131.634 76.5743 131.283V131.285Z" fill="#262626"/>
<path d="M117.566 211.905C117.491 211.899 117.393 211.886 117.298 211.873C109.27 210.893 101.53 207.662 94.9286 202.527C94.6377 202.302 94.5851 201.883 94.8117 201.592C95.0368 201.301 95.4563 201.248 95.7472 201.475C103.65 207.621 113.055 210.696 121.144 210.797C127.475 210.874 134.727 209.207 141.532 206.117C141.868 205.965 142.263 206.112 142.415 206.449C142.567 206.783 142.419 207.179 142.083 207.331C134.616 210.722 125.607 212.859 117.564 211.905H117.566Z" fill="#262626"/>
<path d="M143.778 205.786C143.61 205.458 143.738 205.056 144.066 204.887C149.344 202.173 154.008 198.739 157.554 194.96C157.805 194.691 158.228 194.678 158.497 194.93C158.766 195.182 158.779 195.604 158.527 195.873C154.879 199.763 150.09 203.291 144.677 206.074C144.347 206.242 143.947 206.112 143.778 205.786Z" fill="#262626"/>
<path d="M91.275 199.379C88.1964 196.432 85.5813 193.109 83.5026 189.5C78.1306 180.167 77.3207 175.539 75.8487 167.134C75.5111 165.208 75.1281 163.024 74.6486 160.558C74.5784 160.197 74.8138 159.847 75.1763 159.777C75.5344 159.706 75.8882 159.942 75.9584 160.304C76.4408 162.782 76.8252 164.972 77.1628 166.905C78.6085 175.158 79.4053 179.706 84.6589 188.835C86.6733 192.334 89.2095 195.557 92.1974 198.414C92.4634 198.668 92.4722 199.091 92.2178 199.357C91.9635 199.623 91.541 199.633 91.275 199.377V199.379Z" fill="#262626"/>
<path d="M94.5135 135.424C94.1056 134.621 93.4376 133.849 92.5444 133.738C91.7083 133.635 90.8941 134.155 90.4088 134.843C89.9234 135.532 89.7027 136.366 89.4908 137.182C89.3987 137.534 89.3095 137.92 89.4586 138.252C89.6662 138.717 90.2304 138.873 90.6923 139.088C91.8238 139.617 92.5707 140.761 92.9157 141.961C93.2563 143.145 93.2387 144.376 93.2607 145.595C94.1509 142.353 96.1975 138.733 94.5135 135.424Z" fill="#262626"/>
<path d="M110.147 121.049C109.211 121.513 108.305 122.235 108.062 123.251C106.96 122.57 106.225 121.329 106.156 120.036C110.17 120.129 113.56 116.995 113.765 112.973C113.689 114.457 114.912 116.01 114.404 117.735C113.809 119.752 111.816 120.218 110.147 121.049Z" fill="#262626"/>
<path d="M138.745 136.29C138.735 136.245 137.157 126.54 136.373 125.576C135.886 125.144 135.246 124.957 133.115 124.191C132.768 124.065 132.588 123.684 132.713 123.337C132.838 122.991 133.22 122.811 133.566 122.935C135.722 123.71 136.554 123.953 137.279 124.6C138.46 125.641 139.909 135.385 140.06 136.066C140.121 136.43 139.877 136.774 139.514 136.835C139.156 136.897 138.807 136.657 138.745 136.29Z" fill="#262626"/>
<path d="M92.9529 172.231C86.6043 167.749 80.9501 163.26 75.4611 157.798C75.1994 157.538 75.1994 157.115 75.4596 156.854C75.7198 156.594 76.1423 156.592 76.4039 156.852C81.5728 161.997 87.1042 166.451 93.0756 170.684C93.4104 169.887 93.6531 169.01 93.8899 168.156C94.4863 166.003 95.2552 163.776 95.5096 159.378C92.6868 156.335 89.183 153.467 86.2754 151.067C85.6615 150.562 85.0314 150.041 84.3809 149.5C83.2056 148.523 82.5333 147.106 82.5786 145.712C82.6195 144.48 83.2042 143.392 84.2274 142.647C86.3543 141.099 88.9052 139.344 91.6943 138.06C92.2161 137.818 92.7877 138.318 92.6079 138.872C92.3609 139.637 93.0903 141.558 93.273 142.607C93.5624 144.278 93.8051 145.991 93.9951 147.7C94.3094 150.602 94.4731 153.537 94.4819 156.43C95.2888 157.207 96.0124 157.946 96.6848 158.681C96.8047 158.812 96.8676 158.986 96.8588 159.165C96.7112 162.098 96.2258 165.03 95.4905 167.418C95.0374 168.916 94.6953 170.565 93.9294 171.998C93.7423 172.35 93.2862 172.459 92.9558 172.229L92.9529 172.231ZM91.2513 139.759C88.9753 140.918 86.9142 142.343 85.0095 143.729C84.1339 144.366 83.9278 145.184 83.9087 145.757C83.8766 146.744 84.3707 147.76 85.2317 148.476C85.8807 149.015 86.5107 149.534 87.1218 150.038C89.3188 151.851 91.2689 153.458 93.1297 155.163C93.0844 152.731 92.9281 150.275 92.6649 147.844C91.975 141.618 91.4253 141.358 91.2513 139.756V139.759Z" fill="#262626"/>
<path d="M130.982 121.998C128.421 121.064 126.48 120.313 124.686 119.563C124.372 119.432 124.012 119.557 123.847 119.853C121.805 123.507 116.371 125.249 112.772 124.524C110.583 124.087 108.549 122.89 107.044 121.148C105.25 119.112 105.62 118.144 104.784 118.127C103.287 118.099 101.857 118.005 100.594 117.909C100.641 117.988 101.36 118.452 101.018 119.278C102.043 119.353 103.167 119.42 104.336 119.451C105.816 122.557 108.858 125.101 112.511 125.831C116.474 126.627 122.163 124.875 124.702 121.012C126.37 121.697 128.193 122.399 130.524 123.249C130.871 123.375 131.254 123.198 131.379 122.852C131.505 122.506 131.328 122.123 130.982 121.997V121.998Z" fill="#262626"/>
<path d="M89.4886 118.442C86.4261 120.547 83.9118 122.736 81.4136 125.328C81.1578 125.594 81.1651 126.014 81.4312 126.27C81.6972 126.526 82.1196 126.517 82.374 126.253C85.0578 123.467 87.7358 121.188 91.0219 119.016C90.3744 119.05 89.7678 119.145 89.4886 118.44V118.442Z" fill="#262626"/>
<path d="M72.6154 154.867C70.3511 152.437 68.2257 149.913 66.2946 147.366C65.5199 146.343 65.5213 144.915 66.3005 143.894C70.5996 138.31 75.5317 131.832 79.4171 127.484C79.6627 127.211 80.0837 127.186 80.3585 127.432C80.6333 127.677 80.6567 128.098 80.4111 128.373C76.5271 132.718 71.7222 139.038 67.3588 144.703C66.9436 145.249 66.9422 146.012 67.3574 146.56C69.2621 149.071 71.3583 151.56 73.5919 153.958C73.8433 154.227 73.8272 154.65 73.5583 154.901C73.2907 155.151 72.8668 155.138 72.6154 154.867Z" fill="#262626"/>
<path d="M138.964 136.919C138.715 136.647 138.734 136.225 139.007 135.978C142.315 132.964 144.723 129.614 146.163 126.021C146.313 125.643 146.775 125.479 147.136 125.704C150.083 127.55 154.564 130.561 157.559 132.705C157.859 132.92 157.927 133.337 157.712 133.636C157.498 133.936 157.081 134.005 156.781 133.79C154.021 131.814 149.994 129.101 147.091 127.253C145.552 130.755 143.137 134.019 139.905 136.964C139.634 137.211 139.212 137.194 138.964 136.92V136.919Z" fill="#262626"/>
<path d="M118.979 110.572C118.766 110.273 118.836 109.856 119.137 109.643C119.437 109.429 119.854 109.499 120.067 109.8C120.97 111.071 123.061 111.055 124.327 110.191C125.683 109.266 126.667 107.735 127.098 105.879C127.813 102.807 127.943 100.122 127.475 98.1149C127.392 97.7553 127.614 97.3972 127.974 97.3139C128.336 97.2321 128.692 97.4527 128.775 97.8123C129.297 100.05 129.17 102.865 128.398 106.181C127.89 108.364 126.711 110.179 125.078 111.293C123.265 112.531 120.337 112.482 118.978 110.574L118.979 110.572Z" fill="#262626"/>
<path d="M122.362 118.631C121.476 116.744 121.005 112.465 120.885 111.933C120.805 111.574 121.032 111.217 121.391 111.137C121.749 111.058 122.107 111.283 122.188 111.643C122.327 112.265 122.783 116.387 123.569 118.063C123.726 118.397 123.582 118.794 123.249 118.951C122.917 119.107 122.518 118.965 122.362 118.631Z" fill="#262626"/>
<path d="M115.73 109.052C114.193 108.463 113.278 107.04 112.934 105.902C112.827 105.55 113.026 105.178 113.38 105.071C113.729 104.964 114.105 105.163 114.212 105.517C114.453 106.312 115.121 107.389 116.21 107.807C116.553 107.938 116.726 108.324 116.594 108.668C116.461 109.016 116.071 109.182 115.733 109.052H115.73Z" fill="#262626"/>
<path d="M124.405 104.844C124.535 104.516 124.898 104.349 125.228 104.454C125.594 104.206 125.104 103.532 124.863 103.171C124.5 102.629 124.148 101.975 124.278 101.236C124.342 100.873 124.692 100.631 125.051 100.695C125.414 100.759 125.657 101.106 125.592 101.468C125.544 101.743 125.757 102.108 125.972 102.43C126.344 102.985 126.696 103.525 126.694 104.217C126.694 104.736 126.411 105.262 125.974 105.558C125.152 106.115 124.098 105.615 124.405 104.842V104.844Z" fill="#262626"/>
<path d="M123.231 106.906C123.409 106.583 123.815 106.466 124.137 106.644C124.309 106.739 124.545 106.747 124.722 106.662C125.055 106.503 125.453 106.644 125.612 106.976C125.771 107.308 125.629 107.707 125.298 107.866C124.22 108.381 122.751 107.774 123.231 106.906Z" fill="#262626"/>
<path d="M80.653 119.097C80.2846 119.083 79.9996 118.772 80.0142 118.403C80.0288 118.035 80.3256 117.74 80.7086 117.764C83.2594 117.88 85.379 115.544 86.5689 113.304C86.9723 112.544 87.3378 111.729 87.6915 110.942C89.9675 105.876 91.0946 104.67 96.3249 102.093C97.1859 101.669 98.0775 101.229 98.9005 100.747C102.992 98.344 106.667 94.1814 108.047 90.387C108.173 90.0406 108.557 89.8623 108.902 89.988C109.248 90.1137 109.427 90.4967 109.301 90.8431C107.823 94.9078 103.916 99.3496 99.5774 101.897C96.8701 103.486 93.7769 104.462 91.7436 106.639C89.8944 108.618 89.0934 111.395 87.75 113.928C86.2911 116.68 83.7798 119.211 80.6574 119.097H80.653Z" fill="#262626"/>
<path d="M125.072 88.9189C121.722 87.2395 117.454 86.9282 115.774 86.8727C113.175 86.7864 111.282 87.2132 109.807 88.2144C107.994 89.4451 107.037 91.4095 106.11 93.3096C100.621 104.532 93.9319 104.191 91.1881 108.743C89.3667 111.765 90.0611 116.583 87.1214 118.231C85.6991 119.03 83.2301 119.149 82.7156 121.261C82.4802 122.225 82.831 123.265 83.6321 123.977C85.05 125.237 86.9109 125.085 88.6636 124.85C90.9557 124.543 91.7261 124.527 94.9508 126.304C95.2811 126.485 95.6115 126.668 95.9418 126.84C96.1231 126.935 96.3102 127.039 96.5017 127.146C97.3262 127.605 98.4079 128.206 99.4955 128.206C100.199 128.206 100.905 127.954 101.546 127.253C102.426 126.289 102.72 125.104 103.305 124.123C104.958 121.356 108.784 120.558 111.5 118.283C115.423 114.997 114.957 110.862 114.966 110.817C114.887 109.776 115.004 111.859 114.356 104.929C114.319 104.533 113.948 104.264 113.573 104.336C111.938 104.631 110.225 103.737 110.57 102.152C110.813 101.036 111.782 100.128 112.485 100.064C112.635 100.051 113.035 100.014 113.346 100.758C113.456 101.023 113.679 101.215 113.955 101.288C115.473 101.688 119.699 97.579 124.475 94.2187C125.648 97.3159 128.435 99.5653 129.144 98.4033C131.039 95.2901 128.416 90.5939 125.069 88.9189H125.072ZM91.2963 117.428C90.7174 117.547 90.5464 116.672 91.1209 116.555C91.8737 116.403 92.2713 115.519 92.6762 114.466C93.2785 112.902 94.2331 112.08 95.3031 112.204C95.5472 112.233 95.7211 112.454 95.6934 112.698C95.6641 112.942 95.4463 113.119 95.1992 113.088C94.2666 112.983 93.6717 114.361 93.508 114.788C93.1206 115.792 92.5914 117.167 91.2977 117.429L91.2963 117.428ZM116.595 92.5452C114.036 92.6299 111.624 94.4657 110.859 96.9081C110.503 98.0452 110.444 99.3738 109.754 100.492C108.503 102.518 105.629 103.108 104.967 105.055C104.736 105.733 104.813 106.48 104.894 107.272C105.097 109.257 105.043 110.503 102.954 113.171C100.678 116.079 97.9971 118.636 94.9873 120.773C94.9098 120.829 94.8192 120.855 94.73 120.855C94.2988 120.855 94.119 120.298 94.4728 120.048C97.4139 117.961 100.032 115.463 102.255 112.623C103.132 111.504 103.96 110.28 104.077 108.92C104.189 107.592 103.647 106.182 104.126 104.77C104.575 103.45 105.715 102.686 106.819 101.948C108.966 100.511 109.246 100.032 109.699 97.9122C109.788 97.4942 109.88 97.063 110.013 96.6435C110.887 93.8519 113.644 91.7545 116.569 91.658C116.813 91.6317 117.019 91.8422 117.028 92.0877C117.037 92.3333 116.844 92.5393 116.598 92.5466L116.595 92.5452Z" fill="#262626"/>
<path d="M112.873 168.463C110.06 168.264 107.241 167.808 104.494 167.108C104.137 167.018 103.921 166.655 104.013 166.297C104.104 165.941 104.466 165.721 104.824 165.816C107.495 166.496 110.234 166.939 112.968 167.133C113.474 167.168 113.959 167.189 114.308 167.035C114.468 166.965 114.633 166.778 114.594 166.698C114.522 166.547 114.199 166.411 113.635 166.294C112.068 165.967 110.479 165.531 108.941 165.109C107.422 164.692 105.852 164.261 104.326 163.942C104.038 163.883 103.823 163.641 103.797 163.349C103.77 163.057 103.939 162.781 104.212 162.671C107.412 161.357 107.973 161.198 108.185 161.015C107.937 160.736 107.353 160.825 106.982 160.879C106.643 160.929 106.304 160.977 105.968 161.025C104.71 161.203 103.522 161.371 102.357 161.646C100.476 162.091 97.6689 161.405 96.3065 160.932C95.9586 160.81 95.7744 160.43 95.8957 160.082C96.0171 159.735 96.3957 159.549 96.745 159.672C98.3852 160.243 100.734 160.658 102.051 160.348C103.276 160.059 104.493 159.887 105.782 159.705C106.115 159.659 106.451 159.61 106.789 159.561C107.285 159.487 107.814 159.43 108.349 159.597C109.004 159.8 109.641 160.429 109.534 161.195C109.419 162.012 108.581 162.351 108.222 162.494L106.668 163.121C107.552 163.346 108.432 163.587 109.296 163.824C110.813 164.241 112.382 164.672 113.908 164.99C114.393 165.093 115.406 165.303 115.799 166.125C116.196 166.953 115.686 167.892 114.848 168.26C114.227 168.533 113.55 168.514 112.877 168.468L112.873 168.463Z" fill="#262626"/>
<path d="M112.035 171.147C109.18 170.977 106.321 170.563 103.537 169.919C103.179 169.836 102.956 169.478 103.039 169.118C103.122 168.76 103.477 168.536 103.84 168.62C106.955 169.34 112.318 170.069 113.279 169.743C113.546 169.653 113.757 169.453 113.789 169.258C113.779 169.115 113.514 168.717 113.352 168.622C113.016 168.606 112.739 168.339 112.719 167.995C112.674 167.232 113.665 166.94 114.493 167.868C114.837 168.253 115.204 168.907 115.105 169.485C114.986 170.17 114.451 170.753 113.709 171.006C113.16 171.193 112.612 171.182 112.036 171.147H112.035Z" fill="#262626"/>
<path d="M111.357 173.218C108.296 173.153 105.259 172.678 102.328 171.804C101.974 171.699 101.774 171.328 101.879 170.974C101.984 170.62 102.359 170.42 102.709 170.525C105.525 171.366 108.444 171.822 111.385 171.883C111.746 171.891 112.09 171.886 112.31 171.752C112.367 171.714 112.512 171.527 112.531 171.338C112.54 171.247 112.517 171.186 112.449 171.122C112.185 170.866 112.177 170.444 112.433 170.179C113.047 169.546 113.973 170.442 113.857 171.493C113.796 172.048 113.445 172.624 113.005 172.892C112.493 173.203 111.945 173.229 111.357 173.218Z" fill="#262626"/>
<path d="M94.3143 170.476C93.9912 170.298 93.8743 169.893 94.0527 169.57C94.2296 169.247 94.6373 169.13 94.9589 169.309C96.5742 170.204 97.9644 170.992 99.3005 171.593C102.648 173.093 106.596 174.535 110.488 173.873C110.792 173.821 111.096 173.75 111.256 173.592C111.306 173.543 111.33 173.455 111.33 173.41C111.088 173.155 111.085 172.754 111.33 172.495C111.582 172.226 112.005 172.213 112.272 172.467C112.853 173.012 112.753 173.981 112.198 174.538C111.771 174.958 111.233 175.098 110.713 175.187C105.101 176.144 99.2449 173.211 94.3143 170.475V170.476Z" fill="#262626"/>
<path d="M156.443 133.042C156.138 132.836 156.057 132.421 156.265 132.115C158.903 128.214 162.546 123.478 162.659 120.352C162.7 119.238 162.492 117.734 161.776 117.166C161.482 116.932 161.105 116.884 160.617 117.014C160.263 117.109 159.894 116.898 159.799 116.543C159.703 116.188 159.913 115.821 160.27 115.726C162.941 115.005 164.093 117.623 163.992 120.402C163.863 124.009 160.144 128.762 157.37 132.865C157.241 133.055 156.749 133.249 156.443 133.043V133.042Z" fill="#262626"/>
<path d="M159.397 122.921C159.121 122.677 159.094 122.256 159.338 121.98C159.901 121.344 160.359 119.91 160.281 119.029C160.202 118.133 160.037 116.852 159.518 116.085C159.167 115.568 158.144 114.941 157.722 115.268C157.432 115.496 157.013 115.445 156.785 115.155C156.557 114.866 156.608 114.447 156.897 114.219C158.035 113.325 159.844 114.188 160.622 115.337C161.309 116.35 161.511 117.779 161.61 118.912C161.721 120.172 161.15 121.943 160.337 122.861C160.093 123.137 159.672 123.164 159.396 122.92L159.397 122.921Z" fill="#262626"/>
<path d="M157.909 122.184C157.583 122.013 157.458 121.61 157.629 121.284C158.779 119.09 158.216 116.345 156.136 114.765C155.936 114.613 155.654 114.616 155.516 114.768C155.224 115.229 155.195 115.277 155.157 115.322C154.92 115.606 154.501 115.644 154.217 115.408C153.952 115.188 153.901 114.806 154.088 114.527C154.116 114.483 154.46 113.945 154.432 113.991C155.03 113.22 156.148 113.102 156.943 113.706C159.55 115.687 160.257 119.149 158.81 121.907C158.691 122.133 158.234 122.358 157.909 122.187V122.184Z" fill="#262626"/>
<path d="M149.055 127.548C148.695 127.467 148.472 127.109 148.554 126.75C148.622 126.449 148.666 126.3 148.754 126.001C149.648 122.895 148.884 121.6 149.055 120.183C149.388 117.545 152.566 117.45 152.797 119.488C152.845 119.913 152.755 120.448 152.687 120.924C152.654 121.163 152.591 121.984 152.737 122.177C152.889 121.959 153.097 121.283 153.154 120.373C153.323 117.614 151.416 116.864 152.006 115.215C152.544 113.725 155.105 113.618 156.136 115.67C156.979 117.338 157.184 119.229 156.741 121.291C156.663 121.652 156.311 121.88 155.949 121.804C155.589 121.727 155.36 121.373 155.436 121.012C155.817 119.232 155.656 117.681 154.943 116.271C154.434 115.256 153.38 115.332 153.26 115.667C153.149 115.975 153.429 116.449 153.76 117.056C155.075 119.534 154.415 122.636 153.461 123.32C152.606 123.934 151.408 123.253 151.328 122.045C151.275 121.236 151.386 120.615 151.389 120.566C151.441 120.208 151.493 119.84 151.471 119.637C151.454 119.483 151.388 119.45 151.36 119.435C151.255 119.381 151.05 119.384 150.828 119.51C150.172 119.882 150.379 121.076 150.458 121.785C150.721 124.451 150.024 126.294 149.852 127.046C149.781 127.356 149.403 127.629 149.053 127.547L149.055 127.548Z" fill="#262626"/>
<path d="M112.566 131.824C109.842 131.636 107.223 130.233 105.556 128.071C105.331 127.779 105.385 127.361 105.678 127.136C105.969 126.91 106.388 126.964 106.613 127.257C108.05 129.12 110.31 130.332 112.658 130.494C113.026 130.521 113.302 130.838 113.278 131.206C113.251 131.582 112.919 131.855 112.566 131.826V131.824Z" fill="#262626"/>
<path d="M108.11 133.885C108.098 133.885 108.086 133.885 108.075 133.885C106.721 133.814 105.436 133.055 104.72 131.905C104.526 131.592 104.621 131.181 104.933 130.986C105.246 130.791 105.657 130.886 105.853 131.199C106.335 131.972 107.234 132.504 108.145 132.551C108.513 132.57 108.795 132.884 108.776 133.253C108.757 133.609 108.462 133.884 108.111 133.884L108.11 133.885Z" fill="#262626"/>
<path d="M92.7872 138.108L91.4672 136.034C91.2699 135.723 91.362 135.311 91.6719 135.114C91.9818 134.916 92.394 135.007 92.5928 135.318L93.9128 137.392C94.1101 137.704 94.0181 138.116 93.7082 138.313C93.3983 138.51 92.986 138.42 92.7872 138.108Z" fill="#262626"/>
<path d="M79.4416 147.623C79.2267 147.324 79.2954 146.907 79.595 146.692C80.6227 145.956 81.9295 145.64 83.1808 145.828C83.5448 145.884 83.7963 146.223 83.7407 146.587C83.6852 146.951 83.3475 147.202 82.982 147.147C82.0713 147.011 81.1211 147.239 80.3742 147.775C80.0745 147.99 79.6579 147.921 79.4431 147.622L79.4416 147.623Z" fill="#262626"/>
<path d="M77.8606 138.412C77.5156 138.282 77.3401 137.899 77.4702 137.554C78.2508 135.473 79.66 133.592 81.4361 132.257C81.7314 132.036 82.1494 132.095 82.3701 132.39C82.5923 132.685 82.5324 133.103 82.2372 133.324C80.6599 134.509 79.41 136.177 78.7186 138.023C78.5885 138.372 78.1997 138.542 77.8606 138.413V138.412Z" fill="#262626"/>
<path d="M94.9619 187.454C90.5079 182.835 90.4012 176.09 90.4143 170.123C90.4158 169.474 91.1423 169.432 91.0823 169.458C91.4507 169.458 91.749 169.758 91.7475 170.126C91.7343 175.85 91.7811 182.236 95.9209 186.527C96.1767 186.793 96.1694 187.214 95.9033 187.47C95.6387 187.725 95.2163 187.718 94.9605 187.452L94.9619 187.454Z" fill="#262626"/>
<path d="M74.494 121.999C74.1607 121.841 74.0189 121.444 74.1768 121.11C74.3347 120.777 74.7323 120.634 75.0656 120.793C78.0111 122.188 81.5413 122.218 84.5131 120.875C84.8479 120.723 85.244 120.871 85.3961 121.208C85.5481 121.544 85.399 121.939 85.0628 122.091C81.7445 123.594 77.7933 123.561 74.4955 122L74.494 121.999Z" fill="#262626"/>
<path d="M155.291 135.828C155.036 135.563 155.041 135.141 155.306 134.885L157.012 133.23C157.275 132.973 157.699 132.981 157.955 133.245C158.211 133.51 158.205 133.932 157.94 134.188L156.234 135.842C155.971 136.098 155.547 136.092 155.291 135.828Z" fill="#262626"/>
<path d="M121.18 229.503C121.76 210.666 121.99 211.388 121.621 211.002C121.497 210.872 121.326 210.798 121.148 210.796C117.509 210.749 117.416 210.333 116.974 210.694C116.827 210.815 116.737 210.995 116.73 211.186L116.094 229.503H121.18Z" fill="#262626"/>
<path d="M118.641 227.487C115.486 227.376 101.47 227.146 101.361 230.313C101.333 231.107 101.91 232.143 106.658 233.107C113.175 234.429 123.69 234.782 130.205 233.924C135.008 233.291 135.656 232.298 135.684 231.505C135.795 228.337 121.792 227.596 118.641 227.487ZM122.03 230.753C120.06 231.544 117.674 231.534 115.647 230.619C115.423 230.518 115.324 230.255 115.425 230.031C115.526 229.808 115.787 229.707 116.012 229.809C117.777 230.606 119.904 230.65 121.699 229.929C121.927 229.838 122.185 229.948 122.278 230.176C122.37 230.404 122.259 230.663 122.03 230.755V230.753Z" fill="#262626"/>
<path d="M67.574 186.099C63.9853 185.975 76.4208 186.404 51.2342 185.535C49.5312 186.048 47.584 186.224 47.5387 186.179C46.9847 186.213 46.3825 186.213 45.8884 186.188C45.3052 186.157 44.7277 186.094 44.1547 186.001C44.0801 185.964 42.8391 185.834 41.1215 185.182C16.043 184.311 28.4609 184.742 24.8708 184.618C23.5186 184.564 22.3887 185.628 22.3404 186.974L22.3361 187.153C22.2878 188.5 23.3461 189.634 24.6983 189.683L67.4016 191.163H67.4864C68.7932 191.163 69.8837 190.123 69.9275 188.807L69.9363 188.629C69.9802 187.277 68.9218 186.143 67.574 186.099ZM29.0953 188.206C28.9185 188.201 27.1117 188.136 27.2272 188.139C26.6498 188.129 26.6644 187.233 27.2579 187.255L29.1085 187.318C29.3527 187.327 29.5441 187.531 29.5354 187.775C29.5266 188.015 29.3307 188.206 29.0953 188.206Z" fill="#262626"/>
<path d="M28.987 228.468C28.7034 228.233 28.6639 227.812 28.8993 227.528L60.3307 189.662C60.566 189.379 60.987 189.341 61.2706 189.574C61.5542 189.81 61.5936 190.231 61.3583 190.514L29.9269 228.38C29.6915 228.664 29.2706 228.703 28.987 228.468Z" fill="#262626"/>
<path d="M58.104 229.78L28.0671 188.95C27.8493 188.654 27.9122 188.236 28.209 188.018C28.5057 187.8 28.9223 187.863 29.1416 188.16L59.1784 228.99C59.3962 229.286 59.3334 229.704 59.0367 229.922C58.7414 230.14 58.3233 230.079 58.104 229.78Z" fill="#262626"/>
<path d="M45.8916 186.189C45.3083 186.158 44.731 186.096 44.1579 186.002C44.7675 186.139 45.399 186.22 46.0436 186.242C46.1635 186.246 46.2833 186.246 46.4076 186.246C46.7906 186.246 47.1677 186.224 47.542 186.179C46.9879 186.212 46.3857 186.212 45.8916 186.188V186.189ZM46.6123 169.772C38.4599 169.493 34.149 178.115 39.4787 183.459C43.5103 185.67 48.2685 185.926 52.5267 184.134C54.3028 182.712 55.4371 180.633 55.5146 178.327C55.6739 173.644 51.5414 169.942 46.6108 169.771L46.6123 169.772ZM43.5615 173.467C42.107 174.806 41.227 176.789 41.2007 178.763C41.2007 179.007 41.0005 179.203 40.7563 179.203H40.7519C40.5078 179.198 40.312 178.998 40.312 178.754C40.3383 176.535 41.3308 174.316 42.9578 172.812C43.1361 172.647 43.4197 172.657 43.5849 172.839C43.7545 173.017 43.7413 173.301 43.5629 173.466L43.5615 173.467Z" fill="#262626"/>
<path d="M47.4 149.655L46.6969 169.867C46.6881 170.226 46.3899 170.511 46.0347 170.511H46.0084C45.64 170.498 45.355 170.187 45.3681 169.821L46.0668 149.61L46.3431 141.709C46.3519 141.465 46.4937 141.26 46.6939 141.153C46.6135 143.635 46.4937 146.156 46.3343 149.077C46.3212 149.321 46.5083 149.534 46.7524 149.547H46.7787C47.0097 149.547 47.2055 149.365 47.2187 149.125C47.3795 146.275 47.495 143.802 47.5696 141.374C47.783 141.687 47.6441 141.533 47.4 149.654V149.655Z" fill="#262626"/>
<path d="M39.098 149.37L35.3705 149.241C34.9071 149.222 34.6205 148.763 34.7653 148.357L40.6358 131.396C40.7293 131.12 40.9779 130.939 41.2892 130.952L43.976 131.045C42.8402 135.283 40.7206 143.3 39.098 149.371V149.37Z" fill="#262626"/>
<path d="M54.7363 149.908C53.8504 149.877 57.9464 150.019 46.0679 149.61L40.0103 149.401C41.5583 143.604 43.4937 136.3 44.8897 131.075L46.8338 131.142C46.8338 138.322 46.6965 142.49 46.3354 149.076C46.3223 149.321 46.5094 149.534 46.7535 149.547H46.7797C47.0107 149.547 47.2066 149.364 47.2198 149.125C47.6174 142.034 47.7226 137.319 47.7226 131.173L49.7545 131.245C51.5467 137.408 53.219 143.673 54.7349 149.908H54.7363Z" fill="#262626"/>
<path d="M58.0418 150.023C57.3372 150 55.5378 149.94 55.6532 149.943C54.1461 143.709 52.4782 137.439 50.6904 131.275L53.3816 131.368C53.6754 131.377 53.9284 131.577 54.0044 131.862L58.6879 149.183C58.7975 149.601 58.4994 150.023 58.0433 150.023H58.0418Z" fill="#262626"/>
<path d="M137.845 33.3818L132.772 38.4916L133.363 39.0061L138.482 34.0381C138.15 33.9328 137.938 33.6815 137.846 33.3818H137.845Z" fill="#262626"/>
<path d="M139.762 30.751L140.078 20.8398L139.008 20.8062L138.657 31.8135" fill="#262626"/>
<path d="M124.44 31.4345L121.387 31.3293C121.018 31.3161 120.73 31.0077 120.744 30.6394C120.757 30.271 121.064 29.9743 121.434 29.9963L124.487 30.1015C124.856 30.1147 125.144 30.423 125.13 30.7914C125.117 31.1714 124.79 31.455 124.44 31.4345Z" fill="#262626"/>
<path d="M154.506 32.4341L152.559 32.3668C152.206 32.3508 151.882 32.6416 151.869 33.0099C151.855 33.3783 152.143 33.6867 152.512 33.6999L154.504 33.7685V32.4341H154.506Z" fill="#262626"/>
<path d="M140.02 18.3461C139.651 18.333 139.363 18.0246 139.376 17.6563L139.431 16.088C139.444 15.7196 139.756 15.4303 140.12 15.4449C140.489 15.458 140.777 15.7664 140.764 16.1347L140.71 17.703C140.696 18.0831 140.369 18.3666 140.02 18.3461Z" fill="#262626"/>
<path d="M136.566 49.2418C136.198 49.2286 135.91 48.9202 135.923 48.5519L135.985 46.7629C135.998 46.3945 136.318 46.1037 136.675 46.1198C137.043 46.1329 137.331 46.4414 137.318 46.8097L137.256 48.5987C137.243 48.9787 136.916 49.2622 136.566 49.2418Z" fill="#262626"/>
<path d="M139.029 11.3511C127.911 10.9667 118.529 20.0915 118.127 31.6938C117.715 43.5562 126.832 53.444 138.249 53.444C149.07 53.444 158.077 44.4565 158.471 33.094C158.873 21.4917 150.152 11.7384 139.029 11.3525V11.3511ZM153.593 32.9245C153.592 32.9683 153.587 33.1115 153.589 33.0677C153.21 41.8111 146.11 48.6967 137.743 48.3985C128.844 48.0901 122.134 39.9343 123.08 30.7642C123.91 22.4052 130.865 16.1057 138.854 16.3892C147.309 16.683 153.899 24.1109 153.593 32.9245ZM155.808 34.9882C155.789 35.2206 155.594 35.396 155.365 35.396C155.102 35.396 154.9 35.1709 154.92 34.9151L155.103 32.6979C155.124 32.4538 155.336 32.2726 155.584 32.2916C155.828 32.312 156.011 32.5269 155.991 32.7724L155.808 34.9897V34.9882Z" fill="#262626"/>
<path d="M140.431 30.6799C140.686 20.5159 140.922 20.763 140.564 20.3829C140.26 20.0585 139.912 20.2119 139.029 20.1403C138.67 20.1184 138.354 20.418 138.342 20.7863L138.034 30.4417C136.999 30.9547 136.319 32.2848 136.752 33.5374C132.188 38.2409 132.086 37.9997 132.105 38.5171C132.121 38.9688 132.51 39.0988 132.924 39.5096C133.185 39.7376 133.578 39.7274 133.827 39.4847L138.342 35.1028C140.851 35.9418 142.757 32.3901 140.433 30.6785L140.431 30.6799ZM139.062 33.2422C138.904 33.2422 138.82 33.1647 138.649 33.0887C138.43 32.9791 138.339 32.7131 138.449 32.4924C138.559 32.2732 138.825 32.1825 139.046 32.2921L139.262 32.4003C139.678 32.6107 139.528 33.2422 139.06 33.2422H139.062Z" fill="#262626"/>
<path d="M59.2817 247.332C57.931 247.273 56.2909 247.042 55.7778 245.791C61.4642 246.146 68.6752 245.877 74.3616 246.232C75.8526 246.325 75.8804 247.062 77.177 247.803C78.6914 248.668 79.6094 250.321 79.8535 252.016C80.0377 253.29 79.9968 256.427 78.247 256.522C76.7531 256.602 75.5398 254.11 74.8089 253.161C71.1091 248.351 65.3408 247.601 59.2788 247.332H59.2817Z" fill="#262626"/>
<path d="M89.9484 259.846L55.1724 258.639C54.804 258.625 54.516 258.317 54.5292 257.949C54.5423 257.58 54.8581 257.291 55.2192 257.306L89.9951 258.513C96.56 258.747 100.127 252.918 95.6596 249.229C94.2796 248.089 92.4056 247.422 90.3825 247.352L55.1388 246.129C54.7704 246.115 54.4824 245.807 54.4956 245.439C54.5087 245.07 54.8186 244.778 55.1855 244.796L90.4293 246.019C94.8337 246.172 99.1226 249.062 98.9779 253.236C98.8346 257.37 94.3659 260.005 89.9498 259.844L89.9484 259.846Z" fill="#262626"/>
<path d="M74.0444 258.617C75.0077 258.593 75.8936 258.177 76.5149 257.617C77.8802 256.389 79.1139 253.158 78.4503 250.582C78.0132 248.884 76.4257 247.114 74.4713 246.241L91.3389 246.826C94.1353 247.551 97.4477 248.793 98.2882 251.566C99.1288 254.339 97.1875 257.832 92.3783 258.795C88.3232 259.608 79.9311 258.63 73.5752 258.561L74.0444 258.615V258.617Z" fill="#262626"/>
<path d="M56.2403 258.441C55.8836 258.349 55.6673 257.986 55.7594 257.63C56.73 253.844 56.6642 249.838 55.5679 246.044C55.4655 245.69 55.6702 245.32 56.024 245.218C56.3777 245.115 56.7475 245.32 56.8499 245.674C58.0105 249.696 58.0807 253.945 57.0516 257.962C56.9595 258.321 56.5926 258.533 56.2403 258.442V258.441Z" fill="#262626"/>
<path d="M93.8765 243.938L65.528 242.799C63.613 242.722 61.8297 242.071 60.5053 240.965C55.9635 237.172 59.463 231.036 65.9899 231.282L94.7199 232.435C95.0883 232.449 95.3748 232.761 95.3602 233.128C95.3456 233.496 95.0269 233.785 94.6673 233.768L65.9373 232.614C64.3133 232.547 62.7784 232.968 61.609 233.795C60.4922 234.585 59.8534 235.652 59.8066 236.801C59.6984 239.486 62.6673 241.348 65.5836 241.465L93.932 242.603C94.3004 242.618 94.587 242.929 94.5723 243.296C94.5577 243.669 94.239 243.952 93.8794 243.936L93.8765 243.938Z" fill="#262626"/>
<path d="M78.5384 242.645C77.7563 242.568 77.0621 242.175 76.5899 241.682C75.5549 240.601 74.748 237.898 75.4438 235.845C75.9028 234.491 77.3017 233.148 78.9433 232.557L65.1938 232.005C62.8768 232.424 60.1067 233.233 59.2545 235.435C58.7385 236.77 59.1273 238.345 60.019 239.465C62.9513 243.142 69.3218 242.013 78.9214 242.629L78.537 242.645H78.5384Z" fill="#262626"/>
<path d="M92.2746 243.169C91.6782 239.82 91.9954 236.347 93.1926 233.126C93.3212 232.781 93.7057 232.606 94.0507 232.733C94.3957 232.861 94.5725 233.246 94.4439 233.591C93.33 236.589 93.0333 239.82 93.5888 242.935C93.6531 243.297 93.4119 243.644 93.0494 243.708C92.6824 243.772 92.3389 243.527 92.2761 243.169H92.2746Z" fill="#262626"/>
<path d="M92.6182 237.082L82.7599 236.74C82.3915 236.727 82.1035 236.419 82.1166 236.05C82.1298 235.682 82.4514 235.394 82.8066 235.407L92.6649 235.749C93.0333 235.762 93.3213 236.071 93.3081 236.439C93.295 236.819 92.9676 237.103 92.6182 237.082Z" fill="#262626"/>
<path d="M90.1476 240.593L77.8086 240.165C77.4403 240.152 77.1523 239.843 77.1655 239.475C77.1786 239.107 77.4899 238.807 77.8554 238.832L90.1944 239.26C90.5628 239.273 90.8507 239.582 90.8376 239.95C90.8244 240.33 90.497 240.614 90.1476 240.593Z" fill="#262626"/>
<path d="M76.3525 250.727L59.0142 250.125C58.6458 250.112 58.3579 249.803 58.371 249.435C58.3842 249.067 58.7014 248.782 59.061 248.792L76.3993 249.394C76.7677 249.407 77.0556 249.715 77.0425 250.084C77.0293 250.464 76.7019 250.747 76.3525 250.727Z" fill="#262626"/>
<path d="M75.4025 255.541L65.4024 255.195C65.034 255.182 64.7461 254.873 64.7592 254.505C64.7724 254.137 65.0794 253.84 65.4492 253.862L75.4493 254.208C75.8176 254.222 76.1056 254.53 76.0925 254.898C76.0793 255.278 75.7519 255.562 75.4025 255.541Z" fill="#262626"/>
<path d="M101.792 260.924L37.0289 258.676C36.6605 258.663 36.3725 258.355 36.3857 257.986C36.3988 257.618 36.719 257.331 37.0757 257.343L101.839 259.591C102.207 259.604 102.495 259.913 102.482 260.281C102.469 260.661 102.141 260.945 101.792 260.924Z" fill="#262626"/>
<path d="M63.8153 239.592C62.3579 237.578 62.3038 234.615 63.6852 232.548C63.8226 232.345 64.0974 232.29 64.302 232.426C64.5067 232.561 64.5608 232.838 64.4248 233.042C63.2422 234.811 63.289 237.347 64.5359 239.072C64.6792 239.27 64.6353 239.548 64.4365 239.693C64.2377 239.836 63.96 239.792 63.8153 239.593V239.592Z" fill="#262626"/>
<path d="M91.5525 256.25C91.4867 256.013 91.6256 255.769 91.8624 255.703C93.4031 255.277 94.5331 253.577 94.3284 251.991C94.2977 251.747 94.4688 251.525 94.7129 251.493C94.957 251.463 95.1792 251.634 95.2114 251.877C95.4745 253.913 94.0784 256.013 92.1006 256.561C91.8638 256.627 91.6197 256.488 91.554 256.252L91.5525 256.25Z" fill="#262626"/>
<path d="M219.823 226.782C219.624 224.998 217.635 224.232 216.568 223.82C211.399 221.827 207.604 219.217 204.628 215.604C204.392 215.32 203.973 215.279 203.688 215.513C203.425 215.731 203.373 216.107 203.553 216.387L194.626 222.126C194.598 222.095 194.576 222.07 194.547 222.039C194.297 221.769 193.875 221.753 193.604 222.001C193.334 222.251 193.316 222.674 193.566 222.944C195.019 224.518 194.604 224.186 197.896 227.861C199.038 229.112 199.864 230.015 201.562 230.894C205.759 233.064 211.709 231.819 216.207 230.436C216.965 230.204 217.825 229.939 218.551 229.393C219.44 228.725 219.928 227.725 219.824 226.782H219.823ZM211.159 226.241C208.804 225.68 206.619 224.518 204.838 222.88C204.657 222.713 204.647 222.432 204.812 222.251C204.979 222.071 205.259 222.058 205.44 222.225C207.108 223.761 209.158 224.85 211.365 225.376C211.931 225.511 211.739 226.379 211.159 226.241Z" fill="#262626"/>
<path d="M185.723 233.622C185.222 233.198 184.662 232.909 184.118 232.628C180.921 230.977 178.781 228.426 177.694 225.557C177.436 224.879 176.429 225.046 176.403 225.769L166.872 225.427C166.862 225.373 166.854 225.322 166.843 225.266C166.768 224.905 166.416 224.674 166.053 224.749C165.692 224.823 165.461 225.177 165.536 225.538C166.336 229.385 165.589 231.727 167.891 234.686C169.936 237.316 173.424 238.029 176.82 238.533C179.198 238.887 183.392 239.514 185.478 238.256C187.244 237.19 187.434 235.066 185.723 233.622ZM172.18 232.503C172.06 232.503 171.939 232.454 171.851 232.358C170.515 230.896 169.502 229.123 168.918 227.232C168.847 226.997 168.978 226.748 169.212 226.675C169.449 226.602 169.696 226.735 169.769 226.969C170.315 228.736 171.262 230.392 172.509 231.757C172.769 232.042 172.564 232.503 172.18 232.503Z" fill="#262626"/>
<path d="M180.125 135.673C167.739 134.724 153.112 133.991 138.55 135.75C138.315 135.78 138.113 135.93 138.018 136.147C133.685 146.128 130.577 156.342 126.803 164.774C124.429 165.073 119.44 164.271 112.032 164.483C111.663 164.493 111.374 164.8 111.384 165.168C111.394 165.537 111.71 165.844 112.07 165.816C119.791 165.594 124.726 166.49 127.266 166.053C127.407 166.115 127.568 166.13 127.725 166.085C131.431 165.006 134.34 162.57 137.731 161.041C140.646 159.727 144.922 159.107 147.375 161.681C147.607 161.925 148.034 161.988 148.329 161.693C151.292 158.731 155.321 155.212 160.211 154.268C164.574 153.426 169.803 154.827 171.36 159.133C171.525 159.591 172.035 159.588 171.99 159.573C172.272 159.573 172.523 159.393 172.617 159.127C174.003 155.199 175.352 151.461 176.659 147.847C177.966 144.229 179.316 140.489 180.704 136.557C180.85 136.142 180.562 135.704 180.125 135.67V135.673ZM142.796 144.482L139.316 151.3C139.237 151.454 139.082 151.543 138.92 151.543C138.592 151.543 138.372 151.194 138.524 150.897L142.004 144.079C142.115 143.859 142.383 143.773 142.602 143.884C142.821 143.995 142.908 144.264 142.796 144.482ZM157.106 151.602C155.511 151.546 154.255 150.431 154.301 149.111C154.346 147.791 155.676 146.767 157.273 146.821C158.867 146.876 160.123 147.991 160.078 149.311C160.032 150.631 158.702 151.656 157.106 151.602Z" fill="#262626"/>
<path d="M190.273 212.051C181.34 202.268 170.855 193.792 160.713 185.596C156.415 182.121 151.972 178.53 146.651 176.822C140.884 174.97 134.948 176.032 131.525 179.528C131.268 179.792 130.846 179.796 130.583 179.539C130.32 179.281 130.315 178.859 130.572 178.596C134.342 174.74 140.815 173.545 147.06 175.551C152.619 177.336 157.366 181.173 161.554 184.558C171.734 192.785 182.258 201.293 191.259 211.15C191.507 211.422 191.488 211.845 191.216 212.093C190.943 212.342 190.522 212.323 190.273 212.051Z" fill="#262626"/>
<path d="M183.97 199.14C183.4 198.427 183.311 197.539 183.13 196.814C183.069 196.569 182.83 195.764 182.333 195.649C182.123 195.6 181.788 195.652 181.421 195.595C180.284 195.421 179.796 194.681 176.512 191.208C175.71 190.361 174.846 189.595 173.969 189.698C173.603 189.745 173.27 189.484 173.225 189.118C173.18 188.753 173.44 188.42 173.805 188.374C176.05 188.092 177.474 190.42 180.443 193.421C181.639 194.688 181.648 194.121 182.631 194.348C183.492 194.545 184.128 195.305 184.424 196.489C184.638 197.35 184.748 198.646 185.624 198.567C185.744 198.557 185.768 198.513 185.777 198.499C185.956 198.177 186.362 198.06 186.684 198.239C187.444 198.66 186.857 199.801 185.736 199.896C185.684 199.901 184.375 199.648 183.969 199.139L183.97 199.14Z" fill="#262626"/>
<path d="M139.124 169.322C138.886 169.042 138.921 168.621 139.201 168.383L141.814 166.168C142.157 165.879 142.673 166.003 142.853 166.404L142.863 166.427L144.188 165.211C144.354 165.057 144.588 164.999 144.809 165.057C145.028 165.116 145.204 165.281 145.274 165.496C145.404 165.895 145.736 166.233 146.183 166.423C146.63 166.613 147.104 166.615 147.481 166.431C147.811 166.271 148.212 166.407 148.374 166.737C148.536 167.067 148.399 167.468 148.069 167.63C146.848 168.226 145.303 167.792 144.473 166.763L143.088 168.036C142.749 168.347 142.213 168.229 142.029 167.818L142.002 167.76L140.067 169.401C139.788 169.638 139.365 169.606 139.127 169.324L139.124 169.322Z" fill="#262626"/>
<path d="M139.691 190.723C139.547 190.384 139.708 189.993 140.047 189.851L143.1 188.569C143.44 188.426 143.83 188.587 143.972 188.926C144.115 189.265 143.955 189.656 143.616 189.798L140.563 191.08C140.23 191.22 139.834 191.068 139.691 190.723Z" fill="#262626"/>
<path d="M106.703 199.346C106.419 199.11 106.38 198.689 106.615 198.406C106.85 198.122 107.271 198.083 107.555 198.318C111.736 201.79 117.247 203.671 122.679 203.482C123.028 203.463 123.356 203.745 123.369 204.125C123.382 204.494 123.094 204.802 122.725 204.815C116.924 205.015 111.1 202.994 106.703 199.344V199.346Z" fill="#262626"/>
<path d="M127.67 150.625C127.306 150.565 127.06 150.221 127.12 149.858C127.514 147.485 128.091 145.131 128.842 142.846C128.503 142.696 128.218 142.421 128.063 142.088C127.701 141.303 127.876 140.945 128.813 135.829C128.879 135.467 129.225 135.227 129.589 135.293C129.952 135.358 130.192 135.706 130.126 136.069L129.297 140.601C129.241 140.904 129.116 141.516 129.398 141.632C129.927 141.269 130.617 141.797 130.404 142.403C129.529 144.891 128.869 147.471 128.437 150.075C128.378 150.436 128.037 150.685 127.67 150.625Z" fill="#262626"/>
<path d="M101.59 153.681C100.022 152.592 99.3258 150.415 99.9704 148.619C100.095 148.273 100.476 148.091 100.824 148.217C101.171 148.341 101.35 148.723 101.226 149.071C100.786 150.298 101.28 151.842 102.35 152.587C102.653 152.798 102.727 153.213 102.517 153.516C102.306 153.818 101.891 153.893 101.589 153.682L101.59 153.681Z" fill="#262626"/>
<path d="M171.505 219.935L168.915 208.045C168.837 207.685 169.065 207.33 169.425 207.251C169.784 207.172 170.139 207.4 170.218 207.761L172.809 219.651C172.886 220.011 172.66 220.366 172.299 220.445C171.943 220.522 171.584 220.299 171.505 219.935Z" fill="#262626"/>
<path d="M166.068 217.591C165.712 217.498 165.5 217.132 165.593 216.777C165.94 215.462 165.833 214.05 165.292 212.8C165.222 212.637 165.256 212.651 165.072 211.087C165.031 210.722 165.295 210.392 165.661 210.351C166.026 210.314 166.356 210.574 166.397 210.94L166.557 212.365C167.179 213.864 167.296 215.547 166.883 217.116C166.788 217.479 166.416 217.685 166.068 217.591Z" fill="#262626"/>
<path d="M165.92 167.027C165.618 167.027 165.343 166.82 165.271 166.513C165.026 165.469 164.229 164.522 163.138 163.98C162.046 163.437 160.81 163.373 159.83 163.807C159.494 163.956 159.099 163.804 158.95 163.468C158.801 163.131 158.953 162.737 159.289 162.588C160.65 161.986 162.269 162.058 163.732 162.786C165.195 163.513 166.229 164.762 166.569 166.209C166.654 166.567 166.432 166.926 166.072 167.01C166.021 167.021 165.97 167.027 165.919 167.027H165.92Z" fill="#262626"/>
<path d="M87.4739 159.914C87.2955 159.914 87.1172 159.843 86.9856 159.702L81.8547 154.202C81.6033 153.933 81.618 153.511 81.8869 153.259C82.1559 153.009 82.5783 153.023 82.8297 153.292L87.9606 158.792C88.3582 159.217 88.0528 159.914 87.4724 159.914H87.4739Z" fill="#262626"/>
<path d="M16.2664 55.7199C15.7187 55.7004 15.2906 55.2399 15.3123 54.6925C15.9186 37.9611 26.5497 22.016 41.7661 15.0154C42.2638 14.7873 42.8528 15.0045 43.081 15.5019C43.3092 15.9994 43.0918 16.588 42.5941 16.8161C28.0405 23.5104 17.8723 38.7604 17.292 54.7641C17.2725 55.3267 16.7879 55.7459 16.2641 55.7177L16.2664 55.7199Z" fill="#CF3245"/>
<path d="M16.2664 55.7199C15.7187 55.7004 15.2906 55.2399 15.3123 54.6925C15.9186 37.9611 26.5497 22.016 41.7661 15.0154C42.2638 14.7873 42.8528 15.0045 43.081 15.5019C43.3092 15.9994 43.0918 16.588 42.5941 16.8161C28.0405 23.5104 17.8723 38.7604 17.292 54.7641C17.2725 55.3267 16.7879 55.7459 16.2641 55.7177L16.2664 55.7199Z" stroke="#CF3245"/>
<path d="M13.5604 34.7891C13.0316 34.6494 12.7173 34.1036 12.856 33.5731C14.3277 27.9364 17.9257 22.8323 22.7245 19.573C23.1753 19.2651 23.7929 19.3852 24.0964 19.8415C24.402 20.2977 24.2828 20.9178 23.8298 21.2256C19.4234 24.2186 16.1224 28.9035 14.7678 34.0818C14.6269 34.6232 14.0763 34.931 13.5604 34.7913V34.7891Z" fill="#CF3245"/>
<path d="M13.5604 34.7891C13.0316 34.6494 12.7173 34.1036 12.856 33.5731C14.3277 27.9364 17.9257 22.8323 22.7245 19.573C23.1753 19.2651 23.7929 19.3852 24.0964 19.8415C24.402 20.2977 24.2828 20.9178 23.8298 21.2256C19.4234 24.2186 16.1224 28.9035 14.7678 34.0818C14.6269 34.6232 14.0763 34.931 13.5604 34.7913V34.7891Z" stroke="#CF3245"/>
<path d="M283.56 22.3029C283.832 21.8282 284.44 21.6659 284.917 21.9372C289.981 24.8177 293.98 29.6141 295.886 35.0929C296.066 35.6081 295.791 36.1736 295.271 36.3486C294.752 36.5257 294.184 36.2501 294.003 35.7329C292.253 30.7019 288.582 26.3009 283.931 23.6522C283.444 23.376 283.289 22.7645 283.558 22.3024L283.56 22.3029Z" fill="#324D88"/>
<path fill-rule="evenodd" clip-rule="evenodd" d="M280.074 26.234L277.987 24.7683C277.537 24.4525 277.428 23.8319 277.744 23.3822C278.06 22.9325 278.68 22.8239 279.13 23.1396L281.218 24.6054C286.808 28.5302 290.843 34.277 292.644 40.844C292.789 41.374 292.457 41.9112 291.923 42.0385C291.388 42.1658 290.854 41.8349 290.707 41.3053C289.019 35.2111 285.266 29.8794 280.074 26.234Z" fill="#324D88"/>
<path d="M13.3119 198.863C12.763 199.175 12.0664 198.981 11.7564 198.434C8.46094 192.623 7.34914 185.534 8.70621 178.991C8.83241 178.375 9.43897 177.975 10.055 178.105C10.6727 178.233 11.0705 178.837 10.9425 179.455C9.69647 185.464 10.7183 191.969 13.7436 197.31C14.0605 197.867 13.8518 198.564 13.3137 198.865L13.3119 198.863Z" fill="#E99950"/>
<path d="M21.0913 203.653C20.7127 203.694 20.3226 203.538 20.0739 203.206C13.4645 194.355 11.4215 182.299 14.7444 171.745C14.9338 171.147 15.565 170.817 16.1546 171.012C16.7442 171.206 17.0713 171.848 16.8819 172.447C13.7774 182.306 15.6867 193.565 21.8621 201.836C22.3918 202.547 21.9489 203.562 21.0941 203.655L21.0913 203.653Z" fill="#E99950"/>
<path d="M59.2817 247.332C57.931 247.273 56.2909 247.042 55.7778 245.791C61.4642 246.146 68.6752 245.877 74.3616 246.232C75.8526 246.325 75.8804 247.062 77.177 247.803C78.6914 248.668 79.6094 250.321 79.8535 252.016C80.0377 253.29 79.9968 256.427 78.247 256.522C76.7531 256.602 75.5398 254.11 74.8089 253.161C71.1091 248.351 65.3408 247.601 59.2788 247.332H59.2817Z" fill="#262626"/>
<path d="M89.9484 259.846L55.1724 258.639C54.804 258.625 54.516 258.317 54.5292 257.949C54.5423 257.58 54.8581 257.291 55.2192 257.306L89.9951 258.513C96.56 258.747 100.127 252.918 95.6596 249.229C94.2796 248.089 92.4056 247.422 90.3825 247.352L55.1388 246.129C54.7704 246.115 54.4824 245.807 54.4956 245.439C54.5087 245.07 54.8186 244.778 55.1855 244.796L90.4293 246.019C94.8337 246.172 99.1226 249.062 98.9779 253.236C98.8346 257.37 94.3659 260.005 89.9498 259.844L89.9484 259.846Z" fill="#262626"/>
<path d="M74.0444 258.617C75.0077 258.593 75.8936 258.177 76.5149 257.617C77.8802 256.389 79.1139 253.158 78.4503 250.582C78.0132 248.884 76.4257 247.114 74.4713 246.241L91.3389 246.826C94.1353 247.551 97.4477 248.793 98.2882 251.566C99.1288 254.339 97.1875 257.832 92.3783 258.795C88.3232 259.608 79.9311 258.63 73.5752 258.561L74.0444 258.615V258.617Z" fill="#262626"/>
<path d="M56.2403 258.441C55.8836 258.349 55.6673 257.986 55.7594 257.63C56.73 253.844 56.6642 249.838 55.5679 246.044C55.4655 245.69 55.6702 245.32 56.024 245.218C56.3777 245.115 56.7475 245.32 56.8499 245.674C58.0105 249.696 58.0807 253.945 57.0516 257.962C56.9595 258.321 56.5926 258.533 56.2403 258.442V258.441Z" fill="#262626"/>
<path d="M93.8765 243.938L65.528 242.799C63.613 242.722 61.8297 242.071 60.5053 240.965C55.9635 237.172 59.463 231.036 65.9899 231.282L94.7199 232.435C95.0883 232.449 95.3748 232.761 95.3602 233.128C95.3456 233.496 95.0269 233.785 94.6673 233.768L65.9373 232.614C64.3133 232.547 62.7784 232.968 61.609 233.795C60.4922 234.585 59.8534 235.652 59.8066 236.801C59.6984 239.486 62.6673 241.348 65.5836 241.465L93.932 242.603C94.3004 242.618 94.587 242.929 94.5723 243.296C94.5577 243.669 94.239 243.952 93.8794 243.936L93.8765 243.938Z" fill="#262626"/>
<path d="M78.5384 242.645C77.7563 242.568 77.0621 242.175 76.5899 241.682C75.5549 240.601 74.748 237.898 75.4438 235.845C75.9028 234.491 77.3017 233.148 78.9433 232.557L65.1938 232.005C62.8768 232.424 60.1067 233.233 59.2545 235.435C58.7385 236.77 59.1273 238.345 60.019 239.465C62.9513 243.142 69.3218 242.013 78.9214 242.629L78.537 242.645H78.5384Z" fill="#262626"/>
<path d="M92.2746 243.169C91.6782 239.82 91.9954 236.347 93.1926 233.126C93.3212 232.781 93.7057 232.606 94.0507 232.733C94.3957 232.861 94.5725 233.246 94.4439 233.591C93.33 236.589 93.0333 239.82 93.5888 242.935C93.6531 243.297 93.4119 243.644 93.0494 243.708C92.6824 243.772 92.3389 243.527 92.2761 243.169H92.2746Z" fill="#262626"/>
<path d="M92.6182 237.082L82.7599 236.74C82.3915 236.727 82.1035 236.419 82.1166 236.05C82.1298 235.682 82.4514 235.394 82.8066 235.407L92.6649 235.749C93.0333 235.762 93.3213 236.071 93.3081 236.439C93.295 236.819 92.9676 237.103 92.6182 237.082Z" fill="#262626"/>
<path d="M90.1476 240.593L77.8086 240.165C77.4403 240.152 77.1523 239.843 77.1655 239.475C77.1786 239.107 77.4899 238.807 77.8554 238.832L90.1944 239.26C90.5628 239.273 90.8507 239.582 90.8376 239.95C90.8244 240.33 90.497 240.614 90.1476 240.593Z" fill="#262626"/>
<path d="M76.3525 250.727L59.0142 250.125C58.6458 250.112 58.3579 249.803 58.371 249.435C58.3842 249.067 58.7014 248.782 59.061 248.792L76.3993 249.394C76.7677 249.407 77.0556 249.715 77.0425 250.084C77.0293 250.464 76.7019 250.747 76.3525 250.727Z" fill="#262626"/>
<path d="M75.4025 255.541L65.4024 255.195C65.034 255.182 64.7461 254.873 64.7592 254.505C64.7724 254.137 65.0794 253.84 65.4492 253.862L75.4493 254.208C75.8176 254.222 76.1056 254.53 76.0925 254.898C76.0793 255.278 75.7519 255.562 75.4025 255.541Z" fill="#262626"/>
<path d="M101.792 260.924L37.0289 258.676C36.6605 258.663 36.3725 258.355 36.3857 257.986C36.3988 257.618 36.719 257.331 37.0757 257.343L101.839 259.591C102.207 259.604 102.495 259.913 102.482 260.281C102.469 260.661 102.141 260.945 101.792 260.924Z" fill="#262626"/>
<path d="M221.933 99.8694C221.931 99.8941 221.931 99.9194 221.93 99.9441C221.258 100.35 221.016 101.193 221.062 101.976C221.109 102.759 221.416 103.499 221.665 104.243C222.384 106.39 221.731 106.69 221.706 107.473C221.696 107.79 221.863 108.148 222.173 108.213C223.074 107.913 223.695 107.059 223.987 106.156C224.279 105.254 224.297 104.29 224.358 103.343C224.419 102.396 224.535 101.424 224.995 100.594C223.994 99.7839 222.66 99.3991 221.381 99.5504C221.492 99.5396 221.82 99.8789 221.932 99.8681L221.933 99.8694Z" fill="#262626"/>
<path d="M232.761 120.658C231.578 121.714 229.921 122.109 228.335 122.065C226.751 122.02 225.207 121.578 223.683 121.139C217.734 119.425 211.767 117.704 206.088 115.241C209.851 114.183 212.952 117.52 230.03 120.924C230.779 121.074 231.549 121.217 232.304 121.097C233.059 120.977 233.808 120.539 234.093 119.829L232.761 120.658Z" fill="#262626"/>
<path d="M195.364 102.683C193.474 100.298 194.722 99.8344 194.968 98.8565C195.117 98.2609 194.848 97.6489 194.577 97.097C193.239 94.3621 191.736 91.7076 190.081 89.1519C193.054 92.2329 195.678 95.6507 197.887 99.3185C197.663 98.8641 196.879 99.1312 196.763 99.6242C196.648 100.117 196.942 100.604 197.223 101.026C197.937 102.095 198.651 103.164 199.365 104.233C197.694 103.694 196.023 103.155 194.353 102.615L195.362 102.684L195.364 102.683Z" fill="#262626"/>
<path d="M153.512 99.2558C159.206 97.6697 164.902 96.0836 170.598 94.4968C172.565 93.9494 173.204 94.6753 171.872 96.1266C170.733 97.3659 167.432 97.964 165.849 98.3855C163.765 98.9406 161.625 99.2906 159.472 99.4273C157.752 99.5368 155.093 98.8153 153.512 99.2552V99.2558Z" fill="#262626"/>
<path d="M249.793 142.765L241.456 142.15C241.009 142.117 240.674 141.728 240.707 141.281C240.74 140.835 241.141 140.503 241.576 140.533L249.912 141.148C250.359 141.181 250.694 141.569 250.661 142.016C250.629 142.448 250.258 142.796 249.793 142.765Z" fill="#262626"/>
<path d="M179.236 115.797C178.789 115.787 178.434 115.416 178.443 114.968L178.744 101.352C178.755 100.903 179.137 100.536 179.573 100.559C180.021 100.569 180.376 100.94 180.367 101.388L180.065 115.004C180.054 115.47 179.657 115.815 179.236 115.797Z" fill="#262626"/>
<path d="M238.08 141.441L192.473 135.923C192.028 135.87 191.712 135.466 191.766 135.021C191.819 134.576 192.225 134.261 192.669 134.313L238.276 139.831C238.72 139.885 239.038 140.289 238.983 140.734C238.93 141.174 238.53 141.494 238.08 141.441Z" fill="#262626"/>
<path d="M266.984 144.864L253.651 143.367C253.206 143.317 252.885 142.915 252.935 142.47C252.985 142.026 253.388 141.705 253.831 141.755L267.168 143.253C268.305 143.384 269.291 142.53 269.338 141.405L273.106 48.4418C273.153 47.2874 272.195 46.3791 271.114 46.4209L229.211 47.5937C228.78 47.6026 228.391 47.2538 228.378 46.8057C228.366 46.3582 228.718 45.9854 229.166 45.9728L271.069 44.8C273.174 44.7613 274.809 46.4766 274.727 48.507L270.958 141.47C270.919 142.457 270.465 143.391 269.714 144.033C268.99 144.652 268.007 144.981 266.984 144.864V144.864Z" fill="#262626"/>
<path d="M179.983 85.1643H179.974C179.526 85.1592 179.167 84.7915 179.172 84.344L179.562 51.5059C179.585 49.6211 181.078 48.0761 182.961 47.9894L202.51 47.0868C202.948 47.0659 203.337 47.4122 203.357 47.859C203.378 48.3065 203.032 48.6856 202.585 48.7065L183.036 49.609C182.01 49.6565 181.196 50.4983 181.184 51.5255L180.795 84.3636C180.79 84.8086 180.427 85.1649 179.983 85.1649V85.1643Z" fill="#262626"/>
<path d="M205.637 69.0604C207.635 68.2186 209.633 67.3774 211.631 66.5356C211.415 68.8376 211.707 71.0661 211.731 73.3466C210.89 73.1598 210.114 71.1952 209.314 70.5338C208.62 69.9604 206.617 68.6471 205.637 69.0598L205.637 69.0604Z" fill="#262626"/>
<path d="M228.744 121.256C222.363 120.035 215.931 118.326 211.54 116.683C211.12 116.526 210.907 116.059 211.064 115.64C211.221 115.22 211.689 115.008 212.108 115.164C216.42 116.777 222.753 118.459 229.05 119.664C232.433 120.312 233.349 119.769 234.494 117.199C236.128 113.534 237.558 108.664 238.228 104.487C238.299 104.046 238.716 103.743 239.157 103.815C239.6 103.886 239.901 104.301 239.83 104.744C239.139 109.049 237.663 114.074 235.976 117.859C235.384 119.187 234.641 120.502 233.225 121.14C231.846 121.762 230.229 121.54 228.745 121.256H228.744Z" fill="#262626"/>
<path d="M179.921 89.0851C179.843 89.0851 179.763 89.0737 179.684 89.0497C177.657 88.43 175.9 87.7629 174.312 87.0116C172.358 86.0831 170.549 84.7559 168.801 83.4723C167.711 82.6729 166.584 81.8457 165.463 81.1501C165.115 80.9324 164.805 80.7482 164.499 80.6817C164.494 80.6811 164.49 80.6799 164.486 80.6786C164.478 80.6773 164.471 80.6754 164.463 80.6735C164.242 80.6381 164.056 80.6862 163.992 80.752C163.826 80.9223 163.884 81.4001 164.13 81.9463C165.067 84.0071 166.78 85.7559 168.829 86.7426C169.042 86.8502 169.245 86.9395 169.455 87.0224C169.873 87.1863 170.078 87.6566 169.914 88.0731C169.75 88.4901 169.278 88.6946 168.863 88.5319C168.602 88.4294 168.357 88.3199 168.113 88.1977C165.704 87.0376 163.761 85.0534 162.653 82.6147C162.094 81.3742 162.156 80.3134 162.827 79.626C163.282 79.1501 164.009 78.9444 164.768 79.0811C164.786 79.0842 164.805 79.0887 164.824 79.0931C164.83 79.0944 164.836 79.0963 164.843 79.0975C165.404 79.2191 165.88 79.4982 166.322 79.7741C167.494 80.5014 168.647 81.347 169.761 82.1653C171.448 83.404 173.194 84.685 175.008 85.547C176.523 86.2635 178.207 86.9028 180.16 87.499C180.588 87.63 180.829 88.0832 180.698 88.511C180.592 88.8604 180.27 89.0851 179.923 89.0851H179.921Z" fill="#262626"/>
<path d="M191.602 92.0267C191.246 92.0267 190.917 91.9438 190.667 91.8805L184.047 90.2368C183.521 90.1064 183 89.9766 182.478 89.838C182.045 89.7228 181.788 89.2785 181.903 88.8462C182.018 88.4133 182.464 88.1564 182.895 88.2709C183.407 88.4076 183.92 88.5348 184.437 88.6627L191.06 90.307C191.243 90.3532 191.575 90.4374 191.695 90.3944C192.114 90.2425 192.581 90.4577 192.734 90.8792C192.888 91.3001 192.671 91.7653 192.249 91.9185C192.031 91.9976 191.812 92.0267 191.602 92.0267Z" fill="#262626"/>
<path d="M187.118 102.406C177.776 99.2393 177.61 99.3108 170.003 96.3291C169.586 96.1658 169.381 95.6949 169.544 95.2784C169.708 94.8613 170.179 94.6569 170.595 94.8195C176.437 97.1095 177.85 97.5829 182.533 99.1519C183.896 99.6089 185.535 100.158 187.638 100.871C188.062 101.015 188.289 101.475 188.145 101.899C188.001 102.324 187.539 102.549 187.117 102.406L187.118 102.406Z" fill="#262626"/>
<path d="M234.984 131.932C234.543 131.85 234.253 131.427 234.335 130.987C236.518 119.276 236.698 111.15 236.703 111.097C236.718 110.649 237.108 110.31 237.54 110.313C237.988 110.328 238.339 110.703 238.324 111.15C238.319 111.205 238.121 119.523 235.929 131.284C235.848 131.72 235.43 132.015 234.984 131.932Z" fill="#262626"/>
<path d="M191.348 129.414C191.2 123.149 191.73 118.67 193.18 113.953C193.312 113.525 193.769 113.286 194.193 113.416C194.621 113.547 194.862 114.001 194.73 114.429C193.335 118.967 192.825 123.298 192.97 129.376C192.981 129.823 192.626 130.195 192.178 130.205C191.754 130.223 191.359 129.877 191.348 129.414Z" fill="#262626"/>
<path d="M197.989 100.221C197.547 100.148 197.249 99.7303 197.323 99.2885C197.751 96.7113 198.22 93.9441 198.688 91.177C199.156 88.4111 199.624 85.6452 200.053 83.0698C200.126 82.628 200.547 82.3293 200.986 82.4034C201.428 82.4768 201.726 82.8945 201.653 83.3363C201.224 85.9136 200.756 88.6807 200.288 91.4479C199.82 94.2137 199.352 96.9796 198.923 99.555C198.849 99.9993 198.427 100.296 197.99 100.221H197.989Z" fill="#262626"/>
<path d="M196.991 98.9712C194.391 95.004 191.381 91.2254 188.043 87.7405C187.813 87.5 187.754 87.1431 187.893 86.8399C190.166 81.9195 193.349 77.6144 197.355 74.0447C197.69 73.7459 198.203 73.7763 198.501 74.1105C198.798 74.4447 198.769 74.9573 198.435 75.2548C194.732 78.5555 191.761 82.512 189.6 87.0228C192.853 90.4666 195.794 94.185 198.348 98.0826C198.594 98.4572 198.489 98.9598 198.115 99.2047C197.741 99.449 197.238 99.3471 196.991 98.9705L196.991 98.9712Z" fill="#262626"/>
<path d="M200.377 73.4305C199.599 73.4305 199.269 72.4368 199.889 71.9716C203.09 69.5691 206.695 67.6241 210.604 66.1918C211.025 66.038 211.49 66.2532 211.645 66.6734C211.799 67.0937 211.583 67.5595 211.163 67.7139C207.403 69.0918 203.939 70.9609 200.864 73.2685C200.718 73.378 200.547 73.4305 200.378 73.4305H200.377Z" fill="#262626"/>
<path d="M206.503 106.114C204.765 105.781 203.134 104.936 201.788 103.669C200.657 102.605 199.402 101.67 198.095 100.634C197.885 100.467 197.514 100.173 197.245 100.147C197.376 100.355 197.431 100.398 199.813 103.454C200.305 104.083 199.679 104.974 198.92 104.723C195.908 103.731 192.57 103.064 189.483 102.046C188.756 101.807 188.579 101.872 188.54 101.897C188.553 101.9 188.561 102.035 188.651 102.158C188.865 102.45 189.287 102.67 189.738 102.89C192.251 104.114 194.894 105.119 197.595 105.879C198.026 106 198.276 106.448 198.156 106.879C198.034 107.31 197.584 107.56 197.155 107.44C194.362 106.653 191.627 105.613 189.028 104.348C188.412 104.048 187.776 103.707 187.344 103.118C186.743 102.301 186.792 101.13 187.624 100.56C188.443 99.997 189.489 100.341 189.991 100.506C191.5 101.004 193.107 101.424 194.661 101.831C195.422 102.029 196.195 102.232 196.966 102.446L196.154 101.407C195.897 101.079 195.296 100.309 195.639 99.459C195.923 98.7584 196.789 98.3799 197.653 98.5742C198.24 98.7077 198.691 99.0375 199.103 99.3641C200.444 100.427 201.716 101.374 202.9 102.489C204.021 103.545 205.373 104.248 206.809 104.522C221.465 107.328 221.303 107.403 222.061 107.179C222.965 106.911 223.287 105.808 223.286 104.864C223.286 103.521 223.506 103.279 223.6 101.912C223.631 101.465 224.006 101.125 224.466 101.16C224.912 101.191 225.25 101.578 225.218 102.025C225.17 102.721 225.097 103.14 225.033 103.51C224.964 103.915 224.908 104.236 224.908 104.864C224.908 106.393 224.282 108.212 222.522 108.735C221.225 109.119 221.17 108.903 206.503 106.115V106.114Z" fill="#262626"/>
<path d="M196.564 110.411C193.764 109.556 191.016 108.458 188.398 107.146C187.87 106.882 187.362 106.606 186.952 106.137C186.393 105.499 186.208 104.66 186.47 103.949C186.806 103.039 188.445 102.254 189.341 102.844C189.715 103.09 189.818 103.593 189.572 103.967C189.348 104.305 188.915 104.421 188.559 104.259C188.397 104.278 188.089 104.429 187.982 104.544C187.952 104.688 188.029 104.906 188.172 105.07C188.39 105.318 188.732 105.501 189.125 105.697C191.662 106.968 194.324 108.032 197.038 108.861C197.466 108.992 197.707 109.445 197.577 109.873C197.448 110.296 196.999 110.543 196.564 110.411H196.564ZM188.447 104.197C188.447 104.197 188.447 104.197 188.448 104.197C188.448 104.197 188.448 104.197 188.447 104.197Z" fill="#262626"/>
<path d="M196.679 112.697C193.628 111.97 190.687 110.834 187.936 109.321C187.564 109.115 186.941 108.772 186.595 108.14C186.072 107.183 186.454 105.67 187.744 105.349C188.176 105.239 188.618 105.505 188.727 105.939C188.835 106.374 188.571 106.814 188.136 106.922C188.08 106.936 188.063 106.953 188.043 106.993C187.983 107.114 187.996 107.307 188.023 107.372C188.129 107.564 188.412 107.732 188.719 107.901C191.341 109.344 194.146 110.427 197.055 111.121C197.491 111.224 197.76 111.662 197.656 112.097C197.553 112.529 197.118 112.802 196.679 112.698V112.697Z" fill="#262626"/>
<path d="M211.687 116.662C211.147 116.444 210.568 116.27 210 116.139C209.113 115.935 208.126 115.801 206.892 115.717C206.446 115.687 206.108 115.3 206.138 114.853C206.168 114.406 206.542 114.063 207.002 114.099C208.815 114.222 210.604 114.476 212.294 115.159C212.71 115.328 212.91 115.8 212.742 116.215C212.575 116.627 212.106 116.832 211.686 116.663L211.687 116.662Z" fill="#262626"/>
<path d="M204.487 115.622C204.481 115.622 204.475 115.622 204.47 115.622C202.587 115.589 200.893 115.575 199.34 115.417C195.388 115.009 190.887 114.21 187.476 111.38C187.066 111.038 186.624 110.606 186.454 109.987C186.228 109.131 186.675 108.154 187.541 107.95C187.977 107.847 188.413 108.118 188.516 108.553C188.61 108.951 188.392 109.351 188.021 109.494C187.983 109.69 188.358 110.003 188.513 110.133C191.589 112.685 195.797 113.421 199.506 113.804C200.972 113.953 202.532 113.967 204.503 114.001C204.951 114.01 205.306 114.38 205.297 114.828C205.288 115.27 204.927 115.622 204.487 115.622V115.622Z" fill="#262626"/>
<path d="M241.807 106.491C234.643 103.495 227.386 101.25 220.237 99.8206C219.887 99.7509 219.623 99.4592 219.589 99.1041C219.48 97.9832 219.434 96.8414 219.39 95.7369C219.347 94.6553 219.302 93.5363 219.198 92.4609C219.155 92.0153 219.481 91.6191 219.927 91.5761C220.362 91.5362 220.769 91.859 220.812 92.3052C220.921 93.4261 220.966 94.5679 221.011 95.6724C221.046 96.5559 221.083 97.4636 221.152 98.3528C227.86 99.7351 234.654 101.821 241.375 104.559C241.552 100.991 241.486 97.3787 241.177 93.8052C241.138 93.359 241.468 92.966 241.915 92.9274C242.357 92.8913 242.753 93.2192 242.792 93.6654C243.141 97.6984 243.188 101.78 242.929 105.796C242.912 106.057 242.77 106.295 242.547 106.433C242.33 106.568 242.055 106.596 241.807 106.492L241.807 106.491Z" fill="#262626"/>
<path d="M241.591 90.9521C241.189 90.9521 240.841 90.654 240.788 90.2451C240.275 86.2741 239.449 82.2658 238.335 78.3316C237.834 76.5689 237.237 74.7321 235.945 73.3473C233.315 70.5339 227.978 69.532 224.487 66.9598C224.065 66.6497 223.468 66.6699 223.035 67.0079C219.71 69.6016 215.726 72.2947 212.575 74.872C212.054 75.2998 211.264 74.9378 211.25 74.2606C211.207 72.0314 210.57 68.3225 210.618 66.8288C210.631 66.3813 211.014 66.025 211.453 66.0433C211.887 66.0566 212.231 66.4085 212.239 66.8376C212.304 67.9212 212.218 67.5959 212.55 70.4453C212.634 71.1668 212.721 71.9023 212.783 72.6321C215.767 70.3016 219.092 68.0275 222.038 65.73C223.042 64.9465 224.445 64.9154 225.448 65.6547C226.847 66.6851 228.677 67.4826 230.447 68.2535C236.244 70.7795 238.233 72.0378 239.895 77.8891C241.032 81.9 241.873 85.9874 242.396 90.0369C242.454 90.4812 242.14 90.8875 241.696 90.9451C241.661 90.9496 241.626 90.9515 241.591 90.9515V90.9521Z" fill="#262626"/>
<path d="M223.59 62.8698C223.144 62.8343 222.811 62.4438 222.846 61.9976C223.062 59.2773 222.843 59.5146 222.311 56.6184C222.242 56.2443 222.443 55.8728 222.794 55.7253C223.455 55.4468 223.743 54.8531 224.143 54.2031C224.612 53.4227 224.668 52.505 224.287 51.8094C223.879 51.0625 222.856 50.567 222.096 50.7505C221.769 50.8296 221.484 51.0898 221.373 51.4132C221.323 51.5587 221.268 51.8398 221.466 52.0898C221.744 52.441 221.684 52.9512 221.333 53.229C220.982 53.5063 220.471 53.4474 220.193 53.0961C219.699 52.4708 219.57 51.6644 219.839 50.8841C220.735 48.2897 224.42 48.6758 225.71 51.0322C226.365 52.2316 226.297 53.7664 225.531 55.0392C225.108 55.7468 224.72 56.412 224.014 56.8975C224.472 59.2165 224.682 59.3602 224.463 62.1267C224.427 62.5793 224.028 62.9071 223.59 62.8704V62.8698Z" fill="#262626"/>
<path d="M207.119 61.9127C205.771 60.7102 205.318 59.0013 205.051 57.4886C204.213 52.7081 204.23 49.0473 205.107 45.2472C205.208 44.8111 205.64 44.5389 206.08 44.6396C206.517 44.7402 206.788 45.1757 206.688 45.6117C205.862 49.1871 205.85 52.6556 206.649 57.2088C206.877 58.5095 207.223 59.8336 208.199 60.7032C209.762 62.0982 212.492 61.6944 213.707 60.4311C214.02 60.1083 214.532 60.0994 214.854 60.4095C215.177 60.7203 215.186 61.233 214.876 61.5558C212.897 63.6096 209.201 63.7704 207.118 61.9127H207.119Z" fill="#262626"/>
<path d="M211.337 67.7872C210.892 67.741 210.568 67.3429 210.614 66.8973L211.09 62.2757C211.137 61.8301 211.537 61.506 211.981 61.5522C212.426 61.5984 212.75 61.9966 212.704 62.4421L212.228 67.0638C212.181 67.5093 211.783 67.8328 211.337 67.7872Z" fill="#262626"/>
<path d="M219.336 40.0291L219.435 37.4853C219.453 37.0379 219.834 36.6948 220.277 36.7068C220.725 36.7246 221.074 37.1012 221.056 37.5486L221.01 38.712C221.492 38.5126 222.058 38.329 222.644 38.2493C223.086 38.1898 223.496 38.4987 223.558 38.9423C223.618 39.386 223.308 39.7949 222.864 39.8557C222.054 39.9664 221.151 40.3898 220.576 40.7487C220.023 41.093 219.31 40.6778 219.336 40.0291Z" fill="#262626"/>
<path d="M220.673 52.525C219.011 50.7338 217.249 47.9268 217.235 45.5122C215.319 45.778 213.464 45.6837 211.541 45.6634C210.769 45.6552 210.754 45.754 209.366 45.3388C209.155 45.2767 207.69 44.2096 207.916 43.921C206.042 46.3559 202.334 46.3584 200.46 43.9166C198.976 41.9861 199.288 39.0108 200.919 37.2031C202.553 35.3955 205.248 34.7486 207.624 35.2917C210.026 35.843 211.682 37.3759 213.251 39.1608C214.572 40.6684 217.339 39.4715 219.121 39.9633C222.829 40.9918 224.91 43.4374 224.382 47.3287C224.256 48.2774 224.008 49.2028 223.761 50.1237C223.068 49.7585 222.147 49.8566 221.526 50.3332C220.904 50.8098 220.5 51.7617 220.674 52.525H220.673Z" fill="#262626"/>
<path d="M220.676 53.3342C220.455 53.3342 220.239 53.2444 220.081 53.0747C218.445 51.3127 216.851 48.7886 216.498 46.4107C214.813 46.5626 213.169 46.4898 211.534 46.4727C210.729 46.4569 210.689 46.5784 209.136 46.1138C208.941 46.0569 208.316 45.6702 207.809 45.2037C206.114 46.6575 204.134 46.5746 204.189 46.5638C202.511 46.5626 200.837 45.7366 199.817 44.4087C198.143 42.2302 198.363 38.8251 200.318 36.6586C202.08 34.7098 205.019 33.8636 207.807 34.4996C210.482 35.1142 212.299 36.8446 213.863 38.6238C214.815 39.7118 217.459 38.6611 219.34 39.1801C223.06 40.2118 225.426 42.6714 225.27 46.5151C225.217 47.8107 224.874 49.1082 224.546 50.3316C224.412 50.831 223.846 51.0823 223.384 50.8386C222.985 50.6279 222.398 50.6854 222.022 50.9741C221.629 51.2753 221.37 51.9152 221.467 52.3431C221.548 52.7007 221.38 53.0684 221.055 53.2399C220.935 53.3032 220.805 53.3336 220.677 53.3336L220.676 53.3342ZM218.049 45.5062C218.059 47.248 219.154 49.2747 220.201 50.6855C220.406 50.2994 220.69 49.9525 221.034 49.6886C221.651 49.2158 222.445 49.0177 223.191 49.1101C223.703 47.1056 224.025 45.0322 222.861 43.2891C222.101 42.1435 220.698 41.2397 218.907 40.7435C217.305 40.3023 214.297 41.5815 212.643 39.6934C211.044 37.8744 209.547 36.5636 207.444 36.0807C205.219 35.5737 202.896 36.2263 201.522 37.7459C200.099 39.3232 199.912 41.8694 201.104 43.422C202.323 45.01 204.246 44.9568 204.191 44.9429C206.203 44.9429 207.332 43.3777 207.279 43.4207C207.726 42.846 208.647 43.1138 208.724 43.8347C208.935 44.0625 209.439 44.4549 209.654 44.5765C210.871 44.9379 210.566 44.8315 212.542 44.8663C214.115 44.8935 215.602 44.9195 217.126 44.7081C217.616 44.6416 218.046 45.0189 218.049 45.5069V45.5062ZM209.597 44.5594C209.605 44.5613 209.612 44.5638 209.62 44.5657C209.612 44.5632 209.603 44.5606 209.597 44.5594Z" fill="#262626"/>
<path d="M209.306 115.426C209.27 114.98 209.603 114.589 210.049 114.553C210.515 114.515 210.96 114.073 211 113.608C211.038 113.161 211.44 112.836 211.877 112.87C212.323 112.908 212.654 113.301 212.615 113.747C212.507 115.003 211.438 116.066 210.18 116.168C209.738 116.205 209.343 115.875 209.306 115.426Z" fill="#262626"/>
<path d="M209.521 57.2773C209.099 57.2773 208.671 57.1361 208.37 56.881C207.719 56.3304 207.675 55.5386 207.653 55.1576C207.575 53.7765 207.67 52.3822 207.934 51.0151C208.019 50.5752 208.447 50.2866 208.884 50.3733C209.324 50.4581 209.612 50.8834 209.527 51.3233C209.288 52.5588 209.203 53.8189 209.274 55.0671C209.292 55.4057 209.334 55.5722 209.418 55.6437C209.428 55.6481 209.455 55.6532 209.483 55.6557C209.695 55.3848 210.066 55.2696 210.403 55.393C210.824 55.5475 211.039 56.0133 210.884 56.4336C210.743 56.8184 210.411 57.1051 209.973 57.2203C209.828 57.2589 209.675 57.2773 209.521 57.2773ZM209.362 55.8728C209.362 55.8728 209.362 55.8734 209.362 55.8741C209.362 55.8741 209.362 55.8741 209.362 55.8728Z" fill="#262626"/>
<path d="M209.563 59.6525C209.118 59.6089 208.792 59.212 208.836 58.7658C208.881 58.3202 209.279 57.9955 209.723 58.0386C210.128 58.0785 210.556 57.9512 210.873 57.6981C211.223 57.4189 211.733 57.4759 212.013 57.8259C212.292 58.1759 212.234 58.6861 211.884 58.9652C211.231 59.4861 210.381 59.7336 209.563 59.6519L209.563 59.6525Z" fill="#262626"/>
<path d="M173.435 94.4822C172.196 92.5271 170.729 89.9713 169.193 87.0909C169.111 86.939 168.984 86.8162 168.828 86.7415C166.78 85.7548 165.066 84.006 164.13 81.9452C163.884 81.399 163.826 80.9211 163.992 80.7509C164.058 80.6832 164.251 80.6351 164.48 80.6749C164.782 80.7294 165.085 80.6097 165.27 80.3667C165.454 80.1237 165.487 79.7977 165.354 79.523C164.477 77.7173 163.688 76.0179 163.008 74.4716C162.851 74.1128 162.459 73.9172 162.076 74.0096C159.697 74.5818 156.289 75.2552 152.993 75.9058C149.73 76.5502 146.354 77.2166 143.972 77.7869C143.475 77.9059 143.215 78.4477 143.422 78.9072C144.46 81.2205 145.845 84.0117 147.311 86.9675C149.471 91.3245 149.293 91.1549 149.624 91.6328C150.858 94.1132 152.095 97.2278 153.308 99.4614C153.471 99.7627 153.811 99.9349 154.164 99.8728C159.202 98.9671 167.906 96.4373 172.867 95.7171C173.139 95.6772 173.373 95.5031 173.488 95.2531C173.603 95.0037 173.583 94.7126 173.435 94.4809L173.435 94.4822ZM149.595 91.5587C149.583 91.5461 149.573 91.5334 149.564 91.522C149.574 91.5347 149.585 91.5467 149.596 91.5587H149.595ZM154.15 78.3819C155.107 78.1293 156.089 77.9401 157.069 77.8192C157.364 77.7844 157.635 77.9939 157.672 78.2894C157.708 78.5856 157.498 78.8553 157.201 78.892C156.269 79.0065 155.336 79.1869 154.427 79.4268C154.38 79.4388 154.333 79.4452 154.288 79.4452C154.049 79.4452 153.829 79.2844 153.766 79.0426C153.689 78.754 153.862 78.4584 154.15 78.3819ZM152.145 78.9724C152.438 78.9198 152.719 79.1167 152.771 79.411C152.779 79.4585 152.782 79.5066 152.777 79.5521C152.777 79.5971 152.771 79.6433 152.759 79.6888C152.694 79.93 152.475 80.0889 152.237 80.0889C152.19 80.0889 152.143 80.0825 152.096 80.0699C151.851 80.004 151.672 79.7547 151.683 79.5015C151.694 79.2483 151.896 79.016 152.146 78.9724H152.145ZM151.82 85.8219C151.76 85.8434 151.699 85.8535 151.639 85.8535C151.416 85.8535 151.208 85.7156 151.129 85.4947C151.029 85.2137 151.175 84.9041 151.457 84.8041C154.626 83.6744 157.915 82.8155 161.232 82.2509C161.526 82.2016 161.805 82.399 161.855 82.6927C161.905 82.987 161.708 83.2661 161.413 83.3161C158.158 83.8699 154.93 84.713 151.82 85.8219ZM155.981 89.6226C155.773 89.6226 155.574 89.5011 155.485 89.2979C155.366 89.0245 155.49 88.7061 155.764 88.5865C157.484 87.8359 159.386 87.4143 161.263 87.3675C161.268 87.3675 161.272 87.3675 161.277 87.3675C161.569 87.3675 161.81 87.6004 161.817 87.8947C161.825 88.1928 161.589 88.4409 161.291 88.4485C159.551 88.4922 157.79 88.8827 156.197 89.5783C156.126 89.6087 156.053 89.6239 155.981 89.6239V89.6226ZM161.194 95.9803C159.934 95.9803 159.377 94.6955 159.989 93.8917C160.52 93.1967 161.676 93.217 162.033 93.6012C162.29 93.6942 162.631 94.1195 162.643 94.6404C162.661 95.3917 162.043 95.9797 161.194 95.9797V95.9803Z" fill="#262626"/>
<path d="M214.83 121.35C207.755 120.168 200.44 118.483 193.292 119.053C192.859 119.088 192.56 119.492 192.63 119.92C192.902 121.577 192.533 124.35 192.214 125.426C192.028 126.05 191.935 126.701 191.987 127.35C192.171 129.666 190.926 129.958 192.352 130.15C198.559 130.991 205.44 131.55 212.365 131.838L212.535 127.636C212.546 127.337 212.795 127.1 213.097 127.118C213.395 127.13 213.627 127.382 213.615 127.68L213.445 131.884C220.75 132.157 228.068 132.125 234.663 131.79C234.756 128.13 235.31 132.263 236.997 120.886C230.46 124.5 222.197 122.58 214.83 121.35V121.35ZM197.264 123.147C195.319 123.828 195.895 124.343 196.029 125.464C196.153 126.507 195.506 127.295 194.829 127.295C194.561 127.295 194.328 127.095 194.294 126.822C194.256 126.526 194.466 126.255 194.762 126.218C194.864 126.205 194.994 125.914 194.956 125.593C194.899 125.112 194.656 124.514 194.818 123.867C195.095 122.76 196.32 122.333 196.908 122.127C197.191 122.029 197.498 122.178 197.597 122.459C197.695 122.74 197.547 123.048 197.264 123.147ZM230.849 129.026C230.822 129.306 230.587 129.515 230.312 129.515C229.991 129.515 229.742 129.239 229.773 128.923L230.039 126.156C230.068 125.859 230.339 125.64 230.629 125.67C230.926 125.698 231.144 125.962 231.115 126.26L230.849 129.027L230.849 129.026ZM233.056 127.893C233.023 128.168 232.79 128.37 232.519 128.37C232.193 128.37 231.945 128.086 231.982 127.766L232.217 125.77C232.253 125.473 232.518 125.26 232.818 125.297C233.115 125.331 233.326 125.6 233.291 125.897L233.056 127.893Z" fill="#262626"/>
<path d="M235.309 94.4642C234.924 94.4642 234.582 94.1895 234.512 93.7977C234.249 92.3457 234.332 90.8103 234.74 89.3849C234.726 89.3773 234.712 89.3691 234.697 89.3609C234.185 89.0653 233.782 88.514 233.646 87.9229C233.499 87.2855 233.597 86.6754 233.682 86.1374C233.704 86.0026 233.725 85.8678 233.742 85.7336C233.811 85.2019 233.745 84.7981 233.562 84.6241C233.238 84.3152 233.226 83.8019 233.535 83.4778C233.844 83.1538 234.357 83.1417 234.681 83.45C235.083 83.8329 235.526 84.576 235.352 85.9386C235.332 86.0887 235.309 86.2405 235.284 86.3918C235.216 86.8222 235.151 87.2285 235.227 87.5583C235.283 87.802 235.499 87.9811 235.572 87.9811H235.574C235.873 87.8893 236.199 87.9779 236.409 88.2083C236.621 88.4387 236.681 88.7697 236.564 89.0596C236.002 90.4514 235.84 92.0312 236.107 93.5084C236.188 93.949 235.894 94.3711 235.454 94.4509C235.404 94.4597 235.356 94.4642 235.308 94.4642H235.309Z" fill="#262626"/>
<path d="M218.529 93.0325C218.22 93.0325 217.926 92.8559 217.79 92.5572C217.604 92.1496 217.785 91.6692 218.192 91.4831L220.935 90.2362C221.342 90.0514 221.824 90.2312 222.009 90.6388C222.195 91.0464 222.014 91.5268 221.607 91.7129L218.864 92.9597C218.755 93.0091 218.641 93.0325 218.528 93.0325H218.529Z" fill="#262626"/>
<path d="M215.467 77.4894C215.326 77.4894 215.184 77.4717 215.043 77.4356C214.609 77.3242 214.348 76.8818 214.46 76.4483C214.571 76.0147 215.015 75.7533 215.447 75.8653C215.551 75.8932 215.841 75.6887 216.103 75.2565L216.205 75.0856C216.561 74.4881 217.002 73.7438 217.876 73.4925C218.123 73.4216 218.357 73.4083 218.545 73.3969C218.633 73.3919 218.722 73.3887 218.808 73.3735C219.08 73.3267 219.383 73.1184 219.707 72.7545C220.687 71.6551 221.509 69.5905 223.505 69.074C223.94 68.9614 224.381 69.2228 224.493 69.6557C224.606 70.0893 224.345 70.5317 223.911 70.6437C223.013 70.876 222.367 71.838 221.856 72.583C221.572 72.9994 221.276 73.4305 220.917 73.833C220.335 74.4868 219.735 74.859 219.082 74.9716C218.935 74.997 218.787 75.0071 218.638 75.0159C218.514 75.0229 218.397 75.0299 218.324 75.0508C218.068 75.1242 217.83 75.5255 217.6 75.9128L217.49 76.097C216.946 76.9932 216.212 77.4894 215.467 77.4894H215.467Z" fill="#262626"/>
<path d="M195.108 84.8008C194.754 84.8008 194.428 84.566 194.328 84.2084C194.191 83.7223 194.022 83.1166 194.095 82.4754C194.192 81.6153 194.727 80.9115 195.46 80.683C195.55 80.6545 195.645 80.6343 195.739 80.6153C195.739 80.5279 195.734 80.4172 195.729 80.333C195.724 80.2247 195.718 80.1178 195.718 80.0152C195.714 78.7399 196.741 77.5766 198.007 77.4209C198.45 77.3652 198.857 77.6829 198.911 78.1266C198.965 78.5709 198.649 78.9754 198.204 79.0298C197.751 79.0855 197.338 79.5526 197.34 80.0096C197.34 80.0842 197.345 80.164 197.35 80.2437C197.375 80.7134 197.418 81.4988 196.729 81.9583C196.483 82.1216 196.231 82.171 196.064 82.2033C196.023 82.2115 195.983 82.2178 195.943 82.2299C195.849 82.2596 195.732 82.4381 195.707 82.6565C195.67 82.9843 195.781 83.3843 195.89 83.771C196.01 84.2021 195.758 84.6495 195.327 84.7704C195.254 84.7907 195.18 84.8008 195.108 84.8008Z" fill="#262626"/>
<path d="M223.555 110.219L222.497 108.603C222.251 108.229 222.356 107.726 222.73 107.481C223.106 107.236 223.608 107.34 223.854 107.715L224.912 109.331C225.158 109.706 225.053 110.209 224.678 110.453C224.302 110.699 223.8 110.593 223.555 110.219V110.219Z" fill="#262626"/>
<path d="M230.66 117.912C230.293 117.656 230.201 117.151 230.457 116.783L232.128 114.38C232.383 114.012 232.888 113.921 233.257 114.176C233.624 114.432 233.715 114.937 233.46 115.305L231.789 117.709C231.534 118.076 231.028 118.167 230.66 117.912Z" fill="#262626"/>
<path d="M186.554 96.4655L182.229 95.0515C181.802 94.9123 181.57 94.4547 181.709 94.0287C181.849 93.6034 182.308 93.3705 182.732 93.5104L187.058 94.9243C187.484 95.0636 187.716 95.5212 187.577 95.9471C187.436 96.3763 186.975 96.6041 186.554 96.4655Z" fill="#262626"/>
<path d="M263.774 51.1059C263.33 50.8363 262.682 50.9895 262.406 51.4293C262.13 51.8692 262.273 52.5192 262.709 52.8022C263.144 53.0851 263.796 52.9515 264.086 52.5205C264.376 52.0895 264.252 51.435 263.825 51.1395" fill="#262626"/>
<path d="M262.27 53.4812C261.459 52.9552 261.208 51.8178 261.722 50.9976C262.255 50.1514 263.452 49.8887 264.29 50.4722C265.086 51.0235 265.303 52.1685 264.763 52.9717C264.227 53.7698 263.087 54.0116 262.27 53.4812ZM263.095 51.8603C263.055 51.9248 263.088 52.0792 263.154 52.121C263.217 52.1628 263.375 52.1305 263.416 52.0678C263.459 52.0033 263.43 51.8482 263.366 51.8039C263.365 51.8027 263.363 51.8014 263.361 51.8001C263.36 51.7995 263.358 51.7982 263.357 51.7976C263.292 51.7577 263.137 51.7938 263.095 51.8596V51.8603Z" fill="#262626"/>
<path d="M258.552 51.1191C258.108 50.8495 257.46 51.0026 257.184 51.4425C256.908 51.8824 257.051 52.5324 257.486 52.8153C257.922 53.0983 258.574 52.9647 258.864 52.5337C259.154 52.1027 259.03 51.4482 258.603 51.1526" fill="#262626"/>
<path d="M257.048 53.4942C256.236 52.967 255.985 51.8296 256.499 51.0106C257.033 50.1625 258.231 49.9024 259.068 50.4847C259.863 51.036 260.08 52.1803 259.54 52.9841C259.002 53.7847 257.862 54.0215 257.048 53.4942ZM257.873 51.8727C257.833 51.936 257.868 52.0929 257.931 52.1341C257.996 52.1752 258.15 52.1448 258.193 52.0803C258.237 52.0157 258.208 51.8613 258.144 51.817C258.062 51.7638 257.911 51.8126 257.873 51.8727Z" fill="#262626"/>
<path d="M252.997 51.1049C252.553 50.8353 251.905 50.9885 251.629 51.4284C251.353 51.8683 251.496 52.5183 251.931 52.8012C252.367 53.0841 253.019 52.9506 253.309 52.5195C253.598 52.0885 253.475 51.4341 253.048 51.1385" fill="#262626"/>
<path d="M251.491 53.4813C250.68 52.9541 250.43 51.8174 250.944 50.9977C251.476 50.1509 252.674 49.8889 253.512 50.4724C254.308 51.0237 254.524 52.1686 253.984 52.9718C253.447 53.7718 252.307 54.0111 251.491 53.4813ZM252.318 51.8598C252.278 51.9237 252.312 52.0807 252.375 52.1218C252.438 52.1623 252.595 52.1313 252.638 52.068C252.681 52.0047 252.65 51.8478 252.588 51.8047C252.586 51.8034 252.584 51.8022 252.583 51.8009C252.582 51.8003 252.58 51.799 252.579 51.7984C252.513 51.7591 252.358 51.7959 252.318 51.8598Z" fill="#262626"/>
<path d="M226.749 30.2215C230.374 31.2791 233.88 33.2772 235.746 36.4064C235.046 33.2722 234.346 30.1373 233.646 27.003C225.109 26.6942 216.59 25.8353 208.165 24.4346C206.459 24.1511 204.408 23.539 204.059 21.9346C204.62 24.5093 204.929 25.5777 207.546 26.6005C213.618 28.974 220.492 28.3955 226.75 30.2215H226.749Z" fill="#262626"/>
<path d="M255.853 0.00337021C237.965 1.70974 223.004 2.17241 204.664 2.36608C204.221 2.37114 203.864 2.72875 203.861 3.17053L203.695 24.6805C203.692 25.0913 203.997 25.44 204.404 25.4913L230.852 28.8331C232.345 30.7161 233.869 34.106 235.028 36.1611C235.275 36.5998 235.79 36.589 235.735 36.5738C236.028 36.5738 236.299 36.4149 236.442 36.1592C237.552 34.1782 238.787 30.9591 240.046 28.9053L255.659 29.5312C256.137 29.5502 256.499 29.166 256.503 28.7281L256.741 0.817312C256.746 0.346416 256.345 -0.0403016 255.853 0.00337021H255.853ZM217.33 14.7164L217.16 18.3272L214.396 15.9961L210.908 16.9506L212.272 13.6024L210.286 10.5815L213.892 10.8435L216.153 8.0219L217.018 11.5315L220.401 12.8087L217.329 14.7157L217.33 14.7164ZM231.945 15.1233L231.774 18.7342L229.01 16.4031L225.522 17.3576L226.886 14.01L224.901 10.9891L228.507 11.2511L230.767 8.42951L231.632 11.9391L235.015 13.2163L231.943 15.1233H231.945ZM249.409 15.843L249.239 19.4538L246.476 17.1227L242.988 18.0772L244.351 14.729L242.366 11.7081L245.972 11.9701L248.233 9.14851L249.098 12.6581L252.481 13.9353L249.409 15.8423V15.843Z" fill="#262626"/>
<path d="M265.183 170.533C264.898 169.982 265.111 169.303 265.66 169.017C279.982 161.553 290.458 147.617 293.684 131.742C293.807 131.134 294.397 130.743 295.005 130.865C295.611 130.989 296.003 131.583 295.879 132.192C292.519 148.726 281.609 163.239 266.693 171.014C266.137 171.302 265.465 171.08 265.183 170.533Z" fill="#018076"/>
<path d="M265.183 170.533C264.898 169.982 265.111 169.303 265.66 169.017C279.982 161.553 290.458 147.617 293.684 131.742C293.807 131.134 294.397 130.743 295.005 130.865C295.611 130.989 296.003 131.583 295.879 132.192C292.519 148.726 281.609 163.239 266.693 171.014C266.137 171.302 265.465 171.08 265.183 170.533Z" stroke="#018076"/>
<path d="M279.05 167.905C278.846 167.325 279.159 166.693 279.752 166.493C286.486 164.21 291.948 158.359 293.667 151.586C293.819 150.992 294.43 150.627 295.042 150.777C295.65 150.925 296.02 151.527 295.869 152.122C293.969 159.606 287.934 166.07 280.494 168.592C279.899 168.794 279.255 168.482 279.051 167.906L279.05 167.905Z" fill="#018076"/>
<path d="M279.05 167.905C278.846 167.325 279.159 166.693 279.752 166.493C286.486 164.21 291.948 158.359 293.667 151.586C293.819 150.992 294.43 150.627 295.042 150.777C295.65 150.925 296.02 151.527 295.869 152.122C293.969 159.606 287.934 166.07 280.494 168.592C279.899 168.794 279.255 168.482 279.051 167.906L279.05 167.905Z" stroke="#018076"/>
<path d="M39.8979 36.1352L90.547 41.0188C91.8985 41.1455 92.9816 42.1618 93.2268 43.4614C91.5987 44.2133 89.9107 44.9081 88.205 45.532C87.8698 44.4027 86.8821 43.5935 85.7254 43.6071C84.051 43.6262 82.8289 45.3508 83.2826 47.119C80.4665 47.9159 77.5413 48.578 74.341 49.1392C74.134 49.176 73.9528 49.2999 73.8438 49.4798C73.7348 49.6596 73.7103 49.8775 73.7743 50.0778C76.5073 58.5496 78.8302 66.0814 80.8752 73.1011C80.9747 73.4416 81.3112 73.6719 81.6845 73.616C85.3317 73.0493 89.6165 71.7634 93.592 70.0497L93.6151 72.014C93.6192 72.4159 93.9516 72.7197 94.3508 72.7319C94.7514 72.7278 95.0743 72.3982 95.0688 71.9963L95.0375 69.3958C98.0416 67.9899 100.667 66.4097 102.645 64.8091C102.86 64.6347 102.959 64.3541 102.897 64.0844C101.219 56.6479 99.0103 49.8394 97.3359 42.4315C97.231 41.967 96.7119 41.7245 96.2868 41.9493C95.6832 42.2694 95.1152 42.5568 94.5648 42.8265C94.0784 41.0774 92.5552 39.7465 90.6832 39.5721L40.0355 34.6885C39.6418 34.6531 39.2808 34.9419 39.2426 35.3424C39.2045 35.7415 39.496 36.0971 39.8965 36.1352H39.8979ZM101.378 63.9604C99.4394 65.4671 96.9013 66.9546 94.0034 68.2774C90.0906 70.0606 85.788 71.4296 82.0891 72.0767C80.149 65.4398 77.9597 58.3425 75.4119 50.4238C78.3711 49.8816 81.1068 49.2563 84.021 48.4172C85.4665 49.8516 87.7867 49.0779 88.254 47.0563C91.1219 46.0319 93.7827 44.8713 96.1288 43.6711C97.7501 50.624 99.7841 57.0089 101.378 63.9604Z" fill="#262626"/>
<path d="M75.703 96.6982C75.9482 96.5688 76.0981 96.3113 76.0885 96.0348C76.0245 93.892 75.9074 91.6157 75.7248 88.932L91.2427 87.063C93.5206 86.7933 95.2182 84.8589 95.1909 82.5608L95.1037 75.1597C95.0996 74.7606 94.774 74.4418 94.3775 74.4418H94.3694C93.9688 74.4459 93.6459 74.7756 93.6514 75.1774L93.7386 82.5785C93.7577 84.1301 92.6105 85.4379 91.071 85.6204L75.6226 87.4813C75.2861 82.7733 74.9142 78.3488 74.7793 73.7198C74.7657 73.273 74.3555 72.9475 73.9264 73.0251C71.7506 73.4079 70.4154 73.6095 70.2547 73.6368C69.8977 72.5524 68.9413 71.7759 67.8132 71.7896C66.4576 71.8059 65.3663 72.9461 65.2832 74.3805C61.7151 74.89 56.2858 75.4949 50.8539 75.9035C50.6564 75.9185 50.4738 76.0139 50.3471 76.1664C49.9861 76.6051 50.2272 76.082 51.7313 90.357L38.6153 91.9344C37.7611 92.038 36.9028 91.771 36.2557 91.2056C35.6099 90.6403 35.2338 89.823 35.2229 88.9648L35.0159 71.4354C41.8497 71.1915 49.5392 69.3675 54.369 66.8119C54.6142 66.6825 54.764 66.425 54.7559 66.1485C54.5352 58.4995 53.6646 51.439 53.4452 43.8336C53.4384 43.6224 53.3417 43.4249 53.1782 43.2914C53.0147 43.1579 52.8008 43.102 52.5924 43.1388C51.042 43.4126 49.5174 43.6646 48.0637 43.888C46.9479 41.579 43.7789 42.0572 43.2816 44.5814C40.5309 44.9465 38.005 45.2503 34.7093 45.5704L34.6317 38.9962C34.6249 38.4036 34.787 37.8301 35.1003 37.3397C35.317 37.0019 35.2175 36.5524 34.8796 36.3358C34.5431 36.1205 34.0921 36.2186 33.8755 36.5564C33.4082 37.2866 33.1671 38.1366 33.178 39.0126L33.257 45.7039C32.0104 45.8143 30.7651 45.9205 29.5172 46.0172C29.103 46.0499 28.8019 46.4191 28.8509 46.8278C29.9477 55.9984 30.7624 63.6106 31.4123 70.7856C31.445 71.1493 31.7434 71.4326 32.1085 71.4463C32.7039 71.4681 33.0731 71.4708 33.5594 71.4694L33.7665 88.9811C33.7951 91.425 35.787 93.4084 38.2503 93.4084C38.7285 93.4084 37.9805 93.4615 51.8784 91.8009C52.2095 94.9954 52.4943 97.9065 52.7436 100.671C52.7763 101.034 53.0746 101.318 53.4398 101.331C60.0175 101.583 69.5735 99.9417 75.6975 96.6968L75.703 96.6982ZM32.8061 70.0118C32.1821 63.2088 31.4096 55.9875 30.3878 47.4067C34.7298 47.0607 39.0064 46.6289 43.3593 46.0377C43.7013 47.1533 44.6781 47.9516 45.828 47.938C47.1945 47.9216 48.2912 46.7637 48.3593 45.3129C49.4029 45.1481 50.2027 45.0282 52.0201 44.7136C52.2722 51.8803 53.0583 58.584 53.2899 65.733C47.6836 68.5569 39.0977 70.1358 32.8061 70.0105V70.0118ZM51.7191 77.2944C56.5502 76.9157 61.2396 76.4076 65.5625 75.8082C66.677 78.188 69.9182 77.6499 70.3691 75.0889C70.7983 75.0194 71.7438 74.8764 73.3514 74.5998C73.6089 81.8647 74.3814 88.3953 74.6198 95.622C68.7233 98.6067 60.0761 100.007 54.136 99.8995C53.4316 92.2164 52.6101 84.8085 51.7177 77.2957L51.7191 77.2944Z" fill="#262626"/>
<path d="M88.8387 55.4857C88.1043 55.5388 87.2773 55.3754 86.4476 55.3454C84.6874 55.2814 82.9557 55.814 81.4325 56.2826C81.0497 56.4011 80.8344 56.8071 80.953 57.1912C81.0497 57.5032 81.3372 57.7034 81.6478 57.7034C81.7187 57.7034 81.7909 57.6925 81.8618 57.6707C84.186 56.9542 85.2718 56.664 87.2855 56.867C89.2814 57.0673 90.2487 57.0169 93.2092 55.1601C93.9436 54.6997 94.6371 54.2637 95.3714 53.9572C95.742 53.8019 95.9164 53.3769 95.7624 53.0064C95.6071 52.6359 95.182 52.4615 94.8115 52.6168C92.6398 53.5241 90.9 55.3345 88.84 55.4857H88.8387Z" fill="#262626"/>
<path d="M94.4188 59.9217C92.8984 60.7472 91.4188 61.4583 90.0318 61.1314C89.5536 61.0183 88.9964 60.7622 88.3534 60.7922C87.2158 60.8385 86.4187 61.6667 85.7607 62.4377C85.3574 62.9118 85.7007 63.6352 86.3138 63.6352C86.5195 63.6352 86.7239 63.548 86.867 63.3804C88.0237 62.0236 88.3724 62.153 89.2022 62.4064C91.382 63.0739 93.0946 62.2947 95.1123 61.1995C95.4652 61.0088 95.596 60.5674 95.4039 60.2146C95.2118 59.8617 94.7703 59.731 94.4188 59.923V59.9217Z" fill="#262626"/>
<path d="M36.267 55.8124C37.4959 55.4337 38.887 55.006 40.1745 55.2008C41.2221 55.3602 42.0668 55.8547 43.5096 55.8547C45.383 55.8547 47.1487 55.0346 48.6092 54.3562C48.9729 54.1873 49.131 53.7555 48.962 53.3917C48.7931 53.028 48.3598 52.87 47.9974 53.0389C46.4688 53.7486 44.5682 54.6314 42.7794 54.3439C41.9947 54.2173 41.2903 53.8999 40.3952 53.7636C38.7834 53.5184 37.2194 53.9993 35.8406 54.423C35.4564 54.5415 35.2412 54.9474 35.3597 55.3316C35.4769 55.7157 35.8842 55.931 36.2684 55.8124H36.267Z" fill="#262626"/>
<path d="M40.1236 58.4389C37.4982 58.3 35.1221 60.8882 36.6194 63.5296C38.772 67.3249 44.6386 64.0432 42.8171 60.2507C42.2953 59.1623 41.313 58.5016 40.1236 58.4389Z" fill="#262626"/>
<path d="M56.1535 92.6672C56.2189 92.6672 55.5881 92.7367 61.2666 92.0746C61.6645 92.0283 61.9505 91.6673 61.9042 91.2682L61.0364 83.8453C60.9901 83.4462 60.6236 83.1629 60.2299 83.2078L55.2012 83.7949C54.802 83.8412 54.5172 84.2022 54.5635 84.6014L55.4314 92.0243C55.475 92.3893 55.7842 92.6672 56.1535 92.6672Z" fill="#262626"/>
<path d="M65.9829 85.8126C67.8617 85.2582 69.7881 84.7869 71.7119 84.4123C72.1056 84.336 72.3631 83.9532 72.2868 83.5595C72.2092 83.1658 71.8249 82.9083 71.4339 82.986C69.4652 83.3701 67.4939 83.8524 65.5715 84.4191C65.1873 84.5321 64.9666 84.9367 65.081 85.3222C65.1941 85.7077 65.6001 85.9271 65.9843 85.8126H65.9829Z" fill="#262626"/>
<path d="M70.4488 88.2833C69.2417 88.0449 67.9432 88.1579 66.7947 88.6007C66.0481 88.8881 66.2538 90.0051 67.0563 90.0051C67.1435 90.0051 67.2321 89.9888 67.3179 89.9561C68.213 89.6101 69.2239 89.5229 70.1667 89.7082C70.5577 89.7858 70.9433 89.5297 71.0196 89.136C71.0959 88.7423 70.8411 88.3596 70.4474 88.2819L70.4488 88.2833Z" fill="#262626"/>
<path d="M40.4037 80.3946H40.3955C40.1203 80.3946 39.826 80.0173 39.7906 79.6168C39.7402 79.0678 40.0073 78.4452 40.243 77.8949C40.401 77.5257 40.2307 77.0993 39.8615 76.9413C39.4922 76.7833 39.0658 76.9536 38.9078 77.3227C38.6203 77.9957 38.2606 78.8335 38.3437 79.7475C38.4009 80.3769 38.7347 81.0348 39.2565 81.4435C38.5931 82.6382 38.5794 84.1748 39.3015 85.36C39.4391 85.5847 39.6776 85.7087 39.9228 85.7087C40.48 85.7087 40.841 85.093 40.5427 84.6039C39.9854 83.6899 40.149 82.3889 40.9133 81.6397C41.3765 81.1861 41.055 80.3946 40.4051 80.3946H40.4037Z" fill="#262626"/>
<path d="M245.736 166.835H193.302C192.827 166.835 192.441 166.45 192.441 165.975C192.441 165.501 192.827 165.115 193.302 165.115H245.736C246.211 165.115 246.596 165.501 246.596 165.975C246.596 166.45 246.211 166.835 245.736 166.835Z" fill="#262626"/>
<path d="M243.927 176.704H196.535C196.06 176.704 195.675 176.318 195.675 175.844C195.675 175.369 196.06 174.984 196.535 174.984H243.927C244.401 174.984 244.787 175.369 244.787 175.844C244.787 176.318 244.401 176.704 243.927 176.704Z" fill="#262626"/>
<path d="M225.032 185.925H211.263C210.788 185.925 210.402 185.539 210.402 185.065C210.402 184.59 210.788 184.205 211.263 184.205H225.032C225.507 184.205 225.892 184.59 225.892 185.065C225.892 185.539 225.507 185.925 225.032 185.925Z" fill="#262626"/>
</svg>
