<svg width="259" height="251" viewBox="0 0 259 251" fill="none" xmlns="http://www.w3.org/2000/svg">
<path d="M240.356 125.057C240.356 190.831 187.035 244.152 121.261 244.152C55.4868 244.152 2.16623 190.831 2.16623 125.057C2.16623 59.2827 55.4868 5.96213 121.261 5.96213C187.035 5.96213 240.356 59.2827 240.356 125.057Z" stroke="#E8E8E8" stroke-width="3.77778"/>
<path d="M177.986 13.6123L167.946 17.3774L215.888 55.7809L218.9 52.5179L217.143 47.2468L177.986 13.6123Z" fill="white"/>
<path d="M30.3953 56.2828L22.3632 51.2627L5.29492 82.6382L12.072 84.8972L30.3953 56.2828Z" fill="white"/>
<path d="M102.166 197.931C99.0231 200.697 94.9589 202.171 90.9337 202.002C90.3645 199.762 90.2106 197.396 90.486 195.089C93.4011 196.431 96.6403 196.911 99.7755 196.466" fill="#CCCCCC"/>
<path d="M111.142 201.137C111.229 199.186 111.047 197.222 110.604 195.33C112.891 195.892 117.588 195.024 119.102 197.059C118.317 197.808 111.175 200.391 111.142 201.137Z" fill="#CCCCCC"/>
<path d="M85.6317 113.369C85.4907 112.495 87.4345 109.582 87.737 108.55C88.2346 106.851 88.6509 104.951 88.5555 103.17C88.4525 101.246 87.5126 96.8659 85.5807 95.834C82.8759 94.3891 83.2077 97.4447 83.4125 99.6441C83.8397 104.222 84.8988 108.831 85.6328 113.37L85.6317 113.369Z" fill="#CCCCCC"/>
<path d="M95.6664 93.6779C96.0859 95.034 96.2236 96.4778 96.0675 97.8891C95.9981 98.52 95.8713 99.166 96.0285 99.7817C96.1846 100.397 96.7375 100.973 97.3673 100.897C98.0221 100.818 98.3994 100.132 98.6563 99.5248C100.168 95.9467 101.221 92.1756 101.783 88.333C100.933 90.2126 100.082 92.091 99.232 93.9706C99.0477 94.3793 98.8287 94.8216 98.4167 94.9993C97.8172 95.2573 97.1245 94.7977 96.809 94.2254C96.4936 93.6541 96.4155 92.9821 96.164 92.3805C95.9125 91.7789 95.3726 91.2011 94.7222 91.2553C95.0246 92.5572 95.6111 93.7918 96.4285 94.8486L95.6664 93.679V93.6779Z" fill="#CCCCCC"/>
<path d="M49.795 100.273C50.8878 98.9706 53.1134 97.375 54.5986 96.5469C54.9336 96.3604 55.3802 96.1956 55.6708 96.4449C55.8724 96.6184 55.8995 96.9154 55.9114 97.1809C55.9928 98.9565 56.0751 100.732 56.1565 102.507C56.215 103.776 57.144 106.617 57.1104 107.886C56.9641 113.302 54.2712 116.949 52.3155 122C53.495 116.647 53.2923 110.995 51.7323 105.739C51.0515 103.445 49.1652 101.721 50.4032 99.673L49.7939 100.272L49.795 100.273Z" fill="#CCCCCC"/>
<path d="M45.5633 84.7055C46.514 83.8015 48.6258 82.4769 49.8758 82.0791C45.2359 89.9453 45.0364 90.9122 43.858 91.2992C43.187 91.5203 42.427 91.2829 41.8763 90.8396C41.3256 90.3963 40.9516 89.7719 40.6372 89.1389C40.1548 88.1666 39.6518 87.0393 39.6084 85.9629C40.7272 85.7786 41.3939 86.9428 42.4671 87.1455C43.8938 87.4154 44.5659 85.6507 45.5622 84.7045L45.5633 84.7055Z" fill="#CCCCCC"/>
<path d="M19.3389 81.735C20.2061 81.8455 21.159 81.9376 21.8886 81.4564C22.718 80.909 22.9651 79.825 23.1451 78.8473C23.466 77.0956 23.2253 75.305 23.5473 73.5533C23.6709 72.8769 23.8671 71.251 23.724 70.5789C23.5798 69.9069 23.5907 70.2234 22.9142 70.0977C22.6594 72.3447 23.0421 74.3066 22.7873 76.5547C22.6984 77.3428 23.0399 79.4988 22.3927 79.9573C21.8951 80.3096 20.1129 79.3177 19.5026 79.2982C16.9582 79.218 14.4139 79.1367 11.8695 79.0565C9.98321 78.9969 6.82852 78.3021 5.11133 78.9644C5.82466 80.7019 9.43574 80.4776 10.9274 80.6673C13.6648 81.0152 16.5842 81.7155 19.34 81.7371L19.3389 81.735Z" fill="#CCCCCC"/>
<path d="M212.047 104.476C183.863 102.139 155.366 99.7404 128.523 90.8379C157.398 95.8804 182.829 99.7241 211.704 104.767L212.047 104.476Z" fill="#CCCCCC"/>
<path d="M161.027 205.681C160.752 204.914 160.393 204.148 159.788 203.613C159.183 203.079 158.283 202.83 157.567 203.189C156.916 203.516 156.552 204.272 156.498 205.013C156.444 205.753 156.652 206.485 156.888 207.186C157.38 208.645 158.659 213.304 160.65 212.64C162.966 211.869 161.562 207.172 161.027 205.681Z" fill="#CCCCCC"/>
<path d="M183.195 190.652C183.957 187.904 182.214 186.24 180.093 187.771C178.285 189.076 177.579 191.444 177.089 193.654C176.567 196.005 175.006 199.989 178.589 197.122C180.632 195.487 182.478 193.24 183.195 190.652Z" fill="#CCCCCC"/>
<path d="M186.342 214.034C186.857 213.295 187.263 212.426 187.231 211.518C187.2 210.611 186.63 209.68 185.766 209.479C184.714 209.235 183.738 210.078 183.018 210.9C182.008 212.055 178.132 216.259 179.743 217.611C181.626 219.192 185.436 215.338 186.343 214.034H186.342Z" fill="#CCCCCC"/>
<path d="M29.438 34.4241C29.1327 34.9382 29.3021 35.6022 29.816 35.9076C29.9426 35.9831 30.0781 36.0286 30.2131 36.0481C30.633 36.1088 31.0683 35.9184 31.299 35.5294C36.4006 26.929 44.8975 20.6256 54.6097 18.2388L54.6103 18.2387C55.19 18.095 55.5453 17.5103 55.4029 16.9294L55.4027 16.9285C55.2594 16.3505 54.6764 15.9928 54.0946 16.1357L54.0943 16.1352C43.8204 18.6606 34.8349 25.3264 29.438 34.4241Z" fill="#CF3245" stroke="#CF3245" stroke-width="0.708333"/>
<path d="M37.9595 13.8364C37.6344 13.5855 37.1793 13.5316 36.7922 13.7365L35.8325 14.2447L35.8789 14.2514C32.7264 16.1428 30.124 18.9456 28.4845 22.2377L28.4845 22.2378C28.2184 22.7723 28.4353 23.4225 28.9717 23.6889L28.9717 23.6889C29.0768 23.7411 29.1874 23.7752 29.2986 23.7913C29.7475 23.8562 30.2084 23.6324 30.4223 23.2031L30.4224 23.203C32.0162 20.0011 34.638 17.3186 37.8022 15.6505L37.9595 13.8364ZM37.9595 13.8364L38.0883 13.855L38.023 13.8895C38.1149 13.9725 38.194 14.0728 38.2548 14.1888C38.2549 14.189 38.255 14.1892 38.2551 14.1894L37.9415 14.3537L38.2548 14.1887L37.9595 13.8364Z" fill="#CF3245" stroke="#CF3245" stroke-width="0.708333"/>
<path d="M107.087 201.716C106.704 201.598 106.295 201.814 106.178 202.2C106.061 202.585 106.278 202.992 106.663 203.109C107.145 203.256 107.59 203.539 107.95 203.929C108.221 204.223 108.682 204.245 108.978 203.97C109.273 203.698 109.293 203.237 109.02 202.942C108.485 202.363 107.816 201.939 107.088 201.717L107.087 201.716Z" fill="black"/>
<path d="M89.3194 80.1749C89.8235 81.6588 90.5574 83.081 91.3911 84.9269C91.558 85.2977 91.9927 85.4548 92.3537 85.2911C92.7212 85.1264 92.8839 84.695 92.718 84.3286C92.4882 83.8181 92.2638 83.3379 92.0502 82.8793C90.6127 79.7955 90.7395 79.7337 90.5054 79.1289C89.7985 76.9935 89.2402 75.3058 86.0855 74.6478C83.2897 74.0679 80.4982 75.1204 78.9696 77.3317C78.8569 77.4943 78.7441 77.6601 78.6325 77.8281C76.59 80.8838 72.1876 81.1277 69.795 78.3235C69.1185 77.5301 68.4193 76.7366 67.7146 75.9583C67.6734 75.8672 67.6138 75.7838 67.5347 75.7133C65.7969 74.1774 64.8863 74.2381 62.6866 74.3822C62.4178 74.3996 62.1262 74.4191 61.8053 74.4375C57.5296 74.6814 56.1084 75.799 53.2779 78.0254L52.9743 78.2639C51.2268 79.6351 49.4901 81.0204 47.7534 82.4056C46.0123 83.7942 44.2713 85.1827 42.5205 86.5561C42.3308 86.7035 42.0933 86.7675 41.857 86.7382C41.4039 86.6808 41.2488 86.3773 40.8911 85.9166C40.8933 85.8765 40.8933 85.8364 40.8889 85.7963C40.7144 84.3459 40.696 77.8498 40.9074 76.3019C41.7128 70.492 45.8269 67.7214 54.246 67.317C54.6471 67.2975 54.9571 66.9571 54.9387 66.555C54.9192 66.1539 54.5798 65.8407 54.1766 65.8624C45.0475 66.3014 40.3729 69.5543 39.4644 76.1025C39.291 77.3664 39.2563 81.325 39.33 83.9286C38.5592 82.9574 37.9619 82.2138 37.3938 81.4528C37.1521 81.1309 36.6978 81.0648 36.3748 81.3054C36.0528 81.5461 35.9867 82.0024 36.2273 82.3243C36.7152 82.978 37.1998 83.5882 37.8134 84.3589C38.415 85.1166 39.1403 86.0282 40.1084 87.2845C40.4173 87.6867 40.8401 87.9653 41.3193 88.1018C41.3193 88.1051 41.3193 88.1084 41.3193 88.1127L41.4234 91.7092C41.4342 92.1038 41.7584 92.4171 42.1508 92.4171C42.5432 92.4171 42.8912 92.0789 42.8793 91.668L42.7752 88.0704C42.7752 88.0704 42.7741 88.0628 42.7741 88.0596C43.5504 87.7766 45.106 86.2938 53.8763 79.4096L54.1809 79.1701C56.9334 77.0054 58.0717 76.1101 61.8909 75.8922C62.2162 75.8738 62.5121 75.8542 62.7842 75.8358C64.8255 75.7014 65.2592 75.6754 66.4321 76.6834C66.4484 76.7062 66.4549 76.7323 66.4744 76.7539C67.2235 77.5788 67.9683 78.4243 68.6881 79.2687C70.1311 80.9597 72.2309 81.8517 74.4468 81.726C76.6507 81.597 78.6184 80.4719 79.8445 78.6378C79.9518 78.4763 80.0591 78.3181 80.1675 78.162C81.3633 76.4309 83.5726 75.6125 85.7885 76.0743C88.3112 76.6 88.4922 77.6775 89.3194 80.1749Z" fill="black"/>
<path d="M106.766 88.663C106.91 88.8289 107.113 88.9134 107.317 88.9134C107.934 88.9134 108.278 88.1829 107.866 87.7081C107.306 87.0621 106.543 86.584 105.717 86.3618C105.327 86.2556 104.928 86.4865 104.823 86.8756C104.718 87.2647 104.948 87.6636 105.337 87.7688C105.886 87.9162 106.394 88.2349 106.767 88.6641L106.766 88.663Z" fill="black"/>
<path d="M144.79 129.092L115.074 128.846C115.088 128.821 115.106 128.8 115.117 128.774C118.605 120.766 122.544 112.77 126.83 105.006C126.95 104.787 126.951 104.522 126.83 104.303C126.709 104.084 126.486 103.942 126.237 103.927C120.04 103.536 114.148 103.272 108.498 103.133C110.715 98.3546 112.023 94.7689 114.457 89.8065C114.562 89.5919 114.556 89.3382 114.438 89.1301C114.321 88.9209 114.109 88.7833 113.871 88.7616C112.615 88.6445 111.227 87.695 110.005 86.8582C109.466 86.4766 109.522 86.5699 108.411 85.7005C107.881 85.2854 107.332 84.8561 106.721 84.4973C106.472 84.3521 106.231 84.2328 105.992 84.1255C106.54 83.0524 106.824 81.7755 106.968 81.1241C106.991 81.0178 107.01 80.9289 107.027 80.8628C107.221 80.0683 107.432 79.2521 107.7 78.7643C107.71 78.747 107.726 78.7188 107.733 78.7004C107.945 78.334 108.176 77.9513 108.442 77.6327C108.608 77.4321 108.783 77.2739 108.943 77.1807C109.531 76.8435 110.34 76.901 111.189 76.9953C111.7 77.0506 112.116 77.1048 112.445 77.2673C112.693 77.3898 112.881 77.6034 112.881 77.7606C112.881 77.9969 112.453 78.2928 111.96 78.4044C111.529 78.4966 110.511 78.3762 109.872 78.7263C109.84 78.7426 109.803 78.7643 109.751 78.7968C109.516 78.9573 109.236 79.2879 109.245 79.9512C109.252 80.5377 109.532 81.5371 110.127 81.9186C110.466 82.1365 110.934 82.0508 111.15 81.7116C111.367 81.3734 111.287 80.9365 110.948 80.7198C110.833 80.6005 110.71 80.2049 110.698 79.9653C111.028 79.9025 111.581 79.9144 111.983 79.8699C111.972 80.0499 111.977 80.2298 112.005 80.4032C112.092 80.9431 112.366 81.2368 112.579 81.3875C112.878 81.5989 113.22 81.7072 113.574 81.7072C113.69 81.7072 113.809 81.691 113.927 81.6672C114.3 82.4779 115.221 82.6503 115.843 82.3338C115.171 83.6475 114.719 84.4724 113.713 86.1959C113.51 86.5438 113.628 86.9893 113.976 87.192C114.319 87.3926 114.767 87.2798 114.972 86.9297C116.441 84.4128 116.756 83.7667 118.223 80.8596C118.523 80.2732 118.781 79.6943 118.763 79.0309C118.74 78.3643 118.331 77.6489 117.664 77.3498C117.541 76.8934 117.247 76.4956 117.087 76.3265C116.882 76.1119 116.253 75.6848 115.645 75.5526C115.211 74.9564 114.499 74.7374 113.759 74.6757C114.318 73.0053 114.872 71.2688 115.306 69.5529C115.416 69.1149 115.511 68.6824 115.446 68.2033C115.23 66.637 113.515 66.146 112.395 67.2007C111.795 67.7643 111.829 67.9205 108.44 75.8073C108.364 75.8431 108.287 75.8756 108.213 75.9189C107.896 76.1043 107.596 76.3688 107.32 76.7016C106.985 77.1026 106.713 77.5503 106.465 77.9817C106.445 78.0153 106.427 78.0489 106.411 78.0825C106.063 78.7253 105.833 79.6 105.61 80.516C105.591 80.5897 105.57 80.6883 105.544 80.8086C105.402 81.4525 105.107 82.7771 104.561 83.7028C103.989 83.6313 103.447 83.6865 102.933 83.8806C102.75 83.9489 102.601 84.0898 102.522 84.2697C102.064 85.3135 101.692 86.2024 101.35 87.0197C100.471 89.1269 99.7762 90.7918 98.2292 93.4768C98.0471 93.7911 97.7446 93.8312 97.6232 93.8334C97.4909 93.8334 97.2036 93.8074 97.0139 93.5072C96.0816 92.0287 95.2144 90.1144 94.4154 88.2662C94.256 87.8966 93.8267 87.7264 93.4581 87.8869C93.0885 88.0462 92.9193 88.4755 93.0787 88.844C94.0284 91.0423 94.8523 92.8091 95.7824 94.2844C96.112 94.809 96.6378 95.1515 97.2329 95.2545C96.6865 96.5021 96.306 97.8115 96.1163 99.1675C96.0545 99.6065 96.396 99.9968 96.8383 99.9968C97.1961 99.9968 97.5072 99.7334 97.5581 99.3691C97.9452 96.6094 98.9826 95.132 99.0195 94.7689C99.2038 94.6106 99.3653 94.4231 99.4911 94.2052C101.084 91.4401 101.795 89.7382 102.695 87.5823C102.999 86.8549 103.327 86.069 103.72 85.1672C104.35 85.0371 105.078 85.229 105.984 85.7569C107.133 86.4311 110.303 89.2667 112.74 90.0125C110.45 94.784 109.119 98.3958 106.905 103.102C101.116 102.983 95.5764 102.995 90.2254 103.142C89.2432 101.909 87.7157 100.179 87.5249 99.4082C87.4274 99.018 87.0328 98.7806 86.6425 98.8771C86.2522 98.9746 86.0148 99.3692 86.1113 99.7594C86.3682 100.792 87.6604 102.3 88.3965 103.199C88.2415 103.204 88.0843 103.207 87.9293 103.213C87.6474 103.223 87.397 103.394 87.2864 103.652C83.7848 111.772 80.1857 120.144 77.4473 128.538L50.8991 128.318C53.8315 118.004 54.0245 107.54 51.3327 100.375C52.2401 99.7366 53.2516 99.0104 54.4549 98.14C54.5828 98.0467 54.6706 97.9199 54.7172 97.7801C54.9037 98.5215 54.9406 99.3009 54.7855 100.055C54.7574 100.193 54.7238 100.331 54.6891 100.469C54.5557 101.019 54.4029 101.642 54.5395 102.306C54.6945 103.062 55.1693 103.617 55.5878 104.106C55.8284 104.387 56.055 104.652 56.2014 104.927C56.6491 105.767 56.4529 106.863 56.2447 108.022C55.9975 109.397 55.7189 110.954 56.6057 112.26C56.7466 112.468 56.9754 112.578 57.2085 112.578C57.3494 112.578 57.4925 112.537 57.6172 112.452C57.95 112.227 58.0367 111.774 57.8101 111.441C57.2573 110.627 57.4621 109.487 57.6779 108.279C57.9099 106.989 58.1722 105.527 57.486 104.24C57.2648 103.825 56.9743 103.486 56.6935 103.159C56.3455 102.752 56.0453 102.4 55.965 102.012C55.8946 101.668 55.9954 101.253 56.1027 100.813C56.1406 100.658 56.1786 100.503 56.21 100.348C56.6762 98.0869 55.8653 95.6317 54.1448 94.0925C53.8456 93.8248 53.3838 93.8507 53.1161 94.1499C52.8483 94.4491 52.8743 94.9098 53.1735 95.1786C53.721 95.6686 54.1427 96.2799 54.4343 96.9498C54.1882 96.7829 53.8554 96.7753 53.5985 96.9606C47.8962 101.087 46.515 101.961 40.158 105.46C40.016 105.538 39.8371 105.492 39.7482 105.357C38.4722 103.446 37.3101 101.756 36.342 100.353C36.1133 100.022 35.659 99.9393 35.3284 100.168C34.9977 100.397 34.9142 100.85 35.143 101.182C36.1078 102.579 37.2656 104.263 38.5351 106.164C38.8722 106.672 39.4392 106.951 40.016 106.951C40.0572 106.951 40.0994 106.947 40.1406 106.944C40.1092 107.031 40.0929 107.125 40.0973 107.222C40.3314 112.726 40.3087 115.549 40.2761 119.824C40.2664 121.072 40.2555 122.444 40.2501 124.043C40.2447 125.453 40.236 126.863 40.2241 128.228L34.3213 128.18C33.0106 128.17 31.9406 129.223 31.9298 130.534C31.92 131.844 32.9737 132.914 34.2844 132.925L36.9718 132.948L36.8049 184.155C36.8038 184.557 37.129 184.884 37.5312 184.885H37.5334C37.9345 184.885 38.2597 184.561 38.2619 184.159L38.4289 132.96L40.1742 132.974C40.1482 135.08 40.1645 134.945 40.0669 136.156C39.9086 138.129 39.7124 140.584 41.7462 141.927C43.4482 143.047 45.6781 143.722 47.8691 144.356L47.7672 191.602C47.7661 192.066 48.1314 192.423 48.6355 192.454C48.6583 192.455 48.68 192.456 48.7017 192.456C49.1841 192.456 49.5765 192.139 49.6285 191.699L54.9568 146.737C61.6825 149.144 68.8559 151.617 75.7767 153.621L77.9449 186.404C77.9828 186.991 78.4414 187.436 79.0116 187.441H79.0214C79.5851 187.441 80.0458 187.007 80.0946 186.426L82.4102 158.886C83.6244 160.596 84.5285 162.409 84.9014 164.769C86.3628 174.012 86.7108 183.352 88.1689 192.595C88.4507 194.378 88.8724 195.453 89.4936 196.117C89.4579 197.531 89.5608 199.452 89.6606 201.31C89.7592 203.15 89.8611 205.052 89.8254 206.411C89.8199 206.607 89.8947 206.798 90.0324 206.939C90.169 207.078 90.3576 207.157 90.5528 207.157H90.556C97.8183 207.129 103.706 207.224 111.207 207.215C112.495 207.213 113.554 206.146 113.403 204.874C113.238 203.475 112.884 202.049 111.548 200.945C111.485 199.765 111.424 198.569 111.399 197.515C115.068 197.423 120.152 197.129 122.528 196.807C122.738 198.144 123.105 199.165 123.264 200.428C123.293 200.656 123.427 200.856 123.626 200.969C123.826 201.082 124.066 201.096 124.277 201.005C125.935 200.287 127.897 200.513 129.398 201.597C130.474 202.375 130.78 203.461 130.925 204.962C130.947 205.178 130.883 205.386 130.751 205.534C130.686 205.605 130.576 205.692 130.427 205.693C127.622 205.701 125.026 205.683 122.517 205.667C119.83 205.65 117.05 205.632 113.999 205.643C113.597 205.644 113.273 205.973 113.274 206.374C113.275 206.775 113.602 207.099 114.003 207.099H114.006C117.049 207.089 119.824 207.105 122.508 207.123C124.596 207.137 126.744 207.151 129.026 207.151C129.489 207.151 129.957 207.151 130.432 207.149C130.964 207.147 131.461 206.92 131.832 206.509C132.239 206.059 132.436 205.443 132.376 204.822C132.221 203.219 131.858 201.577 130.252 200.416C128.592 199.219 126.486 198.842 124.568 199.365C124.487 198.949 124.393 198.555 124.3 198.17C124.163 197.595 124.034 197.045 123.947 196.44C125.644 195.367 124.932 192.615 124.905 190.454C124.873 187.924 124.87 185.391 124.697 182.867C124.098 174.094 122.042 157.203 117.508 149.619C114.904 145.265 113.234 143.034 110.118 138.894C108.816 137.164 107.242 135.701 105.484 134.432L54.4993 134.093C55.3634 136.393 56.7716 139.193 57.0675 139.648C59.5479 143.456 61.985 146.609 66.1229 148.312C68.9849 149.49 71.8404 150.387 74.4584 151.713C70.4582 150.518 66.0969 149.093 60.9269 147.298C57.731 146.188 54.5893 145.058 51.6439 143.994C48.8101 142.972 44.9301 142.274 42.5495 140.709C40.8496 139.587 41.5803 136.995 41.6106 134.739C41.6182 134.187 41.6247 133.594 41.6323 132.984L54.1492 133.088C54.1524 133.099 54.1557 133.108 54.1589 133.119L73.383 133.247L139.744 133.798L139.826 198.774C139.826 199.176 140.152 199.501 140.554 199.501C140.956 199.501 141.281 199.174 141.281 198.772L141.2 133.81L144.751 133.839C146.061 133.849 147.131 132.795 147.142 131.485C147.152 130.174 146.098 129.104 144.787 129.093L144.79 129.092ZM116.421 81.1978C116.254 80.71 115.649 80.5442 115.258 80.8791C115.306 80.7024 115.611 80.1745 115.718 80.0087C115.863 79.8179 115.796 79.8428 116.43 79.1014C116.48 79.0537 116.776 78.6331 117.026 78.6559C117.163 78.67 117.303 78.8792 117.309 79.0754C117.321 79.5187 116.998 80.0553 116.421 81.1989V81.1978ZM116.122 77.444C115.644 77.7085 115.421 78.0543 115.323 78.154C114.608 78.9898 114.64 79.0223 114.499 79.2098C114.392 79.3778 114.153 79.7897 114.125 79.8569C114.039 80.0661 113.673 80.3393 113.454 80.2168C113.396 80.0499 113.471 79.5437 113.647 79.2629C113.805 79.057 114.91 77.6522 115.424 76.9953C115.627 77.0658 115.94 77.2359 116.035 77.3302C116.063 77.3606 116.093 77.4007 116.121 77.444H116.122ZM114.177 76.2267C114.09 76.3373 113.995 76.4587 113.893 76.5888C113.748 76.4121 113.573 76.2506 113.367 76.1162C113.612 76.1097 113.922 76.1389 114.177 76.2267ZM113.397 68.2597C113.544 68.1209 113.749 68.0689 113.839 68.1069C113.916 68.1383 113.987 68.2651 114.006 68.3985C114.111 69.1702 112.208 74.7222 112.013 75.2956C111.975 75.4073 111.975 75.5211 111.995 75.6317C111.533 75.5547 110.729 75.4669 110.174 75.4647C113.152 68.535 113.097 68.5405 113.396 68.2586L113.397 68.2597ZM104.702 113.941C104.994 114.892 104.704 116.11 103.947 117.119C103.263 118.03 102.006 118.864 100.862 118.546C99.7523 118.238 99.0293 116.738 99.3458 115.402C99.6971 113.915 101.411 112.462 102.873 112.415C102.898 112.415 102.922 112.413 102.946 112.413C103.8 112.413 104.391 112.927 104.702 113.941ZM113.763 118.58L118.783 109.059C118.908 108.822 119.202 108.731 119.439 108.856C119.677 108.981 119.768 109.274 119.642 109.512L114.622 119.032C114.535 119.197 114.366 119.291 114.191 119.291C114.115 119.291 114.037 119.273 113.966 119.235C113.728 119.11 113.637 118.816 113.762 118.579L113.763 118.58ZM111.692 122.398L112.774 120.693C112.917 120.466 113.217 120.398 113.444 120.542C113.671 120.686 113.738 120.985 113.595 121.212L112.513 122.918C112.421 123.063 112.264 123.143 112.102 123.143C112.013 123.143 111.923 123.12 111.842 123.068C111.616 122.923 111.548 122.624 111.692 122.398ZM82.5522 126.421C82.8027 126.328 83.0834 126.455 83.1767 126.706C83.2927 127.015 83.9518 127.191 84.5903 127.076C84.8212 127.036 85.05 126.975 85.2776 126.917C85.8077 126.778 86.3574 126.635 86.9569 126.695C87.2723 126.725 87.5585 126.809 87.8372 126.891C88.1006 126.968 88.3499 127.04 88.5906 127.057C88.9613 127.082 89.3473 126.973 89.7527 126.858C89.9966 126.79 90.2482 126.718 90.5127 126.672C91.6423 126.47 92.7546 126.742 93.8365 126.899C95.0875 127.08 95.971 126.971 96.538 126.567C96.7559 126.409 97.0584 126.46 97.2156 126.678C97.3717 126.896 97.3218 127.2 97.1039 127.356C96.3245 127.915 95.2111 128.081 93.6988 127.86C93.4907 127.829 93.2825 127.796 93.0744 127.761C92.2342 127.623 91.4417 127.491 90.685 127.627C90.4682 127.666 90.2492 127.728 90.0183 127.793C89.5511 127.925 89.0698 128.062 88.5288 128.026C88.1808 128.003 87.8686 127.912 87.5661 127.823C87.32 127.751 87.0891 127.683 86.8636 127.661C86.4365 127.619 85.9931 127.734 85.5248 127.857C85.2711 127.923 85.0174 127.989 84.7605 128.034C84.5773 128.066 84.3876 128.083 84.1979 128.083C83.3642 128.083 82.536 127.763 82.2693 127.048C82.175 126.796 82.3029 126.517 82.5544 126.424L82.5522 126.421ZM118.626 174.173C118.892 174.119 119.147 174.286 119.202 174.547C120.427 180.307 120.696 181.07 120.402 182.235C120.299 182.646 120.09 183.087 120.028 183.43C119.752 184.961 121.753 186.807 121.244 188.205C121.047 188.749 120.412 189.158 119.808 188.973C119.551 188.895 119.407 188.624 119.486 188.367C119.564 188.111 119.834 187.965 120.092 188.045C120.158 188.066 120.294 187.981 120.333 187.873C120.387 187.724 120.361 187.514 120.252 187.211C119.82 185.994 118.807 184.736 119.073 183.258C119.163 182.762 119.358 182.405 119.461 181.999C119.641 181.282 119.468 180.464 119.314 179.742L118.252 174.749C118.197 174.487 118.364 174.229 118.626 174.174V174.173ZM94.2517 183.381C94.5867 184.982 94.9325 186.637 94.2929 188.197C94.1899 188.448 93.9015 188.562 93.6598 188.461C93.4115 188.36 93.2933 188.076 93.3953 187.828C93.9221 186.545 93.6207 185.106 93.3009 183.58C92.941 181.862 92.5703 180.086 93.4408 178.468C93.5947 178.182 93.7801 177.921 93.959 177.669C94.2257 177.291 94.4772 176.936 94.5877 176.554C94.9401 175.337 93.8744 174.068 93.1806 172.719C92.0369 170.491 92.0629 167.737 93.2489 165.534C93.3757 165.297 93.6706 165.21 93.9069 165.336C94.1433 165.463 94.2322 165.758 94.1042 165.994C93.0668 167.921 93.044 170.328 94.0435 172.277C94.191 172.564 94.3612 172.854 94.5314 173.143C95.1764 174.243 95.9071 175.489 95.5201 176.825C95.364 177.364 95.0517 177.804 94.7514 178.23C94.5823 178.47 94.4219 178.696 94.2961 178.93C93.5936 180.235 93.9134 181.764 94.2517 183.382V183.381ZM111.961 205.042C111.985 205.25 111.893 205.404 111.81 205.496C111.663 205.661 111.444 205.755 111.208 205.755C104.094 205.765 98.3896 205.676 91.2921 205.695C91.2824 203.146 90.968 199.542 90.9485 196.962C92.0369 197.275 93.469 197.262 95.352 197.445C97.6091 197.664 99.8369 197.861 102.071 197.993C102.128 198.197 102.185 198.399 102.242 198.597C102.427 199.231 102.6 199.829 102.703 200.505C102.736 200.72 102.863 200.91 103.05 201.02C103.237 201.132 103.463 201.155 103.668 201.081C105.756 200.336 108.222 200.572 110.103 201.695C111.415 202.479 111.787 203.557 111.961 205.04V205.042ZM114.949 154.556C115.191 154.436 115.481 154.535 115.6 154.775C116.387 156.359 116.877 158.041 117.058 159.779C117.086 160.046 116.892 160.284 116.625 160.312C116.362 160.342 116.12 160.149 116.092 159.88C115.921 158.259 115.464 156.688 114.729 155.208C114.61 154.967 114.707 154.677 114.948 154.558L114.949 154.556ZM113.473 155.854C113.733 155.778 113.999 155.923 114.077 156.179L114.818 158.645C114.895 158.902 114.75 159.173 114.493 159.25C114.229 159.327 113.964 159.177 113.888 158.925L113.147 156.459C113.07 156.202 113.216 155.931 113.473 155.854ZM99.4585 135.566C99.58 135.326 99.8727 135.23 100.111 135.352C101.485 136.049 102.699 136.962 103.72 138.067C103.902 138.264 103.89 138.571 103.693 138.754C103.496 138.936 103.189 138.924 103.007 138.726C102.065 137.706 100.942 136.863 99.671 136.218C99.4315 136.097 99.3361 135.805 99.4575 135.566H99.4585ZM102.021 139.778C101.892 139.778 101.764 139.727 101.669 139.627L100.706 138.614C100.522 138.42 100.53 138.112 100.725 137.928C100.919 137.743 101.227 137.752 101.411 137.946L102.373 138.958C102.669 139.269 102.443 139.779 102.02 139.779L102.021 139.778ZM91.897 142.056C92.0716 141.851 92.3784 141.828 92.5811 142.002C97.0421 145.804 102.594 150.535 104.481 156.768C105.316 159.523 105.456 161.819 106.933 180.095C108.424 198.527 108.455 197.271 108.288 197.529C108.736 197.542 109.3 197.545 109.947 197.538C109.964 198.318 110.002 199.164 110.047 200.027C108.187 199.175 105.987 198.971 103.987 199.468C103.875 198.984 103.746 198.548 103.608 198.072C104.751 198.122 105.898 198.154 107.055 198.156C107.238 198.145 107.375 197.916 107.474 197.514C107.405 197.395 107.448 198.482 105.967 180.175C104.426 161.111 104.31 159.547 103.553 157.051C101.748 151.091 96.3169 146.462 91.9534 142.741C91.7496 142.567 91.7247 142.261 91.8992 142.057L91.897 142.056ZM69.2884 146.328C69.1941 146.465 69.0424 146.538 68.8873 146.538C68.793 146.538 68.6965 146.511 68.6131 146.453C66.0449 144.689 63.8702 142.38 62.3243 139.777C62.1877 139.546 62.2636 139.248 62.4934 139.111C62.7232 138.974 63.0213 139.051 63.159 139.28C64.6345 141.764 66.7105 143.967 69.1638 145.653C69.3849 145.805 69.4402 146.107 69.2884 146.328ZM41.5564 107.156C41.5456 106.897 41.3982 106.673 41.1889 106.553C45.4082 104.226 47.4181 103.06 50.0936 101.231C52.5794 108.198 52.303 118.318 49.3922 128.3L41.6844 128.236C41.6963 126.868 41.705 125.457 41.7104 124.044C41.7158 122.448 41.7266 121.078 41.7364 119.832C41.77 115.535 41.7917 112.695 41.5564 107.156Z" fill="black"/>
<path d="M23.1116 81.0187C23.2937 80.9027 23.4108 80.7109 23.4379 80.4984C23.4932 80.6231 23.5495 80.7553 23.6037 80.8864C23.4617 81.0913 23.3381 81.3049 23.2406 81.5282C23.1538 81.7287 23.1614 81.9563 23.2612 82.1503C26.6468 88.7332 29.6909 93.2728 33.3182 98.5235C33.4592 98.7284 33.6868 98.8378 33.9177 98.8378C34.4988 98.8378 34.8522 98.1809 34.5161 97.6953C30.9809 92.578 28.0051 88.1435 24.7279 81.8165C25.6364 80.3412 27.5531 80.248 29.3179 79.4936C30.5896 78.944 31.8395 78.1441 32.7556 77.0981C33.4212 78.1636 33.9925 79.0643 34.4945 79.8329C34.7145 80.17 35.1666 80.2643 35.5027 80.0453C35.8398 79.8264 35.9341 79.3744 35.7151 79.0373C35.0831 78.0671 34.334 76.8834 33.4266 75.4168C33.2944 75.2022 33.0602 75.0721 32.8076 75.0721H32.8C32.5453 75.0754 32.31 75.2109 32.1799 75.4298C32.1745 75.4385 32.168 75.4461 32.1626 75.4548C30.0811 72.1335 28.8041 67.336 24.4829 65.645C24.6802 62.6977 24.6867 60.4204 24.8699 57.5706C24.8938 57.1967 24.6304 56.865 24.2596 56.8054C21.4182 56.3447 18.5974 56.4585 15.8688 56.568C12.9081 56.6883 9.84777 56.8108 6.8145 56.1799C6.60635 56.1377 6.39278 56.1864 6.22475 56.3133C6.05671 56.4412 5.95264 56.6363 5.93963 56.8465C5.76943 59.5553 5.51142 62.327 5.23823 65.2613C4.80243 69.9418 4.35254 74.7816 4.294 79.2865C4.28966 79.6518 4.55526 79.9629 4.91626 80.016C7.18959 80.351 9.73827 80.2621 12.2024 80.1765C15.7929 80.0507 19.5037 79.9217 22.4535 81.0805C22.6671 81.1639 22.9121 81.1434 23.1105 81.0165L23.1116 81.0187ZM26.5871 68.8774C27.7558 70.1694 28.5808 71.8084 29.3808 73.3942C29.796 74.1985 30.3457 75.354 31.1858 76.619C28.7737 78.8183 26.6392 78.4107 24.7095 79.7841C24.2943 78.8692 23.9615 78.3782 23.5864 77.9284C23.7262 75.8569 23.8748 73.8093 24.0211 71.8387C24.1404 72.1064 24.239 72.3687 24.3192 72.5985C24.3778 72.7687 24.4331 72.94 24.4894 73.1124C24.8396 74.1833 25.2017 75.2911 26.0278 76.1734C26.3031 76.4682 26.7638 76.4824 27.0565 76.2081C27.3503 75.9328 27.3655 75.4721 27.0912 75.1794C26.4863 74.5323 26.1882 73.6229 25.8727 72.6604C25.8153 72.4826 25.7567 72.3048 25.696 72.1271C25.4001 71.2718 24.8981 70.0534 23.9409 69.2741C23.9257 69.2589 23.9084 69.2448 23.8921 69.2318C23.6807 69.0659 23.4487 68.925 23.2005 68.808C22.8156 68.6302 22.4308 68.5402 22.0578 68.4557C21.9234 68.4113 21.7911 68.3668 21.6448 68.3224L21.5602 68.2963C21.3521 68.2335 21.1418 68.1673 20.9629 68.0882C20.7569 67.9603 20.6095 67.8108 20.5748 67.6579C20.5271 67.4563 20.6594 67.1734 20.8816 66.9999C21.1288 66.8081 21.4974 66.6975 21.9776 66.6682C22.4806 66.6379 22.9967 66.6997 23.5138 66.8536C24.6022 67.1723 25.6928 67.892 26.5861 68.8795L26.5871 68.8774ZM22.0448 79.4003C20.0479 78.7955 17.8505 78.6427 15.614 78.6427C14.4638 78.6427 13.3017 78.6828 12.1525 78.7229C9.8868 78.802 7.73597 78.8768 5.76185 78.6589C5.85075 74.3947 6.27679 69.8247 6.68874 65.3979C6.92507 62.8625 7.16791 60.2502 7.33919 57.7614C10.263 58.2535 13.139 58.1375 15.9284 58.0248C18.3708 57.9262 20.8914 57.8243 23.3772 58.1495C23.2373 60.5981 23.2059 62.7942 23.0563 65.1865C22.6476 65.0737 22.2139 64.9859 21.7684 65.0087C20.8577 65.0499 20.0479 65.4249 19.5471 66.0363C18.9107 66.8146 18.8576 67.9625 19.4257 68.7072C19.6544 69.0063 19.9428 69.2091 20.2442 69.3586C20.4523 69.4811 20.6821 69.5851 20.9369 69.6675C21.1906 69.7488 21.441 69.8052 21.6817 69.8605C22.0448 69.983 22.3635 70.1055 22.6823 70.2496C22.5652 71.8094 22.1109 77.8438 22.0459 79.4025L22.0448 79.4003Z" fill="black"/>
<path d="M10.1341 62.8213C10.8604 63.2809 11.6843 63.8012 12.6448 64.0147C12.9224 64.0754 13.1999 64.1058 13.4698 64.1058C14.3479 64.1058 15.1567 63.7904 15.6933 63.2137C15.7833 63.1172 15.8657 63.012 15.9481 62.9058C16.0467 62.7801 16.1486 62.6489 16.2212 62.6088C16.3784 62.5243 16.7622 62.6598 17.1015 62.779C17.7097 62.9936 18.5434 63.2863 19.2805 62.7335C19.6014 62.4918 19.6654 62.0343 19.4236 61.7135C19.1808 61.3926 18.7244 61.3287 18.4035 61.5704C18.2929 61.6549 17.8842 61.5108 17.5861 61.4067C16.992 61.1964 16.2538 60.9352 15.5285 61.3287C15.1859 61.514 14.9713 61.7905 14.7989 62.0127C14.7436 62.0842 14.6883 62.1568 14.6265 62.2229C14.2807 62.5958 13.6281 62.7411 12.9603 62.5936C12.2481 62.4354 11.5694 62.0072 10.9136 61.591C10.5742 61.3764 10.1233 61.4772 9.90862 61.8175C9.69288 62.1579 9.79478 62.6066 10.1352 62.8223L10.1341 62.8213Z" fill="black"/>
<path d="M18.0864 70.1372H18.0831C17.7622 70.1372 17.4901 70.3443 17.3926 70.6326C17.2766 70.5893 17.1356 70.483 16.9882 70.3714C16.8917 70.2998 16.7952 70.2272 16.6955 70.1611C16.0505 69.734 15.3588 69.6841 14.8439 70.0288C14.613 70.1828 14.472 70.3812 14.369 70.5264C14.3441 70.5611 14.3192 70.5979 14.291 70.6326C14.0091 70.9871 13.4053 71.0402 12.9521 70.9101C12.3732 70.7432 11.8431 70.3334 11.2274 69.8272C10.6246 69.333 9.94163 68.7715 9.0993 68.4897C8.71878 68.3607 8.30466 68.5666 8.17674 68.9482C8.04882 69.3297 8.25371 69.7427 8.63531 69.8706C9.22396 70.0679 9.74758 70.4982 10.3352 70.9795C10.8837 71.4293 11.635 72.0461 12.5499 72.3095C12.8177 72.3864 13.1137 72.4298 13.4161 72.4298C14.15 72.4298 14.9241 72.1762 15.4293 71.541C15.4737 71.4857 15.5149 71.4271 15.5561 71.3697C15.5811 71.3339 15.6136 71.2895 15.6331 71.2624C15.683 71.2711 15.7784 71.3014 15.89 71.3751C15.9659 71.426 16.0396 71.4813 16.1133 71.5366C16.3572 71.7198 16.6597 71.9474 17.0565 72.0526C17.4912 72.1675 17.9834 72.071 18.3368 71.8C18.6371 71.5703 18.8095 71.2299 18.8116 70.8689C18.8127 70.4668 18.4886 70.1394 18.0864 70.1383V70.1372Z" fill="black"/>
<path d="M82.2673 205.718L49.0335 205.739L44.282 205.751C43.8798 205.751 43.5546 206.08 43.5557 206.481C43.5557 206.882 43.882 207.207 44.2842 207.207H44.2863L82.2684 207.173C82.6706 207.173 82.9969 206.847 82.9958 206.445C82.9958 206.043 82.6695 205.718 82.2673 205.718Z" fill="black"/>
<path d="M212.763 53.3349H212.762C212.361 53.3349 212.034 53.6601 212.033 54.0611L211.928 103.306L130.211 90.0636L130.316 42.4043C130.316 42.0022 129.992 41.6759 129.59 41.6748H129.589C129.188 41.6748 128.861 42 128.86 42.4011L128.754 90.6814C128.754 91.0392 129.012 91.3437 129.365 91.4012C216.365 105.496 212.543 104.889 212.656 104.889C213.056 104.889 213.383 104.566 213.384 104.163L213.49 54.0633C213.49 53.6612 213.166 53.3349 212.764 53.3338L212.763 53.3349Z" fill="black"/>
<path d="M212.705 35.2939H212.699C212.297 35.2972 211.973 35.6246 211.976 36.0278L212.052 46.9096C212.055 47.3096 212.38 47.6326 212.78 47.6326H212.786C213.188 47.6293 213.512 47.302 213.509 46.8988L213.433 36.017C213.43 35.617 213.105 35.2939 212.705 35.2939Z" fill="black"/>
<path d="M150.289 29.572C151.157 28.6756 151.151 27.2393 150.281 26.3505C149.326 25.3749 147.9 25.5224 147.09 26.3581C146.224 27.2513 146.226 28.6897 147.097 29.5796C147.522 30.0132 148.087 30.2527 148.688 30.2527C148.736 30.243 149.57 30.3124 150.288 29.572H150.289Z" fill="black"/>
<path d="M155.916 29.1691C157.154 29.1659 158.16 28.1372 158.156 26.8755C158.152 25.6159 157.151 24.5938 155.91 24.5938C155.861 24.6035 155.028 24.5341 154.31 25.2745C152.918 26.7118 153.918 29.1691 155.911 29.1691H155.916Z" fill="black"/>
<path d="M143.632 29.2904C143.63 28.6823 143.398 28.1111 142.976 27.6818C142.253 26.9437 141.33 26.999 141.379 27.0087C140.14 27.012 139.135 28.0406 139.137 29.3013C139.139 29.9094 139.371 30.4806 139.793 30.9109C141.202 32.3494 143.638 31.3283 143.632 29.2904Z" fill="black"/>
<path d="M174.923 30.2155C180.708 29.9467 185.78 29.5503 190.138 29.0264C191.301 28.8865 192.673 28.7207 194.34 28.5245C194.74 28.4779 195.025 28.1158 194.977 27.7159C194.931 27.317 194.564 27.0254 194.169 27.0785C192.501 27.2747 191.128 27.4405 189.964 27.5804C183.309 28.3803 183.589 28.3543 173.655 28.8172C173.252 28.8356 172.942 29.1759 172.961 29.5781C172.979 29.9683 173.301 30.2729 173.687 30.2729C173.709 30.2729 174.9 30.2176 174.922 30.2166L174.923 30.2155Z" fill="black"/>
<path d="M84.6646 90.8C84.3393 90.6222 84.0152 90.568 83.7279 90.5203C83.5577 90.4921 83.3984 90.4661 83.2878 90.4184C82.93 90.2634 82.7826 89.6943 82.8715 89.2596C82.994 88.6515 83.4255 88.0879 83.8428 87.5427C84.0868 87.2229 84.026 86.7666 83.7062 86.5216C83.3875 86.2777 82.93 86.3384 82.685 86.6582C82.2156 87.2717 81.6324 88.0348 81.4427 88.9724C81.2367 89.9946 81.6053 91.2791 82.71 91.756C82.9842 91.8742 83.2531 91.9186 83.4894 91.9587C83.6781 91.9891 83.8548 92.0194 83.961 92.0769C84.3458 92.2893 84.2439 93.1641 83.9859 93.8871C83.7594 94.5223 83.071 96.4528 84.3816 97.4685C84.5139 97.5714 84.6711 97.6213 84.8272 97.6213C85.5177 97.6213 85.8213 96.7433 85.2738 96.3173C84.9627 96.0756 84.992 95.4046 85.3584 94.377C85.9535 92.7067 85.6955 91.3702 84.6646 90.8022V90.8Z" fill="black"/>
<path d="M61.6484 83.4247C62.6154 82.9391 63.2073 81.8086 63.0577 80.7376C63.0013 80.3387 62.6305 80.0613 62.2359 80.1176C61.837 80.174 61.5595 80.5414 61.6158 80.9392C61.6809 81.4042 61.4142 81.9126 60.9946 82.124C60.5762 82.3343 60.007 82.2454 59.6731 81.9159C59.3566 81.6048 58.8276 81.6438 58.5663 82.0156L55.9265 85.7683C55.6956 86.0978 55.7737 86.5509 56.1032 86.7828C56.435 87.0159 56.8881 86.9324 57.118 86.6062L59.349 83.4345C60.0656 83.7694 60.9372 83.7825 61.6494 83.4237L61.6484 83.4247Z" fill="black"/>
<path d="M72.2958 115.415C72.1906 115.237 72.015 115.111 71.8112 115.07C71.5965 115.027 71.422 114.62 71.4523 114.232C71.4762 113.93 71.5738 113.609 71.6757 113.27C71.7667 112.967 71.8621 112.654 71.9185 112.315C72.0735 111.38 71.8058 110.228 70.8572 109.761C70.4962 109.583 70.0593 109.731 69.8815 110.091C69.7037 110.452 69.8511 110.889 70.2121 111.067C70.4647 111.192 70.5471 111.678 70.481 112.077C70.4398 112.323 70.3628 112.579 70.2804 112.849C70.159 113.248 70.0344 113.66 69.9997 114.121C69.9422 114.859 70.21 115.698 70.803 116.167C70.4723 117.519 70.455 118.935 70.7585 120.298C70.8344 120.637 71.1347 120.868 71.4686 120.868C71.5206 120.868 71.5738 120.863 71.6269 120.851C72.0193 120.764 72.2665 120.375 72.1798 119.983C71.8881 118.667 71.9499 117.292 72.3597 116.008C72.4226 115.81 72.3988 115.596 72.2936 115.417L72.2958 115.415Z" fill="black"/>
<path d="M58.4361 121.211C58.151 120.928 57.6891 120.928 57.4062 121.213C57.1222 121.498 57.1232 121.959 57.4084 122.243L58.3006 123.13C58.4426 123.27 58.629 123.341 58.8144 123.341C58.9998 123.341 59.1884 123.269 59.3304 123.126C59.6145 122.841 59.6134 122.381 59.3283 122.097L58.4361 121.21V121.211Z" fill="black"/>
<path d="M55.6013 122.614C55.3498 122.3 54.8902 122.251 54.578 122.502C54.2636 122.754 54.2148 123.212 54.4663 123.526L55.3585 124.635C55.5027 124.813 55.7141 124.907 55.9266 124.907C56.087 124.907 56.2485 124.854 56.383 124.746C56.6963 124.494 56.7461 124.035 56.4935 123.722L55.6013 122.614Z" fill="black"/>
<path d="M37.8222 94.7707C37.4991 95.0092 37.4298 95.4655 37.6683 95.7886L38.9876 97.5771C39.1307 97.77 39.3507 97.873 39.5741 97.873C40.1649 97.873 40.5161 97.1955 40.1595 96.712L38.8401 94.9235C38.6016 94.5994 38.1463 94.5301 37.8222 94.7696V94.7707Z" fill="black"/>
<path d="M224.138 47.6151C225.004 48.0009 225.851 47.1804 225.625 46.1517C225.482 45.4992 224.82 44.8206 224.21 44.1844C223.381 43.3205 223.319 43.2294 222.92 42.4056C222.612 41.7704 222.288 41.1048 221.709 40.7656C222.414 36.7506 223.13 32.6175 223.645 28.5104C223.868 26.7349 224.017 25.0613 223.408 23.392C226.207 22.4273 229.04 21.4658 231.858 20.5607C232.362 20.3992 232.531 19.7683 232.175 19.377C226.013 12.6099 219.108 6.45843 212.566 0.739497C212.429 0.620262 212.269 0.568242 212.071 0.55957C203.425 0.737339 194.991 2.50744 187.003 5.82217C186.787 5.91214 186.627 6.10073 186.574 6.32836C186.521 6.55599 186.579 6.79554 186.733 6.97223C188.631 9.15422 190.521 11.3211 192.408 13.4814C189.952 16.2422 190.365 15.7566 190.297 15.8639L129.512 25.4439C129.158 25.4992 128.898 25.8037 128.897 26.1614L128.871 38.3603C128.871 38.7624 129.195 39.0887 129.597 39.0898H129.599C130 39.0898 130.326 38.7646 130.327 38.3635L130.352 26.7858L190.342 17.3316C190.392 17.6459 190.441 17.9592 190.488 18.2258C191.674 24.8954 199.301 29.1759 202.524 30.7065C208.004 33.3091 214.229 33.36 219.188 30.9872C219.363 30.9037 219.496 30.7542 219.56 30.5721C220.217 28.7088 221.244 26.6156 222.247 24.6233C222.484 25.7647 222.369 26.9831 222.2 28.3294C221.678 32.4885 220.946 36.691 220.229 40.771C219.202 41.3162 218.397 42.888 217.832 43.5567C217.503 43.9459 217.006 44.5323 216.887 45.3301C216.734 46.3522 217.429 47.5034 218.444 47.3495C219.024 47.2628 219.354 46.8129 219.595 46.4487C219.618 46.7891 219.659 47.1923 219.856 47.5609C220.374 48.5278 221.676 48.5234 222.027 47.4091C222.574 48.1896 223.526 48.1755 224.138 47.6151ZM211.821 2.02182C217.998 7.42424 224.485 13.2104 230.333 19.5233C227.8 20.3471 225.267 21.21 222.761 22.075C220.058 17.7489 214.263 17.0736 211.7 13.4348C212.389 12.6272 212.387 11.2062 211.429 10.7617C211.25 10.6783 210.986 10.0528 210.193 10.0105C209.936 10.004 209.696 10.1233 209.559 10.3227C209.316 10.1829 209.004 10.1905 208.764 10.365C207.229 11.488 207.874 14.2716 210.04 14.212C210.089 14.2109 210.088 14.2163 210.169 14.2044C210.186 14.2033 210.317 14.1881 210.352 14.1827C210.416 14.2672 210.494 14.342 210.588 14.3919C213.371 18.2009 218.774 18.8979 221.344 22.5649C218.662 23.4949 216.543 24.2364 213.685 25.2173C211.611 25.8005 209.641 26.4639 207.777 27.201C207.4 27.3245 207.023 27.4514 206.647 27.5728C200.571 20.591 194.58 13.7664 188.503 6.78579C195.955 3.82118 203.794 2.22019 211.822 2.02182H211.821Z" fill="black"/>
<path d="M183.911 201.989C182.095 202.208 180.4 203.35 178.872 205.383C175.342 210.084 174.377 215.993 173.861 221.677C173.826 222.078 174.121 222.431 174.521 222.468C174.911 222.5 175.275 222.209 175.312 221.809C175.808 216.338 176.724 210.667 180.036 206.258C181.316 204.555 182.678 203.605 184.085 203.435C187.351 203.034 191.04 206.727 190.284 211.354C189.88 213.832 188.3 216.233 185.837 218.114C183.807 219.664 180.727 220.181 177.993 220.902C179.147 219.174 180.354 217.482 181.613 215.835C181.857 215.516 181.796 215.059 181.476 214.814C181.156 214.57 180.7 214.631 180.455 214.951C177.286 219.095 174.432 223.516 171.963 228.096C170.726 228.078 168.804 228.042 167.667 228.02C167.344 219.373 169.34 210.784 173.385 203.121C173.541 203.561 174.047 203.734 174.433 203.513C177.737 201.63 181.488 199.832 183.882 196.944C189.097 190.655 186.529 183.692 182.244 182.717C180.364 182.29 178.157 183.049 176.345 184.75C174.435 186.544 173.083 188.991 172.326 192.024C171.675 194.634 170.752 202.349 170.627 205.013C170.621 205.129 170.645 205.239 170.689 205.337C167.488 212.441 165.931 220.192 166.211 227.993C165.901 227.988 165.594 227.981 165.283 227.976C164.117 224.652 162.967 221.463 162.118 218.407C162.515 218.582 162.936 218.387 163.087 218.025C164.39 214.905 165.736 211.68 165.997 208.213C166.292 204.286 164.938 200.647 162.376 198.479C159.63 196.155 154.674 195.466 151.677 198.145C150.159 199.502 149.312 201.573 149.353 203.824C149.389 205.747 150.066 208.295 151.037 210.166C153.532 214.97 155.441 216.06 160.323 219.809C160.456 219.911 160.612 219.96 160.766 219.96C160.857 219.96 160.947 219.939 161.032 219.905C161.805 222.507 162.73 225.098 163.732 227.953C161.419 227.918 159.097 227.898 156.825 227.924C154.234 227.953 152.369 230.493 153.097 233.056C154.367 237.522 155.687 242.623 157.055 247.319C157.261 248.024 157.65 248.628 158.151 249.103H152.741C152.339 249.103 152.013 249.429 152.013 249.831C152.013 250.234 152.339 250.56 152.741 250.56H185.559C185.961 250.56 186.287 250.234 186.287 249.831C186.287 249.429 185.961 249.103 185.559 249.103H176.767C177.625 248.601 178.29 247.777 178.584 246.763L182.492 233.278C183.936 228.301 177.559 227.891 178.619 228.131C177.12 228.149 175.099 228.135 173.611 228.119C174.667 226.196 175.79 224.301 176.979 222.446C177.092 222.515 177.219 222.559 177.353 222.559C177.582 222.559 177.285 222.559 179.888 221.925C182.31 221.335 184.815 220.725 186.718 219.273C189.479 217.165 191.254 214.437 191.718 211.591C192.645 205.911 188.09 201.487 183.908 201.991L183.911 201.989ZM173.74 192.375C174.428 189.619 175.64 187.41 177.343 185.81C183.214 180.297 188.693 188.859 182.762 196.014C180.606 198.614 177.058 200.352 173.935 202.122C175.133 199.973 176.485 197.896 178.004 195.921C178.25 195.602 178.189 195.145 177.871 194.9C177.553 194.655 177.095 194.714 176.85 195.032C175.15 197.242 173.652 199.575 172.343 201.997C172.69 198.661 173.296 194.157 173.74 192.375ZM152.329 209.493C151.466 207.83 150.841 205.488 150.809 203.796C150.776 201.968 151.445 200.303 152.647 199.229C154.813 197.292 158.919 197.461 161.435 199.589C163.642 201.457 164.805 204.639 164.545 208.102C164.306 211.271 163.052 214.327 161.817 217.285C161.183 214.81 160.728 212.305 160.612 209.772C160.593 209.371 160.262 209.056 159.852 209.078C159.451 209.096 159.14 209.437 159.158 209.838C159.287 212.659 159.813 215.422 160.536 218.137C156.259 214.878 154.564 213.792 152.33 209.493H152.329ZM157.269 232.249C157.262 231.98 157.473 231.758 157.742 231.75C158.021 231.747 158.234 231.954 158.241 232.223C158.342 235.975 159.669 239.646 161.977 242.56C162.23 242.881 161.997 243.347 161.596 243.347C161.453 243.347 161.311 243.284 161.214 243.163C158.777 240.085 157.376 236.209 157.268 232.25L157.269 232.249ZM174.769 241.102C174.731 240.997 174.684 240.893 174.639 240.788C174.151 239.674 174.242 239.146 175.111 238.343C175.174 238.285 175.236 238.228 175.296 238.168C175.492 237.972 175.587 237.723 175.537 237.648C175.516 237.615 175.447 237.564 175.388 237.519C175.269 237.429 175.119 237.317 175.005 237.139C174.48 236.322 175.304 235.377 176.253 235.206C176.568 235.15 176.952 235.105 177.192 235.005C175.87 233.467 176.853 231.192 178.695 230.978C178.967 230.946 179.203 231.139 179.233 231.404C179.263 231.671 179.074 231.912 178.807 231.942C178.245 232.007 177.736 232.465 177.598 233.032C177.458 233.604 177.698 234.258 178.168 234.591C178.356 234.723 178.425 234.97 178.333 235.181C178.005 235.934 177.192 236.036 176.425 236.161C176.057 236.228 175.776 236.543 175.823 236.615C175.893 236.725 176.15 236.818 176.344 237.108C176.729 237.68 176.439 238.398 175.983 238.855C175.298 239.54 175.129 239.485 175.529 240.399C175.582 240.522 175.636 240.645 175.681 240.766C175.968 241.545 175.718 242.542 174.903 242.676C174.652 242.721 174.39 242.549 174.345 242.276C174.3 242.012 174.48 241.761 174.745 241.718C174.806 241.676 174.871 241.376 174.77 241.101L174.769 241.102Z" fill="black"/>
<path d="M249.74 120.671L249.74 120.671C250.274 120.403 250.925 120.616 251.194 121.15C253.982 126.68 253.602 133.601 250.226 138.794C249.988 139.16 249.565 139.334 249.161 139.274L249.74 120.671ZM249.74 120.671L249.74 120.672M249.74 120.671L249.74 120.672M249.74 120.672C249.206 120.941 248.992 121.592 249.261 122.125L249.74 120.672ZM249.261 122.125C251.707 126.976 251.373 133.06 248.412 137.613C247.981 138.275 248.383 139.158 249.159 139.274L249.261 122.125Z" fill="#CF3245" stroke="#CF3245" stroke-width="0.708333"/>
<path d="M254.699 137.446C255.056 137.499 255.429 137.346 255.639 137.022C258.436 132.721 258.751 126.987 256.441 122.406C256.204 121.934 255.629 121.747 255.159 121.983L255.159 121.983L255.158 121.983C254.687 122.221 254.499 122.795 254.736 123.266C256.743 127.248 256.47 132.243 254.039 135.981L254.699 137.446ZM254.039 135.981C253.659 136.565 254.013 137.344 254.698 137.446L254.039 135.981Z" fill="#CF3245" stroke="#CF3245" stroke-width="0.708333"/>
<path d="M14.0628 196.119L14.0626 196.119C13.8636 195.555 13.2466 195.259 12.6828 195.457L12.6828 195.457L12.682 195.457C12.1196 195.656 11.821 196.272 12.0203 196.837C16.7205 210.204 27.3985 221.277 40.5865 226.462L40.5867 226.462C40.757 226.528 40.9352 226.55 41.1088 226.53C41.4927 226.485 41.838 226.235 41.9903 225.852L41.9907 225.85C42.2093 225.294 41.9362 224.666 41.3797 224.447L41.2971 224.415L41.2962 224.415C28.7255 219.444 18.5461 208.872 14.0628 196.119Z" fill="#CF3245" stroke="#CF3245" stroke-width="0.708333"/>
<path d="M20.825 224.035C16.9444 221.875 13.9699 218.199 12.6654 213.955L12.6653 213.955C12.4898 213.384 11.8857 213.062 11.3127 213.238L11.3125 213.238C10.7415 213.413 10.4196 214.019 10.5955 214.59C12.0644 219.366 15.4073 223.496 19.7731 225.927C19.9794 226.042 20.2072 226.082 20.4249 226.056C20.7583 226.017 21.069 225.823 21.2446 225.507C21.5353 224.985 21.3477 224.326 20.8252 224.035L20.825 224.035Z" fill="#CF3245" stroke="#CF3245" stroke-width="0.708333"/>
<path d="M69.9194 66.097C69.7676 65.7252 69.3437 65.5452 68.9697 65.698C68.5968 65.8498 68.4179 66.2747 68.5708 66.6476C69.1366 68.0351 69.8901 68.6724 71.0392 69.3488C71.3829 69.5559 71.8306 69.4442 72.0377 69.0995C72.2447 68.7548 72.132 68.3071 71.7883 68.1012C70.9677 67.6166 70.3823 67.234 69.9194 66.0991V66.097Z" fill="black"/>
<path d="M79.7903 59.5554C79.3903 59.4881 79.0174 59.7526 78.948 60.1494C78.8082 60.9612 79.1811 61.6907 79.5638 62.2977L79.6006 62.3552C79.8554 62.7584 80.3324 63.475 79.9714 63.7817C79.618 63.6711 79.2288 63.8402 79.0792 64.1882C78.8634 64.6911 79.2223 65.2515 79.979 65.2515C80.8538 65.2515 81.5552 64.393 81.5606 63.5172C81.5704 62.1156 80.2489 61.1845 80.3844 60.3986C80.4527 60.0019 80.1871 59.6258 79.7903 59.5565V59.5554Z" fill="black"/>
<path d="M68.3687 44.4779C67.7638 45.5087 67.6077 45.5455 66.4716 45.7472C65.8005 45.8664 65.0395 46.0019 64.3825 46.4723C63.1803 47.3341 62.8681 48.8884 62.6708 50.2781C62.2089 53.5288 61.2408 60.1756 63.5337 62.7956C64.0963 63.4383 64.9126 63.9781 65.3138 64.6025C65.8883 65.4989 66.2146 67.1943 66.2385 68.4061C66.2406 68.508 66.2667 68.6023 66.3057 68.6901C66.2905 69.1508 66.2764 69.6028 66.2623 70.0613C66.2244 71.31 66.1854 72.5696 66.1203 74.1359C66.1041 74.538 66.4163 74.8773 66.8174 74.8936C66.8282 74.8936 66.838 74.8936 66.8477 74.8936C67.2358 74.8936 67.5589 74.5868 67.5752 74.1955C67.6402 72.6227 67.6792 71.3577 67.7183 70.1047C67.7454 69.2223 67.7725 68.3584 67.8072 67.4121C67.8288 67.1628 67.8505 66.9091 67.87 66.6577C67.9188 66.0452 67.9687 65.4111 68.0413 64.9179C68.1064 64.4854 68.205 63.7852 67.8863 63.1641C67.8787 63.15 67.8722 63.1359 67.8646 63.1229C67.4049 62.2807 66.5995 62.2091 65.9696 61.8579C65.8038 61.6932 65.6585 61.5111 65.5338 61.2986C65.059 60.4889 65.253 59.186 65.5143 59.1123C65.833 59.0169 66.3447 59.2185 66.7328 59.3518C68.8013 60.0423 70.9282 59.9274 73.0043 59.0841C74.7442 58.5248 76.6273 57.2652 77.681 55.829C78.2913 55.2122 78.8865 54.5218 79.4665 53.7684C79.6454 53.6871 79.8329 53.6437 80.0367 53.6318C80.7815 54.706 81.5273 55.6761 81.7984 56.9021C82.3979 59.6402 82.387 62.5256 81.768 65.2485C81.2281 67.63 80.285 69.3014 78.9613 70.2163C78.1667 70.7659 77.1205 70.987 76.1665 70.8038C75.6321 70.7019 74.8927 70.4277 74.4027 69.6949C74.1783 69.36 73.7252 69.2711 73.3924 69.4944C73.0585 69.7177 72.9685 70.1708 73.1918 70.5046C74.2033 72.0157 76.1275 72.6151 78.0171 72.1826C78.1027 72.8243 78.1688 73.3533 78.2339 73.8757C78.3109 74.4914 78.3878 75.1082 78.4984 75.9222C78.5472 76.2875 78.8605 76.5531 79.2193 76.5531C79.6649 76.5531 80.0009 76.1618 79.9424 75.7271C79.7288 74.1446 79.6334 73.2535 79.4155 71.646C83.6695 69.244 84.2722 61.3821 83.2218 56.5899C83.0169 55.6631 82.6179 54.8881 82.1648 54.1706C82.3415 54.2367 82.5182 54.2963 82.6938 54.3668C84.463 55.0713 85.9743 54.0817 86.5521 52.7397C87.0334 51.6222 86.8762 50.1935 85.7705 49.3112C86.5781 48.8722 87.3792 48.2001 87.8129 47.178C88.1988 46.2685 88.1197 45.1488 87.6069 44.2567C87.4118 43.9164 87.1678 43.6345 86.8871 43.4167C87.2004 42.853 87.2773 42.1571 87.1288 41.5696C86.9272 40.7696 86.3786 40.0434 85.4984 39.4104C83.8028 38.192 81.5729 37.7454 79.538 38.218C77.1672 38.7676 76.1947 40.0997 74.87 41.9815C74.226 42.8974 73.6168 42.814 72.6075 42.6741C71.8313 42.5668 70.8654 42.4335 69.8647 42.904C69.0755 43.2747 68.7004 43.9142 68.3698 44.4789L68.3687 44.4779Z" fill="black"/>
<path d="M77.8059 66.1325C77.5978 65.7878 77.15 65.6772 76.8064 65.8854C76.4616 66.0935 76.3521 66.5401 76.5592 66.8848C77.0742 67.7379 78.0574 68.2256 79.0363 68.2256C79.509 68.2256 79.9795 68.1118 80.3969 67.8712C80.7449 67.6696 80.8641 67.2241 80.6625 66.8761C80.4608 66.5282 80.0153 66.4089 79.6673 66.6105C79.07 66.9574 78.1637 66.7244 77.8059 66.1325Z" fill="black"/>
<path d="M176.808 62.1016H172.502V70.0816H176.808V62.1016Z" fill="black"/>
<path d="M185.648 56.4385H181.342V70.0822H185.648V56.4385Z" fill="black"/>
<path d="M193.804 51.1182H189.498V70.0819H193.804V51.1182Z" fill="black"/>
<path d="M202.647 43.9961H198.341V70.0814H202.647V43.9961Z" fill="black"/>
<path d="M171.462 59.8145C171.654 59.8145 171.845 59.7397 171.988 59.5901C174.996 56.451 177.905 53.1786 180.64 49.853C180.875 50.0958 181.111 50.3299 181.343 50.5608C181.772 50.9868 182.176 51.389 182.571 51.8301C182.709 51.9851 182.907 52.073 183.114 52.073C183.164 52.0621 183.426 52.0881 183.657 51.8301C184.542 50.8383 185.492 49.8411 186.411 48.8775C187.175 48.0775 187.958 47.2547 188.715 46.4266C189.754 47.2537 190.994 47.955 191.833 48.742C192.154 49.0444 192.67 48.9923 192.926 48.6325C195.549 44.9351 197.818 41.9943 200 39.46C200.487 40.0519 200.966 40.6166 201.394 41.0448C201.536 41.1879 201.723 41.2594 201.91 41.2594C202.096 41.2594 202.281 41.189 202.423 41.0481C202.577 40.8952 202.649 40.6893 202.637 40.4887C203.161 38.9159 203.644 37.0938 204.393 35.6608C204.51 35.4375 204.503 35.1709 204.376 34.9541C204.248 34.7373 204.018 34.6018 203.767 34.5953C202.213 34.5617 200.824 34.7774 199.353 35.0115C198.873 35.0874 198.386 35.1654 197.888 35.2337C197.614 35.2717 197.385 35.4603 197.297 35.7215C197.208 35.9827 197.275 36.2721 197.47 36.4683C197.937 36.9388 198.502 37.6184 199.067 38.3132C196.93 40.7781 194.723 43.6138 192.198 47.142C191.783 46.8168 191.339 46.5101 190.904 46.212C190.253 45.7654 189.64 45.3416 189.149 44.8809C189.006 44.7465 188.811 44.6695 188.619 44.6847C188.422 44.6934 188.238 44.7801 188.108 44.9264C187.225 45.9161 186.276 46.9112 185.359 47.8726C184.613 48.6553 183.848 49.4584 183.107 50.2681C182.436 49.5755 181.773 48.9587 181.148 48.2618C180.863 47.9442 180.333 47.929 180.04 48.2877C177.176 51.8052 174.114 55.2684 170.938 58.5821C170.495 59.0449 170.827 59.8145 171.464 59.8145H171.462Z" fill="black"/>
<path d="M157.508 50.1343C158.461 51.112 159.203 52.3087 159.654 53.5964C159.775 53.9422 160.135 54.1438 160.494 54.068C161.791 53.7883 162.813 53.3688 164.027 53.1076C164.419 53.0231 164.669 52.6382 164.586 52.2458C164.15 50.1657 162.947 48.2591 160.802 46.2473C160.507 45.9719 160.036 45.9849 159.761 46.2928C158.981 47.1654 158.217 48.323 157.488 49.1403C157.233 49.4254 157.241 49.8601 157.509 50.1343H157.508Z" fill="black"/>
<path d="M146.875 71.6791L147.959 77.3699C148.018 77.6788 148.268 77.9151 148.579 77.9563L160.364 79.514C160.668 80.7486 161.774 81.6591 163.108 81.6591C164.443 81.6591 165.709 80.6478 165.9 79.2072C166.105 77.6582 165.015 76.2447 163.473 76.0399C162.725 75.9401 161.984 76.1385 161.386 76.5981C160.902 76.9688 160.568 77.4761 160.403 78.0506L149.292 76.5818L148.406 71.9306C157.492 72.9441 165.369 65.8117 165.369 56.7682C165.369 56.3661 165.042 56.0399 164.64 56.0399H160.543C160.141 56.0399 159.815 56.3661 159.815 56.7682C159.815 62.1208 155.46 66.4751 150.107 66.4751C144.754 66.4751 140.399 62.1208 140.399 56.7682C140.399 49.1676 148.748 44.5825 155.148 48.4728C155.314 48.5725 155.511 48.605 155.699 48.5573C155.886 48.5118 156.048 48.3937 156.149 48.2278L158.274 44.7288C158.483 44.3852 158.374 43.9375 158.031 43.7283C147.949 37.5921 134.845 44.8426 134.845 56.7672C134.845 64.073 140.008 70.193 146.875 71.6791ZM156.364 67.3737L157.126 66.681C157.325 66.5 157.632 66.5152 157.812 66.7135C157.993 66.9119 157.979 67.2187 157.779 67.3986C157.075 67.9915 157.004 68.2181 156.69 68.2181C156.557 68.2181 156.426 68.1649 156.33 68.0587C156.15 67.8604 156.164 67.5525 156.362 67.3726L156.364 67.3737ZM139.997 63.4747C140.231 63.3468 140.527 63.4335 140.655 63.6687C141.362 64.964 142.474 66.0513 143.786 66.7276C144.024 66.8512 144.117 67.1439 143.994 67.3824C143.871 67.6197 143.579 67.714 143.339 67.5905C141.857 66.8252 140.601 65.5971 139.802 64.1337C139.673 63.8985 139.76 63.6037 139.996 63.4758L139.997 63.4747Z" fill="black"/>
<path d="M146.85 61.1832C149.075 58.7887 151.111 56.1884 152.9 53.4536C153.12 53.1165 153.026 52.6655 152.688 52.4455C152.351 52.2265 151.9 52.3197 151.68 52.6568C149.937 55.3234 147.953 57.8576 145.783 60.1914C145.509 60.4862 145.526 60.9469 145.821 61.2201C146.115 61.4932 146.575 61.478 146.85 61.1821V61.1832Z" fill="black"/>
<path d="M147.113 56.7287C147.998 55.9635 147.578 54.6703 146.492 54.3538C146.08 54.2335 145.671 54.3256 145.391 54.5912C145.342 54.6161 144.813 54.6443 144.706 55.1939C144.544 56.0166 145.046 56.8491 145.824 57.0496C146.282 57.1677 146.76 57.0344 147.113 56.7287Z" fill="black"/>
<path d="M153.627 59.6042C153.8 58.9473 153.443 58.2199 152.776 58.0606C152.626 58.0237 152.282 57.8319 151.935 57.9804C151.064 58.1246 150.489 59.0318 150.914 59.8827C151.162 60.3803 153.306 60.8214 153.628 59.6052L153.627 59.6042Z" fill="black"/>
<path d="M177.05 77.4693L176.728 82.8936L203.852 84.5049L204.175 79.0806L177.05 77.4693Z" fill="black"/>
<path d="M179.319 87.661L179.084 91.6094L195.647 92.5933L195.882 88.6449L179.319 87.661Z" fill="black"/>
<path d="M208.578 111.861L164.987 116.767C164.62 116.809 164.341 117.12 164.34 117.489L164.288 142.019C164.288 142.389 164.565 142.701 164.932 142.744C209.674 147.968 208.499 147.838 208.587 147.838C208.986 147.838 209.315 147.515 209.316 147.112L209.388 112.588C209.388 112.153 209.009 111.812 208.578 111.862V111.861ZM196.955 116.314H196.958C197.826 116.316 198.532 117.045 198.53 117.939C198.528 118.832 197.821 119.557 196.955 119.557H196.952C196.083 119.555 195.378 118.827 195.38 117.933C195.382 117.039 196.089 116.314 196.955 116.314ZM190.562 116.604H190.565C191.434 116.606 192.138 117.334 192.137 118.227C192.135 119.108 191.444 119.846 190.562 119.846H190.559C189.69 119.844 188.985 119.115 188.987 118.222C188.989 117.342 189.68 116.604 190.562 116.604ZM168.233 123.333C168.199 123.067 168.389 122.824 168.655 122.792C172.667 122.294 176.745 122.183 180.78 122.457C181.048 122.475 181.25 122.707 181.231 122.975C181.213 123.242 180.993 123.438 180.713 123.426C176.742 123.154 172.723 123.266 168.774 123.756C168.52 123.791 168.267 123.608 168.233 123.334V123.333ZM170.542 128.231C170.549 127.967 170.766 127.758 171.028 127.758C180.937 127.998 176.057 127.879 177.463 127.914C177.731 127.92 177.943 128.143 177.937 128.411C177.93 128.676 177.713 128.885 177.451 128.885C177.402 128.885 171.066 128.734 171.016 128.729C170.748 128.722 170.536 128.499 170.542 128.231ZM201.065 125.724C200.044 127.984 199.19 130.327 198.522 132.687C198.424 133.036 197.989 133.158 197.725 132.911C197.366 132.767 197.565 132.683 195.926 130.277C193.635 133.07 190.802 135.003 187.814 137.16C187.575 137.334 187.24 137.254 187.103 136.998C185.795 134.589 184.632 132.588 182.765 130.88C172.723 139.978 173.255 139.717 172.896 139.717C172.765 139.717 172.633 139.664 172.537 139.559C172.356 139.361 172.37 139.053 172.568 138.873L182.434 129.87C182.615 129.703 182.891 129.7 183.076 129.86C185.125 131.621 186.367 133.635 187.691 136.052C190.497 134.03 193.212 132.141 195.354 129.45C192.92 126.084 192.329 126.17 192.556 125.616C192.626 125.441 192.792 125.324 192.98 125.313C195.483 125.181 198.122 124.7 200.687 125.042C200.839 125.063 200.972 125.154 201.047 125.288C201.122 125.423 201.129 125.583 201.066 125.723L201.065 125.724ZM203.927 119.269H203.923C203.055 119.267 202.35 118.539 202.351 117.644C202.354 116.751 203.044 116.028 203.93 116.026C204.798 116.028 205.504 116.757 205.502 117.651C205.502 118.54 204.801 119.269 203.927 119.269Z" fill="black"/>
</svg>
