<svg width="136" height="27" viewBox="0 0 136 27" fill="none" xmlns="http://www.w3.org/2000/svg">
<path d="M7.952 11.3972C7.87733 11.3226 7.73867 11.2212 7.536 11.0932C7.344 10.9652 7.104 10.8426 6.816 10.7252C6.53867 10.6079 6.23467 10.5066 5.904 10.4212C5.57333 10.3252 5.23733 10.2772 4.896 10.2772C4.29867 10.2772 3.84533 10.3892 3.536 10.6132C3.23733 10.8372 3.088 11.1519 3.088 11.5573C3.088 11.8666 3.184 12.1119 3.376 12.2932C3.568 12.4746 3.856 12.6292 4.24 12.7572C4.624 12.8852 5.104 13.0239 5.68 13.1732C6.42667 13.3546 7.072 13.5786 7.616 13.8452C8.17067 14.1012 8.592 14.4426 8.88 14.8692C9.17867 15.2852 9.328 15.8399 9.328 16.5332C9.328 17.1412 9.216 17.6639 8.992 18.1012C8.768 18.5279 8.45867 18.8746 8.064 19.1412C7.66933 19.4079 7.22133 19.6052 6.72 19.7332C6.21867 19.8506 5.68533 19.9093 5.12 19.9093C4.55467 19.9093 3.98933 19.8506 3.424 19.7332C2.85867 19.6159 2.31467 19.4506 1.792 19.2372C1.26933 19.0132 0.789333 18.7466 0.352 18.4372L1.328 16.5332C1.424 16.6292 1.59467 16.7572 1.84 16.9172C2.08533 17.0666 2.384 17.2212 2.736 17.3812C3.088 17.5306 3.472 17.6586 3.888 17.7652C4.304 17.8719 4.72533 17.9252 5.152 17.9252C5.74933 17.9252 6.20267 17.8239 6.512 17.6212C6.82133 17.4186 6.976 17.1306 6.976 16.7572C6.976 16.4159 6.85333 16.1492 6.608 15.9572C6.36267 15.7652 6.02133 15.5999 5.584 15.4612C5.14667 15.3119 4.62933 15.1519 4.032 14.9812C3.31733 14.7786 2.72 14.5546 2.24 14.3092C1.76 14.0532 1.40267 13.7332 1.168 13.3492C0.933333 12.9652 0.816 12.4852 0.816 11.9092C0.816 11.1306 0.997333 10.4799 1.36 9.95725C1.73333 9.42392 2.23467 9.02392 2.864 8.75725C3.49333 8.47992 4.192 8.34125 4.96 8.34125C5.49333 8.34125 5.99467 8.39992 6.464 8.51725C6.944 8.63458 7.392 8.78925 7.808 8.98125C8.224 9.17325 8.59733 9.38125 8.928 9.60525L7.952 11.3972ZM15.257 19.3492C15.0757 19.4239 14.857 19.5092 14.601 19.6052C14.345 19.7012 14.0677 19.7759 13.769 19.8293C13.481 19.8933 13.1877 19.9253 12.889 19.9253C12.4943 19.9253 12.1317 19.8559 11.801 19.7172C11.4703 19.5786 11.2037 19.3599 11.001 19.0612C10.809 18.7519 10.713 18.3519 10.713 17.8612V13.0452H9.609V11.3972H10.713V8.67725H12.857V11.3972H14.617V13.0452H12.857V17.1412C12.8677 17.4292 12.9477 17.6372 13.097 17.7652C13.2463 17.8932 13.433 17.9572 13.657 17.9572C13.881 17.9572 14.0997 17.9199 14.313 17.8452C14.5263 17.7706 14.697 17.7066 14.825 17.6532L15.257 19.3492ZM15.4296 17.3012C15.4296 16.7572 15.579 16.2826 15.8776 15.8772C16.187 15.4612 16.6136 15.1412 17.1576 14.9172C17.7016 14.6932 18.3256 14.5812 19.0296 14.5812C19.3816 14.5812 19.739 14.6079 20.1016 14.6612C20.4643 14.7146 20.779 14.7999 21.0456 14.9172V14.4692C21.0456 13.9359 20.8856 13.5252 20.5656 13.2372C20.2563 12.9492 19.7923 12.8052 19.1736 12.8052C18.715 12.8052 18.2776 12.8852 17.8616 13.0452C17.4456 13.2052 17.0083 13.4399 16.5496 13.7492L15.8616 12.3412C16.4163 11.9786 16.9816 11.7066 17.5576 11.5252C18.1443 11.3439 18.7576 11.2532 19.3976 11.2532C20.5923 11.2532 21.5203 11.5519 22.1816 12.1492C22.8536 12.7466 23.1896 13.5999 23.1896 14.7092V17.3812C23.1896 17.6052 23.227 17.7652 23.3016 17.8612C23.387 17.9572 23.5203 18.0159 23.7016 18.0372V19.7812C23.5096 19.8133 23.3336 19.8399 23.1736 19.8613C23.0243 19.8826 22.8963 19.8933 22.7896 19.8933C22.363 19.8933 22.0376 19.7972 21.8136 19.6052C21.6003 19.4132 21.467 19.1786 21.4136 18.9012L21.3656 18.4692C21.003 18.9386 20.5496 19.3012 20.0056 19.5572C19.4616 19.8133 18.907 19.9413 18.3416 19.9413C17.787 19.9413 17.2856 19.8293 16.8376 19.6052C16.4003 19.3706 16.0536 19.0559 15.7976 18.6612C15.5523 18.2559 15.4296 17.8026 15.4296 17.3012ZM20.6456 17.7332C20.763 17.6052 20.859 17.4772 20.9336 17.3492C21.0083 17.2212 21.0456 17.1039 21.0456 16.9972V16.1492C20.7896 16.0426 20.5123 15.9626 20.2136 15.9092C19.915 15.8452 19.6323 15.8132 19.3656 15.8132C18.811 15.8132 18.3523 15.9359 17.9896 16.1812C17.6376 16.4159 17.4616 16.7306 17.4616 17.1252C17.4616 17.3386 17.5203 17.5412 17.6376 17.7332C17.755 17.9252 17.9256 18.0799 18.1496 18.1972C18.3736 18.3146 18.6403 18.3732 18.9496 18.3732C19.2696 18.3732 19.5843 18.3146 19.8936 18.1972C20.203 18.0692 20.4536 17.9146 20.6456 17.7332ZM29.8171 13.2532C29.1665 13.2532 28.5851 13.3812 28.0731 13.6372C27.5611 13.8826 27.1931 14.2399 26.9691 14.7092V19.7812H24.8251V11.3972H26.7931V13.1892C27.0918 12.6132 27.4705 12.1599 27.9291 11.8292C28.3878 11.4986 28.8731 11.3172 29.3851 11.2852C29.5025 11.2852 29.5931 11.2852 29.6571 11.2852C29.7211 11.2852 29.7745 11.2906 29.8171 11.3012V13.2532ZM35.6686 19.3492C35.4873 19.4239 35.2686 19.5092 35.0126 19.6052C34.7566 19.7012 34.4793 19.7759 34.1806 19.8293C33.8926 19.8933 33.5993 19.9253 33.3006 19.9253C32.906 19.9253 32.5433 19.8559 32.2126 19.7172C31.882 19.5786 31.6153 19.3599 31.4126 19.0612C31.2206 18.7519 31.1246 18.3519 31.1246 17.8612V13.0452H30.0206V11.3972H31.1246V8.67725H33.2686V11.3972H35.0286V13.0452H33.2686V17.1412C33.2793 17.4292 33.3593 17.6372 33.5086 17.7652C33.658 17.8932 33.8446 17.9572 34.0686 17.9572C34.2926 17.9572 34.5113 17.9199 34.7246 17.8452C34.938 17.7706 35.1086 17.7066 35.2366 17.6532L35.6686 19.3492ZM40.101 19.7812V8.42125H42.309V17.8452H48.101V19.7812H40.101ZM52.6943 19.9413C52.0223 19.9413 51.4142 19.8293 50.8702 19.6052C50.3262 19.3706 49.8622 19.0559 49.4782 18.6612C49.0942 18.2559 48.7956 17.7972 48.5822 17.2852C48.3796 16.7626 48.2782 16.2132 48.2782 15.6372C48.2782 14.8372 48.4542 14.1066 48.8062 13.4452C49.1689 12.7839 49.6809 12.2559 50.3422 11.8612C51.0142 11.4559 51.8036 11.2532 52.7102 11.2532C53.6276 11.2532 54.4116 11.4559 55.0623 11.8612C55.7129 12.2559 56.2089 12.7839 56.5503 13.4452C56.9022 14.0959 57.0782 14.7999 57.0782 15.5573C57.0782 15.6852 57.0729 15.8186 57.0623 15.9572C57.0516 16.0852 57.0409 16.1919 57.0303 16.2772H50.5502C50.5929 16.7039 50.7156 17.0772 50.9182 17.3972C51.1316 17.7172 51.3983 17.9626 51.7183 18.1332C52.0489 18.2932 52.4009 18.3732 52.7743 18.3732C53.2009 18.3732 53.6009 18.2719 53.9742 18.0692C54.3582 17.8559 54.6196 17.5786 54.7583 17.2372L56.5983 17.7492C56.3956 18.1759 56.1023 18.5546 55.7183 18.8852C55.3449 19.2159 54.9023 19.4772 54.3903 19.6692C53.8783 19.8506 53.3129 19.9413 52.6943 19.9413ZM50.5022 14.9172H54.8863C54.8436 14.4906 54.7209 14.1226 54.5182 13.8132C54.3262 13.4932 54.0702 13.2479 53.7502 13.0772C53.4302 12.8959 53.0729 12.8052 52.6782 12.8052C52.2943 12.8052 51.9423 12.8959 51.6223 13.0772C51.3129 13.2479 51.0569 13.4932 50.8542 13.8132C50.6622 14.1226 50.5449 14.4906 50.5022 14.9172ZM57.4404 17.3012C57.4404 16.7572 57.5897 16.2826 57.8884 15.8772C58.1977 15.4612 58.6244 15.1412 59.1684 14.9172C59.7124 14.6932 60.3364 14.5812 61.0404 14.5812C61.3924 14.5812 61.7497 14.6079 62.1124 14.6612C62.475 14.7146 62.7897 14.7999 63.0564 14.9172V14.4692C63.0564 13.9359 62.8964 13.5252 62.5764 13.2372C62.267 12.9492 61.803 12.8052 61.1844 12.8052C60.7257 12.8052 60.2884 12.8852 59.8724 13.0452C59.4564 13.2052 59.019 13.4399 58.5604 13.7492L57.8724 12.3412C58.427 11.9786 58.9924 11.7066 59.5684 11.5252C60.155 11.3439 60.7684 11.2532 61.4084 11.2532C62.603 11.2532 63.531 11.5519 64.1924 12.1492C64.8644 12.7466 65.2004 13.5999 65.2004 14.7092V17.3812C65.2004 17.6052 65.2377 17.7652 65.3124 17.8612C65.3977 17.9572 65.531 18.0159 65.7124 18.0372V19.7812C65.5204 19.8133 65.3444 19.8399 65.1844 19.8613C65.035 19.8826 64.907 19.8933 64.8004 19.8933C64.3737 19.8933 64.0484 19.7972 63.8244 19.6052C63.611 19.4132 63.4777 19.1786 63.4244 18.9012L63.3764 18.4692C63.0137 18.9386 62.5604 19.3012 62.0164 19.5572C61.4724 19.8133 60.9177 19.9413 60.3524 19.9413C59.7977 19.9413 59.2964 19.8293 58.8484 19.6052C58.411 19.3706 58.0644 19.0559 57.8084 18.6612C57.563 18.2559 57.4404 17.8026 57.4404 17.3012ZM62.6564 17.7332C62.7737 17.6052 62.8697 17.4772 62.9444 17.3492C63.019 17.2212 63.0564 17.1039 63.0564 16.9972V16.1492C62.8004 16.0426 62.523 15.9626 62.2244 15.9092C61.9257 15.8452 61.643 15.8132 61.3764 15.8132C60.8217 15.8132 60.363 15.9359 60.0004 16.1812C59.6484 16.4159 59.4724 16.7306 59.4724 17.1252C59.4724 17.3386 59.531 17.5412 59.6484 17.7332C59.7657 17.9252 59.9364 18.0799 60.1604 18.1972C60.3844 18.3146 60.651 18.3732 60.9604 18.3732C61.2804 18.3732 61.595 18.3146 61.9044 18.1972C62.2137 18.0692 62.4644 17.9146 62.6564 17.7332ZM71.8279 13.2532C71.1772 13.2532 70.5959 13.3812 70.0839 13.6372C69.5719 13.8826 69.2039 14.2399 68.9799 14.7092V19.7812H66.8359V11.3972H68.8039V13.1892C69.1025 12.6132 69.4812 12.1599 69.9399 11.8292C70.3985 11.4986 70.8839 11.3172 71.3959 11.2852C71.5132 11.2852 71.6039 11.2852 71.6679 11.2852C71.7319 11.2852 71.7852 11.2906 71.8279 11.3012V13.2532ZM80.4474 19.7812H78.3034V15.0773C78.3034 14.4052 78.186 13.9146 77.9514 13.6052C77.7167 13.2959 77.3914 13.1412 76.9754 13.1412C76.6874 13.1412 76.394 13.2159 76.0954 13.3652C75.8074 13.5146 75.546 13.7226 75.3114 13.9892C75.0767 14.2452 74.906 14.5439 74.7994 14.8852V19.7812H72.6554V11.3972H74.5914V12.9492C74.8047 12.5866 75.0767 12.2826 75.4074 12.0372C75.738 11.7812 76.1167 11.5892 76.5434 11.4612C76.9807 11.3226 77.4394 11.2532 77.9194 11.2532C78.442 11.2532 78.8687 11.3492 79.1994 11.5412C79.5407 11.7226 79.7967 11.9732 79.9674 12.2932C80.1487 12.6026 80.2714 12.9546 80.3354 13.3492C80.41 13.7439 80.4474 14.1439 80.4474 14.5492V19.7812ZM81.9436 19.7812V11.3972H84.0876V19.7812H81.9436ZM81.9436 10.2292V8.10125H84.0876V10.2292H81.9436ZM93.4458 19.7812H91.3018V15.0773C91.3018 14.4052 91.1844 13.9146 90.9497 13.6052C90.7151 13.2959 90.3897 13.1412 89.9738 13.1412C89.6858 13.1412 89.3924 13.2159 89.0938 13.3652C88.8057 13.5146 88.5444 13.7226 88.3097 13.9892C88.0751 14.2452 87.9044 14.5439 87.7977 14.8852V19.7812H85.6537V11.3972H87.5897V12.9492C87.8031 12.5866 88.0751 12.2826 88.4057 12.0372C88.7364 11.7812 89.1151 11.5892 89.5417 11.4612C89.9791 11.3226 90.4378 11.2532 90.9177 11.2532C91.4404 11.2532 91.8671 11.3492 92.1978 11.5412C92.5391 11.7226 92.7951 11.9732 92.9657 12.2932C93.1471 12.6026 93.2697 12.9546 93.3337 13.3492C93.4084 13.7439 93.4458 14.1439 93.4458 14.5492V19.7812ZM98.222 19.8293C97.6673 19.8293 97.1553 19.7226 96.686 19.5092C96.2273 19.2852 95.8273 18.9759 95.486 18.5812C95.1553 18.1866 94.8993 17.7332 94.718 17.2212C94.5367 16.7092 94.446 16.1652 94.446 15.5892C94.446 14.9812 94.542 14.4159 94.734 13.8932C94.926 13.3706 95.1927 12.9119 95.534 12.5172C95.886 12.1119 96.2967 11.8026 96.766 11.5892C97.246 11.3652 97.774 11.2532 98.35 11.2532C99.0007 11.2532 99.5713 11.4026 100.062 11.7013C100.553 11.9892 100.958 12.3786 101.278 12.8692V11.3972H103.15V19.3812C103.15 20.2133 102.947 20.9226 102.542 21.5093C102.147 22.1066 101.598 22.5599 100.894 22.8693C100.19 23.1893 99.39 23.3493 98.494 23.3493C97.5873 23.3493 96.8193 23.1946 96.19 22.8853C95.5607 22.5866 95.022 22.1599 94.574 21.6053L95.742 20.4693C96.062 20.8639 96.462 21.1733 96.942 21.3973C97.4327 21.6213 97.95 21.7333 98.494 21.7333C98.9527 21.7333 99.3687 21.6479 99.742 21.4773C100.126 21.3173 100.43 21.0613 100.654 20.7093C100.889 20.3679 101.006 19.9253 101.006 19.3812V18.3252C100.729 18.8052 100.334 19.1786 99.822 19.4452C99.3207 19.7012 98.7873 19.8293 98.222 19.8293ZM98.942 18.1172C99.1767 18.1172 99.4007 18.0799 99.614 18.0052C99.8273 17.9306 100.025 17.8292 100.206 17.7012C100.387 17.5732 100.547 17.4239 100.686 17.2532C100.825 17.0719 100.931 16.8906 101.006 16.7092V14.7092C100.878 14.3786 100.697 14.0906 100.462 13.8452C100.238 13.5999 99.982 13.4132 99.694 13.2852C99.4167 13.1466 99.1233 13.0772 98.814 13.0772C98.4833 13.0772 98.1847 13.1466 97.918 13.2852C97.6513 13.4239 97.422 13.6212 97.23 13.8772C97.038 14.1226 96.8887 14.3999 96.782 14.7092C96.686 15.0079 96.638 15.3226 96.638 15.6532C96.638 15.9946 96.6967 16.3146 96.814 16.6132C96.9313 16.9119 97.0913 17.1732 97.294 17.3972C97.5073 17.6212 97.7527 17.7972 98.03 17.9252C98.318 18.0532 98.622 18.1172 98.942 18.1172Z" fill="#262626"/>
<path d="M127.276 9.05903L117.555 18.7801L117.555 18.7801C117.186 19.149 117.186 19.7469 117.555 20.1157C117.923 20.4845 118.521 20.4845 118.89 20.1157L128.611 10.3947V16.6146C128.611 17.1362 129.034 17.559 129.556 17.559C130.077 17.559 130.5 17.1362 130.5 16.6146V8.11458C130.5 7.59298 130.077 7.17014 129.556 7.17014H121.056C120.534 7.17014 120.111 7.59298 120.111 8.11458C120.111 8.63618 120.534 9.05903 121.056 9.05903H127.276Z" fill="#018076" stroke="#018076" stroke-width="0.472222"/>
</svg>
