<svg width="361" height="151" viewBox="0 0 361 151" fill="none" xmlns="http://www.w3.org/2000/svg">
<path d="M5.004 33.3053C5.004 33.7613 4.848 34.1453 4.536 34.4573C4.224 34.7693 3.84 34.9253 3.384 34.9253C2.928 34.9253 2.544 34.7693 2.232 34.4573C1.92 34.1453 1.764 33.7613 1.764 33.3053V9.47329C1.764 9.13729 1.86 8.82529 2.052 8.53729C2.268 8.24929 2.544 8.04529 2.88 7.92529C3.216 7.80529 3.552 7.80529 3.888 7.92529C4.224 8.02129 4.488 8.21329 4.68 8.50129L19.728 28.4453V9.47329C19.728 9.01729 19.884 8.63329 20.196 8.32129C20.508 8.00929 20.892 7.85329 21.348 7.85329C21.804 7.85329 22.188 8.00929 22.5 8.32129C22.812 8.63329 22.968 9.01729 22.968 9.47329V33.3053C22.968 33.6413 22.86 33.9533 22.644 34.2413C22.452 34.5293 22.188 34.7333 21.852 34.8533C21.516 34.9733 21.18 34.9853 20.844 34.8893C20.532 34.7693 20.268 34.5653 20.052 34.2773L5.004 14.3333V33.3053ZM34.2892 15.9893C35.6092 15.9893 36.8452 16.2413 37.9972 16.7453C39.1492 17.2253 40.1452 17.8973 40.9852 18.7613C41.8492 19.6013 42.5212 20.5973 43.0012 21.7493C43.5052 22.9013 43.7572 24.1373 43.7572 25.4573C43.7572 25.9133 43.6012 26.2973 43.2892 26.6093C42.9772 26.9213 42.5932 27.0773 42.1372 27.0773H28.2772C28.4692 27.7493 28.7572 28.3733 29.1412 28.9493C29.5252 29.5013 29.9812 29.9813 30.5092 30.3893C31.0372 30.7973 31.6252 31.1213 32.2732 31.3613C32.9212 31.5773 33.5932 31.6853 34.2892 31.6853C35.2012 31.6853 36.0652 31.5053 36.8812 31.1453C37.6972 30.7613 38.4052 30.2213 39.0052 29.5253C39.3412 29.1413 39.7492 28.9493 40.2292 28.9493C40.6372 28.9493 40.9972 29.0933 41.3092 29.3813C41.6452 29.6693 41.8252 30.0413 41.8492 30.4973C41.8732 30.9293 41.7412 31.3133 41.4532 31.6493C40.5412 32.7053 39.4612 33.5213 38.2132 34.0973C36.9892 34.6493 35.6812 34.9253 34.2892 34.9253C32.9932 34.9253 31.7692 34.6853 30.6172 34.2053C29.4652 33.7013 28.4572 33.0173 27.5932 32.1533C26.7292 31.2893 26.0452 30.2813 25.5412 29.1293C25.0612 27.9773 24.8212 26.7533 24.8212 25.4573C24.8212 24.1373 25.0612 22.9013 25.5412 21.7493C26.0452 20.5973 26.7292 19.6013 27.5932 18.7613C28.4572 17.8973 29.4652 17.2253 30.6172 16.7453C31.7692 16.2413 32.9932 15.9893 34.2892 15.9893ZM40.3012 23.8373C40.1332 23.1413 39.8452 22.5173 39.4372 21.9653C39.0532 21.3893 38.5972 20.9093 38.0692 20.5253C37.5412 20.1173 36.9532 19.8053 36.3052 19.5893C35.6572 19.3493 34.9852 19.2293 34.2892 19.2293C32.8732 19.2293 31.6132 19.6613 30.5092 20.5253C29.4052 21.3653 28.6612 22.4693 28.2772 23.8373H40.3012ZM68.5046 27.2933C68.5046 27.4373 68.4926 27.7373 68.4686 28.1933C68.4686 28.6253 68.4086 29.1293 68.2886 29.7053C68.1926 30.2573 68.0126 30.8453 67.7486 31.4693C67.4846 32.0693 67.1006 32.6333 66.5966 33.1613C66.0926 33.6653 65.4446 34.0853 64.6526 34.4213C63.8846 34.7573 62.9366 34.9253 61.8086 34.9253C60.9206 34.9733 60.0686 34.8533 59.2526 34.5653C58.4366 34.2533 57.7166 33.7853 57.0926 33.1613C56.9486 33.0173 56.8526 32.9093 56.8046 32.8373C56.3006 33.4373 55.6406 33.9413 54.8246 34.3493C54.0086 34.7333 52.9646 34.9253 51.6926 34.9253C50.8286 34.9733 49.9886 34.8533 49.1726 34.5653C48.3566 34.2533 47.6366 33.7853 47.0126 33.1613C46.5086 32.6573 46.1246 32.1053 45.8606 31.5053C45.5966 30.8813 45.4046 30.2933 45.2846 29.7413C45.1646 29.1653 45.0926 28.6613 45.0686 28.2293C45.0686 27.7733 45.0686 27.4613 45.0686 27.2933V17.6093C45.0686 17.1533 45.2246 16.7693 45.5366 16.4573C45.8726 16.1213 46.2566 15.9533 46.6886 15.9533C47.1446 15.9533 47.5286 16.1213 47.8406 16.4573C48.1766 16.7693 48.3446 17.1533 48.3446 17.6093V27.3293C48.3446 27.3533 48.3326 27.4973 48.3086 27.7613C48.3086 28.0013 48.3206 28.3013 48.3446 28.6613C48.3926 29.0213 48.4766 29.4053 48.5966 29.8133C48.7406 30.1973 48.9686 30.5453 49.2806 30.8573C49.6166 31.1453 49.9886 31.3733 50.3966 31.5413C50.8286 31.6853 51.2726 31.7333 51.7286 31.6853C52.4246 31.6853 52.9886 31.5653 53.4206 31.3253C53.8766 31.0853 54.2246 30.7853 54.4646 30.4253C54.7286 30.0653 54.9086 29.6933 55.0046 29.3093C55.1006 28.9013 55.1606 28.5533 55.1846 28.2653V22.7573C55.1846 21.2213 55.1846 19.5053 55.1846 17.6093C55.1846 17.1533 55.3406 16.7693 55.6526 16.4573C55.9646 16.1213 56.3486 15.9533 56.8046 15.9533C57.2606 15.9533 57.6446 16.1213 57.9566 16.4573C58.2686 16.7693 58.4246 17.1533 58.4246 17.6093C58.4246 19.5293 58.4246 21.2573 58.4246 22.7933C58.4246 23.4413 58.4246 24.0893 58.4246 24.7373C58.4486 25.3853 58.4606 25.9733 58.4606 26.5013C58.4606 27.0053 58.4486 27.4253 58.4246 27.7613C58.4246 28.0973 58.4246 28.3013 58.4246 28.3733C58.4246 29.3093 58.7486 30.1373 59.3966 30.8573C60.0926 31.4813 60.8966 31.7573 61.8086 31.6853C62.7446 31.6853 63.4526 31.4933 63.9326 31.1093C64.4126 30.7013 64.7486 30.2453 64.9406 29.7413C65.1326 29.2373 65.2286 28.7693 65.2286 28.3373C65.2526 27.8813 65.2646 27.6053 65.2646 27.5093C65.2646 27.5093 65.2646 27.3653 65.2646 27.0773C65.2646 26.7893 65.2526 26.4173 65.2286 25.9613C65.2286 25.4813 65.2286 24.9533 65.2286 24.3773C65.2286 23.7773 65.2286 23.1653 65.2286 22.5413C65.2286 21.1013 65.2286 19.4573 65.2286 17.6093C65.2286 17.1533 65.3846 16.7693 65.6966 16.4573C66.0326 16.1213 66.4286 15.9533 66.8846 15.9533C67.3406 15.9533 67.7246 16.1213 68.0366 16.4573C68.3486 16.7693 68.5046 17.1533 68.5046 17.6093V27.2933ZM112.517 8.93329C112.685 8.52529 112.961 8.22529 113.345 8.03329C113.753 7.84129 114.173 7.81729 114.605 7.96129C115.013 8.10529 115.313 8.38129 115.505 8.78929C115.697 9.19729 115.733 9.60529 115.613 10.0133L107.261 33.8453C107.141 34.1813 106.937 34.4453 106.649 34.6373C106.361 34.8293 106.049 34.9253 105.713 34.9253C105.377 34.9253 105.065 34.8293 104.777 34.6373C104.513 34.4453 104.321 34.1813 104.201 33.8453L97.5774 14.9453L90.9534 33.8453C90.8334 34.1813 90.6294 34.4453 90.3414 34.6373C90.0534 34.8293 89.7414 34.9253 89.4054 34.9253C89.0694 34.9253 88.7574 34.8293 88.4694 34.6373C88.2054 34.4453 88.0134 34.1813 87.8934 33.8453L79.5414 10.0133C79.3014 9.43729 79.3974 8.89729 79.8294 8.39329C80.2374 7.91329 80.7534 7.73329 81.3774 7.85329C82.0014 7.97329 82.4094 8.33329 82.6014 8.93329L89.4054 28.4093L96.0654 9.47329C96.1854 9.13729 96.3774 8.87329 96.6414 8.68129C96.9294 8.48929 97.2414 8.39329 97.5774 8.39329C97.9134 8.39329 98.2254 8.48929 98.5134 8.68129C98.8014 8.87329 99.0054 9.13729 99.1254 9.47329L105.713 28.3733L112.517 8.93329ZM129.36 32.5853C128.496 33.3533 127.524 33.9413 126.444 34.3493C125.388 34.7333 124.284 34.9253 123.132 34.9253C121.836 34.9253 120.612 34.6853 119.46 34.2053C118.308 33.7013 117.3 33.0173 116.436 32.1533C115.572 31.2893 114.888 30.2813 114.384 29.1293C113.904 27.9773 113.664 26.7533 113.664 25.4573C113.664 24.1373 113.904 22.9013 114.384 21.7493C114.888 20.5973 115.572 19.6013 116.436 18.7613C117.3 17.8973 118.308 17.2133 119.46 16.7093C120.612 16.2053 121.836 15.9533 123.132 15.9533C124.452 15.9533 125.688 16.2053 126.84 16.7093C127.992 17.2133 128.988 17.8973 129.828 18.7613C130.692 19.6013 131.364 20.5973 131.844 21.7493C132.348 22.9013 132.6 24.1373 132.6 25.4573V33.3053C132.6 33.7613 132.444 34.1453 132.132 34.4573C131.82 34.7693 131.436 34.9253 130.98 34.9253C130.524 34.9253 130.14 34.7693 129.828 34.4573C129.516 34.1453 129.36 33.7613 129.36 33.3053V32.5853ZM123.132 19.2293C122.268 19.2293 121.452 19.3973 120.684 19.7333C119.94 20.0453 119.28 20.4893 118.704 21.0653C118.152 21.6173 117.708 22.2773 117.372 23.0453C117.06 23.7893 116.904 24.5933 116.904 25.4573C116.904 26.3213 117.06 27.1373 117.372 27.9053C117.708 28.6493 118.152 29.3093 118.704 29.8853C119.28 30.4373 119.94 30.8813 120.684 31.2173C121.452 31.5293 122.268 31.6853 123.132 31.6853C123.996 31.6853 124.8 31.5293 125.544 31.2173C126.312 30.8813 126.972 30.4373 127.524 29.8853C128.1 29.3093 128.544 28.6493 128.856 27.9053C129.192 27.1373 129.36 26.3213 129.36 25.4573C129.36 24.5933 129.192 23.7893 128.856 23.0453C128.544 22.2773 128.1 21.6173 127.524 21.0653C126.972 20.4893 126.312 20.0453 125.544 19.7333C124.8 19.3973 123.996 19.2293 123.132 19.2293ZM149.954 32.5853C149.09 33.3533 148.118 33.9413 147.038 34.3493C145.982 34.7333 144.878 34.9253 143.726 34.9253C142.43 34.9253 141.206 34.6853 140.054 34.2053C138.902 33.7013 137.894 33.0173 137.03 32.1533C136.166 31.2893 135.482 30.2813 134.978 29.1293C134.498 27.9773 134.258 26.7533 134.258 25.4573V17.6093C134.258 17.1533 134.414 16.7693 134.726 16.4573C135.038 16.1213 135.422 15.9533 135.878 15.9533C136.334 15.9533 136.718 16.1213 137.03 16.4573C137.342 16.7693 137.498 17.1533 137.498 17.6093V25.4573C137.498 26.3213 137.654 27.1373 137.966 27.9053C138.302 28.6493 138.746 29.3093 139.298 29.8853C139.874 30.4373 140.534 30.8813 141.278 31.2173C142.046 31.5293 142.862 31.6853 143.726 31.6853C144.59 31.6853 145.394 31.5293 146.138 31.2173C146.906 30.8813 147.566 30.4373 148.118 29.8853C148.694 29.3093 149.138 28.6493 149.45 27.9053C149.786 27.1373 149.954 26.3213 149.954 25.4573V17.6093C149.954 17.1533 150.11 16.7693 150.422 16.4573C150.734 16.1213 151.118 15.9533 151.574 15.9533C152.03 15.9533 152.414 16.1213 152.726 16.4573C153.038 16.7693 153.194 17.1533 153.194 17.6093V34.0973C153.194 35.4173 152.942 36.6533 152.438 37.8053C151.958 38.9573 151.286 39.9653 150.422 40.8293C149.582 41.6933 148.586 42.3653 147.434 42.8453C146.282 43.3493 145.046 43.6013 143.726 43.6013C141.926 43.6013 140.27 43.1333 138.758 42.1973C137.246 41.2613 136.082 39.9893 135.266 38.3813C135.074 37.9733 135.038 37.5533 135.158 37.1213C135.302 36.6893 135.578 36.3773 135.986 36.1853C136.226 36.0653 136.466 36.0053 136.706 36.0053C136.994 36.0053 137.27 36.0773 137.534 36.2213C137.798 36.3893 138.014 36.6173 138.182 36.9053C138.71 37.9613 139.466 38.7893 140.45 39.3893C141.458 40.0133 142.55 40.3253 143.726 40.3253C144.59 40.3253 145.394 40.1573 146.138 39.8213C146.906 39.5093 147.566 39.0653 148.118 38.4893C148.694 37.9373 149.138 37.2773 149.45 36.5093C149.786 35.7653 149.954 34.9613 149.954 34.0973V32.5853ZM168.224 16.1333C168.656 16.1333 169.028 16.3013 169.34 16.6373C169.676 16.9493 169.844 17.3333 169.844 17.7893C169.844 18.2453 169.676 18.6293 169.34 18.9413C169.028 19.2533 168.656 19.4093 168.224 19.4093H160.232C159.656 19.4093 159.164 19.6133 158.756 20.0213C158.348 20.4053 158.144 20.8853 158.144 21.4613C158.144 21.9653 158.312 22.4093 158.648 22.7933C158.984 23.1533 159.392 23.3573 159.872 23.4053L166.46 24.2333C167.108 24.3293 167.708 24.5333 168.26 24.8453C168.836 25.1333 169.328 25.5173 169.736 25.9973C170.144 26.4533 170.456 26.9813 170.672 27.5813C170.912 28.1573 171.032 28.7693 171.032 29.4173C171.032 30.1613 170.888 30.8573 170.6 31.5053C170.336 32.1533 169.964 32.7173 169.484 33.1973C169.004 33.6773 168.44 34.0613 167.792 34.3493C167.144 34.6133 166.448 34.7453 165.704 34.7453H157.136C156.68 34.7453 156.296 34.5893 155.984 34.2773C155.672 33.9653 155.516 33.5813 155.516 33.1253C155.516 32.6693 155.672 32.2853 155.984 31.9733C156.296 31.6613 156.68 31.5053 157.136 31.5053H165.704C166.28 31.5053 166.772 31.3013 167.18 30.8933C167.588 30.4853 167.792 29.9933 167.792 29.4173C167.792 28.9373 167.624 28.5053 167.288 28.1213C166.952 27.7373 166.544 27.5213 166.064 27.4733L159.476 26.6453C158.828 26.5733 158.216 26.3813 157.64 26.0693C157.088 25.7573 156.608 25.3733 156.2 24.9173C155.792 24.4613 155.468 23.9333 155.228 23.3333C155.012 22.7333 154.904 22.1093 154.904 21.4613C154.904 20.7413 155.036 20.0573 155.3 19.4093C155.588 18.7613 155.972 18.1973 156.452 17.7173C156.932 17.2373 157.496 16.8653 158.144 16.6013C158.792 16.3133 159.488 16.1693 160.232 16.1693H168.224V16.1333ZM182.957 11.2373C182.501 11.2373 182.117 11.0813 181.805 10.7693C181.493 10.4573 181.337 10.0733 181.337 9.61729C181.337 9.16129 181.493 8.77729 181.805 8.46529C182.117 8.15329 182.501 7.99729 182.957 7.99729H202.649C203.105 7.99729 203.489 8.15329 203.801 8.46529C204.113 8.77729 204.269 9.16129 204.269 9.61729C204.269 10.0733 204.113 10.4573 203.801 10.7693C203.489 11.0813 203.105 11.2373 202.649 11.2373H194.441V33.3053C194.441 33.7613 194.285 34.1453 193.973 34.4573C193.661 34.7693 193.277 34.9253 192.821 34.9253C192.365 34.9253 191.981 34.7693 191.669 34.4573C191.357 34.1453 191.201 33.7613 191.201 33.3053L191.165 11.2373H182.957ZM209.11 34.9253C207.814 34.9253 206.59 34.6853 205.438 34.2053C204.286 33.7013 203.278 33.0173 202.414 32.1533C201.55 31.2893 200.866 30.2813 200.362 29.1293C199.882 27.9773 199.642 26.7533 199.642 25.4573C199.642 24.1373 199.882 22.9013 200.362 21.7493C200.866 20.5973 201.55 19.6013 202.414 18.7613C203.278 17.8973 204.286 17.2133 205.438 16.7093C206.59 16.2053 207.814 15.9533 209.11 15.9533C210.43 15.9533 211.666 16.2053 212.818 16.7093C213.97 17.2133 214.966 17.8973 215.806 18.7613C216.67 19.6013 217.354 20.5973 217.858 21.7493C218.362 22.9013 218.614 24.1373 218.614 25.4573C218.614 26.7533 218.362 27.9773 217.858 29.1293C217.354 30.2813 216.67 31.2893 215.806 32.1533C214.966 33.0173 213.97 33.7013 212.818 34.2053C211.666 34.6853 210.43 34.9253 209.11 34.9253ZM209.11 31.6853C209.974 31.6853 210.778 31.5293 211.522 31.2173C212.29 30.8813 212.95 30.4373 213.502 29.8853C214.078 29.3093 214.522 28.6493 214.834 27.9053C215.17 27.1373 215.338 26.3213 215.338 25.4573C215.338 24.5933 215.17 23.7893 214.834 23.0453C214.522 22.2773 214.078 21.6173 213.502 21.0653C212.95 20.4893 212.29 20.0453 211.522 19.7333C210.778 19.3973 209.974 19.2293 209.11 19.2293C208.246 19.2293 207.43 19.3973 206.662 19.7333C205.918 20.0453 205.258 20.4893 204.682 21.0653C204.13 21.6173 203.686 22.2773 203.35 23.0453C203.038 23.7893 202.882 24.5933 202.882 25.4573C202.882 26.3213 203.038 27.1373 203.35 27.9053C203.686 28.6493 204.13 29.3093 204.682 29.8853C205.258 30.4373 205.918 30.8813 206.662 31.2173C207.43 31.5293 208.246 31.6853 209.11 31.6853Z" fill="#262626"/>
<path d="M231.839 34.7453C231.383 34.7453 230.999 34.5893 230.687 34.2773C230.375 33.9653 230.219 33.5813 230.219 33.1253L230.183 9.47329C230.183 9.01729 230.339 8.63329 230.651 8.32129C230.963 8.00929 231.347 7.85329 231.803 7.85329C232.259 7.85329 232.643 8.00929 232.955 8.32129C233.267 8.63329 233.423 9.01729 233.423 9.47329L233.459 31.5053H246.383C246.839 31.5053 247.223 31.6613 247.535 31.9733C247.871 32.2853 248.039 32.6693 248.039 33.1253C248.039 33.5813 247.871 33.9653 247.535 34.2773C247.223 34.5893 246.839 34.7453 246.383 34.7453H231.839ZM257.399 15.9893C258.719 15.9893 259.955 16.2413 261.107 16.7453C262.259 17.2253 263.255 17.8973 264.095 18.7613C264.959 19.6013 265.631 20.5973 266.111 21.7493C266.615 22.9013 266.867 24.1373 266.867 25.4573C266.867 25.9133 266.711 26.2973 266.399 26.6093C266.087 26.9213 265.703 27.0773 265.247 27.0773H251.387C251.579 27.7493 251.867 28.3733 252.251 28.9493C252.635 29.5013 253.091 29.9813 253.619 30.3893C254.147 30.7973 254.735 31.1213 255.383 31.3613C256.031 31.5773 256.703 31.6853 257.399 31.6853C258.311 31.6853 259.175 31.5053 259.991 31.1453C260.807 30.7613 261.515 30.2213 262.115 29.5253C262.451 29.1413 262.859 28.9493 263.339 28.9493C263.747 28.9493 264.107 29.0933 264.419 29.3813C264.755 29.6693 264.935 30.0413 264.959 30.4973C264.983 30.9293 264.851 31.3133 264.563 31.6493C263.651 32.7053 262.571 33.5213 261.323 34.0973C260.099 34.6493 258.791 34.9253 257.399 34.9253C256.103 34.9253 254.879 34.6853 253.727 34.2053C252.575 33.7013 251.567 33.0173 250.703 32.1533C249.839 31.2893 249.155 30.2813 248.651 29.1293C248.171 27.9773 247.931 26.7533 247.931 25.4573C247.931 24.1373 248.171 22.9013 248.651 21.7493C249.155 20.5973 249.839 19.6013 250.703 18.7613C251.567 17.8973 252.575 17.2253 253.727 16.7453C254.879 16.2413 256.103 15.9893 257.399 15.9893ZM263.411 23.8373C263.243 23.1413 262.955 22.5173 262.547 21.9653C262.163 21.3893 261.707 20.9093 261.179 20.5253C260.651 20.1173 260.063 19.8053 259.415 19.5893C258.767 19.3493 258.095 19.2293 257.399 19.2293C255.983 19.2293 254.723 19.6613 253.619 20.5253C252.515 21.3653 251.771 22.4693 251.387 23.8373H263.411ZM283.263 32.5853C282.399 33.3533 281.427 33.9413 280.347 34.3493C279.291 34.7333 278.187 34.9253 277.035 34.9253C275.739 34.9253 274.515 34.6853 273.363 34.2053C272.211 33.7013 271.203 33.0173 270.339 32.1533C269.475 31.2893 268.791 30.2813 268.287 29.1293C267.807 27.9773 267.567 26.7533 267.567 25.4573C267.567 24.1373 267.807 22.9013 268.287 21.7493C268.791 20.5973 269.475 19.6013 270.339 18.7613C271.203 17.8973 272.211 17.2133 273.363 16.7093C274.515 16.2053 275.739 15.9533 277.035 15.9533C278.355 15.9533 279.591 16.2053 280.743 16.7093C281.895 17.2133 282.891 17.8973 283.731 18.7613C284.595 19.6013 285.267 20.5973 285.747 21.7493C286.251 22.9013 286.503 24.1373 286.503 25.4573V33.3053C286.503 33.7613 286.347 34.1453 286.035 34.4573C285.723 34.7693 285.339 34.9253 284.883 34.9253C284.427 34.9253 284.043 34.7693 283.731 34.4573C283.419 34.1453 283.263 33.7613 283.263 33.3053V32.5853ZM277.035 19.2293C276.171 19.2293 275.355 19.3973 274.587 19.7333C273.843 20.0453 273.183 20.4893 272.607 21.0653C272.055 21.6173 271.611 22.2773 271.275 23.0453C270.963 23.7893 270.807 24.5933 270.807 25.4573C270.807 26.3213 270.963 27.1373 271.275 27.9053C271.611 28.6493 272.055 29.3093 272.607 29.8853C273.183 30.4373 273.843 30.8813 274.587 31.2173C275.355 31.5293 276.171 31.6853 277.035 31.6853C277.899 31.6853 278.703 31.5293 279.447 31.2173C280.215 30.8813 280.875 30.4373 281.427 29.8853C282.003 29.3093 282.447 28.6493 282.759 27.9053C283.095 27.1373 283.263 26.3213 283.263 25.4573C283.263 24.5933 283.095 23.7893 282.759 23.0453C282.447 22.2773 282.003 21.6173 281.427 21.0653C280.875 20.4893 280.215 20.0453 279.447 19.7333C278.703 19.3973 277.899 19.2293 277.035 19.2293ZM297.341 16.1693C297.797 16.1693 298.181 16.3253 298.493 16.6373C298.805 16.9493 298.961 17.3333 298.961 17.7893C298.961 18.2453 298.805 18.6293 298.493 18.9413C298.181 19.2533 297.797 19.4093 297.341 19.4093H294.389C293.621 19.4093 292.973 19.6733 292.445 20.2013C291.917 20.7053 291.653 21.3413 291.653 22.1093V33.3053C291.653 33.7613 291.497 34.1453 291.185 34.4573C290.873 34.7693 290.489 34.9253 290.033 34.9253C289.577 34.9253 289.193 34.7693 288.881 34.4573C288.569 34.1453 288.413 33.7613 288.413 33.3053V22.1093C288.413 21.2693 288.569 20.4893 288.881 19.7693C289.193 19.0493 289.613 18.4253 290.141 17.8973C290.693 17.3453 291.329 16.9253 292.049 16.6373C292.793 16.3253 293.573 16.1693 294.389 16.1693H297.341ZM301.721 33.3053C301.721 33.7613 301.565 34.1453 301.253 34.4573C300.941 34.7693 300.557 34.9253 300.101 34.9253C299.645 34.9253 299.261 34.7693 298.949 34.4573C298.637 34.1453 298.481 33.7613 298.481 33.3053V25.4573C298.481 24.1373 298.721 22.9013 299.201 21.7493C299.705 20.5973 300.389 19.6013 301.253 18.7613C302.117 17.8973 303.125 17.2133 304.277 16.7093C305.429 16.2053 306.653 15.9533 307.949 15.9533C309.269 15.9533 310.505 16.2053 311.657 16.7093C312.809 17.2133 313.805 17.8973 314.645 18.7613C315.509 19.6013 316.181 20.5973 316.661 21.7493C317.165 22.9013 317.417 24.1373 317.417 25.4573V33.3053C317.417 33.7613 317.261 34.1453 316.949 34.4573C316.637 34.7693 316.253 34.9253 315.797 34.9253C315.341 34.9253 314.957 34.7693 314.645 34.4573C314.333 34.1453 314.177 33.7613 314.177 33.3053V25.4573C314.177 24.5933 314.009 23.7893 313.673 23.0453C313.361 22.2773 312.917 21.6173 312.341 21.0653C311.789 20.4893 311.129 20.0453 310.361 19.7333C309.617 19.3973 308.813 19.2293 307.949 19.2293C307.085 19.2293 306.269 19.3973 305.501 19.7333C304.757 20.0453 304.097 20.4893 303.521 21.0653C302.969 21.6173 302.525 22.2773 302.189 23.0453C301.877 23.7893 301.721 24.5933 301.721 25.4573V33.3053ZM26.748 75.5853C26.94 76.0173 26.964 76.4373 26.82 76.8453C26.7 77.1813 26.496 77.4453 26.208 77.6373C25.944 77.8293 25.632 77.9253 25.272 77.9253C24.6 77.9253 24.108 77.6253 23.796 77.0253L20.592 70.3653H6.84L3.6 77.0253C3.456 77.3133 3.252 77.5413 2.988 77.7093C2.724 77.8533 2.436 77.9253 2.124 77.9253C1.788 77.9253 1.476 77.8293 1.188 77.6373C0.9 77.4453 0.708 77.1813 0.612 76.8453C0.444 76.3893 0.468 75.9693 0.684 75.5853L12.24 51.7893C12.552 51.1653 13.044 50.8533 13.716 50.8533C14.028 50.8533 14.316 50.9373 14.58 51.1053C14.844 51.2733 15.036 51.5013 15.156 51.7893L26.748 75.5853ZM19.008 67.0893L13.716 56.2173L8.424 67.0893H19.008ZM31.5979 76.3053C31.5979 76.7613 31.4419 77.1453 31.1299 77.4573C30.8179 77.7693 30.4339 77.9253 29.9779 77.9253C29.5219 77.9253 29.1379 77.7693 28.8259 77.4573C28.5139 77.1453 28.3579 76.7613 28.3579 76.3053V52.4733C28.3579 52.0173 28.5139 51.6333 28.8259 51.3213C29.1379 51.0093 29.5219 50.8533 29.9779 50.8533C30.4339 50.8533 30.8179 51.0093 31.1299 51.3213C31.4419 51.6333 31.5979 52.0173 31.5979 52.4733V76.3053ZM36.6601 52.4733C36.6601 52.0173 36.8161 51.6333 37.1281 51.3213C37.4401 51.0093 37.8241 50.8533 38.2801 50.8533C38.7361 50.8533 39.1201 51.0093 39.4321 51.3213C39.7441 51.6333 39.9001 52.0173 39.9001 52.4733V58.9893H43.8601C44.3161 58.9893 44.7001 59.1453 45.0121 59.4573C45.3241 59.7693 45.4801 60.1533 45.4801 60.6093C45.4801 61.0653 45.3241 61.4493 45.0121 61.7613C44.7001 62.0733 44.3161 62.2293 43.8601 62.2293H39.9001V71.7693C39.9001 72.5373 40.1641 73.1853 40.6921 73.7133C41.2201 74.2413 41.8561 74.5053 42.6001 74.5053H43.6441C44.0761 74.5053 44.4481 74.6613 44.7601 74.9733C45.0961 75.2853 45.2641 75.6693 45.2641 76.1253C45.2641 76.5813 45.0961 76.9653 44.7601 77.2773C44.4481 77.5893 44.0761 77.7453 43.6441 77.7453H42.6001C41.7841 77.7453 41.0161 77.5893 40.2961 77.2773C39.5761 76.9653 38.9401 76.5453 38.3881 76.0173C37.8601 75.4653 37.4401 74.8293 37.1281 74.1093C36.8161 73.3653 36.6601 72.5853 36.6601 71.7693V62.2293H34.6081C34.1521 62.2293 33.7681 62.0733 33.4561 61.7613C33.1441 61.4493 32.9881 61.0653 32.9881 60.6093C32.9881 60.1533 33.1441 59.7693 33.4561 59.4573C33.7681 59.1453 34.1521 58.9893 34.6081 58.9893H36.6601V52.4733ZM55.2085 77.9253C53.9125 77.9253 52.6885 77.6853 51.5365 77.2053C50.3845 76.7013 49.3765 76.0173 48.5125 75.1533C47.6485 74.2893 46.9645 73.2813 46.4605 72.1293C45.9805 70.9773 45.7405 69.7533 45.7405 68.4573C45.7405 67.1373 45.9805 65.9013 46.4605 64.7493C46.9645 63.5973 47.6485 62.6013 48.5125 61.7613C49.3765 60.8973 50.3845 60.2133 51.5365 59.7093C52.6885 59.2053 53.9125 58.9533 55.2085 58.9533C56.5285 58.9533 57.7645 59.2053 58.9165 59.7093C60.0685 60.2133 61.0645 60.8973 61.9045 61.7613C62.7685 62.6013 63.4525 63.5973 63.9565 64.7493C64.4605 65.9013 64.7125 67.1373 64.7125 68.4573C64.7125 69.7533 64.4605 70.9773 63.9565 72.1293C63.4525 73.2813 62.7685 74.2893 61.9045 75.1533C61.0645 76.0173 60.0685 76.7013 58.9165 77.2053C57.7645 77.6853 56.5285 77.9253 55.2085 77.9253ZM55.2085 74.6853C56.0725 74.6853 56.8765 74.5293 57.6205 74.2173C58.3885 73.8813 59.0485 73.4373 59.6005 72.8853C60.1765 72.3093 60.6205 71.6493 60.9325 70.9053C61.2685 70.1373 61.4365 69.3213 61.4365 68.4573C61.4365 67.5933 61.2685 66.7893 60.9325 66.0453C60.6205 65.2773 60.1765 64.6173 59.6005 64.0653C59.0485 63.4893 58.3885 63.0453 57.6205 62.7333C56.8765 62.3973 56.0725 62.2293 55.2085 62.2293C54.3445 62.2293 53.5285 62.3973 52.7605 62.7333C52.0165 63.0453 51.3565 63.4893 50.7805 64.0653C50.2285 64.6173 49.7845 65.2773 49.4485 66.0453C49.1365 66.7893 48.9805 67.5933 48.9805 68.4573C48.9805 69.3213 49.1365 70.1373 49.4485 70.9053C49.7845 71.6493 50.2285 72.3093 50.7805 72.8853C51.3565 73.4373 52.0165 73.8813 52.7605 74.2173C53.5285 74.5293 54.3445 74.6853 55.2085 74.6853ZM81.2126 75.5853C80.3486 76.3533 79.3766 76.9413 78.2966 77.3493C77.2406 77.7333 76.1366 77.9253 74.9846 77.9253C73.6886 77.9253 72.4646 77.6853 71.3126 77.2053C70.1606 76.7013 69.1526 76.0173 68.2886 75.1533C67.4246 74.2893 66.7406 73.2813 66.2366 72.1293C65.7566 70.9773 65.5166 69.7533 65.5166 68.4573C65.5166 67.1373 65.7566 65.9013 66.2366 64.7493C66.7406 63.5973 67.4246 62.6013 68.2886 61.7613C69.1526 60.8973 70.1606 60.2133 71.3126 59.7093C72.4646 59.2053 73.6886 58.9533 74.9846 58.9533C76.3046 58.9533 77.5406 59.2053 78.6926 59.7093C79.8446 60.2133 80.8406 60.8973 81.6806 61.7613C82.5446 62.6013 83.2166 63.5973 83.6966 64.7493C84.2006 65.9013 84.4526 67.1373 84.4526 68.4573V77.0973C84.4526 78.4173 84.2006 79.6533 83.6966 80.8053C83.2166 81.9573 82.5446 82.9653 81.6806 83.8293C80.8406 84.6933 79.8446 85.3653 78.6926 85.8453C77.5406 86.3493 76.3046 86.6013 74.9846 86.6013C73.1846 86.6013 71.5286 86.1333 70.0166 85.1973C68.5046 84.2613 67.3406 82.9893 66.5246 81.3813C66.3326 80.9733 66.2966 80.5533 66.4166 80.1213C66.5606 79.6893 66.8366 79.3773 67.2446 79.1853C67.4846 79.0653 67.7246 79.0053 67.9646 79.0053C68.2526 79.0053 68.5286 79.0773 68.7926 79.2213C69.0566 79.3893 69.2726 79.6173 69.4406 79.9053C69.9686 80.9613 70.7246 81.7893 71.7086 82.3893C72.7166 83.0133 73.8086 83.3253 74.9846 83.3253C75.8486 83.3253 76.6526 83.1573 77.3966 82.8213C78.1646 82.5093 78.8246 82.0653 79.3766 81.4893C79.9526 80.9373 80.3966 80.2773 80.7086 79.5093C81.0446 78.7653 81.2126 77.9613 81.2126 77.0973V75.5853ZM74.9846 74.6853C75.8486 74.6853 76.6526 74.5293 77.3966 74.2173C78.1646 73.8813 78.8246 73.4373 79.3766 72.8853C79.9526 72.3093 80.3966 71.6493 80.7086 70.9053C81.0446 70.1373 81.2126 69.3213 81.2126 68.4573C81.2126 67.5933 81.0446 66.7893 80.7086 66.0453C80.3966 65.2773 79.9526 64.6173 79.3766 64.0653C78.8246 63.4893 78.1646 63.0453 77.3966 62.7333C76.6526 62.3973 75.8486 62.2293 74.9846 62.2293C74.1206 62.2293 73.3046 62.3973 72.5366 62.7333C71.7926 63.0453 71.1326 63.4893 70.5566 64.0653C70.0046 64.6173 69.5606 65.2773 69.2246 66.0453C68.9126 66.7893 68.7566 67.5933 68.7566 68.4573C68.7566 69.3213 68.9126 70.1373 69.2246 70.9053C69.5606 71.6493 70.0046 72.3093 70.5566 72.8853C71.1326 73.4373 71.7926 73.8813 72.5366 74.2173C73.3046 74.5293 74.1206 74.6853 74.9846 74.6853ZM95.1826 58.9893C96.5026 58.9893 97.7386 59.2413 98.8906 59.7453C100.043 60.2253 101.039 60.8973 101.879 61.7613C102.743 62.6013 103.415 63.5973 103.895 64.7493C104.399 65.9013 104.651 67.1373 104.651 68.4573C104.651 68.9133 104.495 69.2973 104.183 69.6093C103.871 69.9213 103.487 70.0773 103.031 70.0773H89.1706C89.3626 70.7493 89.6506 71.3733 90.0346 71.9493C90.4186 72.5013 90.8746 72.9813 91.4026 73.3893C91.9306 73.7973 92.5186 74.1213 93.1666 74.3613C93.8146 74.5773 94.4866 74.6853 95.1826 74.6853C96.0946 74.6853 96.9586 74.5053 97.7746 74.1453C98.5906 73.7613 99.2986 73.2213 99.8986 72.5253C100.235 72.1413 100.643 71.9493 101.123 71.9493C101.531 71.9493 101.891 72.0933 102.203 72.3813C102.539 72.6693 102.719 73.0413 102.743 73.4973C102.767 73.9293 102.635 74.3133 102.347 74.6493C101.435 75.7053 100.355 76.5213 99.1066 77.0973C97.8826 77.6493 96.5746 77.9253 95.1826 77.9253C93.8866 77.9253 92.6626 77.6853 91.5106 77.2053C90.3586 76.7013 89.3506 76.0173 88.4866 75.1533C87.6226 74.2893 86.9386 73.2813 86.4346 72.1293C85.9546 70.9773 85.7146 69.7533 85.7146 68.4573C85.7146 67.1373 85.9546 65.9013 86.4346 64.7493C86.9386 63.5973 87.6226 62.6013 88.4866 61.7613C89.3506 60.8973 90.3586 60.2253 91.5106 59.7453C92.6626 59.2413 93.8866 58.9893 95.1826 58.9893ZM101.195 66.8373C101.027 66.1413 100.739 65.5173 100.331 64.9653C99.9466 64.3893 99.4906 63.9093 98.9626 63.5253C98.4346 63.1173 97.8466 62.8053 97.1986 62.5893C96.5506 62.3493 95.8786 62.2293 95.1826 62.2293C93.7666 62.2293 92.5066 62.6613 91.4026 63.5253C90.2986 64.3653 89.5546 65.4693 89.1706 66.8373H101.195ZM107.889 52.4733C107.889 52.0173 108.045 51.6333 108.357 51.3213C108.669 51.0093 109.053 50.8533 109.509 50.8533C109.965 50.8533 110.349 51.0093 110.661 51.3213C110.973 51.6333 111.129 52.0173 111.129 52.4733V58.9893H115.089C115.545 58.9893 115.929 59.1453 116.241 59.4573C116.553 59.7693 116.709 60.1533 116.709 60.6093C116.709 61.0653 116.553 61.4493 116.241 61.7613C115.929 62.0733 115.545 62.2293 115.089 62.2293H111.129V71.7693C111.129 72.5373 111.393 73.1853 111.921 73.7133C112.449 74.2413 113.085 74.5053 113.829 74.5053H114.873C115.305 74.5053 115.677 74.6613 115.989 74.9733C116.325 75.2853 116.493 75.6693 116.493 76.1253C116.493 76.5813 116.325 76.9653 115.989 77.2773C115.677 77.5893 115.305 77.7453 114.873 77.7453H113.829C113.013 77.7453 112.245 77.5893 111.525 77.2773C110.805 76.9653 110.169 76.5453 109.617 76.0173C109.089 75.4653 108.669 74.8293 108.357 74.1093C108.045 73.3653 107.889 72.5853 107.889 71.7693V62.2293H105.837C105.381 62.2293 104.997 62.0733 104.685 61.7613C104.373 61.4493 104.217 61.0653 104.217 60.6093C104.217 60.1533 104.373 59.7693 104.685 59.4573C104.997 59.1453 105.381 58.9893 105.837 58.9893H107.889V52.4733ZM121.319 76.3053C121.319 76.7613 121.163 77.1453 120.851 77.4573C120.539 77.7693 120.155 77.9253 119.699 77.9253C119.243 77.9253 118.859 77.7693 118.547 77.4573C118.235 77.1453 118.079 76.7613 118.079 76.3053V52.4733C118.079 52.0173 118.235 51.6333 118.547 51.3213C118.859 51.0093 119.243 50.8533 119.699 50.8533C120.155 50.8533 120.539 51.0093 120.851 51.3213C121.163 51.6333 121.319 52.0173 121.319 52.4733V61.2933C122.183 60.5253 123.143 59.9493 124.199 59.5653C125.279 59.1573 126.395 58.9533 127.547 58.9533C128.867 58.9533 130.103 59.2053 131.255 59.7093C132.407 60.2133 133.403 60.8973 134.243 61.7613C135.107 62.6013 135.779 63.5973 136.259 64.7493C136.763 65.9013 137.015 67.1373 137.015 68.4573V76.3053C137.015 76.7613 136.859 77.1453 136.547 77.4573C136.235 77.7693 135.851 77.9253 135.395 77.9253C134.939 77.9253 134.555 77.7693 134.243 77.4573C133.931 77.1453 133.775 76.7613 133.775 76.3053V68.4573C133.775 67.5933 133.607 66.7893 133.271 66.0453C132.959 65.2773 132.515 64.6173 131.939 64.0653C131.387 63.4893 130.727 63.0453 129.959 62.7333C129.215 62.3973 128.411 62.2293 127.547 62.2293C126.683 62.2293 125.867 62.3973 125.099 62.7333C124.355 63.0453 123.695 63.4893 123.119 64.0653C122.567 64.6173 122.123 65.2773 121.787 66.0453C121.475 66.7893 121.319 67.5933 121.319 68.4573V76.3053ZM147.726 58.9893C149.046 58.9893 150.282 59.2413 151.434 59.7453C152.586 60.2253 153.582 60.8973 154.422 61.7613C155.286 62.6013 155.958 63.5973 156.438 64.7493C156.942 65.9013 157.194 67.1373 157.194 68.4573C157.194 68.9133 157.038 69.2973 156.726 69.6093C156.414 69.9213 156.03 70.0773 155.574 70.0773H141.714C141.906 70.7493 142.194 71.3733 142.578 71.9493C142.962 72.5013 143.418 72.9813 143.946 73.3893C144.474 73.7973 145.062 74.1213 145.71 74.3613C146.358 74.5773 147.03 74.6853 147.726 74.6853C148.638 74.6853 149.502 74.5053 150.318 74.1453C151.134 73.7613 151.842 73.2213 152.442 72.5253C152.778 72.1413 153.186 71.9493 153.666 71.9493C154.074 71.9493 154.434 72.0933 154.746 72.3813C155.082 72.6693 155.262 73.0413 155.286 73.4973C155.31 73.9293 155.178 74.3133 154.89 74.6493C153.978 75.7053 152.898 76.5213 151.65 77.0973C150.426 77.6493 149.118 77.9253 147.726 77.9253C146.43 77.9253 145.206 77.6853 144.054 77.2053C142.902 76.7013 141.894 76.0173 141.03 75.1533C140.166 74.2893 139.482 73.2813 138.978 72.1293C138.498 70.9773 138.258 69.7533 138.258 68.4573C138.258 67.1373 138.498 65.9013 138.978 64.7493C139.482 63.5973 140.166 62.6013 141.03 61.7613C141.894 60.8973 142.902 60.2253 144.054 59.7453C145.206 59.2413 146.43 58.9893 147.726 58.9893ZM153.738 66.8373C153.57 66.1413 153.282 65.5173 152.874 64.9653C152.49 64.3893 152.034 63.9093 151.506 63.5253C150.978 63.1173 150.39 62.8053 149.742 62.5893C149.094 62.3493 148.422 62.2293 147.726 62.2293C146.31 62.2293 145.05 62.6613 143.946 63.5253C142.842 64.3653 142.098 65.4693 141.714 66.8373H153.738ZM167.469 59.1693C167.925 59.1693 168.309 59.3253 168.621 59.6373C168.933 59.9493 169.089 60.3333 169.089 60.7893C169.089 61.2453 168.933 61.6293 168.621 61.9413C168.309 62.2533 167.925 62.4093 167.469 62.4093H164.517C163.749 62.4093 163.101 62.6733 162.573 63.2013C162.045 63.7053 161.781 64.3413 161.781 65.1093V76.3053C161.781 76.7613 161.625 77.1453 161.313 77.4573C161.001 77.7693 160.617 77.9253 160.161 77.9253C159.705 77.9253 159.321 77.7693 159.009 77.4573C158.697 77.1453 158.541 76.7613 158.541 76.3053V65.1093C158.541 64.2693 158.697 63.4893 159.009 62.7693C159.321 62.0493 159.741 61.4253 160.269 60.8973C160.821 60.3453 161.457 59.9253 162.177 59.6373C162.921 59.3253 163.701 59.1693 164.517 59.1693H167.469Z" fill="#018076"/>
<path d="M6.66 121.015C5.82 121.015 5.034 120.841 4.302 120.493C3.57 120.145 2.928 119.665 2.376 119.053C1.836 118.441 1.41 117.745 1.098 116.965C0.798 116.185 0.648 115.357 0.648 114.481C0.648 113.605 0.798 112.783 1.098 112.015C1.41 111.247 1.836 110.563 2.376 109.963C2.928 109.363 3.57 108.895 4.302 108.559C5.046 108.223 5.856 108.055 6.732 108.055C7.944 108.055 8.964 108.313 9.792 108.829C10.632 109.333 11.262 110.005 11.682 110.845L10.134 111.961C9.798 111.265 9.318 110.743 8.694 110.395C8.082 110.047 7.41 109.873 6.678 109.873C6.078 109.873 5.532 109.999 5.04 110.251C4.548 110.503 4.122 110.851 3.762 111.295C3.414 111.727 3.15 112.225 2.97 112.789C2.79 113.341 2.7 113.923 2.7 114.535C2.7 115.183 2.802 115.789 3.006 116.353C3.21 116.917 3.498 117.415 3.87 117.847C4.242 118.267 4.68 118.597 5.184 118.837C5.688 119.077 6.234 119.197 6.822 119.197C7.518 119.197 8.178 119.023 8.802 118.675C9.438 118.315 10.032 117.781 10.584 117.073V119.125C9.468 120.385 8.16 121.015 6.66 121.015ZM10.386 115.957H7.704V114.463H12.078V120.925H10.386V115.957ZM18.0315 121.105C17.2995 121.105 16.6335 120.979 16.0335 120.727C15.4455 120.463 14.9355 120.109 14.5035 119.665C14.0715 119.209 13.7355 118.693 13.4955 118.117C13.2675 117.529 13.1535 116.905 13.1535 116.245C13.1535 115.357 13.3575 114.547 13.7655 113.815C14.1735 113.071 14.7435 112.477 15.4755 112.033C16.2075 111.577 17.0655 111.349 18.0495 111.349C19.0335 111.349 19.8795 111.577 20.5875 112.033C21.3075 112.477 21.8655 113.065 22.2615 113.797C22.6575 114.529 22.8555 115.315 22.8555 116.155C22.8555 116.299 22.8495 116.437 22.8375 116.569C22.8255 116.689 22.8135 116.791 22.8015 116.875H15.2595C15.2955 117.427 15.4455 117.913 15.7095 118.333C15.9855 118.741 16.3335 119.065 16.7535 119.305C17.1735 119.533 17.6235 119.647 18.1035 119.647C18.6315 119.647 19.1295 119.515 19.5975 119.251C20.0775 118.987 20.4015 118.639 20.5695 118.207L22.2615 118.693C22.0575 119.149 21.7455 119.563 21.3255 119.935C20.9175 120.295 20.4315 120.583 19.8675 120.799C19.3035 121.003 18.6915 121.105 18.0315 121.105ZM15.2055 115.561H20.8935C20.8575 115.021 20.7015 114.547 20.4255 114.139C20.1615 113.719 19.8195 113.395 19.3995 113.167C18.9915 112.927 18.5355 112.807 18.0315 112.807C17.5395 112.807 17.0835 112.927 16.6635 113.167C16.2555 113.395 15.9195 113.719 15.6555 114.139C15.3915 114.547 15.2415 115.021 15.2055 115.561ZM29.2607 120.439C29.0927 120.523 28.8827 120.613 28.6307 120.709C28.3787 120.805 28.0907 120.889 27.7667 120.961C27.4547 121.033 27.1307 121.069 26.7947 121.069C26.3867 121.069 26.0087 120.997 25.6607 120.853C25.3127 120.709 25.0307 120.481 24.8147 120.169C24.6107 119.845 24.5087 119.431 24.5087 118.927V113.041H23.2667V111.511H24.5087V108.415H26.4887V111.511H28.5407V113.041H26.4887V118.297C26.5127 118.621 26.6147 118.861 26.7947 119.017C26.9867 119.173 27.2207 119.251 27.4967 119.251C27.7727 119.251 28.0367 119.203 28.2887 119.107C28.5407 119.011 28.7267 118.933 28.8467 118.873L29.2607 120.439ZM37.8873 123.607C36.9633 123.607 36.1353 123.397 35.4033 122.977C34.6713 122.569 34.1133 122.011 33.7293 121.303L34.9173 120.169C35.2533 120.685 35.6853 121.093 36.2133 121.393C36.7413 121.705 37.3053 121.861 37.9053 121.861C38.3973 121.861 38.8353 121.753 39.2193 121.537C39.6033 121.333 39.9033 121.045 40.1193 120.673C40.3473 120.289 40.4613 119.851 40.4613 119.359C40.4613 118.879 40.3533 118.459 40.1373 118.099C39.9213 117.727 39.6333 117.445 39.2733 117.253C38.9133 117.049 38.4993 116.947 38.0313 116.947C37.5753 116.947 37.1493 117.049 36.7533 117.253C36.3573 117.457 36.0333 117.745 35.7813 118.117H34.0353L35.4933 110.647H41.7393V112.465H36.9333L36.2853 115.957C36.4893 115.741 36.7653 115.567 37.1133 115.435C37.4613 115.291 37.8573 115.219 38.3013 115.219C39.1053 115.219 39.8193 115.399 40.4433 115.759C41.0793 116.107 41.5773 116.587 41.9373 117.199C42.3093 117.811 42.4953 118.519 42.4953 119.323C42.4953 120.175 42.2913 120.919 41.8833 121.555C41.4753 122.203 40.9233 122.707 40.2273 123.067C39.5313 123.427 38.7513 123.607 37.8873 123.607ZM52.8594 115.651C52.8594 116.707 52.6554 117.649 52.2474 118.477C51.8514 119.293 51.3054 119.935 50.6094 120.403C49.9254 120.871 49.1394 121.105 48.2514 121.105C47.3754 121.105 46.5894 120.871 45.8934 120.403C45.1974 119.935 44.6454 119.293 44.2374 118.477C43.8414 117.649 43.6434 116.707 43.6434 115.651C43.6434 114.595 43.8414 113.659 44.2374 112.843C44.6454 112.015 45.1974 111.367 45.8934 110.899C46.5894 110.419 47.3754 110.179 48.2514 110.179C49.1394 110.179 49.9254 110.419 50.6094 110.899C51.3054 111.367 51.8514 112.015 52.2474 112.843C52.6554 113.659 52.8594 114.595 52.8594 115.651ZM50.8434 115.651C50.8434 114.931 50.7354 114.301 50.5194 113.761C50.3034 113.209 49.9974 112.783 49.6014 112.483C49.2054 112.171 48.7554 112.015 48.2514 112.015C47.7354 112.015 47.2794 112.171 46.8834 112.483C46.4874 112.783 46.1754 113.209 45.9474 113.761C45.7314 114.301 45.6234 114.931 45.6234 115.651C45.6234 116.371 45.7314 117.001 45.9474 117.541C46.1754 118.081 46.4874 118.507 46.8834 118.819C47.2794 119.119 47.7354 119.269 48.2514 119.269C48.7554 119.269 49.1994 119.119 49.5834 118.819C49.9794 118.507 50.2854 118.081 50.5014 117.541C50.7294 117.001 50.8434 116.371 50.8434 115.651ZM63.556 115.651C63.556 116.707 63.352 117.649 62.944 118.477C62.548 119.293 62.002 119.935 61.306 120.403C60.622 120.871 59.836 121.105 58.948 121.105C58.072 121.105 57.286 120.871 56.59 120.403C55.894 119.935 55.342 119.293 54.934 118.477C54.538 117.649 54.34 116.707 54.34 115.651C54.34 114.595 54.538 113.659 54.934 112.843C55.342 112.015 55.894 111.367 56.59 110.899C57.286 110.419 58.072 110.179 58.948 110.179C59.836 110.179 60.622 110.419 61.306 110.899C62.002 111.367 62.548 112.015 62.944 112.843C63.352 113.659 63.556 114.595 63.556 115.651ZM61.54 115.651C61.54 114.931 61.432 114.301 61.216 113.761C61 113.209 60.694 112.783 60.298 112.483C59.902 112.171 59.452 112.015 58.948 112.015C58.432 112.015 57.976 112.171 57.58 112.483C57.184 112.783 56.872 113.209 56.644 113.761C56.428 114.301 56.32 114.931 56.32 115.651C56.32 116.371 56.428 117.001 56.644 117.541C56.872 118.081 57.184 118.507 57.58 118.819C57.976 119.119 58.432 119.269 58.948 119.269C59.452 119.269 59.896 119.119 60.28 118.819C60.676 118.507 60.982 118.081 61.198 117.541C61.426 117.001 61.54 116.371 61.54 115.651ZM74.2527 115.651C74.2527 116.707 74.0487 117.649 73.6407 118.477C73.2447 119.293 72.6987 119.935 72.0027 120.403C71.3187 120.871 70.5327 121.105 69.6447 121.105C68.7687 121.105 67.9827 120.871 67.2867 120.403C66.5907 119.935 66.0387 119.293 65.6307 118.477C65.2347 117.649 65.0367 116.707 65.0367 115.651C65.0367 114.595 65.2347 113.659 65.6307 112.843C66.0387 112.015 66.5907 111.367 67.2867 110.899C67.9827 110.419 68.7687 110.179 69.6447 110.179C70.5327 110.179 71.3187 110.419 72.0027 110.899C72.6987 111.367 73.2447 112.015 73.6407 112.843C74.0487 113.659 74.2527 114.595 74.2527 115.651ZM72.2367 115.651C72.2367 114.931 72.1287 114.301 71.9127 113.761C71.6967 113.209 71.3907 112.783 70.9947 112.483C70.5987 112.171 70.1487 112.015 69.6447 112.015C69.1287 112.015 68.6727 112.171 68.2767 112.483C67.8807 112.783 67.5687 113.209 67.3407 113.761C67.1247 114.301 67.0167 114.931 67.0167 115.651C67.0167 116.371 67.1247 117.001 67.3407 117.541C67.5687 118.081 67.8807 118.507 68.2767 118.819C68.6727 119.119 69.1287 119.269 69.6447 119.269C70.1487 119.269 70.5927 119.119 70.9767 118.819C71.3727 118.507 71.6787 118.081 71.8947 117.541C72.1227 117.001 72.2367 116.371 72.2367 115.651ZM81.4753 113.743V115.327H79.4773V117.505H77.6953V115.327H75.6973V113.743H77.6953V111.565H79.4773V113.743H81.4753ZM92.8336 121.015C91.9096 121.015 91.0756 120.835 90.3316 120.475C89.5876 120.115 88.9456 119.629 88.4056 119.017C87.8656 118.393 87.4456 117.697 87.1456 116.929C86.8576 116.149 86.7136 115.351 86.7136 114.535C86.7136 113.683 86.8696 112.873 87.1816 112.105C87.4936 111.325 87.9256 110.635 88.4776 110.035C89.0296 109.423 89.6776 108.943 90.4216 108.595C91.1776 108.235 91.9936 108.055 92.8696 108.055C93.7816 108.055 94.6096 108.241 95.3536 108.613C96.1096 108.985 96.7516 109.483 97.2796 110.107C97.8196 110.731 98.2336 111.427 98.5216 112.195C98.8216 112.963 98.9716 113.749 98.9716 114.553C98.9716 115.405 98.8156 116.221 98.5036 117.001C98.2036 117.769 97.7776 118.459 97.2256 119.071C96.6736 119.671 96.0196 120.145 95.2636 120.493C94.5196 120.841 93.7096 121.015 92.8336 121.015ZM88.7656 114.535C88.7656 115.135 88.8616 115.717 89.0536 116.281C89.2456 116.845 89.5156 117.349 89.8636 117.793C90.2236 118.225 90.6556 118.567 91.1596 118.819C91.6636 119.071 92.2276 119.197 92.8516 119.197C93.4996 119.197 94.0756 119.065 94.5796 118.801C95.0836 118.537 95.5036 118.183 95.8396 117.739C96.1876 117.283 96.4516 116.779 96.6316 116.227C96.8116 115.663 96.9016 115.099 96.9016 114.535C96.9016 113.935 96.8056 113.359 96.6136 112.807C96.4336 112.243 96.1636 111.745 95.8036 111.313C95.4436 110.869 95.0116 110.521 94.5076 110.269C94.0156 110.017 93.4636 109.891 92.8516 109.891C92.2036 109.891 91.6276 110.023 91.1236 110.287C90.6196 110.551 90.1936 110.905 89.8456 111.349C89.4976 111.793 89.2276 112.291 89.0356 112.843C88.8556 113.395 88.7656 113.959 88.7656 114.535ZM108.801 120.925H106.821V115.651C106.821 114.775 106.677 114.133 106.389 113.725C106.113 113.317 105.699 113.113 105.147 113.113C104.763 113.113 104.379 113.209 103.995 113.401C103.623 113.593 103.287 113.857 102.987 114.193C102.687 114.517 102.471 114.895 102.339 115.327V120.925H100.359V111.511H102.159V113.401C102.399 112.981 102.711 112.621 103.095 112.321C103.491 112.009 103.935 111.769 104.427 111.601C104.919 111.433 105.441 111.349 105.993 111.349C106.557 111.349 107.019 111.451 107.379 111.655C107.751 111.859 108.039 112.141 108.243 112.501C108.459 112.849 108.603 113.257 108.675 113.725C108.759 114.181 108.801 114.667 108.801 115.183V120.925ZM110.757 107.785H112.737V118.207C112.737 118.687 112.809 118.993 112.953 119.125C113.097 119.257 113.277 119.323 113.493 119.323C113.733 119.323 113.955 119.299 114.159 119.251C114.375 119.203 114.561 119.143 114.717 119.071L115.005 120.637C114.717 120.757 114.375 120.859 113.979 120.943C113.583 121.027 113.229 121.069 112.917 121.069C112.245 121.069 111.717 120.883 111.333 120.511C110.949 120.127 110.757 119.599 110.757 118.927V107.785ZM115.793 120.925V111.511H117.773V120.925H115.793ZM115.793 109.963V107.785H117.773V109.963H115.793ZM128.235 120.925H126.255V115.651C126.255 114.775 126.111 114.133 125.823 113.725C125.547 113.317 125.133 113.113 124.581 113.113C124.197 113.113 123.813 113.209 123.429 113.401C123.057 113.593 122.721 113.857 122.421 114.193C122.121 114.517 121.905 114.895 121.773 115.327V120.925H119.793V111.511H121.593V113.401C121.833 112.981 122.145 112.621 122.529 112.321C122.925 112.009 123.369 111.769 123.861 111.601C124.353 111.433 124.875 111.349 125.427 111.349C125.991 111.349 126.453 111.451 126.813 111.655C127.185 111.859 127.473 112.141 127.677 112.501C127.893 112.849 128.037 113.257 128.109 113.725C128.193 114.181 128.235 114.667 128.235 115.183V120.925ZM134.439 121.105C133.707 121.105 133.041 120.979 132.441 120.727C131.853 120.463 131.343 120.109 130.911 119.665C130.479 119.209 130.143 118.693 129.903 118.117C129.675 117.529 129.561 116.905 129.561 116.245C129.561 115.357 129.765 114.547 130.173 113.815C130.581 113.071 131.151 112.477 131.883 112.033C132.615 111.577 133.473 111.349 134.457 111.349C135.441 111.349 136.287 111.577 136.995 112.033C137.715 112.477 138.273 113.065 138.669 113.797C139.065 114.529 139.263 115.315 139.263 116.155C139.263 116.299 139.257 116.437 139.245 116.569C139.233 116.689 139.221 116.791 139.209 116.875H131.667C131.703 117.427 131.853 117.913 132.117 118.333C132.393 118.741 132.741 119.065 133.161 119.305C133.581 119.533 134.031 119.647 134.511 119.647C135.039 119.647 135.537 119.515 136.005 119.251C136.485 118.987 136.809 118.639 136.977 118.207L138.669 118.693C138.465 119.149 138.153 119.563 137.733 119.935C137.325 120.295 136.839 120.583 136.275 120.799C135.711 121.003 135.099 121.105 134.439 121.105ZM131.613 115.561H137.301C137.265 115.021 137.109 114.547 136.833 114.139C136.569 113.719 136.227 113.395 135.807 113.167C135.399 112.927 134.943 112.807 134.439 112.807C133.947 112.807 133.491 112.927 133.071 113.167C132.663 113.395 132.327 113.719 132.063 114.139C131.799 114.547 131.649 115.021 131.613 115.561ZM148.871 121.105C148.139 121.105 147.473 120.979 146.873 120.727C146.285 120.463 145.775 120.103 145.343 119.647C144.911 119.191 144.575 118.669 144.335 118.081C144.107 117.493 143.993 116.869 143.993 116.209C143.993 115.321 144.191 114.511 144.587 113.779C144.995 113.047 145.559 112.459 146.279 112.015C147.011 111.571 147.875 111.349 148.871 111.349C149.831 111.349 150.665 111.565 151.373 111.997C152.093 112.417 152.621 112.981 152.957 113.689L151.031 114.301C150.815 113.905 150.509 113.599 150.113 113.383C149.729 113.155 149.303 113.041 148.835 113.041C148.307 113.041 147.827 113.179 147.395 113.455C146.975 113.719 146.639 114.091 146.387 114.571C146.147 115.039 146.027 115.585 146.027 116.209C146.027 116.809 146.153 117.355 146.405 117.847C146.657 118.327 146.993 118.711 147.413 118.999C147.845 119.275 148.325 119.413 148.853 119.413C149.177 119.413 149.489 119.359 149.789 119.251C150.101 119.131 150.371 118.975 150.599 118.783C150.827 118.579 150.989 118.357 151.085 118.117L153.029 118.693C152.825 119.161 152.519 119.575 152.111 119.935C151.715 120.295 151.241 120.583 150.689 120.799C150.149 121.003 149.543 121.105 148.871 121.105ZM158.442 121.105C157.698 121.105 157.032 120.979 156.444 120.727C155.856 120.463 155.346 120.103 154.914 119.647C154.494 119.191 154.17 118.675 153.942 118.099C153.714 117.511 153.6 116.887 153.6 116.227C153.6 115.567 153.714 114.943 153.942 114.355C154.17 113.767 154.494 113.251 154.914 112.807C155.346 112.351 155.856 111.997 156.444 111.745C157.044 111.481 157.71 111.349 158.442 111.349C159.174 111.349 159.834 111.481 160.422 111.745C161.022 111.997 161.532 112.351 161.952 112.807C162.384 113.251 162.714 113.767 162.942 114.355C163.17 114.943 163.284 115.567 163.284 116.227C163.284 116.887 163.17 117.511 162.942 118.099C162.714 118.675 162.384 119.191 161.952 119.647C161.532 120.103 161.022 120.463 160.422 120.727C159.834 120.979 159.174 121.105 158.442 121.105ZM155.634 116.245C155.634 116.845 155.76 117.385 156.012 117.865C156.264 118.345 156.6 118.723 157.02 118.999C157.44 119.275 157.914 119.413 158.442 119.413C158.958 119.413 159.426 119.275 159.846 118.999C160.278 118.711 160.62 118.327 160.872 117.847C161.124 117.355 161.25 116.815 161.25 116.227C161.25 115.627 161.124 115.087 160.872 114.607C160.62 114.127 160.278 113.749 159.846 113.473C159.426 113.185 158.958 113.041 158.442 113.041C157.914 113.041 157.44 113.185 157.02 113.473C156.6 113.761 156.264 114.145 156.012 114.625C155.76 115.093 155.634 115.633 155.634 116.245ZM164.59 117.271V111.511H166.57V116.875C166.57 117.715 166.72 118.351 167.02 118.783C167.332 119.203 167.782 119.413 168.37 119.413C168.742 119.413 169.102 119.335 169.45 119.179C169.81 119.023 170.134 118.795 170.422 118.495C170.722 118.183 170.962 117.811 171.142 117.379V111.511H173.122V118.693C173.122 118.921 173.164 119.083 173.248 119.179C173.332 119.275 173.47 119.329 173.662 119.341V120.925C173.458 120.961 173.29 120.985 173.158 120.997C173.026 121.009 172.9 121.015 172.78 121.015C172.42 121.015 172.12 120.919 171.88 120.727C171.64 120.523 171.502 120.265 171.466 119.953L171.43 119.017C171.01 119.701 170.464 120.223 169.792 120.583C169.12 120.931 168.382 121.105 167.578 121.105C166.594 121.105 165.85 120.781 165.346 120.133C164.842 119.485 164.59 118.531 164.59 117.271ZM180.581 113.221C179.813 113.233 179.129 113.407 178.529 113.743C177.941 114.079 177.521 114.553 177.269 115.165V120.925H175.289V111.511H177.125V113.617C177.449 112.969 177.875 112.453 178.403 112.069C178.931 111.673 179.489 111.457 180.077 111.421C180.197 111.421 180.293 111.421 180.365 111.421C180.449 111.421 180.521 111.427 180.581 111.439V113.221ZM185.009 121.105C184.217 121.105 183.467 120.979 182.759 120.727C182.051 120.463 181.445 120.073 180.941 119.557L181.679 118.225C182.219 118.705 182.759 119.053 183.299 119.269C183.851 119.485 184.397 119.593 184.937 119.593C185.489 119.593 185.939 119.491 186.287 119.287C186.635 119.071 186.809 118.759 186.809 118.351C186.809 118.051 186.719 117.829 186.539 117.685C186.359 117.541 186.095 117.415 185.747 117.307C185.411 117.199 185.003 117.079 184.523 116.947C183.851 116.743 183.287 116.533 182.831 116.317C182.375 116.089 182.033 115.813 181.805 115.489C181.577 115.165 181.463 114.751 181.463 114.247C181.463 113.635 181.619 113.113 181.931 112.681C182.243 112.249 182.675 111.919 183.227 111.691C183.791 111.463 184.439 111.349 185.171 111.349C185.855 111.349 186.485 111.457 187.061 111.673C187.649 111.877 188.165 112.201 188.609 112.645L187.763 113.959C187.343 113.575 186.911 113.293 186.467 113.113C186.035 112.933 185.567 112.843 185.063 112.843C184.775 112.843 184.499 112.879 184.235 112.951C183.971 113.011 183.749 113.131 183.569 113.311C183.401 113.479 183.317 113.719 183.317 114.031C183.317 114.283 183.389 114.487 183.533 114.643C183.677 114.799 183.893 114.931 184.181 115.039C184.469 115.147 184.823 115.267 185.243 115.399C185.975 115.615 186.599 115.831 187.115 116.047C187.631 116.251 188.027 116.521 188.303 116.857C188.591 117.181 188.735 117.631 188.735 118.207C188.735 119.119 188.393 119.833 187.709 120.349C187.037 120.853 186.137 121.105 185.009 121.105ZM194.409 121.105C193.677 121.105 193.011 120.979 192.411 120.727C191.823 120.463 191.313 120.109 190.881 119.665C190.449 119.209 190.113 118.693 189.873 118.117C189.645 117.529 189.531 116.905 189.531 116.245C189.531 115.357 189.735 114.547 190.143 113.815C190.551 113.071 191.121 112.477 191.853 112.033C192.585 111.577 193.443 111.349 194.427 111.349C195.411 111.349 196.257 111.577 196.965 112.033C197.685 112.477 198.243 113.065 198.639 113.797C199.035 114.529 199.233 115.315 199.233 116.155C199.233 116.299 199.227 116.437 199.215 116.569C199.203 116.689 199.191 116.791 199.179 116.875H191.637C191.673 117.427 191.823 117.913 192.087 118.333C192.363 118.741 192.711 119.065 193.131 119.305C193.551 119.533 194.001 119.647 194.481 119.647C195.009 119.647 195.507 119.515 195.975 119.251C196.455 118.987 196.779 118.639 196.947 118.207L198.639 118.693C198.435 119.149 198.123 119.563 197.703 119.935C197.295 120.295 196.809 120.583 196.245 120.799C195.681 121.003 195.069 121.105 194.409 121.105ZM191.583 115.561H197.271C197.235 115.021 197.079 114.547 196.803 114.139C196.539 113.719 196.197 113.395 195.777 113.167C195.369 112.927 194.913 112.807 194.409 112.807C193.917 112.807 193.461 112.927 193.041 113.167C192.633 113.395 192.297 113.719 192.033 114.139C191.769 114.547 191.619 115.021 191.583 115.561ZM203.836 121.105C203.044 121.105 202.294 120.979 201.586 120.727C200.878 120.463 200.272 120.073 199.768 119.557L200.506 118.225C201.046 118.705 201.586 119.053 202.126 119.269C202.678 119.485 203.224 119.593 203.764 119.593C204.316 119.593 204.766 119.491 205.114 119.287C205.462 119.071 205.636 118.759 205.636 118.351C205.636 118.051 205.546 117.829 205.366 117.685C205.186 117.541 204.922 117.415 204.574 117.307C204.238 117.199 203.83 117.079 203.35 116.947C202.678 116.743 202.114 116.533 201.658 116.317C201.202 116.089 200.86 115.813 200.632 115.489C200.404 115.165 200.29 114.751 200.29 114.247C200.29 113.635 200.446 113.113 200.758 112.681C201.07 112.249 201.502 111.919 202.054 111.691C202.618 111.463 203.266 111.349 203.998 111.349C204.682 111.349 205.312 111.457 205.888 111.673C206.476 111.877 206.992 112.201 207.436 112.645L206.59 113.959C206.17 113.575 205.738 113.293 205.294 113.113C204.862 112.933 204.394 112.843 203.89 112.843C203.602 112.843 203.326 112.879 203.062 112.951C202.798 113.011 202.576 113.131 202.396 113.311C202.228 113.479 202.144 113.719 202.144 114.031C202.144 114.283 202.216 114.487 202.36 114.643C202.504 114.799 202.72 114.931 203.008 115.039C203.296 115.147 203.65 115.267 204.07 115.399C204.802 115.615 205.426 115.831 205.942 116.047C206.458 116.251 206.854 116.521 207.13 116.857C207.418 117.181 207.562 117.631 207.562 118.207C207.562 119.119 207.22 119.833 206.536 120.349C205.864 120.853 204.964 121.105 203.836 121.105ZM208.88 120.925V118.621H210.518V120.925H208.88ZM216.781 120.925V108.145H218.797V119.143H225.655V120.925H216.781ZM230.841 121.105C230.109 121.105 229.443 120.979 228.843 120.727C228.255 120.463 227.745 120.109 227.313 119.665C226.881 119.209 226.545 118.693 226.305 118.117C226.077 117.529 225.963 116.905 225.963 116.245C225.963 115.357 226.167 114.547 226.575 113.815C226.983 113.071 227.553 112.477 228.285 112.033C229.017 111.577 229.875 111.349 230.859 111.349C231.843 111.349 232.689 111.577 233.397 112.033C234.117 112.477 234.675 113.065 235.071 113.797C235.467 114.529 235.665 115.315 235.665 116.155C235.665 116.299 235.659 116.437 235.647 116.569C235.635 116.689 235.623 116.791 235.611 116.875H228.069C228.105 117.427 228.255 117.913 228.519 118.333C228.795 118.741 229.143 119.065 229.563 119.305C229.983 119.533 230.433 119.647 230.913 119.647C231.441 119.647 231.939 119.515 232.407 119.251C232.887 118.987 233.211 118.639 233.379 118.207L235.071 118.693C234.867 119.149 234.555 119.563 234.135 119.935C233.727 120.295 233.241 120.583 232.677 120.799C232.113 121.003 231.501 121.105 230.841 121.105ZM228.015 115.561H233.703C233.667 115.021 233.511 114.547 233.235 114.139C232.971 113.719 232.629 113.395 232.209 113.167C231.801 112.927 231.345 112.807 230.841 112.807C230.349 112.807 229.893 112.927 229.473 113.167C229.065 113.395 228.729 113.719 228.465 114.139C228.201 114.547 228.051 115.021 228.015 115.561ZM236.236 118.171C236.236 117.571 236.404 117.049 236.74 116.605C237.088 116.149 237.562 115.801 238.162 115.561C238.762 115.309 239.458 115.183 240.25 115.183C240.67 115.183 241.096 115.213 241.528 115.273C241.972 115.333 242.362 115.429 242.698 115.561V114.967C242.698 114.307 242.5 113.791 242.104 113.419C241.708 113.047 241.138 112.861 240.394 112.861C239.866 112.861 239.368 112.957 238.9 113.149C238.432 113.329 237.934 113.587 237.406 113.923L236.74 112.591C237.364 112.171 237.988 111.859 238.612 111.655C239.248 111.451 239.914 111.349 240.61 111.349C241.87 111.349 242.86 111.685 243.58 112.357C244.312 113.017 244.678 113.959 244.678 115.183V118.693C244.678 118.921 244.714 119.083 244.786 119.179C244.87 119.275 245.008 119.329 245.2 119.341V120.925C245.02 120.961 244.858 120.985 244.714 120.997C244.57 121.009 244.45 121.015 244.354 121.015C243.934 121.015 243.616 120.913 243.4 120.709C243.184 120.505 243.058 120.265 243.022 119.989L242.968 119.449C242.56 119.977 242.038 120.385 241.402 120.673C240.766 120.961 240.124 121.105 239.476 121.105C238.852 121.105 238.294 120.979 237.802 120.727C237.31 120.463 236.926 120.109 236.65 119.665C236.374 119.221 236.236 118.723 236.236 118.171ZM242.23 118.747C242.374 118.591 242.488 118.435 242.572 118.279C242.656 118.123 242.698 117.985 242.698 117.865V116.785C242.362 116.653 242.008 116.557 241.636 116.497C241.264 116.425 240.898 116.389 240.538 116.389C239.818 116.389 239.23 116.533 238.774 116.821C238.33 117.109 238.108 117.505 238.108 118.009C238.108 118.285 238.18 118.549 238.324 118.801C238.48 119.053 238.696 119.257 238.972 119.413C239.26 119.569 239.614 119.647 240.034 119.647C240.466 119.647 240.88 119.563 241.276 119.395C241.672 119.227 241.99 119.011 242.23 118.747ZM252.013 113.221C251.245 113.233 250.561 113.407 249.961 113.743C249.373 114.079 248.953 114.553 248.701 115.165V120.925H246.721V111.511H248.557V113.617C248.881 112.969 249.307 112.453 249.835 112.069C250.363 111.673 250.921 111.457 251.509 111.421C251.629 111.421 251.725 111.421 251.797 111.421C251.881 111.421 251.953 111.427 252.013 111.439V113.221ZM261.535 120.925H259.555V115.651C259.555 114.775 259.411 114.133 259.123 113.725C258.847 113.317 258.433 113.113 257.881 113.113C257.497 113.113 257.113 113.209 256.729 113.401C256.357 113.593 256.021 113.857 255.721 114.193C255.421 114.517 255.205 114.895 255.073 115.327V120.925H253.093V111.511H254.893V113.401C255.133 112.981 255.445 112.621 255.829 112.321C256.225 112.009 256.669 111.769 257.161 111.601C257.653 111.433 258.175 111.349 258.727 111.349C259.291 111.349 259.753 111.451 260.113 111.655C260.485 111.859 260.773 112.141 260.977 112.501C261.193 112.849 261.337 113.257 261.409 113.725C261.493 114.181 261.535 114.667 261.535 115.183V120.925ZM278.787 111.511H280.677L276.717 120.925H275.025L273.333 116.677L271.641 120.925H269.949L265.971 111.511H267.861L270.885 118.999L272.217 115.525L270.597 111.529H272.271L273.333 114.463L274.377 111.529H276.051L274.449 115.525L275.781 118.999L278.787 111.511ZM281.632 120.925V111.511H283.612V120.925H281.632ZM281.632 109.963V107.785H283.612V109.963H281.632ZM290.87 120.439C290.702 120.523 290.492 120.613 290.24 120.709C289.988 120.805 289.7 120.889 289.376 120.961C289.064 121.033 288.74 121.069 288.404 121.069C287.996 121.069 287.618 120.997 287.27 120.853C286.922 120.709 286.64 120.481 286.424 120.169C286.22 119.845 286.118 119.431 286.118 118.927V113.041H284.876V111.511H286.118V108.415H288.098V111.511H290.15V113.041H288.098V118.297C288.122 118.621 288.224 118.861 288.404 119.017C288.596 119.173 288.83 119.251 289.106 119.251C289.382 119.251 289.646 119.203 289.898 119.107C290.15 119.011 290.336 118.933 290.456 118.873L290.87 120.439ZM300.323 120.925H298.343V115.651C298.343 114.799 298.187 114.163 297.875 113.743C297.563 113.323 297.125 113.113 296.561 113.113C296.213 113.113 295.853 113.209 295.481 113.401C295.109 113.593 294.779 113.857 294.491 114.193C294.203 114.517 293.993 114.895 293.861 115.327V120.925H291.881V107.785H293.861V113.401C294.221 112.765 294.713 112.267 295.337 111.907C295.961 111.535 296.633 111.349 297.353 111.349C297.941 111.349 298.427 111.451 298.811 111.655C299.195 111.859 299.495 112.141 299.711 112.501C299.939 112.849 300.095 113.257 300.179 113.725C300.275 114.181 300.323 114.667 300.323 115.183V120.925ZM1.44 144.925V132.145H3.456V143.143H10.314V144.925H1.44ZM15.5003 145.105C14.7683 145.105 14.1023 144.979 13.5023 144.727C12.9143 144.463 12.4043 144.109 11.9723 143.665C11.5403 143.209 11.2043 142.693 10.9643 142.117C10.7363 141.529 10.6223 140.905 10.6223 140.245C10.6223 139.357 10.8263 138.547 11.2343 137.815C11.6423 137.071 12.2123 136.477 12.9443 136.033C13.6763 135.577 14.5343 135.349 15.5183 135.349C16.5023 135.349 17.3483 135.577 18.0563 136.033C18.7763 136.477 19.3343 137.065 19.7303 137.797C20.1263 138.529 20.3243 139.315 20.3243 140.155C20.3243 140.299 20.3183 140.437 20.3063 140.569C20.2943 140.689 20.2823 140.791 20.2703 140.875H12.7283C12.7643 141.427 12.9143 141.913 13.1783 142.333C13.4543 142.741 13.8023 143.065 14.2223 143.305C14.6423 143.533 15.0923 143.647 15.5723 143.647C16.1003 143.647 16.5983 143.515 17.0663 143.251C17.5463 142.987 17.8703 142.639 18.0383 142.207L19.7303 142.693C19.5263 143.149 19.2143 143.563 18.7943 143.935C18.3863 144.295 17.9003 144.583 17.3363 144.799C16.7723 145.003 16.1603 145.105 15.5003 145.105ZM12.6743 139.561H18.3623C18.3263 139.021 18.1703 138.547 17.8943 138.139C17.6303 137.719 17.2883 137.395 16.8683 137.167C16.4603 136.927 16.0043 136.807 15.5003 136.807C15.0083 136.807 14.5523 136.927 14.1323 137.167C13.7243 137.395 13.3883 137.719 13.1243 138.139C12.8603 138.547 12.7103 139.021 12.6743 139.561ZM20.8953 142.171C20.8953 141.571 21.0633 141.049 21.3993 140.605C21.7473 140.149 22.2213 139.801 22.8213 139.561C23.4213 139.309 24.1173 139.183 24.9093 139.183C25.3293 139.183 25.7553 139.213 26.1873 139.273C26.6313 139.333 27.0213 139.429 27.3573 139.561V138.967C27.3573 138.307 27.1593 137.791 26.7633 137.419C26.3673 137.047 25.7973 136.861 25.0533 136.861C24.5253 136.861 24.0273 136.957 23.5593 137.149C23.0913 137.329 22.5933 137.587 22.0653 137.923L21.3993 136.591C22.0233 136.171 22.6473 135.859 23.2713 135.655C23.9073 135.451 24.5733 135.349 25.2693 135.349C26.5293 135.349 27.5193 135.685 28.2393 136.357C28.9713 137.017 29.3373 137.959 29.3373 139.183V142.693C29.3373 142.921 29.3733 143.083 29.4453 143.179C29.5293 143.275 29.6673 143.329 29.8593 143.341V144.925C29.6793 144.961 29.5173 144.985 29.3733 144.997C29.2293 145.009 29.1093 145.015 29.0133 145.015C28.5933 145.015 28.2753 144.913 28.0593 144.709C27.8433 144.505 27.7173 144.265 27.6813 143.989L27.6273 143.449C27.2193 143.977 26.6973 144.385 26.0613 144.673C25.4253 144.961 24.7833 145.105 24.1353 145.105C23.5113 145.105 22.9533 144.979 22.4613 144.727C21.9693 144.463 21.5853 144.109 21.3093 143.665C21.0333 143.221 20.8953 142.723 20.8953 142.171ZM26.8893 142.747C27.0333 142.591 27.1473 142.435 27.2313 142.279C27.3153 142.123 27.3573 141.985 27.3573 141.865V140.785C27.0213 140.653 26.6673 140.557 26.2953 140.497C25.9233 140.425 25.5573 140.389 25.1973 140.389C24.4773 140.389 23.8893 140.533 23.4333 140.821C22.9893 141.109 22.7673 141.505 22.7673 142.009C22.7673 142.285 22.8393 142.549 22.9833 142.801C23.1393 143.053 23.3553 143.257 23.6313 143.413C23.9193 143.569 24.2733 143.647 24.6933 143.647C25.1253 143.647 25.5393 143.563 25.9353 143.395C26.3313 143.227 26.6493 143.011 26.8893 142.747ZM36.6715 137.221C35.9035 137.233 35.2195 137.407 34.6195 137.743C34.0315 138.079 33.6115 138.553 33.3595 139.165V144.925H31.3795V135.511H33.2155V137.617C33.5395 136.969 33.9655 136.453 34.4935 136.069C35.0215 135.673 35.5795 135.457 36.1675 135.421C36.2875 135.421 36.3835 135.421 36.4555 135.421C36.5395 135.421 36.6115 135.427 36.6715 135.439V137.221ZM46.1939 144.925H44.2139V139.651C44.2139 138.775 44.0699 138.133 43.7819 137.725C43.5059 137.317 43.0919 137.113 42.5399 137.113C42.1559 137.113 41.7719 137.209 41.3879 137.401C41.0159 137.593 40.6799 137.857 40.3799 138.193C40.0799 138.517 39.8639 138.895 39.7319 139.327V144.925H37.7519V135.511H39.5519V137.401C39.7919 136.981 40.1039 136.621 40.4879 136.321C40.8839 136.009 41.3279 135.769 41.8199 135.601C42.3119 135.433 42.8339 135.349 43.3859 135.349C43.9499 135.349 44.4119 135.451 44.7719 135.655C45.1439 135.859 45.4319 136.141 45.6359 136.501C45.8519 136.849 45.9959 137.257 46.0679 137.725C46.1519 138.181 46.1939 138.667 46.1939 139.183V144.925ZM47.4481 142.171C47.4481 141.571 47.6161 141.049 47.9521 140.605C48.3001 140.149 48.7741 139.801 49.3741 139.561C49.9741 139.309 50.6701 139.183 51.4621 139.183C51.8821 139.183 52.3081 139.213 52.7401 139.273C53.1841 139.333 53.5741 139.429 53.9101 139.561V138.967C53.9101 138.307 53.7121 137.791 53.3161 137.419C52.9201 137.047 52.3501 136.861 51.6061 136.861C51.0781 136.861 50.5801 136.957 50.1121 137.149C49.6441 137.329 49.1461 137.587 48.6181 137.923L47.9521 136.591C48.5761 136.171 49.2001 135.859 49.8241 135.655C50.4601 135.451 51.1261 135.349 51.8221 135.349C53.0821 135.349 54.0721 135.685 54.7921 136.357C55.5241 137.017 55.8901 137.959 55.8901 139.183V142.693C55.8901 142.921 55.9261 143.083 55.9981 143.179C56.0821 143.275 56.2201 143.329 56.4121 143.341V144.925C56.2321 144.961 56.0701 144.985 55.9261 144.997C55.7821 145.009 55.6621 145.015 55.5661 145.015C55.1461 145.015 54.8281 144.913 54.6121 144.709C54.3961 144.505 54.2701 144.265 54.2341 143.989L54.1801 143.449C53.7721 143.977 53.2501 144.385 52.6141 144.673C51.9781 144.961 51.3361 145.105 50.6881 145.105C50.0641 145.105 49.5061 144.979 49.0141 144.727C48.5221 144.463 48.1381 144.109 47.8621 143.665C47.5861 143.221 47.4481 142.723 47.4481 142.171ZM53.4421 142.747C53.5861 142.591 53.7001 142.435 53.7841 142.279C53.8681 142.123 53.9101 141.985 53.9101 141.865V140.785C53.5741 140.653 53.2201 140.557 52.8481 140.497C52.4761 140.425 52.1101 140.389 51.7501 140.389C51.0301 140.389 50.4421 140.533 49.9861 140.821C49.5421 141.109 49.3201 141.505 49.3201 142.009C49.3201 142.285 49.3921 142.549 49.5361 142.801C49.6921 143.053 49.9081 143.257 50.1841 143.413C50.4721 143.569 50.8261 143.647 51.2461 143.647C51.6781 143.647 52.0921 143.563 52.4881 143.395C52.8841 143.227 53.2021 143.011 53.4421 142.747ZM58.3103 140.371V132.019H60.2903V140.371H58.3103ZM58.3103 144.925V142.459H60.2903V144.925H58.3103Z" fill="#545F71"/>
</svg>
