<svg width="156" height="221" viewBox="0 0 156 221" fill="none" xmlns="http://www.w3.org/2000/svg">
<path d="M147.489 144.891C147.516 159.15 144.905 174.003 137.373 184.988C132.415 192.219 125.606 197.349 118.391 200.85C111.176 204.352 103.523 206.32 95.8828 208.068C111.979 212.893 129.679 203.635 139.781 187.762C149.885 171.887 152.933 150.538 150.382 130.76C148.078 112.904 143.859 106.282 146.122 71.5842C146.223 70.0271 147.458 63.8892 146.768 62.6505C145.524 60.4212 144.85 65.6037 144.618 66.7387C139.36 92.4586 147.44 118.917 147.489 144.891Z" fill="#CCCCCC"/>
<path d="M103.223 175.15C110.007 176.259 117.074 173.859 122.658 168.553C128.242 163.246 132.293 155.083 133.794 146.101C134.1 144.279 134.302 142.374 133.995 140.554C133.69 138.732 132.785 136.999 131.467 136.423C126.831 154.681 115.39 169.538 101.676 175.107" fill="#CCCCCC"/>
<path d="M79.2752 153.136C85.0112 152.238 90.8393 151.023 95.9279 147.707C101.017 144.391 105.315 138.605 106.076 131.686C99.9397 132.284 94.8388 137.327 89.8529 141.688C84.867 146.048 78.8257 150.092 72.8457 148.322C73.0283 150.84 74.656 153.11 76.6933 153.691C78.7321 154.273 81.0272 153.123 82.1256 150.97" fill="#CCCCCC"/>
<path d="M37.5142 205.397C42.7685 208.267 48.0244 211.139 53.2787 214.009C52.6896 209.397 52.7756 204.648 53.5303 200.074C53.0103 200.198 52.4901 200.324 51.9701 200.448" fill="#CCCCCC"/>
<path d="M13.9871 201.742C13.7693 201.842 13.5499 201.94 13.332 202.04C18.6324 203.179 23.7102 205.797 28.0549 209.633C27.5148 205.08 27.6575 200.409 28.4767 195.917" fill="#CCCCCC"/>
<path d="M67.9577 125.669C67.927 125.669 67.8963 125.667 67.8656 125.661C67.8349 125.656 67.8058 125.648 67.7751 125.641C67.7567 125.639 67.7383 125.635 67.7199 125.63C65.4479 125.085 63.1329 124.53 60.7842 123.952C60.7735 123.95 60.7612 123.947 60.7504 123.943C58.1348 123.297 55.3335 122.597 52.5629 121.854C52.5521 121.853 52.5399 121.849 52.5292 121.847C50.4535 121.293 48.6064 120.781 46.8867 120.281C46.8683 120.277 46.8514 120.273 46.833 120.268C41.4022 118.694 36.7432 117.135 32.5857 115.5C32.3495 115.407 32.1715 115.17 32.1163 114.878L31.5348 111.743C30.7693 107.61 29.9761 103.335 29.1201 98.9674C29.0311 98.5101 29.2643 98.0527 29.6433 97.9435C30.0191 97.8342 30.4011 98.1175 30.4916 98.5749C31.3492 102.952 32.1423 107.233 32.9094 111.371L33.4033 114.032C37.4166 115.594 41.9115 117.092 47.1229 118.603C47.1383 118.607 47.1551 118.611 47.1705 118.614C48.8856 119.114 50.7281 119.625 52.8007 120.177C52.813 120.179 52.8252 120.182 52.836 120.184C55.6097 120.929 58.4216 121.63 61.045 122.278C61.0557 122.282 61.0665 122.284 61.0788 122.288C63.1283 122.791 65.1518 123.278 67.1431 123.756C65.9756 112.5 63.8386 97.8213 61.4976 84.9845C50.8186 82.4571 39.2714 80.5592 26.2483 79.1928C27.3682 83.5828 28.5142 88.7005 29.7415 94.7884C29.8335 95.2457 29.6003 95.705 29.2229 95.8161C28.844 95.9272 28.4635 95.6476 28.3715 95.1903C27.0383 88.571 25.8018 83.1088 24.5914 78.4929C24.5208 78.2226 24.5653 77.9263 24.7126 77.706C24.8599 77.4838 25.0854 77.3672 25.3232 77.3894C39.0121 78.7892 51.081 80.7629 62.2232 83.4236C62.4978 83.4884 62.7141 83.744 62.7739 84.0735C65.2316 97.4658 67.479 112.958 68.6388 124.502L68.6572 124.66C68.6634 124.706 68.6665 124.752 68.6665 124.798C68.6665 125.045 68.5775 125.287 68.4241 125.448C68.2937 125.585 68.1265 125.665 67.9562 125.665L67.9577 125.669Z" fill="black"/>
<path d="M68.4314 125.944C68.0862 125.944 67.784 125.637 67.7349 125.211C67.6812 124.746 67.9497 124.317 68.3347 124.252C69.3749 124.078 70.7954 123.844 72.4323 123.576C79.2883 122.452 89.6481 120.752 92.4617 119.993C92.8421 119.891 93.218 120.178 93.3024 120.638C93.3867 121.097 93.149 121.55 92.7685 121.654C89.8967 122.43 79.5015 124.135 72.621 125.263C70.9857 125.531 69.5682 125.763 68.5296 125.938C68.4958 125.944 68.4636 125.946 68.4314 125.946V125.944Z" fill="black"/>
<path d="M92.9107 121.628C92.8462 121.628 92.7818 121.616 92.7174 121.596C87.437 119.789 83.0648 118.882 78.4348 117.921C74.8803 117.182 71.206 116.419 67.001 115.208C66.6221 115.099 66.3889 114.64 66.4795 114.184C66.57 113.727 66.9489 113.446 67.3279 113.555C71.4884 114.755 75.141 115.512 78.6726 116.245C83.3393 117.214 87.7484 118.13 93.1009 119.961C93.4752 120.089 93.6931 120.559 93.5872 121.011C93.4998 121.385 93.216 121.629 92.9092 121.629L92.9107 121.628Z" fill="black"/>
<path d="M50.0588 100.088C50.1739 102.332 49.0509 104.726 47.48 105.015C44.8582 105.498 42.557 100.357 43.8027 96.8645C45.5777 91.8949 49.8486 95.998 50.0573 100.088H50.0588Z" fill="black"/>
<path d="M43.1569 96.5289C43.8902 94.4755 45.1588 93.4775 46.6393 93.7867C48.6873 94.2163 50.6126 97.1362 50.7614 100.036C50.8903 102.541 49.6446 105.477 47.5859 105.857C44.3811 106.448 41.6964 100.615 43.1553 96.5289H43.1569ZM46.1254 95.4346C45.4335 95.4346 44.8705 96.0271 44.4517 97.2029C43.3946 100.16 45.3875 104.542 47.3757 104.176C48.5094 103.967 49.4543 102.043 49.3562 100.141C49.2472 98.0342 47.8098 95.7605 46.3984 95.4642C46.3064 95.4439 46.2144 95.4346 46.1254 95.4346Z" fill="black"/>
<path d="M93.706 130.844C90.5534 130.481 85.882 129.38 78.0718 127.952C75.0266 127.395 73.8607 126.224 71.3984 125.465C70.5271 124.821 69.1939 124.869 68.2826 124.693C66.6795 124.386 65.0856 123.997 63.5024 123.566C60.7548 122.818 57.8614 123.177 55.1783 122.447C53.8651 122.09 52.7713 121.029 51.5593 120.324C45.8156 116.976 38.7894 123.134 34.8467 127.863C30.6356 132.914 28.6044 135.712 25.1021 141.694C21.905 147.154 19.6636 154.592 17.7966 160.271C14.4599 170.423 13.2648 182.475 12.1587 193.345C11.8611 196.28 10.6952 199.892 12.8721 201.459C14.0457 202.303 27.4063 204.66 31.5975 204.997C31.5361 204.878 31.5085 204.732 31.5345 204.586C32.3123 200.022 33.7391 190.888 35.1198 182.056C39.0578 156.868 39.3693 154.781 40.6012 151.443C43.5482 143.457 50.7539 137.978 56.5436 133.577C56.7645 133.41 57.053 133.49 57.191 133.755C57.3291 134.019 57.2632 134.369 57.0438 134.536C51.3614 138.856 44.2891 144.233 41.4587 151.904C40.256 155.166 39.8893 157.66 36.0433 182.267C32.3185 206.097 32.4504 204.903 32.3645 205.04C32.3768 205.04 32.3937 205.04 32.4059 205.04C32.4857 205.541 32.6253 205.832 32.834 205.869C40.8328 207.335 48.4083 207.845 56.223 207.323C57.955 193.44 60.1473 181.769 62.0005 168.475C62.5252 164.709 64.722 161.604 67.7151 160.362C73.1443 158.108 78.5136 155.585 83.6652 152.517C86.0799 151.078 88.6433 149.6 90.8218 147.675C96.0961 143.014 101.406 139.119 104.661 131.981C101.03 130.95 97.3771 131.264 93.706 130.842V130.844ZM21.8482 173.3L20.0272 179.777C19.7495 180.762 19.4642 181.782 19.6038 182.763C19.6835 183.321 19.8845 183.843 19.9351 184.489C20.0962 186.478 18.7462 187.989 18.085 189.553C17.9178 189.948 17.8641 190.231 17.9162 190.444C17.9607 190.625 18.1725 190.823 18.3458 190.788C18.6005 190.734 18.8444 190.94 18.8904 191.249C18.9349 191.558 18.7647 191.851 18.5085 191.905C17.835 192.045 17.183 191.458 17.0158 190.76C16.5494 188.827 19.1727 186.724 19.0009 184.602C18.9656 184.156 18.7554 183.504 18.6771 182.96C18.4961 181.693 18.8352 180.482 19.1359 179.414L20.9569 172.937C21.0397 172.641 21.3066 172.484 21.5521 172.584C21.7976 172.684 21.9295 173.006 21.8466 173.302L21.8482 173.3ZM25.5039 154.307C25.2508 154.24 25.0883 153.94 25.1435 153.633C25.5485 151.357 26.3216 149.199 27.44 147.214C27.5857 146.954 27.8788 146.888 28.0936 147.064C28.3084 147.24 28.3636 147.593 28.2178 147.851C27.167 149.713 26.4428 151.739 26.0624 153.87C26.0071 154.176 25.7571 154.37 25.5039 154.305V154.307ZM29.9314 149.747L28.7701 152.915C28.6657 153.2 28.3881 153.331 28.1503 153.203C27.9125 153.078 27.8052 152.742 27.911 152.455L29.0707 149.289C29.1766 149.004 29.4527 148.874 29.6905 149C29.9283 149.126 30.0357 149.461 29.9299 149.748L29.9314 149.747ZM46.9048 127.813L45.633 129.02C45.5471 129.102 45.4444 129.141 45.3431 129.141C45.2035 129.141 45.0654 129.067 44.9734 128.924C44.8123 128.678 44.8491 128.322 45.0516 128.128L46.3234 126.921C46.5289 126.726 46.8235 126.771 46.9831 127.015C47.1441 127.261 47.1073 127.617 46.9048 127.811V127.813ZM48.4481 124.758C46.8312 125.438 45.3723 126.404 44.1128 127.633C44.0253 127.719 43.921 127.759 43.8182 127.759C43.6817 127.759 43.5451 127.687 43.453 127.548C43.2904 127.306 43.3211 126.948 43.5221 126.75C44.866 125.439 46.4201 124.408 48.1398 123.686C48.3837 123.582 48.6522 123.74 48.7381 124.036C48.824 124.332 48.6936 124.654 48.4481 124.758ZM52.3555 174.185C51.3752 175.876 49.9393 177.416 50.2369 179.101C50.3934 179.981 51.0377 180.832 51.4166 181.817C53.0489 186.043 49.387 190.407 50.4594 194.243C50.5422 194.539 50.4102 194.862 50.1648 194.962C49.9178 195.063 49.6524 194.9 49.5696 194.606C48.3653 190.301 51.9827 185.967 50.5652 182.295C50.2016 181.351 49.5204 180.482 49.3179 179.336C48.9129 177.051 50.6128 175.211 51.5854 173.533C53.0106 171.08 53.2437 167.868 52.1944 165.15C52.0855 164.866 52.1867 164.529 52.4214 164.396C52.6577 164.263 52.9354 164.387 53.0459 164.67C54.2363 167.755 53.9725 171.399 52.3555 174.183V174.185ZM93.1291 134.867C90.9875 138.091 88.1217 140.835 84.8418 142.803C84.6102 142.942 84.3279 142.829 84.2113 142.548C84.0963 142.268 84.1914 141.927 84.423 141.789C87.5817 139.894 90.3386 137.256 92.3958 134.16C92.5584 133.916 92.8545 133.877 93.057 134.073C93.2595 134.269 93.2917 134.627 93.1291 134.869V134.867Z" fill="black"/>
<path d="M26.2632 217.06C17.6276 216.012 10.7579 215.319 2.28496 214.299C0.812213 214.121 -0.253964 212.611 0.0528584 211.02C0.451727 208.926 1.15125 206.817 3.5506 205.588C6.1141 204.277 9.27128 204.205 11.9698 205.358C12.4085 203.842 12.9915 202.605 13.3306 201.087C13.4318 200.633 13.82 200.364 14.1927 200.485C14.5686 200.607 14.791 201.074 14.6898 201.527C14.2617 203.453 13.4962 204.927 13.0974 206.706C12.9838 207.211 12.5236 207.469 12.134 207.263C9.63185 205.941 6.55287 205.897 4.09982 207.152C2.37855 208.034 1.80017 209.433 1.42584 211.402C1.30925 212.011 1.8554 212.537 2.42609 212.605C10.902 213.625 17.8347 214.325 26.4058 215.366C26.7924 215.412 27.0746 215.83 27.0363 216.297C26.9979 216.754 26.6635 217.104 26.2647 217.058L26.2632 217.06Z" fill="black"/>
<path d="M27.9352 210.488C27.5502 210.416 27.2879 209.979 27.3492 209.516C27.6146 207.485 28.0089 204.567 28.1194 202.627C28.1454 202.158 28.4891 201.804 28.8711 201.836C29.2592 201.867 29.5522 202.275 29.5246 202.743C29.4095 204.76 29.0183 207.659 28.7406 209.779C28.6793 210.249 28.3126 210.56 27.9352 210.486V210.488Z" fill="black"/>
<path d="M51.9958 220.19C51.9713 220.19 51.9483 220.19 51.9253 220.187C42.7866 219.065 35.8094 218.369 26.9745 217.306C25.5171 217.13 24.4355 215.632 24.7408 214.03C25.1427 211.931 25.8438 209.822 28.2401 208.598C30.8021 207.289 33.9593 207.215 36.6593 208.366C37.0981 206.846 37.6826 205.611 38.0216 204.097C38.1214 203.643 38.5095 203.373 38.8853 203.497C39.2612 203.619 39.4836 204.086 39.3823 204.539C38.9605 206.435 38.1797 207.959 37.7885 209.714C37.6765 210.22 37.2178 210.481 36.8266 210.274C34.3229 208.953 31.244 208.913 28.7909 210.166C27.0727 211.044 26.4928 212.444 26.1154 214.416C26.0003 215.021 26.5464 215.549 27.1156 215.617C35.6836 216.649 42.5902 217.343 51.3515 218.411C51.4558 216.967 51.5909 215.828 51.7228 214.723C51.8839 213.375 52.0357 212.103 52.14 210.288C52.1661 209.82 52.5082 209.464 52.8917 209.498C53.2799 209.531 53.5729 209.937 53.5453 210.405C53.4379 212.283 53.2753 213.645 53.1173 214.964C52.9562 216.311 52.8043 217.585 52.7 219.402C52.6877 219.631 52.5972 219.844 52.4515 219.994C52.3242 220.124 52.1631 220.194 51.9974 220.194L51.9958 220.19Z" fill="black"/>
<path d="M30.1176 213.334C29.8722 212.97 29.9197 212.435 30.2219 212.138C30.9076 211.468 31.7284 211.018 32.5983 210.835C32.9833 210.755 33.3469 211.063 33.4144 211.525C33.4819 211.988 33.2257 212.429 32.8422 212.51C32.2086 212.644 31.6087 212.973 31.1102 213.46C30.8079 213.757 30.3646 213.699 30.1191 213.334H30.1176Z" fill="black"/>
<path d="M138.17 33.2332C129.644 21.2 115.935 19.0096 106.804 25.3012C106.466 25.5345 106.035 25.3919 105.842 24.9846C105.649 24.5772 105.767 24.0569 106.104 23.8236C115.729 17.1932 130.217 19.391 139.241 32.1279C139.494 32.4852 139.459 33.0222 139.163 33.3277C138.865 33.635 138.42 33.5887 138.17 33.2332Z" fill="black"/>
<path d="M98.3017 209.709C94.1089 209.669 89.5128 209.115 84.2508 208.017C74.7316 206.028 64.0143 202.225 56.7135 189.105C56.4972 188.715 56.5815 188.187 56.9052 187.926C57.2259 187.665 57.6661 187.767 57.8824 188.157C64.8887 200.746 75.2639 204.414 84.49 206.341C89.6753 207.423 94.1964 207.969 98.3109 208.01C106.974 208.087 123.156 206.434 134.435 194.352C134.726 194.04 135.171 194.073 135.43 194.425C135.688 194.777 135.662 195.313 135.37 195.625C125.575 206.115 111.351 209.833 98.2986 209.709H98.3017Z" fill="black"/>
<path d="M137.89 191.122C137.696 191.122 137.502 191.025 137.363 190.836C137.103 190.485 137.131 189.948 137.421 189.637C145.73 180.729 149.956 164.931 149.982 142.683C149.993 133.77 148.537 124.86 147.129 116.247C143.498 94.0334 143.817 88.6843 145.26 75.0217C145.823 69.7003 146.405 64.1956 146.219 58.7909C146.204 58.3225 146.506 57.9263 146.894 57.9059C147.301 57.8763 147.61 58.2503 147.627 58.7206C147.962 68.4783 145.912 78.0601 145.682 87.6734C145.237 106.15 151.415 124.012 151.392 142.687C151.366 165.44 146.98 181.666 138.357 190.909C138.222 191.053 138.056 191.123 137.889 191.123L137.89 191.122Z" fill="black"/>
<path d="M69.3714 151.926C69.04 151.681 68.9341 151.157 69.1382 150.757C69.3407 150.357 69.7748 150.23 70.1077 150.476C79.5455 157.436 95.4267 151.116 102.79 141.037C104.355 138.894 105.725 136.478 107.051 134.14C108.456 131.658 109.715 128.883 110.932 126.198C113.818 119.833 116.803 113.248 122.169 109.371C123.42 108.468 124.151 106.818 124.081 105.063C123.693 95.3439 124.725 92.5796 127.792 84.3735L128.378 82.8015C128.536 82.3738 128.955 82.183 129.309 82.3738C129.663 82.5663 129.823 83.07 129.663 83.4977L129.076 85.0715C126.114 92.998 125.115 95.6698 125.488 104.979C125.583 107.362 124.589 109.605 122.892 110.83C117.854 114.471 114.962 120.847 112.167 127.013C110.933 129.735 109.657 132.547 108.212 135.097C106.862 137.476 105.467 139.939 103.846 142.159C95.9621 152.953 79.5425 159.424 69.3714 151.926Z" fill="black"/>
<path d="M100.075 176.579C99.9832 176.122 100.216 175.663 100.595 175.553C116.096 171.038 128.869 153.912 130.965 134.832C131.015 134.367 131.365 134.036 131.756 134.101C132.141 134.162 132.413 134.59 132.362 135.056C130.185 154.866 117.191 172.467 100.925 177.207C100.551 177.318 100.167 177.038 100.075 176.579Z" fill="black"/>
<path d="M132.88 170.311C132.559 170.045 132.478 169.515 132.699 169.128L136.17 163.035C136.391 162.648 136.83 162.549 137.151 162.816C137.471 163.083 137.553 163.612 137.332 163.999L133.86 170.093C133.64 170.478 133.202 170.58 132.88 170.311Z" fill="black"/>
<path d="M136.679 95.3631L136.363 83.5558C136.351 83.0855 136.656 82.693 137.044 82.6782C137.414 82.6634 137.758 83.03 137.771 83.5002L138.087 95.3076C138.1 95.7779 137.794 96.1704 137.406 96.1852C137.015 96.2 136.693 95.8297 136.679 95.3631Z" fill="black"/>
<path d="M57.5148 65.5326C56.8781 67.3472 56.5575 69.3172 56.5759 71.2836C56.5851 72.1631 56.6573 73.0722 56.4072 73.8999C56.1571 74.7275 55.456 75.4459 54.738 75.257C53.994 75.0589 53.6366 74.0628 53.4095 73.1907C52.0733 68.0527 51.2879 62.7109 51.0762 57.334C51.8432 60.041 52.6087 62.7461 53.3758 65.4531C53.543 66.0419 53.7439 66.6806 54.198 66.9806C54.8592 67.4176 55.7092 66.8769 56.1357 66.1307C56.5621 65.3845 56.7293 64.4698 57.0868 63.6737C57.4442 62.8775 58.1315 62.1536 58.874 62.3165C58.3785 64.07 57.5639 65.6937 56.5023 67.0398L57.5133 65.5289L57.5148 65.5326Z" fill="#CCCCCC"/>
<path d="M109.588 80.8364C108.477 78.8922 106.095 76.3908 104.478 75.0465C104.113 74.7429 103.619 74.4559 103.255 74.7614C103.004 74.9725 102.938 75.3798 102.895 75.7446C102.6 78.1812 102.304 80.6198 102.009 83.0564C101.799 84.7969 100.406 88.5888 100.304 90.3441C99.8602 97.8318 102.548 103.225 104.229 110.456C103.478 102.914 104.349 95.147 106.739 88.1129C107.782 85.043 110.149 82.9194 108.956 79.9291L109.589 80.8383L109.588 80.8364Z" fill="#CCCCCC"/>
<path d="M116.22 59.9441C115.228 58.5703 112.945 56.4577 111.55 55.7393C112.744 58.8128 114.557 63.6657 115.749 66.7393C116.137 67.741 116.593 68.8223 117.437 69.2685C118.185 69.6648 119.086 69.4407 119.77 68.9037C120.454 68.3668 120.956 67.5577 121.389 66.7264C122.054 65.4506 122.762 63.9639 122.932 62.4863C121.665 62.0808 120.764 63.5954 119.506 63.7287C117.832 63.9064 117.259 61.3846 116.219 59.9441H116.22Z" fill="#CCCCCC"/>
<path d="M47.66 51.9376C47.3992 51.9376 47.1477 51.7616 47.0265 51.458C46.3668 49.8212 46.1536 47.6882 46.0508 46.6624C46.0354 46.5125 46.0232 46.3884 46.0124 46.2958C45.8774 45.1627 45.724 43.9962 45.4647 43.2704C45.457 43.2482 45.4493 43.2242 45.4432 43.2001C45.2284 42.6335 45.0014 42.067 44.7284 41.5874C44.5489 41.2671 44.354 41.0134 44.1607 40.8449C43.4934 40.2783 42.5315 40.245 41.519 40.258C41.0128 40.2635 40.4436 40.2709 39.991 40.4746C39.6413 40.6338 39.3697 40.9504 39.3467 41.23C39.3099 41.6818 39.8729 42.1854 40.4359 42.4095C40.5847 42.465 40.844 42.5113 41.1033 42.5521C41.7139 42.6557 42.3182 42.7576 42.7478 43.1038C42.78 43.1279 42.8092 43.1519 42.8399 43.1816C42.8475 43.1871 42.8705 43.2093 42.8782 43.2167C43.1068 43.4445 43.3614 43.8925 43.2847 44.7369C43.2126 45.5108 42.803 46.7921 42.1173 47.2105C41.7706 47.4216 41.3472 47.255 41.1708 46.8347C40.9943 46.4162 41.1339 45.9034 41.4822 45.6923C41.6463 45.5405 41.8857 44.822 41.8933 44.472C41.6801 44.3665 41.2245 44.2887 40.9376 44.2406C40.551 44.1795 40.2534 44.1203 40.0079 44.0277C38.8941 43.587 37.831 42.5002 37.9461 41.0652C38.0228 40.1302 38.6318 39.2729 39.4985 38.8822C40.1827 38.573 40.9161 38.5656 41.5052 38.5582C42.7064 38.536 43.9629 38.5952 44.98 39.4599C45.3159 39.7506 45.6212 40.1432 45.8943 40.6283C46.2257 41.2115 46.4864 41.8577 46.7166 42.4687C46.735 42.5187 46.7549 42.5705 46.7703 42.6224C47.0924 43.5371 47.2566 44.7665 47.41 46.0515C47.4223 46.1533 47.436 46.2903 47.4529 46.457C47.5465 47.3901 47.7413 49.3324 48.2967 50.7118C48.467 51.134 48.3213 51.6432 47.9715 51.8487C47.8718 51.908 47.7674 51.9339 47.6631 51.9339L47.66 51.9376ZM42.0482 44.5813C42.0482 44.5813 42.0544 44.585 42.059 44.5869C42.056 44.585 42.0528 44.5832 42.0482 44.5813Z" fill="black"/>
<path d="M36.8053 54.0361C36.5399 54.0361 36.2852 53.8527 36.1656 53.5416C34.837 50.0792 34.5179 49.0924 33.3305 45.417L33.1096 44.7357C33.0068 44.4247 32.9086 44.1136 32.8319 43.7803C32.6939 43.2211 32.6509 42.7082 32.7031 42.2231C32.8212 41.1622 33.5653 40.0661 34.6054 40.0605C35.2589 40.0605 35.9094 40.5123 36.3513 41.2696L36.5138 41.551C36.7439 41.9454 37.0047 42.3916 37.2011 42.8137L37.3239 43.0766C37.4543 43.384 37.5631 43.671 37.6736 43.9969C37.6859 44.0284 37.6982 44.0617 37.7074 44.095C37.7212 44.1431 37.738 44.1931 37.7534 44.245L37.7933 44.3709C38.1001 45.2763 37.9605 46.2595 37.4281 46.8483C37.0553 47.2686 36.4709 47.4074 35.9477 47.2001C35.4952 47.0223 35.1761 46.6058 35.0933 46.0873C35.0196 45.6263 35.2697 45.1801 35.6517 45.0912C35.9846 45.0153 36.3067 45.2319 36.4325 45.593C36.4555 45.593 36.477 45.5911 36.4893 45.5837C36.5614 45.5003 36.5629 45.2356 36.4801 44.9912L36.4387 44.8635C36.4218 44.8098 36.4049 44.7579 36.3896 44.7061C36.3865 44.695 36.3819 44.6857 36.3788 44.6746C36.2806 44.3802 36.1855 44.1265 36.0781 43.8747L35.9754 43.6544C35.8112 43.3044 35.5719 42.8934 35.3617 42.5323L35.196 42.2472C35.0257 41.9565 34.7926 41.7639 34.607 41.7639C34.3615 41.7639 34.1344 42.1268 34.0992 42.4471C34.0731 42.6878 34.1007 42.9711 34.1851 43.3118C34.2464 43.5784 34.3308 43.8414 34.4198 44.1135L34.6407 44.7986C35.8158 48.4351 36.1319 49.4127 37.442 52.827C37.6046 53.2528 37.4512 53.7583 37.0983 53.9564C37.0032 54.0101 36.902 54.0361 36.8023 54.0361H36.8053Z" fill="black"/>
<path d="M38.4301 46.449C38.1877 46.449 37.9423 46.3916 37.7029 46.2749C37.0709 45.9694 36.5201 45.2584 36.3314 44.5085C36.2179 44.0586 36.4296 43.5846 36.8009 43.4494C37.1706 43.3124 37.5664 43.568 37.6799 44.0179C37.7367 44.2456 37.9622 44.5697 38.2261 44.6974C38.4301 44.7955 38.5666 44.7308 38.6525 44.6734C38.7799 44.5086 38.7645 43.5624 38.5221 43.0754C38.3227 42.6718 38.4301 42.1497 38.7645 41.909C39.0974 41.6683 39.5315 41.7979 39.731 42.2015C40.0439 42.8329 40.2649 44.0161 40.0562 44.9659C39.9074 45.6491 39.5868 45.9898 39.346 46.1546C39.0591 46.3509 38.7461 46.449 38.4286 46.449H38.4301Z" fill="black"/>
<path d="M34.7637 41.7601C34.463 41.7601 34.1838 41.5249 34.0902 41.1601C33.8663 40.2862 34.463 39.2605 34.8895 38.8217C35.1656 38.5365 35.9404 38.0569 36.617 37.9829C36.936 37.5311 37.3502 37.2608 37.9132 37.1238C38.1848 37.0571 38.579 37.0164 38.9902 37.0441C38.5207 34.6056 38.0651 32.0672 37.7506 29.5805C37.6754 28.9751 37.6171 28.3825 37.7414 27.7604C37.9071 26.9235 38.398 26.2607 39.0224 26.033C39.8462 25.733 40.6701 26.2311 41.1272 26.8569C41.5583 27.4475 41.75 28.1678 41.905 28.7473L44.74 39.4178C44.8582 39.8659 44.6542 40.3436 44.2844 40.4881C43.9132 40.6325 43.5173 40.3862 43.3977 39.9381L40.5626 29.2676C40.4368 28.7955 40.3065 28.3067 40.0702 27.9808C39.8922 27.7364 39.6115 27.5956 39.4305 27.6604C39.2679 27.7197 39.1528 27.953 39.1129 28.1567C39.0484 28.4807 39.0899 28.8769 39.1467 29.325C39.5102 32.2135 40.0779 35.1982 40.6271 38.007C40.6946 38.3514 40.578 38.7087 40.3356 38.9068C40.0932 39.1049 39.7741 39.1013 39.5348 38.8976C39.3645 38.7532 38.6711 38.6716 38.1924 38.7883C37.8258 38.8772 37.7061 39.0105 37.5803 39.2771C37.4162 39.6178 37.0833 39.7733 36.7764 39.6678C36.5617 39.6678 35.9634 39.9548 35.8069 40.114C35.6566 40.2696 35.4878 40.588 35.4572 40.7361C35.5308 41.1601 35.3252 41.5916 34.9739 41.7212C34.9048 41.7471 34.8343 41.7582 34.7668 41.7582L34.7637 41.7601Z" fill="black"/>
<path d="M39.1524 43.5404C38.9192 43.5404 38.6891 43.3997 38.5556 43.1423C38.4344 42.9108 37.9834 42.0629 37.5324 41.2167C37.0783 40.3631 36.6227 39.5096 36.5015 39.2763C36.2944 38.8782 36.3926 38.3542 36.7224 38.1042C37.0507 37.8561 37.4864 37.9746 37.6935 38.3708C37.8147 38.6023 38.2657 39.4503 38.7168 40.2964C39.1709 41.15 39.6264 42.0036 39.7476 42.2369C39.9547 42.6349 39.8566 43.1589 39.5267 43.4089C39.4101 43.4978 39.2813 43.5385 39.1524 43.5385V43.5404Z" fill="black"/>
<path d="M78.2428 32.7611C77.0922 32.7611 75.9278 32.3222 75.0472 31.5538C73.3045 30.0319 72.0818 27.6119 71.6032 24.742C70.8745 20.3723 70.833 16.6841 71.4804 13.7808C71.5817 13.3272 71.9698 13.0587 72.3426 13.1809C72.7185 13.3031 72.9409 13.7697 72.8397 14.2234C72.2583 16.8341 72.3089 20.3539 72.9839 24.4069C73.392 26.8565 74.4183 28.9061 75.8726 30.1763C77.2365 31.3668 79.5391 31.4743 80.5808 29.8356C80.8171 29.4635 81.2589 29.3912 81.5688 29.6782C81.8771 29.9634 81.937 30.4985 81.6992 30.8706C80.8646 32.1871 79.5621 32.763 78.2428 32.763V32.7611Z" fill="black"/>
<path d="M78.4075 42.0233C78.3615 42.0233 78.3139 42.0177 78.2663 42.0065C77.8859 41.914 77.6389 41.466 77.7156 41.0049C78.0025 39.2904 78.0516 36.6075 78.0869 34.6485C78.1145 33.1691 78.1298 32.5007 78.205 32.1507C78.3032 31.6971 78.6867 31.425 79.0641 31.5416C79.44 31.6601 79.6655 32.1211 79.5688 32.5747C79.5305 32.7969 79.5121 33.8005 79.4952 34.6856C79.4584 36.7075 79.4078 39.4774 79.0963 41.3401C79.0288 41.7437 78.7343 42.0233 78.406 42.0233H78.4075Z" fill="black"/>
<path d="M85.0835 29.0504C84.792 29.0504 84.5174 28.8301 84.4177 28.4764C84.2904 28.032 84.4867 27.5488 84.8534 27.3951C86.0653 26.8915 86.8385 25.501 87.13 24.4641C87.2558 24.0197 87.6562 23.7827 88.0244 23.9327C88.3926 24.0845 88.589 24.5678 88.4647 25.0122C88.0505 26.4804 87.0058 28.2986 85.3136 29.0022C85.2369 29.0337 85.1602 29.0485 85.0835 29.0485V29.0504Z" fill="black"/>
<path d="M75.1006 24.3519C74.8106 24.3519 74.5192 24.2353 74.263 24.0113C73.8058 23.6095 73.5205 22.9188 73.5373 22.2504C73.5603 21.3302 73.9976 20.5988 74.3489 20.0119L74.3857 19.9508C74.6327 19.536 74.8812 19.062 74.8368 18.6936C74.7815 18.2288 75.0484 17.7975 75.4335 17.7308C75.817 17.6623 76.176 17.9863 76.2312 18.451C76.3478 19.4175 75.9413 20.2545 75.5302 20.9451L75.4918 21.008C75.2157 21.4691 74.9564 21.9042 74.9457 22.3023C74.9426 22.4412 75.0408 22.6022 75.1022 22.6467C75.4596 22.5152 75.8446 22.7448 75.9704 23.1744C76.1008 23.6169 75.9106 24.1039 75.544 24.2613C75.3998 24.3224 75.2509 24.3538 75.1006 24.3538V24.3519Z" fill="black"/>
<path d="M75.904 27.3387C75.5665 27.3387 75.2275 27.2461 74.9268 27.0591C74.5801 26.8443 74.4436 26.3333 74.6215 25.9149C74.7995 25.4964 75.2229 25.3316 75.5696 25.5464C75.7721 25.6723 76.0345 25.6723 76.2354 25.5464C76.5821 25.3334 77.0071 25.5001 77.182 25.9204C77.3584 26.3388 77.2203 26.8517 76.8736 27.0628C76.5744 27.2461 76.2385 27.3387 75.904 27.3387Z" fill="black"/>
<path d="M123.257 41.8949C119.795 41.8949 117.613 37.2327 117.027 35.7996C116.613 34.7887 116.242 33.7092 115.883 32.6649C115.053 30.2505 114.194 27.7545 112.704 25.7197C110.346 22.4998 106.864 21.0371 103.994 18.8726C101.605 17.0692 99.3712 14.5863 97.607 11.8904C97.3738 11.3757 97.1437 10.8573 96.9336 10.3277C96.7387 9.83706 96.5515 9.33713 96.3628 8.83536C95.4163 6.31539 94.4391 3.7084 92.5061 2.02719C90.9336 0.658891 88.881 0.0294025 86.0475 0.0312541C84.2127 0.0349572 79.5444 0.264572 75.8288 2.32165C73.5399 3.58811 71.5593 6.28761 70.7846 9.19825C70.2538 11.1887 70.3504 13.0347 71.0607 14.5363C71.2141 14.8622 71.5271 15.027 71.8294 14.9437C73.4386 14.5012 75.3026 12.046 76.2737 9.2205C77.7679 10.5629 79.3603 12.1515 80.9098 13.6939C85.0196 17.7895 86.5476 19.1985 87.5325 18.9263C87.8332 18.843 88.071 18.6116 88.1984 18.2728C88.5711 17.2914 89.0375 17.3599 89.1909 17.384C90.478 17.5765 91.9922 20.452 90.8723 22.0073C90.2279 22.8998 89.0421 23.2793 87.844 22.972C87.6507 22.922 87.4497 22.972 87.2886 23.1109C87.1275 23.2479 87.0232 23.4608 86.9971 23.6978C86.9358 24.2829 86.8774 24.8717 86.8192 25.4587C86.6473 27.1991 86.4679 28.9988 86.2071 30.7319C86.1749 30.9467 86.1488 31.1614 86.1304 31.378C85.8312 34.7812 87.215 38.6639 89.6542 41.2727C90.8002 42.4985 92.1548 43.4316 93.4634 44.3352C95.4777 45.7239 97.3799 47.0366 98.4124 49.2604C98.6226 49.714 98.7944 50.2046 98.977 50.7231C99.3007 51.647 99.6366 52.6025 100.224 53.4245C100.933 54.4133 101.722 54.7632 102.515 54.7632C103.639 54.7632 104.773 54.0633 105.707 53.4875C105.92 53.356 106.127 53.2283 106.33 53.1116C106.697 52.8987 107.063 52.6746 107.43 52.4506C108.975 51.5063 110.434 50.6139 112.015 50.5287C112.778 50.4898 113.551 50.6416 114.366 50.8027C114.677 50.8638 114.988 50.9268 115.3 50.9767C116.578 51.186 118.443 51.3008 119.873 49.8732C120.766 48.9808 121.185 47.6402 120.962 46.3756C120.476 43.6112 117.781 43.3409 116.262 42.2448C114.346 40.8617 113.852 37.7159 113.496 35.2126C113.227 33.3333 112.95 31.391 112.135 29.6505C111.004 27.2361 109.088 25.7012 107.234 24.2181C105.712 22.9979 104.422 21.9314 102.616 19.8206C105.818 22.4165 109.352 23.7201 111.646 26.851C112.98 28.673 113.758 30.9318 114.58 33.3222C114.949 34.3924 115.329 35.4996 115.763 36.5587C117.27 40.2377 119.961 43.6539 123.313 43.6002C123.702 43.5965 124.014 43.2114 124.011 42.7429C124.008 42.3171 123.742 41.9004 123.256 41.9004L123.257 41.8949ZM108.172 44.3037C108.38 44.4926 108.421 44.8481 108.264 45.0981C108.11 45.348 107.815 45.398 107.606 45.211C104.391 42.2911 101.551 38.8361 99.1642 34.9386C96.9474 31.3188 96.9673 29.671 97.2496 27.1473C97.3647 26.1141 97.4751 25.1383 97.245 24.2403C96.596 21.6944 93.448 20.7335 92.1701 18.0673C91.693 17.0748 91.5258 15.9713 91.3647 14.9048C91.2819 14.3567 91.2036 13.8401 91.0855 13.3365C90.3323 10.1018 87.7534 7.59674 84.9522 7.37825C84.6929 7.35789 84.4965 7.08941 84.5134 6.7765C84.5303 6.46359 84.7405 6.22467 85.012 6.24689C88.1968 6.49315 91.1316 9.34646 91.9891 13.0292C92.118 13.5828 92.2039 14.1512 92.2867 14.7011C92.4402 15.7176 92.5859 16.6786 92.9802 17.5007C94.1507 19.9392 97.3539 20.8223 98.1409 23.9089C98.6149 25.7697 97.9767 27.6287 98.0534 29.3395C98.1348 31.1281 98.9969 32.7649 99.9189 34.2684C102.252 38.077 105.028 41.4542 108.171 44.3074L108.172 44.3037Z" fill="black"/>
<path d="M107.019 133.568C106.995 133.568 106.972 133.569 106.947 133.565C87.1509 131.095 87.0419 131.43 81.039 131.719C80.6539 131.735 80.3225 131.373 80.3072 130.902C80.2919 130.434 80.5941 130.038 80.9838 130.019C86.887 129.736 87.0358 129.382 106.119 131.752C103.122 114.951 103.658 92.3122 107.326 83.621C107.502 83.2026 107.929 83.036 108.274 83.2489C108.621 83.4618 108.759 83.9746 108.582 84.3931C104.951 92.9973 104.532 115.94 107.706 132.528C107.757 132.795 107.699 133.076 107.548 133.282C107.413 133.465 107.222 133.568 107.021 133.568H107.019Z" fill="black"/>
<path d="M62.6917 54.3943C62.5721 54.3943 62.4493 54.3573 62.3388 54.2795C62.0029 54.0444 61.8878 53.5241 62.0826 53.1168C63.4956 50.1728 64.6078 48.2454 65.6894 46.866L65.8351 46.6789C67.3999 44.6829 71.0664 40.0096 75.8329 41.2002C75.9602 41.2317 76.0799 41.3075 76.1735 41.4149C76.9451 42.2962 77.7536 43.7275 78.7937 46.0586C79.7173 48.1249 81.2789 49.5025 83.1935 49.9377C85.2891 50.4135 87.4583 49.6914 89.1474 47.9584C90.0679 47.0141 91.5191 45.2013 92.6851 43.7442C93.5074 42.7166 94.2177 41.8297 94.6211 41.3909C94.9111 41.0761 95.3575 41.1076 95.6167 41.4557C95.8775 41.8056 95.853 42.3425 95.5631 42.6573C95.1964 43.0554 94.503 43.9219 93.6991 44.9254C92.4503 46.4863 91.0344 48.2565 90.0602 49.2544C88.0459 51.3208 85.4472 52.178 82.9328 51.6078C80.5932 51.0764 78.6817 49.3914 77.5526 46.8641C76.985 45.5957 76.1535 43.8293 75.3451 42.8184C71.4361 41.9982 68.3541 45.9364 66.8568 47.8453L66.7095 48.0342C65.7078 49.3118 64.6554 51.1411 63.2992 53.9666C63.1688 54.2388 62.9326 54.3906 62.6886 54.3906L62.6917 54.3943Z" fill="black"/>
<path d="M42.7539 79.9662C41.4668 75.8446 40.5111 72.2378 39.5875 68.7494C38.6671 65.2759 37.7143 61.6821 36.438 57.5957C36.3551 57.3346 36.3858 57.0402 36.5193 56.8106C36.6512 56.5829 36.8675 56.4459 37.0977 56.4459C37.1038 56.4459 37.1115 56.4459 37.1176 56.4459C38.6103 56.4459 40.3239 55.3201 41.8366 54.3258C42.0345 54.1962 42.2292 54.0685 42.4179 53.9463C42.8874 53.6426 43.3369 53.3 43.8109 52.939C44.4644 52.4409 45.141 51.9262 45.8758 51.5189C47.5756 50.5838 48.9839 50.4728 50.1836 51.1782C50.3554 51.2782 50.4843 51.4578 50.5441 51.6763C50.9537 53.176 51.2866 54.4739 51.5797 55.62C52.3559 58.651 52.9696 61.047 54.4515 64.9686C54.5911 65.337 54.8765 65.587 55.217 65.6351C55.5607 65.6833 55.8751 65.5277 56.0838 65.2055C57.331 63.2818 58.5491 60.7544 59.6797 58.3104C59.87 57.8993 60.2995 57.7549 60.6385 57.9827C60.9776 58.2104 61.1003 58.7288 60.9101 59.1399C59.7518 61.6432 58.5 64.2391 57.1929 66.2554C56.6805 67.0442 55.8813 67.4441 55.0498 67.3256C54.2183 67.2071 53.5142 66.5886 53.1675 65.6758C51.6487 61.6543 51.0228 59.2139 50.2327 56.1237C49.9658 55.0813 49.6666 53.9111 49.3061 52.5798C48.5467 52.265 47.6339 52.4243 46.4603 53.0686C45.8114 53.426 45.2039 53.8889 44.5626 54.3795C44.087 54.7424 43.5962 55.1164 43.0807 55.4497C42.8951 55.57 42.7048 55.6941 42.51 55.8237C41.2029 56.6828 39.632 57.716 38.078 58.0456C39.2086 61.745 40.0815 65.0408 40.9299 68.2384C41.8488 71.7064 42.7984 75.2928 44.0732 79.3736C44.2098 79.8124 44.0272 80.3032 43.6621 80.4698C43.2924 80.6365 42.8905 80.4087 42.7539 79.9736V79.9662Z" fill="black"/>
<path d="M118.446 64.2595L106.207 50.2358C105.924 49.9117 105.914 49.3748 106.18 49.0342C106.449 48.6935 106.894 48.6804 107.176 49.0026L119.414 63.0244C119.875 63.5503 120.627 63.5447 121.078 62.9689C123.577 59.7861 124.872 58.2771 126.093 56.6718C126.357 56.3256 126.804 56.3052 127.089 56.6218C127.376 56.9403 127.394 57.4772 127.132 57.8234C126.09 59.1917 124.303 61.3358 122.103 64.1391C121.63 64.7427 120.989 65.089 120.296 65.113C119.601 65.1371 118.946 64.8316 118.446 64.2632V64.2595Z" fill="black"/>
<path d="M120.288 91.217C119.915 91.217 119.541 91.0874 119.217 90.8226C112.223 85.0791 110.715 83.6737 104.552 77.1415C104.259 76.8322 104.23 76.2953 104.488 75.9417C104.744 75.5899 105.189 75.5528 105.482 75.8639C111.586 82.3332 113.08 83.7256 120.01 89.4154C120.223 89.5913 120.519 89.5395 120.68 89.3007C122.366 86.8381 123.896 84.6644 125.169 82.8628C125.421 82.5055 125.867 82.4628 126.162 82.7684C126.458 83.0739 126.493 83.6108 126.24 83.9682C124.97 85.7642 123.446 87.9305 121.768 90.3838C121.397 90.93 120.845 91.2189 120.288 91.2189V91.217Z" fill="black"/>
<path d="M128.115 80.8582C127.954 80.8582 127.791 80.7916 127.658 80.6546C127.362 80.3491 127.327 79.8121 127.58 79.4548C132.243 72.8577 136.181 67.1308 140.696 58.7988C139.826 56.5196 137.536 56.1066 135.589 54.8272C134.554 54.1403 133.098 52.9627 132.033 51.2501C131.964 51.1408 131.898 51.0315 131.835 50.9204C130.907 52.3665 130.108 53.5885 129.408 54.6347C129.164 54.9994 128.72 55.0568 128.417 54.7624C128.115 54.468 128.068 53.9311 128.311 53.5663C129.16 52.298 130.157 50.7649 131.358 48.88C131.507 48.6449 131.746 48.5209 131.993 48.5542C132.237 48.5857 132.45 48.7708 132.555 49.0393C133.257 50.852 134.807 52.3702 136.264 53.3386C137.218 53.9662 138.437 54.4384 139.484 55.105C140.821 55.9511 141.769 57.2065 142.154 58.6377C142.22 58.8821 142.191 59.1488 142.074 59.3635C137.432 67.9807 133.417 73.8224 128.65 80.562C128.511 80.7583 128.313 80.8601 128.114 80.8601L128.115 80.8582Z" fill="black"/>
<path d="M119.273 70.8817C118.888 70.8224 118.615 70.3947 118.664 69.93L119.192 64.9845C119.241 64.5197 119.589 64.1883 119.98 64.2494C120.365 64.3087 120.638 64.7363 120.589 65.2011L120.062 70.1467C120.012 70.6077 119.664 70.9409 119.273 70.8817Z" fill="black"/>
<path d="M44.7123 57.2315C44.5251 57.2315 44.338 57.1407 44.1983 56.963C43.9314 56.6204 43.9452 56.0817 44.2291 55.7614C44.9271 54.9689 45.8352 54.4282 46.7848 54.2393C47.1653 54.1616 47.532 54.4764 47.5949 54.9393C47.6593 55.4022 47.3985 55.8409 47.015 55.9169C46.3384 56.052 45.6926 56.4372 45.1955 57C45.059 57.1537 44.8856 57.2315 44.7123 57.2315Z" fill="black"/>
<path d="M55.526 73.9239C55.1501 73.9239 54.8387 73.5666 54.8218 73.1092C54.7482 70.9707 54.3739 68.8766 53.7096 66.888C53.5639 66.4529 53.7388 65.9567 54.0993 65.7808C54.4613 65.6049 54.8709 65.816 55.0167 66.2511C55.7408 68.4193 56.1488 70.7022 56.2301 73.037C56.2454 73.5055 55.9448 73.9017 55.5551 73.9221C55.5444 73.9221 55.5352 73.9221 55.526 73.9221V73.9239Z" fill="black"/>
<path d="M81.0193 114.395C80.9349 114.395 80.8474 114.377 80.7646 114.338C80.401 114.168 80.2215 113.675 80.3626 113.238C80.8581 111.698 82.1683 107.121 83.8266 101.327C88.6253 84.565 93.0927 69.136 95.1668 63.7776C95.0042 63.822 94.8369 63.8702 94.6682 63.9184C93.1602 64.3498 91.4497 64.8367 90.0935 64.1257C89.7391 63.9387 89.575 63.4444 89.7253 63.0148C91.0723 59.1728 93.0835 55.4623 95.0303 51.8739C95.9584 50.1631 96.8343 48.5468 97.6474 46.91C97.8484 46.5064 98.2811 46.3767 98.614 46.6193C98.9484 46.8618 99.0558 47.384 98.8564 47.7858C98.0295 49.4503 97.1044 51.1556 96.21 52.8053C94.455 56.0418 92.6432 59.382 91.3545 62.7704C92.2197 62.8703 93.2952 62.563 94.343 62.2631C95.0717 62.0557 95.7621 61.8576 96.4018 61.7891C96.681 61.7613 96.9356 61.9223 97.0737 62.2075C97.2118 62.4926 97.201 62.8481 97.0461 63.1184C95.4644 65.8865 89.0135 88.42 85.1583 101.883C83.4938 107.693 82.1805 112.285 81.6758 113.853C81.5669 114.19 81.3015 114.395 81.0193 114.395Z" fill="black"/>
<path d="M75.8291 96.9298C75.4763 96.9298 75.1725 96.6113 75.1311 96.1799C74.9976 94.8153 74.8442 92.8915 74.6678 90.6641C73.8302 80.088 72.27 60.4042 68.9747 55.2976C68.8428 55.0921 68.7952 54.8236 68.8474 54.5718C68.8996 54.3181 69.0438 54.1089 69.2401 54.0015C70.2619 53.4442 73.0278 53.8682 76.0684 55.0013C75.7309 52.822 75.4579 51.0594 75.1863 49.2986C74.858 47.1711 74.5297 45.0418 74.0833 42.1812C74.0112 41.7202 74.2643 41.2757 74.6463 41.1887C75.0298 41.1017 75.3965 41.4054 75.4686 41.8683C75.9135 44.7308 76.2418 46.8582 76.5717 48.9875C76.9 51.1149 77.2283 53.2442 77.6747 56.1048C77.7207 56.4029 77.6317 56.7085 77.4415 56.9066C77.2497 57.1047 76.9859 57.164 76.7481 57.064C74.1109 55.9475 71.9325 55.5031 70.7343 55.4531C73.824 62.1501 75.217 79.727 76.07 90.503C76.2464 92.7212 76.3967 94.6357 76.5287 95.9818C76.5747 96.4484 76.2985 96.8705 75.912 96.9261C75.8843 96.9298 75.8567 96.9316 75.8291 96.9316V96.9298Z" fill="black"/>
<path d="M140.169 61.1147C139.831 60.8833 139.712 60.3629 139.903 59.9556C140.666 58.3355 141.3 56.5209 142.538 55.1582C143.187 54.4379 143.957 53.9362 144.761 53.7085C145.581 53.4845 146.278 53.6807 147.198 53.8085C149.776 54.0825 152.314 53.5659 153.368 53.0716C153.506 53.0068 153.562 52.8512 153.533 52.6142C153.497 52.3328 153.327 52.0162 153.035 51.9884C152.46 51.9273 152.032 52.0235 146.858 52.2717C146.47 52.2939 146.141 51.9235 146.126 51.4551C146.111 50.9866 146.413 50.5905 146.802 50.572C151.756 50.3424 152.43 50.2146 153.152 50.2924C155.071 50.472 155.663 53.8066 153.881 54.6546C152.6 55.2564 149.869 55.7989 147.068 55.5027C146.135 55.3749 145.606 55.2212 145.075 55.3675C142.992 55.9563 142.082 58.767 141.126 60.7981C140.996 61.074 140.506 61.3517 140.166 61.1184L140.169 61.1147Z" fill="black"/>
<path d="M153.189 51.3754C153.08 50.9254 153.293 50.4534 153.667 50.32C154.025 50.1941 154.73 49.3868 154.559 48.9758C154.169 48.0444 152.601 48.0037 151.719 48.1463C150.047 48.4166 148.421 48.587 146.773 48.8536C146.388 48.9147 146.032 48.5888 145.982 48.124C145.929 47.6593 146.201 47.2316 146.586 47.1687C148.258 46.8984 149.886 46.728 151.532 46.4613C153.101 46.2095 155.099 46.4948 155.817 48.2093C156.051 48.7722 156.058 49.398 155.832 50.0238C155.496 50.9607 154.668 51.7402 154.063 51.9531C153.689 52.0845 153.299 51.8272 153.189 51.3754Z" fill="black"/>
<path d="M153.719 47.6124C153.682 47.1439 153.967 46.731 154.355 46.6866C154.447 46.6755 154.515 46.57 154.561 46.3682C154.658 45.9368 154.53 45.4998 154.45 45.4313C153.614 44.9888 151.743 45.335 147.044 45.4776C146.668 45.4924 146.327 45.1295 146.314 44.6592C146.298 44.1889 146.602 43.7945 146.992 43.7778L152.72 43.5168C153.716 43.4724 154.489 43.5927 155.026 43.8797C156.476 44.6499 156.334 48.1753 154.484 48.3808C154.101 48.4234 153.754 48.0845 153.719 47.6124Z" fill="black"/>
<path d="M153.627 44.8323C153.357 44.4953 153.363 43.9565 153.643 43.6306C153.772 43.4806 153.817 43.327 153.791 43.1196C153.734 42.6678 153.346 42.0956 152.927 41.842C152.435 41.5772 149.36 41.5365 148.524 41.679C148.141 41.7457 147.782 41.4217 147.726 40.957C147.671 40.4922 147.94 40.0608 148.325 39.9941C148.932 39.8886 152.633 39.759 153.558 40.32C154.237 40.7311 155.035 41.7012 155.182 42.8603C155.277 43.612 155.079 44.3194 154.622 44.8526C154.343 45.1785 153.898 45.1711 153.627 44.8323Z" fill="black"/>
<path d="M138.709 51.3277C138.465 50.9611 138.513 50.426 138.815 50.1316C139.611 49.3577 140.073 48.1153 140.564 46.7988C141.319 44.7621 142.247 42.6181 144.103 42.0404C144.883 41.7941 145.61 41.9108 146.28 41.8126C146.49 41.7812 147.185 41.6386 147.34 41.0887C147.448 40.7128 147.302 40.1499 146.992 39.7444C146.691 39.3463 146.24 39.0482 145.65 38.8594C143.795 38.2558 141.712 38.9371 139.935 40.7313C138.298 42.3866 137.052 44.7714 135.854 46.9691C135.778 47.1062 135.391 47.7117 134.524 49.0615C133.967 49.9298 133.272 51.0111 133.193 51.15C132.972 51.5332 132.533 51.6332 132.214 51.3703C131.895 51.1074 131.809 50.5853 132.024 50.1983C132.183 49.9132 134.518 46.3063 134.684 46.0193C135.977 43.6512 137.25 41.2257 139.03 39.426C142.474 35.9506 146.489 36.5598 148.029 38.5965C148.696 39.476 148.949 40.6702 148.67 41.6422C148.385 42.6569 147.573 43.3364 146.447 43.5012C144.867 43.7326 143.614 42.8884 142.106 46.8081C141.469 48.4597 140.923 50.265 139.697 51.4574C139.567 51.5833 138.949 51.6925 138.706 51.3277H138.709Z" fill="black"/>
<path d="M134.846 210.544H62.7228C62.3331 210.544 62.0186 210.162 62.0186 209.694C62.0186 209.225 62.3346 208.844 62.7228 208.844H134.846C135.236 208.844 135.55 209.225 135.55 209.694C135.55 210.162 135.234 210.544 134.846 210.544Z" fill="black"/>
</svg>
