<svg width="21" height="21" viewBox="0 0 21 21" fill="none" xmlns="http://www.w3.org/2000/svg">
<g clip-path="url(#clip0_3300_91186)">
<path d="M10.6348 20.2109C16.141 20.2109 20.6348 15.7168 20.6348 10.2109C20.6348 4.70469 16.1407 0.210938 10.6348 0.210938C5.12855 0.210938 0.634766 4.70504 0.634766 10.2109C0.634766 15.7172 5.12887 20.2109 10.6348 20.2109ZM13.6014 18.5257C14.168 17.8016 14.6023 16.938 14.9286 16.0699H17.2319C16.2559 17.168 15.0111 18.0212 13.6014 18.5257ZM18.1122 14.8984H15.3074C15.6532 13.6411 15.856 12.247 15.8991 10.7969H19.443C19.3442 12.2964 18.8695 13.6947 18.1122 14.8984ZM18.1122 5.52344C18.8695 6.72715 19.3442 8.12547 19.443 9.625H15.8991C15.856 8.17484 15.6532 6.78078 15.3074 5.52344H18.1122ZM17.2319 4.35156H14.9285C14.6024 3.48418 14.1682 2.62047 13.6014 1.89621C15.0111 2.4007 16.2559 3.25391 17.2319 4.35156ZM11.2207 1.48305C12.3705 1.87277 13.1954 3.24027 13.6672 4.35156H11.2207V1.48305ZM11.2207 5.52344H14.0889C14.4615 6.75695 14.6807 8.15637 14.7268 9.625H11.2207V5.52344ZM11.2207 10.7965H14.7268C14.6807 12.2655 14.4615 13.6649 14.0889 14.8984H11.2207V10.7965ZM11.2207 16.0699H13.6672C13.1946 17.1835 12.3696 18.5495 11.2207 18.9388V16.0699ZM4.03766 16.0703H6.34102C6.66711 16.9377 7.10137 17.8014 7.66813 18.5257C6.25848 18.0212 5.01363 17.168 4.03766 16.0703ZM10.0488 18.9388C8.89996 18.5495 8.07496 17.1836 7.6023 16.0703H10.0488V18.9388ZM10.0488 14.8984H7.18059C6.80801 13.6649 6.58883 12.2655 6.5427 10.7969H10.0488V14.8984ZM10.0488 9.625H6.5427C6.58883 8.15637 6.80801 6.75695 7.18059 5.52344H10.0488V9.625ZM10.0488 1.48305V4.35156H7.6023C8.07492 3.23836 8.89988 1.87246 10.0488 1.48305ZM7.66809 1.89621C7.10148 2.62023 6.66723 3.48379 6.34098 4.35156H4.03766C5.01363 3.25391 6.25848 2.40066 7.66809 1.89621ZM3.1573 5.52305H5.96215C5.61637 6.78078 5.41352 8.17484 5.37039 9.625H1.82656C1.92531 8.12547 2.4 6.72715 3.1573 5.52305ZM1.82656 10.7969H5.37039C5.41352 12.247 5.61637 13.6411 5.96215 14.8984H3.1573C2.4 13.6947 1.92531 12.2964 1.82656 10.7969Z" fill="black"/>
</g>
<defs>
<clipPath id="clip0_3300_91186">
<rect width="20" height="20" fill="white" transform="translate(0.634766 0.210938)"/>
</clipPath>
</defs>
</svg>
